<svg xmlns="http://www.w3.org/2000/svg" width="91" height="91" viewBox="0 0 91 91">
  <g id="Grupo_110676" data-name="Grupo 110676" transform="translate(-1125 -851)">
    <rect id="Rectángulo_36178" data-name="Rectángulo 36178" width="91" height="91" transform="translate(1125 851)" fill="#ff6148"/>
    <g id="Grupo_108633" data-name="Grupo 108633" transform="translate(1143 868.229)">
      <path id="Trazado_165821" data-name="Trazado 165821" d="M3936.851,150.707a16.486,16.486,0,0,1-3.356,1.566c-.282.089-.173.333-.174.514q-.008,4.886,0,9.772a3.676,3.676,0,0,1-.5,1.948,3.345,3.345,0,0,1-2.629,1.7,13.2,13.2,0,0,1-2.591,0,3.484,3.484,0,0,1-3.114-3.495q-.021-4.858.007-9.716a.764.764,0,0,0-.6-.889,14.93,14.93,0,0,1-9.976-15.062,14.723,14.723,0,0,1,7.66-12.158c.328-.194.458-.265.156-.642a3.469,3.469,0,0,1,1.446-5.434.592.592,0,0,0,.443-.621,4.395,4.395,0,0,1,6.666-3.421c.32.195.454.24.7-.129a7.016,7.016,0,0,1,11.728-.018.777.777,0,0,0,.753.386q10.685-.013,21.369-.006a3.544,3.544,0,0,1,3.827,3.812q0,21.806,0,43.613a3.549,3.549,0,0,1-3.825,3.814q-12.093,0-24.185,0a3.547,3.547,0,0,1-3.8-3.785C3936.85,158.579,3936.851,154.7,3936.851,150.707Zm5.3-5.653c0,.032,0,.063,0,.095-.094-.011-.12.066-.154.126a14.664,14.664,0,0,1-3.17,3.93.669.669,0,0,0-.214.583c0,1.178.026,2.356-.01,3.533-.014.458.1.57.566.569q13.583-.023,27.165,0c.461,0,.569-.111.567-.568-.02-4.435-.012-8.869-.012-13.3q0-7.839,0-15.678c0-.276.064-.511-.395-.509q-9.358.027-18.717.008a.676.676,0,0,0-.567.251,4.381,4.381,0,0,1-3.465,1.523q-2.815-.013-5.632,0c-.163,0-.362-.093-.526.132a16.072,16.072,0,0,1,4.517,5c.043-.99.065-1.947.033-2.9-.014-.4.121-.474.493-.472q6.571.02,13.141,0c.387,0,.529.056.526.5q-.031,5.686,0,11.372c0,.471-.167.518-.561.517-3.625-.012-7.251-.007-10.876-.007-1.008,0-1.007,0-1.208.965-.052.25-.105.5-.169.8h18.676c1.195,0,1.166,0,1.208,1.187.017.5-.127.593-.6.592-6.184-.017-12.368.008-18.551-.034-.907-.006-1.547.1-1.754,1.1A3.478,3.478,0,0,1,3942.15,145.054Zm10.592,10.592c-4.528,0-9.055.005-13.583-.009-.417,0-.558.083-.552.533.027,2.1.011,4.2.012,6.293a1.8,1.8,0,0,0,2,2.015q12.147,0,24.295,0a1.788,1.788,0,0,0,1.975-1.987c0-2.1-.015-4.2.013-6.293.006-.472-.131-.565-.579-.563C3961.8,155.654,3957.27,155.647,3952.742,155.647Zm-13.676-31.8v0c1.656,0,3.312.023,4.967-.008a2.645,2.645,0,1,0-2.595-3.579c-.124.308,0,.779-.319.908a3.1,3.1,0,0,1-1.092.031.613.613,0,0,0-.11,0c-.412.08-.445-.145-.4-.468a4.32,4.32,0,0,1,2.055-3.235.5.5,0,0,0,.254-.737,5.284,5.284,0,0,0-10.245,1.308c-.038.427-.16.5-.543.49-1.375-.018-1.395-.008-1.1-1.39a.58.58,0,0,0-.247-.648,2.633,2.633,0,0,0-4.272,1.5c-.09.4-.1.709.411.819a2.016,2.016,0,0,1,.632.325c.744.485.741.489.067,1.083a3.634,3.634,0,0,0-.407.371c-.208.25-.358.223-.626.032a1.738,1.738,0,0,0-2.719.989,1.69,1.69,0,0,0,.454,1.675,1.255,1.255,0,0,0,1.448.285,12.7,12.7,0,0,1,6.533-.419,21.148,21.148,0,0,0,6.09.671C3937.886,123.807,3938.478,123.843,3939.066,123.843ZM3928.9,151.229a13.252,13.252,0,1,0-13.25-13.284A13.277,13.277,0,0,0,3928.9,151.229Zm15.845-34.454c.071.062.092.094.12.1a4.376,4.376,0,0,1,3.43,4.888c-.029.336.113.311.327.311q8.944,0,17.888.006c.323,0,.4-.1.395-.408-.018-.938-.006-1.877-.007-2.815a1.822,1.822,0,0,0-2.1-2.084H3944.74Zm4.448,21.2c1.636,0,3.272-.009,4.908.008.33,0,.437-.071.435-.422q-.023-4,0-7.995c0-.332-.075-.434-.423-.433q-4.88.021-9.761,0c-.33,0-.436.071-.434.421q.023,4,0,7.995c0,.4.159.433.481.43C3945.99,137.971,3947.589,137.977,3949.188,137.977Zm-17.639,20c0-1.6,0-3.2,0-4.8,0-.274,0-.452-.375-.384a12.706,12.706,0,0,1-4.554,0c-.285-.051-.382.012-.381.322.011,3.2,0,6.4.012,9.605a1.747,1.747,0,0,0,1.759,1.753c.533.014,1.067.006,1.6,0a1.778,1.778,0,0,0,1.934-1.917C3931.553,161.035,3931.549,159.508,3931.549,157.981Z" transform="translate(-3913.875 -111.474)" fill="#010101"/>
      <path id="Trazado_165822" data-name="Trazado 165822" d="M4025.611,188.537a3.463,3.463,0,0,0,.315-.7c.207-1,.848-1.1,1.755-1.1,6.184.042,12.367.016,18.551.034.475,0,.619-.095.6-.592-.042-1.187-.013-1.187-1.208-1.187h-18.677c.064-.3.117-.551.169-.8.2-.965.2-.965,1.208-.965,3.626,0,7.251-.005,10.877.007.393,0,.563-.046.56-.517q-.035-5.686,0-11.372c0-.439-.14-.5-.526-.5q-6.571.02-13.14,0c-.372,0-.507.069-.494.472.033.956.01,1.913-.032,2.9a16.076,16.076,0,0,0-4.517-5c.163-.225.363-.131.526-.132q2.816-.011,5.632,0a4.382,4.382,0,0,0,3.465-1.523.675.675,0,0,1,.567-.25q9.359.008,18.717-.008c.459,0,.395.234.395.509q0,7.839,0,15.678c0,4.435-.008,8.869.011,13.3,0,.458-.106.569-.567.568q-13.582-.023-27.164,0c-.462,0-.58-.111-.566-.569.036-1.177.014-2.355.01-3.533a.667.667,0,0,1,.214-.583,14.673,14.673,0,0,0,3.17-3.93c.033-.06.06-.137.154-.126a9.884,9.884,0,0,1-.011,1.1c-.051.457.1.573.561.572q9.662-.026,19.323-.012c1.372,0,1.361,0,1.339-1.382,0-.319-.1-.391-.4-.391Q4036.017,188.538,4025.611,188.537Zm7.014,5.291h5.848c1.286,0,1.266,0,1.29-1.267.008-.415-.1-.512-.512-.51-4.12.017-8.239.01-12.358.01-1.3,0-1.282,0-1.288,1.322,0,.362.1.456.456.453C4028.248,193.82,4030.436,193.829,4032.625,193.829Zm11.544-21.2h1.323c1.368,0,1.357,0,1.337-1.38,0-.313-.092-.4-.4-.394-1.194.017-2.388.007-3.582.007-1.407,0-1.4,0-1.336,1.435.011.264.083.343.344.337C4042.626,172.616,4043.4,172.626,4044.168,172.626Zm-.024,7.068h1.378c1.325,0,1.31,0,1.308-1.355,0-.35-.1-.425-.433-.419-1.175.02-2.35.008-3.526.008-1.408,0-1.4,0-1.361,1.411.008.3.094.369.376.362C4042.638,179.682,4043.392,179.694,4044.144,179.694Zm.072,1.767h-1.377c-1.365,0-1.353,0-1.33,1.387,0,.324.11.39.408.386,1.194-.015,2.388-.006,3.581-.006,1.365,0,1.353,0,1.33-1.387-.005-.324-.11-.394-.408-.386C4045.686,181.474,4044.951,181.461,4044.216,181.461Zm-1.778-7.067c-.92,0-.92,0-.92.9,0,.865,0,.865.847.865.92,0,.92,0,.92-.9C4043.285,174.393,4043.285,174.393,4042.438,174.393Zm3.471,1.767c.91,0,.91,0,.91-.912,0-.855,0-.855-.857-.855-.91,0-.91,0-.91.912C4045.052,176.16,4045.052,176.16,4045.909,176.16Zm-3.5,15.9c-.888,0-.888,0-.888.879s0,.888.879.888.888,0,.888-.879S4043.285,192.062,4042.406,192.062Zm4.414.9c0-.9,0-.9-.92-.9-.847,0-.847,0-.847.865,0,.9,0,.9.92.9C4046.82,193.829,4046.82,193.829,4046.82,192.964Z" transform="translate(-3997.336 -154.957)" fill="#83d3ef"/>
      <path id="Trazado_165823" data-name="Trazado 165823" d="M4039.774,311.05c4.528,0,9.055.007,13.583-.011.448,0,.586.091.58.563-.029,2.1-.01,4.2-.013,6.293a1.788,1.788,0,0,1-1.976,1.987q-12.148,0-24.295,0a1.8,1.8,0,0,1-2-2.015c0-2.1.014-4.2-.012-6.293-.006-.45.135-.535.552-.533C4030.718,311.055,4035.246,311.05,4039.774,311.05Zm.021,7.067a2.65,2.65,0,1,0-2.657-2.67A2.666,2.666,0,0,0,4039.794,318.116Z" transform="translate(-4000.906 -266.878)" fill="#969ea8"/>
      <path id="Trazado_165824" data-name="Trazado 165824" d="M3970.158,130.014c-.589,0-1.18-.036-1.766.006a21.148,21.148,0,0,1-6.09-.671,12.7,12.7,0,0,0-6.533.419,1.255,1.255,0,0,1-1.448-.285,1.689,1.689,0,0,1-.454-1.675,1.738,1.738,0,0,1,2.719-.989c.268.191.418.218.626-.032a3.634,3.634,0,0,1,.407-.371c.674-.594.677-.6-.067-1.083a2.019,2.019,0,0,0-.632-.325c-.51-.109-.5-.418-.412-.819a2.633,2.633,0,0,1,4.273-1.5.58.58,0,0,1,.246.648c-.29,1.383-.271,1.372,1.1,1.39.383,0,.5-.063.543-.49a5.284,5.284,0,0,1,10.245-1.308.5.5,0,0,1-.255.737,4.32,4.32,0,0,0-2.055,3.235c-.046.323-.012.548.4.468a.611.611,0,0,1,.11,0,3.1,3.1,0,0,0,1.092-.031c.318-.129.2-.6.319-.908a2.652,2.652,0,1,1,2.595,3.579c-1.655.031-3.311.008-4.967.008Z" transform="translate(-3944.967 -117.646)" fill="#e4e7ea"/>
      <path id="Trazado_165825" data-name="Trazado 165825" d="M3935.125,197.861a13.252,13.252,0,1,1,13.258-13.221A13.276,13.276,0,0,1,3935.125,197.861Zm11.49-13.251a11.486,11.486,0,1,0-11.474,11.483A11.5,11.5,0,0,0,3946.615,184.611Z" transform="translate(-3920.104 -158.106)" fill="#f1d37d"/>
      <path id="Trazado_165826" data-name="Trazado 165826" d="M4053.353,135.431h20.053a1.822,1.822,0,0,1,2.1,2.084c0,.938-.011,1.877.007,2.815.006.3-.071.408-.394.408q-8.944-.014-17.888-.006c-.213,0-.355.025-.327-.311a4.376,4.376,0,0,0-3.43-4.888C4053.445,135.525,4053.424,135.493,4053.353,135.431Z" transform="translate(-4022.488 -130.13)" fill="#969ea8"/>
      <path id="Trazado_165827" data-name="Trazado 165827" d="M4054.881,200.126c-1.6,0-3.2-.007-4.8.006-.323,0-.484-.029-.48-.43q.029-4,0-7.995c0-.351.1-.423.434-.421q4.881.018,9.761,0c.348,0,.424.1.423.433q-.02,4,0,7.995c0,.351-.1.425-.435.422C4058.153,200.117,4056.518,200.126,4054.881,200.126Z" transform="translate(-4019.568 -173.623)" fill="#ee8774"/>
      <path id="Trazado_165828" data-name="Trazado 165828" d="M3975.07,303.332c0,1.527,0,3.054,0,4.582a1.778,1.778,0,0,1-1.934,1.917c-.534,0-1.068.012-1.6,0a1.747,1.747,0,0,1-1.76-1.753c-.013-3.2,0-6.4-.012-9.605,0-.31.1-.373.381-.322a12.707,12.707,0,0,0,4.554,0c.37-.068.377.11.375.384C3975.066,300.13,3975.07,301.731,3975.07,303.332Z" transform="translate(-3957.396 -256.826)" fill="#caa072"/>
      <path id="Trazado_165829" data-name="Trazado 165829" d="M4041.6,263.167q10.406,0,20.813-.015c.3,0,.4.071.4.391.021,1.383.033,1.382-1.339,1.382q-9.661,0-19.323.012c-.465,0-.613-.114-.561-.572a9.826,9.826,0,0,0,.01-1.1C4041.6,263.231,4041.6,263.2,4041.6,263.167Z" transform="translate(-4013.321 -229.587)"/>
      <path id="Trazado_165830" data-name="Trazado 165830" d="M4048.641,280.88c-2.188,0-4.377-.008-6.565.008-.359,0-.457-.091-.455-.453.005-1.322-.009-1.322,1.287-1.322,4.119,0,8.239.007,12.358-.01.411,0,.52.1.512.51-.023,1.267,0,1.267-1.29,1.267Z" transform="translate(-4013.352 -242.009)"/>
      <path id="Trazado_165831" data-name="Trazado 165831" d="M4116.085,185.078c-.771,0-1.543-.01-2.313.005-.262.005-.333-.073-.345-.337-.062-1.435-.071-1.435,1.335-1.435,1.194,0,2.388.01,3.582-.007.309,0,.4.081.4.394.021,1.38.032,1.38-1.336,1.38Z" transform="translate(-4069.253 -167.409)"/>
      <path id="Trazado_165832" data-name="Trazado 165832" d="M4116.095,217.012c-.752,0-1.506-.012-2.259.006-.282.007-.368-.066-.376-.362-.037-1.411-.047-1.411,1.361-1.411,1.175,0,2.351.012,3.526-.008.331-.006.432.069.433.419,0,1.355.018,1.355-1.307,1.355Z" transform="translate(-4069.286 -192.275)"/>
      <path id="Trazado_165833" data-name="Trazado 165833" d="M4116.182,231.218c.735,0,1.47.013,2.2-.006.3-.008.4.062.408.386.022,1.387.035,1.387-1.33,1.387-1.194,0-2.388-.009-3.582.006-.3,0-.4-.062-.408-.386-.023-1.387-.035-1.387,1.33-1.387Z" transform="translate(-4069.302 -204.715)"/>
      <path id="Trazado_165834" data-name="Trazado 165834" d="M4114.454,199.3c.847,0,.847,0,.847.865,0,.9,0,.9-.92.9-.847,0-.847,0-.847-.865C4113.534,199.3,4113.534,199.3,4114.454,199.3Z" transform="translate(-4069.352 -179.869)"/>
      <path id="Trazado_165835" data-name="Trazado 165835" d="M4130.363,201.072c-.857,0-.857,0-.857-.855,0-.912,0-.912.91-.912.857,0,.857,0,.857.855C4131.273,201.072,4131.273,201.072,4130.363,201.072Z" transform="translate(-4081.789 -179.869)"/>
      <path id="Trazado_165836" data-name="Trazado 165836" d="M4114.422,279.149c.879,0,.879,0,.879.888s0,.879-.888.879-.879,0-.879-.888S4113.534,279.149,4114.422,279.149Z" transform="translate(-4069.352 -242.044)"/>
      <path id="Trazado_165837" data-name="Trazado 165837" d="M4131.273,280.051c0,.865,0,.865-.847.865-.92,0-.92,0-.92-.9,0-.865,0-.865.846-.865C4131.273,279.149,4131.273,279.149,4131.273,280.051Z" transform="translate(-4081.789 -242.044)"/>
      <path id="Trazado_165838" data-name="Trazado 165838" d="M4080.257,324.372a2.65,2.65,0,1,1,2.643-2.63A2.663,2.663,0,0,1,4080.257,324.372Zm-.011-1.768a.883.883,0,1,0-.878-.873A.89.89,0,0,0,4080.246,322.6Z" transform="translate(-4041.37 -273.133)" fill="#020202"/>
      <path id="Trazado_165839" data-name="Trazado 165839" d="M3952.836,190.831a11.486,11.486,0,1,1-11.471-11.485A11.508,11.508,0,0,1,3952.836,190.831Zm-21.205-.043a9.719,9.719,0,1,0,9.759-9.675A9.737,9.737,0,0,0,3931.631,190.788Z" transform="translate(-3926.326 -164.327)" fill="#030302"/>
      <path id="Trazado_165840" data-name="Trazado 165840" d="M4086.468,328.822a.883.883,0,1,1,.886-.865A.888.888,0,0,1,4086.468,328.822Z" transform="translate(-4047.591 -279.351)" fill="#dadde0"/>
      <path id="Trazado_165841" data-name="Trazado 165841" d="M3937.851,197.007a9.718,9.718,0,1,1,9.677,9.759A9.733,9.733,0,0,1,3937.851,197.007Zm9.705,6.226c.772,0,1.545-.008,2.317,0,.248,0,.343-.048.356-.327.068-1.426.078-1.438-1.33-1.435-.359,0-.459-.093-.454-.454q.031-2.205,0-4.412c0-.363.1-.454.455-.453,1.366,0,1.353-.009,1.33-1.381-.005-.33-.119-.385-.412-.383q-2.262.02-4.523,0c-.271,0-.409.046-.379.356.044.453-.183,1.032.086,1.329.251.277.834.089,1.267.076.342-.01.431.086.427.428q-.03,2.233,0,4.467c0,.343-.088.436-.428.427-.434-.012-1.017-.2-1.267.076-.268.3-.042.877-.085,1.33-.031.311.109.361.38.355C3946.048,203.222,3946.8,203.233,3947.556,203.232Zm.9-11.476c0-.891,0-.891-.875-.891-.891,0-.891,0-.891.875,0,.891,0,.891.875.891C3948.453,192.631,3948.453,192.631,3948.453,191.756Z" transform="translate(-3932.546 -170.545)" fill="#83d2ee"/>
      <path id="Trazado_165842" data-name="Trazado 165842" d="M3972.244,228.079c-.754,0-1.508-.01-2.262.005-.271.006-.41-.044-.38-.355.044-.453-.183-1.032.085-1.33.25-.278.833-.088,1.267-.076.34.009.433-.083.428-.427q-.031-2.233,0-4.467c0-.342-.086-.438-.427-.428-.434.013-1.017.2-1.268-.076-.269-.3-.042-.877-.086-1.329-.03-.31.108-.358.379-.356q2.262.017,4.523,0c.293,0,.407.053.413.383.022,1.371.035,1.385-1.331,1.381-.358,0-.46.09-.455.453q.032,2.206,0,4.412c0,.361.1.455.455.454,1.408,0,1.4.01,1.33,1.435-.013.279-.108.331-.356.327C3973.789,228.07,3973.016,228.079,3972.244,228.079Z" transform="translate(-3957.233 -195.392)"/>
      <path id="Trazado_165843" data-name="Trazado 165843" d="M3979.544,204.189c0,.875,0,.875-.891.875-.875,0-.875,0-.875-.891,0-.875,0-.875.891-.875C3979.544,203.3,3979.544,203.3,3979.544,204.189Z" transform="translate(-3963.636 -182.978)"/>
    </g>
  </g>
</svg>
