<svg xmlns="http://www.w3.org/2000/svg" width="91" height="91" viewBox="0 0 91 91">
  <g id="Grupo_110669" data-name="Grupo 110669" transform="translate(-180 -746)">
    <rect id="Rectángulo_36168" data-name="Rectángulo 36168" width="91" height="91" transform="translate(180 746)" fill="#ff6148"/>
    <g id="Grupo_108625" data-name="Grupo 108625" transform="translate(197.166 768.313)">
      <path id="Trazado_165605" data-name="Trazado 165605" d="M2619.181,6.726V8.9a.939.939,0,0,0-.78,1.087c.022.956.007,1.913.006,2.87a3.607,3.607,0,0,1-3.932,3.946q-18.274,0-36.549,0c-.311,0-.622-.043-.933-.066-.068-.338-.379-.482-.577-.715a3.5,3.5,0,0,1-.958-2.232c-.025-6.619-.012-13.239-.02-19.859a.5.5,0,0,1,.479-.593,4.934,4.934,0,0,0,2.182-.99,4.059,4.059,0,0,0,1.641-2.449l.4-.65.4.644a3.243,3.243,0,0,0,1.029,1.89,5.566,5.566,0,0,0,7.49.461,3.761,3.761,0,0,0,1.5-2.351l.406-.646.394.651a3.3,3.3,0,0,0,1.033,1.888,5.432,5.432,0,0,0,7.375.461,3.818,3.818,0,0,0,1.506-2.349l.405-.648.392.649a3.311,3.311,0,0,0,1.034,1.888,5.312,5.312,0,0,0,7.264.46,3.812,3.812,0,0,0,1.506-2.349l.405-.648.393.649a4,4,0,0,0,1.633,2.442,5.766,5.766,0,0,0,4.08,1.12c.006.2.017.4.017.605,0,3.859.007,7.717-.005,11.576A.948.948,0,0,0,2619.181,6.726Zm-20.443,4.617c-.029.118-.057.2-.069.289a2.442,2.442,0,0,0,1.057,2.546,2.342,2.342,0,0,0,2.65.089,2.366,2.366,0,0,0,1.212-2.466c-.038-.335-.036-.493.348-.57a.708.708,0,0,0,.554-.785.746.746,0,0,0-.586-.769,2.569,2.569,0,0,0-.653-.067q-5.8-.006-11.594,0c-1.154,0-1.484-.325-1.773-1.45-.152-.593.066-.605.531-.6q6.846.019,13.691.007c.792,0,1.021-.175,1.175-.931q.829-4.069,1.645-8.141c.231-1.157-.028-1.463-1.213-1.463q-8.806,0-17.611.006c-.36,0-.564-.044-.7-.46a2.943,2.943,0,0,0-2.768-2.078,11.979,11.979,0,0,0-1.435,0,.831.831,0,0,0-.9.833.839.839,0,0,0,.881.861c.385.026.773.006,1.159.009a1.413,1.413,0,0,1,1.6,1.316q1.169,5.57,2.34,11.139a3.118,3.118,0,0,0,1.735,2.34c.305.144.374.253.292.6a2.475,2.475,0,0,0,2.82,2.983c1.514-.26,2.3-1.5,2.025-3.23Z" transform="translate(-2567.952 33.765)" fill="#f4f4f4"/>
      <path id="Trazado_165606" data-name="Trazado 165606" d="M2586.331-91.079l-.393-.649-.405.648c-.1.1-.205.206-.3.312a6.031,6.031,0,0,1-6.045,1.91,6.374,6.374,0,0,1-3.456-2.221l-.392-.649-.405.648c-.077.076-.159.148-.231.229a6.127,6.127,0,0,1-6.228,1.992,6.339,6.339,0,0,1-3.456-2.22l-.394-.651-.406.646a6.74,6.74,0,0,1-2.555,1.932c-.7.27-.98.176-1.342-.479-.055-.568.253-.853.743-1.074a4.319,4.319,0,0,0,2.7-3.775c.01-2.778.014-5.556.037-8.334,0-.411-.257-.317-.475-.317-2.375,0-4.749.009-7.123-.012-.407,0-.531.133-.582.516-.189,1.439-.426,2.873-.617,4.312a17.525,17.525,0,0,0-.344,3.836,4.316,4.316,0,0,0,2.7,3.775c.49.221.8.506.744,1.073-.363.656-.647.75-1.342.48a6.737,6.737,0,0,1-2.557-1.931l-.4-.644-.4.65a7.186,7.186,0,0,1-2.465,1.9,6.4,6.4,0,0,1-2.8.5c-.317-.012-.526.016-.478.428a9.015,9.015,0,0,1,.008,1.047q0,9.681,0,19.361a3.531,3.531,0,0,0,2.981,3.611c.311.023.622.066.933.066q18.275,0,36.55,0a3.606,3.606,0,0,0,3.931-3.946c0-.957.016-1.914-.006-2.87a.939.939,0,0,1,.78-1.087c.684.142.9.365.879,1.035a30.348,30.348,0,0,1-.1,4.241,5.184,5.184,0,0,1-4.7,4.259c-.22.016-.441.027-.662.027q-18.381,0-36.762,0a5.237,5.237,0,0,1-5.314-3.948A6.359,6.359,0,0,1,2546-68.1q0-10.1.012-20.2a.715.715,0,0,0-.537-.82,5.878,5.878,0,0,1-3.21-8.159c.356-.642.563-.739,1.294-.6.5.538.518.724.163,1.409a3.076,3.076,0,0,0-.447,1.995,3.739,3.739,0,0,0,.733,2.152,4.9,4.9,0,0,0,4.782,1.976,4.458,4.458,0,0,0,4.138-4.128c.056-.86.075-1.723.2-2.579.281-1.851.535-3.706.823-5.557.066-.426-.059-.529-.476-.524-1.912.021-3.824.017-5.736,0a.62.62,0,0,0-.638.392c-.41.8-.866,1.577-1.271,2.379a.964.964,0,0,1-1.257.58c-.524-.532-.551-.728-.191-1.4a14.158,14.158,0,0,0,1.548-3.019,15.984,15.984,0,0,0,.073-3.459,12.562,12.562,0,0,1,.183-3.18,5.211,5.211,0,0,1,4.7-3.862c.2-.014.4-.022.606-.022h27.084c.815,0,.985.117,1.168.788a.872.872,0,0,1-.939.876c-.2.013-.4.009-.607.009-8.835,0-17.671.046-26.506-.028a3.77,3.77,0,0,0-4.044,4.037c.076,1.21.04,2.429,0,3.643-.016.5.148.605.62.6,3.792-.019,7.584-.01,11.375-.01q15.9,0,31.808.01c.472,0,.635-.1.62-.6-.039-1.25-.064-2.505,0-3.754a3.673,3.673,0,0,0-3.932-3.912c-1.671.077-3.349.021-5.024.012-.795,0-1.015-.187-1.16-.881.082-.583.445-.794,1-.792,1.84.008,3.68-.025,5.519.01a5.212,5.212,0,0,1,5.239,5.324q.016,2.373,0,4.746a1.749,1.749,0,0,0,.222.886c1.133,2.077,2.164,4.217,3.4,6.231A5.923,5.923,0,0,1,2594.2-89.1a.639.639,0,0,0-.494.738c.014,4.341.01,8.682.008,13.023,0,.726-.181.944-.883,1.091a.948.948,0,0,1-.78-1.085c.012-3.858.007-7.717.005-11.576,0-.2-.011-.4-.017-.605a6.01,6.01,0,0,1,.022-.657c.055-.4-.067-.559-.5-.522a5.541,5.541,0,0,1-1.476-.091A6.5,6.5,0,0,1,2586.331-91.079Zm.462-3.4a4.278,4.278,0,0,0,1.292,2.836,4.984,4.984,0,0,0,4.168,1.283,4.412,4.412,0,0,0,4.194-4.12,2.943,2.943,0,0,0-.379-1.855c-1.152-2.133-2.309-4.263-3.446-6.4a.666.666,0,0,0-.69-.4c-1.784.014-3.569.007-5.353.007-.785,0-.781,0-.686.77C2586.218-99.737,2586.707-97.132,2586.793-94.48Zm-10.6,0a4.422,4.422,0,0,0,4.412,4.134,4.427,4.427,0,0,0,4.468-4.134,12.776,12.776,0,0,0-.187-2.907c-.227-1.767-.465-3.533-.686-5.3-.041-.328-.157-.457-.517-.454q-3.53.027-7.061,0c-.411,0-.489.139-.468.5.029.495.005.992.008,1.489Q2576.175-97.817,2576.192-94.481Zm-1.723,0c.01-2.775.018-5.551.037-8.327,0-.287-.128-.327-.367-.326-2.777,0-5.554.009-8.331,0-.36,0-.367.175-.365.441.008,1.25,0,2.5,0,3.751.006,1.489.021,2.977.032,4.466a4.422,4.422,0,0,0,4.467,4.134A4.427,4.427,0,0,0,2574.469-94.481Z" transform="translate(-2541.607 114.742)" fill="#040303"/>
      <path id="Trazado_165607" data-name="Trazado 165607" d="M2603.2-111.137c.145.695.365.877,1.16.881,1.675.01,3.353.065,5.025-.012a3.673,3.673,0,0,1,3.931,3.912c-.063,1.248-.038,2.5,0,3.754.016.5-.148.6-.62.6q-15.9-.02-31.807-.01c-3.792,0-7.583-.008-11.375.01-.472,0-.636-.1-.62-.6.04-1.213.075-2.433,0-3.643a3.771,3.771,0,0,1,4.044-4.037c8.835.075,17.67.029,26.506.028.2,0,.405,0,.607-.009a.872.872,0,0,0,.939-.876A14.53,14.53,0,0,0,2603.2-111.137Zm-28.8,7.18a.107.107,0,0,0,.117-.11c.157-.154.323-.3.469-.463a2.487,2.487,0,0,0-1.135-4.011,2.606,2.606,0,0,0-3.069,1.416,2.185,2.185,0,0,0-.694,2.376,2.385,2.385,0,0,0,2.116,1.813,2.086,2.086,0,0,0,2.188-1.027Zm17.72-3.045v.009c-.068.016-.159.009-.2.051a2.348,2.348,0,0,0-.424,2.465,2.241,2.241,0,0,0,2.075,1.543c.661.018,1.323,0,1.985,0,4.375,0,8.75.006,13.125-.007a1.868,1.868,0,0,0,1.852-1.112,2.5,2.5,0,0,0,.923-2.975,2.512,2.512,0,0,0-2.7-1.554c-4.653,0-9.305.02-13.957-.014a2.727,2.727,0,0,0-2.572,1.364C2592.116-107.19,2592.1-107.1,2592.123-107Zm-4.562,2.948c.082-.072.163-.145.245-.217a2.461,2.461,0,0,0-.812-4.188,2.525,2.525,0,0,0-3.048,1.231,2.392,2.392,0,0,0-.383,3.372,2.562,2.562,0,0,0,3.249.617C2587.121-103.448,2587.5-103.61,2587.561-104.053Zm-6.518.01c.08-.073.158-.149.241-.22a2.467,2.467,0,0,0-.284-3.949,2.521,2.521,0,0,0-3.576.989,2.393,2.393,0,0,0-.378,3.368,2.561,2.561,0,0,0,3.243.621C2580.6-103.441,2580.976-103.6,2581.044-104.044Z" transform="translate(-2562.848 111.936)" fill="#557188"/>
      <path id="Trazado_165608" data-name="Trazado 165608" d="M2550.346-58.96a.964.964,0,0,0,1.257-.58c.405-.8.861-1.579,1.271-2.379a.619.619,0,0,1,.638-.392c1.912.015,3.824.019,5.736,0,.418,0,.543.1.476.524-.287,1.85-.542,3.705-.822,5.557-.13.856-.149,1.718-.2,2.579h-9.653a3.076,3.076,0,0,1,.447-1.995c.355-.684.336-.87-.163-1.409Z" transform="translate(-2547.371 73.915)" fill="#e96d72"/>
      <path id="Trazado_165609" data-name="Trazado 165609" d="M2622.859,29.728h-3.595c.276,1.727-.51,2.97-2.024,3.23a2.474,2.474,0,0,1-2.819-2.983c.082-.348.013-.457-.292-.6a3.118,3.118,0,0,1-1.735-2.34q-1.165-5.571-2.34-11.139a1.413,1.413,0,0,0-1.6-1.316c-.386,0-.774.017-1.159-.009a.848.848,0,1,1,.023-1.694,11.979,11.979,0,0,1,1.435,0,2.943,2.943,0,0,1,2.768,2.078c.141.416.344.46.7.46q8.806-.012,17.611-.006c1.185,0,1.445.306,1.213,1.463q-.816,4.072-1.645,8.141c-.154.755-.383.93-1.175.931q-6.846,0-13.691-.007c-.465,0-.684.011-.531.6.289,1.125.619,1.449,1.773,1.45q5.8,0,11.594,0a2.567,2.567,0,0,1,.653.067.746.746,0,0,1,.586.769.709.709,0,0,1-.555.785c-.384.076-.385.234-.347.57a2.366,2.366,0,0,1-1.212,2.466,2.342,2.342,0,0,1-2.65-.089,2.442,2.442,0,0,1-1.057-2.546C2622.8,29.93,2622.83,29.846,2622.859,29.728Zm-2.1-12.609c-.827,0-1.655.009-2.482,0-.287,0-.373.051-.317.369.119.668.2,1.345.253,2.021.022.268.114.332.366.331q2.151-.015,4.3,0c.225,0,.314-.055.336-.3.063-.694.145-1.388.26-2.075.048-.288-.023-.347-.291-.343C2622.377,17.127,2621.568,17.119,2620.759,17.119Zm-2.291,4.418c.107.837.22,1.617.3,2.4.024.239.1.307.33.305,1.083-.01,2.167-.007,3.251,0,.189,0,.291-.026.314-.259.072-.729.17-1.457.275-2.182.029-.2-.021-.264-.216-.264C2621.312,21.538,2619.9,21.536,2618.468,21.536Zm-4.3-4.418h-1.816c-.171,0-.343-.018-.283.252q.246,1.1.477,2.2a.288.288,0,0,0,.335.267c1.137-.01,2.275-.008,3.412,0,.223,0,.274-.069.24-.293-.107-.706-.2-1.414-.27-2.125-.023-.246-.109-.3-.334-.3C2615.339,17.127,2614.752,17.119,2614.165,17.119Zm13.109,0c-.569,0-1.138.012-1.706-.005-.268-.008-.379.051-.4.351-.049.657-.129,1.313-.243,1.962-.056.321,0,.414.332.409q1.568-.024,3.137,0a.37.37,0,0,0,.437-.362c.125-.683.256-1.366.411-2.042.06-.262-.019-.32-.261-.316C2628.412,17.126,2627.843,17.119,2627.274,17.119Zm-12.382,4.417c-.515,0-1.031.017-1.545-.006-.312-.014-.379.092-.313.378.156.678.311,1.358.432,2.044.044.247.156.289.366.288.993-.005,1.987-.007,2.98,0,.246,0,.307-.064.263-.319-.084-.488-.122-.984-.178-1.476-.1-.91-.1-.91-1.012-.91Zm11.676,0c-.5,0-.994.016-1.49-.006-.305-.013-.45.037-.471.4a17.574,17.574,0,0,1-.247,1.967c-.05.287.018.348.29.345.957-.012,1.914-.014,2.871,0a.348.348,0,0,0,.412-.324c.135-.7.266-1.406.421-2.1.054-.243-.028-.285-.24-.282C2627.6,21.541,2627.084,21.536,2626.569,21.536Zm-8.9,8.981a.823.823,0,0,0-1.643-.051.822.822,0,0,0,1.643.051Zm8.394.009a.822.822,0,1,0-.829.776A.815.815,0,0,0,2626.066,30.526Z" transform="translate(-2592.073 15.38)" fill="#060707"/>
      <path id="Trazado_165610" data-name="Trazado 165610" d="M2571.913,19.03a3.531,3.531,0,0,1-2.981-3.611q-.008-9.681,0-19.361a9.015,9.015,0,0,0-.008-1.047c-.048-.412.16-.44.478-.428a6.4,6.4,0,0,0,2.8-.5,7.183,7.183,0,0,0,2.464-1.9,4.059,4.059,0,0,1-1.641,2.449,4.936,4.936,0,0,1-2.182.99c-.362.068-.48.233-.479.593.009,6.62,0,13.239.021,19.859a3.5,3.5,0,0,0,.957,2.232C2571.534,18.548,2571.845,18.692,2571.913,19.03Z" transform="translate(-2562.872 31.471)" fill="#e4e4e4"/>
      <path id="Trazado_165611" data-name="Trazado 165611" d="M2604.616-6.382c.362.655.647.748,1.342.479a6.743,6.743,0,0,0,2.556-1.932,3.762,3.762,0,0,1-1.5,2.351,5.566,5.566,0,0,1-7.49-.461,3.244,3.244,0,0,1-1.029-1.89A6.736,6.736,0,0,0,2601.05-5.9c.695.271.979.176,1.342-.48A4.335,4.335,0,0,0,2604.616-6.382Z" transform="translate(-2585.905 31.492)" fill="#e0e0e0"/>
      <path id="Trazado_165612" data-name="Trazado 165612" d="M2647.4-7.811a6.337,6.337,0,0,0,3.456,2.22,6.127,6.127,0,0,0,6.228-1.992c.072-.081.154-.153.231-.229a3.816,3.816,0,0,1-1.506,2.349,5.433,5.433,0,0,1-7.375-.461A3.3,3.3,0,0,1,2647.4-7.811Z" transform="translate(-2623.985 31.474)" fill="#e0e0e0"/>
      <path id="Trazado_165613" data-name="Trazado 165613" d="M2695.8-7.812a6.372,6.372,0,0,0,3.456,2.221,6.031,6.031,0,0,0,6.045-1.91c.1-.106.2-.208.3-.312a3.811,3.811,0,0,1-1.506,2.349,5.312,5.312,0,0,1-7.265-.46A3.312,3.312,0,0,1,2695.8-7.812Z" transform="translate(-2661.683 31.475)" fill="#e0e0e0"/>
      <path id="Trazado_165614" data-name="Trazado 165614" d="M2743.717-7.808a6.5,6.5,0,0,0,3.761,2.291,5.541,5.541,0,0,0,1.476.091c.431-.037.553.124.5.522a6.135,6.135,0,0,0-.023.657,5.765,5.765,0,0,1-4.079-1.12A4,4,0,0,1,2743.717-7.808Z" transform="translate(-2698.992 31.471)" fill="#e0e0e0"/>
      <path id="Trazado_165615" data-name="Trazado 165615" d="M2649.358-53.646c-.01-1.489-.025-2.977-.031-4.466-.005-1.25,0-2.5,0-3.751,0-.266.005-.443.365-.441,2.777.013,5.554.009,8.33,0,.238,0,.369.039.367.326-.019,2.776-.026,5.551-.037,8.327Z" transform="translate(-2625.486 73.907)" fill="#e96d72"/>
      <path id="Trazado_165616" data-name="Trazado 165616" d="M2600.474-53.669a17.556,17.556,0,0,1,.344-3.836c.191-1.439.428-2.872.617-4.312.05-.383.174-.519.582-.516,2.374.021,4.748.009,7.123.012.219,0,.479-.094.476.317-.023,2.778-.027,5.556-.037,8.334Z" transform="translate(-2587.428 73.93)" fill="#f5c68b"/>
      <path id="Trazado_165617" data-name="Trazado 165617" d="M2697.745-53.669q-.016-3.336-.032-6.671c0-.5.022-.994-.008-1.489-.021-.364.056-.507.468-.5q3.53.032,7.061,0c.36,0,.476.126.517.454.222,1.768.46,3.533.686,5.3a12.79,12.79,0,0,1,.187,2.907Z" transform="translate(-2663.16 73.93)" fill="#f5c68b"/>
      <path id="Trazado_165618" data-name="Trazado 165618" d="M2742.488-53.645c-.086-2.651-.575-5.256-.9-7.881-.095-.77-.1-.77.687-.77,1.784,0,3.568.008,5.353-.007a.665.665,0,0,1,.69.4c1.137,2.141,2.295,4.271,3.446,6.4a2.942,2.942,0,0,1,.379,1.855Z" transform="translate(-2697.301 73.907)" fill="#e96d72"/>
      <path id="Trazado_165619" data-name="Trazado 165619" d="M2549.167-23.18h9.653a4.458,4.458,0,0,1-4.138,4.128,4.9,4.9,0,0,1-4.782-1.976A3.739,3.739,0,0,1,2549.167-23.18Z" transform="translate(-2547.494 43.442)" fill="#e7555a"/>
      <path id="Trazado_165620" data-name="Trazado 165620" d="M2745.807-23.18h9.654a4.412,4.412,0,0,1-4.194,4.12,4.984,4.984,0,0,1-4.168-1.283A4.276,4.276,0,0,1,2745.807-23.18Z" transform="translate(-2700.62 43.442)" fill="#e7555a"/>
      <path id="Trazado_165621" data-name="Trazado 165621" d="M2600.564-23.183h9.1a4.318,4.318,0,0,1-2.7,3.775c-.49.221-.8.506-.743,1.074a4.335,4.335,0,0,1-2.225,0c.053-.567-.255-.852-.745-1.073A4.316,4.316,0,0,1,2600.564-23.183Z" transform="translate(-2587.517 43.444)" fill="#f1ac69"/>
      <path id="Trazado_165622" data-name="Trazado 165622" d="M2649.485-23.18h8.99a4.426,4.426,0,0,1-4.523,4.134A4.422,4.422,0,0,1,2649.485-23.18Z" transform="translate(-2625.613 43.442)" fill="#e7555a"/>
      <path id="Trazado_165623" data-name="Trazado 165623" d="M2697.9-23.184h8.879a4.427,4.427,0,0,1-4.467,4.134A4.422,4.422,0,0,1,2697.9-23.184Z" transform="translate(-2663.311 43.445)" fill="#f1ac69"/>
      <path id="Trazado_165624" data-name="Trazado 165624" d="M2673.6-98.268a2.727,2.727,0,0,1,2.571-1.364c4.653.034,9.305.014,13.958.014a2.511,2.511,0,0,1,2.7,1.554,2.5,2.5,0,0,1-.922,2.975,3.836,3.836,0,0,1-1.313.356q-7.4-.017-14.8,0a2.255,2.255,0,0,1-1.473-.521,2.5,2.5,0,0,1-.825-2.775v-.009Zm9.586.27q-3.478,0-6.956,0a2.986,2.986,0,0,0-.549.028.751.751,0,0,0-.658.768.744.744,0,0,0,.607.807,3.087,3.087,0,0,0,.712.055q6.845,0,13.691,0a3.077,3.077,0,0,0,.712-.055.744.744,0,0,0,.606-.808.752.752,0,0,0-.659-.767,3.008,3.008,0,0,0-.55-.027Q2686.667-98,2683.189-98Z" transform="translate(-2644.22 102.975)" fill="#040303"/>
      <path id="Trazado_165625" data-name="Trazado 165625" d="M2577.032-98.365a2.606,2.606,0,0,1,3.069-1.416,2.487,2.487,0,0,1,1.135,4.011c-.146.164-.312.309-.469.463l-.117.11-.008-.005c-.139.044-.279.085-.417.132a2.494,2.494,0,0,1-3.257-1.772A3.712,3.712,0,0,1,2577.032-98.365Zm3.177.958a.864.864,0,0,0-.861-.824.826.826,0,0,0-.782.831.8.8,0,0,0,.844.81A.83.83,0,0,0,2580.209-97.407Z" transform="translate(-2569.096 103.176)" fill="#020201"/>
      <path id="Trazado_165626" data-name="Trazado 165626" d="M2606.719-98.274a2.521,2.521,0,0,1,3.576-.989,2.467,2.467,0,0,1,.284,3.949c-.083.071-.16.147-.24.22a2.5,2.5,0,0,1-2.8-.1A2.491,2.491,0,0,1,2606.719-98.274Zm3.074,1.09A.822.822,0,0,0,2609-98a.821.821,0,0,0-.852.815.823.823,0,0,0,.8.817A.823.823,0,0,0,2609.793-97.184Z" transform="translate(-2592.143 102.985)" fill="#020201"/>
      <path id="Trazado_165627" data-name="Trazado 165627" d="M2636.193-98.316a2.526,2.526,0,0,1,3.048-1.231,2.461,2.461,0,0,1,.813,4.188c-.082.071-.163.145-.245.217a2.513,2.513,0,0,1-2.883-.163A2.473,2.473,0,0,1,2636.193-98.316Zm2.224.273a.826.826,0,0,0-.8.813.828.828,0,0,0,.847.827.829.829,0,0,0,.8-.814A.826.826,0,0,0,2638.417-98.043Z" transform="translate(-2615.096 103.024)" fill="#020201"/>
      <path id="Trazado_165628" data-name="Trazado 165628" d="M2671.081-92.407a2.5,2.5,0,0,0,.826,2.775,2.255,2.255,0,0,0,1.474.521q7.4-.007,14.8,0a3.836,3.836,0,0,0,1.314-.356,1.869,1.869,0,0,1-1.852,1.112c-4.375.013-8.75.007-13.125.007-.662,0-1.324.013-1.985,0a2.241,2.241,0,0,1-2.075-1.543,2.349,2.349,0,0,1,.424-2.465C2670.923-92.4,2671.013-92.391,2671.081-92.407Z" transform="translate(-2641.806 97.35)" fill="#3a5978"/>
      <path id="Trazado_165629" data-name="Trazado 165629" d="M2633.8-93.468a2.473,2.473,0,0,0,.733,3.012,2.513,2.513,0,0,0,2.883.163c-.062.443-.441.606-.75.814a2.562,2.562,0,0,1-3.249-.617A2.392,2.392,0,0,1,2633.8-93.468Z" transform="translate(-2612.7 98.176)" fill="#3a5978"/>
      <path id="Trazado_165630" data-name="Trazado 165630" d="M2604.345-93.451a2.491,2.491,0,0,0,.822,3.083,2.5,2.5,0,0,0,2.8.1c-.068.44-.445.6-.754.809a2.561,2.561,0,0,1-3.243-.621A2.393,2.393,0,0,1,2604.345-93.451Z" transform="translate(-2589.769 98.162)" fill="#3a5978"/>
      <path id="Trazado_165631" data-name="Trazado 165631" d="M2574.662-93a3.708,3.708,0,0,0-.065,1.522,2.494,2.494,0,0,0,3.258,1.772c.138-.046.278-.088.417-.132a2.087,2.087,0,0,1-2.188,1.027,2.385,2.385,0,0,1-2.116-1.813A2.186,2.186,0,0,1,2574.662-93Z" transform="translate(-2566.726 97.812)" fill="#3a5978"/>
      <path id="Trazado_165632" data-name="Trazado 165632" d="M2673.975-93.469l-.108.226C2673.846-93.346,2673.86-93.431,2673.975-93.469Z" transform="translate(-2644.593 98.176)" fill="#3a5978"/>
      <path id="Trazado_165633" data-name="Trazado 165633" d="M2593.819-79.073l.117-.11A.107.107,0,0,1,2593.819-79.073Z" transform="translate(-2582.265 87.052)" fill="#3a5978"/>
      <path id="Trazado_165634" data-name="Trazado 165634" d="M2661.331,32.1c.809,0,1.618.008,2.427,0,.269,0,.34.055.291.343-.115.687-.2,1.381-.26,2.075-.022.245-.111.3-.335.3q-2.151-.011-4.3,0c-.251,0-.343-.063-.366-.331-.057-.676-.134-1.353-.253-2.021-.056-.318.03-.373.317-.369C2659.676,32.109,2660.5,32.1,2661.331,32.1Z" transform="translate(-2632.645 0.399)" fill="#f3f3f3"/>
      <path id="Trazado_165635" data-name="Trazado 165635" d="M2660.886,52.076c1.433,0,2.844,0,4.255,0,.194,0,.244.066.215.264-.1.726-.2,1.453-.275,2.182-.023.232-.125.26-.314.259-1.083-.005-2.167-.008-3.251,0-.232,0-.306-.066-.33-.305C2661.106,53.692,2660.993,52.913,2660.886,52.076Z" transform="translate(-2634.49 -15.159)" fill="#f3f3f3"/>
      <path id="Trazado_165636" data-name="Trazado 165636" d="M2634.011,32.1c.587,0,1.174.008,1.761,0,.225,0,.312.052.334.3.067.711.162,1.419.269,2.125.034.225-.017.295-.24.293-1.137-.006-2.275-.007-3.412,0a.287.287,0,0,1-.334-.267q-.232-1.1-.477-2.2c-.061-.27.112-.252.283-.252Z" transform="translate(-2611.919 0.395)" fill="#f3f3f3"/>
      <path id="Trazado_165637" data-name="Trazado 165637" d="M2692.344,32.1c.569,0,1.138.007,1.706,0,.242,0,.321.054.261.316-.155.677-.286,1.359-.411,2.042a.37.37,0,0,1-.437.362q-1.568-.023-3.137,0c-.329.005-.389-.088-.333-.409a19.765,19.765,0,0,0,.243-1.962c.022-.3.133-.359.4-.351C2691.206,32.109,2691.775,32.1,2692.344,32.1Z" transform="translate(-2657.143 0.402)" fill="#f3f3f3"/>
      <path id="Trazado_165638" data-name="Trazado 165638" d="M2638.107,52.051h.993c.909,0,.909,0,1.012.91.057.492.094.988.178,1.476.044.254-.018.321-.264.319-.993-.009-1.986-.006-2.98,0-.21,0-.323-.041-.366-.288-.121-.685-.276-1.365-.432-2.044-.066-.286,0-.392.313-.378C2637.076,52.068,2637.592,52.051,2638.107,52.051Z" transform="translate(-2615.288 -15.136)" fill="#f3f3f3"/>
      <path id="Trazado_165639" data-name="Trazado 165639" d="M2689.67,52.052c.515,0,1.031.006,1.546,0,.212,0,.294.039.24.282-.156.7-.287,1.4-.421,2.1a.348.348,0,0,1-.412.324c-.957-.015-1.914-.014-2.871,0-.272,0-.339-.058-.29-.345a17.517,17.517,0,0,0,.247-1.967c.022-.362.166-.413.471-.4C2688.675,52.067,2689.173,52.051,2689.67,52.052Z" transform="translate(-2655.174 -15.136)" fill="#f3f3f3"/>
      <path id="Trazado_165640" data-name="Trazado 165640" d="M2651.5,89.821a.823.823,0,1,1-.8-.807A.813.813,0,0,1,2651.5,89.821Z" transform="translate(-2625.904 -43.925)" fill="#f3f3f3"/>
      <path id="Trazado_165641" data-name="Trazado 165641" d="M2689.434,89.831a.823.823,0,1,1-.787-.816A.822.822,0,0,1,2689.434,89.831Z" transform="translate(-2655.442 -43.926)" fill="#f3f3f3"/>
      <path id="Trazado_165642" data-name="Trazado 165642" d="M2688.977-92.248q3.478,0,6.956,0a3.012,3.012,0,0,1,.55.027.753.753,0,0,1,.659.767.744.744,0,0,1-.607.808,3.075,3.075,0,0,1-.712.055q-6.846,0-13.691,0a3.085,3.085,0,0,1-.711-.055.743.743,0,0,1-.607-.807.751.751,0,0,1,.658-.768,2.99,2.99,0,0,1,.55-.028Q2685.5-92.25,2688.977-92.248Z" transform="translate(-2650.008 97.226)" fill="#ededed"/>
      <path id="Trazado_165643" data-name="Trazado 165643" d="M2586.043-91.576a.83.83,0,0,1-.8.817.8.8,0,0,1-.844-.81.826.826,0,0,1,.782-.831A.864.864,0,0,1,2586.043-91.576Z" transform="translate(-2574.93 97.345)" fill="#e96d72"/>
      <path id="Trazado_165644" data-name="Trazado 165644" d="M2615.567-91.4a.824.824,0,0,1-.853.816.823.823,0,0,1-.8-.817.821.821,0,0,1,.852-.815A.822.822,0,0,1,2615.567-91.4Z" transform="translate(-2597.916 97.202)" fill="#f5c68b"/>
      <path id="Trazado_165645" data-name="Trazado 165645" d="M2644.161-92.234a.826.826,0,0,1,.847.826.829.829,0,0,1-.8.814.828.828,0,0,1-.847-.827A.825.825,0,0,1,2644.161-92.234Z" transform="translate(-2620.841 97.215)" fill="#9dd3b4"/>
    </g>
  </g>
</svg>
