<svg xmlns="http://www.w3.org/2000/svg" width="91" height="91" viewBox="0 0 91 91">
  <g id="Grupo_110675" data-name="Grupo 110675" transform="translate(-810 -851)">
    <rect id="Rectángulo_36177" data-name="Rectángulo 36177" width="91" height="91" transform="translate(810 851)" fill="#ff6148"/>
    <g id="Grupo_108632" data-name="Grupo 108632" transform="translate(829 869.12)">
      <path id="Trazado_165782" data-name="Trazado 165782" d="M3829.5,142.815c1.131,0,2.2.008,3.263,0,.327,0,.328.125.214.361a.872.872,0,0,1-.834.526c-.552,0-1.1,0-1.656,0S3829.651,143.416,3829.5,142.815Z" transform="translate(-3788.003 -141.046)" fill="#f4d86a"/>
      <g id="Grupo_108631" data-name="Grupo 108631" transform="translate(0)">
        <path id="Trazado_165783" data-name="Trazado 165783" d="M3727.578,210.714a9.718,9.718,0,1,1-9.739,9.7A9.738,9.738,0,0,1,3727.578,210.714Zm-6.756,8.836a3.536,3.536,0,0,1,.6.006c.506.089.61-.143.619-.6a8.129,8.129,0,0,1,.385-2.382.836.836,0,0,0-.451-1.172c-.312-.178-.443-.168-.655.108a8.123,8.123,0,0,0-1.486,3.041c-.247,1-.237,1,.764,1Zm-1.143,1.927a7.87,7.87,0,0,0,1.633,3.844c.113.142.228.5.482.239s.9-.213.729-.849a13.631,13.631,0,0,1-.5-3.033c-.008-.236-.057-.374-.34-.366-.569.018-1.138.008-1.708,0C3719.794,221.315,3719.636,221.324,3719.679,221.477Zm15.738.11c.077-.239-.093-.283-.362-.275-.514.015-1.029.028-1.541,0-.359-.022-.428.132-.435.445a12.357,12.357,0,0,1-.369,2.5c-.2.862-.2.85.565,1.305a.259.259,0,0,0,.406-.074A8.085,8.085,0,0,0,3735.417,221.588Zm-1.129-2.064v.027a3.908,3.908,0,0,1,.6.005c.5.079.583-.138.488-.577a8.1,8.1,0,0,0-1.6-3.46c-.107-.132-.216-.457-.445-.224-.261.265-.9.233-.745.839.192.765.328,1.539.453,2.318.057.357-.13.852.163,1.038C3733.472,219.654,3733.921,219.524,3734.287,219.524Zm-9.08.026c.385,0,.771-.012,1.156,0,.24.01.32-.071.314-.312-.014-.605-.009-1.211,0-1.817,0-.2-.059-.289-.275-.311a7.357,7.357,0,0,1-1.818-.408c-.286-.106-.4,0-.447.275-.1.578-.228,1.151-.31,1.731-.118.837-.1.839.722.839Zm.16,1.767c-.432,0-.782.018-1.129-.005s-.493.042-.453.439a19.813,19.813,0,0,0,.352,2.169c.055.26.169.325.422.247a10.857,10.857,0,0,1,1.167-.307c.945-.182.95-.172.945-1.166,0-.438.146-1.017-.075-1.276C3726.334,221.111,3725.734,221.371,3725.367,221.317Zm4.39-1.767c.451,0,.82-.017,1.186.005.306.019.415-.065.387-.394-.055-.66-.2-1.305-.288-1.958-.076-.537-.3-.614-.761-.42a4.4,4.4,0,0,1-.905.226c-.935.173-.944.168-.932,1.12.005.455-.194,1.042.077,1.329S3729.389,219.5,3729.757,219.55Zm.155,1.767c-.386,0-.772.011-1.157,0-.232-.009-.326.058-.32.307.015.606.009,1.212,0,1.819,0,.2.052.293.271.314a7.352,7.352,0,0,1,1.821.406c.278.1.4.023.45-.265.1-.6.237-1.188.315-1.787.1-.786.084-.788-.722-.788Zm-3.239,6.788c0-.509.01-.912,0-1.315-.013-.418.175-1.08-.073-1.2-.426-.21-.977.1-1.469.238-.214.058-.269.149-.166.351A4.8,4.8,0,0,0,3726.673,228.106Zm1.767.016a4.949,4.949,0,0,0,1.435-1.455c.478-.748.478-.751-.359-.966-.265-.068-.536-.119-.8-.175-.17-.035-.277-.005-.274.211C3728.445,226.5,3728.44,227.261,3728.44,228.122Zm0-15.377v1.308c0,1.538,0,1.53,1.473,1.014.28-.1.344-.187.2-.459A5.093,5.093,0,0,0,3728.439,212.745Zm-1.767.007a4.105,4.105,0,0,0-1.208,1.127c-.88,1.3-.72,1.05.5,1.372.141.037.287.057.43.089.216.049.289-.035.286-.255C3726.667,214.341,3726.672,213.6,3726.672,212.752Z" transform="translate(-3701.047 -193.923)" fill="#020202"/>
        <path id="Trazado_165784" data-name="Trazado 165784" d="M3655.4,148.977c.188.771.368,1.5.542,2.227.207.868-.138,1.3-1.039,1.306q-3.23.005-6.46,0c-.9,0-1.234-.442-1.025-1.317.145-.607.274-1.219.45-1.817.094-.32.045-.413-.3-.406-.938.02-1.878.011-2.816.006a2.652,2.652,0,0,1-2.789-2.762q-.01-4.307,0-8.615a2.639,2.639,0,0,1,2.736-2.757q6.985-.01,13.97,0a2.633,2.633,0,0,1,2.726,2.712q.016,4.362,0,8.725a2.641,2.641,0,0,1-2.688,2.7C3657.623,148.987,3656.538,148.977,3655.4,148.977Zm-3.18,1.76c.478,0,.956.009,1.433,0,.129,0,.338.049.286-.2a3.288,3.288,0,0,0-.409-1.457c-.221-.273-.7-.075-1.057-.1a5.549,5.549,0,0,0-.605.021c-.237-.009-.475-.024-.713-.025-1.448,0-1.437,0-1.736,1.43-.062.295.009.344.273.34C3650.537,150.736,3651.379,150.74,3652.222,150.737Zm4.538-3.544c.514.006,1.028.016,1.543.017,1.105,0,1.386-.312,1.336-1.428-.012-.261-.083-.35-.347-.343-.771.019-1.543.017-2.314.023-.607-.006-1.214-.017-1.821-.017q-5.464,0-10.929,0c-.163,0-.38-.113-.489.114a1.158,1.158,0,0,0,.934,1.642C3648.7,147.21,3652.731,147.2,3656.76,147.193Zm.1-10.553c-4.082-.01-8.165-.025-12.247-.025a.844.844,0,0,0-.877.929c-.011,1.931,0,3.863-.01,5.794,0,.263.074.343.34.342q6.455-.019,12.91-.021c.77.005,1.539,0,2.308.02.253.005.356-.067.354-.338-.009-1.942,0-3.885-.011-5.828a.848.848,0,0,0-.9-.9C3658.1,136.6,3657.479,136.629,3656.857,136.64Z" transform="translate(-3641.958 -134.837)" fill="#010101"/>
        <path id="Trazado_165785" data-name="Trazado 165785" d="M3803.456,294.561q3.4,0,6.792,0a2.664,2.664,0,0,1,2.87,2.848q.006,4.224,0,8.449a2.662,2.662,0,0,1-2.824,2.84c-.9,0-1.8.011-2.706,0-.339-.006-.506.015-.37.438.191.592.31,1.209.451,1.817.2.839-.15,1.282-1.013,1.283q-3.258.007-6.516,0c-.862,0-1.207-.446-1.01-1.286.138-.59.245-1.191.438-1.763.162-.477-.026-.5-.414-.491-.9.022-1.8.012-2.706.006a2.656,2.656,0,0,1-2.766-2.785q-.008-4.28,0-8.559a2.651,2.651,0,0,1,2.815-2.79C3798.818,294.558,3801.137,294.561,3803.456,294.561Zm.135,14.163c-.238-.009-.475-.024-.713-.025-1.449,0-1.437,0-1.736,1.43-.062.295.009.344.273.34.842-.012,1.685-.009,2.527-.011.478,0,.956.009,1.433,0,.13,0,.338.049.287-.2a3.281,3.281,0,0,0-.41-1.457c-.221-.273-.7-.076-1.057-.1A5.588,5.588,0,0,0,3803.591,308.724Zm4.89-1.81c.514.006,1.028.016,1.542.017,1.105,0,1.387-.312,1.336-1.428-.012-.261-.083-.35-.347-.343-.771.019-1.542.017-2.314.023-.607-.006-1.214-.017-1.821-.017q-5.465,0-10.93,0c-.163,0-.38-.114-.489.114a1.158,1.158,0,0,0,.934,1.642C3800.423,306.931,3804.452,306.92,3808.481,306.914Zm.1-10.553c-4.082-.01-8.164-.025-12.247-.024a.844.844,0,0,0-.877.929c-.011,1.931,0,3.863-.01,5.794,0,.263.074.343.34.343q6.455-.019,12.91-.021c.77.005,1.539,0,2.308.02.253.006.356-.066.354-.338-.009-1.943,0-3.885-.011-5.828a.848.848,0,0,0-.9-.9C3809.822,296.322,3809.2,296.351,3808.578,296.361Z" transform="translate(-3760.105 -259.215)" fill="#010101"/>
        <path id="Trazado_165786" data-name="Trazado 165786" d="M3822.025,144.615q0,3.4,0,6.791a2.666,2.666,0,0,1-2.846,2.872q-3.34.006-6.68,0a2.659,2.659,0,0,1-2.841-2.82q-.005-6.9,0-13.8a2.651,2.651,0,0,1,2.79-2.815q3.395-.008,6.79,0a2.654,2.654,0,0,1,2.787,2.818C3822.029,139.978,3822.025,142.3,3822.025,144.615Zm-4.418-5.472a10.719,10.719,0,0,1-2.36.113,2.646,2.646,0,0,1-2.922-2.389c-.059-.289-.153-.274-.355-.183a.982.982,0,0,0-.55,1.042q.009,5.489,0,10.977c0,.938-.007,1.876,0,2.813.006.606.318.984.876.987,1.727.009,3.454-.013,5.182-.023.55.011,1.1.03,1.651.03.822,0,1.121-.3,1.122-1.136q0-2.868,0-5.736c0-2.647,0-5.294,0-7.942a.966.966,0,0,0-.577-1.026c-.2-.083-.293-.062-.321.185A2.815,2.815,0,0,1,3817.607,139.143Zm-3.56-2.537c.146.6.446.884.986.885s1.1,0,1.656,0a.872.872,0,0,0,.834-.526c.114-.237.112-.365-.214-.361C3816.244,136.614,3815.178,136.606,3814.047,136.606Z" transform="translate(-3772.545 -134.837)" fill="#010101"/>
        <path id="Trazado_165787" data-name="Trazado 165787" d="M3670.307,296.293q0,3.423,0,6.846a2.667,2.667,0,0,1-2.849,2.87q-3.339.006-6.68,0a2.66,2.66,0,0,1-2.839-2.822q-.005-6.9,0-13.8a2.651,2.651,0,0,1,2.792-2.813q3.4-.008,6.79,0a2.648,2.648,0,0,1,2.785,2.765C3670.312,291.655,3670.307,293.974,3670.307,296.293Zm-4.542,7.916c.55.011,1.1.03,1.651.03.822,0,1.121-.3,1.122-1.136q0-2.868,0-5.736c0-2.647,0-5.294,0-7.942a.967.967,0,0,0-.577-1.026c-.2-.083-.294-.062-.322.185a2.814,2.814,0,0,1-1.755,2.288,10.721,10.721,0,0,1-2.36.113,2.647,2.647,0,0,1-2.922-2.389c-.058-.289-.153-.274-.355-.183a.983.983,0,0,0-.55,1.042q.01,5.489,0,10.977c0,.938-.007,1.876,0,2.813.006.606.318.984.876.987C3662.311,304.241,3664.038,304.219,3665.765,304.209Zm-1.6-15.873c-.423,0-.847-.009-1.27,0-.171.005-.432-.1-.5.076-.086.238.106.447.294.6a.784.784,0,0,0,.5.2c.625,0,1.251.012,1.876-.006a.811.811,0,0,0,.705-.461c.143-.261.174-.44-.233-.419C3665.085,288.354,3664.625,288.336,3664.165,288.336Z" transform="translate(-3654.4 -252.991)" fill="#010101"/>
        <path id="Trazado_165788" data-name="Trazado 165788" d="M3815.636,258.618c.533,0,1.067-.015,1.6,0a2.629,2.629,0,0,1,2.548,2.542c.028,1.1,0,2.206.014,3.309,0,.269-.081.327-.34.337-1.434.053-1.433.061-1.434-1.389,0-.662,0-1.324,0-1.985-.007-.721-.325-1.044-1.04-1.05-.992-.007-1.986-.012-2.978,0-.3.005-.4-.054-.408-.382-.018-1.392-.031-1.392,1.377-1.392h.662Z" transform="translate(-3775.612 -231.222)" fill="#010101"/>
        <path id="Trazado_165789" data-name="Trazado 165789" d="M3686,228.823c-.515,0-1.03.012-1.544,0a2.636,2.636,0,0,1-2.58-2.57c-.023-1.084,0-2.169-.013-3.253,0-.292.082-.36.367-.366,1.407-.029,1.407-.039,1.407,1.36,0,.68-.006,1.36,0,2.04a.9.9,0,0,0,1.011,1.023c.993.009,1.985.014,2.978,0,.317-.006.439.045.439.409,0,1.366.017,1.366-1.349,1.366H3686Z" transform="translate(-3673.035 -203.198)" fill="#010101"/>
        <path id="Trazado_165790" data-name="Trazado 165790" d="M3815.641,235.056c-.532,0-1.067-.017-1.6.007-.315.014-.44-.04-.44-.407,0-1.368-.018-1.367,1.347-1.368.7,0,1.4.009,2.095,0a.9.9,0,0,0,.986-.993c0-.128,0-.257,0-.386,0-1.275,0-1.256,1.269-1.28.41-.008.547.089.508.508-.041.437,0,.881-.012,1.322a2.648,2.648,0,0,1-2.611,2.6C3816.671,235.066,3816.156,235.056,3815.641,235.056Z" transform="translate(-3775.62 -209.43)" fill="#010101"/>
        <path id="Trazado_165791" data-name="Trazado 165791" d="M3686.175,260.376c-.532,0-1.066-.013-1.6,0a.864.864,0,0,0-.906.9c-.018.459-.019.919,0,1.378.011.274-.054.37-.356.377-1.417.033-1.417.044-1.417-1.352,0-2.064,1.011-3.076,3.074-3.076.9,0,1.8.009,2.7-.005.281,0,.415.024.42.37.021,1.4.035,1.4-1.366,1.4Z" transform="translate(-3673.06 -231.214)" fill="#010101"/>
        <path id="Trazado_165792" data-name="Trazado 165792" d="M3727.383,235.617h-.22c-1,0-1.011,0-.764-1a8.12,8.12,0,0,1,1.487-3.041c.212-.275.343-.286.655-.108a.836.836,0,0,1,.452,1.172,8.121,8.121,0,0,0-.385,2.382c-.009.46-.113.692-.619.6A3.536,3.536,0,0,0,3727.383,235.617Z" transform="translate(-3707.608 -209.99)" fill="#66a1f3"/>
        <path id="Trazado_165793" data-name="Trazado 165793" d="M3726.129,258.77c-.043-.153.115-.163.3-.162.569,0,1.139.014,1.708,0,.283-.009.332.129.34.366a13.644,13.644,0,0,0,.495,3.033c.169.636-.474.583-.728.849s-.369-.1-.482-.239A7.863,7.863,0,0,1,3726.129,258.77Z" transform="translate(-3707.497 -231.216)" fill="#66a1f3"/>
        <path id="Trazado_165794" data-name="Trazado 165794" d="M3787.351,258.863a8.085,8.085,0,0,1-1.736,3.895.26.26,0,0,1-.406.074c-.769-.455-.763-.443-.565-1.305a12.391,12.391,0,0,0,.369-2.5c.007-.313.076-.468.435-.445.512.032,1.028.019,1.541,0C3787.258,258.581,3787.428,258.624,3787.351,258.863Z" transform="translate(-3752.982 -231.199)" fill="#66a1f3"/>
        <path id="Trazado_165795" data-name="Trazado 165795" d="M3786.129,235.355c-.366,0-.815.131-1.076-.035-.293-.186-.106-.681-.163-1.038-.126-.778-.261-1.552-.453-2.318-.152-.605.484-.574.744-.839.229-.233.338.092.445.224a8.107,8.107,0,0,1,1.6,3.46c.1.439.012.656-.488.577a3.911,3.911,0,0,0-.6-.005Z" transform="translate(-3752.89 -209.755)" fill="#66a1f3"/>
        <path id="Trazado_165796" data-name="Trazado 165796" d="M3746.081,240.493h-.661c-.827,0-.84,0-.721-.839.082-.58.212-1.153.31-1.731.047-.275.161-.38.447-.275a7.36,7.36,0,0,0,1.819.408c.216.022.277.111.275.311-.007.606-.012,1.212,0,1.817.006.242-.074.322-.313.312C3746.853,240.481,3746.467,240.493,3746.081,240.493Z" transform="translate(-3721.921 -214.866)" fill="#67a2f5"/>
        <path id="Trazado_165797" data-name="Trazado 165797" d="M3746.271,258.448c.367.054.966-.206,1.229.1.22.259.073.838.075,1.276.005.993,0,.984-.945,1.166a10.86,10.86,0,0,0-1.167.307c-.253.079-.367.013-.422-.247a19.932,19.932,0,0,1-.352-2.169c-.04-.4.118-.461.453-.439S3745.839,258.448,3746.271,258.448Z" transform="translate(-3721.951 -231.054)" fill="#67a2f5"/>
        <path id="Trazado_165798" data-name="Trazado 165798" d="M3766.842,240.569c-.368-.046-.961.2-1.237-.092s-.072-.874-.077-1.329c-.011-.952,0-.947.932-1.12a4.4,4.4,0,0,0,.905-.226c.463-.195.686-.118.761.42.092.653.233,1.3.288,1.958.028.329-.082.412-.387.394C3767.661,240.552,3767.293,240.569,3766.842,240.569Z" transform="translate(-3738.132 -214.942)" fill="#67a2f5"/>
        <path id="Trazado_165799" data-name="Trazado 165799" d="M3767.2,258.613h.661c.805,0,.823,0,.721.788-.078.6-.217,1.19-.314,1.787-.047.289-.173.367-.45.265a7.363,7.363,0,0,0-1.821-.406c-.22-.021-.273-.117-.272-.314.007-.606.013-1.213,0-1.819-.006-.249.088-.316.32-.307C3766.425,258.624,3766.811,258.614,3767.2,258.613Z" transform="translate(-3738.333 -231.219)" fill="#67a2f5"/>
        <path id="Trazado_165800" data-name="Trazado 165800" d="M3751.564,280.205a4.794,4.794,0,0,1-1.71-1.927c-.1-.2-.048-.293.166-.351.492-.133,1.043-.448,1.469-.238.248.122.06.783.073,1.2C3751.574,279.293,3751.564,279.7,3751.564,280.205Z" transform="translate(-3725.939 -246.023)" fill="#66a0f2"/>
        <path id="Trazado_165801" data-name="Trazado 165801" d="M3765.733,280.2c0-.861.005-1.623,0-2.385,0-.216.1-.246.275-.211.269.056.539.106.8.175.838.215.837.218.359.966A4.956,4.956,0,0,1,3765.733,280.2Z" transform="translate(-3738.341 -246.004)" fill="#66a0f2"/>
        <path id="Trazado_165802" data-name="Trazado 165802" d="M3765.741,219.893a5.089,5.089,0,0,1,1.672,1.863c.146.273.082.362-.2.459-1.476.515-1.474.523-1.474-1.014Z" transform="translate(-3738.349 -201.071)" fill="#66a0f2"/>
        <path id="Trazado_165803" data-name="Trazado 165803" d="M3751.544,219.923c0,.844-.006,1.589,0,2.333,0,.22-.069.3-.286.255-.143-.032-.289-.052-.43-.089-1.216-.322-1.376-.074-.5-1.372A4.1,4.1,0,0,1,3751.544,219.923Z" transform="translate(-3725.919 -201.094)" fill="#66a0f2"/>
        <path id="Trazado_165804" data-name="Trazado 165804" d="M3663.185,149.916q-6.455.008-12.91.021c-.266,0-.341-.08-.34-.342.01-1.931,0-3.863.01-5.794a.844.844,0,0,1,.877-.929c4.082,0,8.164.014,12.246.025a6.352,6.352,0,0,1,.118.864C3663.2,145.812,3663.188,147.864,3663.185,149.916Z" transform="translate(-3648.17 -141.094)" fill="#60d3dc"/>
        <path id="Trazado_165805" data-name="Trazado 165805" d="M3662.655,184.434c-4.029.006-8.059.017-12.088.011a1.158,1.158,0,0,1-.933-1.642c.109-.227.326-.113.489-.114q5.465-.01,10.93,0c.607,0,1.214.011,1.821.017A3.409,3.409,0,0,1,3662.655,184.434Z" transform="translate(-3647.853 -172.079)" fill="#67a3f7"/>
        <path id="Trazado_165806" data-name="Trazado 165806" d="M3709.4,149.9c0-2.052.01-4.1,0-6.156a6.314,6.314,0,0,0-.118-.864c.622-.011,1.244-.039,1.866-.026a.848.848,0,0,1,.9.9c.014,1.942,0,3.885.011,5.828,0,.271-.1.343-.354.338C3710.942,149.9,3710.173,149.9,3709.4,149.9Z" transform="translate(-3694.388 -141.077)" fill="#419396"/>
        <path id="Trazado_165807" data-name="Trazado 165807" d="M3708.849,184.5a3.409,3.409,0,0,0,.218-1.732c.771-.006,1.543,0,2.314-.023.263-.007.335.082.347.343.051,1.116-.231,1.43-1.336,1.428C3709.877,184.512,3709.363,184.5,3708.849,184.5Z" transform="translate(-3694.047 -172.141)" fill="#286ee6"/>
        <path id="Trazado_165808" data-name="Trazado 165808" d="M3678.413,200.5c-.842,0-1.685,0-2.527.012-.264,0-.334-.045-.273-.34.3-1.429.287-1.433,1.736-1.43.238,0,.475.016.713.025Q3678.238,199.631,3678.413,200.5Z" transform="translate(-3668.149 -184.598)" fill="#87868d"/>
        <path id="Trazado_165809" data-name="Trazado 165809" d="M3687.1,200.348l-.352-1.734a5.545,5.545,0,0,1,.605-.021c.361.024.835-.173,1.057.1a3.288,3.288,0,0,1,.409,1.457c.052.251-.157.2-.286.2C3688.059,200.357,3687.582,200.35,3687.1,200.348Z" transform="translate(-3676.84 -184.448)" fill="#2d2d30"/>
        <path id="Trazado_165810" data-name="Trazado 165810" d="M3814.9,309.632q-6.455.008-12.91.021c-.266,0-.341-.08-.34-.343.01-1.931,0-3.863.01-5.794a.844.844,0,0,1,.878-.929c4.082,0,8.164.014,12.246.024a6.4,6.4,0,0,1,.118.864C3814.914,305.528,3814.907,307.58,3814.9,309.632Z" transform="translate(-3766.315 -265.466)" fill="#60d3dc"/>
        <path id="Trazado_165811" data-name="Trazado 165811" d="M3814.374,344.149c-4.029.006-8.059.017-12.088.011a1.158,1.158,0,0,1-.933-1.642c.109-.227.326-.113.489-.114q5.465-.01,10.929,0c.607,0,1.214.011,1.82.017A3.4,3.4,0,0,1,3814.374,344.149Z" transform="translate(-3765.999 -296.451)" fill="#67a3f7"/>
        <path id="Trazado_165812" data-name="Trazado 165812" d="M3861.123,309.615c0-2.052.01-4.1,0-6.156a6.36,6.36,0,0,0-.118-.864c.622-.01,1.244-.039,1.866-.026a.848.848,0,0,1,.9.9c.014,1.943,0,3.885.011,5.828,0,.271-.1.343-.354.338C3862.661,309.618,3861.892,309.62,3861.123,309.615Z" transform="translate(-3812.533 -265.449)" fill="#419396"/>
        <path id="Trazado_165813" data-name="Trazado 165813" d="M3860.568,344.212a3.407,3.407,0,0,0,.218-1.732c.771-.006,1.543,0,2.314-.023.264-.007.335.082.347.343.05,1.116-.231,1.43-1.336,1.428C3861.6,344.228,3861.083,344.218,3860.568,344.212Z" transform="translate(-3812.192 -296.513)" fill="#286ee6"/>
        <path id="Trazado_165814" data-name="Trazado 165814" d="M3830.132,360.214c-.842,0-1.685,0-2.527.011-.264,0-.335-.045-.273-.34.3-1.429.287-1.433,1.736-1.43.238,0,.475.016.712.024Q3829.957,359.347,3830.132,360.214Z" transform="translate(-3786.295 -308.971)" fill="#87868d"/>
        <path id="Trazado_165815" data-name="Trazado 165815" d="M3838.823,360.064l-.352-1.734a5.65,5.65,0,0,1,.6-.021c.361.025.836-.173,1.057.1a3.282,3.282,0,0,1,.41,1.457c.051.25-.157.2-.287.2C3839.778,360.073,3839.3,360.066,3838.823,360.064Z" transform="translate(-3794.985 -308.82)" fill="#2d2d30"/>
        <path id="Trazado_165816" data-name="Trazado 165816" d="M3823.7,158.773c-1.728.01-3.456.032-5.182.023-.558,0-.87-.381-.876-.987-.01-.938,0-1.875,0-2.813q0-5.488,0-10.977a.983.983,0,0,1,.55-1.042c.2-.091.3-.105.356.183a2.646,2.646,0,0,0,2.921,2.389,10.723,10.723,0,0,0,2.36-.113q0,5.545,0,11.089A9.807,9.807,0,0,1,3823.7,158.773Z" transform="translate(-3778.757 -141.13)" fill="#5fd3dc"/>
        <path id="Trazado_165817" data-name="Trazado 165817" d="M3845.037,158.776a9.753,9.753,0,0,0,.123-2.247q0-5.545,0-11.089a2.815,2.815,0,0,0,1.755-2.288c.028-.246.126-.268.322-.185a.967.967,0,0,1,.577,1.026q-.01,3.971,0,7.942,0,2.868,0,5.736c0,.832-.3,1.137-1.122,1.136C3846.137,158.806,3845.587,158.787,3845.037,158.776Z" transform="translate(-3800.098 -141.134)" fill="#419396"/>
        <path id="Trazado_165818" data-name="Trazado 165818" d="M3671.978,310.5c-1.727.01-3.455.032-5.182.023-.558,0-.87-.381-.876-.987-.009-.938,0-1.875,0-2.813q0-5.488,0-10.977a.984.984,0,0,1,.551-1.042c.2-.091.3-.105.355.183a2.647,2.647,0,0,0,2.922,2.389,10.722,10.722,0,0,0,2.36-.113q0,5.545,0,11.089A9.753,9.753,0,0,1,3671.978,310.5Z" transform="translate(-3660.612 -259.284)" fill="#5fd3dc"/>
        <path id="Trazado_165819" data-name="Trazado 165819" d="M3693.318,310.506a9.753,9.753,0,0,0,.123-2.247q0-5.545,0-11.089a2.815,2.815,0,0,0,1.755-2.288c.028-.246.126-.268.322-.185a.967.967,0,0,1,.577,1.026c-.007,2.647,0,5.294,0,7.942q0,2.868,0,5.736c0,.832-.3,1.137-1.122,1.136C3694.419,310.536,3693.868,310.517,3693.318,310.506Z" transform="translate(-3681.952 -259.288)" fill="#419396"/>
        <path id="Trazado_165820" data-name="Trazado 165820" d="M3679.792,294.48c.46,0,.921.018,1.38-.005.408-.021.376.158.233.419a.811.811,0,0,1-.705.461c-.625.018-1.251.007-1.876.006a.784.784,0,0,1-.5-.2c-.188-.157-.38-.366-.293-.6.064-.178.325-.071.5-.076C3678.946,294.472,3679.369,294.48,3679.792,294.48Z" transform="translate(-3670.028 -259.135)" fill="#f4d86a"/>
      </g>
    </g>
  </g>
</svg>
