<svg xmlns="http://www.w3.org/2000/svg" width="91" height="91" viewBox="0 0 91 91">
  <g id="Grupo_110674" data-name="Grupo 110674" transform="translate(-495 -851)">
    <rect id="Rectángulo_36180" data-name="Rectángulo 36180" width="91" height="91" transform="translate(495 851)" fill="#ff6148"/>
    <g id="Grupo_108630" data-name="Grupo 108630" transform="translate(514 870.016)">
      <path id="Trazado_165758" data-name="Trazado 165758" d="M2568.727,199.619a15.019,15.019,0,1,1-14.989-15.049A15.044,15.044,0,0,1,2568.727,199.619Zm-14.992,6.153c1.656,0,3.311-.007,4.967.006.324,0,.474-.064.553-.42a30.432,30.432,0,0,0,.61-4.474c.021-.293-.018-.421-.362-.42q-5.795.017-11.589,0c-.34,0-.385.123-.364.418a30.3,30.3,0,0,0,.61,4.474c.08.353.226.425.552.422C2550.386,205.764,2552.06,205.772,2553.735,205.772Zm-.083-7.067q2.9,0,5.794,0c.257,0,.453.023.424-.359a30.838,30.838,0,0,0-.628-4.582c-.07-.307-.2-.366-.485-.366q-5.049.012-10.1,0c-.332,0-.425.118-.5.422a31.655,31.655,0,0,0-.612,4.362c-.041.462.112.537.527.532C2549.936,198.693,2551.794,198.7,2553.652,198.7Zm-4.831-7.094h9.725a9.773,9.773,0,0,0-2.623-4.348,3.108,3.108,0,0,0-4.429,0A10.258,10.258,0,0,0,2548.821,191.61Zm0,15.95a12.352,12.352,0,0,0,1.726,3.335,5.467,5.467,0,0,0,1.655,1.518,2.794,2.794,0,0,0,2.939.035c1.874-1.1,2.7-2.95,3.461-4.888ZM2564.2,198.7c.79,0,1.579-.01,2.369.006.269.005.339-.066.314-.341a13.181,13.181,0,0,0-1.318-4.682.439.439,0,0,0-.462-.287c-1.267.011-2.534.009-3.8,0-.226,0-.336.028-.271.3a24.925,24.925,0,0,1,.589,4.633c.014.329.147.381.432.374C2562.765,198.693,2563.481,198.7,2564.2,198.7Zm-17.757-5.3c-1.44,0-2.834,0-4.227,0-.212,0-.277.126-.354.279a12.931,12.931,0,0,0-1.324,4.679c-.022.259.02.353.3.351q2.314-.019,4.628,0c.237,0,.312-.075.323-.309A27.556,27.556,0,0,1,2546.441,193.405Zm.009,12.367a26.694,26.694,0,0,1-.663-5.048c-.012-.237-.131-.255-.316-.254-1.543,0-3.085.009-4.628,0-.279,0-.33.085-.307.348a13.032,13.032,0,0,0,1.321,4.68.4.4,0,0,0,.409.282C2543.641,205.767,2545.016,205.772,2546.449,205.772Zm17.805-5.3c-.716,0-1.432.013-2.148-.006-.324-.009-.482.04-.5.427a23.964,23.964,0,0,1-.582,4.578c-.063.269.038.306.269.3q1.9-.011,3.8,0a.439.439,0,0,0,.464-.285,13.185,13.185,0,0,0,1.318-4.682c.024-.27-.038-.35-.311-.344C2565.8,200.483,2565.026,200.472,2564.255,200.472Zm.029-8.834a12.832,12.832,0,0,0-5.913-4.378,16.638,16.638,0,0,1,1.988,4.045c.065.195.124.347.4.341C2561.894,191.626,2563.027,191.638,2564.284,191.638Zm-21.147,15.9a13.379,13.379,0,0,0,6.042,4.48,15.391,15.391,0,0,1-2.152-4.221c-.046-.137-.083-.265-.285-.264C2545.576,207.544,2544.411,207.539,2543.137,207.539Zm21.142,0c-1.275,0-2.44,0-3.606,0-.2,0-.239.129-.285.265a15.464,15.464,0,0,1-2.154,4.223A13.419,13.419,0,0,0,2564.279,207.539Zm-15.1-20.384a13.365,13.365,0,0,0-6.045,4.482c1.275,0,2.441,0,3.606,0,.2,0,.238-.128.284-.264A15.364,15.364,0,0,1,2549.181,187.155Z" transform="translate(-2527.043 -184.57)" fill="#020202"/>
      <path id="Trazado_165759" data-name="Trazado 165759" d="M2568.694,319.065c-.067,1.825.111,4.072-.1,6.313a15.012,15.012,0,0,1-29.672,1.21,13.97,13.97,0,0,1-.271-2.8c0-3.68.007-7.361-.009-11.042,0-.381.082-.489.476-.484q3.064.033,6.128,0c.382,0,.485.084.484.477-.017,3.625-.013,7.251-.009,10.876a7.947,7.947,0,0,0,15.89.342c.043-3.717.017-7.435,0-11.152,0-.415.08-.551.528-.545,2.024.027,4.049.022,6.073,0,.377,0,.492.075.488.473C2568.682,314.709,2568.694,316.678,2568.694,319.065Zm-1.767,3.514c0-1.194-.014-2.022.007-2.849.009-.318-.094-.4-.4-.393-.9.019-1.8.027-2.7,0-.376-.012-.449.116-.445.462q.027,2.068,0,4.137a9.694,9.694,0,0,1-8.4,9.434c-.366.047-.44.189-.433.521.021.864.027,1.729,0,2.592-.013.391.089.492.482.441a13.089,13.089,0,0,0,10.779-7.871A13.507,13.507,0,0,0,2566.927,322.58Zm-26.5-.416c0,.147,0,.295,0,.441a13.628,13.628,0,0,0,1.448,7.153,13.1,13.1,0,0,0,10.467,7.166c.367.045.473-.049.462-.419-.025-.882-.022-1.766,0-2.648.008-.322-.083-.439-.416-.485a9.687,9.687,0,0,1-8.426-9.648c0-1.324-.009-2.649,0-3.973,0-.295-.055-.421-.386-.413-.919.022-1.84.02-2.759,0-.312-.007-.41.082-.4.4C2540.437,320.545,2540.423,321.354,2540.423,322.164Zm0-6.381c0,.478.018.957-.006,1.434-.015.3.1.369.38.365.938-.015,1.876-.013,2.814,0,.256,0,.355-.064.351-.337q-.022-1.434,0-2.869c0-.273-.1-.339-.352-.336-.938.012-1.876.014-2.814,0-.28,0-.395.065-.379.366C2540.441,314.863,2540.423,315.323,2540.423,315.783Zm23,.027c0,.566-.222,1.327.058,1.648.323.368,1.1.1,1.68.113s1.326.2,1.648-.081c.368-.326.1-1.1.113-1.68s.2-1.326-.081-1.648c-.326-.368-1.1-.1-1.681-.113s-1.324-.2-1.648.081C2563.14,314.457,2563.445,315.232,2563.422,315.81Z" transform="translate(-2527.01 -284.007)" fill="#020201"/>
      <path id="Trazado_165760" data-name="Trazado 165760" d="M2488.5,202.7c-.531.2-1.071.385-1.588.618-.3.137-.4.053-.514-.231-.528-1.27-.538-1.265.72-1.769,1.174-.47,2.353-.933,3.521-1.415.294-.121.458-.141.623.206.565,1.194,1.165,2.373,1.771,3.547.14.273.1.386-.174.528-1.232.63-1.227.64-1.836-.576-.14-.278-.281-.555-.455-.9a16.986,16.986,0,0,0-1.038,3.2,23.593,23.593,0,0,0,.761,13.619c.121.336.1.5-.272.635-1.28.48-1.273.494-1.691-.855a25.532,25.532,0,0,1,.2-16.25c.03-.087.048-.177.072-.266.006-.044.012-.088.019-.132Z" transform="translate(-2486.063 -196.45)" fill="#040404"/>
      <path id="Trazado_165761" data-name="Trazado 165761" d="M2699.674,202.763a25.781,25.781,0,0,1-.043,17.453c-.1.283-.2.379-.5.243-.4-.185-.976-.225-1.174-.527-.208-.318.189-.8.314-1.209a23.835,23.835,0,0,0-.4-15.683c-.037-.1-.085-.2-.16-.368-.3.6-.6,1.144-.845,1.7-.132.294-.255.4-.565.215-.376-.226-.969-.322-1.114-.637s.3-.772.485-1.163c.436-.91.912-1.8,1.347-2.711.135-.285.252-.367.57-.236,1.474.61,2.958,1.2,4.444,1.78.284.111.33.235.221.518-.5,1.289-.487,1.291-1.755.791-.238-.094-.482-.175-.723-.261l-.121-.039Z" transform="translate(-2648.888 -196.415)" fill="#040404"/>
      <path id="Trazado_165762" data-name="Trazado 165762" d="M2513.453,224.042c.221-.435.416-.788.579-1.155.1-.227.221-.272.419-.133a.448.448,0,0,0,.049.025c.4.214.994.34,1.148.67.119.255-.3.77-.5,1.162-.448.9-.913,1.8-1.351,2.707-.141.292-.247.414-.6.231-1.184-.622-2.387-1.211-3.591-1.8-.275-.133-.324-.245-.184-.534.6-1.248.591-1.253,1.8-.652.161.08.324.158.562.273-.22-.764-.442-1.452-.615-2.152a20.246,20.246,0,0,1,1.714-14.487c.212-.417.382-.444.769-.212,1.01.6,1.01.579.509,1.644a18.374,18.374,0,0,0-.865,14.033C2513.334,223.769,2513.382,223.867,2513.453,224.042Z" transform="translate(-2504.2 -202.694)" fill="#040404"/>
      <path id="Trazado_165763" data-name="Trazado 165763" d="M2679.115,224.863c.443-.218.886-.417,1.31-.652.251-.139.381-.156.535.144.646,1.253.658,1.248-.6,1.874-.919.458-1.845.9-2.755,1.378-.278.145-.394.118-.534-.171-.6-1.238-1.221-2.466-1.849-3.69-.124-.24-.08-.348.159-.449.42-.178.86-.578,1.233-.52s.42.708.65,1.075l.138.219a16.853,16.853,0,0,0,1.008-4.262,18.374,18.374,0,0,0-2.09-10.816c-.141-.265-.153-.421.154-.541a3.973,3.973,0,0,0,.478-.272c.74-.418.748-.421,1.138.371a20.214,20.214,0,0,1,1.091,15.84C2679.142,224.525,2679.032,224.647,2679.115,224.863Z" transform="translate(-2633.314 -202.739)" fill="#040404"/>
      <path id="Trazado_165764" data-name="Trazado 165764" d="M2584.9,261.706c-1.674,0-3.348-.008-5.022.007-.326,0-.472-.069-.552-.422a30.306,30.306,0,0,1-.61-4.474c-.021-.3.023-.419.364-.418q5.795.017,11.589,0c.343,0,.383.127.362.42a30.465,30.465,0,0,1-.61,4.474c-.08.355-.229.423-.553.42C2588.215,261.7,2586.559,261.706,2584.9,261.706Z" transform="translate(-2558.212 -240.504)" fill="#83d3ee"/>
      <path id="Trazado_165765" data-name="Trazado 165765" d="M2584.814,229.767c-1.858,0-3.716-.012-5.574.009-.416,0-.568-.07-.527-.532a31.58,31.58,0,0,1,.612-4.362c.071-.3.163-.424.5-.422q5.049.019,10.1,0c.281,0,.415.058.485.366a30.9,30.9,0,0,1,.628,4.582c.029.382-.168.36-.425.359Q2587.712,229.762,2584.814,229.767Z" transform="translate(-2558.206 -215.632)" fill="#83d3ee"/>
      <path id="Trazado_165766" data-name="Trazado 165766" d="M2584.477,197.826a10.261,10.261,0,0,1,2.673-4.346,3.108,3.108,0,0,1,4.429,0,9.773,9.773,0,0,1,2.623,4.348Z" transform="translate(-2562.699 -190.786)" fill="#83d2ee"/>
      <path id="Trazado_165767" data-name="Trazado 165767" d="M2584.477,288.462h9.781c-.763,1.939-1.587,3.789-3.461,4.888a2.794,2.794,0,0,1-2.939-.035,5.464,5.464,0,0,1-1.655-1.518A12.34,12.34,0,0,1,2584.477,288.462Z" transform="translate(-2562.699 -265.472)" fill="#83d2ee"/>
      <path id="Trazado_165768" data-name="Trazado 165768" d="M2642.746,229.776c-.716,0-1.433-.011-2.148.006-.285.007-.418-.045-.432-.374a24.9,24.9,0,0,0-.589-4.633c-.064-.274.045-.3.271-.3,1.267.007,2.534.009,3.8,0a.44.44,0,0,1,.462.287,13.175,13.175,0,0,1,1.317,4.682c.025.275-.045.347-.314.341C2644.326,229.766,2643.536,229.776,2642.746,229.776Z" transform="translate(-2605.592 -215.641)" fill="#83d2ee"/>
      <path id="Trazado_165769" data-name="Trazado 165769" d="M2552.924,224.482a27.579,27.579,0,0,0-.651,5c-.011.233-.086.31-.323.309q-2.314-.014-4.628,0c-.283,0-.326-.093-.3-.351a12.936,12.936,0,0,1,1.324-4.679c.076-.153.141-.28.354-.279C2550.091,224.485,2551.484,224.482,2552.924,224.482Z" transform="translate(-2533.526 -215.647)" fill="#83d2ee"/>
      <path id="Trazado_165770" data-name="Trazado 165770" d="M2552.934,261.711c-1.433,0-2.808-.005-4.184,0a.4.4,0,0,1-.409-.282,13.036,13.036,0,0,1-1.321-4.68c-.023-.263.028-.351.307-.348,1.542.012,3.085.007,4.627,0,.185,0,.3.018.316.254A26.694,26.694,0,0,0,2552.934,261.711Z" transform="translate(-2533.527 -240.509)" fill="#83d2ee"/>
      <path id="Trazado_165771" data-name="Trazado 165771" d="M2642.8,256.407c.772,0,1.543.011,2.314-.006.273-.006.335.074.311.344a13.18,13.18,0,0,1-1.318,4.682.438.438,0,0,1-.463.285q-1.9-.015-3.8,0c-.231,0-.332-.035-.269-.3a23.944,23.944,0,0,0,.582-4.578c.015-.387.173-.436.5-.427C2641.371,256.42,2642.087,256.407,2642.8,256.407Z" transform="translate(-2605.591 -240.505)" fill="#83d2ee"/>
      <path id="Trazado_165772" data-name="Trazado 165772" d="M2633.547,201.1c-1.257,0-2.391-.012-3.523.009-.279.005-.337-.147-.4-.341a16.621,16.621,0,0,0-1.988-4.045A12.831,12.831,0,0,1,2633.547,201.1Z" transform="translate(-2596.306 -194.035)" fill="#81d0eb"/>
      <path id="Trazado_165773" data-name="Trazado 165773" d="M2558.79,288.353c1.274,0,2.439,0,3.6,0,.2,0,.239.126.285.264a15.385,15.385,0,0,0,2.153,4.221A13.381,13.381,0,0,1,2558.79,288.353Z" transform="translate(-2542.696 -265.384)" fill="#81d0eb"/>
      <path id="Trazado_165774" data-name="Trazado 165774" d="M2633.06,288.354a13.419,13.419,0,0,1-6.044,4.484,15.47,15.47,0,0,0,2.153-4.223c.046-.137.083-.266.285-.265C2630.62,288.358,2631.786,288.354,2633.06,288.354Z" transform="translate(-2595.825 -265.385)" fill="#81d0eb"/>
      <path id="Trazado_165775" data-name="Trazado 165775" d="M2564.831,196.253a15.358,15.358,0,0,0-2.155,4.222c-.046.137-.082.266-.284.264-1.166-.009-2.331,0-3.606,0A13.366,13.366,0,0,1,2564.831,196.253Z" transform="translate(-2542.693 -193.668)" fill="#81d0eb"/>
      <path id="Trazado_165776" data-name="Trazado 165776" d="M2622.886,347.458a13.506,13.506,0,0,1-1.115,6.473,13.089,13.089,0,0,1-10.78,7.871c-.393.051-.5-.051-.482-.441.029-.863.023-1.728,0-2.592-.008-.333.066-.474.433-.521a9.694,9.694,0,0,0,8.4-9.434q.025-2.068,0-4.137c0-.347.069-.475.445-.463.9.029,1.8.022,2.7,0,.307-.006.409.076.4.393C2622.872,345.436,2622.886,346.264,2622.886,347.458Z" transform="translate(-2582.969 -308.885)" fill="#f4d57e"/>
      <path id="Trazado_165777" data-name="Trazado 165777" d="M2546.617,347.051c0-.809.014-1.619-.007-2.428-.008-.317.089-.405.4-.4.919.02,1.84.021,2.759,0,.331-.008.389.118.386.413-.013,1.324-.009,2.649-.005,3.973a9.687,9.687,0,0,0,8.425,9.648c.333.046.424.162.416.485-.021.882-.024,1.766,0,2.648.01.37-.095.465-.462.419a13.1,13.1,0,0,1-10.467-7.166,13.626,13.626,0,0,1-1.448-7.153C2546.622,347.345,2546.616,347.2,2546.617,347.051Z" transform="translate(-2533.204 -308.894)" fill="#ed8773"/>
      <path id="Trazado_165778" data-name="Trazado 165778" d="M2546.65,322.026c0-.46.018-.92-.006-1.379-.016-.3.1-.37.379-.366.938.015,1.876.013,2.814,0,.255,0,.355.063.351.336q-.021,1.434,0,2.869c0,.273-.095.34-.351.337-.938-.012-1.876-.014-2.814,0-.28,0-.4-.063-.38-.365C2546.668,322.983,2546.65,322.5,2546.65,322.026Z" transform="translate(-2533.237 -290.25)" fill="#ea765a"/>
      <path id="Trazado_165779" data-name="Trazado 165779" d="M2650.27,321.806c.022-.578-.282-1.354.089-1.68.324-.285,1.083-.1,1.648-.081s1.355-.255,1.68.113c.285.322.1,1.082.081,1.648s.255,1.355-.113,1.681c-.322.285-1.082.1-1.648.081s-1.357.255-1.679-.113C2650.048,323.133,2650.27,322.372,2650.27,321.806Z" transform="translate(-2613.858 -290.002)" fill="#f6c74f"/>
      <path id="Trazado_165780" data-name="Trazado 165780" d="M2497.082,212.694l.122-.037-.019.132Z" transform="translate(-2494.644 -206.442)" fill="#f7f9fa"/>
      <path id="Trazado_165781" data-name="Trazado 165781" d="M2715.5,212.791l-.017-.133.121.039Z" transform="translate(-2664.718 -206.442)" fill="#f7f9fa"/>
    </g>
  </g>
</svg>
