<svg xmlns="http://www.w3.org/2000/svg" width="91" height="91" viewBox="0 0 91 91">
  <g id="Grupo_110673" data-name="Grupo 110673" transform="translate(-180 -851)">
    <rect id="Rectángulo_36182" data-name="Rectángulo 36182" width="91" height="91" transform="translate(180 851)" fill="#ff6148"/>
    <g id="Grupo_108629" data-name="Grupo 108629" transform="translate(199.064 868.225)">
      <path id="Trazado_165735" data-name="Trazado 165735" d="M2907.395,130.811a24.048,24.048,0,0,1-.331-2.626.991.991,0,0,0,.624-1.246,4.119,4.119,0,0,1-.06-.548c-.215-3.733-.062-7.47-.11-11.205a.628.628,0,0,1,.647-.717,10.38,10.38,0,0,0,2.307-.516c3.809-1.371,6.34-3.893,7.116-7.968.106-.557.393-.694.917-.693q12.145.018,24.291.01c.165,0,.329.021.493.032a9.875,9.875,0,0,0,.775,3.226c.123.336.374.639.307,1.033-.135-.238-.277-.472-.4-.715a2.488,2.488,0,0,0-2.344-1.459q-10.045,0-20.091,0a2.422,2.422,0,0,0-2.31,1.42,14.4,14.4,0,0,1-7.679,7.088,2.475,2.475,0,0,0-1.672,2.426c0,2.648-.1,5.3.152,7.942a34.07,34.07,0,0,0,5.529,15.68,39.392,39.392,0,0,0,14.481,13.115,2.949,2.949,0,0,0,3.073.018,42.988,42.988,0,0,0,7.064-4.779,36.592,36.592,0,0,0,11.454-16.684,41.479,41.479,0,0,0,1.372-5.78c.208.175.137.419.111.62-.127.977-.258,1.956-.433,2.925a36.931,36.931,0,0,1-5.338,13.462,37.713,37.713,0,0,1-3.529,4.7,25.171,25.171,0,0,1-3,3.066c-.323.258-.742.5-.811.989l0,0c-.265-.043-.451.021-.452.335a1.073,1.073,0,0,1-.114.115,52.861,52.861,0,0,1-7.481,4.424.766.766,0,0,1-.781-.024c-.5-.273-1.007-.53-1.511-.793-10.825-5.657-18.247-14.084-21.239-26.112A.858.858,0,0,0,2907.395,130.811Z" transform="translate(-2905.904 -103.678)" fill="#dfe2e5"/>
      <path id="Trazado_165736" data-name="Trazado 165736" d="M2939.232,99.654c-.164-.011-.329-.032-.493-.032q-12.145,0-24.291-.01c-.523,0-.81.136-.916.693-.776,4.074-3.307,6.6-7.116,7.968a10.378,10.378,0,0,1-2.307.516.628.628,0,0,0-.647.717c.048,3.735-.1,7.472.11,11.205a4.16,4.16,0,0,0,.06.548.991.991,0,0,1-.624,1.246c-.744-.1-.933-.312-.988-1.064-.3-4.044-.114-8.093-.141-12.14a2.04,2.04,0,0,1,1.937-2.1,9.99,9.99,0,0,0,4.733-1.8,8.176,8.176,0,0,0,3.419-5.453A2.174,2.174,0,0,1,2914.256,98q13.275,0,26.55,0a2.117,2.117,0,0,1,2.253,1.849,8.869,8.869,0,0,0,7.317,7.212c.379.072.764.113,1.14.2a1.979,1.979,0,0,1,1.644,1.889c0,4.139.164,8.28-.135,12.415a.862.862,0,0,1-.863.892c-.647-.2-.816-.461-.748-1.136.029-.293.06-.586.076-.879.2-3.512.058-7.027.1-10.541.011-.994-.024-1.024-1.02-1.17a11.066,11.066,0,0,1-5.139-2.118,9.616,9.616,0,0,1-3.9-6.246c-.094-.56-.35-.8-.923-.751C2940.152,99.657,2939.691,99.644,2939.232,99.654Z" transform="translate(-2901.848 -97.999)" fill="#040404"/>
      <path id="Trazado_165737" data-name="Trazado 165737" d="M2906.519,220.588a.858.858,0,0,1,1.025.753c2.991,12.028,10.414,20.455,21.238,26.112.5.264,1.012.52,1.51.793a.766.766,0,0,0,.781.024,52.832,52.832,0,0,0,7.481-4.424,1.029,1.029,0,0,0,.114-.115.853.853,0,0,0,.452-.335l0,0a25.8,25.8,0,0,0,3.4-2.783,37.673,37.673,0,0,0,11.3-19.084c.177-.74.365-.892,1.077-.913.585.266.64.717.5,1.285a39.938,39.938,0,0,1-14.949,22.564,54.211,54.211,0,0,1-8.7,5.271,2.136,2.136,0,0,1-2.013.027,47.974,47.974,0,0,1-13.231-9.219,39.341,39.341,0,0,1-10.489-18.689C2905.837,221.147,2905.931,220.916,2906.519,220.588Z" transform="translate(-2905.028 -193.454)" fill="#040404"/>
      <path id="Trazado_165738" data-name="Trazado 165738" d="M3071.673,130.83c-.712.021-.9.173-1.077.913a37.673,37.673,0,0,1-11.3,19.083,25.815,25.815,0,0,1-3.4,2.783c.069-.493.489-.73.811-.989a25.169,25.169,0,0,0,3-3.066,37.713,37.713,0,0,0,3.529-4.7,36.931,36.931,0,0,0,5.338-13.462c.175-.97.305-1.948.433-2.925.026-.2.1-.445-.111-.62l.019-.22c.243-.066.212-.153.02-.253l.1-.743c.013-.009.039-.022.037-.027a.485.485,0,0,0-.033-.076c0-.127,0-.255.007-.382a63.453,63.453,0,0,0,.058-8.709c.01-.439.031-.879.026-1.318a1.2,1.2,0,0,0-1.01-1.19c-.34-.064-.682-.112-1.02-.185a9.051,9.051,0,0,1-4.756-2.669c-.216-.226-.373-.568-.769-.56l-.072-.1c.016-.2-.02-.364-.279-.346l-.054-.093c0-.173.026-.36-.242-.342l.01.01c.022-.179.038-.354-.227-.344l.009.01c.012-.27.011-.532-.354-.567-.083-.03-.09-.1-.094-.173.067-.394-.184-.7-.307-1.033a9.87,9.87,0,0,1-.775-3.226c.459-.011.92,0,1.375-.039.573-.052.828.19.923.751a9.618,9.618,0,0,0,3.9,6.246,11.068,11.068,0,0,0,5.14,2.118c1,.146,1.031.175,1.02,1.17-.039,3.514.1,7.029-.1,10.541-.017.293-.047.586-.076.879-.068.675.1.934.748,1.136Z" transform="translate(-3021.809 -103.665)" fill="#c8c8c9"/>
      <path id="Trazado_165739" data-name="Trazado 165739" d="M2962.856,135.118l-.018.22a41.582,41.582,0,0,1-1.371,5.78,36.6,36.6,0,0,1-11.455,16.684,42.987,42.987,0,0,1-7.064,4.779,2.949,2.949,0,0,1-3.073-.018,39.388,39.388,0,0,1-14.481-13.115,34.07,34.07,0,0,1-5.53-15.68c-.248-2.645-.151-5.295-.152-7.942a2.475,2.475,0,0,1,1.672-2.426,14.4,14.4,0,0,0,7.679-7.088,2.423,2.423,0,0,1,2.31-1.42q10.045,0,20.09,0a2.488,2.488,0,0,1,2.344,1.459c.126.243.268.477.4.715,0,.073.011.143.094.173a1.566,1.566,0,0,0,.353.567l-.009-.01a.632.632,0,0,0,.227.344l-.01-.01.242.342.054.093.279.346.071.1a13.575,13.575,0,0,0,5.509,4.182,3.593,3.593,0,0,1,2.02,1.739,63.491,63.491,0,0,1-.058,8.709c-.01.127,0,.255-.007.382a.114.114,0,0,0,0,.1q-.048.371-.1.743Zm-15.78,22.9a3.005,3.005,0,0,0,.282-.168,36.135,36.135,0,0,0,10.076-11.491,32.284,32.284,0,0,0,4-13.363c.173-2.353.053-4.709.1-7.064a1.028,1.028,0,0,0-.707-1.064,16.069,16.069,0,0,1-2.081-1.012,15.537,15.537,0,0,1-6.28-6.633,1.1,1.1,0,0,0-1-.741c-.7-.006-1.4.02-2.094.032-2.648-.068-5.3-.052-7.946-.008q-5.023-.013-10.046-.022a1.013,1.013,0,0,0-.936.655,15.765,15.765,0,0,1-8.371,7.708,1.1,1.1,0,0,0-.749,1.148c.02,1.656,0,3.313.012,4.969a31.587,31.587,0,0,0,3.02,13.286,36.8,36.8,0,0,0,16.5,16.993.778.778,0,0,0,.573.146.714.714,0,0,0,.523-.12A34.99,34.99,0,0,0,2947.076,158.022Z" transform="translate(-2915.746 -111.151)" fill="#030303"/>
      <path id="Trazado_165740" data-name="Trazado 165740" d="M3054.319,323.644a.856.856,0,0,1-.452.335C3053.869,323.665,3054.054,323.6,3054.319,323.644Z" transform="translate(-3020.227 -273.702)" fill="#c8c8c9"/>
      <path id="Trazado_165741" data-name="Trazado 165741" d="M3089.083,139.415a3.592,3.592,0,0,0-2.02-1.739,13.57,13.57,0,0,1-5.508-4.182c.4-.008.553.334.769.56a9.05,9.05,0,0,0,4.756,2.669c.338.072.68.121,1.02.185a1.2,1.2,0,0,1,1.01,1.19C3089.115,138.536,3089.093,138.976,3089.083,139.415Z" transform="translate(-3041.788 -125.639)" fill="#dfe2e5"/>
      <path id="Trazado_165742" data-name="Trazado 165742" d="M3076.451,126.071a1.574,1.574,0,0,1-.354-.567C3076.463,125.539,3076.464,125.8,3076.451,126.071Z" transform="translate(-3037.538 -119.417)" fill="#dfe2e5"/>
      <path id="Trazado_165743" data-name="Trazado 165743" d="M3077.881,128.362a.632.632,0,0,1-.227-.344C3077.919,128.008,3077.9,128.183,3077.881,128.362Z" transform="translate(-3038.75 -121.375)" fill="#dfe2e5"/>
      <path id="Trazado_165744" data-name="Trazado 165744" d="M3078.88,129.867l-.242-.342C3078.906,129.507,3078.883,129.694,3078.88,129.867Z" transform="translate(-3039.517 -122.548)" fill="#dfe2e5"/>
      <path id="Trazado_165745" data-name="Trazado 165745" d="M3080.251,131.834l-.278-.346C3080.232,131.47,3080.268,131.631,3080.251,131.834Z" transform="translate(-3040.556 -124.076)" fill="#dfe2e5"/>
      <path id="Trazado_165746" data-name="Trazado 165746" d="M3114.74,205.413l.02-.253C3114.952,205.26,3114.983,205.347,3114.74,205.413Z" transform="translate(-3067.629 -181.446)" fill="#dfe2e5"/>
      <path id="Trazado_165747" data-name="Trazado 165747" d="M3115.226,201.439a.114.114,0,0,1,0-.1.487.487,0,0,1,.033.076C3115.265,201.417,3115.24,201.43,3115.226,201.439Z" transform="translate(-3068 -178.469)" fill="#dfe2e5"/>
      <path id="Trazado_165748" data-name="Trazado 165748" d="M2947.128,167.024a.778.778,0,0,1-.573-.146,36.8,36.8,0,0,1-16.5-16.993,31.587,31.587,0,0,1-3.02-13.286c-.014-1.656.008-3.313-.011-4.969a1.1,1.1,0,0,1,.749-1.148,15.763,15.763,0,0,0,8.371-7.708,1.013,1.013,0,0,1,.936-.655q5.023,0,10.046.022,0,1.5,0,3.01c-.055.007-.109.017-.164.019a7.843,7.843,0,0,0-7.5,6.246,20.335,20.335,0,0,0-.169,4.126c-.021,1.314,0,1.315-1.288,1.333l-.11,0a2.51,2.51,0,0,0-2.471,2.469q-.027,5.851,0,11.7a2.491,2.491,0,0,0,2.16,2.42,14.769,14.769,0,0,0,2.094.047c2.483.017,4.966.022,7.449.032Q2947.129,160.286,2947.128,167.024Z" transform="translate(-2921.451 -116.781)" fill="#71cc98"/>
      <path id="Trazado_165749" data-name="Trazado 165749" d="M3017.865,125.092q0-1.5,0-3.01c2.648-.044,5.3-.06,7.946.008.192.355.391.705.574,1.064a15.271,15.271,0,0,0,8.124,7.452,1.61,1.61,0,0,1,1.055,1.167,1.566,1.566,0,0,1,.081.373c-.015,3.665.162,7.337-.546,10.97a34.262,34.262,0,0,1-4.8,12.037,42.723,42.723,0,0,1-6.383,7.824c-.175.168-.445.3-.4.616a34.976,34.976,0,0,1-5.13,3.253.714.714,0,0,1-.523.119q0-6.738,0-13.476c.2-.009.4-.026.6-.026,2.8,0,5.592,0,8.388,0a2.561,2.561,0,0,0,2.783-2.574q.045-5.74,0-11.48a2.533,2.533,0,0,0-2.644-2.589,6.95,6.95,0,0,0-.772,0c-.365.036-.474-.1-.467-.466.021-1.067.01-2.134.006-3.2a7.715,7.715,0,0,0-.693-3.374A7.813,7.813,0,0,0,3017.865,125.092Z" transform="translate(-2992.189 -116.723)" fill="#5db39e"/>
      <path id="Trazado_165750" data-name="Trazado 165750" d="M3043.411,163.64c-.047-.32.223-.448.4-.616a42.763,42.763,0,0,0,6.383-7.824,34.27,34.27,0,0,0,4.8-12.037c.708-3.633.531-7.3.546-10.97a1.566,1.566,0,0,0-.082-.373,1.608,1.608,0,0,0-1.055-1.167,15.266,15.266,0,0,1-8.124-7.452c-.184-.359-.382-.709-.574-1.064.7-.012,1.4-.038,2.093-.032a1.1,1.1,0,0,1,1,.741,15.536,15.536,0,0,0,6.28,6.633,16.078,16.078,0,0,0,2.081,1.012,1.028,1.028,0,0,1,.708,1.064c-.044,2.354.076,4.71-.1,7.064a32.281,32.281,0,0,1-4,13.363,36.129,36.129,0,0,1-10.076,11.491A2.914,2.914,0,0,1,3043.411,163.64Z" transform="translate(-3012.08 -116.769)" fill="#46928d"/>
      <path id="Trazado_165751" data-name="Trazado 165751" d="M2976.66,135.816a7.813,7.813,0,0,1,7.212,4.688,7.719,7.719,0,0,1,.693,3.374c0,1.067.015,2.135-.006,3.2-.007.362.1.5.467.466a6.965,6.965,0,0,1,.772,0,2.533,2.533,0,0,1,2.643,2.589q.038,5.74,0,11.48a2.561,2.561,0,0,1-2.783,2.574c-2.8.008-5.592,0-8.388,0-.2,0-.4.017-.6.026-2.483-.01-4.966-.015-7.449-.032a14.765,14.765,0,0,1-2.094-.047,2.491,2.491,0,0,1-2.16-2.42q-.025-5.851,0-11.7a2.51,2.51,0,0,1,2.471-2.469l.11,0c1.283-.018,1.267-.019,1.288-1.333a20.353,20.353,0,0,1,.169-4.126,7.843,7.843,0,0,1,7.5-6.246C2976.552,135.833,2976.606,135.823,2976.66,135.816Zm-6.076,11.707,6.076,0q2.977.011,5.955.023c.216,0,.347-.041.338-.3a41.884,41.884,0,0,0-.11-4.625,6.245,6.245,0,0,0-12.247-.227,26.521,26.521,0,0,0-.115,5.051C2970.477,147.519,2970.518,147.537,2970.584,147.523Zm13.693,15.024c.515.007,1.03.032,1.544.018a.951.951,0,0,0,1-1.017q.011-5.714,0-11.428a.865.865,0,0,0-.933-.935c-.533-.015-1.066,0-1.6.009-.219-.022-.438-.063-.658-.064q-7.892-.005-15.784,0c-.975,0-1.26.315-1.261,1.31q0,5.409,0,10.818c0,1.032.277,1.31,1.3,1.31q7.919,0,15.839,0C2983.91,162.568,2984.093,162.554,2984.277,162.547Z" transform="translate(-2950.984 -127.448)" fill="#020303"/>
      <path id="Trazado_165752" data-name="Trazado 165752" d="M2990.027,209.387c-.184.007-.367.021-.551.021q-7.92,0-15.84,0c-1.027,0-1.3-.278-1.3-1.31q0-5.409,0-10.818c0-.995.287-1.308,1.261-1.31q7.892-.01,15.784,0c.219,0,.439.042.658.064a7.489,7.489,0,0,1,.223,1.9q-.02,4.5,0,9A9.235,9.235,0,0,1,2990.027,209.387Zm-8.389-4.571c0,.294-.006.588,0,.882.014.56.343.938.8.933a.869.869,0,0,0,.825-.929c.019-.458.021-.919,0-1.378a1.277,1.277,0,0,1,.476-1.18,1.838,1.838,0,0,0,.037-2.658,1.889,1.889,0,0,0-2.713.055,1.841,1.841,0,0,0,.153,2.694.934.934,0,0,1,.423.919C2981.621,204.373,2981.638,204.6,2981.639,204.815Z" transform="translate(-2956.735 -174.287)" fill="#636973"/>
      <path id="Trazado_165753" data-name="Trazado 165753" d="M3017.88,143.327a6.17,6.17,0,0,1,6.178,5.138,41.884,41.884,0,0,1,.109,4.625c.009.258-.122.3-.338.3q-2.978-.017-5.955-.023Q3017.878,148.346,3017.88,143.327Z" transform="translate(-2992.199 -133.294)" fill="#5db29d"/>
      <path id="Trazado_165754" data-name="Trazado 165754" d="M2995.913,143.331l-.005,10.039-6.076,0-.1-.08a26.541,26.541,0,0,1,.115-5.051A6.13,6.13,0,0,1,2995.913,143.331Z" transform="translate(-2970.232 -133.297)" fill="#71cc98"/>
      <path id="Trazado_165755" data-name="Trazado 165755" d="M3052.3,209.572a9.225,9.225,0,0,0,.23-2.454q-.018-4.5,0-9a7.5,7.5,0,0,0-.223-1.9c.533,0,1.067-.024,1.6-.01a.865.865,0,0,1,.933.935q.012,5.714,0,11.428a.95.95,0,0,1-1,1.017C3053.327,209.6,3052.812,209.579,3052.3,209.572Z" transform="translate(-3019.004 -174.473)" fill="#505762"/>
      <path id="Trazado_165756" data-name="Trazado 165756" d="M2989.956,188.356l.1.08C2989.992,188.45,2989.951,188.433,2989.956,188.356Z" transform="translate(-2970.458 -168.361)" fill="#5db29d"/>
      <path id="Trazado_165757" data-name="Trazado 165757" d="M3010.571,218.794c0-.22-.018-.443,0-.661a.934.934,0,0,0-.423-.919,1.841,1.841,0,0,1-.153-2.694,1.888,1.888,0,0,1,2.712-.055,1.838,1.838,0,0,1-.037,2.658,1.277,1.277,0,0,0-.476,1.18c.021.458.019.919,0,1.378a.868.868,0,0,1-.825.928c-.457.005-.785-.373-.8-.933C3010.565,219.382,3010.572,219.088,3010.571,218.794Z" transform="translate(-2985.667 -188.266)" fill="#020202"/>
    </g>
  </g>
</svg>
