<svg xmlns="http://www.w3.org/2000/svg" width="91" height="91" viewBox="0 0 91 91">
  <g id="Grupo_110671" data-name="Grupo 110671" transform="translate(-810 -746)">
    <rect id="Rectángulo_36172" data-name="Rectángulo 36172" width="91" height="91" transform="translate(810 746)" fill="#ff6148"/>
    <g id="Grupo_108627" data-name="Grupo 108627" transform="translate(827 771.282)">
      <path id="Trazado_165686" data-name="Trazado 165686" d="M3264.418-263.085c.687.226.8.388.8,1.15,0,1.269,0,2.538,0,3.807a1.722,1.722,0,0,1-1.893,1.871q-5,0-9.991,0a1.735,1.735,0,0,1-1.923-1.951c0-2.225-.009-4.451.008-6.676,0-.371-.071-.494-.472-.491q-4.14.029-8.28,0c-.393,0-.5.113-.486.495.029.771.022,1.545,0,2.317-.008.32.105.414.412.4.5-.021.994-.012,1.49,0,.614.011.961.314.962.819s-.344.824-.958.834c-1.049.016-2.1.005-3.146.005q-5.409,0-10.819,0a3.55,3.55,0,0,1-.6-.034.752.752,0,0,1-.68-.855.73.73,0,0,1,.732-.753c.568-.033,1.14-.027,1.71-.011.3.009.425-.071.417-.4-.021-.809-.023-1.619,0-2.428.01-.341-.137-.389-.424-.384-.865.014-1.731.028-2.594-.006-.4-.015-.476.116-.474.489.016,2.722.009,5.444.009,8.166a2.313,2.313,0,0,1-2.608,2.615q-7.176.007-14.352,0a2.3,2.3,0,0,1-2.59-2.576c0-.589,0-1.177,0-1.766,0-.7.166-.9.843-1.077a.913.913,0,0,1,.819,1.048c-.019.55,0,1.1,0,1.651,0,.954.11,1.064,1.083,1.064q6.029,0,12.059,0c.182,0,.364-.026.545-.04a8.9,8.9,0,0,0,1.54.039c.877.008,1.009-.136,1.009-1.03q0-12.6,0-25.208c0-.129,0-.258,0-.386a.574.574,0,0,0-.611-.633c-.642-.005-1.285.015-1.927.025-.183-.011-.366-.031-.549-.031q-6.071,0-12.142,0c-.906,0-1,.1-1,1.021q0,9.738.008,19.476c0,.624-.2,1.027-.819,1.179-.736-.248-.848-.4-.848-1.2q0-9.82,0-19.64a2.267,2.267,0,0,1,2.489-2.5c1.38,0,2.76-.015,4.139.009.37.006.45-.107.448-.458-.015-2.538-.01-5.076-.007-7.613a2.994,2.994,0,0,1,3.211-3.2q15.923,0,31.845,0c.771,0,.92.111,1.156.826-.25.734-.407.835-1.329.835H3219.1c-1.246,0-1.7.453-1.7,1.692q0,3.367,0,6.733c0,1.184,0,1.159,1.166,1.183.446.009.5-.155.5-.536-.017-2.024-.008-4.047-.008-6.071,0-1.177.169-1.349,1.326-1.349q16.812,0,33.624,0c.238,0,.476-.019.715-.03.74.184.893.376.893,1.146q0,5.815,0,11.631c0,1.27,0,1.258,1.274,1.233.323-.006.392-.109.392-.411-.009-4.593,0-9.187-.009-13.78a1.335,1.335,0,0,0-1.391-1.447c-.495-.024-.992-.013-1.488-.017a.991.991,0,0,1-.66-.817.948.948,0,0,1,1.111-.823c.348.023.7,0,1.049.005a2.983,2.983,0,0,1,3.036,3.1q.01,6.813-.009,13.626c0,.452.095.583.562.57,1.286-.037,2.575-.018,3.863-.011a1.743,1.743,0,0,1,1.882,1.894c0,3.623,0,7.245.006,10.868,0,.574-.184.963-.785,1.074-.675-.126-.87-.353-.878-1.03,0-.22,0-.441,0-.661,0-3.324-.007-6.648.01-9.971,0-.4-.088-.553-.514-.525-.64.042-1.284.024-1.927.032-2.5-.008-5,0-7.5-.034-.463-.006-.573.126-.572.578q.023,8.985.01,17.971a1.742,1.742,0,0,1,0,.22c-.034.266.082.345.343.343,2.573-.015,5.146-.019,7.719-.027.64.007,1.281-.008,1.918.03.4.024.535-.081.523-.506-.031-1.206-.013-2.413-.01-3.619C3263.566-262.718,3263.729-262.913,3264.418-263.085Zm-26.382.886c.729.095,1.46.019,2.19.044.238.008.323-.1.321-.331-.005-.841-.007-1.683,0-2.524,0-.257-.1-.359-.356-.352-.712.018-1.425.021-2.138.03-1.447-.009-2.895-.015-4.341-.031-.259,0-.355.09-.352.35q.015,1.237,0,2.474c0,.244.063.378.335.375C3235.143-262.181,3236.589-262.189,3238.036-262.2Zm-.648-28.78q-8.087,0-16.174-.01c-.407,0-.521.087-.515.507.026,1.784.022,3.568,0,5.352,0,.371.109.453.46.448,1.49-.019,2.981-.009,4.471-.008a2.289,2.289,0,0,1,2.588,2.567c0,3.771.006,7.541-.009,11.312,0,.383.094.483.482.483q11.123-.018,22.246,0c.384,0,.488-.093.484-.48-.021-1.931-.01-3.863-.01-5.794,0-1.414.637-2.077,2.042-2.056.415.006.511-.1.509-.51q-.026-5.628,0-11.257c0-.463-.113-.567-.57-.565C3248.06-290.973,3242.724-290.98,3237.388-290.98Zm2.43,23.96h10.546c1.052,0,1.026,0,1.063-1.069.017-.477-.1-.61-.595-.609q-10.767.027-21.534.012c-1.081,0-1.059,0-1.089,1.094-.013.449.095.585.566.583C3232.456-267.029,3236.137-267.02,3239.818-267.02Z" transform="translate(-3208.669 295.96)" fill="#030404"/>
      <path id="Trazado_165687" data-name="Trazado 165687" d="M3226.987-210.3c-.182.014-.364.04-.545.04q-6.029,0-12.059,0c-.972,0-1.083-.111-1.083-1.064,0-.55-.015-1.1,0-1.651a.914.914,0,0,0-.819-1.048l0-1.828c.621-.152.82-.555.819-1.179q-.021-9.738-.008-19.476c0-.92.1-1.021,1-1.021q6.071,0,12.142,0c.183,0,.365.021.548.031q0,4.763,0,9.526c0,.225.1.486-.146.662a1.1,1.1,0,0,0-1-.452c-.569.019-1.14.023-1.71,0a1.021,1.021,0,0,0-1.159.785c-.119.391-.3.764-.491,1.259a3.605,3.605,0,0,1-.1-.378c-.2-1.6-.392-3.208-.577-4.813-.059-.506-.172-.969-.77-1.048-.569-.075-.806.313-.985.774-.418,1.076-.856,2.145-1.269,3.224a.49.49,0,0,1-.559.39c-.439-.031-.882-.017-1.323,0a.842.842,0,0,0-.92.814.855.855,0,0,0,.912.835c.735.017,1.47.007,2.206,0a.894.894,0,0,0,.893-.608c.14-.351.283-.7.438-1.088a.713.713,0,0,1,.164.513q.292,2.406.583,4.812c.058.48.252.863.786.913.506.048.759-.279.922-.709q.547-1.44,1.1-2.875c.438-1.138.439-1.147,1.678-1.134.475,0,.924,0,1.208-.469.165.116.127.293.127.453Q3226.992-218.2,3226.987-210.3Zm-5.57-1.767c.865,0,1.73.005,2.594,0,.614,0,.976-.3.992-.794.017-.516-.361-.858-.992-.86q-2.595-.011-5.189,0c-.632,0-1.009.344-.992.86.016.493.376.789.992.794C3219.687-212.059,3220.552-212.064,3221.417-212.064Z" transform="translate(-3211.64 250.454)" fill="#f5c94e"/>
      <path id="Trazado_165688" data-name="Trazado 165688" d="M3284.442-292.221a.991.991,0,0,0,.66.817,2.7,2.7,0,0,1,.328,1.647c-.238.01-.477.03-.714.03q-16.812,0-33.625,0c-1.157,0-1.326.172-1.326,1.349,0,2.024-.009,4.047.008,6.071,0,.382-.051.546-.5.536-1.166-.024-1.166,0-1.166-1.183q0-3.367,0-6.733c0-1.239.453-1.692,1.7-1.692h31.526c.922,0,1.08-.1,1.329-.835Z" transform="translate(-3239.382 293.048)" fill="#8d9ff6"/>
      <path id="Trazado_165689" data-name="Trazado 165689" d="M3449.034-196.454c-.689.172-.852.367-.854,1.054,0,1.206-.021,2.414.01,3.619.011.425-.123.53-.523.506-.638-.038-1.278-.023-1.918-.03q0-9.526,0-19.053c.643-.008,1.287.011,1.927-.032.426-.028.516.122.514.525-.016,3.324-.01,6.648-.01,9.971,0,.22,0,.441,0,.661.008.677.2.9.878,1.03Q3449.046-197.328,3449.034-196.454Z" transform="translate(-3393.285 229.328)" fill="#d84971"/>
      <path id="Trazado_165690" data-name="Trazado 165690" d="M3279.721-273.5c5.336,0,10.672.006,16.008-.011.457,0,.572.1.57.565q-.032,5.628,0,11.257c0,.411-.094.517-.509.511-1.4-.021-2.042.642-2.042,2.056,0,1.931-.011,3.863.009,5.794,0,.387-.1.481-.484.48q-11.123-.018-22.246,0c-.388,0-.483-.1-.481-.483.015-3.771.009-7.541.009-11.312a2.29,2.29,0,0,0-2.588-2.567c-1.491,0-2.981-.011-4.472.008-.351,0-.464-.078-.46-.448.021-1.784.024-3.568,0-5.352-.006-.421.108-.508.515-.507Q3271.634-273.484,3279.721-273.5Zm-.417,1.762c-.919,0-1.838-.009-2.757,0a1.259,1.259,0,0,0-1.41,1.393q-.026,2.728,0,5.456a1.266,1.266,0,0,0,1.385,1.426q2.757.036,5.513,0a1.268,1.268,0,0,0,1.383-1.429q.023-2.728,0-5.456a1.26,1.26,0,0,0-1.413-1.391C3281.1-271.743,3280.2-271.734,3279.3-271.734Zm.031,10.209h-1.656c-1.637,0-3.274,0-4.912,0a.825.825,0,0,0-.893.583.783.783,0,0,0,.268.891,1.127,1.127,0,0,0,.785.185q4.691,0,9.382,0c1.159,0,2.318.006,3.477,0a.828.828,0,0,0,.935-.85c-.014-.5-.373-.8-.984-.8Q3282.536-261.529,3279.335-261.525Zm-.087,5.189q3.2,0,6.4,0c.691,0,1.072-.3,1.074-.826s-.38-.829-1.07-.829q-6.374,0-12.749,0c-.692,0-1.072.3-1.073.825s.38.829,1.07.829Q3276.075-256.334,3279.248-256.336Z" transform="translate(-3251.001 278.476)" fill="#c7f5fc"/>
      <path id="Trazado_165691" data-name="Trazado 165691" d="M3417.351-210.354q0,9.526,0,19.053c-2.573.007-5.146.012-7.719.027-.261,0-.376-.078-.342-.343a1.789,1.789,0,0,0,0-.22q0-8.985-.01-17.971c0-.452.108-.584.571-.578C3412.353-210.357,3414.852-210.362,3417.351-210.354Zm-2.865.908v0h-.993c-.037,0-.074,0-.11,0a.836.836,0,0,0-.831.795.786.786,0,0,0,.768.843,23.092,23.092,0,0,0,2.312,0,.781.781,0,0,0,.774-.835.81.81,0,0,0-.819-.8C3415.222-209.465,3414.854-209.446,3414.486-209.446Z" transform="translate(-3364.889 229.324)" fill="#ea507a"/>
      <path id="Trazado_165692" data-name="Trazado 165692" d="M3277.52-210.272q0-7.9.008-15.806c0-.16.039-.337-.127-.453a1.754,1.754,0,0,0-.022-.746c.244-.176.146-.437.146-.662q.009-4.763,0-9.526c.643-.01,1.285-.03,1.928-.025a.574.574,0,0,1,.611.633c.005.129,0,.257,0,.386v25.208c0,.894-.132,1.038-1.009,1.03A8.894,8.894,0,0,1,3277.52-210.272Z" transform="translate(-3262.174 250.429)" fill="#f0b33e"/>
      <path id="Trazado_165693" data-name="Trazado 165693" d="M3308.574-171.082c-3.681,0-7.362-.01-11.043.012-.471,0-.579-.133-.566-.583.031-1.093.008-1.094,1.089-1.094q10.767,0,21.534-.012c.5,0,.612.132.6.609-.037,1.068-.01,1.069-1.063,1.069Z" transform="translate(-3277.425 200.022)" fill="#899aef"/>
      <path id="Trazado_165694" data-name="Trazado 165694" d="M3415.6-286.88a2.7,2.7,0,0,0-.328-1.647c.5,0,.993-.007,1.488.017a1.334,1.334,0,0,1,1.391,1.447c.006,4.594,0,9.187.009,13.78,0,.3-.069.4-.392.411-1.274.025-1.274.038-1.274-1.233q0-5.815,0-11.631C3416.5-286.5,3416.345-286.7,3415.6-286.88Z" transform="translate(-3369.557 290.172)" fill="#7083d8"/>
      <path id="Trazado_165695" data-name="Trazado 165695" d="M3324.927-154.534c-1.446.011-2.893.019-4.339.035-.273,0-.338-.131-.335-.375q.013-1.237,0-2.474c0-.26.093-.353.352-.35,1.447.017,2.894.022,4.341.031Q3324.936-156.1,3324.927-154.534Z" transform="translate(-3295.56 188.294)" fill="#7589e5"/>
      <path id="Trazado_165696" data-name="Trazado 165696" d="M3341.379-154.532q.009-1.566.018-3.133c.713-.009,1.426-.012,2.138-.03.259-.007.359.095.356.352-.008.841-.006,1.683,0,2.524,0,.227-.083.339-.321.331C3342.839-154.513,3342.108-154.437,3341.379-154.532Z" transform="translate(-3312.012 188.292)" fill="#5e70c2"/>
      <path id="Trazado_165697" data-name="Trazado 165697" d="M3239.13-207.723a1.761,1.761,0,0,1,.023.746c-.284.464-.732.474-1.208.469-1.239-.013-1.24,0-1.677,1.134q-.553,1.437-1.1,2.875c-.163.43-.416.757-.922.709-.534-.051-.728-.434-.786-.913q-.292-2.406-.583-4.812a.712.712,0,0,0-.164-.513c-.156.387-.3.737-.438,1.088a.894.894,0,0,1-.893.608c-.735,0-1.471.013-2.206,0a.855.855,0,0,1-.912-.835.842.842,0,0,1,.92-.814c.441-.013.884-.027,1.323,0a.49.49,0,0,0,.559-.39c.413-1.078.851-2.147,1.269-3.224.179-.46.416-.849.985-.774.6.079.712.542.77,1.048.185,1.605.382,3.209.577,4.813a3.564,3.564,0,0,0,.1.378c.2-.5.372-.869.491-1.259a1.022,1.022,0,0,1,1.159-.785c.569.024,1.14.019,1.71,0A1.1,1.1,0,0,1,3239.13-207.723Z" transform="translate(-3223.926 230.875)" fill="#040401"/>
      <path id="Trazado_165698" data-name="Trazado 165698" d="M3240.225-128.32c-.865,0-1.73.005-2.594,0-.616,0-.977-.3-.992-.794-.017-.517.36-.858.992-.86q2.594-.011,5.189,0c.631,0,1.01.344.993.86-.016.491-.378.789-.992.794C3241.954-128.315,3241.089-128.32,3240.225-128.32Z" transform="translate(-3230.448 166.71)" fill="#040401"/>
      <path id="Trazado_165699" data-name="Trazado 165699" d="M3321.865-265.506c.9,0,1.8-.009,2.7,0a1.259,1.259,0,0,1,1.412,1.391q.027,2.728,0,5.456a1.268,1.268,0,0,1-1.383,1.429q-2.756.036-5.513,0a1.266,1.266,0,0,1-1.385-1.426q-.023-2.728,0-5.456a1.259,1.259,0,0,1,1.409-1.393C3320.027-265.516,3320.946-265.506,3321.865-265.506Zm-.036,6.629c.7,0,1.4-.014,2.1.006.321.009.408-.109.405-.415-.013-1.4-.009-2.8,0-4.194,0-.238-.04-.376-.328-.374q-2.153.016-4.307,0c-.266,0-.349.095-.348.354q.014,2.125,0,4.25c0,.292.1.384.385.378C3320.43-258.887,3321.129-258.877,3321.829-258.877Z" transform="translate(-3293.562 272.248)" fill="#070707"/>
      <path id="Trazado_165700" data-name="Trazado 165700" d="M3310.3-219.365q3.2,0,6.4,0c.611,0,.97.3.984.8a.828.828,0,0,1-.935.85c-1.159.009-2.318,0-3.477,0q-4.692,0-9.383,0a1.128,1.128,0,0,1-.785-.185.783.783,0,0,1-.268-.891.824.824,0,0,1,.893-.583c1.637,0,3.274,0,4.912,0Z" transform="translate(-3281.969 236.316)" fill="#010101"/>
      <path id="Trazado_165701" data-name="Trazado 165701" d="M3310.218-201.739q-3.173,0-6.347,0c-.69,0-1.071-.3-1.07-.829s.381-.825,1.073-.825q6.375,0,12.749,0c.69,0,1.072.3,1.07.829s-.383.825-1.074.826Q3313.419-201.737,3310.218-201.739Z" transform="translate(-3281.971 223.879)" fill="#010101"/>
      <path id="Trazado_165702" data-name="Trazado 165702" d="M3425.994-206.159c.367,0,.736-.019,1.1,0a.81.81,0,0,1,.819.8.781.781,0,0,1-.774.835,23.092,23.092,0,0,1-2.312,0,.786.786,0,0,1-.768-.843.836.836,0,0,1,.831-.795c.037,0,.073,0,.11,0h.992Z" transform="translate(-3376.396 226.036)" fill="#040401"/>
      <path id="Trazado_165703" data-name="Trazado 165703" d="M3327.669-253.052c-.7,0-1.4-.01-2.1,0-.285.006-.387-.086-.385-.378q.018-2.125,0-4.25c0-.26.083-.356.348-.354q2.154.014,4.307,0c.288,0,.329.136.328.374-.006,1.4-.01,2.8,0,4.194,0,.306-.085.424-.405.415C3329.069-253.065,3328.369-253.052,3327.669-253.052Z" transform="translate(-3299.403 266.423)" fill="#efc34c"/>
    </g>
  </g>
</svg>
