<svg xmlns="http://www.w3.org/2000/svg" width="91" height="91" viewBox="0 0 91 91">
  <g id="Grupo_110670" data-name="Grupo 110670" transform="translate(-495 -746)">
    <rect id="Rectángulo_36170" data-name="Rectángulo 36170" width="91" height="91" transform="translate(495 746)" fill="#ff6148"/>
    <g id="Grupo_108626" data-name="Grupo 108626" transform="translate(512 764)">
      <path id="Trazado_165646" data-name="Trazado 165646" d="M2884.913-256.082c.731.207.888.447.777,1.2a2.809,2.809,0,0,1-2.652,2.388c-3.68.04-7.36.017-11.04.021a1.4,1.4,0,0,1-.753-.3q-2.84-1.8-5.682-3.592a2.537,2.537,0,0,1-.247-4.363,78.1,78.1,0,0,1-11.5-.019,2.547,2.547,0,0,1,1.17,2.246,2.382,2.382,0,0,1-1.2,2.047q-3.021,1.923-6.043,3.844a1.1,1.1,0,0,1-.633.139c-3.532,0-7.065,0-10.6,0a2.877,2.877,0,0,1-3.014-2.916q-.056-2.18,0-4.361a3.884,3.884,0,0,1,3.305-3.894c.363-.068.413-.256.462-.536.062-.356.3-.773.188-1.042s-.58-.4-.889-.6a14.536,14.536,0,0,1-3.324-2.793,6.555,6.555,0,0,1-.137-9.064,1.554,1.554,0,0,0,.394-1.09c-.027-1.14-.012-2.282-.008-3.423a3.935,3.935,0,0,1,3.414-4.2c.268-.056.294-.192.333-.406a6.007,6.007,0,0,1,2.84-4.2c.216-.133.263-.232.149-.473a5.339,5.339,0,0,1-.458-2.47c.033-1.268-.086-2.541.071-3.805a5.067,5.067,0,0,1,5.361-4.422,5.106,5.106,0,0,1,4.686,4.92,32.388,32.388,0,0,1-.081,4.63,1.617,1.617,0,0,1-.046.272c-.125.4-.442.854-.335,1.168s.653.488.968.764a6.176,6.176,0,0,1,2.107,4.4c.027.409.165.457.526.423,1.245-.114,2.493-.193,3.741-.284.78-.057.943.054,1.2.811-.107.657-.553.839-1.151.858a51.283,51.283,0,0,0-6.2.591,38.993,38.993,0,0,0-11.374,3.35,13.815,13.815,0,0,0-4.84,3.581,5.088,5.088,0,0,0,.04,6.939,13.484,13.484,0,0,0,3.213,2.667c.454.291.8.447,1.144-.14a2.136,2.136,0,0,1,.642-.6.743.743,0,0,0,.332-.694c-.012-1.9-.005-3.792-.006-5.688a5.463,5.463,0,0,1,.444-2.256,5.084,5.084,0,0,1,5.575-2.924,5.056,5.056,0,0,1,4.108,4.875c.028,1.988.007,3.976.009,5.964,0,.233-.023.444.219.63a6.07,6.07,0,0,1,2.4,4.872c.011.385.175.466.481.489.715.053,1.43.106,2.145.168a60.506,60.506,0,0,0,11.075-.162c.341-.033.491-.128.509-.526a6.016,6.016,0,0,1,2.477-4.886c.528-.378.771-.662.406-1.266a1.778,1.778,0,0,1-.175-.69,29.528,29.528,0,0,1-.067-4.85,4.98,4.98,0,0,1,4.782-4.68,5.016,5.016,0,0,1,5.246,4.291,32.354,32.354,0,0,1,.078,3.529,6.038,6.038,0,0,1-.477,2.909c-.112.229-.017.326.164.434a5.477,5.477,0,0,1,1.567,1.375.264.264,0,0,0,.412.075,11.6,11.6,0,0,0,4.167-3.622,4.841,4.841,0,0,0-.01-5.6,8.5,8.5,0,0,0-1.762-1.965,23.033,23.033,0,0,0-7.339-3.832,48.037,48.037,0,0,0-12.43-2.311c-.678-.05-.846-.216-.955-.9.224-.664.411-.8,1.079-.754.788.059,1.577.123,2.362.214.337.039.461-.012.488-.4a6.074,6.074,0,0,1,2.935-5.021c.194-.121.237-.206.131-.428a5.437,5.437,0,0,1-.466-2.577,30.469,30.469,0,0,1,.1-4.021,5.046,5.046,0,0,1,6.451-3.919.6.6,0,0,0,.774-.21,3.163,3.163,0,0,1,3.53-1.034,3.147,3.147,0,0,1,2.413,2.833,23.6,23.6,0,0,1,.056,2.425c.006,2.281-.009,4.563.007,6.844a3.8,3.8,0,0,1-.894,2.756.3.3,0,0,0-.078.391.171.171,0,0,1,.015.053,1.883,1.883,0,0,0,1.53,1.792,3.676,3.676,0,0,1,2.51,3.759c.016,1.251.012,2.5,0,3.753a1.141,1.141,0,0,0,.291.795,7.119,7.119,0,0,1,1.849,4.55,6.935,6.935,0,0,1-1.822,4.556,14.386,14.386,0,0,1-3.916,3.186.574.574,0,0,0-.334.751,1.4,1.4,0,0,0,1.212,1.281,3.832,3.832,0,0,1,2.714,3.58c.038.674-.146.911-.826,1.068-.571-.063-.784-.4-.841-.954a2.32,2.32,0,0,0-2.221-2.281c-.747-.027-1.5.005-2.245.011-1.527-.005-3.055-.037-4.581-.008a2.268,2.268,0,0,0-2.241,2.273c-.03,1.767,0,3.534-.016,5.3,0,.3.1.364.381.362,2.336-.015,4.673-.018,7.01-.025.875.006,1.751.025,2.627.015a1.179,1.179,0,0,0,1.262-1.048A.933.933,0,0,1,2884.913-256.082Zm-10.712-41c1.091-.222,2.181-.451,3.275-.659.286-.054.233-.188.178-.387a3.374,3.374,0,0,0-4.674-2.064,3.453,3.453,0,0,0-1.991,3.536c.032.249.144.259.323.219Q2872.758-296.753,2874.2-297.078Zm-30.814-3.1a3.663,3.663,0,0,0-1.975,3.508c.033.288.184.274.372.233.943-.207,1.884-.42,2.826-.631,1.077-.22,2.154-.447,3.234-.654.265-.051.317-.142.248-.4A3.39,3.39,0,0,0,2843.387-300.179Zm1.324,4.857c-.806.156-1.613.3-2.417.469-.878.183-.879.191-.87,1.1a3.349,3.349,0,0,0,1.883,3.216,3.358,3.358,0,0,0,4.832-2.248,19.593,19.593,0,0,0,.1-3.341Zm28.375,4.87a3.347,3.347,0,0,0,4.649-2.448,21.6,21.6,0,0,0,.083-2.921c.008-.222-.056-.283-.287-.23-1.109.255-2.223.492-3.335.735-.683.138-1.365.273-2.047.413-1.195.247-1.195.248-1.148,1.476A3.3,3.3,0,0,0,2873.086-290.452Zm-.114,12.994a2.8,2.8,0,0,0-1.848,2.286,18.131,18.131,0,0,0-.01,5.1,2.871,2.871,0,0,0,1.75,2.25,3.327,3.327,0,0,0,4.852-2.335,17.48,17.48,0,0,0,0-4.9A3.3,3.3,0,0,0,2872.971-277.459Zm-29.589.012a3.24,3.24,0,0,0-1.952,3.276c-.028,2.79-.01,5.581-.006,8.371a3.727,3.727,0,0,0,.409,1.75.5.5,0,0,0,.51.317c.642-.022,1.284-.016,1.926-.022a4.145,4.145,0,0,1,2.153.755.389.389,0,0,0,.573-.029,3.2,3.2,0,0,0,1.228-2.435c.036-3.012.072-6.025,0-9.035A3.329,3.329,0,0,0,2843.382-277.447Zm-.549,23.292c1.1.006,2.2.005,3.3.024.269,0,.339-.089.338-.347-.011-1.779.019-3.559-.017-5.338a2.286,2.286,0,0,0-2.305-2.258c-.733-.017-1.466.008-2.2.014-1.524-.005-3.049-.038-4.573-.006a2.217,2.217,0,0,0-2.2,2.176c-.06,1.5-.041,3.013-.01,4.519a1.2,1.2,0,0,0,1.28,1.23C2838.573-254.134,2840.7-254.149,2842.833-254.155Zm37.565-27.777c0-1.468.05-2.849-.014-4.225a4.182,4.182,0,0,0-2.135-3.468.515.515,0,0,0-.715.036,5.012,5.012,0,0,1-6.272-.007.492.492,0,0,0-.671-.055,4.609,4.609,0,0,0-2.229,3.954c-.017.325.141.388.421.429q2.4.351,4.755.941A38.344,38.344,0,0,1,2880.4-281.932Zm-41.542-.042c1.021-.412,2-.836,2.991-1.2a44.121,44.121,0,0,1,8.6-2.1c.221-.033.45-.017.429-.355a4.726,4.726,0,0,0-2.275-4.05.439.439,0,0,0-.581.047,5.021,5.021,0,0,1-6.36.012.435.435,0,0,0-.577-.065,4.112,4.112,0,0,0-2.206,3.305C2838.777-284.934,2838.856-283.477,2838.856-281.974Zm41.519,18.239a4.444,4.444,0,0,0-2.131-3.173.53.53,0,0,0-.721.057,5.026,5.026,0,0,1-6.268-.022.5.5,0,0,0-.675-.045,4.307,4.307,0,0,0-2.139,3.176,26.979,26.979,0,0,0-.068,3.085.339.339,0,0,0,.13.341l2.6,1.626a9.6,9.6,0,0,1,.149-2.074,3.981,3.981,0,0,1,3.858-2.966C2876.854-263.751,2878.6-263.735,2880.375-263.735Zm.632-31.522c0-1.453,0-2.905,0-4.358a3.426,3.426,0,0,0-.072-.765,1.753,1.753,0,0,0-2.8-.94c-.292.239-.375.411-.054.734a4.586,4.586,0,0,1,1.347,2.944c.114,1.468.049,2.94.033,4.41a3,3,0,0,1-.112.762c-.118.422-.469.9-.355,1.234.125.361.652.6,1.028.854.263.18.443.7.72.552.323-.173.269-.685.27-1.07C2881.009-292.352,2881.006-293.8,2881.006-295.258Zm-31.083,29.581a5.265,5.265,0,0,1-2.007,4.033c-.11.087-.184.174-.123.323a6.968,6.968,0,0,1,.35,2.6c.887-.554,1.7-1.07,2.526-1.572.2-.119.2-.283.2-.471,0-.771.031-1.543-.011-2.311A4.151,4.151,0,0,0,2849.924-265.677Zm21.192,10.856c0-.635-.006-1.163,0-1.691a.367.367,0,0,0-.206-.352c-1.281-.79-2.554-1.6-3.844-2.372a.79.79,0,0,0-1.112.251.772.772,0,0,0,.312,1.091C2867.844-256.885,2869.428-255.89,2871.116-254.821Zm-22.994-.019c1.678-1.063,3.263-2.056,4.836-3.068a.709.709,0,0,0,.277-1.078.815.815,0,0,0-1.164-.222c-1.236.758-2.461,1.536-3.7,2.3a.442.442,0,0,0-.259.433C2848.133-255.966,2848.123-255.454,2848.123-254.84Zm-12.978-24.882c.665-.435,1.254-.829,1.854-1.207.177-.111.172-.262.172-.428,0-1.012-.013-2.024.006-3.035.007-.37-.143-.388-.432-.3a2.336,2.336,0,0,0-1.6,2.223C2835.125-281.587,2835.144-280.7,2835.144-279.722Zm48.953,0v-.589c0-.717.017-1.435-.006-2.152a2.342,2.342,0,0,0-1.591-2.227c-.281-.088-.444-.09-.437.29.019,1.012.006,2.023.006,3.035,0,.164-.013.318.166.431C2882.836-280.553,2883.426-280.159,2884.1-279.72Zm-43.98,15.967a15.291,15.291,0,0,1-.41-1.95,4.075,4.075,0,0,0-.5.791c-.164.348-.452.831-.275,1.071C2839.142-263.558,2839.674-263.762,2840.117-263.754Z" transform="translate(-2831.353 309.018)" fill="#030303"/>
      <path id="Trazado_165647" data-name="Trazado 165647" d="M2868.795-220.828c.108.68.277.846.955.9a48.037,48.037,0,0,1,12.43,2.311,23.029,23.029,0,0,1,7.339,3.832,8.5,8.5,0,0,1,1.762,1.965,4.841,4.841,0,0,1,.01,5.6,11.6,11.6,0,0,1-4.167,3.622.264.264,0,0,1-.412-.075,5.484,5.484,0,0,0-1.567-1.375c-.181-.109-.275-.206-.164-.434a6.043,6.043,0,0,0,.477-2.91,32.477,32.477,0,0,0-.078-3.529,5.016,5.016,0,0,0-5.246-4.291,4.981,4.981,0,0,0-4.782,4.68,29.555,29.555,0,0,0,.067,4.85,1.777,1.777,0,0,0,.175.69c.365.6.123.888-.406,1.266a6.016,6.016,0,0,0-2.477,4.886c-.019.4-.168.492-.509.526a60.515,60.515,0,0,1-11.075.162c-.714-.062-1.429-.114-2.145-.168-.307-.023-.471-.1-.482-.489a6.071,6.071,0,0,0-2.4-4.872c-.242-.186-.219-.4-.219-.63,0-1.988.02-3.976-.009-5.964a5.055,5.055,0,0,0-4.107-4.875,5.084,5.084,0,0,0-5.575,2.924,5.455,5.455,0,0,0-.444,2.256c0,1.9-.006,3.792.006,5.688a.743.743,0,0,1-.331.694,2.134,2.134,0,0,0-.642.6c-.344.587-.691.431-1.144.14a13.489,13.489,0,0,1-3.213-2.667,5.088,5.088,0,0,1-.041-6.939,13.818,13.818,0,0,1,4.841-3.581,38.991,38.991,0,0,1,11.374-3.35,51.293,51.293,0,0,1,6.2-.591c.6-.018,1.044-.2,1.152-.858C2865.567-220.978,2867.181-220.81,2868.795-220.828Zm-.534,4.715c-.4.025-.692.021-.982.064a6.072,6.072,0,0,0-5.17,6.184,5.966,5.966,0,0,0,5.6,5.76,5.581,5.581,0,0,1,3.038,1.005,3.192,3.192,0,0,0,.335.191.841.841,0,0,0,1.313-.757,15.214,15.214,0,0,0,0-1.544,1.43,1.43,0,0,1,.371-1.038,5.715,5.715,0,0,0,.775-6.4A5.708,5.708,0,0,0,2868.261-216.113Z" transform="translate(-2837.338 244.789)" fill="#c18c6b"/>
      <path id="Trazado_165648" data-name="Trazado 165648" d="M2921.257-310.621a2.284,2.284,0,0,0-.625-1.843,5.613,5.613,0,0,1-.333-6.43,5.624,5.624,0,0,1,5.624-3.043c.526.035.568-.085.544-.561a6.027,6.027,0,0,1,6.176-6.371,6.061,6.061,0,0,1,5.831,6.607,5.561,5.561,0,0,1-1.434,3.333,1.147,1.147,0,0,0-.318.885c.021.551.02,1.1,0,1.656a.821.821,0,0,1-1.234.756,3.951,3.951,0,0,1-.852-.5,4.092,4.092,0,0,0-2.9-.733c-.345,0-.23.2-.217.357a5.785,5.785,0,0,1-1.333,4.311,5.787,5.787,0,0,1-5.244,2.233.949.949,0,0,0-.617.159c-.566.341-1.133.682-1.711,1a.848.848,0,0,1-1.357-.784C2921.252-309.882,2921.257-310.177,2921.257-310.621Zm1.657-.312a2.419,2.419,0,0,0,.363-.176,2.571,2.571,0,0,1,2.236-.482.982.982,0,0,0,.274,0,4.437,4.437,0,0,0,4.073-4.892,1.747,1.747,0,0,0-.875-1.478,4.508,4.508,0,0,1-1.617-1.7,1.04,1.04,0,0,0-.676-.5,4.432,4.432,0,0,0-4.948,2,4.307,4.307,0,0,0,.637,5.233,1.575,1.575,0,0,1,.536,1.367C2922.9-311.381,2922.914-311.2,2922.914-310.933Zm12.135-6.879c.08-.722-.117-1.373.474-1.934a4.2,4.2,0,0,0,.8-5.115,4.215,4.215,0,0,0-4.606-2.257,4.254,4.254,0,0,0-3.556,4.8,4.218,4.218,0,0,0,4.761,3.775,1.948,1.948,0,0,1,1.322.266C2934.486-318.121,2934.743-317.988,2935.049-317.812Z" transform="translate(-2899.952 328.87)" fill="#030303"/>
      <path id="Trazado_165649" data-name="Trazado 165649" d="M3049.405-116.742c.749-.006,1.5-.038,2.245-.011a2.32,2.32,0,0,1,2.221,2.281c.057.557.27.891.841.954l0,2.752a.933.933,0,0,0-.867.894,1.179,1.179,0,0,1-1.263,1.048c-.875.01-1.751-.009-2.626-.015a4.073,4.073,0,0,0,.34-1.975c-.024-1.229-.011-2.458-.005-3.687a3.029,3.029,0,0,0-.507-1.651C3049.661-116.35,3049.427-116.479,3049.405-116.742Z" transform="translate(-3001.153 163.7)" fill="#f9edce"/>
      <path id="Trazado_165650" data-name="Trazado 165650" d="M3025.341-116.737c.022.262.256.392.38.591a3.029,3.029,0,0,1,.507,1.651c-.006,1.229-.019,2.458.005,3.687a4.073,4.073,0,0,1-.339,1.975c-2.337.006-4.674.009-7.01.025-.276,0-.384-.059-.381-.362.015-1.767-.014-3.534.016-5.3a2.268,2.268,0,0,1,2.241-2.273C3022.287-116.774,3023.814-116.742,3025.341-116.737Z" transform="translate(-2977.089 163.695)" fill="#fcf5e1"/>
      <path id="Trazado_165651" data-name="Trazado 165651" d="M2856.137-108.835c-2.13.006-4.261.021-6.392.013a1.2,1.2,0,0,1-1.28-1.23c-.031-1.506-.05-3.015.01-4.519a2.217,2.217,0,0,1,2.2-2.176c1.523-.032,3.048,0,4.573.006a.865.865,0,0,0,.113.243,2.919,2.919,0,0,1,.781,2.155C2856.118-112.507,2856.137-110.671,2856.137-108.835Z" transform="translate(-2844.656 163.698)" fill="#fbf4e0"/>
      <path id="Trazado_165652" data-name="Trazado 165652" d="M3010.631-234.009a38.336,38.336,0,0,0-6.86-2.395q-2.355-.587-4.755-.941c-.28-.041-.438-.1-.421-.429a4.609,4.609,0,0,1,2.229-3.954.493.493,0,0,1,.671.055,5.012,5.012,0,0,0,6.272.007.515.515,0,0,1,.715-.037,4.183,4.183,0,0,1,2.135,3.468C3010.68-236.858,3010.631-235.477,3010.631-234.009Z" transform="translate(-2961.585 261.094)" fill="#f9e64d"/>
      <path id="Trazado_165653" data-name="Trazado 165653" d="M2865.158-234.084c0-1.5-.08-2.96.022-4.4a4.112,4.112,0,0,1,2.205-3.305.435.435,0,0,1,.577.065,5.021,5.021,0,0,0,6.36-.012.438.438,0,0,1,.581-.046,4.725,4.725,0,0,1,2.275,4.05c.022.338-.207.322-.429.355a44.132,44.132,0,0,0-8.6,2.1C2867.153-234.92,2866.179-234.5,2865.158-234.084Z" transform="translate(-2857.654 261.127)" fill="#a5f8b7"/>
      <path id="Trazado_165654" data-name="Trazado 165654" d="M2885.715-187.483a3.329,3.329,0,0,1,4.837,2.95c.074,3.01.038,6.024,0,9.035a3.2,3.2,0,0,1-1.228,2.435.389.389,0,0,1-.573.029,4.144,4.144,0,0,0-2.152-.755,6.3,6.3,0,0,0,.341-2.318c-.022-2.588-.049-5.177.009-7.765A4.519,4.519,0,0,0,2885.715-187.483Z" transform="translate(-2873.685 219.054)" fill="#727dad"/>
      <path id="Trazado_165655" data-name="Trazado 165655" d="M3010.609-135.83c-1.777,0-3.521-.016-5.265,0a3.981,3.981,0,0,0-3.858,2.966,9.582,9.582,0,0,0-.149,2.074l-2.6-1.626a.339.339,0,0,1-.13-.341,26.979,26.979,0,0,1,.067-3.085,4.307,4.307,0,0,1,2.139-3.176.5.5,0,0,1,.675.045,5.026,5.026,0,0,0,6.268.022.53.53,0,0,1,.721-.057A4.444,4.444,0,0,1,3010.609-135.83Z" transform="translate(-2961.586 181.112)" fill="#97d6f7"/>
      <path id="Trazado_165656" data-name="Trazado 165656" d="M2878.792-186.2a4.517,4.517,0,0,1,1.236,3.611c-.057,2.587-.03,5.176-.008,7.765a6.3,6.3,0,0,1-.341,2.318c-.642.005-1.284,0-1.926.022a.494.494,0,0,1-.51-.317,3.727,3.727,0,0,1-.409-1.75c0-2.79-.021-5.581.007-8.371A3.239,3.239,0,0,1,2878.792-186.2Z" transform="translate(-2866.762 217.773)" fill="#818aae"/>
      <path id="Trazado_165657" data-name="Trazado 165657" d="M3019.047-187.45a3.3,3.3,0,0,1,4.739,2.4,17.489,17.489,0,0,1,0,4.9,3.327,3.327,0,0,1-4.852,2.335,3.423,3.423,0,0,0,1.321-2.714c.055-1.06-.039-2.129.025-3.188A4.787,4.787,0,0,0,3019.047-187.45Z" transform="translate(-2977.427 219.009)" fill="#727dad"/>
      <path id="Trazado_165658" data-name="Trazado 165658" d="M2880.125-108.833c0-1.836-.019-3.672.01-5.507a2.917,2.917,0,0,0-.781-2.155.859.859,0,0,1-.113-.243c.733-.006,1.466-.03,2.2-.014a2.285,2.285,0,0,1,2.3,2.258c.036,1.779.007,3.558.017,5.338,0,.258-.068.352-.337.347C2882.325-108.828,2881.225-108.827,2880.125-108.833Z" transform="translate(-2868.644 163.696)" fill="#f9edce"/>
      <path id="Trazado_165659" data-name="Trazado 165659" d="M3012.273-186.256a4.787,4.787,0,0,1,1.237,3.734c-.064,1.059.031,2.128-.025,3.188a3.422,3.422,0,0,1-1.321,2.714,2.872,2.872,0,0,1-1.75-2.25,18.149,18.149,0,0,1,.01-5.1A2.8,2.8,0,0,1,3012.273-186.256Z" transform="translate(-2970.654 217.815)" fill="#818aae"/>
      <path id="Trazado_165660" data-name="Trazado 165660" d="M3044.693-289.4c0,1.453,0,2.905,0,4.358,0,.385.053.9-.27,1.07-.277.148-.457-.373-.719-.552-.375-.257-.9-.493-1.027-.854-.114-.33.237-.811.355-1.234a2.985,2.985,0,0,0,.112-.762c.015-1.47.081-2.941-.033-4.41a4.586,4.586,0,0,0-1.348-2.944c-.321-.323-.238-.5.054-.734a1.753,1.753,0,0,1,2.8.94,3.411,3.411,0,0,1,.072.765C3044.7-292.3,3044.693-290.85,3044.693-289.4Z" transform="translate(-2995.039 303.158)" fill="#818aae"/>
      <path id="Trazado_165661" data-name="Trazado 165661" d="M3021.054-269.6c1.112-.243,2.225-.48,3.334-.735.232-.053.3.008.288.23a21.6,21.6,0,0,1-.083,2.921,3.347,3.347,0,0,1-4.649,2.448c.091-.566.588-.9.8-1.409A9.741,9.741,0,0,0,3021.054-269.6Z" transform="translate(-2978.211 283.304)" fill="#eebba8"/>
      <path id="Trazado_165662" data-name="Trazado 165662" d="M2886.779-269.8l3.533-.8a19.618,19.618,0,0,1-.1,3.341,3.358,3.358,0,0,1-4.832,2.248,2.726,2.726,0,0,0,1.07-1.543A8.934,8.934,0,0,0,2886.779-269.8Z" transform="translate(-2873.42 283.498)" fill="#eebba8"/>
      <path id="Trazado_165663" data-name="Trazado 165663" d="M2880.149-266.981a8.924,8.924,0,0,1-.334,3.245,2.724,2.724,0,0,1-1.07,1.543,3.35,3.35,0,0,1-1.882-3.216c-.01-.911-.009-.92.87-1.1C2878.536-266.679,2879.344-266.825,2880.149-266.981Z" transform="translate(-2866.791 280.676)" fill="#f4caba"/>
      <path id="Trazado_165664" data-name="Trazado 165664" d="M2907.7-133.014a4.15,4.15,0,0,1,.934,2.605c.042.769.008,1.541.011,2.311,0,.187,0,.352-.2.471-.823.5-1.639,1.018-2.526,1.572a6.968,6.968,0,0,0-.35-2.6c-.061-.15.013-.237.123-.323A5.265,5.265,0,0,0,2907.7-133.014Z" transform="translate(-2889.131 176.355)" fill="#e865a6"/>
      <path id="Trazado_165665" data-name="Trazado 165665" d="M3013.664-266.952a9.73,9.73,0,0,1-.31,3.455c-.211.512-.708.843-.8,1.409a3.3,3.3,0,0,1-2.086-2.975c-.046-1.227-.047-1.229,1.148-1.476C3012.3-266.679,3012.981-266.814,3013.664-266.952Z" transform="translate(-2970.822 280.654)" fill="#f4caba"/>
      <path id="Trazado_165666" data-name="Trazado 165666" d="M2885.738-290.128a3.39,3.39,0,0,1,4.7,2.052c.07.262.018.354-.248.4-1.08.207-2.156.434-3.234.654A4.111,4.111,0,0,0,2885.738-290.128Z" transform="translate(-2873.703 298.967)" fill="#727dad"/>
      <path id="Trazado_165667" data-name="Trazado 165667" d="M3019.47-290.153a3.375,3.375,0,0,1,4.674,2.064c.054.2.107.333-.178.387-1.094.208-2.183.438-3.275.659A4.3,4.3,0,0,0,3019.47-290.153Z" transform="translate(-2977.842 298.983)" fill="#727dad"/>
      <path id="Trazado_165668" data-name="Trazado 165668" d="M2992.482-99.946c-1.688-1.069-3.272-2.064-4.847-3.073a.772.772,0,0,1-.312-1.091.791.791,0,0,1,1.113-.251c1.29.777,2.563,1.582,3.844,2.372a.368.368,0,0,1,.206.352C2992.477-101.109,2992.482-100.581,2992.482-99.946Z" transform="translate(-2952.719 154.143)" fill="#f9f2de"/>
      <path id="Trazado_165669" data-name="Trazado 165669" d="M2907.117-99.944c0-.613.01-1.125-.005-1.636a.443.443,0,0,1,.258-.433c1.235-.762,2.459-1.54,3.7-2.3a.815.815,0,0,1,1.164.222.709.709,0,0,1-.277,1.078C2910.38-102,2908.8-101.007,2907.117-99.944Z" transform="translate(-2890.347 154.121)" fill="#f9f2de"/>
      <path id="Trazado_165670" data-name="Trazado 165670" d="M3012.373-288.969a4.294,4.294,0,0,1,1.221,3.11q-1.444.323-2.888.644c-.18.04-.291.03-.323-.219A3.454,3.454,0,0,1,3012.373-288.969Z" transform="translate(-2970.745 297.799)" fill="#818aae"/>
      <path id="Trazado_165671" data-name="Trazado 165671" d="M2878.726-288.93a4.111,4.111,0,0,1,1.223,3.11c-.942.211-1.883.424-2.826.631-.188.041-.338.055-.372-.233A3.663,3.663,0,0,1,2878.726-288.93Z" transform="translate(-2866.691 297.768)" fill="#818aae"/>
      <path id="Trazado_165672" data-name="Trazado 165672" d="M2848.462-214.128c0-.983-.02-1.865,0-2.747a2.337,2.337,0,0,1,1.6-2.223c.289-.089.439-.071.432.3-.019,1.012-.007,2.023-.006,3.035,0,.166.005.317-.172.428C2849.717-214.957,2849.127-214.563,2848.462-214.128Z" transform="translate(-2844.671 243.424)" fill="#f1ead7"/>
      <path id="Trazado_165673" data-name="Trazado 165673" d="M3062.546-214.127c-.671-.438-1.261-.833-1.862-1.211-.179-.113-.166-.267-.166-.431,0-1.012.012-2.024-.006-3.035-.007-.38.157-.377.437-.29a2.343,2.343,0,0,1,1.591,2.227c.023.717.005,1.435.006,2.152Z" transform="translate(-3009.802 243.424)" fill="#f1ead7"/>
      <path id="Trazado_165674" data-name="Trazado 165674" d="M2866.6-131.183c-.443-.009-.975.2-1.184-.088-.177-.24.111-.723.275-1.071a4.074,4.074,0,0,1,.5-.791A15.251,15.251,0,0,0,2866.6-131.183Z" transform="translate(-2857.835 176.447)" fill="#e865a6"/>
      <path id="Trazado_165675" data-name="Trazado 165675" d="M2949.425-199.283a5.708,5.708,0,0,1,5.285,3.467,5.715,5.715,0,0,1-.775,6.4,1.429,1.429,0,0,0-.371,1.038,15.073,15.073,0,0,1,0,1.544.841.841,0,0,1-1.313.757,3.219,3.219,0,0,1-.335-.191,5.581,5.581,0,0,0-3.038-1.005,5.966,5.966,0,0,1-5.6-5.76,6.072,6.072,0,0,1,5.17-6.184C2948.733-199.262,2949.03-199.258,2949.425-199.283Zm2.453,11.127a4.037,4.037,0,0,0,.025-.52,1.846,1.846,0,0,1,.628-1.665,3.793,3.793,0,0,0,1.124-2.677,4.4,4.4,0,0,0-3.224-4.463,4.4,4.4,0,0,0-5.049,2.3,4.312,4.312,0,0,0,3.674,6.249C2950.044-188.863,2951.013-188.976,2951.878-188.156Z" transform="translate(-2918.502 227.959)" fill="#030303"/>
      <path id="Trazado_165676" data-name="Trazado 165676" d="M2928.857-280.866c0-.262-.017-.448,0-.629a1.574,1.574,0,0,0-.536-1.367,4.307,4.307,0,0,1-.637-5.233,4.431,4.431,0,0,1,4.948-2,1.038,1.038,0,0,1,.676.5,4.508,4.508,0,0,0,1.617,1.7,1.747,1.747,0,0,1,.875,1.478,4.438,4.438,0,0,1-4.073,4.892.983.983,0,0,1-.275,0,2.57,2.57,0,0,0-2.235.482A2.454,2.454,0,0,1,2928.857-280.866Zm2.578-4.126a.793.793,0,0,0,.822-.828.815.815,0,0,0-.787-.82.813.813,0,0,0-.82.841A.785.785,0,0,0,2931.435-284.991Zm3.281-.812a.794.794,0,0,0-.774-.835.785.785,0,0,0-.805.852.748.748,0,0,0,.8.793A.767.767,0,0,0,2934.716-285.8Zm-6.523-.01a.761.761,0,0,0,.771.82.756.756,0,0,0,.805-.838.781.781,0,0,0-.8-.807A.789.789,0,0,0,2928.193-285.812Z" transform="translate(-2905.896 298.802)" fill="#f9f2de"/>
      <path id="Trazado_165677" data-name="Trazado 165677" d="M2965.554-311.894c-.306-.175-.562-.309-.806-.465a1.949,1.949,0,0,0-1.322-.266,4.218,4.218,0,0,1-4.761-3.775,4.254,4.254,0,0,1,3.556-4.8,4.215,4.215,0,0,1,4.606,2.257,4.2,4.2,0,0,1-.8,5.115C2965.437-313.267,2965.634-312.616,2965.554-311.894Zm-1.255-2.816a.88.88,0,0,0,.771-.517.859.859,0,0,0-.278-1.034c-.616-.626-.61-.633-.012-1.259.448-.47.487-.929.109-1.3-.393-.385-.8-.343-1.292.133-.615.6-.615.6-1.245-.009-.488-.47-.9-.507-1.293-.115-.372.374-.328.823.129,1.3.6.623.6.623.017,1.223a2.062,2.062,0,0,0-.223.243.775.775,0,0,0,.044,1.057.747.747,0,0,0,1.046.123,2.756,2.756,0,0,0,.566-.52c.241-.3.42-.309.682-.009A1.513,1.513,0,0,0,2964.3-314.71Z" transform="translate(-2930.457 322.952)" fill="#e865a6"/>
      <path id="Trazado_165678" data-name="Trazado 165678" d="M2957.731-182.294c-.865-.82-1.834-.706-2.822-.778a4.313,4.313,0,0,1-3.674-6.249,4.4,4.4,0,0,1,5.05-2.3,4.4,4.4,0,0,1,3.223,4.463,3.791,3.791,0,0,1-1.124,2.677,1.846,1.846,0,0,0-.627,1.665A4.1,4.1,0,0,1,2957.731-182.294Zm.691-5.021a.779.779,0,0,0-.783-.82.784.784,0,0,0-.813.792.788.788,0,0,0,.813.846A.777.777,0,0,0,2958.422-187.316Zm-4.932,0a.789.789,0,0,0-.79-.817.789.789,0,0,0-.814.793.794.794,0,0,0,.817.843A.787.787,0,0,0,2953.491-187.317Zm1.665-.815a.756.756,0,0,0-.783.806.757.757,0,0,0,.816.826.757.757,0,0,0,.757-.832A.757.757,0,0,0,2955.156-188.132Z" transform="translate(-2924.355 222.097)" fill="#f9f2de"/>
      <path id="Trazado_165679" data-name="Trazado 165679" d="M2944-272.259a.786.786,0,0,1-.786-.807.813.813,0,0,1,.821-.841.816.816,0,0,1,.787.82A.794.794,0,0,1,2944-272.259Z" transform="translate(-2918.459 286.069)" fill="#030303"/>
      <path id="Trazado_165680" data-name="Trazado 165680" d="M2956.033-273.065a.767.767,0,0,1-.784.811.748.748,0,0,1-.8-.793.786.786,0,0,1,.805-.852A.794.794,0,0,1,2956.033-273.065Z" transform="translate(-2927.212 286.064)" fill="#030303"/>
      <path id="Trazado_165681" data-name="Trazado 165681" d="M2932.115-273.076a.788.788,0,0,1,.78-.826.781.781,0,0,1,.8.807.757.757,0,0,1-.805.838A.761.761,0,0,1,2932.115-273.076Z" transform="translate(-2909.817 286.065)" fill="#030303"/>
      <path id="Trazado_165682" data-name="Trazado 165682" d="M2971.953-307a1.513,1.513,0,0,1-.979-.688c-.262-.3-.441-.291-.682.009a2.763,2.763,0,0,1-.566.52.746.746,0,0,1-1.045-.123.774.774,0,0,1-.044-1.057,2.04,2.04,0,0,1,.223-.243c.583-.6.583-.6-.018-1.223-.456-.473-.5-.921-.129-1.3.39-.392.806-.355,1.294.115.629.606.629.606,1.244.009.491-.476.9-.518,1.293-.133.377.37.338.83-.11,1.3-.6.626-.6.633.012,1.259a.858.858,0,0,1,.278,1.034A.88.88,0,0,1,2971.953-307Z" transform="translate(-2938.112 315.245)" fill="#030303"/>
      <path id="Trazado_165683" data-name="Trazado 165683" d="M2979.684-174.576a.777.777,0,0,1-.783.818.788.788,0,0,1-.813-.846.784.784,0,0,1,.813-.792A.779.779,0,0,1,2979.684-174.576Z" transform="translate(-2945.617 209.358)" fill="#030303"/>
      <path id="Trazado_165684" data-name="Trazado 165684" d="M2957.37-174.572a.788.788,0,0,1-.787.818.793.793,0,0,1-.817-.843.789.789,0,0,1,.814-.793A.789.789,0,0,1,2957.37-174.572Z" transform="translate(-2928.235 209.353)" fill="#030303"/>
      <path id="Trazado_165685" data-name="Trazado 165685" d="M2967.781-175.382a.757.757,0,0,1,.79.8.757.757,0,0,1-.756.832.757.757,0,0,1-.816-.826A.756.756,0,0,1,2967.781-175.382Z" transform="translate(-2936.982 209.347)" fill="#030303"/>
    </g>
  </g>
</svg>
