<svg xmlns="http://www.w3.org/2000/svg" width="140" height="140" viewBox="0 0 140 140">
  <g id="Grupo_157919" data-name="Grupo 157919" transform="translate(670 4445)">
    <circle id="Elipse_5541" data-name="Elipse 5541" cx="70" cy="70" r="70" transform="translate(-670 -4445)" fill="#083142"/>
    <g id="transferencia-de-datos_1_" data-name="transferencia-de-datos(1)" transform="translate(-634 -4409)">
      <path id="Trazado_600829" data-name="Trazado 600829" d="M51.073,23.834a43.08,43.08,0,0,0-4.531.24L46.533,3.4a3.4,3.4,0,0,0-3.4-3.4H9.08a3.4,3.4,0,0,0-3.4,3.4V31.454l-5.5,8.8a1.135,1.135,0,0,0-.173.6v3.4a2.27,2.27,0,0,0,2.27,2.27H34.049v14.7c0,4.457,8.772,6.862,17.024,6.862S68.1,65.693,68.1,61.236V30.644h0C68.1,26.218,59.326,23.834,51.073,23.834Zm14.754,6.81c0,1.852-5.747,4.54-14.754,4.54s-14.754-2.691-14.754-4.54,5.747-4.54,14.754-4.54S65.828,28.794,65.828,30.644ZM7.439,32.914h26.61v3.4a3.382,3.382,0,0,0-2.538-1.135H20.7a3.388,3.388,0,0,0-3.045,1.882l-1.331,2.658H3.178Zm12.244,5.167a1.127,1.127,0,0,1,1.015-.628H31.511a1.127,1.127,0,0,1,1.015.628l.825,1.649-14.492-.007ZM38.171,26.1H12.485V6.81H39.724V25.5C39.178,25.684,38.657,25.886,38.171,26.1ZM7.945,3.4A1.135,1.135,0,0,1,9.08,2.27H43.129A1.135,1.135,0,0,1,44.263,3.4V24.389c-.779.129-1.541.277-2.27.454V6.81a2.27,2.27,0,0,0-2.27-2.27H12.485a2.27,2.27,0,0,0-2.27,2.27V26.1a2.27,2.27,0,0,0,2.27,2.27H34.914a3.555,3.555,0,0,0-.865,2.27H7.945ZM2.27,44.263v-2.27L34.049,42v2.262Zm48.8,21.564c-9.007,0-14.754-2.724-14.754-4.592V54.606c3.14,2.142,9.069,3.277,14.754,3.277s11.614-1.135,14.754-3.277v6.629C65.828,63.1,60.08,65.828,51.073,65.828Zm0-10.215c-9.007,0-14.754-2.681-14.754-4.527v-6.7c3.14,2.144,9.069,3.279,14.754,3.279s11.614-1.135,14.754-3.279v6.7C65.828,52.932,60.08,55.613,51.073,55.613Zm0-10.215c-9.007,0-14.754-2.684-14.754-4.532v-6.7c3.14,2.151,9.069,3.285,14.754,3.285S62.687,36.32,65.828,34.17v6.7C65.828,42.714,60.08,45.4,51.073,45.4Z" fill="#2efec7"/>
      <path id="Trazado_600830" data-name="Trazado 600830" d="M33.294,10.27H17.875l.333-.333a1.135,1.135,0,1,0-1.6-1.6l-2.27,2.27a1.135,1.135,0,0,0,0,1.6l2.27,2.27a1.135,1.135,0,1,0,1.6-1.6l-.333-.332h15.42a1.135,1.135,0,0,0,0-2.27Z" transform="translate(1.889 1.08)" fill="#2efec7"/>
      <path id="Trazado_600831" data-name="Trazado 600831" d="M31.827,15.333a1.135,1.135,0,1,0-1.6,1.6l.333.332H15.135a1.135,1.135,0,1,0,0,2.27h15.42l-.333.333a1.135,1.135,0,1,0,1.6,1.6l2.27-2.27a1.135,1.135,0,0,0,0-1.6Z" transform="translate(1.889 2.024)" fill="#2efec7"/>
    </g>
  </g>
</svg>
