<svg xmlns="http://www.w3.org/2000/svg" xmlns:xlink="http://www.w3.org/1999/xlink" width="140" height="140" viewBox="0 0 140 140">
  <defs>
    <clipPath id="clip-path">
      <path id="path5178" d="M0-682.665H75.237v75.237H0Z" transform="translate(0 682.665)"/>
    </clipPath>
  </defs>
  <g id="Grupo_157764" data-name="Grupo 157764" transform="translate(-1105 -1113)">
    <circle id="Elipse_5541" data-name="Elipse 5541" cx="70" cy="70" r="70" transform="translate(1105 1113)" fill="#083142"/>
    <circle id="Elipse_5553" data-name="Elipse 5553" cx="60" cy="60" r="60" transform="translate(1115 1123)" fill="#fff"/>
    <g id="g5172" transform="translate(1137.382 1145.381)">
      <g id="g5174" transform="translate(0 0)">
        <g id="g5176" clip-path="url(#clip-path)">
          <g id="g5182" transform="translate(1.102 10.305)">
            <path id="path5184" d="M-565.664-441.026h-67.1a2.969,2.969,0,0,1-2.969-2.969v-48.689a2.969,2.969,0,0,1,2.969-2.969h67.1a2.969,2.969,0,0,1,2.969,2.969v48.689a2.969,2.969,0,0,1-2.969,2.969" transform="translate(635.728 495.652)" fill="#4172ca"/>
          </g>
          <g id="g5186" transform="translate(67.307 10.305)">
            <path id="path5188" d="M-31.16,0h-3.86a2.969,2.969,0,0,1,2.969,2.969V51.658a2.969,2.969,0,0,1-2.969,2.969h3.86a2.969,2.969,0,0,0,2.969-2.969V2.969A2.969,2.969,0,0,0-31.16,0" transform="translate(35.02 0)" fill="#3a67c1"/>
          </g>
          <g id="g5190" transform="translate(5.852 15.056)">
            <path id="path5192" d="M0-352.341V-394.5a1.484,1.484,0,0,1,1.484-1.484H57.3a1.484,1.484,0,0,1,1.484,1.484v42.157a1.484,1.484,0,0,1-1.484,1.484H1.484A1.484,1.484,0,0,1,0-352.341" transform="translate(0 395.983)" fill="#91dafa"/>
          </g>
          <g id="g5194" transform="translate(59.291 15.056)">
            <path id="path5196" d="M-31.16,0h-3.86a1.484,1.484,0,0,1,1.484,1.484V43.642a1.484,1.484,0,0,1-1.484,1.484h3.86a1.484,1.484,0,0,0,1.484-1.484V1.484A1.484,1.484,0,0,0-31.16,0" transform="translate(35.02 0)" fill="#75cff9"/>
          </g>
          <g id="g5198" transform="translate(48.455 19.806)">
            <path id="path5200" d="M-59.922-38.35h-7.422V-43.1h7.422a2.375,2.375,0,0,1,2.375,2.375,2.375,2.375,0,0,1-2.375,2.375" transform="translate(67.344 43.1)" fill="#3a67c1"/>
          </g>
          <g id="g5202" transform="translate(32.72 19.806)">
            <path id="path5204" d="M-127.034-38.35h-13.36a2.375,2.375,0,0,1-2.375-2.375,2.375,2.375,0,0,1,2.375-2.375h13.36Z" transform="translate(142.769 43.1)" fill="#f7e365"/>
          </g>
          <g id="g5206" transform="translate(46.08 19.806)">
            <path id="path5208" d="M-38.35-19.176A2.375,2.375,0,0,1-40.725-16.8,2.375,2.375,0,0,1-43.1-19.176a2.375,2.375,0,0,1,2.375-2.375,2.375,2.375,0,0,1,2.375,2.375" transform="translate(43.1 21.551)" fill="#ddebfd"/>
          </g>
          <g id="g5210" transform="translate(41.033 29.306)">
            <path id="path5212" d="M-119.845-38.35h-14.844V-43.1h14.844a2.375,2.375,0,0,1,2.375,2.375,2.375,2.375,0,0,1-2.375,2.375" transform="translate(134.689 43.1)" fill="#3a67c1"/>
          </g>
          <g id="g5214" transform="translate(32.72 29.306)">
            <path id="path5216" d="M-67.111-38.35h-5.938a2.375,2.375,0,0,1-2.375-2.375A2.375,2.375,0,0,1-73.049-43.1h5.938Z" transform="translate(75.424 43.1)" fill="#fcd770"/>
          </g>
          <g id="g5218" transform="translate(38.658 29.306)">
            <path id="path5220" d="M-38.35-19.176A2.375,2.375,0,0,1-40.725-16.8,2.375,2.375,0,0,1-43.1-19.176a2.375,2.375,0,0,1,2.375-2.375,2.375,2.375,0,0,1,2.375,2.375" transform="translate(43.1 21.551)" fill="#ddebfd"/>
          </g>
          <g id="g5222" transform="translate(49.939 38.806)">
            <path id="path5224" d="M-47.937-38.35h-5.938V-43.1h5.938a2.375,2.375,0,0,1,2.375,2.375,2.375,2.375,0,0,1-2.375,2.375" transform="translate(53.875 43.1)" fill="#3a67c1"/>
          </g>
          <g id="g5226" transform="translate(32.72 38.806)">
            <path id="path5228" d="M-139.019-38.35h-14.844a2.375,2.375,0,0,1-2.375-2.375,2.375,2.375,0,0,1,2.375-2.375h14.844Z" transform="translate(156.238 43.1)" fill="#e175a5"/>
          </g>
          <g id="g5230" transform="translate(47.564 38.806)">
            <path id="path5232" d="M-38.35-19.176A2.375,2.375,0,0,1-40.725-16.8,2.375,2.375,0,0,1-43.1-19.176a2.375,2.375,0,0,1,2.375-2.375,2.375,2.375,0,0,1,2.375,2.375" transform="translate(43.1 21.551)" fill="#ddebfd"/>
          </g>
          <g id="g5234" transform="translate(12.235 19.806)">
            <path id="path5236" d="M-115.051-115.051v-8.313l-7.125-5.938-7.125,5.938v8.313Z" transform="translate(129.301 129.301)" fill="#fcd770"/>
          </g>
          <path id="path5238" d="M130.582-218.056h-4.75v-4.75h4.75Z" transform="translate(-111.964 273.488)" fill="#fcd770"/>
          <path id="path5240" d="M216.783-218.056h-4.75v-4.75h4.75Z" transform="translate(-188.665 273.488)" fill="#f7e365"/>
          <path id="path5242" d="M302.983-218.056h-4.75v-4.75h4.75Z" transform="translate(-265.364 273.488)" fill="#fcd770"/>
          <path id="path5244" d="M389.182-218.056h-4.75v-4.75h4.75Z" transform="translate(-342.064 273.488)" fill="#e175a5"/>
          <path id="path5246" d="M475.384-218.056h-4.75v-4.75h4.75Z" transform="translate(-418.765 273.488)" fill="#fcd770"/>
          <g id="g5248" transform="translate(1.102 10.305)">
            <path id="path5250" d="M-589.632-151.781v32.858a2.97,2.97,0,0,1-2.968,2.968h-67.1a2.97,2.97,0,0,1-2.968-2.968v-48.689a2.97,2.97,0,0,1,2.968-2.969h67.1a2.97,2.97,0,0,1,2.968,2.969v10.688" transform="translate(662.665 170.581)" fill="none" stroke="#000" stroke-linecap="round" stroke-linejoin="round" stroke-miterlimit="10" stroke-width="2"/>
          </g>
          <g id="g5252" transform="translate(5.853 15.056)">
            <path id="path5254" d="M0-308.376v5.445a1.484,1.484,0,0,0,1.484,1.484H57.3a1.484,1.484,0,0,0,1.484-1.484v-42.156a1.484,1.484,0,0,0-1.484-1.484H1.484A1.484,1.484,0,0,0,0-345.088v31.569" transform="translate(0 346.573)" fill="none" stroke="#000" stroke-linecap="round" stroke-linejoin="round" stroke-miterlimit="10" stroke-width="2"/>
          </g>
          <g id="g5256" transform="translate(68.197 36.431)">
            <path id="path5258" d="M-19.174-9.587A1.187,1.187,0,0,1-20.362-8.4a1.187,1.187,0,0,1-1.187-1.187,1.187,1.187,0,0,1,1.187-1.187,1.187,1.187,0,0,1,1.187,1.187" transform="translate(21.549 10.775)"/>
          </g>
          <g id="g5260" transform="translate(46.08 19.806)">
            <path id="path5262" d="M-38.35-19.176A2.375,2.375,0,0,1-40.725-16.8,2.375,2.375,0,0,1-43.1-19.176a2.375,2.375,0,0,1,2.375-2.375A2.375,2.375,0,0,1-38.35-19.176Z" transform="translate(43.1 21.551)" fill="none" stroke="#000" stroke-linecap="round" stroke-linejoin="round" stroke-miterlimit="10" stroke-width="2"/>
          </g>
          <g id="g5264" transform="translate(38.658 29.306)">
            <path id="path5266" d="M-38.35-19.176A2.375,2.375,0,0,1-40.725-16.8,2.375,2.375,0,0,1-43.1-19.176a2.375,2.375,0,0,1,2.375-2.375A2.375,2.375,0,0,1-38.35-19.176Z" transform="translate(43.1 21.551)" fill="none" stroke="#000" stroke-linecap="round" stroke-linejoin="round" stroke-miterlimit="10" stroke-width="2"/>
          </g>
          <g id="g5268" transform="translate(47.564 38.806)">
            <path id="path5270" d="M-38.35-19.176A2.375,2.375,0,0,1-40.725-16.8,2.375,2.375,0,0,1-43.1-19.176a2.375,2.375,0,0,1,2.375-2.375A2.375,2.375,0,0,1-38.35-19.176Z" transform="translate(43.1 21.551)" fill="none" stroke="#000" stroke-linecap="round" stroke-linejoin="round" stroke-miterlimit="10" stroke-width="2"/>
          </g>
          <g id="g5272" transform="translate(32.72 19.806)">
            <path id="path5274" d="M-186.956-38.35h-20.782a2.375,2.375,0,0,1-2.375-2.375,2.375,2.375,0,0,1,2.375-2.375h20.782a2.375,2.375,0,0,1,2.375,2.375A2.375,2.375,0,0,1-186.956-38.35Z" transform="translate(210.113 43.1)" fill="none" stroke="#000" stroke-linecap="round" stroke-linejoin="round" stroke-miterlimit="10" stroke-width="2"/>
          </g>
          <g id="g5276" transform="translate(32.719 29.306)">
            <path id="path5278" d="M-159.782,0h3.367a2.375,2.375,0,0,1,2.375,2.375,2.368,2.368,0,0,1-.7,1.68,2.362,2.362,0,0,1-1.68.7H-177.2a2.376,2.376,0,0,1-2.376-2.376,2.367,2.367,0,0,1,.7-1.68A2.368,2.368,0,0,1-177.2,0h12.272" transform="translate(179.573)" fill="none" stroke="#000" stroke-linecap="round" stroke-linejoin="round" stroke-miterlimit="10" stroke-width="2"/>
          </g>
          <g id="g5280" transform="translate(32.72 38.806)">
            <path id="path5282" d="M-186.956-38.35h-20.782a2.375,2.375,0,0,1-2.375-2.375,2.375,2.375,0,0,1,2.375-2.375h20.782a2.375,2.375,0,0,1,2.375,2.375A2.375,2.375,0,0,1-186.956-38.35Z" transform="translate(210.113 43.1)" fill="none" stroke="#000" stroke-linecap="round" stroke-linejoin="round" stroke-miterlimit="10" stroke-width="2"/>
          </g>
          <g id="g5284" transform="translate(12.235 19.806)">
            <path id="path5286" d="M-115.051-115.051v-8.313l-7.125-5.938-7.125,5.938v8.313Z" transform="translate(129.301 129.301)" fill="none" stroke="#000" stroke-linecap="round" stroke-linejoin="round" stroke-miterlimit="10" stroke-width="2"/>
          </g>
          <g id="g5288" transform="translate(12.235 38.806)">
            <path id="path5290" d="M-11.985,0h-1.484" transform="translate(13.469)" fill="none" stroke="#000" stroke-linecap="round" stroke-linejoin="round" stroke-miterlimit="10" stroke-width="2"/>
          </g>
          <g id="g5292" transform="translate(12.235 43.556)">
            <path id="path5294" d="M-11.985,0h-1.484" transform="translate(13.469)" fill="none" stroke="#000" stroke-linecap="round" stroke-linejoin="round" stroke-miterlimit="10" stroke-width="2"/>
          </g>
          <g id="g5296" transform="translate(25.001 38.806)">
            <path id="path5298" d="M-11.986,0h-1.485" transform="translate(13.471)" fill="none" stroke="#000" stroke-linecap="round" stroke-linejoin="round" stroke-miterlimit="10" stroke-width="2"/>
          </g>
          <g id="g5300" transform="translate(25.001 43.556)">
            <path id="path5302" d="M-11.986,0h-1.485" transform="translate(13.471)" fill="none" stroke="#000" stroke-linecap="round" stroke-linejoin="round" stroke-miterlimit="10" stroke-width="2"/>
          </g>
          <g id="g5304" transform="translate(18.618 38.806)">
            <path id="path5306" d="M-11.985,0h-1.484" transform="translate(13.469)" fill="none" stroke="#000" stroke-linecap="round" stroke-linejoin="round" stroke-miterlimit="10" stroke-width="2"/>
          </g>
          <g id="g5308" transform="translate(18.618 43.556)">
            <path id="path5310" d="M-11.985,0h-1.484" transform="translate(13.469)" fill="none" stroke="#000" stroke-linecap="round" stroke-linejoin="round" stroke-miterlimit="10" stroke-width="2"/>
          </g>
          <path id="path5312" d="M130.582-218.056h-4.75v-4.75h4.75Z" transform="translate(-111.964 273.488)" fill="none" stroke="#000" stroke-linecap="round" stroke-linejoin="round" stroke-miterlimit="10" stroke-width="2"/>
          <path id="path5314" d="M216.783-218.056h-4.75v-4.75h4.75Z" transform="translate(-188.665 273.488)" fill="none" stroke="#000" stroke-linecap="round" stroke-linejoin="round" stroke-miterlimit="10" stroke-width="2"/>
          <path id="path5316" d="M302.983-218.056h-4.75v-4.75h4.75Z" transform="translate(-265.364 273.488)" fill="none" stroke="#000" stroke-linecap="round" stroke-linejoin="round" stroke-miterlimit="10" stroke-width="2"/>
          <path id="path5318" d="M389.182-218.056h-4.75v-4.75h4.75Z" transform="translate(-342.064 273.488)" fill="none" stroke="#000" stroke-linecap="round" stroke-linejoin="round" stroke-miterlimit="10" stroke-width="2"/>
          <path id="path5320" d="M475.384-218.056h-4.75v-4.75h4.75Z" transform="translate(-418.765 273.488)" fill="none" stroke="#000" stroke-linecap="round" stroke-linejoin="round" stroke-miterlimit="10" stroke-width="2"/>
        </g>
      </g>
    </g>
  </g>
</svg>
