<svg xmlns="http://www.w3.org/2000/svg" width="974.366" height="240.157" viewBox="0 0 974.366 240.157">
  <g id="Grupo_157983" data-name="Grupo 157983" transform="translate(-276 -7917.422)">
    <path id="Trazado_601017" data-name="Trazado 601017" d="M-65.32-8.446a4.1,4.1,0,0,1-.655,2.294A4.267,4.267,0,0,1-67.843-4.6a6.78,6.78,0,0,1-2.821.549h-1.16V0h-3.8V-12.6h5.168a6.119,6.119,0,0,1,3.9,1.011A3.83,3.83,0,0,1-65.32-8.446Zm-4.017.132a1.477,1.477,0,0,0-.448-1.169,1.937,1.937,0,0,0-1.318-.4h-.721v3.111h.853Q-69.337-6.768-69.337-8.314Zm11.944,2.522a2.91,2.91,0,0,0-.571-.176,2.891,2.891,0,0,0-.6-.079q-1.854,0-1.854,2.145V0H-64.16V-9h3.744v1.582h.035a2.81,2.81,0,0,1,.976-1.3,2.506,2.506,0,0,1,1.477-.444,1.269,1.269,0,0,1,.536.105ZM-46.3-4.658a4.687,4.687,0,0,1-1.375,3.577A5.375,5.375,0,0,1-51.521.22,5.4,5.4,0,0,1-55.34-1.05a4.546,4.546,0,0,1-1.367-3.5,4.692,4.692,0,0,1,.642-2.487,4.172,4.172,0,0,1,1.828-1.617A6.311,6.311,0,0,1-51.5-9.22a6.113,6.113,0,0,1,2.773.589A4.286,4.286,0,0,1-46.929-7,4.452,4.452,0,0,1-46.3-4.658Zm-3.8.018q0-1.837-1.406-1.837T-52.91-4.553q0,2.03,1.424,2.03Q-50.1-2.522-50.1-4.641ZM-37.485-.255a3.529,3.529,0,0,1-1.134.343A10.719,10.719,0,0,1-40.4.22a5.488,5.488,0,0,1-2.544-.576,4.2,4.2,0,0,1-1.736-1.613A4.478,4.478,0,0,1-45.3-4.3a5.1,5.1,0,0,1,.655-2.65,4.268,4.268,0,0,1,1.868-1.687,6.407,6.407,0,0,1,2.813-.584,9.839,9.839,0,0,1,1.578.114,2.411,2.411,0,0,1,.9.264v2.918a2.6,2.6,0,0,0-.809-.387,3.248,3.248,0,0,0-.976-.167,2.375,2.375,0,0,0-1.666.523A1.9,1.9,0,0,0-41.5-4.482a1.868,1.868,0,0,0,.558,1.446,2.177,2.177,0,0,0,1.534.514,3.82,3.82,0,0,0,1.925-.5Zm4.72-3.182a1.265,1.265,0,0,0,.668.91,3.012,3.012,0,0,0,1.512.33,6.226,6.226,0,0,0,2.479-.5V-.325a8.908,8.908,0,0,1-3.3.545,5.214,5.214,0,0,1-3.665-1.2A4.277,4.277,0,0,1-36.387-4.3a5.467,5.467,0,0,1,.576-2.558,4.142,4.142,0,0,1,1.705-1.736,5.038,5.038,0,0,1,2.492-.628,4.9,4.9,0,0,1,2.391.545,3.63,3.63,0,0,1,1.507,1.529,4.906,4.906,0,0,1,.514,2.3v1.406Zm2.25-1.96q0-1.556-1.116-1.556a.944.944,0,0,0-.782.426A2.127,2.127,0,0,0-32.783-5.4ZM-18.6-2.988A2.749,2.749,0,0,1-19.762-.62,5.474,5.474,0,0,1-23.01.22,11.291,11.291,0,0,1-24.508.1a9.257,9.257,0,0,1-1.455-.3V-2.83a7.162,7.162,0,0,0,2.777.738q1.1,0,1.1-.571a.451.451,0,0,0-.255-.391,9.009,9.009,0,0,0-1.336-.514,3.773,3.773,0,0,1-1.74-1A2.382,2.382,0,0,1-25.963-6.2a2.594,2.594,0,0,1,1.112-2.21,5.216,5.216,0,0,1,3.125-.813,9.931,9.931,0,0,1,2.5.343v2.522a7.549,7.549,0,0,0-1.213-.4,4.9,4.9,0,0,0-1.107-.158,1.205,1.205,0,0,0-.589.123.379.379,0,0,0-.22.343.478.478,0,0,0,.237.413,4.2,4.2,0,0,0,.949.378A4.4,4.4,0,0,1-19.2-4.614,2.272,2.272,0,0,1-18.6-2.988Zm11.391-1.67A4.687,4.687,0,0,1-8.583-1.081,5.375,5.375,0,0,1-12.428.22a5.4,5.4,0,0,1-3.819-1.27,4.546,4.546,0,0,1-1.367-3.5,4.692,4.692,0,0,1,.642-2.487,4.172,4.172,0,0,1,1.828-1.617A6.311,6.311,0,0,1-12.41-9.22a6.113,6.113,0,0,1,2.773.589A4.286,4.286,0,0,1-7.835-7,4.452,4.452,0,0,1-7.207-4.658Zm-3.8.018q0-1.837-1.406-1.837t-1.406,1.925q0,2.03,1.424,2.03Q-11-2.522-11-4.641ZM10.8-9.65a2.577,2.577,0,0,1-.839,1.969A4.508,4.508,0,0,1,7.655-6.627v.035a2.94,2.94,0,0,1,1.854.866A2.568,2.568,0,0,1,10.178-3.9a3.341,3.341,0,0,1-.659,2.07A4.185,4.185,0,0,1,7.581-.479,8.92,8.92,0,0,1,4.465,0h-5.9L1.23-12.6H6.416a6.037,6.037,0,0,1,3.3.721A2.494,2.494,0,0,1,10.8-9.65Zm-4.025.738A1.031,1.031,0,0,0,6.42-9.8a2.179,2.179,0,0,0-1.235-.259H4.491l-.51,2.382H5.168a1.8,1.8,0,0,0,1.156-.36A1.08,1.08,0,0,0,6.776-8.912ZM6.144-3.981a1.1,1.1,0,0,0-.334-.835,1.288,1.288,0,0,0-.923-.316H3.463l-.58,2.575H4.219A2.314,2.314,0,0,0,5.634-2.94,1.232,1.232,0,0,0,6.144-3.981ZM17-11.522a1.691,1.691,0,0,1-.611,1.354,2.394,2.394,0,0,1-1.6.519,2.163,2.163,0,0,1-1.433-.461,1.444,1.444,0,0,1-.554-1.156,1.708,1.708,0,0,1,.615-1.367,2.412,2.412,0,0,1,1.617-.523,2.163,2.163,0,0,1,1.415.453A1.454,1.454,0,0,1,17-11.522ZM14.115.22a2.982,2.982,0,0,1-2.083-.694,2.372,2.372,0,0,1-.765-1.846,6.335,6.335,0,0,1,.185-1.371L12.6-9h3.744l-1.1,5.186a2.972,2.972,0,0,0-.088.686q0,.5.606.5a2.458,2.458,0,0,0,.993-.22l-.58,2.725a3.613,3.613,0,0,1-.8.233A6.462,6.462,0,0,1,14.115.22Zm5.133,4.008a7.978,7.978,0,0,1-3.023-.606L16.84.773a5.134,5.134,0,0,0,1.327.637,4.509,4.509,0,0,0,1.354.224,2.829,2.829,0,0,0,1.934-.6,3.217,3.217,0,0,0,.932-1.811l.141-.686h-.035A3.8,3.8,0,0,1,21.23-.211,3.08,3.08,0,0,1,19.644.22a2.446,2.446,0,0,1-2.017-.914,3.834,3.834,0,0,1-.734-2.47,6.34,6.34,0,0,1,.813-3.217,5.236,5.236,0,0,1,2.237-2.127,7.3,7.3,0,0,1,3.3-.712,18.883,18.883,0,0,1,2.25.145,21.636,21.636,0,0,1,2.3.4L26.271-1.441a8.945,8.945,0,0,1-1.3,3.335,5.079,5.079,0,0,1-2.237,1.753A9.141,9.141,0,0,1,19.248,4.228Zm4.43-11.013a2.654,2.654,0,0,0-.606-.053,1.968,1.968,0,0,0-1.23.435,2.961,2.961,0,0,0-.892,1.2,3.99,3.99,0,0,0-.33,1.6,1.235,1.235,0,0,0,.229.8.7.7,0,0,0,.563.277,1.4,1.4,0,0,0,1.112-.708,5.8,5.8,0,0,0,.813-2.061Zm22.808-.7a8.221,8.221,0,0,1-.936,3.973A6.253,6.253,0,0,1,42.921-.892a8.471,8.471,0,0,1-4,.892h-5.88L35.7-12.6H40.72a6.149,6.149,0,0,1,4.307,1.345A4.872,4.872,0,0,1,46.485-7.488Zm-4.034.29a2.4,2.4,0,0,0-.642-1.828,2.779,2.779,0,0,0-1.969-.606h-.976l-1.4,6.662h1.274a3.412,3.412,0,0,0,2.725-1.138A4.563,4.563,0,0,0,42.451-7.2ZM56.575,0H52.866q0-.281.132-1.6h-.035A3.758,3.758,0,0,1,49.957.22,2.459,2.459,0,0,1,47.9-.7,4.105,4.105,0,0,1,47.18-3.3a6.325,6.325,0,0,1,.461-2.355,5.355,5.355,0,0,1,1.274-1.934,5.663,5.663,0,0,1,2-1.2A7.952,7.952,0,0,1,53.64-9.22a19.528,19.528,0,0,1,4.447.545L56.918-3.164a14.167,14.167,0,0,0-.242,1.582A15.619,15.619,0,0,0,56.575,0Zm-2.61-6.785a2.264,2.264,0,0,0-.536-.053,2.116,2.116,0,0,0-1.266.4,2.811,2.811,0,0,0-.91,1.213A4.07,4.07,0,0,0,50.906-3.6a1.235,1.235,0,0,0,.229.8.7.7,0,0,0,.563.277,1.4,1.4,0,0,0,1.134-.716,5.742,5.742,0,0,0,.791-2.052Zm11.5.378H63.448L62.93-3.964a4.562,4.562,0,0,0-.123.905q0,.536.624.536a3.58,3.58,0,0,0,1.2-.246L64.1-.176A6.048,6.048,0,0,1,62.925.1,8.951,8.951,0,0,1,61.559.22q-2.593,0-2.593-2.452a5.52,5.52,0,0,1,.119-.94q.119-.624.672-3.234H58.395L59.019-9H60.3l.431-2.074,3.9-.9L64.011-9h2.083ZM75.331,0H71.622q0-.281.132-1.6h-.035A3.758,3.758,0,0,1,68.713.22,2.459,2.459,0,0,1,66.661-.7,4.105,4.105,0,0,1,65.936-3.3,6.325,6.325,0,0,1,66.4-5.651a5.355,5.355,0,0,1,1.274-1.934,5.663,5.663,0,0,1,2-1.2A7.952,7.952,0,0,1,72.4-9.22a19.528,19.528,0,0,1,4.447.545L75.674-3.164a14.167,14.167,0,0,0-.242,1.582A15.619,15.619,0,0,0,75.331,0Zm-2.61-6.785a2.264,2.264,0,0,0-.536-.053,2.116,2.116,0,0,0-1.266.4,2.811,2.811,0,0,0-.91,1.213A4.07,4.07,0,0,0,69.662-3.6a1.235,1.235,0,0,0,.229.8.7.7,0,0,0,.563.277,1.4,1.4,0,0,0,1.134-.716,5.742,5.742,0,0,0,.791-2.052Z" transform="translate(763 7930.579)" fill="#12263f"/>
    <path id="Trazado_601018" data-name="Trazado 601018" d="M20,0H515.15a20,20,0,0,1,20,20V177a20,20,0,0,1-20,20H20A20,20,0,0,1,0,177V20A20,20,0,0,1,20,0Z" transform="translate(276 7960.579)" fill="#ff6148"/>
    <path id="Trazado_601011" data-name="Trazado 601011" d="M20,0H406.366a20,20,0,0,1,20,20V177a20,20,0,0,1-20,20H20A20,20,0,0,1,0,177V20A20,20,0,0,1,20,0Z" transform="translate(824 7960.579)" fill="#ffb476"/>
    <path id="Trazado_601021" data-name="Trazado 601021" d="M-63.018-.826A8.127,8.127,0,0,1-65.145-.1a12.21,12.21,0,0,1-2.7.321,7.285,7.285,0,0,1-5.115-1.657,5.994,5.994,0,0,1-1.8-4.645,6.92,6.92,0,0,1,.91-3.56,5.9,5.9,0,0,1,2.562-2.364,8.766,8.766,0,0,1,3.894-.809,14.489,14.489,0,0,1,3.507.466v3.313a7.456,7.456,0,0,0-1.67-.549,9.275,9.275,0,0,0-1.749-.154A3.341,3.341,0,0,0-69.8-8.8a3.52,3.52,0,0,0-.927,2.584,3.609,3.609,0,0,0,.778,2.461,2.739,2.739,0,0,0,2.175.888,4.709,4.709,0,0,0,.958-.07v-1.8h-2.417V-7.611h6.214Zm4.931-2.61a1.265,1.265,0,0,0,.668.91,3.012,3.012,0,0,0,1.512.33,6.226,6.226,0,0,0,2.479-.5V-.325a8.908,8.908,0,0,1-3.3.545A5.214,5.214,0,0,1-60.4-.984,4.277,4.277,0,0,1-61.708-4.3a5.467,5.467,0,0,1,.576-2.558,4.142,4.142,0,0,1,1.705-1.736,5.038,5.038,0,0,1,2.492-.628,4.9,4.9,0,0,1,2.391.545,3.63,3.63,0,0,1,1.507,1.529,4.906,4.906,0,0,1,.514,2.3v1.406Zm2.25-1.96q0-1.556-1.116-1.556a.944.944,0,0,0-.782.426A2.127,2.127,0,0,0-58.1-5.4Zm11.918,2.408A2.749,2.749,0,0,1-45.083-.62,5.474,5.474,0,0,1-48.331.22,11.291,11.291,0,0,1-49.83.1a9.257,9.257,0,0,1-1.455-.3V-2.83a7.162,7.162,0,0,0,2.777.738q1.1,0,1.1-.571a.451.451,0,0,0-.255-.391A9.009,9.009,0,0,0-49-3.568a3.773,3.773,0,0,1-1.74-1A2.382,2.382,0,0,1-51.284-6.2a2.594,2.594,0,0,1,1.112-2.21,5.216,5.216,0,0,1,3.125-.813,9.931,9.931,0,0,1,2.5.343v2.522a7.549,7.549,0,0,0-1.213-.4,4.9,4.9,0,0,0-1.107-.158,1.205,1.205,0,0,0-.589.123.379.379,0,0,0-.22.343.478.478,0,0,0,.237.413,4.2,4.2,0,0,0,.949.378,4.4,4.4,0,0,1,1.978,1.037A2.272,2.272,0,0,1-43.919-2.988ZM-36.2-.123a3.648,3.648,0,0,1-.835.233,7.634,7.634,0,0,1-1.4.11,3.357,3.357,0,0,1-2.448-.861,3.269,3.269,0,0,1-.883-2.452V-6.407h-1.415V-9h1.415v-1.767l3.691-1.02V-9H-36.2v2.593h-1.872v2.7q0,1.187.94,1.187a2.551,2.551,0,0,0,.932-.193Zm5.133-11.3a1.608,1.608,0,0,1-.576,1.283,2.252,2.252,0,0,1-1.516.492,2.2,2.2,0,0,1-1.5-.51,1.612,1.612,0,0,1-.584-1.266,1.561,1.561,0,0,1,.567-1.252,2.272,2.272,0,0,1,1.516-.479,2.293,2.293,0,0,1,1.516.479A1.551,1.551,0,0,1-31.069-11.426ZM-35.033,0V-9h3.744V0Zm15.557-4.658a4.687,4.687,0,0,1-1.375,3.577A5.375,5.375,0,0,1-24.7.22a5.4,5.4,0,0,1-3.819-1.27,4.546,4.546,0,0,1-1.367-3.5,4.692,4.692,0,0,1,.642-2.487,4.172,4.172,0,0,1,1.828-1.617A6.311,6.311,0,0,1-24.68-9.22a6.113,6.113,0,0,1,2.773.589A4.286,4.286,0,0,1-20.1-7,4.452,4.452,0,0,1-19.477-4.658Zm-3.8.018q0-1.837-1.406-1.837t-1.406,1.925q0,2.03,1.424,2.03Q-23.273-2.522-23.273-4.641Zm-.94-5.783h-2.646l2.628-2.821h3.146ZM-12.243,0V-4.913a2.184,2.184,0,0,0-.25-1.2.915.915,0,0,0-.813-.365.88.88,0,0,0-.756.378,1.613,1.613,0,0,0-.272.967V0h-3.744V-9h3.744v1.406h.035a3.177,3.177,0,0,1,1.2-1.2,3.29,3.29,0,0,1,1.644-.426Q-8.5-9.22-8.5-5.493V0ZM4.2,0V-1.046H4.166A3.089,3.089,0,0,1,3-.119,3.331,3.331,0,0,1,1.573.22,3.663,3.663,0,0,1-.457-.347,3.443,3.443,0,0,1-1.771-1.934a6.106,6.106,0,0,1-.435-2.408,5.925,5.925,0,0,1,.519-2.54A4.059,4.059,0,0,1-.229-8.6,3.769,3.769,0,0,1,1.881-9.22,3.193,3.193,0,0,1,2.9-9.062a2.77,2.77,0,0,1,.817.426,1.273,1.273,0,0,1,.444.532H4.2v-5.221H7.945V0ZM4.28-4.772a1.974,1.974,0,0,0-.356-1.257,1.164,1.164,0,0,0-.962-.448,1.155,1.155,0,0,0-.989.558,2.593,2.593,0,0,0-.382,1.49q0,1.907,1.318,1.907a1.173,1.173,0,0,0,1-.514,2.531,2.531,0,0,0,.374-1.5Zm8.692,1.336a1.265,1.265,0,0,0,.668.91,3.012,3.012,0,0,0,1.512.33,6.226,6.226,0,0,0,2.479-.5V-.325a8.908,8.908,0,0,1-3.3.545,5.214,5.214,0,0,1-3.665-1.2A4.277,4.277,0,0,1,9.352-4.3a5.467,5.467,0,0,1,.576-2.558,4.142,4.142,0,0,1,1.705-1.736,5.038,5.038,0,0,1,2.492-.628,4.9,4.9,0,0,1,2.391.545,3.63,3.63,0,0,1,1.507,1.529,4.906,4.906,0,0,1,.514,2.3v1.406Zm2.25-1.96q0-1.556-1.116-1.556a.944.944,0,0,0-.782.426A2.127,2.127,0,0,0,12.955-5.4ZM37.055-6.46a6.954,6.954,0,0,1-.8,3.388A5.542,5.542,0,0,1,33.952-.8a7.189,7.189,0,0,1-3.445.8H25.172V-12.6h5.221Q37.055-12.6,37.055-6.46Zm-4.034.035a3.627,3.627,0,0,0-.374-1.661,2.7,2.7,0,0,0-1.068-1.143,3.191,3.191,0,0,0-1.635-.4h-.976v6.662h1.063a2.736,2.736,0,0,0,2.175-.936A3.707,3.707,0,0,0,33.021-6.425ZM43.479,0V-1.371h-.035A2.944,2.944,0,0,1,40.7.22a2.625,2.625,0,0,1-2-.756,2.808,2.808,0,0,1-.721-2.021q0-2.654,3.261-3.076l2.232-.29a.851.851,0,0,0-.4-.721,1.8,1.8,0,0,0-1.063-.281,7,7,0,0,0-3.19.861V-8.5a8.535,8.535,0,0,1,1.828-.519,10.639,10.639,0,0,1,1.881-.2,4.722,4.722,0,0,1,3.327.98A4.368,4.368,0,0,1,46.9-4.966V0ZM41.265-3.059a.83.83,0,0,0,.233.606.888.888,0,0,0,.664.237,1.18,1.18,0,0,0,.954-.439,1.7,1.7,0,0,0,.365-1.125v-.343l-1.266.176Q41.265-3.788,41.265-3.059ZM54.923-.123a3.648,3.648,0,0,1-.835.233,7.634,7.634,0,0,1-1.4.11,3.357,3.357,0,0,1-2.448-.861,3.269,3.269,0,0,1-.883-2.452V-6.407H47.944V-9h1.415v-1.767l3.691-1.02V-9h1.872v2.593H53.051v2.7q0,1.187.94,1.187a2.551,2.551,0,0,0,.932-.193ZM66.1-4.658a4.687,4.687,0,0,1-1.375,3.577A5.375,5.375,0,0,1,60.882.22a5.4,5.4,0,0,1-3.819-1.27,4.546,4.546,0,0,1-1.367-3.5,4.692,4.692,0,0,1,.642-2.487,4.172,4.172,0,0,1,1.828-1.617A6.311,6.311,0,0,1,60.9-9.22a6.113,6.113,0,0,1,2.773.589A4.286,4.286,0,0,1,65.474-7,4.452,4.452,0,0,1,66.1-4.658Zm-3.8.018q0-1.837-1.406-1.837T59.493-4.553q0,2.03,1.424,2.03Q62.306-2.522,62.306-4.641ZM74.813-2.988A2.749,2.749,0,0,1,73.648-.62,5.474,5.474,0,0,1,70.4.22,11.291,11.291,0,0,1,68.9.1a9.257,9.257,0,0,1-1.455-.3V-2.83a7.162,7.162,0,0,0,2.777.738q1.1,0,1.1-.571a.451.451,0,0,0-.255-.391,9.009,9.009,0,0,0-1.336-.514,3.773,3.773,0,0,1-1.74-1A2.382,2.382,0,0,1,67.447-6.2a2.594,2.594,0,0,1,1.112-2.21,5.216,5.216,0,0,1,3.125-.813,9.931,9.931,0,0,1,2.5.343v2.522a7.549,7.549,0,0,0-1.213-.4,4.9,4.9,0,0,0-1.107-.158,1.205,1.205,0,0,0-.589.123.379.379,0,0,0-.22.343.478.478,0,0,0,.237.413,4.2,4.2,0,0,0,.949.378,4.4,4.4,0,0,1,1.978,1.037A2.272,2.272,0,0,1,74.813-2.988Z" transform="translate(544 8004)" fill="#12263f"/>
    <path id="Trazado_601014" data-name="Trazado 601014" d="M-29.87,0l-.554-2.32h-3.762l-.6,2.32h-4.1l4.342-12.6h4.711L-25.748,0ZM-32.26-9.861h-.088a6.123,6.123,0,0,1-.123.694q-.105.483-1.063,4.148h2.408l-.879-3.428A10.84,10.84,0,0,1-32.26-9.861ZM-18.778,0V-4.913a2.184,2.184,0,0,0-.25-1.2.915.915,0,0,0-.813-.365A.88.88,0,0,0-20.6-6.1a1.613,1.613,0,0,0-.272.967V0h-3.744V-9h3.744v1.406h.035a3.177,3.177,0,0,1,1.2-1.2,3.29,3.29,0,0,1,1.644-.426q2.953,0,2.953,3.727V0ZM-8.354,0V-1.371h-.035A2.944,2.944,0,0,1-11.131.22a2.625,2.625,0,0,1-2-.756,2.808,2.808,0,0,1-.721-2.021q0-2.654,3.261-3.076l2.232-.29a.851.851,0,0,0-.4-.721,1.8,1.8,0,0,0-1.063-.281A7,7,0,0,0-13-6.064V-8.5a8.535,8.535,0,0,1,1.828-.519,10.639,10.639,0,0,1,1.881-.2,4.722,4.722,0,0,1,3.327.98A4.368,4.368,0,0,1-4.935-4.966V0Zm-2.215-3.059a.83.83,0,0,0,.233.606.888.888,0,0,0,.664.237,1.18,1.18,0,0,0,.954-.439,1.7,1.7,0,0,0,.365-1.125v-.343l-1.266.176Q-10.569-3.788-10.569-3.059ZM-3.248,0V-13.324H.5V0ZM2.3,0V-9H6.042V0ZM4.636-10.424H1.991l2.628-2.821H7.765Zm9.545,10.3a3.648,3.648,0,0,1-.835.233,7.634,7.634,0,0,1-1.4.11A3.357,3.357,0,0,1,9.5-.642a3.269,3.269,0,0,1-.883-2.452V-6.407H7.2V-9H8.618v-1.767l3.691-1.02V-9h1.872v2.593H12.309v2.7q0,1.187.94,1.187a2.551,2.551,0,0,0,.932-.193Zm5.133-11.3a1.608,1.608,0,0,1-.576,1.283,2.252,2.252,0,0,1-1.516.492,2.2,2.2,0,0,1-1.5-.51,1.612,1.612,0,0,1-.584-1.266,1.561,1.561,0,0,1,.567-1.252,2.272,2.272,0,0,1,1.516-.479,2.293,2.293,0,0,1,1.516.479A1.551,1.551,0,0,1,19.314-11.426ZM15.35,0V-9h3.744V0ZM28.314-.255A3.529,3.529,0,0,1,27.18.088,10.719,10.719,0,0,1,25.4.22a5.488,5.488,0,0,1-2.544-.576,4.2,4.2,0,0,1-1.736-1.613A4.478,4.478,0,0,1,20.5-4.3a5.1,5.1,0,0,1,.655-2.65,4.268,4.268,0,0,1,1.868-1.687,6.407,6.407,0,0,1,2.813-.584,9.839,9.839,0,0,1,1.578.114,2.411,2.411,0,0,1,.9.264v2.918a2.6,2.6,0,0,0-.809-.387,3.248,3.248,0,0,0-.976-.167,2.375,2.375,0,0,0-1.666.523A1.9,1.9,0,0,0,24.3-4.482a1.868,1.868,0,0,0,.558,1.446,2.177,2.177,0,0,0,1.534.514,3.82,3.82,0,0,0,1.925-.5ZM34.8,0V-1.371h-.035A2.944,2.944,0,0,1,32.023.22a2.625,2.625,0,0,1-2-.756,2.808,2.808,0,0,1-.721-2.021q0-2.654,3.261-3.076l2.232-.29a.851.851,0,0,0-.4-.721,1.8,1.8,0,0,0-1.063-.281,7,7,0,0,0-3.19.861V-8.5a8.535,8.535,0,0,1,1.828-.519,10.639,10.639,0,0,1,1.881-.2,4.722,4.722,0,0,1,3.327.98,4.368,4.368,0,0,1,1.033,3.274V0ZM32.585-3.059a.83.83,0,0,0,.233.606.888.888,0,0,0,.664.237,1.18,1.18,0,0,0,.954-.439A1.7,1.7,0,0,0,34.8-3.779v-.343l-1.266.176Q32.585-3.788,32.585-3.059Z" transform="translate(1037 8004)" fill="#12263f"/>
    <path id="Trazado_601024" data-name="Trazado 601024" d="M10,0H146.911a10,10,0,0,1,10,10V92.485a10,10,0,0,1-10,10H10a10,10,0,0,1-10-10V10A10,10,0,0,1,10,0Z" transform="translate(297 8032)" fill="#fff"/>
    <path id="Trazado_601022" data-name="Trazado 601022" d="M10,0H146.911a10,10,0,0,1,10,10V92.485a10,10,0,0,1-10,10H10a10,10,0,0,1-10-10V10A10,10,0,0,1,10,0Z" transform="translate(465 8032)" fill="#fff"/>
    <path id="Trazado_601019" data-name="Trazado 601019" d="M10,0H146.911a10,10,0,0,1,10,10V92.485a10,10,0,0,1-10,10H10a10,10,0,0,1-10-10V10A10,10,0,0,1,10,0Z" transform="translate(634 8032)" fill="#fff"/>
    <path id="Trazado_601015" data-name="Trazado 601015" d="M10,0H173.94a10,10,0,0,1,10,10V92.485a10,10,0,0,1-10,10H10a10,10,0,0,1-10-10V10A10,10,0,0,1,10,0Z" transform="translate(844 8032)" fill="#fff"/>
    <path id="Trazado_601012" data-name="Trazado 601012" d="M10,0H173.94a10,10,0,0,1,10,10V92.485a10,10,0,0,1-10,10H10a10,10,0,0,1-10-10V10A10,10,0,0,1,10,0Z" transform="translate(1048 8032)" fill="#fff"/>
    <path id="Trazado_601025" data-name="Trazado 601025" d="M11.344,17H8.594l-.8-2.492H3.813L3.023,17H.289L4.367,5.8H7.359ZM7.219,12.57,6.016,8.8A4.907,4.907,0,0,1,5.828,7.8H5.766a4.273,4.273,0,0,1-.2.977l-1.219,3.8ZM20.328,17H17.859V15.9h-.031a2.768,2.768,0,0,1-2.477,1.3,3.033,3.033,0,0,1-2.414-1.059,4.382,4.382,0,0,1-.914-2.957A4.77,4.77,0,0,1,13.031,10a3.287,3.287,0,0,1,2.641-1.2,2.246,2.246,0,0,1,2.156,1.109h.031V5.156h2.469Zm-2.422-3.891v-.6a1.893,1.893,0,0,0-.453-1.3,1.6,1.6,0,0,0-2.461.129,2.993,2.993,0,0,0-.461,1.77,2.59,2.59,0,0,0,.445,1.625,1.581,1.581,0,0,0,2.457-.031A2.507,2.507,0,0,0,17.906,13.109Zm12.328,7.57H27.766V15.9h-.031a2.742,2.742,0,0,1-2.461,1.3,3.064,3.064,0,0,1-2.426-1.051A4.339,4.339,0,0,1,21.93,13.2,4.794,4.794,0,0,1,22.938,10a3.271,3.271,0,0,1,2.625-1.2A2.381,2.381,0,0,1,27.734,9.93h.031V9h2.469Zm-2.422-7.5v-.641a1.952,1.952,0,0,0-.453-1.312A1.46,1.46,0,0,0,26.2,10.7a1.507,1.507,0,0,0-1.289.645,2.986,2.986,0,0,0-.469,1.785,2.52,2.52,0,0,0,.457,1.6,1.448,1.448,0,0,0,1.191.578,1.53,1.53,0,0,0,1.254-.586A2.376,2.376,0,0,0,27.813,13.18ZM39.914,17H37.453V15.781h-.039A2.792,2.792,0,0,1,34.969,17.2q-2.781,0-2.781-3.367V9h2.461v4.609q0,1.7,1.344,1.7a1.329,1.329,0,0,0,1.063-.465,1.874,1.874,0,0,0,.4-1.262V9h2.461Zm3.328-9.266a1.442,1.442,0,0,1-1.023-.371,1.2,1.2,0,0,1-.4-.91,1.153,1.153,0,0,1,.4-.906,1.671,1.671,0,0,1,2.051,0,1.158,1.158,0,0,1,.395.906,1.191,1.191,0,0,1-.395.922A1.466,1.466,0,0,1,43.242,7.734ZM44.461,17H41.992V9h2.469Zm1.555-.211v-2a5.256,5.256,0,0,0,1.215.547,4.028,4.028,0,0,0,1.145.18,2.455,2.455,0,0,0,1.035-.18.581.581,0,0,0,.379-.547.506.506,0,0,0-.172-.391,1.6,1.6,0,0,0-.441-.273,5.009,5.009,0,0,0-.59-.211q-.32-.094-.617-.211a5.914,5.914,0,0,1-.84-.387,2.427,2.427,0,0,1-.609-.48,1.889,1.889,0,0,1-.375-.633,2.525,2.525,0,0,1-.129-.852,2.192,2.192,0,0,1,.293-1.156A2.393,2.393,0,0,1,47.09,9.4a3.57,3.57,0,0,1,1.117-.453A5.825,5.825,0,0,1,49.516,8.8a7.261,7.261,0,0,1,1.078.082,8.047,8.047,0,0,1,1.078.238v1.906a3.9,3.9,0,0,0-1-.41,4.235,4.235,0,0,0-1.051-.137,2.328,2.328,0,0,0-.457.043,1.505,1.505,0,0,0-.379.125.7.7,0,0,0-.258.211.486.486,0,0,0-.094.293.541.541,0,0,0,.141.375,1.221,1.221,0,0,0,.367.27,3.625,3.625,0,0,0,.5.2q.277.09.551.184a7.161,7.161,0,0,1,.891.375,2.848,2.848,0,0,1,.684.477A1.871,1.871,0,0,1,52,13.68a2.563,2.563,0,0,1-.156,2.09,2.471,2.471,0,0,1-.82.82,3.72,3.72,0,0,1-1.18.461,6.54,6.54,0,0,1-1.387.145A7.149,7.149,0,0,1,46.016,16.789Zm8.813-9.055A1.442,1.442,0,0,1,53.8,7.363a1.2,1.2,0,0,1-.4-.91,1.153,1.153,0,0,1,.4-.906,1.671,1.671,0,0,1,2.051,0,1.158,1.158,0,0,1,.395.906,1.191,1.191,0,0,1-.395.922A1.466,1.466,0,0,1,54.828,7.734ZM56.047,17H53.578V9h2.469Zm8.141-.289a4.881,4.881,0,0,1-2.414.484,4.083,4.083,0,0,1-2.984-1.117A3.859,3.859,0,0,1,57.648,13.2,4.251,4.251,0,0,1,58.871,9.98,4.518,4.518,0,0,1,62.141,8.8a4.2,4.2,0,0,1,2.047.375v2.094a2.814,2.814,0,0,0-1.727-.578,2.275,2.275,0,0,0-1.684.621,2.317,2.317,0,0,0-.621,1.715A2.28,2.28,0,0,0,60.75,14.7a2.182,2.182,0,0,0,1.633.605,3.258,3.258,0,0,0,1.8-.578Zm2.867-8.977a1.442,1.442,0,0,1-1.023-.371,1.2,1.2,0,0,1-.4-.91,1.153,1.153,0,0,1,.4-.906,1.671,1.671,0,0,1,2.051,0,1.158,1.158,0,0,1,.395.906,1.191,1.191,0,0,1-.395.922A1.466,1.466,0,0,1,67.055,7.734ZM68.273,17H65.8V9h2.469Zm5.891.2a4.3,4.3,0,0,1-3.145-1.121,4.064,4.064,0,0,1-1.145-3.043,4.065,4.065,0,0,1,1.188-3.105A4.487,4.487,0,0,1,74.273,8.8,4.249,4.249,0,0,1,77.4,9.926a3.985,3.985,0,0,1,1.133,2.965,4.23,4.23,0,0,1-1.168,3.148A4.348,4.348,0,0,1,74.164,17.2Zm.063-6.5a1.647,1.647,0,0,0-1.359.6,2.653,2.653,0,0,0-.484,1.7q0,2.3,1.859,2.3,1.773,0,1.773-2.367Q76.016,10.7,74.227,10.7Zm2.648-5.484L74.43,7.734H72.648L74.68,5.211ZM87.852,17H85.391V12.555q0-1.859-1.328-1.859a1.318,1.318,0,0,0-1.055.492,1.875,1.875,0,0,0-.414,1.25V17H80.125V9h2.469v1.266h.031A2.829,2.829,0,0,1,85.2,8.8q2.656,0,2.656,3.3Zm13.984-8-3.25,8.641q-1.172,3.117-3.531,3.117a4.524,4.524,0,0,1-1.477-.2V18.586a2.076,2.076,0,0,0,1.07.289,1.337,1.337,0,0,0,1.328-.9l.422-.992L93.148,9h2.734l1.492,4.867a6.325,6.325,0,0,1,.219,1.07h.031a7.463,7.463,0,0,1,.258-1.055L99.391,9ZM30.426,37h-2.9l-1.742-2.883q-.2-.328-.375-.586a3.255,3.255,0,0,0-.363-.441,1.445,1.445,0,0,0-.383-.281.972.972,0,0,0-.434-.1h-.68V37H21.027V25.8h4q4.078,0,4.078,3.047a3.155,3.155,0,0,1-.18,1.082,3.006,3.006,0,0,1-.508.895,3.219,3.219,0,0,1-.793.688,4.089,4.089,0,0,1-1.035.453v.031a1.606,1.606,0,0,1,.484.254,3.469,3.469,0,0,1,.453.41,5.722,5.722,0,0,1,.418.5q.2.27.363.527Zm-6.875-9.312V30.8h1.094a1.813,1.813,0,0,0,1.3-.469,1.564,1.564,0,0,0,.5-1.18q0-1.469-1.758-1.469ZM38.02,33.7H32.8q.125,1.742,2.2,1.742a4.286,4.286,0,0,0,2.32-.625V36.6a6.1,6.1,0,0,1-2.883.594,3.724,3.724,0,0,1-4.078-4.07,4.281,4.281,0,0,1,1.156-3.156A3.852,3.852,0,0,1,34.355,28.8a3.5,3.5,0,0,1,2.707,1.039,4,4,0,0,1,.957,2.82ZM35.73,32.188q0-1.719-1.391-1.719a1.328,1.328,0,0,0-1.027.492,2.234,2.234,0,0,0-.527,1.227Zm11.6,3.9a4.526,4.526,0,0,1-1.289,3.449,5.224,5.224,0,0,1-3.734,1.223,5.919,5.919,0,0,1-2.562-.461V38.219a4.907,4.907,0,0,0,2.492.719,2.684,2.684,0,0,0,1.938-.66,2.369,2.369,0,0,0,.688-1.793v-.633h-.031A2.757,2.757,0,0,1,42.34,37.2a3,3,0,0,1-2.43-1.078,4.372,4.372,0,0,1-.9-2.891,4.87,4.87,0,0,1,1-3.227,3.265,3.265,0,0,1,2.633-1.2,2.429,2.429,0,0,1,2.188,1.125h.031V29h2.469Zm-2.437-2.93v-.633a1.945,1.945,0,0,0-.449-1.293,1.453,1.453,0,0,0-1.168-.535,1.51,1.51,0,0,0-1.289.641,3.012,3.012,0,0,0-.469,1.8,2.543,2.543,0,0,0,.445,1.582,1.451,1.451,0,0,0,1.219.582,1.511,1.511,0,0,0,1.238-.59A2.418,2.418,0,0,0,44.895,33.156Zm5.75-5.422a1.442,1.442,0,0,1-1.023-.371,1.2,1.2,0,0,1-.4-.91,1.153,1.153,0,0,1,.4-.906,1.671,1.671,0,0,1,2.051,0,1.158,1.158,0,0,1,.395.906,1.191,1.191,0,0,1-.395.922A1.466,1.466,0,0,1,50.645,27.734ZM51.863,37H49.395V29h2.469Zm1.555-.211v-2a5.256,5.256,0,0,0,1.215.547,4.028,4.028,0,0,0,1.145.18,2.455,2.455,0,0,0,1.035-.18.581.581,0,0,0,.379-.547.506.506,0,0,0-.172-.391,1.6,1.6,0,0,0-.441-.273,5.009,5.009,0,0,0-.59-.211q-.32-.094-.617-.211a5.914,5.914,0,0,1-.84-.387,2.427,2.427,0,0,1-.609-.48,1.889,1.889,0,0,1-.375-.633,2.525,2.525,0,0,1-.129-.852,2.192,2.192,0,0,1,.293-1.156,2.393,2.393,0,0,1,.781-.793,3.57,3.57,0,0,1,1.117-.453,5.825,5.825,0,0,1,1.309-.145A7.261,7.261,0,0,1,58,28.887a8.047,8.047,0,0,1,1.078.238v1.906a3.9,3.9,0,0,0-1-.41,4.235,4.235,0,0,0-1.051-.137,2.328,2.328,0,0,0-.457.043,1.505,1.505,0,0,0-.379.125.7.7,0,0,0-.258.211.486.486,0,0,0-.094.293.541.541,0,0,0,.141.375,1.221,1.221,0,0,0,.367.27,3.625,3.625,0,0,0,.5.2q.277.09.551.184a7.161,7.161,0,0,1,.891.375,2.848,2.848,0,0,1,.684.477,1.871,1.871,0,0,1,.438.641,2.563,2.563,0,0,1-.156,2.09,2.471,2.471,0,0,1-.82.82,3.72,3.72,0,0,1-1.18.461,6.54,6.54,0,0,1-1.387.145A7.149,7.149,0,0,1,53.418,36.789Zm12.4.117a3.649,3.649,0,0,1-1.648.289q-2.609,0-2.609-2.711V30.82h-1.3V29h1.3V27.273l2.461-.7V29h1.8v1.82h-1.8v3.234q0,1.25.992,1.25a1.673,1.673,0,0,0,.8-.227Zm6.609-5.68a2.141,2.141,0,0,0-1.039-.242,1.5,1.5,0,0,0-1.258.59,2.573,2.573,0,0,0-.453,1.605V37H67.207V29h2.469v1.484h.031a2.136,2.136,0,0,1,2.109-1.625,1.59,1.59,0,0,1,.609.094Zm4.9,5.969a4.3,4.3,0,0,1-3.145-1.121,4.064,4.064,0,0,1-1.145-3.043,4.065,4.065,0,0,1,1.188-3.105A4.487,4.487,0,0,1,77.434,28.8a4.249,4.249,0,0,1,3.125,1.121,3.985,3.985,0,0,1,1.133,2.965,4.23,4.23,0,0,1-1.168,3.148A4.348,4.348,0,0,1,77.324,37.2Zm.063-6.5a1.647,1.647,0,0,0-1.359.6,2.653,2.653,0,0,0-.484,1.7q0,2.3,1.859,2.3,1.773,0,1.773-2.367Q79.176,30.7,77.387,30.7Z" transform="translate(324 8063)" fill="#12263f"/>
    <path id="Trazado_601023" data-name="Trazado 601023" d="M10.043,17H3.324V5.8H9.785V7.852H5.848v2.492H9.512v2.047H5.848v2.563h4.2Zm9.281-8-2.641,3.875L19.309,17H16.465l-1.156-2.156q-.141-.258-.336-.727h-.031a5.073,5.073,0,0,1-.32.7L13.457,17H10.621l2.7-3.984L10.785,9h2.859l1.141,2.242a4.917,4.917,0,0,1,.32.75h.031a5.285,5.285,0,0,1,.336-.766L16.637,9Zm5.945,7.906a3.649,3.649,0,0,1-1.648.289q-2.609,0-2.609-2.711V10.82h-1.3V9h1.3V7.273l2.461-.7V9h1.8v1.82h-1.8v3.234q0,1.25.992,1.25a1.673,1.673,0,0,0,.8-.227Zm6.609-5.68a2.142,2.142,0,0,0-1.039-.242,1.5,1.5,0,0,0-1.258.59,2.573,2.573,0,0,0-.453,1.605V17H26.66V9h2.469v1.484h.031A2.136,2.136,0,0,1,31.27,8.859a1.59,1.59,0,0,1,.609.094ZM39.684,17H37.348V15.852h-.031A2.607,2.607,0,0,1,34.934,17.2a2.492,2.492,0,0,1-1.832-.66,2.366,2.366,0,0,1-.668-1.762q0-2.328,2.758-2.687l2.172-.289q0-1.312-1.422-1.312a4.853,4.853,0,0,0-2.719.852V9.477a6.116,6.116,0,0,1,1.41-.469,7.413,7.413,0,0,1,1.629-.2q3.422,0,3.422,3.414Zm-2.32-3.25v-.539L35.91,13.4q-1.2.156-1.2,1.086a.9.9,0,0,0,.293.691,1.126,1.126,0,0,0,.793.27,1.462,1.462,0,0,0,1.133-.48A1.735,1.735,0,0,0,37.363,13.75ZM47.7,16.711a4.881,4.881,0,0,1-2.414.484A4.083,4.083,0,0,1,42.3,16.078,3.859,3.859,0,0,1,41.16,13.2,4.251,4.251,0,0,1,42.383,9.98,4.518,4.518,0,0,1,45.652,8.8,4.2,4.2,0,0,1,47.7,9.18v2.094a2.814,2.814,0,0,0-1.727-.578,2.275,2.275,0,0,0-1.684.621,2.317,2.317,0,0,0-.621,1.715,2.28,2.28,0,0,0,.594,1.668,2.182,2.182,0,0,0,1.633.605,3.258,3.258,0,0,0,1.8-.578Zm7.68,0a4.881,4.881,0,0,1-2.414.484,4.083,4.083,0,0,1-2.984-1.117A3.859,3.859,0,0,1,48.84,13.2,4.251,4.251,0,0,1,50.063,9.98,4.518,4.518,0,0,1,53.332,8.8a4.2,4.2,0,0,1,2.047.375v2.094a2.814,2.814,0,0,0-1.727-.578,2.275,2.275,0,0,0-1.684.621,2.317,2.317,0,0,0-.621,1.715,2.28,2.28,0,0,0,.594,1.668,2.182,2.182,0,0,0,1.633.605,3.258,3.258,0,0,0,1.8-.578Zm2.867-8.977a1.442,1.442,0,0,1-1.023-.371,1.2,1.2,0,0,1-.4-.91,1.153,1.153,0,0,1,.4-.906,1.671,1.671,0,0,1,2.051,0,1.158,1.158,0,0,1,.395.906,1.191,1.191,0,0,1-.395.922A1.466,1.466,0,0,1,58.246,7.734ZM59.465,17H57V9h2.469Zm5.891.2a4.3,4.3,0,0,1-3.145-1.121,4.064,4.064,0,0,1-1.145-3.043,4.065,4.065,0,0,1,1.188-3.105A4.487,4.487,0,0,1,65.465,8.8,4.249,4.249,0,0,1,68.59,9.926a3.985,3.985,0,0,1,1.133,2.965,4.23,4.23,0,0,1-1.168,3.148A4.348,4.348,0,0,1,65.355,17.2Zm.063-6.5a1.647,1.647,0,0,0-1.359.6,2.653,2.653,0,0,0-.484,1.7q0,2.3,1.859,2.3,1.773,0,1.773-2.367Q67.207,10.7,65.418,10.7Zm2.648-5.484L65.621,7.734H63.84l2.031-2.523ZM79.043,17H76.582V12.555q0-1.859-1.328-1.859a1.318,1.318,0,0,0-1.055.492,1.875,1.875,0,0,0-.414,1.25V17H71.316V9h2.469v1.266h.031A2.829,2.829,0,0,1,76.387,8.8q2.656,0,2.656,3.3ZM42.207,35.031l-1.148,3.953H39.137l.8-3.953ZM9.051,57H2.379V45.8H4.9v9.156H9.051Zm2.516-9.266a1.442,1.442,0,0,1-1.023-.371,1.2,1.2,0,0,1-.4-.91,1.153,1.153,0,0,1,.4-.906,1.49,1.49,0,0,1,1.023-.352,1.486,1.486,0,0,1,1.027.352,1.158,1.158,0,0,1,.395.906,1.191,1.191,0,0,1-.395.922A1.466,1.466,0,0,1,11.566,47.734ZM12.785,57H10.316V49h2.469Zm14.781,0H25.105V52.438q0-1.742-1.281-1.742a1.177,1.177,0,0,0-.992.523,2.151,2.151,0,0,0-.383,1.3V57H19.98V52.391q0-1.7-1.258-1.7a1.206,1.206,0,0,0-1.012.5,2.2,2.2,0,0,0-.379,1.359V57H14.863V49h2.469v1.25h.031A3.031,3.031,0,0,1,19.949,48.8,2.3,2.3,0,0,1,22.27,50.3,2.959,2.959,0,0,1,24.957,48.8q2.609,0,2.609,3.219Zm4.453-.93h-.031V60.68H29.52V49h2.469v1.2h.031a3.142,3.142,0,0,1,4.973-.332,4.54,4.54,0,0,1,.848,2.9,4.922,4.922,0,0,1-.988,3.211A3.222,3.222,0,0,1,34.223,57.2,2.491,2.491,0,0,1,32.02,56.07Zm-.07-3.281v.641a2.037,2.037,0,0,0,.438,1.352,1.424,1.424,0,0,0,1.148.523,1.514,1.514,0,0,0,1.309-.652,3.15,3.15,0,0,0,.465-1.848q0-2.109-1.641-2.109a1.541,1.541,0,0,0-1.238.574A2.29,2.29,0,0,0,31.949,52.789Zm8.742-5.055a1.442,1.442,0,0,1-1.023-.371,1.2,1.2,0,0,1-.4-.91,1.153,1.153,0,0,1,.4-.906,1.671,1.671,0,0,1,2.051,0,1.158,1.158,0,0,1,.395.906,1.191,1.191,0,0,1-.395.922A1.466,1.466,0,0,1,40.691,47.734ZM41.91,57H39.441V49H41.91Zm9.266-3.3H45.957q.125,1.742,2.2,1.742a4.286,4.286,0,0,0,2.32-.625V56.6a6.1,6.1,0,0,1-2.883.594,3.724,3.724,0,0,1-4.078-4.07,4.281,4.281,0,0,1,1.156-3.156A3.852,3.852,0,0,1,47.512,48.8a3.5,3.5,0,0,1,2.707,1.039,4,4,0,0,1,.957,2.82Zm-2.289-1.516q0-1.719-1.391-1.719a1.328,1.328,0,0,0-1.027.492,2.234,2.234,0,0,0-.527,1.227ZM58.98,57H51.8V55.977l4.016-5.156H52.2V49h6.75v1.219l-3.8,4.961H58.98Zm7.984,0H64.629V55.852H64.6A2.607,2.607,0,0,1,62.215,57.2a2.492,2.492,0,0,1-1.832-.66,2.366,2.366,0,0,1-.668-1.762q0-2.328,2.758-2.687l2.172-.289q0-1.312-1.422-1.312a4.853,4.853,0,0,0-2.719.852V49.477a6.116,6.116,0,0,1,1.41-.469,7.413,7.413,0,0,1,1.629-.2q3.422,0,3.422,3.414Zm-2.32-3.25v-.539l-1.453.188q-1.2.156-1.2,1.086a.9.9,0,0,0,.293.691,1.126,1.126,0,0,0,.793.27,1.462,1.462,0,0,0,1.133-.48A1.735,1.735,0,0,0,64.645,53.75ZM80.949,49,77.7,57.641q-1.172,3.117-3.531,3.117a4.524,4.524,0,0,1-1.477-.2V58.586a2.076,2.076,0,0,0,1.07.289,1.337,1.337,0,0,0,1.328-.9l.422-.992L72.262,49H75l1.492,4.867a6.325,6.325,0,0,1,.219,1.07h.031A7.463,7.463,0,0,1,77,53.883L78.5,49ZM13.52,77H10.77l-.8-2.492H5.988L5.2,77H2.465L6.543,65.8H9.535ZM9.395,72.57,8.191,68.8A4.907,4.907,0,0,1,8,67.8H7.941a4.273,4.273,0,0,1-.2.977l-1.219,3.8ZM22.4,77H19.941V72.555q0-1.859-1.328-1.859a1.318,1.318,0,0,0-1.055.492,1.875,1.875,0,0,0-.414,1.25V77H14.676V69h2.469v1.266h.031a2.829,2.829,0,0,1,2.57-1.461q2.656,0,2.656,3.3Zm5.766.2a4.3,4.3,0,0,1-3.145-1.121,4.636,4.636,0,0,1,.043-6.148A4.487,4.487,0,0,1,28.277,68.8,4.249,4.249,0,0,1,31.4,69.926a3.985,3.985,0,0,1,1.133,2.965,4.23,4.23,0,0,1-1.168,3.148A4.348,4.348,0,0,1,28.168,77.2Zm.063-6.5a1.647,1.647,0,0,0-1.359.6,2.653,2.653,0,0,0-.484,1.7q0,2.3,1.859,2.3,1.773,0,1.773-2.367Q30.02,70.7,28.23,70.7Zm10.742,6.211a3.649,3.649,0,0,1-1.648.289q-2.609,0-2.609-2.711V70.82h-1.3V69h1.3V67.273l2.461-.7V69h1.8v1.82h-1.8v3.234q0,1.25.992,1.25a1.673,1.673,0,0,0,.8-.227ZM47.02,77H44.684V75.852h-.031A2.607,2.607,0,0,1,42.27,77.2a2.492,2.492,0,0,1-1.832-.66,2.365,2.365,0,0,1-.668-1.762q0-2.328,2.758-2.687L44.7,71.8q0-1.312-1.422-1.312a4.853,4.853,0,0,0-2.719.852V69.477a6.116,6.116,0,0,1,1.41-.469,7.413,7.413,0,0,1,1.629-.2q3.422,0,3.422,3.414ZM44.7,73.75v-.539l-1.453.188q-1.2.156-1.2,1.086a.9.9,0,0,0,.293.691,1.126,1.126,0,0,0,.793.27,1.462,1.462,0,0,0,1.133-.48A1.735,1.735,0,0,0,44.7,73.75Zm10.336,2.961a4.881,4.881,0,0,1-2.414.484,4.083,4.083,0,0,1-2.984-1.117A3.859,3.859,0,0,1,48.5,73.2a4.251,4.251,0,0,1,1.223-3.215,4.518,4.518,0,0,1,3.27-1.176,4.2,4.2,0,0,1,2.047.375v2.094a2.814,2.814,0,0,0-1.727-.578,2.275,2.275,0,0,0-1.684.621A2.317,2.317,0,0,0,51,73.031,2.28,2.28,0,0,0,51.6,74.7a2.182,2.182,0,0,0,1.633.605,3.258,3.258,0,0,0,1.8-.578ZM57.9,67.734a1.442,1.442,0,0,1-1.023-.371,1.2,1.2,0,0,1-.4-.91,1.153,1.153,0,0,1,.4-.906,1.671,1.671,0,0,1,2.051,0,1.158,1.158,0,0,1,.395.906,1.191,1.191,0,0,1-.395.922A1.466,1.466,0,0,1,57.9,67.734ZM59.121,77H56.652V69h2.469Zm5.891.2a4.3,4.3,0,0,1-3.145-1.121,4.636,4.636,0,0,1,.043-6.148A4.487,4.487,0,0,1,65.121,68.8a4.249,4.249,0,0,1,3.125,1.121,3.985,3.985,0,0,1,1.133,2.965,4.23,4.23,0,0,1-1.168,3.148A4.348,4.348,0,0,1,65.012,77.2Zm.063-6.5a1.647,1.647,0,0,0-1.359.6A2.653,2.653,0,0,0,63.23,73q0,2.3,1.859,2.3,1.773,0,1.773-2.367Q66.863,70.7,65.074,70.7Zm2.648-5.484-2.445,2.523H63.5l2.031-2.523ZM78.7,77H76.238V72.555q0-1.859-1.328-1.859a1.318,1.318,0,0,0-1.055.492,1.875,1.875,0,0,0-.414,1.25V77H70.973V69h2.469v1.266h.031a2.829,2.829,0,0,1,2.57-1.461q2.656,0,2.656,3.3Z" transform="translate(503 8053)" fill="#12263f"/>
    <path id="Trazado_601020" data-name="Trazado 601020" d="M15.57,17H13.047V5.8H15.57ZM25.6,17H23.141V12.555q0-1.859-1.328-1.859a1.318,1.318,0,0,0-1.055.492,1.875,1.875,0,0,0-.414,1.25V17H17.875V9h2.469v1.266h.031A2.829,2.829,0,0,1,22.945,8.8q2.656,0,2.656,3.3Zm6.789-.094a3.649,3.649,0,0,1-1.648.289q-2.609,0-2.609-2.711V10.82h-1.3V9h1.3V7.273l2.461-.7V9h1.8v1.82h-1.8v3.234q0,1.25.992,1.25a1.673,1.673,0,0,0,.8-.227Zm8.516-3.2H35.688q.125,1.742,2.2,1.742a4.286,4.286,0,0,0,2.32-.625V16.6a6.1,6.1,0,0,1-2.883.594,4.058,4.058,0,0,1-3.008-1.074,4.058,4.058,0,0,1-1.07-3A4.281,4.281,0,0,1,34.4,9.969,3.852,3.852,0,0,1,37.242,8.8a3.5,3.5,0,0,1,2.707,1.039,4,4,0,0,1,.957,2.82Zm-2.289-1.516q0-1.719-1.391-1.719a1.328,1.328,0,0,0-1.027.492,2.234,2.234,0,0,0-.527,1.227Zm11.6,3.9a4.526,4.526,0,0,1-1.289,3.449A5.224,5.224,0,0,1,45.2,20.758a5.919,5.919,0,0,1-2.562-.461V18.219a4.907,4.907,0,0,0,2.492.719,2.684,2.684,0,0,0,1.938-.66,2.369,2.369,0,0,0,.688-1.793v-.633h-.031A2.757,2.757,0,0,1,45.227,17.2a3,3,0,0,1-2.43-1.078,4.372,4.372,0,0,1-.9-2.891A4.87,4.87,0,0,1,42.9,10a3.265,3.265,0,0,1,2.633-1.2A2.429,2.429,0,0,1,47.719,9.93h.031V9h2.469Zm-2.437-2.93v-.633a1.945,1.945,0,0,0-.449-1.293,1.453,1.453,0,0,0-1.168-.535,1.51,1.51,0,0,0-1.289.641,3.012,3.012,0,0,0-.469,1.8,2.543,2.543,0,0,0,.445,1.582,1.451,1.451,0,0,0,1.219.582,1.511,1.511,0,0,0,1.238-.59A2.418,2.418,0,0,0,47.781,13.156Zm9.719-1.93a2.142,2.142,0,0,0-1.039-.242,1.5,1.5,0,0,0-1.258.59,2.573,2.573,0,0,0-.453,1.605V17H52.281V9H54.75v1.484h.031a2.136,2.136,0,0,1,2.109-1.625,1.59,1.59,0,0,1,.609.094ZM65.3,17H62.969V15.852h-.031A2.607,2.607,0,0,1,60.555,17.2a2.492,2.492,0,0,1-1.832-.66,2.366,2.366,0,0,1-.668-1.762q0-2.328,2.758-2.687l2.172-.289q0-1.312-1.422-1.312a4.853,4.853,0,0,0-2.719.852V9.477a6.116,6.116,0,0,1,1.41-.469,7.413,7.413,0,0,1,1.629-.2q3.422,0,3.422,3.414Zm-2.32-3.25v-.539l-1.453.188q-1.2.156-1.2,1.086a.9.9,0,0,0,.293.691,1.126,1.126,0,0,0,.793.27,1.462,1.462,0,0,0,1.133-.48A1.735,1.735,0,0,0,62.984,13.75ZM73.32,16.711a4.881,4.881,0,0,1-2.414.484,4.083,4.083,0,0,1-2.984-1.117A3.859,3.859,0,0,1,66.781,13.2,4.251,4.251,0,0,1,68,9.98,4.518,4.518,0,0,1,71.273,8.8a4.2,4.2,0,0,1,2.047.375v2.094a2.814,2.814,0,0,0-1.727-.578,2.275,2.275,0,0,0-1.684.621,2.317,2.317,0,0,0-.621,1.715,2.28,2.28,0,0,0,.594,1.668,2.182,2.182,0,0,0,1.633.605,3.258,3.258,0,0,0,1.8-.578Zm2.867-8.977a1.442,1.442,0,0,1-1.023-.371,1.2,1.2,0,0,1-.4-.91,1.153,1.153,0,0,1,.4-.906,1.671,1.671,0,0,1,2.051,0,1.158,1.158,0,0,1,.395.906,1.191,1.191,0,0,1-.395.922A1.466,1.466,0,0,1,76.188,7.734ZM77.406,17H74.938V9h2.469Zm5.891.2a4.3,4.3,0,0,1-3.145-1.121,4.064,4.064,0,0,1-1.145-3.043A4.065,4.065,0,0,1,80.2,9.926,4.487,4.487,0,0,1,83.406,8.8a4.249,4.249,0,0,1,3.125,1.121,3.985,3.985,0,0,1,1.133,2.965A4.23,4.23,0,0,1,86.5,16.039,4.348,4.348,0,0,1,83.3,17.2Zm.063-6.5A1.647,1.647,0,0,0,82,11.3a2.653,2.653,0,0,0-.484,1.7q0,2.3,1.859,2.3,1.773,0,1.773-2.367Q85.148,10.7,83.359,10.7Zm2.648-5.484L83.563,7.734H81.781l2.031-2.523ZM96.984,17H94.523V12.555q0-1.859-1.328-1.859a1.318,1.318,0,0,0-1.055.492,1.875,1.875,0,0,0-.414,1.25V17H89.258V9h2.469v1.266h.031A2.829,2.829,0,0,1,94.328,8.8q2.656,0,2.656,3.3Zm4.289-1.969-1.148,3.953H98.2l.8-3.953ZM18.465,37h-2.75l-.8-2.492H10.934L10.145,37H7.41l4.078-11.2H14.48ZM14.34,32.57l-1.2-3.766a4.907,4.907,0,0,1-.187-1.008h-.062a4.273,4.273,0,0,1-.2.977l-1.219,3.8Zm13.125,3.516a4.526,4.526,0,0,1-1.289,3.449,5.224,5.224,0,0,1-3.734,1.223,5.919,5.919,0,0,1-2.562-.461V38.219a4.907,4.907,0,0,0,2.492.719,2.684,2.684,0,0,0,1.938-.66A2.369,2.369,0,0,0,25,36.484v-.633h-.031A2.757,2.757,0,0,1,22.473,37.2a3,3,0,0,1-2.43-1.078,4.372,4.372,0,0,1-.9-2.891,4.87,4.87,0,0,1,1-3.227,3.265,3.265,0,0,1,2.633-1.2,2.429,2.429,0,0,1,2.188,1.125H25V29h2.469Zm-2.437-2.93v-.633a1.945,1.945,0,0,0-.449-1.293A1.453,1.453,0,0,0,23.41,30.7a1.51,1.51,0,0,0-1.289.641,3.012,3.012,0,0,0-.469,1.8,2.543,2.543,0,0,0,.445,1.582,1.451,1.451,0,0,0,1.219.582,1.511,1.511,0,0,0,1.238-.59A2.418,2.418,0,0,0,25.027,33.156Zm9.719-1.93a2.141,2.141,0,0,0-1.039-.242,1.5,1.5,0,0,0-1.258.59A2.573,2.573,0,0,0,32,33.18V37H29.527V29H32v1.484h.031a2.136,2.136,0,0,1,2.109-1.625,1.59,1.59,0,0,1,.609.094ZM43.02,33.7H37.8q.125,1.742,2.2,1.742a4.286,4.286,0,0,0,2.32-.625V36.6a6.1,6.1,0,0,1-2.883.594,3.724,3.724,0,0,1-4.078-4.07,4.281,4.281,0,0,1,1.156-3.156A3.852,3.852,0,0,1,39.355,28.8a3.5,3.5,0,0,1,2.707,1.039,4,4,0,0,1,.957,2.82ZM40.73,32.188q0-1.719-1.391-1.719a1.328,1.328,0,0,0-1.027.492,2.234,2.234,0,0,0-.527,1.227Zm11.6,3.9a4.526,4.526,0,0,1-1.289,3.449,5.224,5.224,0,0,1-3.734,1.223,5.919,5.919,0,0,1-2.562-.461V38.219a4.907,4.907,0,0,0,2.492.719,2.684,2.684,0,0,0,1.938-.66,2.369,2.369,0,0,0,.688-1.793v-.633h-.031A2.757,2.757,0,0,1,47.34,37.2a3,3,0,0,1-2.43-1.078,4.372,4.372,0,0,1-.9-2.891,4.87,4.87,0,0,1,1-3.227,3.265,3.265,0,0,1,2.633-1.2,2.429,2.429,0,0,1,2.188,1.125h.031V29h2.469Zm-2.437-2.93v-.633a1.945,1.945,0,0,0-.449-1.293,1.453,1.453,0,0,0-1.168-.535,1.51,1.51,0,0,0-1.289.641,3.012,3.012,0,0,0-.469,1.8,2.543,2.543,0,0,0,.445,1.582,1.451,1.451,0,0,0,1.219.582,1.511,1.511,0,0,0,1.238-.59A2.418,2.418,0,0,0,49.895,33.156ZM61.051,37H58.715V35.852h-.031A2.607,2.607,0,0,1,56.3,37.2a2.492,2.492,0,0,1-1.832-.66,2.366,2.366,0,0,1-.668-1.762q0-2.328,2.758-2.687L58.73,31.8q0-1.312-1.422-1.312a4.853,4.853,0,0,0-2.719.852V29.477A6.116,6.116,0,0,1,56,29.008a7.413,7.413,0,0,1,1.629-.2q3.422,0,3.422,3.414Zm-2.32-3.25v-.539l-1.453.188q-1.2.156-1.2,1.086a.9.9,0,0,0,.293.691,1.126,1.126,0,0,0,.793.27,1.462,1.462,0,0,0,1.133-.48A1.735,1.735,0,0,0,58.73,33.75Zm10.336,2.961a4.881,4.881,0,0,1-2.414.484,4.083,4.083,0,0,1-2.984-1.117A3.859,3.859,0,0,1,62.527,33.2,4.251,4.251,0,0,1,63.75,29.98,4.518,4.518,0,0,1,67.02,28.8a4.2,4.2,0,0,1,2.047.375v2.094A2.814,2.814,0,0,0,67.34,30.7a2.275,2.275,0,0,0-1.684.621,2.317,2.317,0,0,0-.621,1.715,2.28,2.28,0,0,0,.594,1.668,2.182,2.182,0,0,0,1.633.605,3.258,3.258,0,0,0,1.8-.578Zm2.867-8.977a1.442,1.442,0,0,1-1.023-.371,1.2,1.2,0,0,1-.4-.91,1.153,1.153,0,0,1,.4-.906,1.671,1.671,0,0,1,2.051,0,1.158,1.158,0,0,1,.395.906,1.191,1.191,0,0,1-.395.922A1.466,1.466,0,0,1,71.934,27.734ZM73.152,37H70.684V29h2.469Zm5.891.2A4.3,4.3,0,0,1,75.9,36.074a4.064,4.064,0,0,1-1.145-3.043,4.065,4.065,0,0,1,1.188-3.105A4.487,4.487,0,0,1,79.152,28.8a4.249,4.249,0,0,1,3.125,1.121,3.985,3.985,0,0,1,1.133,2.965,4.23,4.23,0,0,1-1.168,3.148A4.348,4.348,0,0,1,79.043,37.2Zm.063-6.5a1.647,1.647,0,0,0-1.359.6,2.653,2.653,0,0,0-.484,1.7q0,2.3,1.859,2.3,1.773,0,1.773-2.367Q80.895,30.7,79.105,30.7Zm2.648-5.484-2.445,2.523H77.527l2.031-2.523ZM92.73,37H90.27V32.555q0-1.859-1.328-1.859a1.318,1.318,0,0,0-1.055.492,1.875,1.875,0,0,0-.414,1.25V37H85V29h2.469v1.266H87.5a2.829,2.829,0,0,1,2.57-1.461q2.656,0,2.656,3.3Zm13.984-8-3.25,8.641q-1.172,3.117-3.531,3.117a4.524,4.524,0,0,1-1.477-.2V38.586a2.076,2.076,0,0,0,1.07.289,1.337,1.337,0,0,0,1.328-.9l.422-.992L98.027,29h2.734l1.492,4.867a6.325,6.325,0,0,1,.219,1.07h.031a7.463,7.463,0,0,1,.258-1.055L104.27,29ZM14.781,57h-2.9l-1.742-2.883q-.2-.328-.375-.586A3.255,3.255,0,0,0,9.4,53.09a1.445,1.445,0,0,0-.383-.281.972.972,0,0,0-.434-.1h-.68V57H5.383V45.8h4q4.078,0,4.078,3.047a3.155,3.155,0,0,1-.18,1.082,3.006,3.006,0,0,1-.508.895,3.219,3.219,0,0,1-.793.688,4.09,4.09,0,0,1-1.035.453v.031a1.606,1.606,0,0,1,.484.254,3.468,3.468,0,0,1,.453.41,5.722,5.722,0,0,1,.418.5q.2.27.363.527ZM7.906,47.688V50.8H9a1.813,1.813,0,0,0,1.3-.469,1.564,1.564,0,0,0,.5-1.18q0-1.469-1.758-1.469ZM22.375,53.7H17.156q.125,1.742,2.2,1.742a4.286,4.286,0,0,0,2.32-.625V56.6a6.1,6.1,0,0,1-2.883.594,4.058,4.058,0,0,1-3.008-1.074,4.058,4.058,0,0,1-1.07-3,4.281,4.281,0,0,1,1.156-3.156A3.852,3.852,0,0,1,18.711,48.8a3.5,3.5,0,0,1,2.707,1.039,4,4,0,0,1,.957,2.82Zm-2.289-1.516q0-1.719-1.391-1.719a1.328,1.328,0,0,0-1.027.492,2.234,2.234,0,0,0-.527,1.227Zm6.258,3.883h-.031V60.68H23.844V49h2.469v1.2h.031a3.142,3.142,0,0,1,4.973-.332,4.54,4.54,0,0,1,.848,2.9,4.922,4.922,0,0,1-.988,3.211A3.222,3.222,0,0,1,28.547,57.2,2.491,2.491,0,0,1,26.344,56.07Zm-.07-3.281v.641a2.037,2.037,0,0,0,.438,1.352,1.424,1.424,0,0,0,1.148.523,1.514,1.514,0,0,0,1.309-.652,3.15,3.15,0,0,0,.465-1.848q0-2.109-1.641-2.109a1.541,1.541,0,0,0-1.238.574A2.29,2.29,0,0,0,26.273,52.789Zm12.711-1.562a2.142,2.142,0,0,0-1.039-.242,1.5,1.5,0,0,0-1.258.59,2.573,2.573,0,0,0-.453,1.605V57H33.766V49h2.469v1.484h.031a2.136,2.136,0,0,1,2.109-1.625,1.59,1.59,0,0,1,.609.094ZM47.258,53.7H42.039q.125,1.742,2.2,1.742a4.286,4.286,0,0,0,2.32-.625V56.6a6.1,6.1,0,0,1-2.883.594,3.724,3.724,0,0,1-4.078-4.07,4.281,4.281,0,0,1,1.156-3.156A3.852,3.852,0,0,1,43.594,48.8,3.5,3.5,0,0,1,46.3,49.844a4,4,0,0,1,.957,2.82Zm-2.289-1.516q0-1.719-1.391-1.719a1.328,1.328,0,0,0-1.027.492,2.234,2.234,0,0,0-.527,1.227Zm3.234,4.6v-2a5.256,5.256,0,0,0,1.215.547,4.028,4.028,0,0,0,1.145.18,2.455,2.455,0,0,0,1.035-.18.581.581,0,0,0,.379-.547A.506.506,0,0,0,51.8,54.4a1.6,1.6,0,0,0-.441-.273,5.009,5.009,0,0,0-.59-.211q-.32-.094-.617-.211a5.914,5.914,0,0,1-.84-.387,2.427,2.427,0,0,1-.609-.48,1.889,1.889,0,0,1-.375-.633,2.525,2.525,0,0,1-.129-.852A2.192,2.192,0,0,1,48.5,50.2a2.393,2.393,0,0,1,.781-.793,3.57,3.57,0,0,1,1.117-.453A5.825,5.825,0,0,1,51.7,48.8a7.261,7.261,0,0,1,1.078.082,8.047,8.047,0,0,1,1.078.238v1.906a3.9,3.9,0,0,0-1-.41,4.235,4.235,0,0,0-1.051-.137,2.328,2.328,0,0,0-.457.043,1.505,1.505,0,0,0-.379.125.7.7,0,0,0-.258.211.486.486,0,0,0-.094.293.541.541,0,0,0,.141.375,1.221,1.221,0,0,0,.367.27,3.625,3.625,0,0,0,.5.2q.277.09.551.184a7.161,7.161,0,0,1,.891.375,2.848,2.848,0,0,1,.684.477,1.871,1.871,0,0,1,.438.641,2.563,2.563,0,0,1-.156,2.09,2.471,2.471,0,0,1-.82.82,3.72,3.72,0,0,1-1.18.461,6.54,6.54,0,0,1-1.387.145A7.149,7.149,0,0,1,48.2,56.789ZM62.953,53.7H57.734q.125,1.742,2.2,1.742a4.286,4.286,0,0,0,2.32-.625V56.6a6.1,6.1,0,0,1-2.883.594,3.724,3.724,0,0,1-4.078-4.07,4.281,4.281,0,0,1,1.156-3.156A3.852,3.852,0,0,1,59.289,48.8,3.5,3.5,0,0,1,62,49.844a4,4,0,0,1,.957,2.82Zm-2.289-1.516q0-1.719-1.391-1.719a1.328,1.328,0,0,0-1.027.492,2.234,2.234,0,0,0-.527,1.227ZM72.148,57H69.688V52.555q0-1.859-1.328-1.859a1.318,1.318,0,0,0-1.055.492,1.875,1.875,0,0,0-.414,1.25V57H64.422V49h2.469v1.266h.031a2.829,2.829,0,0,1,2.57-1.461q2.656,0,2.656,3.3Zm6.789-.094a3.649,3.649,0,0,1-1.648.289q-2.609,0-2.609-2.711V50.82h-1.3V49h1.3V47.273l2.461-.7V49h1.8v1.82h-1.8v3.234q0,1.25.992,1.25a1.673,1.673,0,0,0,.8-.227ZM86.984,57H84.648V55.852h-.031A2.607,2.607,0,0,1,82.234,57.2a2.492,2.492,0,0,1-1.832-.66,2.366,2.366,0,0,1-.668-1.762q0-2.328,2.758-2.687l2.172-.289q0-1.312-1.422-1.312a4.853,4.853,0,0,0-2.719.852V49.477a6.117,6.117,0,0,1,1.41-.469,7.413,7.413,0,0,1,1.629-.2q3.422,0,3.422,3.414Zm-2.32-3.25v-.539l-1.453.188q-1.2.156-1.2,1.086a.9.9,0,0,0,.293.691,1.126,1.126,0,0,0,.793.27,1.462,1.462,0,0,0,1.133-.48A1.735,1.735,0,0,0,84.664,53.75ZM95,56.711a4.881,4.881,0,0,1-2.414.484A4.083,4.083,0,0,1,89.6,56.078,3.859,3.859,0,0,1,88.461,53.2a4.251,4.251,0,0,1,1.223-3.215,4.518,4.518,0,0,1,3.27-1.176A4.2,4.2,0,0,1,95,49.18v2.094a2.814,2.814,0,0,0-1.727-.578,2.275,2.275,0,0,0-1.684.621,2.317,2.317,0,0,0-.621,1.715,2.28,2.28,0,0,0,.594,1.668A2.182,2.182,0,0,0,93.2,55.3a3.258,3.258,0,0,0,1.8-.578Zm2.867-8.977a1.442,1.442,0,0,1-1.023-.371,1.2,1.2,0,0,1-.4-.91,1.153,1.153,0,0,1,.4-.906,1.671,1.671,0,0,1,2.051,0,1.158,1.158,0,0,1,.395.906,1.191,1.191,0,0,1-.395.922A1.466,1.466,0,0,1,97.867,47.734ZM99.086,57H96.617V49h2.469Zm5.891.2a4.3,4.3,0,0,1-3.145-1.121,4.636,4.636,0,0,1,.043-6.148,4.487,4.487,0,0,1,3.211-1.121,4.249,4.249,0,0,1,3.125,1.121,3.985,3.985,0,0,1,1.133,2.965,4.23,4.23,0,0,1-1.168,3.148A4.348,4.348,0,0,1,104.977,57.2Zm.063-6.5a1.647,1.647,0,0,0-1.359.6A2.653,2.653,0,0,0,103.2,53q0,2.3,1.859,2.3,1.773,0,1.773-2.367Q106.828,50.7,105.039,50.7Zm2.648-5.484-2.445,2.523h-1.781l2.031-2.523ZM60.926,77H58.465V72.555q0-1.859-1.328-1.859a1.318,1.318,0,0,0-1.055.492,1.875,1.875,0,0,0-.414,1.25V77H53.2V69h2.469v1.266H55.7A2.829,2.829,0,0,1,58.27,68.8q2.656,0,2.656,3.3Z" transform="translate(656 8053)" fill="#12263f"/>
    <path id="Trazado_601016" data-name="Trazado 601016" d="M23.875,17H17.156V5.8h6.461V7.852H19.68v2.492h3.664v2.047H19.68v2.563h4.2Zm9.281-8-2.641,3.875L33.141,17H30.3l-1.156-2.156q-.141-.258-.336-.727h-.031a5.073,5.073,0,0,1-.32.7L27.289,17H24.453l2.7-3.984L24.617,9h2.859l1.141,2.242a4.917,4.917,0,0,1,.32.75h.031a5.285,5.285,0,0,1,.336-.766L30.469,9ZM39.1,16.906a3.649,3.649,0,0,1-1.648.289q-2.609,0-2.609-2.711V10.82h-1.3V9h1.3V7.273l2.461-.7V9h1.8v1.82H37.3v3.234q0,1.25.992,1.25a1.673,1.673,0,0,0,.8-.227Zm6.609-5.68a2.142,2.142,0,0,0-1.039-.242,1.5,1.5,0,0,0-1.258.59,2.573,2.573,0,0,0-.453,1.605V17H40.492V9h2.469v1.484h.031A2.136,2.136,0,0,1,45.1,8.859a1.59,1.59,0,0,1,.609.094ZM53.516,17H51.18V15.852h-.031A2.607,2.607,0,0,1,48.766,17.2a2.492,2.492,0,0,1-1.832-.66,2.366,2.366,0,0,1-.668-1.762q0-2.328,2.758-2.687L51.2,11.8q0-1.312-1.422-1.312a4.853,4.853,0,0,0-2.719.852V9.477a6.116,6.116,0,0,1,1.41-.469,7.413,7.413,0,0,1,1.629-.2q3.422,0,3.422,3.414ZM51.2,13.75v-.539l-1.453.188q-1.2.156-1.2,1.086a.9.9,0,0,0,.293.691,1.126,1.126,0,0,0,.793.27,1.462,1.462,0,0,0,1.133-.48A1.735,1.735,0,0,0,51.2,13.75Zm10.336,2.961a4.881,4.881,0,0,1-2.414.484,4.083,4.083,0,0,1-2.984-1.117A3.859,3.859,0,0,1,54.992,13.2,4.251,4.251,0,0,1,56.215,9.98,4.518,4.518,0,0,1,59.484,8.8a4.2,4.2,0,0,1,2.047.375v2.094A2.814,2.814,0,0,0,59.8,10.7a2.275,2.275,0,0,0-1.684.621,2.317,2.317,0,0,0-.621,1.715,2.28,2.28,0,0,0,.594,1.668,2.182,2.182,0,0,0,1.633.605,3.258,3.258,0,0,0,1.8-.578Zm7.68,0A4.881,4.881,0,0,1,66.8,17.2a4.083,4.083,0,0,1-2.984-1.117A3.859,3.859,0,0,1,62.672,13.2,4.251,4.251,0,0,1,63.895,9.98,4.518,4.518,0,0,1,67.164,8.8a4.2,4.2,0,0,1,2.047.375v2.094a2.814,2.814,0,0,0-1.727-.578,2.275,2.275,0,0,0-1.684.621,2.317,2.317,0,0,0-.621,1.715,2.28,2.28,0,0,0,.594,1.668,2.182,2.182,0,0,0,1.633.605,3.258,3.258,0,0,0,1.8-.578Zm2.867-8.977a1.442,1.442,0,0,1-1.023-.371,1.2,1.2,0,0,1-.4-.91,1.153,1.153,0,0,1,.4-.906,1.671,1.671,0,0,1,2.051,0,1.158,1.158,0,0,1,.395.906,1.191,1.191,0,0,1-.395.922A1.466,1.466,0,0,1,72.078,7.734ZM73.3,17H70.828V9H73.3Zm5.891.2a4.3,4.3,0,0,1-3.145-1.121A4.064,4.064,0,0,1,74.9,13.031a4.065,4.065,0,0,1,1.188-3.105A4.487,4.487,0,0,1,79.3,8.8a4.249,4.249,0,0,1,3.125,1.121,3.985,3.985,0,0,1,1.133,2.965,4.23,4.23,0,0,1-1.168,3.148A4.348,4.348,0,0,1,79.188,17.2Zm.063-6.5a1.647,1.647,0,0,0-1.359.6,2.653,2.653,0,0,0-.484,1.7q0,2.3,1.859,2.3,1.773,0,1.773-2.367Q81.039,10.7,79.25,10.7ZM81.9,5.211,79.453,7.734H77.672L79.7,5.211ZM92.875,17H90.414V12.555q0-1.859-1.328-1.859a1.318,1.318,0,0,0-1.055.492,1.875,1.875,0,0,0-.414,1.25V17H85.148V9h2.469v1.266h.031A2.829,2.829,0,0,1,90.219,8.8q2.656,0,2.656,3.3Zm4.289-1.969-1.148,3.953H94.094l.8-3.953ZM25.051,37H18.379V25.8H20.9v9.156h4.148Zm2.516-9.266a1.442,1.442,0,0,1-1.023-.371,1.2,1.2,0,0,1-.4-.91,1.153,1.153,0,0,1,.4-.906,1.671,1.671,0,0,1,2.051,0,1.158,1.158,0,0,1,.395.906,1.191,1.191,0,0,1-.395.922A1.466,1.466,0,0,1,27.566,27.734ZM28.785,37H26.316V29h2.469Zm14.781,0H41.105V32.438q0-1.742-1.281-1.742a1.177,1.177,0,0,0-.992.523,2.151,2.151,0,0,0-.383,1.3V37H35.98V32.391q0-1.7-1.258-1.7a1.206,1.206,0,0,0-1.012.5,2.2,2.2,0,0,0-.379,1.359V37H30.863V29h2.469v1.25h.031A3.031,3.031,0,0,1,35.949,28.8,2.3,2.3,0,0,1,38.27,30.3,2.959,2.959,0,0,1,40.957,28.8q2.609,0,2.609,3.219Zm4.453-.93h-.031V40.68H45.52V29h2.469v1.2h.031a3.142,3.142,0,0,1,4.973-.332,4.54,4.54,0,0,1,.848,2.9,4.922,4.922,0,0,1-.988,3.211A3.222,3.222,0,0,1,50.223,37.2,2.491,2.491,0,0,1,48.02,36.07Zm-.07-3.281v.641a2.037,2.037,0,0,0,.438,1.352,1.424,1.424,0,0,0,1.148.523,1.514,1.514,0,0,0,1.309-.652,3.15,3.15,0,0,0,.465-1.848q0-2.109-1.641-2.109a1.541,1.541,0,0,0-1.238.574A2.29,2.29,0,0,0,47.949,32.789Zm8.742-5.055a1.442,1.442,0,0,1-1.023-.371,1.2,1.2,0,0,1-.4-.91,1.153,1.153,0,0,1,.4-.906,1.671,1.671,0,0,1,2.051,0,1.158,1.158,0,0,1,.395.906,1.191,1.191,0,0,1-.395.922A1.466,1.466,0,0,1,56.691,27.734ZM57.91,37H55.441V29H57.91Zm9.266-3.3H61.957q.125,1.742,2.2,1.742a4.286,4.286,0,0,0,2.32-.625V36.6a6.1,6.1,0,0,1-2.883.594,3.724,3.724,0,0,1-4.078-4.07,4.281,4.281,0,0,1,1.156-3.156A3.852,3.852,0,0,1,63.512,28.8a3.5,3.5,0,0,1,2.707,1.039,4,4,0,0,1,.957,2.82Zm-2.289-1.516q0-1.719-1.391-1.719a1.328,1.328,0,0,0-1.027.492,2.234,2.234,0,0,0-.527,1.227ZM74.98,37H67.8V35.977l4.016-5.156H68.2V29h6.75v1.219l-3.8,4.961H74.98Zm7.984,0H80.629V35.852H80.6A2.607,2.607,0,0,1,78.215,37.2a2.492,2.492,0,0,1-1.832-.66,2.366,2.366,0,0,1-.668-1.762q0-2.328,2.758-2.687l2.172-.289q0-1.312-1.422-1.312a4.853,4.853,0,0,0-2.719.852V29.477a6.116,6.116,0,0,1,1.41-.469,7.413,7.413,0,0,1,1.629-.2q3.422,0,3.422,3.414Zm-2.32-3.25v-.539l-1.453.188q-1.2.156-1.2,1.086a.9.9,0,0,0,.293.691,1.126,1.126,0,0,0,.793.27,1.462,1.462,0,0,0,1.133-.48A1.735,1.735,0,0,0,80.645,33.75ZM96.949,29,93.7,37.641q-1.172,3.117-3.531,3.117a4.524,4.524,0,0,1-1.477-.2V38.586a2.076,2.076,0,0,0,1.07.289,1.337,1.337,0,0,0,1.328-.9l.422-.992L88.262,29H91l1.492,4.867a6.325,6.325,0,0,1,.219,1.07h.031A7.463,7.463,0,0,1,93,33.883L94.5,29ZM29.52,57H26.77l-.8-2.492H21.988L21.2,57H18.465l4.078-11.2h2.992Zm-4.125-4.43-1.2-3.766A4.907,4.907,0,0,1,24,47.8h-.062a4.273,4.273,0,0,1-.2.977l-1.219,3.8ZM38.4,57H35.941V52.555q0-1.859-1.328-1.859a1.318,1.318,0,0,0-1.055.492,1.875,1.875,0,0,0-.414,1.25V57H30.676V49h2.469v1.266h.031a2.829,2.829,0,0,1,2.57-1.461q2.656,0,2.656,3.3Zm5.766.2a4.3,4.3,0,0,1-3.145-1.121,4.636,4.636,0,0,1,.043-6.148A4.487,4.487,0,0,1,44.277,48.8,4.249,4.249,0,0,1,47.4,49.926a3.985,3.985,0,0,1,1.133,2.965,4.23,4.23,0,0,1-1.168,3.148A4.348,4.348,0,0,1,44.168,57.2Zm.063-6.5a1.647,1.647,0,0,0-1.359.6,2.653,2.653,0,0,0-.484,1.7q0,2.3,1.859,2.3,1.773,0,1.773-2.367Q46.02,50.7,44.23,50.7Zm10.742,6.211a3.649,3.649,0,0,1-1.648.289q-2.609,0-2.609-2.711V50.82h-1.3V49h1.3V47.273l2.461-.7V49h1.8v1.82h-1.8v3.234q0,1.25.992,1.25a1.673,1.673,0,0,0,.8-.227ZM63.02,57H60.684V55.852h-.031A2.607,2.607,0,0,1,58.27,57.2a2.492,2.492,0,0,1-1.832-.66,2.366,2.366,0,0,1-.668-1.762q0-2.328,2.758-2.687L60.7,51.8q0-1.312-1.422-1.312a4.853,4.853,0,0,0-2.719.852V49.477a6.116,6.116,0,0,1,1.41-.469,7.413,7.413,0,0,1,1.629-.2q3.422,0,3.422,3.414ZM60.7,53.75v-.539l-1.453.188q-1.2.156-1.2,1.086a.9.9,0,0,0,.293.691,1.126,1.126,0,0,0,.793.27,1.462,1.462,0,0,0,1.133-.48A1.735,1.735,0,0,0,60.7,53.75Zm10.336,2.961a4.881,4.881,0,0,1-2.414.484,4.083,4.083,0,0,1-2.984-1.117A3.859,3.859,0,0,1,64.5,53.2a4.251,4.251,0,0,1,1.223-3.215,4.518,4.518,0,0,1,3.27-1.176,4.2,4.2,0,0,1,2.047.375v2.094a2.814,2.814,0,0,0-1.727-.578,2.275,2.275,0,0,0-1.684.621A2.317,2.317,0,0,0,67,53.031,2.28,2.28,0,0,0,67.6,54.7a2.182,2.182,0,0,0,1.633.605,3.258,3.258,0,0,0,1.8-.578ZM73.9,47.734a1.442,1.442,0,0,1-1.023-.371,1.2,1.2,0,0,1-.4-.91,1.153,1.153,0,0,1,.4-.906,1.671,1.671,0,0,1,2.051,0,1.158,1.158,0,0,1,.395.906,1.191,1.191,0,0,1-.395.922A1.466,1.466,0,0,1,73.9,47.734ZM75.121,57H72.652V49h2.469Zm5.891.2a4.3,4.3,0,0,1-3.145-1.121,4.636,4.636,0,0,1,.043-6.148A4.487,4.487,0,0,1,81.121,48.8a4.249,4.249,0,0,1,3.125,1.121,3.985,3.985,0,0,1,1.133,2.965,4.23,4.23,0,0,1-1.168,3.148A4.348,4.348,0,0,1,81.012,57.2Zm.063-6.5a1.647,1.647,0,0,0-1.359.6A2.653,2.653,0,0,0,79.23,53q0,2.3,1.859,2.3,1.773,0,1.773-2.367Q82.863,50.7,81.074,50.7Zm2.648-5.484-2.445,2.523H79.5l2.031-2.523ZM94.7,57H92.238V52.555q0-1.859-1.328-1.859a1.318,1.318,0,0,0-1.055.492,1.875,1.875,0,0,0-.414,1.25V57H86.973V49h2.469v1.266h.031a2.829,2.829,0,0,1,2.57-1.461q2.656,0,2.656,3.3Z" transform="translate(879 8054)" fill="#12263f"/>
    <path id="Trazado_601013" data-name="Trazado 601013" d="M7.137,17H4.613V5.8H7.137Zm10.031,0H14.707V12.555q0-1.859-1.328-1.859a1.318,1.318,0,0,0-1.055.492,1.875,1.875,0,0,0-.414,1.25V17H9.441V9H11.91v1.266h.031A2.829,2.829,0,0,1,14.512,8.8q2.656,0,2.656,3.3Zm6.789-.094a3.649,3.649,0,0,1-1.648.289q-2.609,0-2.609-2.711V10.82H18.4V9h1.3V7.273l2.461-.7V9h1.8v1.82h-1.8v3.234q0,1.25.992,1.25a1.673,1.673,0,0,0,.8-.227Zm8.516-3.2H27.254q.125,1.742,2.2,1.742a4.286,4.286,0,0,0,2.32-.625V16.6a6.1,6.1,0,0,1-2.883.594,4.058,4.058,0,0,1-3.008-1.074,4.058,4.058,0,0,1-1.07-3,4.281,4.281,0,0,1,1.156-3.156A3.852,3.852,0,0,1,28.809,8.8a3.5,3.5,0,0,1,2.707,1.039,4,4,0,0,1,.957,2.82Zm-2.289-1.516q0-1.719-1.391-1.719a1.328,1.328,0,0,0-1.027.492,2.234,2.234,0,0,0-.527,1.227Zm8.977-.961a2.142,2.142,0,0,0-1.039-.242,1.5,1.5,0,0,0-1.258.59,2.573,2.573,0,0,0-.453,1.605V17H33.941V9H36.41v1.484h.031a2.136,2.136,0,0,1,2.109-1.625,1.59,1.59,0,0,1,.609.094Zm3.648,4.844h-.031V20.68H40.309V9h2.469v1.2h.031a3.142,3.142,0,0,1,4.973-.332,4.54,4.54,0,0,1,.848,2.9,4.922,4.922,0,0,1-.988,3.211A3.222,3.222,0,0,1,45.012,17.2,2.491,2.491,0,0,1,42.809,16.07Zm-.07-3.281v.641a2.037,2.037,0,0,0,.438,1.352,1.424,1.424,0,0,0,1.148.523,1.514,1.514,0,0,0,1.309-.652A3.15,3.15,0,0,0,46.1,12.8q0-2.109-1.641-2.109a1.541,1.541,0,0,0-1.238.574A2.29,2.29,0,0,0,42.738,12.789Zm12.711-1.562a2.142,2.142,0,0,0-1.039-.242,1.5,1.5,0,0,0-1.258.59A2.573,2.573,0,0,0,52.7,13.18V17H50.23V9H52.7v1.484h.031A2.136,2.136,0,0,1,54.84,8.859a1.59,1.59,0,0,1,.609.094ZM63.723,13.7H58.5q.125,1.742,2.2,1.742a4.286,4.286,0,0,0,2.32-.625V16.6a6.1,6.1,0,0,1-2.883.594,4.058,4.058,0,0,1-3.008-1.074,4.058,4.058,0,0,1-1.07-3,4.281,4.281,0,0,1,1.156-3.156A3.852,3.852,0,0,1,60.059,8.8a3.5,3.5,0,0,1,2.707,1.039,4,4,0,0,1,.957,2.82Zm-2.289-1.516q0-1.719-1.391-1.719a1.328,1.328,0,0,0-1.027.492,2.234,2.234,0,0,0-.527,1.227Zm8.594,4.719a3.649,3.649,0,0,1-1.648.289q-2.609,0-2.609-2.711V10.82h-1.3V9h1.3V7.273l2.461-.7V9h1.8v1.82h-1.8v3.234q0,1.25.992,1.25a1.673,1.673,0,0,0,.8-.227ZM78.074,17H75.738V15.852h-.031A2.607,2.607,0,0,1,73.324,17.2a2.492,2.492,0,0,1-1.832-.66,2.366,2.366,0,0,1-.668-1.762q0-2.328,2.758-2.687l2.172-.289q0-1.312-1.422-1.312a4.853,4.853,0,0,0-2.719.852V9.477a6.116,6.116,0,0,1,1.41-.469,7.413,7.413,0,0,1,1.629-.2q3.422,0,3.422,3.414Zm-2.32-3.25v-.539L74.3,13.4q-1.2.156-1.2,1.086a.9.9,0,0,0,.293.691,1.126,1.126,0,0,0,.793.27,1.462,1.462,0,0,0,1.133-.48A1.735,1.735,0,0,0,75.754,13.75ZM86.09,16.711a4.881,4.881,0,0,1-2.414.484,4.083,4.083,0,0,1-2.984-1.117A3.859,3.859,0,0,1,79.551,13.2,4.251,4.251,0,0,1,80.773,9.98,4.518,4.518,0,0,1,84.043,8.8a4.2,4.2,0,0,1,2.047.375v2.094a2.814,2.814,0,0,0-1.727-.578,2.275,2.275,0,0,0-1.684.621,2.317,2.317,0,0,0-.621,1.715,2.28,2.28,0,0,0,.594,1.668,2.182,2.182,0,0,0,1.633.605,3.258,3.258,0,0,0,1.8-.578Zm2.867-8.977a1.442,1.442,0,0,1-1.023-.371,1.2,1.2,0,0,1-.4-.91,1.153,1.153,0,0,1,.4-.906,1.671,1.671,0,0,1,2.051,0,1.158,1.158,0,0,1,.395.906,1.191,1.191,0,0,1-.395.922A1.466,1.466,0,0,1,88.957,7.734ZM90.176,17H87.707V9h2.469Zm5.891.2a4.3,4.3,0,0,1-3.145-1.121,4.064,4.064,0,0,1-1.145-3.043,4.065,4.065,0,0,1,1.188-3.105A4.487,4.487,0,0,1,96.176,8.8,4.249,4.249,0,0,1,99.3,9.926a3.985,3.985,0,0,1,1.133,2.965,4.23,4.23,0,0,1-1.168,3.148A4.348,4.348,0,0,1,96.066,17.2Zm.063-6.5a1.647,1.647,0,0,0-1.359.6,2.653,2.653,0,0,0-.484,1.7q0,2.3,1.859,2.3,1.773,0,1.773-2.367Q97.918,10.7,96.129,10.7Zm2.648-5.484L96.332,7.734H94.551l2.031-2.523ZM109.754,17h-2.461V12.555q0-1.859-1.328-1.859a1.318,1.318,0,0,0-1.055.492,1.875,1.875,0,0,0-.414,1.25V17h-2.469V9H104.5v1.266h.031A2.829,2.829,0,0,1,107.1,8.8q2.656,0,2.656,3.3Z" transform="translate(1083 8074)" fill="#12263f"/>
  </g>
</svg>
