<svg xmlns="http://www.w3.org/2000/svg" width="400" height="360" viewBox="0 0 400 360">
  <g id="Grupo_110655" data-name="Grupo 110655" transform="translate(6528.5 10834)">
    <rect id="Rectángulo_35850" data-name="Rectángulo 35850" width="400" height="360" rx="15" transform="translate(-6528.5 -10834)" fill="#ffe5cf"/>
    <ellipse id="Elipse_4989" data-name="Elipse 4989" cx="90.5" cy="91" rx="90.5" ry="91" transform="translate(-6418 -10776)" fill="#ffb476"/>
    <g id="descargar" transform="translate(-6443.542 -10757.5)">
      <g id="Grupo_106971" data-name="Grupo 106971" transform="translate(98.907 76.62)">
        <path id="Trazado_162958" data-name="Trazado 162958" d="M197.411,278.223v8.9h51.743v-6.12a2.782,2.782,0,0,0-2.782-2.782H197.411Z" transform="translate(-197.411 -278.223)" fill="#ffb476"/>
      </g>
      <g id="Grupo_106972" data-name="Grupo 106972" transform="translate(73.869 76.62)">
        <path id="Trazado_162959" data-name="Trazado 162959" d="M186.057,287.125H139.878l-2.172-6.95a2.782,2.782,0,0,0-2.655-1.952H116.886a2.782,2.782,0,0,0-2.655,1.952l-2.172,6.95h-2.782a2.782,2.782,0,0,0-2.782,2.782v47.849a2.782,2.782,0,0,0,2.782,2.782h76.78a2.782,2.782,0,0,0,2.782-2.782V289.907A2.782,2.782,0,0,0,186.057,287.125Z" transform="translate(-106.495 -278.223)" fill="#ffd67a"/>
      </g>
      <g id="Grupo_106973" data-name="Grupo 106973" transform="translate(146.477 85.522)">
        <path id="Trazado_162960" data-name="Trazado 162960" d="M377.1,310.549h-6.955a2.782,2.782,0,0,1,2.782,2.782V361.18a2.782,2.782,0,0,1-2.782,2.782H377.1a2.782,2.782,0,0,0,2.782-2.782V313.331A2.782,2.782,0,0,0,377.1,310.549Z" transform="translate(-370.148 -310.549)" fill="#ffb476"/>
      </g>
      <g id="Grupo_106974" data-name="Grupo 106974" transform="translate(82.772 121.131)">
        <path id="Trazado_162961" data-name="Trazado 162961" d="M138.821,439.85h22.255v8.9H138.821Z" transform="translate(-138.821 -439.85)" fill="#ff6148"/>
      </g>
      <g id="Grupo_106977" data-name="Grupo 106977" transform="translate(63.535 2.065)">
        <g id="Grupo_106975" data-name="Grupo 106975">
          <path id="Trazado_162962" data-name="Trazado 162962" d="M158.3,28.454a11.841,11.841,0,0,0-16.77-13.046A32,32,0,0,0,91.145,26.7a22.392,22.392,0,0,0,.217,44.783h58.225a22.4,22.4,0,0,0,8.714-43.03Z" transform="translate(-68.968 -7.5)" fill="#e6f7fe"/>
        </g>
        <g id="Grupo_106976" data-name="Grupo 106976" transform="translate(28.429 7.396)">
          <path id="Trazado_162963" data-name="Trazado 162963" d="M233.1,47.915a11.851,11.851,0,0,0-7.642-13.557c-1.311,12.534-8,26.322-19.419,37.744-10.248,10.248-22.4,16.681-33.843,18.843h52.19a22.4,22.4,0,0,0,8.714-43.03Z" transform="translate(-172.199 -34.358)" fill="#d3effd"/>
        </g>
      </g>
      <g id="Grupo_106978" data-name="Grupo 106978" transform="translate(95.569 52.418)">
        <path id="Trazado_162964" data-name="Trazado 162964" d="M217.837,223.444v-33.1h-26.15v33.1h-6.4l19.473,22.533,19.473-22.533Z" transform="translate(-185.289 -190.339)" fill="#a87bf5"/>
      </g>
      <g id="Grupo_106979" data-name="Grupo 106979" transform="translate(101.866 52.418)">
        <path id="Trazado_162965" data-name="Trazado 162965" d="M234.407,223.444v-33.1h-7.848c-.27,13.571-9.46,34.563-18.4,40.392l13.176,15.246L240.8,223.444Z" transform="translate(-208.156 -190.339)" fill="#ff6148"/>
      </g>
      <g id="Grupo_106980" data-name="Grupo 106980" transform="translate(61.47 0)">
        <path id="Trazado_162966" data-name="Trazado 162966" d="M133.386,432.35a2.065,2.065,0,0,0-2.065,2.065v8.9a2.065,2.065,0,0,0,2.065,2.065h22.255a2.065,2.065,0,0,0,2.065-2.065v-8.9a2.065,2.065,0,0,0-2.065-2.065Zm20.19,8.9H135.452v-4.771h18.124Z" transform="translate(-112.085 -313.285)"/>
        <path id="Trazado_162967" data-name="Trazado 162967" d="M144.153,68.115A24.463,24.463,0,0,0,155.129,21.79q.048-.58.048-1.169A13.913,13.913,0,0,0,136.456,7.577,34.06,34.06,0,0,0,84.367,19.248a24.185,24.185,0,0,0-9.02,2.354,2.066,2.066,0,0,0,1.79,3.723,20.137,20.137,0,0,1,8.6-1.994,2.066,2.066,0,0,0,1.873-1.239,29.929,29.929,0,0,1,47.133-10.564,2.066,2.066,0,0,0,2.266.3,9.669,9.669,0,0,1,4.272-.981,9.782,9.782,0,0,1,9.771,9.771,9.639,9.639,0,0,1-.2,1.974,2.065,2.065,0,0,0,1.217,2.327,20.332,20.332,0,0,1-7.91,39.062H130.183V52.417a2.065,2.065,0,0,0-2.065-2.065h-11.8a2.065,2.065,0,0,0,0,4.131h9.735V85.522a2.065,2.065,0,0,0,2.065,2.065H130L115.042,104.9,100.084,87.588h1.883a2.065,2.065,0,0,0,2.065-2.065V54.483h2.647a2.065,2.065,0,0,0,0-4.131h-4.712A2.065,2.065,0,0,0,99.9,52.418V63.984H85.93a20.328,20.328,0,0,1-15.648-33.3,2.065,2.065,0,1,0-3.177-2.64A24.458,24.458,0,0,0,85.93,68.115H99.9v6.439H84.261a4.821,4.821,0,0,0-4.626,3.4l-1.72,5.5H76.652A4.852,4.852,0,0,0,71.805,88.3v47.849A4.853,4.853,0,0,0,76.652,141h76.779a4.852,4.852,0,0,0,4.847-4.847V103.409a2.065,2.065,0,1,0-4.131,0v32.744a.717.717,0,0,1-.716.716H76.652a.717.717,0,0,1-.716-.716V88.3a.717.717,0,0,1,.716-.716h2.781A2.065,2.065,0,0,0,81.4,86.138l2.174-6.955a.71.71,0,0,1,.682-.5H99.9v4.773H95.569a2.065,2.065,0,0,0-1.563,3.416l19.473,22.532a2.065,2.065,0,0,0,3.125,0l18.855-21.818h17.972a.717.717,0,0,1,.716.716V93.77a2.065,2.065,0,0,0,4.131,0V88.3a4.853,4.853,0,0,0-4.847-4.847h-.716V79.4a4.853,4.853,0,0,0-4.847-4.847H130.183V68.115Zm3.715,10.571a.717.717,0,0,1,.717.717v4.055h-18.4V78.686h17.685Z" transform="translate(-61.47 0)"/>
      </g>
    </g>
  </g>
</svg>
