<svg xmlns="http://www.w3.org/2000/svg" width="400" height="360" viewBox="0 0 400 360">
  <g id="Grupo_110656" data-name="Grupo 110656" transform="translate(-601 -860.7)">
    <g id="Componente_1_1" data-name="Componente 1 – 1" transform="translate(601 860.7)">
      <rect id="Rectángulo_33132" data-name="Rectángulo 33132" width="400" height="360" rx="15" fill="#ffe5cf"/>
    </g>
    <ellipse id="Elipse_4390" data-name="Elipse 4390" cx="90.5" cy="91" rx="90.5" ry="91" transform="translate(710 918.7)" fill="#ffb476"/>
    <g id="la-red" transform="translate(692.55 941.7)">
      <g id="Grupo_106963" data-name="Grupo 106963" transform="translate(93.31 124.464)">
        <path id="Trazado_162942" data-name="Trazado 162942" d="M230.587,466.425H205.263a1.809,1.809,0,0,1-1.809-1.809V453.763a1.809,1.809,0,0,1,1.809-1.809h25.324a1.809,1.809,0,0,1,1.809,1.809v10.853A1.809,1.809,0,0,1,230.587,466.425Z" transform="translate(-203.454 -451.954)" fill="#f5d07c"/>
      </g>
      <g id="Grupo_106964" data-name="Grupo 106964" transform="translate(93.31 124.464)">
        <path id="Trazado_162943" data-name="Trazado 162943" d="M228.024,451.954v3.618a6.029,6.029,0,0,1-6.029,6.029H203.454v3.015a1.809,1.809,0,0,0,1.809,1.809h25.324a1.809,1.809,0,0,0,1.809-1.809V453.763a1.809,1.809,0,0,0-1.809-1.809Z" transform="translate(-203.454 -451.954)" fill="#f5bb3a"/>
      </g>
      <g id="Grupo_106965" data-name="Grupo 106965" transform="translate(103.33 108.486)">
        <path id="Trazado_162944" data-name="Trazado 162944" d="M239.837,393.934h8.9v15.978h-8.9Z" transform="translate(-239.837 -393.934)" fill="#efecef"/>
      </g>
      <g id="Grupo_106966" data-name="Grupo 106966" transform="translate(122.252 127.248)">
        <path id="Trazado_162945" data-name="Trazado 162945" d="M0,0H8.9V22.255H0Z" transform="translate(22.255 0) rotate(90)" fill="#efecef"/>
      </g>
      <g id="Grupo_106967" data-name="Grupo 106967" transform="translate(71.055 127.248)">
        <path id="Trazado_162946" data-name="Trazado 162946" d="M0,0H8.9V22.255H0Z" transform="translate(22.255 0) rotate(90)" fill="#efecef"/>
      </g>
      <g id="Grupo_106968" data-name="Grupo 106968" transform="translate(53.516 2.065)">
        <path id="Trazado_162947" data-name="Trazado 162947" d="M113.217,7.5a54.265,54.265,0,1,0,54.265,54.265A54.265,54.265,0,0,0,113.217,7.5Zm44.356,49.442H144.752c-.651-13.236-3.958-24.977-9.035-33.692A44.692,44.692,0,0,1,157.573,56.942ZM127.95,29.105c4.078,7.514,6.562,17.261,7.142,27.836H118.041V18.35C121.637,20.132,125.092,23.839,127.95,29.105ZM108.394,18.35V56.942H91.342c.58-10.576,3.065-20.322,7.142-27.836C101.342,23.839,104.8,20.132,108.394,18.35Zm-17.676,4.9c-5.077,8.715-8.384,20.457-9.035,33.692H68.862A44.692,44.692,0,0,1,90.718,23.249ZM68.862,66.589H81.682c.651,13.236,3.958,24.977,9.035,33.692A44.692,44.692,0,0,1,68.862,66.589ZM98.484,94.425c-4.078-7.514-6.562-17.261-7.142-27.836h17.051v38.592C104.8,103.4,101.342,99.691,98.484,94.425Zm19.556,10.756V66.589h17.051c-.58,10.576-3.065,20.322-7.142,27.836C125.092,99.691,121.637,103.4,118.041,105.181Zm17.676-4.9c5.077-8.715,8.384-20.457,9.035-33.692h12.821A44.69,44.69,0,0,1,135.717,100.281Z" transform="translate(-58.952 -7.5)" fill="#ccb3f5"/>
      </g>
      <g id="Grupo_106969" data-name="Grupo 106969" transform="translate(63.169 11.718)">
        <path id="Trazado_162948" data-name="Trazado 162948" d="M169.511,42.551a53.954,53.954,0,0,1,9.381,25.439,44.268,44.268,0,0,1,4.079,14.351h-4.537a53.884,53.884,0,0,1-2.522,9.647h7.059a44.691,44.691,0,0,1-21.856,33.692,66.36,66.36,0,0,0,7.285-19.788,54.555,54.555,0,0,1-14.927,13.692c-.042.079-.082.162-.125.24-2.858,5.266-6.314,8.974-9.909,10.756v-6.119a53.884,53.884,0,0,1-9.647,2.522v3.6a17.311,17.311,0,0,1-4.242-3.068c-1.534.13-3.084.2-4.651.2A54.008,54.008,0,0,1,94,118.059a54.266,54.266,0,1,0,75.508-75.508Z" transform="translate(-94.003 -42.551)" fill="#a173ee"/>
      </g>
      <g id="Grupo_106970" data-name="Grupo 106970" transform="translate(51.45 0)">
        <path id="Trazado_162949" data-name="Trazado 162949" d="M269,39.612a2.065,2.065,0,0,0-2.982,1.851V80.055a2.065,2.065,0,0,0,2.065,2.065h17.051a2.065,2.065,0,0,0,2.062-2.178c-.6-10.984-3.158-20.912-7.389-28.708-3.043-5.607-6.78-9.626-10.807-11.622Zm1.148,38.377V45.327a27.879,27.879,0,0,1,6.029,7.877c3.664,6.751,5.982,15.283,6.748,24.786Z" transform="translate(-206.927 -28.547)"/>
        <path id="Trazado_162950" data-name="Trazado 162950" d="M341.3,95.012h12.821a2.066,2.066,0,0,0,2.054-2.287,46.912,46.912,0,0,0-22.865-35.252,2.065,2.065,0,0,0-2.829,2.821c5.033,8.641,8.143,20.273,8.757,32.754A2.065,2.065,0,0,0,341.3,95.012Zm10.456-4.131h-8.51A83.39,83.39,0,0,0,337.691,65.7,42.77,42.77,0,0,1,351.757,90.881Z" transform="translate(-253.435 -41.439)"/>
        <path id="Trazado_162951" data-name="Trazado 162951" d="M107.781,0a56.331,56.331,0,0,0-6.517,112.283V122.4H95.119a3.879,3.879,0,0,0-3.716,2.785H71.055a2.065,2.065,0,0,0,0,4.131H91.244v4.771H71.055a2.065,2.065,0,1,0,0,4.131H91.4A3.879,3.879,0,0,0,95.119,141h13.591a2.065,2.065,0,0,0,0-4.131H95.375V126.528h24.813v10.341h-1.84a2.065,2.065,0,0,0,0,4.131h2.1a3.879,3.879,0,0,0,3.716-2.784h20.348a2.065,2.065,0,0,0,0-4.131H124.318v-4.771h20.189a2.065,2.065,0,0,0,0-4.131H124.16a3.879,3.879,0,0,0-3.716-2.785H114.3v-10.11a55.989,55.989,0,0,0,25-9.26,2.066,2.066,0,0,0-2.313-3.423,52.278,52.278,0,1,1,7.185-5.85,2.065,2.065,0,1,0,2.88,2.961A56.332,56.332,0,0,0,107.781,0Zm2.386,112.611V122.4H105.4v-9.789c.791.033,1.586.054,2.386.054S109.374,112.644,110.167,112.611Z" transform="translate(-51.45 0)"/>
        <path id="Trazado_162952" data-name="Trazado 162952" d="M266.016,255.222A2.065,2.065,0,0,0,269,257.072c4.028-2,7.765-6.015,10.807-11.621,4.231-7.8,6.786-17.724,7.389-28.708a2.065,2.065,0,0,0-2.062-2.179H268.081a2.065,2.065,0,0,0-2.065,2.065Zm4.131-36.527h12.776c-.766,9.5-3.084,18.035-6.748,24.786a27.876,27.876,0,0,1-6.029,7.877Z" transform="translate(-206.927 -155.475)"/>
        <path id="Trazado_162953" data-name="Trazado 162953" d="M87.448,216.851A46.913,46.913,0,0,0,110.313,252.1a2.066,2.066,0,0,0,2.83-2.821c-5.033-8.641-8.143-20.273-8.757-32.754a2.066,2.066,0,0,0-2.063-1.964H89.5a2.066,2.066,0,0,0-2.054,2.287Zm12.928,1.843a83.391,83.391,0,0,0,5.556,25.183,42.769,42.769,0,0,1-14.066-25.183Z" transform="translate(-77.526 -155.475)"/>
        <path id="Trazado_162954" data-name="Trazado 162954" d="M190.249,41.462a2.065,2.065,0,0,0-2.982-1.851c-4.028,2-7.765,6.014-10.807,11.621-4.231,7.8-6.786,17.724-7.389,28.708a2.065,2.065,0,0,0,2.062,2.178h17.051a2.065,2.065,0,0,0,2.065-2.065Zm-4.131,36.527H173.342c.766-9.5,3.084-18.035,6.748-24.786a27.875,27.875,0,0,1,6.029-7.877Z" transform="translate(-136.676 -28.547)"/>
        <path id="Trazado_162955" data-name="Trazado 162955" d="M187.267,257.072a2.065,2.065,0,0,0,2.982-1.851V216.629a2.065,2.065,0,0,0-2.065-2.065H171.132a2.065,2.065,0,0,0-2.062,2.179c.6,10.984,3.158,20.911,7.389,28.708C179.5,251.058,183.239,255.076,187.267,257.072Zm-1.148-38.377v32.662a27.877,27.877,0,0,1-6.029-7.877c-3.664-6.751-5.982-15.283-6.748-24.786h12.776Z" transform="translate(-136.676 -155.475)"/>
        <path id="Trazado_162956" data-name="Trazado 162956" d="M332.267,252.387a2.061,2.061,0,0,0,1.044-.284,46.912,46.912,0,0,0,22.865-35.252,2.066,2.066,0,0,0-2.054-2.287H341.3a2.066,2.066,0,0,0-2.063,1.964c-.614,12.481-3.724,24.113-8.757,32.754a2.066,2.066,0,0,0,1.785,3.105Zm10.98-33.692h8.51a42.769,42.769,0,0,1-14.066,25.183A83.381,83.381,0,0,0,343.247,218.695Z" transform="translate(-253.435 -155.475)"/>
        <path id="Trazado_162957" data-name="Trazado 162957" d="M94.427,76.818a2.065,2.065,0,0,0-2.752.978,46.214,46.214,0,0,0-4.223,14.928,2.065,2.065,0,0,0,2.054,2.287h12.819a2.065,2.065,0,0,0,2.063-1.964c.615-12.48,3.725-24.112,8.757-32.754a2.066,2.066,0,0,0-2.829-2.821A46.743,46.743,0,0,0,96.953,69.217a2.065,2.065,0,1,0,3.265,2.531,42.862,42.862,0,0,1,5.727-6.07,83.4,83.4,0,0,0-5.565,25.2h-8.51a42.08,42.08,0,0,1,3.536-11.31,2.065,2.065,0,0,0-.978-2.752Z" transform="translate(-77.529 -41.44)"/>
      </g>
    </g>
  </g>
</svg>
