<svg id="redes" xmlns="http://www.w3.org/2000/svg" width="90" height="90" viewBox="0 0 90 90">
  <g id="Grupo_96884" data-name="Grupo 96884" transform="translate(47.841 58.14)">
    <g id="Grupo_96880" data-name="Grupo 96880" transform="translate(2.664)">
      <path id="Trazado_151549" data-name="Trazado 151549" d="M322.829,355.611H287.315V332.528a1.776,1.776,0,0,1,1.776-1.776h31.962a1.776,1.776,0,0,1,1.776,1.776Z" transform="translate(-287.315 -330.752)" fill="#b893f5"/>
    </g>
    <g id="Grupo_96881" data-name="Grupo 96881" transform="translate(32.535)">
      <path id="Trazado_151550" data-name="Trazado 151550" d="M461.117,330.752h-3.866a1.776,1.776,0,0,1,1.776,1.776v23.084h3.866V332.528A1.776,1.776,0,0,0,461.117,330.752Z" transform="translate(-457.251 -330.752)" fill="#ff6148"/>
    </g>
    <g id="Grupo_96882" data-name="Grupo 96882" transform="translate(0 24.859)">
      <path id="Trazado_151551" data-name="Trazado 151551" d="M311.227,477.856H273.938a1.776,1.776,0,0,1-1.776-1.776v-3.907H313v3.907A1.776,1.776,0,0,1,311.227,477.856Z" transform="translate(-272.162 -472.174)" fill="#efecef"/>
    </g>
    <g id="Grupo_96883" data-name="Grupo 96883" transform="translate(35.315 24.859)">
      <path id="Trazado_151552" data-name="Trazado 151552" d="M474.842,472.175v3.907a1.776,1.776,0,0,1-1.776,1.776h3.75a1.776,1.776,0,0,0,1.776-1.776v-3.907Z" transform="translate(-473.066 -472.175)" fill="#dddaec"/>
    </g>
  </g>
  <g id="Grupo_96889" data-name="Grupo 96889" transform="translate(1.318 58.14)">
    <g id="Grupo_96885" data-name="Grupo 96885" transform="translate(2.663)">
      <path id="Trazado_151553" data-name="Trazado 151553" d="M58.166,355.611H22.652V332.528a1.776,1.776,0,0,1,1.776-1.776H56.39a1.776,1.776,0,0,1,1.776,1.776Z" transform="translate(-22.652 -330.752)" fill="#b893f5"/>
    </g>
    <g id="Grupo_96886" data-name="Grupo 96886" transform="translate(32.535)">
      <path id="Trazado_151554" data-name="Trazado 151554" d="M196.454,330.752h-3.866a1.776,1.776,0,0,1,1.776,1.776v23.084h3.866V332.528A1.776,1.776,0,0,0,196.454,330.752Z" transform="translate(-192.588 -330.752)" fill="#ff6148"/>
    </g>
    <g id="Grupo_96887" data-name="Grupo 96887" transform="translate(0 24.859)">
      <path id="Trazado_151555" data-name="Trazado 151555" d="M46.565,477.856H9.276A1.776,1.776,0,0,1,7.5,476.081v-3.907H48.34v3.907A1.776,1.776,0,0,1,46.565,477.856Z" transform="translate(-7.5 -472.174)" fill="#efecef"/>
    </g>
    <g id="Grupo_96888" data-name="Grupo 96888" transform="translate(35.315 24.859)">
      <path id="Trazado_151556" data-name="Trazado 151556" d="M210.18,472.175v3.907a1.776,1.776,0,0,1-1.776,1.776h3.75a1.776,1.776,0,0,0,1.776-1.776v-3.907Z" transform="translate(-208.404 -472.175)" fill="#dddaec"/>
    </g>
  </g>
  <g id="Grupo_96894" data-name="Grupo 96894" transform="translate(24.58 1.318)">
    <g id="Grupo_96890" data-name="Grupo 96890" transform="translate(2.664 0)">
      <path id="Trazado_151557" data-name="Trazado 151557" d="M190.5,32.359H154.984V9.276A1.776,1.776,0,0,1,156.76,7.5h31.962A1.776,1.776,0,0,1,190.5,9.276V32.359Z" transform="translate(-154.984 -7.5)" fill="#b893f5"/>
    </g>
    <g id="Grupo_96891" data-name="Grupo 96891" transform="translate(32.535)">
      <path id="Trazado_151558" data-name="Trazado 151558" d="M328.786,7.5H324.92A1.776,1.776,0,0,1,326.7,9.276V32.359h3.866V9.276A1.776,1.776,0,0,0,328.786,7.5Z" transform="translate(-324.92 -7.5)" fill="#ff6148"/>
    </g>
    <g id="Grupo_96892" data-name="Grupo 96892" transform="translate(0 24.859)">
      <path id="Trazado_151559" data-name="Trazado 151559" d="M178.9,154.6H141.607a1.776,1.776,0,0,1-1.776-1.776v-3.907h40.84v3.907A1.776,1.776,0,0,1,178.9,154.6Z" transform="translate(-139.831 -148.922)" fill="#efecef"/>
    </g>
    <g id="Grupo_96893" data-name="Grupo 96893" transform="translate(35.315 24.859)">
      <path id="Trazado_151560" data-name="Trazado 151560" d="M342.511,148.923v3.907a1.776,1.776,0,0,1-1.776,1.776h3.75a1.776,1.776,0,0,0,1.776-1.776v-3.907Z" transform="translate(-340.735 -148.923)" fill="#dddaec"/>
    </g>
  </g>
  <g id="Grupo_96895" data-name="Grupo 96895" transform="translate(41.449 43.757)">
    <circle id="Elipse_4412" data-name="Elipse 4412" cx="3.551" cy="3.551" r="3.551" fill="#ffb476"/>
  </g>
  <g id="Grupo_96896" data-name="Grupo 96896" transform="translate(0 0)">
    <path id="Trazado_151561" data-name="Trazado 151561" d="M306.822,348.11h-1.345v-4.96a1.318,1.318,0,0,0-2.637,0v4.959H269.964V326.344a.458.458,0,0,1,.457-.457h31.962a.457.457,0,0,1,.457.457V337a1.318,1.318,0,0,0,2.637,0V326.344a3.1,3.1,0,0,0-3.094-3.094H270.421a3.1,3.1,0,0,0-3.094,3.094V348.11h-1.346a1.318,1.318,0,0,0-1.318,1.318v3.907a3.1,3.1,0,0,0,3.094,3.094h37.289a3.1,3.1,0,0,0,3.094-3.094v-3.907A1.319,1.319,0,0,0,306.822,348.11Zm-1.318,5.225a.458.458,0,0,1-.457.457H267.757a.458.458,0,0,1-.457-.457v-2.588h38.2Z" transform="translate(-218.14 -266.429)"/>
    <path id="Trazado_151562" data-name="Trazado 151562" d="M42.159,348.11H40.813V326.344a3.1,3.1,0,0,0-3.094-3.094H15.263a1.318,1.318,0,0,0,0,2.637H37.719a.457.457,0,0,1,.457.457v21.765H5.3V326.344a.458.458,0,0,1,.457-.457H9.111a1.318,1.318,0,0,0,0-2.637H5.757a3.1,3.1,0,0,0-3.094,3.094V348.11H1.318A1.318,1.318,0,0,0,0,349.428v3.907a3.1,3.1,0,0,0,3.094,3.094H40.383a3.1,3.1,0,0,0,3.094-3.094v-3.907A1.318,1.318,0,0,0,42.159,348.11Zm-1.318,5.225a.458.458,0,0,1-.457.457H3.094a.458.458,0,0,1-.457-.457v-2.588h38.2Z" transform="translate(0 -266.429)"/>
    <path id="Trazado_151563" data-name="Trazado 151563" d="M135.423,33.179h28a1.318,1.318,0,1,0,0-2.637h-28a.457.457,0,0,1-.457-.457V27.5h38.2v2.589a.458.458,0,0,1-.457.457h-3.134a1.318,1.318,0,0,0,0,2.637h3.134a3.1,3.1,0,0,0,3.094-3.094V26.177a1.318,1.318,0,0,0-1.318-1.318h-1.345V3.094A3.1,3.1,0,0,0,170.049,0H138.087a3.1,3.1,0,0,0-3.094,3.094V24.859h-1.345a1.318,1.318,0,0,0-1.318,1.318v3.908A3.1,3.1,0,0,0,135.423,33.179ZM137.63,3.094a.458.458,0,0,1,.457-.457h31.962a.458.458,0,0,1,.457.457V24.859H137.63Z" transform="translate(-109.068 0)"/>
    <path id="Trazado_151564" data-name="Trazado 151564" d="M217.048,225.107a1.318,1.318,0,0,0,1.343-2.269l-4.667-2.763a4.868,4.868,0,0,0-3.387-5.939v-4.724a1.318,1.318,0,0,0-2.637,0v4.724a4.868,4.868,0,0,0-3.387,5.939l-4.667,2.763a1.318,1.318,0,1,0,1.343,2.269l4.669-2.764a4.856,4.856,0,0,0,6.72,0Zm-8.029-4.051a2.233,2.233,0,1,1,2.233-2.233A2.235,2.235,0,0,1,209.019,221.056Z" transform="translate(-164.019 -171.515)"/>
  </g>
</svg>
