<svg xmlns="http://www.w3.org/2000/svg" width="400" height="360" viewBox="0 0 400 360">
  <g id="Grupo_110657" data-name="Grupo 110657" transform="translate(-1021 -860.7)">
    <rect id="Rectángulo_35388" data-name="Rectángulo 35388" width="400" height="360" rx="15" transform="translate(1021 860.7)" fill="#ffe5cf"/>
    <ellipse id="Elipse_4391" data-name="Elipse 4391" cx="90.5" cy="91" rx="90.5" ry="91" transform="translate(1130 918.7)" fill="#ffb476"/>
    <g id="comparticion-de-archivos" transform="translate(1154 939.901)">
      <g id="Grupo_106952" data-name="Grupo 106952" transform="translate(70.964 86.24)">
        <g id="Grupo_106948" data-name="Grupo 106948" transform="translate(3.951)">
          <path id="Trazado_162920" data-name="Trazado 162920" d="M339.993,367.627H287.315V333.386a2.634,2.634,0,0,1,2.634-2.634h47.41a2.634,2.634,0,0,1,2.634,2.634Z" transform="translate(-287.315 -330.752)" fill="#b893f5"/>
        </g>
        <g id="Grupo_106949" data-name="Grupo 106949" transform="translate(48.26)">
          <path id="Trazado_162921" data-name="Trazado 162921" d="M462.986,330.752h-5.735a2.634,2.634,0,0,1,2.634,2.634v34.241h5.735V333.386A2.634,2.634,0,0,0,462.986,330.752Z" transform="translate(-457.251 -330.752)" fill="#ff6148"/>
        </g>
        <g id="Grupo_106950" data-name="Grupo 106950" transform="translate(0 36.875)">
          <path id="Trazado_162922" data-name="Trazado 162922" d="M330.108,480.6H274.8a2.634,2.634,0,0,1-2.634-2.634v-5.795h60.58v5.795A2.634,2.634,0,0,1,330.108,480.6Z" transform="translate(-272.162 -472.174)" fill="#efecef"/>
        </g>
        <g id="Grupo_106951" data-name="Grupo 106951" transform="translate(52.384 36.875)">
          <path id="Trazado_162923" data-name="Trazado 162923" d="M475.7,472.175v5.795a2.634,2.634,0,0,1-2.634,2.634h5.562a2.634,2.634,0,0,0,2.634-2.634v-5.795Z" transform="translate(-473.066 -472.175)" fill="#dddaec"/>
        </g>
      </g>
      <g id="Grupo_106957" data-name="Grupo 106957" transform="translate(1.956 86.24)">
        <g id="Grupo_106953" data-name="Grupo 106953" transform="translate(3.951)">
          <path id="Trazado_162924" data-name="Trazado 162924" d="M75.33,367.627H22.652V333.386a2.634,2.634,0,0,1,2.634-2.634H72.7a2.634,2.634,0,0,1,2.634,2.634Z" transform="translate(-22.652 -330.752)" fill="#b893f5"/>
        </g>
        <g id="Grupo_106954" data-name="Grupo 106954" transform="translate(48.26)">
          <path id="Trazado_162925" data-name="Trazado 162925" d="M198.323,330.752h-5.735a2.634,2.634,0,0,1,2.634,2.634v34.241h5.735V333.386A2.634,2.634,0,0,0,198.323,330.752Z" transform="translate(-192.588 -330.752)" fill="#ff6148"/>
        </g>
        <g id="Grupo_106955" data-name="Grupo 106955" transform="translate(0 36.875)">
          <path id="Trazado_162926" data-name="Trazado 162926" d="M65.446,480.6H10.134A2.634,2.634,0,0,1,7.5,477.969v-5.795H68.08v5.795A2.634,2.634,0,0,1,65.446,480.6Z" transform="translate(-7.5 -472.174)" fill="#efecef"/>
        </g>
        <g id="Grupo_106956" data-name="Grupo 106956" transform="translate(52.384 36.875)">
          <path id="Trazado_162927" data-name="Trazado 162927" d="M211.038,472.175v5.795A2.634,2.634,0,0,1,208.4,480.6h5.562a2.634,2.634,0,0,0,2.634-2.634v-5.795Z" transform="translate(-208.404 -472.175)" fill="#dddaec"/>
        </g>
      </g>
      <g id="Grupo_106958" data-name="Grupo 106958" transform="translate(62.535 69.383)">
        <circle id="Elipse_4988" data-name="Elipse 4988" cx="4.214" cy="4.214" r="4.214" fill="#ffb476"/>
      </g>
      <g id="Grupo_106959" data-name="Grupo 106959" transform="translate(40.411 1.955)">
        <path id="Trazado_162928" data-name="Trazado 162928" d="M207.662,22.324V61.232a5.266,5.266,0,0,1-5.268,5.268H160.252a5.266,5.266,0,0,1-5.268-5.268V12.768A5.266,5.266,0,0,1,160.252,7.5h32.587a4.966,4.966,0,0,1,.864.074,5.244,5.244,0,0,1,2.86,1.47l9.556,9.556a5.245,5.245,0,0,1,1.47,2.86,4.965,4.965,0,0,1,.074.864Z" transform="translate(-154.984 -7.5)" fill="#e6f7fe"/>
      </g>
      <g id="Grupo_106960" data-name="Grupo 106960" transform="translate(72.281 1.955)">
        <path id="Trazado_162929" data-name="Trazado 162929" d="M297.948,21.46a5.244,5.244,0,0,0-1.47-2.86l-9.556-9.556a5.245,5.245,0,0,0-2.86-1.47A4.966,4.966,0,0,0,283.2,7.5h-5.984V18.826a9.482,9.482,0,0,0,9.482,9.482h1.844a2.634,2.634,0,0,1,2.634,2.634v30.29a5.266,5.266,0,0,1-5.268,5.268h6.848a5.268,5.268,0,0,0,5.268-5.268V22.324A4.989,4.989,0,0,0,297.948,21.46Z" transform="translate(-277.214 -7.5)" fill="#d3effd"/>
      </g>
      <g id="Grupo_106961" data-name="Grupo 106961" transform="translate(79.129 2.029)">
        <path id="Trazado_162930" data-name="Trazado 162930" d="M317.363,21.669H306.111a2.634,2.634,0,0,1-2.634-2.634V7.783a5.244,5.244,0,0,1,2.86,1.47l9.556,9.556A5.239,5.239,0,0,1,317.363,21.669Z" transform="translate(-303.477 -7.783)" fill="#bed8fb"/>
      </g>
      <g id="Grupo_106962" data-name="Grupo 106962" transform="translate(0 -0.001)">
        <path id="Trazado_162931" data-name="Trazado 162931" d="M131.544,121.159h-1.995v-5.85a1.956,1.956,0,1,0-3.911,0v5.848H76.872V88.873a.679.679,0,0,1,.678-.678H124.96a.679.679,0,0,1,.678.678v17.311a1.956,1.956,0,1,0,3.911,0V88.873a4.594,4.594,0,0,0-4.589-4.589H103.21V73.6a1.956,1.956,0,0,0-1.956-1.956H72.6a6.2,6.2,0,0,0-3.895-3.895V62.911H87.82a7.233,7.233,0,0,0,7.225-7.225V41.027a1.956,1.956,0,1,0-3.911,0V55.686A3.318,3.318,0,0,1,87.82,59H45.679a3.318,3.318,0,0,1-3.314-3.314V7.222A3.316,3.316,0,0,1,45.679,3.91H77.174v9.37a4.6,4.6,0,0,0,4.59,4.59h9.371V31.9a1.956,1.956,0,0,0,3.911,0V16.778a6.827,6.827,0,0,0-.084-1.043c0-.035-.009-.07-.014-.1,0-.016,0-.033-.007-.048s0-.013,0-.019c-.005-.029-.011-.058-.018-.087a7.143,7.143,0,0,0-1.991-3.805L83.373,2.116a7.153,7.153,0,0,0-3.843-2l-.014,0L79.466.1c-.036-.006-.074-.009-.111-.014l-.033,0A7.063,7.063,0,0,0,78.264,0H45.679a7.232,7.232,0,0,0-7.225,7.223V55.685a7.233,7.233,0,0,0,7.225,7.225H64.794v4.836A6.2,6.2,0,0,0,60.9,71.641H32.245A1.956,1.956,0,0,0,30.29,73.6V84.284H8.539A4.594,4.594,0,0,0,3.95,88.873v7.238a1.956,1.956,0,1,0,3.911,0V88.873a.679.679,0,0,1,.678-.678H55.95a.679.679,0,0,1,.678.678v32.285H7.861V105.237a1.956,1.956,0,0,0-3.911,0v15.922H1.956A1.956,1.956,0,0,0,0,123.114v5.795a4.6,4.6,0,0,0,4.59,4.59H59.9a4.6,4.6,0,0,0,4.59-4.59v-5.795a1.956,1.956,0,0,0-1.956-1.956h-2V88.873a4.594,4.594,0,0,0-4.589-4.589H34.2V75.553H60.9a6.168,6.168,0,0,0,11.7,0H99.3v8.731H77.55a4.594,4.594,0,0,0-4.589,4.589v32.286h-2a1.956,1.956,0,0,0-1.956,1.956v5.795a4.6,4.6,0,0,0,4.59,4.59H128.91a4.6,4.6,0,0,0,4.59-4.59v-5.795a1.956,1.956,0,0,0-1.956-1.956ZM89.685,13.959H81.763a.679.679,0,0,1-.678-.678V5.359ZM60.58,128.909a.679.679,0,0,1-.678.678H4.59a.679.679,0,0,1-.678-.678V125.07H60.58Zm6.17-53.053A2.259,2.259,0,1,1,69.009,73.6,2.261,2.261,0,0,1,66.75,75.856Zm62.839,53.053a.679.679,0,0,1-.678.678H73.6a.679.679,0,0,1-.678-.678V125.07h56.669Z" transform="translate(0 0.001)"/>
        <path id="Trazado_162932" data-name="Trazado 162932" d="M181.765,36.236h13.7a1.956,1.956,0,1,0,0-3.911h-13.7a1.956,1.956,0,1,0,0,3.911Z" transform="translate(-132.925 -23.896)"/>
        <path id="Trazado_162933" data-name="Trazado 162933" d="M181.765,68.561h7.9a1.956,1.956,0,1,0,0-3.911h-7.9a1.956,1.956,0,1,0,0,3.911Z" transform="translate(-132.925 -47.793)"/>
        <path id="Trazado_162934" data-name="Trazado 162934" d="M265.38,96.976H246.416a1.956,1.956,0,0,0,0,3.911H265.38a1.956,1.956,0,1,0,0-3.911Z" transform="translate(-180.719 -71.69)"/>
        <path id="Trazado_162935" data-name="Trazado 162935" d="M181.765,100.887h8.428a1.956,1.956,0,1,0,0-3.911h-8.428a1.956,1.956,0,1,0,0,3.911Z" transform="translate(-132.925 -71.69)"/>
        <path id="Trazado_162936" data-name="Trazado 162936" d="M295.25,129.3h-8.428a1.956,1.956,0,1,0,0,3.911h8.428a1.956,1.956,0,1,0,0-3.911Z" transform="translate(-210.59 -95.587)"/>
        <path id="Trazado_162937" data-name="Trazado 162937" d="M202.685,131.257a1.956,1.956,0,0,0-1.956-1.956H181.766a1.956,1.956,0,0,0,0,3.911H200.73A1.956,1.956,0,0,0,202.685,131.257Z" transform="translate(-132.926 -95.587)"/>
        <path id="Trazado_162938" data-name="Trazado 162938" d="M271.353,161.626H254.5a1.956,1.956,0,1,0,0,3.911h16.857a1.956,1.956,0,1,0,0-3.911Z" transform="translate(-186.693 -119.483)"/>
        <path id="Trazado_162939" data-name="Trazado 162939" d="M194.256,163.582a1.956,1.956,0,0,0-1.956-1.956H181.765a1.956,1.956,0,1,0,0,3.911H192.3A1.956,1.956,0,0,0,194.256,163.582Z" transform="translate(-132.925 -119.483)"/>
        <path id="Trazado_162940" data-name="Trazado 162940" d="M246.415,197.862h18.964a1.956,1.956,0,0,0,0-3.911H246.415a1.956,1.956,0,0,0,0,3.911Z" transform="translate(-180.718 -143.38)"/>
        <path id="Trazado_162941" data-name="Trazado 162941" d="M181.765,193.951a1.956,1.956,0,1,0,0,3.911h8.428a1.956,1.956,0,0,0,0-3.911Z" transform="translate(-132.925 -143.38)"/>
      </g>
    </g>
  </g>
</svg>
