<svg xmlns="http://www.w3.org/2000/svg" width="80" height="80" viewBox="0 0 80 80">
  <g id="Grupo_110660" data-name="Grupo 110660" transform="translate(-378 -6850.3)">
    <g id="Grupo_110659" data-name="Grupo 110659">
      <rect id="Rectángulo_35857" data-name="Rectángulo 35857" width="80" height="80" rx="10" transform="translate(378 6850.3)" fill="#083142"/>
      <g id="empleados" transform="translate(389 6833.237)">
        <g id="Grupo_92396" data-name="Grupo 92396" transform="translate(31.201 68.862)">
          <g id="Grupo_92395" data-name="Grupo 92395">
            <path id="Trazado_104704" data-name="Trazado 104704" d="M283.45,361.686h-3.133a.837.837,0,0,0,0,1.675h3.133a.837.837,0,0,0,0-1.675Z" transform="translate(-279.479 -361.686)" fill="#fff"/>
          </g>
        </g>
        <g id="Grupo_92398" data-name="Grupo 92398" transform="translate(24.642 32.063)">
          <g id="Grupo_92397" data-name="Grupo 92397" transform="translate(0 0)">
            <path id="Trazado_104705" data-name="Trazado 104705" d="M249.7,59.9l-4.559-1.759-2.325-2.325a.833.833,0,0,0-.538-.243v-1.85a8.635,8.635,0,0,0,2.19-4.314,2.4,2.4,0,0,0,.587-.047,2.478,2.478,0,0,0,1.923-2.458V46.3a2.509,2.509,0,0,0-.737-1.781c.739-4.021.13-7.3-1.769-9.492-1.837-2.121-4.8-3.135-8.56-2.932a11.215,11.215,0,0,0-6.431,2.372,4.411,4.411,0,0,0-1.723.585,4.456,4.456,0,0,0-2.038,4.145,20.909,20.909,0,0,0,.581,4.864,2.482,2.482,0,0,0-1.364,2.247v.6a2.478,2.478,0,0,0,1.923,2.458,2.39,2.39,0,0,0,.587.047,8.636,8.636,0,0,0,2.19,4.314v1.85a.833.833,0,0,0-.538.243l-2.325,2.325L222.216,59.9a5.544,5.544,0,0,0-1.12.586.837.837,0,1,0,.941,1.385,3.875,3.875,0,0,1,.781-.409l4.231-1.632,3.235,4.853a2.4,2.4,0,0,0,1.763,1.059c.08.008.16.012.24.012a2.39,2.39,0,0,0,1.178-.312l-.694,15.749a.837.837,0,0,0,.8.873h.038a.837.837,0,0,0,.836-.8l.644-14.618h1.738l.644,14.618a.837.837,0,0,0,.836.8h.037a.837.837,0,0,0,.8-.873l-.694-15.749a2.389,2.389,0,0,0,1.178.312c.079,0,.16,0,.24-.012a2.4,2.4,0,0,0,1.763-1.059l3.235-4.853,4.231,1.632a3.854,3.854,0,0,1,1.506,1.05l-2.895,2.895a5.5,5.5,0,0,0-1.622,3.916V81.228a.837.837,0,0,0,1.675,0V69.323a3.838,3.838,0,0,1,1.131-2.731l2.541-2.541a3.858,3.858,0,0,1,.134,1.17l-.648,15.973a.837.837,0,0,0,.8.871h.035a.837.837,0,0,0,.836-.8l.649-15.974A5.536,5.536,0,0,0,249.7,59.9ZM229.087,49.066a1.63,1.63,0,0,0-1.7-1.329.718.718,0,0,1-.195-.013.812.812,0,0,1-.584-.817v-.6a.794.794,0,0,1,.591-.8.728.728,0,0,1,.717.274,1.168,1.168,0,0,0,1.6.252,6.079,6.079,0,0,0,1.373-1.342.837.837,0,0,0-1.344-1,4.445,4.445,0,0,1-.652.7,2.4,2.4,0,0,0-.908-.485,19.257,19.257,0,0,1-.6-4.719,2.933,2.933,0,0,1,1.175-2.678,2.718,2.718,0,0,1,1.252-.4.845.845,0,0,0,.578-.231,9.432,9.432,0,0,1,5.6-2.12c3.227-.174,5.717.64,7.2,2.356s2,4.384,1.455,7.707a3.63,3.63,0,0,0-.714.05l-.787-1.889a.838.838,0,0,0-.985-.488c-.078.02-7.81,1.98-11.052-2.056a.837.837,0,1,0-1.305,1.049c3.311,4.122,9.88,3.225,12.067,2.788l.608,1.461a1.376,1.376,0,0,0,1.59.815,1.807,1.807,0,0,1,.627-.046.79.79,0,0,1,.594.786v.611a.812.812,0,0,1-.584.817.71.71,0,0,1-.195.013,1.631,1.631,0,0,0-1.7,1.329,6.987,6.987,0,0,1-13.744,0Zm3.714,14.8a.729.729,0,0,1-1.123-.111l-3.259-4.889,1.311-1.311,5,4.378Zm2.362,1.106.051-1.151.745-.745.745.745.051,1.151Zm.8-4.192-4.646-4.065v-1.6a8.666,8.666,0,0,0,9.292,0v1.6Zm4.28,2.975a.729.729,0,0,1-1.123.111l-1.933-1.933,5-4.378,1.311,1.311Z" transform="translate(-220.729 -32.066)" fill="#fff"/>
          </g>
        </g>
        <g id="Grupo_92400" data-name="Grupo 92400" transform="translate(0 32.063)">
          <g id="Grupo_92399" data-name="Grupo 92399" transform="translate(0 0)">
            <path id="Trazado_104706" data-name="Trazado 104706" d="M26.553,64.286,22.465,62.5,20.23,60.267a.832.832,0,0,0-.538-.243V58.707a8.648,8.648,0,0,0,3.757-5.63,2.406,2.406,0,0,0,.661-.063,2.492,2.492,0,0,0,1.849-2.441v-.61A2.5,2.5,0,0,0,24.885,47.9a9.468,9.468,0,0,0,.29-2.32,9.762,9.762,0,0,0-4.7-8.278,5.429,5.429,0,0,0-5.536-5.242A5.429,5.429,0,0,0,9.4,37.3a9.763,9.763,0,0,0-4.7,8.278A9.468,9.468,0,0,0,4.988,47.9a2.5,2.5,0,0,0-1.071,2.075v.6a2.492,2.492,0,0,0,1.849,2.441,2.4,2.4,0,0,0,.661.063,8.648,8.648,0,0,0,3.757,5.63v1.317a.832.832,0,0,0-.538.243L7.411,62.5,3.322,64.286A5.572,5.572,0,0,0,.005,69.6L.5,81.261a.837.837,0,0,0,.836.8h.036a.837.837,0,0,0,.8-.872L1.678,69.524a3.855,3.855,0,0,1,.531-2.109l2.2,2.637a4.655,4.655,0,0,1,1.077,2.974v8.2a.837.837,0,1,0,1.675,0v-8.2a6.333,6.333,0,0,0-1.465-4.046l-2.336-2.8a3.8,3.8,0,0,1,.635-.357l3.563-1.555,2.518,4.087a1.62,1.62,0,0,0,2.432.383l1.6-1.361V81.225a.837.837,0,1,0,1.675,0V67.374l1.6,1.361a1.621,1.621,0,0,0,2.432-.383l2.518-4.087,3.563,1.555a3.8,3.8,0,0,1,.635.357l-2.336,2.8a6.333,6.333,0,0,0-1.465,4.046v8.2a.837.837,0,1,0,1.675,0v-8.2a4.655,4.655,0,0,1,1.077-2.974l2.2-2.637a3.855,3.855,0,0,1,.531,2.109L27.7,81.19a.837.837,0,0,0,.8.872h.036a.837.837,0,0,0,.836-.8L29.87,69.6A5.573,5.573,0,0,0,26.553,64.286ZM14.938,33.738a3.836,3.836,0,0,1,3.729,2.676,10.618,10.618,0,0,0-7.457,0A3.836,3.836,0,0,1,14.938,33.738ZM8.066,52.732A1.631,1.631,0,0,0,6.37,51.4a.723.723,0,0,1-.219-.019.818.818,0,0,1-.56-.812v-.6a.794.794,0,0,1,.591-.8.728.728,0,0,1,.716.274,1.168,1.168,0,0,0,1.6.252,6.073,6.073,0,0,0,1.355-1.318A.837.837,0,0,0,8.52,47.377a4.439,4.439,0,0,1-.639.687,2.4,2.4,0,0,0-1.264-.556,7.8,7.8,0,0,1-.242-1.924,8.383,8.383,0,0,1,8.563-8.171A8.383,8.383,0,0,1,23.5,45.583a7.8,7.8,0,0,1-.241,1.921,3.84,3.84,0,0,0-.652.107l-.629-.518a1.607,1.607,0,0,0-1.117-.366c-1.231.073-7.534.239-10.767-3.631A.837.837,0,1,0,8.808,44.17a11.966,11.966,0,0,0,6.952,3.836,20.494,20.494,0,0,0,5.17.394l.982.807a.836.836,0,0,0,.952.077,1.848,1.848,0,0,1,.825-.11.79.79,0,0,1,.594.786v.61a.818.818,0,0,1-.56.812.716.716,0,0,1-.219.019,1.632,1.632,0,0,0-1.7,1.329,6.987,6.987,0,0,1-13.744,0Zm3.4,14.689L8.947,63.333l1.29-1.29L13.7,65.51Zm3.472-3.046L11.858,61.3V59.563a8.656,8.656,0,0,0,6.159,0V61.3Zm3.472,3.046L16.171,65.51l3.467-3.467,1.29,1.29Z" transform="translate(0 -32.063)" fill="#fff"/>
          </g>
        </g>
        <g id="Grupo_92402" data-name="Grupo 92402" transform="translate(8.617 72.555)">
          <g id="Grupo_92401" data-name="Grupo 92401" transform="translate(0 0)">
            <path id="Trazado_104707" data-name="Trazado 104707" d="M80.371,394.766h-2.35a.837.837,0,1,0,0,1.675h2.35a.837.837,0,1,0,0-1.675Z" transform="translate(-77.184 -394.766)" fill="#fff"/>
          </g>
        </g>
      </g>
    </g>
  </g>
</svg>
