<svg xmlns="http://www.w3.org/2000/svg" width="80" height="80" viewBox="0 0 80 80">
  <g id="Grupo_110663" data-name="Grupo 110663" transform="translate(9168 4739)">
    <rect id="Rectángulo_35867" data-name="Rectángulo 35867" width="80" height="80" rx="10" transform="translate(-9168 -4739)" fill="#083142"/>
    <g id="chip" transform="translate(-9153 -4724.001)">
      <g id="Grupo_108152" data-name="Grupo 108152" transform="translate(9.395 0.001)">
        <g id="Grupo_108151" data-name="Grupo 108151" transform="translate(0 0)">
          <path id="Trazado_164422" data-name="Trazado 164422" d="M136.078,24.269H124.285V22.6h3.182a.732.732,0,0,0,0-1.465h-3.182V19.471h2.209a3.06,3.06,0,0,0,2.179-.9l4.817-4.817a2.3,2.3,0,1,0-1.036-1.036l-4.817,4.817a1.606,1.606,0,0,1-1.143.473h-2.209V16.39a3.868,3.868,0,0,0-3.864-3.864h-1.616V6.042a2.3,2.3,0,1,0-1.465,0v6.484h-1.666V9.344a.732.732,0,0,0-1.465,0v3.182h-1.667V.733a.732.732,0,1,0-1.465,0V12.526h-1.666V9.344a.732.732,0,0,0-1.465,0v3.182h-1.666V10.317a3.061,3.061,0,0,0-.9-2.179L100.559,3.32a2.3,2.3,0,1,0-1.036,1.036l4.819,4.819a1.605,1.605,0,0,1,.473,1.143v2.209H103.2a3.88,3.88,0,0,0-.966.122.732.732,0,0,0,.365,1.419,2.412,2.412,0,0,1,.6-.076h17.222a2.4,2.4,0,0,1,2.4,2.4V33.612a2.413,2.413,0,0,1-.075.6.732.732,0,1,0,1.419.365,3.876,3.876,0,0,0,.122-.965V32h6.484a2.3,2.3,0,1,0,0-1.465h-6.484V28.865h3.182a.732.732,0,0,0,0-1.465h-3.182V25.733h11.793a.732.732,0,0,0,0-1.465ZM133.923,11.1a.833.833,0,1,1-.244.589A.828.828,0,0,1,133.923,11.1ZM99.092,2.888a.833.833,0,1,1,0-1.178A.834.834,0,0,1,99.092,2.888ZM118.073,4.7a.833.833,0,1,1,.833-.833A.834.834,0,0,1,118.073,4.7ZM132.947,30.43a.833.833,0,1,1-.833.833A.834.834,0,0,1,132.947,30.43Z" transform="translate(-96.206 -0.001)" fill="#fff"/>
        </g>
      </g>
      <g id="Grupo_108154" data-name="Grupo 108154" transform="translate(0 14.875)">
        <g id="Grupo_108153" data-name="Grupo 108153">
          <path id="Trazado_164423" data-name="Trazado 164423" d="M39.933,183.51a2.3,2.3,0,0,0-2.646-.432l-4.819-4.819A1.605,1.605,0,0,1,32,177.116v-2.209h1.616a3.878,3.878,0,0,0,.965-.122.732.732,0,0,0-.365-1.419,2.411,2.411,0,0,1-.6.075H16.389a2.4,2.4,0,0,1-2.4-2.4V153.822a2.409,2.409,0,0,1,.075-.6.732.732,0,0,0-1.419-.365,3.872,3.872,0,0,0-.122.965v1.616H6.041a2.3,2.3,0,1,0,0,1.465h6.484v1.667H9.343a.732.732,0,0,0,0,1.465h3.182V161.7H.732a.732.732,0,1,0,0,1.465H12.525v1.666H9.343a.732.732,0,0,0,0,1.465h3.182v1.667H10.316a3.06,3.06,0,0,0-2.179.9l-4.817,4.817a2.3,2.3,0,1,0,1.036,1.036L9.174,169.9a1.606,1.606,0,0,1,1.143-.473h2.209v1.616a3.868,3.868,0,0,0,3.864,3.864h1.616v6.484a2.3,2.3,0,1,0,1.465,0v-6.484h1.666v3.182a.732.732,0,0,0,1.465,0v-3.182h1.666V186.7a.732.732,0,0,0,1.465,0V174.908H27.4v3.182a.732.732,0,0,0,1.465,0v-3.182H30.53v2.209a3.061,3.061,0,0,0,.9,2.179l4.819,4.819a2.3,2.3,0,1,0,3.682-.6ZM3.864,157a.833.833,0,1,1,.833-.833A.834.834,0,0,1,3.864,157ZM2.887,176.33a.833.833,0,1,1,.244-.589A.828.828,0,0,1,2.887,176.33Zm16.683,7.239a.833.833,0,1,1-.833-.833A.834.834,0,0,1,19.571,183.569ZM38.9,185.724a.833.833,0,1,1,0-1.178A.834.834,0,0,1,38.9,185.724Z" transform="translate(0 -152.306)" fill="#fff"/>
        </g>
      </g>
      <g id="Grupo_108156" data-name="Grupo 108156" transform="translate(17.222 16.44)">
        <g id="Grupo_108155" data-name="Grupo 108155">
          <path id="Trazado_164424" data-name="Trazado 164424" d="M191.912,174.944a3.538,3.538,0,0,0-2.714-3.324,2.5,2.5,0,0,0,.072-.59,2.823,2.823,0,0,0-2.934-2.69,3.047,3.047,0,0,0-2.2.915,3.047,3.047,0,0,0-2.2-.915A2.823,2.823,0,0,0,179,171.03a2.5,2.5,0,0,0,.072.59,3.538,3.538,0,0,0-2.714,3.324,3.217,3.217,0,0,0,.771,2.084,3.622,3.622,0,0,0-.771,2.221,3.772,3.772,0,0,0,1.761,3.129v0a3.241,3.241,0,0,0,3.375,3.081,3.5,3.5,0,0,0,2.642-1.168,3.5,3.5,0,0,0,2.642,1.168,3.264,3.264,0,0,0,3.367-2.891,3.423,3.423,0,0,0,1.768-2.93,3.3,3.3,0,0,0-1.019-2.348A3.3,3.3,0,0,0,191.912,174.944Zm-2.592,3a1.954,1.954,0,0,1,1.127,1.7,1.874,1.874,0,0,1-.645,1.377,3.288,3.288,0,0,0-1.925-1.551.732.732,0,1,0-.439,1.4,1.662,1.662,0,0,1,1.248,1.516,1.936,1.936,0,0,1-3.819,0v-4.7a1.783,1.783,0,0,1,1.91-1.616.732.732,0,0,0,0-1.465,3.581,3.581,0,0,0-1.91.543v-.936a.732.732,0,0,0-1.465,0v4.066a3.489,3.489,0,0,0-.809-.375.732.732,0,0,0-.439,1.4,1.661,1.661,0,0,1,1.248,1.516v1.566a1.936,1.936,0,0,1-3.819,0,1.477,1.477,0,0,1,.456-1.045.732.732,0,0,0-1.033-1.039,3.116,3.116,0,0,0-.452.568,2.234,2.234,0,0,1-.733-1.615,2.494,2.494,0,0,1,2.071-2.318.732.732,0,0,0-.328-1.428,4.462,4.462,0,0,0-1.344.547,1.767,1.767,0,0,1-.4-1.107,2.2,2.2,0,0,1,2.332-2.007h.02a.732.732,0,0,0,.621-1.118l-.017-.027-.01-.013c-.011-.016-.023-.032-.036-.047h0a1.087,1.087,0,0,1-.268-.7,1.494,1.494,0,0,1,2.938,0,.732.732,0,0,0,1.465,0,1.494,1.494,0,0,1,2.938,0,1.03,1.03,0,0,1-.11.461,4.068,4.068,0,0,0-1.2.3.732.732,0,1,0,.569,1.35,2.644,2.644,0,0,1,1.012-.2h.041a2.2,2.2,0,0,1,2.332,2.007,1.954,1.954,0,0,1-1.127,1.7.732.732,0,0,0,0,1.3Z" transform="translate(-176.357 -168.34)" fill="#fff"/>
        </g>
      </g>
    </g>
  </g>
</svg>
