<svg xmlns="http://www.w3.org/2000/svg" width="80" height="80" viewBox="0 0 80 80">
  <g id="Grupo_110664" data-name="Grupo 110664" transform="translate(9168 4515)">
    <rect id="Rectángulo_35869" data-name="Rectángulo 35869" width="80" height="80" rx="10" transform="translate(-9168 -4515)" fill="#083142"/>
    <g id="wifi-router" transform="translate(-9155 -4556.546)">
      <path id="Trazado_164428" data-name="Trazado 164428" d="M196.156,89.916h-3.331l-.9-27.16a2.286,2.286,0,0,0-4.569,0l-.9,27.16h-5.842a.807.807,0,0,0,0,1.615h15.533a1.347,1.347,0,0,1,1.345,1.345v6.7a1.347,1.347,0,0,1-1.345,1.345H162.267a.807.807,0,0,0,0,1.615h33.889a2.963,2.963,0,0,0,2.96-2.96v-6.7a2.963,2.963,0,0,0-2.96-2.96Zm-7.182-27.107a.671.671,0,0,1,1.341,0l.894,27.107h-3.13Z" transform="translate(-144.116 0)" fill="#fff"/>
      <path id="Trazado_164429" data-name="Trazado 164429" d="M14.923,100.924H2.96a1.347,1.347,0,0,1-1.345-1.345v-6.7A1.347,1.347,0,0,1,2.96,91.531H33.278a.807.807,0,0,0,0-1.615H12.652l-.9-27.16a2.286,2.286,0,0,0-4.569,0L6.78,75.115a.807.807,0,1,0,1.614.053L8.8,62.809a.671.671,0,0,1,1.341,0l.894,27.107H7.907l.38-11.521a.807.807,0,0,0-1.614-.053L6.292,89.916H2.96A2.963,2.963,0,0,0,0,92.876v6.7a2.963,2.963,0,0,0,2.96,2.96H14.923a.807.807,0,1,0,0-1.614Z" transform="translate(0 0)" fill="#fff"/>
      <path id="Trazado_164430" data-name="Trazado 164430" d="M51.533,401.189a.807.807,0,0,0,0,1.615h2.579a.807.807,0,0,0,0-1.615Z" transform="translate(-45.277 -304.051)" fill="#fff"/>
      <path id="Trazado_164431" data-name="Trazado 164431" d="M110.78,401.189H108.2a.807.807,0,0,0,0,1.615h2.579a.807.807,0,0,0,0-1.615Z" transform="translate(-95.858 -304.051)" fill="#fff"/>
      <path id="Trazado_164432" data-name="Trazado 164432" d="M164.87,401.189a.807.807,0,1,0,0,1.615h2.579a.807.807,0,1,0,0-1.615Z" transform="translate(-146.439 -304.051)" fill="#fff"/>
      <path id="Trazado_164433" data-name="Trazado 164433" d="M221.54,401.189a.807.807,0,1,0,0,1.615h2.579a.807.807,0,0,0,0-1.615Z" transform="translate(-197.021 -304.051)" fill="#fff"/>
      <path id="Trazado_164434" data-name="Trazado 164434" d="M370,402.8a.807.807,0,1,0,0-1.615h-2.579a.807.807,0,1,0,0,1.615Z" transform="translate(-327.232 -304.05)" fill="#fff"/>
      <path id="Trazado_164435" data-name="Trazado 164435" d="M425.9,402.8a.807.807,0,0,0,0-1.615h-2.579a.807.807,0,0,0,0,1.615Z" transform="translate(-377.124 -304.05)" fill="#fff"/>
      <path id="Trazado_164436" data-name="Trazado 164436" d="M152.555,136.768a13.992,13.992,0,0,1,19.765,0,.807.807,0,1,0,1.142-1.142,15.608,15.608,0,0,0-22.049,0,.807.807,0,1,0,1.142,1.142Z" transform="translate(-134.937 -62.945)" fill="#fff"/>
      <path id="Trazado_164437" data-name="Trazado 164437" d="M195.837,175.793a.807.807,0,0,0,0-1.142,11.274,11.274,0,0,0-15.912-.013.807.807,0,1,0,1.132,1.151,9.657,9.657,0,0,1,13.638,0A.807.807,0,0,0,195.837,175.793Z" transform="translate(-160.374 -98.909)" fill="#fff"/>
      <path id="Trazado_164438" data-name="Trazado 164438" d="M217.226,214.292a.807.807,0,0,0,.571-1.378,7.012,7.012,0,0,0-9.917,0,.807.807,0,1,0,1.142,1.142,5.4,5.4,0,0,1,7.633,0A.805.805,0,0,0,217.226,214.292Z" transform="translate(-185.338 -134.167)" fill="#fff"/>
      <path id="Trazado_164439" data-name="Trazado 164439" d="M232.356,246.444a.807.807,0,1,0,1.143,1.14,1.68,1.68,0,0,1,2.371,0,.807.807,0,0,0,1.142-1.142A3.3,3.3,0,0,0,232.356,246.444Z" transform="translate(-207.182 -165.072)" fill="#fff"/>
    </g>
  </g>
</svg>
