<svg xmlns="http://www.w3.org/2000/svg" width="80" height="80" viewBox="0 0 80 80">
  <g id="Grupo_110662" data-name="Grupo 110662" transform="translate(9168 4962)">
    <rect id="Rectángulo_35865" data-name="Rectángulo 35865" width="80" height="80" rx="10" transform="translate(-9168 -4962)" fill="#083142"/>
    <g id="precio-bajo" transform="translate(-9234.375 -4947)">
      <path id="Trazado_164420" data-name="Trazado 164420" d="M116.84,28.644a16.174,16.174,0,1,0-20.581,0V33.9H91.742v4.083L106.549,50l14.807-12.013V33.9H116.84ZM93.3,16.174a13.245,13.245,0,1,1,13.245,13.245A13.26,13.26,0,0,1,93.3,16.174Zm24.823,20.66-11.578,9.393L94.971,36.834h4.217v-6.26a16.157,16.157,0,0,0,14.722,0v6.26h4.217Z" fill="#fff"/>
      <path id="Trazado_164421" data-name="Trazado 164421" d="M205.7,78.3h1.675a1.585,1.585,0,0,1,0,3.171h-1.705a1.533,1.533,0,0,1-1.531-1.531h-2.93a4.467,4.467,0,0,0,3.863,4.42v2.086h2.93V84.354a4.515,4.515,0,0,0-.627-8.985H205.7a1.585,1.585,0,1,1,0-3.171h1.637a1.589,1.589,0,0,1,1.587,1.587h2.93a4.524,4.524,0,0,0-3.851-4.467V67.224h-2.93v2.089A4.514,4.514,0,0,0,205.7,78.3Z" transform="translate(-99.991 -60.659)" fill="#fff"/>
    </g>
  </g>
</svg>
