<svg xmlns="http://www.w3.org/2000/svg" width="181" height="182" viewBox="0 0 181 182">
  <g id="Grupo_110667" data-name="Grupo 110667" transform="translate(-920 -8126.944)">
    <ellipse id="Elipse_5029" data-name="Elipse 5029" cx="90.5" cy="91" rx="90.5" ry="91" transform="translate(920 8126.944)" fill="#083142"/>
    <g id="Grupo_108596" data-name="Grupo 108596" transform="translate(-564.598 7254.235)">
      <path id="Trazado_165532" data-name="Trazado 165532" d="M1622.511,936.888a2.206,2.206,0,0,1-1.536-2.728c1.227-6.83,2.431-13.665,3.659-20.495a6.135,6.135,0,0,1,6.735-5.111,5.951,5.951,0,0,1,5.087,7.062c-1.607,9.473-3.3,18.932-4.963,28.4q-2.06,11.7-4.137,23.392a2.153,2.153,0,0,0,.238,1.772,3,3,0,0,1,.385,2.432c-.254,1.173-.4,2.369-.639,3.546-.265,1.3-.551,2.522.619,3.66a2.8,2.8,0,0,1,.352,2.557c-.765,4.247-1.489,8.5-2.3,12.738-.22,1.147.074,1.38,1.206,1.36,4.189-.073,8.379-.032,12.57-.029,4.388,0,6.808,2.4,6.81,6.743q0,7.353,0,14.706c0,4.2-2.43,6.682-6.625,6.6-1.2-.023-1.539.3-1.422,1.456a24.324,24.324,0,0,1,.014,3.206,3.328,3.328,0,0,1-3.376,3.393c-.267.01-.535,0-.8,0h-90.264c-1.86,0-2.3-.3-2.74-1.843.242-1.717.831-2.172,2.856-2.172q44.472,0,88.943.018c1.053,0,1.661-.159,1.327-1.371.158-2.657.158-2.657-2.424-2.657q-53.672,0-107.346,0c-.578,0-1.156.035-1.734.054-1.032-.262-1.506.074-1.358,1.194a6.32,6.32,0,0,1,0,1.6c-.122.962.278,1.191,1.2,1.178,3.52-.05,7.042-.027,10.563-.017,1.749,0,2.284.481,2.559,2.2a2.079,2.079,0,0,1-2.378,1.819c-4.1-.025-8.2,0-12.3-.013a3.352,3.352,0,0,1-3.64-3.666c-.014-1.2-.029-2.407.009-3.609.019-.579-.156-.78-.75-.758a10.82,10.82,0,0,1-2.4-.087,5.967,5.967,0,0,1-4.877-5.874q-.051-8.021,0-16.042a5.981,5.981,0,0,1,6.138-6.058q6.753-.056,13.506.013c1.04.012,1.359-.183,1.146-1.289-.816-4.237-1.54-8.491-2.3-12.738-.264-1.464-.256-2.858,1.01-3.916.4-.338.236-.712.166-1.1-.3-1.619-.591-3.239-.877-4.859a3.6,3.6,0,0,1,.473-2.944,1.446,1.446,0,0,0,.177-1.26q-4.595-25.953-9.187-51.907a6.2,6.2,0,0,1,4.72-7.156,6.133,6.133,0,0,1,7.159,5.047c1.128,6.215,2.188,12.443,3.283,18.664q2.939,16.692,5.889,33.382c.045.255.081.616.251.728,1.726,1.133,1.728,3.008,2.08,4.728.152.74.252,1.491.366,2.239a2.338,2.338,0,0,0,1.376,2.163,3.06,3.06,0,0,1,1.52,2.534c.972,5.52,1.981,11.034,2.894,16.564.153.929.479,1.117,1.342,1.114,8.291-.031,16.582-.021,24.873-.016,1.668,0,2.191.43,2.6,2.053-.491,1.658-.913,1.956-2.816,1.956q-28.681,0-57.362,0c-.578,0-1.156.035-1.735.055-1.979-.06-2.68.6-2.683,2.562q-.01,7.418,0,14.836c0,1.908.676,2.6,2.549,2.6q61.9,0,123.805,0c1.96,0,2.616-.707,2.544-2.689q.025-7.146.049-14.292c.006-2.523-.539-3.072-3.03-3.072q-26.6,0-53.19,0c-1.766,0-2.211-.328-2.7-1.934.394-1.634.917-2.073,2.578-2.075,6.46-.007,12.921-.028,19.381.023.978.008,1.255-.3,1.411-1.221.916-5.437,1.917-10.859,2.861-16.292a3.1,3.1,0,0,1,1.6-2.477,1.884,1.884,0,0,0,1.178-1.707c.191-1.542.51-3.069.79-4.6.113-.614.192-1.339.7-1.7,1.424-1.007,1.42-2.546,1.678-4,1.135-6.391,2.258-12.785,3.406-19.175.308-1.71.745-2.057,2.469-2.168a2.125,2.125,0,0,1,1.521,2.6q-1.731,9.786-3.451,19.575c-.385,2.176-.4,2.173,1.79,2.539,1.915.32,1.915.32,2.024-1.635a4.183,4.183,0,0,0,.214-.626q2.279-12.878,4.546-25.757,2.078-11.829,4.138-23.662a1.9,1.9,0,0,0-1.374-2.49c-1.684-.245-2.329.352-2.69,2.413q-1.716,9.8-3.458,19.587C1624.662,936.367,1624.217,936.75,1622.511,936.888ZM1533.7,970.857c-.964-.092-1.284.341-1.094,1.271a31.218,31.218,0,0,1,.537,3.148c.087.888.542,1,1.266.851,1.219-.243,2.441-.469,3.664-.693,1.895-.346,1.9-.343,1.458-2.212-.125-.778-.3-1.552-.36-2.335-.067-.823-.445-1.022-1.207-.858C1536.546,970.333,1535.12,970.584,1533.7,970.857Zm84.813-.405c-.8-.363-1.24-.186-1.349.762-.123,1.058-.332,2.108-.539,3.154-.159.805.012,1.224.95,1.307a35.57,35.57,0,0,1,3.549.607c2.015.389,2.042.374,2.182-1.717.161-.729.3-1.465.49-2.186.21-.776-.059-1.133-.848-1.24C1621.464,970.938,1619.989,970.683,1618.511,970.451Zm-1.608,9.232c-.78-.165-1.566-.31-2.341-.5-.646-.16-.829.106-.935.718q-1.262,7.278-2.595,14.543c-.137.751.074,1.025.872,1.01,2.356-.042,4.713-.014,7.07-.014,3.062,0,3.062,0,3.247-3.222q.956-5.223,1.916-10.445c.109-.588-.051-.919-.687-1.018C1621.267,980.41,1619.086,980.041,1616.9,979.683Zm-72.01,12.531q-1.077-6.368-2.151-12.737c-.1-.589-.437-.707-.951-.609q-3.266.625-6.533,1.244c-.791.113-1.579.271-2.375.327-.78.055-.8.428-.681,1.071q1.18,6.49,2.282,12.994c.122.729.418.957,1.131.947,2.315-.034,4.63-.012,6.946-.012C1545.822,995.438,1545.822,995.438,1544.894,992.214ZM1536.6,964.4a5.056,5.056,0,0,0-.032-.664q-2.384-13.54-4.779-27.079-1.978-11.173-3.963-22.345c-.218-1.234-.767-2.074-2.163-2.035a1.96,1.96,0,0,0-1.815,2.635c.546,3.151,1.122,6.3,1.678,9.445q3.545,20.074,7.08,40.152c.419,2.385.38,2.392,2.819,1.912C1537.068,966.1,1537.068,966.1,1536.6,964.4Z" transform="translate(0 -3.904)" fill="#020202"/>
      <path id="Trazado_165533" data-name="Trazado 165533" d="M1522.12,1076.83c.578-.019,1.157-.055,1.734-.055q28.682,0,57.362,0c1.9,0,2.325-.3,2.816-1.956l5.431.022c.489,1.607.935,1.934,2.7,1.934q26.6,0,53.19,0c2.491,0,3.036.549,3.03,3.072q-.018,7.146-.049,14.292-61.684,0-123.369,0c-1.966,0-2.846-.922-2.851-3.015C1522.105,1086.362,1522.117,1081.6,1522.12,1076.83Zm53.763,7.948q-6.277,0-12.554,0c-1.646,0-2.472.644-2.511,1.918-.04,1.314.862,2.086,2.511,2.088q12.554.012,25.109,0c1.648,0,2.551-.776,2.511-2.089-.039-1.275-.864-1.915-2.512-1.917Q1582.16,1084.771,1575.883,1084.778Zm68.489,2.09a6.018,6.018,0,1,0-6.1,5.948A6.052,6.052,0,0,0,1644.372,1086.868Zm-16.052-.081a6.019,6.019,0,1,0-6.024,6.03A6.054,6.054,0,0,0,1628.32,1086.787Zm-22.1,6.03a6.012,6.012,0,1,0-5.984-6.068A6.015,6.015,0,0,0,1606.216,1092.817Zm-60.766,0a6.012,6.012,0,1,0-5.95-6.1A6.016,6.016,0,0,0,1545.451,1092.817Zm-15.97,0a6.012,6.012,0,1,0-6.034-6.019A6.014,6.014,0,0,0,1529.481,1092.817Z" transform="translate(-5.807 -81.225)" fill="#63929e"/>
      <path id="Trazado_165534" data-name="Trazado 165534" d="M1586.742,904.06c.075-1.7.438-2.191,2.112-2.556a67.667,67.667,0,0,1,50.873,8.289,6.007,6.007,0,1,1-6.24,10.266,55.88,55.88,0,0,0-58-.346,6.43,6.43,0,0,1-5.588.921A6.027,6.027,0,0,1,1568.323,910a60.771,60.771,0,0,1,10.563-5.373,2.12,2.12,0,0,1,2.826,1.044,2.341,2.341,0,0,1-1.725,2.873,57.042,57.042,0,0,0-8.924,4.455c-1.341.812-1.569,1.7-.859,3.1,1.12,1.089,1.594,1.1,3.271.128a59.317,59.317,0,0,1,44.492-6.843,58.244,58.244,0,0,1,16.973,6.9c1.1.654,2.186,1.109,3.164-.195.738-1.426.6-2.183-.711-3s-2.675-1.591-4.063-2.286a63.64,63.64,0,0,0-43.3-5.431C1588.086,905.8,1587.6,905.6,1586.742,904.06Z" transform="translate(-26.064)" fill="#030403"/>
      <path id="Trazado_165535" data-name="Trazado 165535" d="M1612.076,927.23a49.95,49.95,0,0,1,26.207,7.263,6.021,6.021,0,1,1-6.22,10.31q-19.494-11.162-39.055-.11c-3.173,1.79-6.819,1-8.533-1.878a6.116,6.116,0,0,1,2.423-8.489A49.661,49.661,0,0,1,1612.076,927.23Zm-23.968,13.651c1,1.169,2.054.835,3.185.177a41.587,41.587,0,0,1,42.4.033c1.607.943,2.191.84,3.309-.478.5-1.382.265-2.064-1.076-2.856a45.241,45.241,0,0,0-28.988-6.161,44.7,44.7,0,0,0-17.924,6.14C1587.5,938.639,1587.279,939.462,1588.108,940.881Z" transform="translate(-34.347 -12.744)" fill="#030403"/>
      <path id="Trazado_165536" data-name="Trazado 165536" d="M1633.813,970.443a5.862,5.862,0,0,1-3.04-.862c-6.62-3.8-13.259-3.817-19.925-.107-3.262,1.816-6.895.926-8.575-2.074-1.706-3.045-.635-6.566,2.665-8.389q15.974-8.826,31.884.168a5.908,5.908,0,0,1,2.907,6.943A6.006,6.006,0,0,1,1633.813,970.443Zm-27.807-4.8c.947,1.128,1.984.873,3.079.234a23.1,23.1,0,0,1,23.3-.007c.96.554,1.935,1,2.878-.043,1.038-1.321.893-2.275-.489-3.2-7.743-5.184-20.525-5.155-28.187.064A1.949,1.949,0,0,0,1606.005,965.642Z" transform="translate(-42.629 -25.463)" fill="#030403"/>
      <path id="Trazado_165537" data-name="Trazado 165537" d="M1573.7,919.565c-.71-1.4-.482-2.291.859-3.1a57.026,57.026,0,0,1,8.924-4.455,2.341,2.341,0,0,0,1.725-2.873l5.03-1.606c.856,1.537,1.344,1.736,3.291,1.308a63.639,63.639,0,0,1,43.3,5.431c1.389.695,2.745,1.466,4.063,2.286s1.449,1.572.711,3c-2.7-1.524-5.392-3.065-8.206-4.4a62.771,62.771,0,0,0-25.106-5.718,56.262,56.262,0,0,0-9.528.745,59.122,59.122,0,0,0-17.722,5.409C1578.539,916.8,1576.145,918.233,1573.7,919.565Z" transform="translate(-29.562 -3.468)" fill="#b9dea3"/>
      <path id="Trazado_165538" data-name="Trazado 165538" d="M1644.909,1126.01c.334,1.212-.274,1.372-1.327,1.37q-44.471-.034-88.943-.018c-2.025,0-2.614.455-2.856,2.172a23.031,23.031,0,0,0-5.417.033c-.275-1.722-.811-2.2-2.559-2.2-3.521-.01-7.042-.033-10.563.017-.918.013-1.318-.216-1.2-1.178a6.32,6.32,0,0,0,0-1.6c-.148-1.119.325-1.455,1.358-1.194.434,2.534.493,2.6,2.436,2.6Q1590.374,1126.014,1644.909,1126.01Z" transform="translate(-10.405 -103.733)" fill="#557f87"/>
      <path id="Trazado_165539" data-name="Trazado 165539" d="M1631.106,999.446a7.317,7.317,0,0,1-7.4-7.34,7.346,7.346,0,1,1,14.693.018A7.313,7.313,0,0,1,1631.106,999.446Zm-2.232-9.755a3.258,3.258,0,1,0,4.528.086A3.163,3.163,0,0,0,1628.874,989.691Z" transform="translate(-52.945 -39.431)" fill="#030403"/>
      <path id="Trazado_165540" data-name="Trazado 165540" d="M1718.794,969.053c-.109,1.955-.109,1.955-2.024,1.635-2.187-.365-2.175-.363-1.79-2.539q1.733-9.786,3.451-19.575a2.125,2.125,0,0,0-1.521-2.6l.807-5.241c1.706-.138,2.151-.521,2.453-2.215q1.74-9.792,3.458-19.587c.361-2.06,1.007-2.657,2.69-2.413-.481,2.739-.95,5.48-1.445,8.216-1.215,6.732-2.463,13.458-3.656,20.195-1.3,7.345-2.545,14.7-3.833,22.047C1717.143,968.354,1717.375,968.75,1718.794,969.053Z" transform="translate(-95.207 -7.75)" fill="#dae2e6"/>
      <path id="Trazado_165541" data-name="Trazado 165541" d="M1519.8,1078.571c0,4.766-.014,9.532,0,14.3,0,2.093.885,3.015,2.851,3.015q61.684,0,123.369,0c.072,1.982-.584,2.689-2.544,2.689q-61.9,0-123.805,0c-1.873,0-2.547-.69-2.549-2.6q-.01-7.419,0-14.836C1517.12,1079.169,1517.821,1078.511,1519.8,1078.571Z" transform="translate(-3.487 -82.965)" fill="#557f87"/>
      <path id="Trazado_165542" data-name="Trazado 165542" d="M1646.107,1126.034q-54.534,0-109.068,0c-1.943,0-2-.071-2.436-2.6.578-.019,1.156-.054,1.734-.054q53.673,0,107.346,0C1646.265,1123.377,1646.265,1123.377,1646.107,1126.034Z" transform="translate(-11.603 -103.757)" fill="#62929d"/>
      <path id="Trazado_165543" data-name="Trazado 165543" d="M1548.885,967.955c.465,1.7.465,1.7-1.175,2.022-2.439.48-2.4.473-2.819-1.912q-3.523-20.079-7.08-40.151c-.556-3.149-1.132-6.295-1.678-9.445a1.96,1.96,0,0,1,1.815-2.635,2.479,2.479,0,0,0,.005.4c1.261,7.263,2.508,14.528,3.792,21.786,1.661,9.388,3.361,18.768,5.013,28.158C1546.981,967.443,1547.541,968.12,1548.885,967.955Z" transform="translate(-12.282 -7.456)" fill="#dae2e6"/>
      <path id="Trazado_165544" data-name="Trazado 165544" d="M1720.974,969.1c-1.419-.3-1.651-.7-1.409-2.076,1.288-7.347,2.533-14.7,3.833-22.047,1.193-6.736,2.441-13.463,3.656-20.195.494-2.737.964-5.477,1.445-8.216a1.9,1.9,0,0,1,1.374,2.49q-2.071,11.83-4.138,23.662-2.262,12.88-4.546,25.757A4.2,4.2,0,0,1,1720.974,969.1Z" transform="translate(-97.387 -7.795)" fill="#e3e7eb"/>
      <path id="Trazado_165545" data-name="Trazado 165545" d="M1550.509,967.954c-1.344.165-1.9-.512-2.127-1.778-1.651-9.39-3.352-18.77-5.013-28.158-1.284-7.258-2.531-14.523-3.792-21.786a2.493,2.493,0,0,1-.005-.4c1.4-.039,1.945.8,2.163,2.035q1.972,11.174,3.963,22.345,2.4,13.538,4.78,27.079A5.056,5.056,0,0,1,1550.509,967.954Z" transform="translate(-13.906 -7.455)" fill="#e3e7eb"/>
      <path id="Trazado_165546" data-name="Trazado 165546" d="M1557.475,1041.278q3.267-.621,6.533-1.244c.514-.1.853.02.951.609q1.064,6.371,2.151,12.737c-1.917,0-3.834.022-5.751,0a1.763,1.763,0,0,1-2.014-1.646C1558.787,1048.237,1558.107,1044.761,1557.475,1041.278Z" transform="translate(-22.215 -65.071)" fill="#63929e"/>
      <path id="Trazado_165547" data-name="Trazado 165547" d="M1708.205,1041.583c2.182.359,4.364.727,6.548,1.069.636.1.8.43.687,1.018q-.968,5.22-1.916,10.445c-1.73,0-3.459.025-5.188,0-1.657-.028-2.184-.772-1.891-2.384C1707.06,1048.351,1707.622,1044.965,1708.205,1041.583Z" transform="translate(-91.302 -65.804)" fill="#63929e"/>
      <path id="Trazado_165548" data-name="Trazado 165548" d="M1704.681,1041.11c-.584,3.382-1.145,6.768-1.76,10.144-.294,1.612.233,2.356,1.891,2.384,1.729.029,3.459,0,5.188,0-.186,3.222-.186,3.222-3.247,3.222-2.357,0-4.714-.028-7.07.015-.8.014-1.009-.259-.872-1.01q1.321-7.267,2.595-14.543c.106-.612.288-.877.935-.718C1703.115,1040.8,1703.9,1040.945,1704.681,1041.11Z" transform="translate(-87.778 -65.331)" fill="#547d85"/>
      <path id="Trazado_165549" data-name="Trazado 165549" d="M1554.784,1042.382c.632,3.483,1.312,6.958,1.869,10.454a1.762,1.762,0,0,0,2.014,1.645c1.917.026,3.834.005,5.751,0,.928,3.224.928,3.224-2.331,3.224-2.315,0-4.63-.021-6.946.012-.713.01-1.009-.218-1.131-.947q-1.092-6.505-2.282-12.994c-.117-.643-.1-1.016.681-1.072C1553.205,1042.653,1553.993,1042.5,1554.784,1042.382Z" transform="translate(-19.525 -66.175)" fill="#547d85"/>
      <path id="Trazado_165550" data-name="Trazado 165550" d="M1712.48,1024.36c1.478.232,2.953.487,4.435.688.789.107,1.058.464.848,1.24-.195.72-.329,1.457-.49,2.186a13.184,13.184,0,0,1-2.98-.487c-2.233-.425-2.495-.833-1.911-3.108C1712.426,1024.708,1712.448,1024.533,1712.48,1024.36Z" transform="translate(-93.969 -57.813)" fill="#62929d"/>
      <path id="Trazado_165551" data-name="Trazado 165551" d="M1554.562,1024.354c1.422-.273,2.848-.524,4.264-.828.762-.163,1.14.035,1.207.858.064.783.236,1.557.36,2.335-1.3.218-2.618.364-3.9.676a1.248,1.248,0,0,1-1.608-.965A10.42,10.42,0,0,1,1554.562,1024.354Z" transform="translate(-20.864 -57.402)" fill="#62929d"/>
      <path id="Trazado_165552" data-name="Trazado 165552" d="M1553.569,1025.105a10.42,10.42,0,0,0,.327,2.076,1.247,1.247,0,0,0,1.608.965c1.278-.311,2.6-.458,3.9-.676.437,1.87.436,1.866-1.458,2.212-1.223.224-2.445.45-3.663.693-.725.145-1.179.037-1.266-.851a31.221,31.221,0,0,0-.538-3.148C1552.285,1025.447,1552.6,1025.014,1553.569,1025.105Z" transform="translate(-19.871 -58.153)" fill="#547d85"/>
      <path id="Trazado_165553" data-name="Trazado 165553" d="M1711.116,1024.208c-.032.173-.054.349-.1.518-.584,2.275-.322,2.683,1.911,3.108a13.176,13.176,0,0,0,2.98.487c-.14,2.091-.167,2.106-2.182,1.717a35.569,35.569,0,0,0-3.549-.607c-.938-.084-1.109-.5-.95-1.307.207-1.047.417-2.1.539-3.154C1709.876,1024.022,1710.317,1023.845,1711.116,1024.208Z" transform="translate(-92.605 -57.661)" fill="#547d85"/>
      <path id="Trazado_165554" data-name="Trazado 165554" d="M1609.389,1093.4q6.278,0,12.555,0c1.648,0,2.473.642,2.512,1.917.04,1.313-.864,2.087-2.511,2.089q-12.554.012-25.109,0c-1.649,0-2.551-.774-2.511-2.088.039-1.274.865-1.916,2.511-1.918Q1603.111,1093.394,1609.389,1093.4Z" transform="translate(-39.313 -89.847)" fill="#010101"/>
      <path id="Trazado_165555" data-name="Trazado 165555" d="M1739.791,1092.042a6.018,6.018,0,1,1-6-6.076A6.018,6.018,0,0,1,1739.791,1092.042Zm-7.224-1.552c-.968,1.016-1.052,2-.245,2.857.835.889,1.918.831,2.954-.16a1.919,1.919,0,0,0-2.709-2.7Z" transform="translate(-101.226 -86.398)" fill="#020202"/>
      <path id="Trazado_165556" data-name="Trazado 165556" d="M1709.843,1091.96a6.019,6.019,0,1,1-6.08-5.995A6.015,6.015,0,0,1,1709.843,1091.96Zm-4.515,1.226a1.919,1.919,0,0,0-2.71-2.7c-.967,1.015-1.051,2-.244,2.856C1703.209,1094.236,1704.291,1094.177,1705.328,1093.187Z" transform="translate(-87.33 -86.398)" fill="#020202"/>
      <path id="Trazado_165557" data-name="Trazado 165557" d="M1673.843,1097.99a6.012,6.012,0,1,1,6.052-6A6.01,6.01,0,0,1,1673.843,1097.99Zm-1.173-7.5c-.967,1.015-1.051,2-.244,2.856.836.889,1.917.831,2.954-.16a1.918,1.918,0,0,0-2.709-2.7Z" transform="translate(-73.434 -86.398)" fill="#020202"/>
      <path id="Trazado_165558" data-name="Trazado 165558" d="M1560.5,1097.99a6.012,6.012,0,1,1,6.085-5.969A6.01,6.01,0,0,1,1560.5,1097.99Zm-1.139-7.5c-.968,1.016-1.052,2-.245,2.857.836.889,1.917.831,2.954-.16a1.919,1.919,0,0,0-2.709-2.7Z" transform="translate(-20.859 -86.398)" fill="#020202"/>
      <path id="Trazado_165559" data-name="Trazado 165559" d="M1530.637,1097.99a6.012,6.012,0,1,1,6-6.052A6.013,6.013,0,0,1,1530.637,1097.99Zm-.015-8.013a2.067,2.067,0,0,0-1.983,1.943,2.005,2.005,0,0,0,2,2.039,1.991,1.991,0,1,0-.017-3.982Z" transform="translate(-6.963 -86.398)" fill="#020202"/>
      <path id="Trazado_165560" data-name="Trazado 165560" d="M1574.044,921.453c2.443-1.332,4.836-2.766,7.338-3.974a59.119,59.119,0,0,1,17.722-5.409,56.255,56.255,0,0,1,9.528-.745,62.769,62.769,0,0,1,25.106,5.718c2.814,1.331,5.5,2.872,8.206,4.4-.978,1.3-2.068.849-3.164.195a58.245,58.245,0,0,0-16.973-6.9,59.317,59.317,0,0,0-44.491,6.843C1575.637,922.556,1575.164,922.542,1574.044,921.453Z" transform="translate(-29.904 -5.357)" fill="#a3d1a7"/>
      <path id="Trazado_165561" data-name="Trazado 165561" d="M1591.58,944.37c-.829-1.419-.607-2.243.9-3.146a44.7,44.7,0,0,1,17.924-6.14,45.242,45.242,0,0,1,28.988,6.161c1.341.792,1.573,1.474,1.076,2.856a6.329,6.329,0,0,1-2.792-1.2c-8.032-4.809-16.8-6.421-25.993-5.7a39.53,39.53,0,0,0-15.228,4.465C1594.811,942.534,1593.205,943.469,1591.58,944.37Z" transform="translate(-37.819 -16.233)" fill="#b9dda3"/>
      <path id="Trazado_165562" data-name="Trazado 165562" d="M1591.993,946.357c1.625-.9,3.231-1.836,4.877-2.7A39.528,39.528,0,0,1,1612.1,939.2c9.195-.725,17.961.887,25.993,5.7a6.329,6.329,0,0,0,2.792,1.2c-1.118,1.319-1.7,1.422-3.309.478a41.587,41.587,0,0,0-42.4-.033C1594.048,947.192,1592.994,947.525,1591.993,946.357Z" transform="translate(-38.232 -18.22)" fill="#a3d1a7"/>
      <path id="Trazado_165563" data-name="Trazado 165563" d="M1609.563,969.206a1.948,1.948,0,0,1,.578-2.952c7.662-5.219,20.444-5.248,28.187-.064,1.382.925,1.527,1.879.489,3.2-.132-.485-.532-.686-.936-.887-1.27-.633-2.513-1.331-3.814-1.894a24.467,24.467,0,0,0-14.729-1.506A30.389,30.389,0,0,0,1609.563,969.206Z" transform="translate(-46.187 -29.026)" fill="#b9dda3"/>
      <path id="Trazado_165564" data-name="Trazado 165564" d="M1609.932,971.178a30.389,30.389,0,0,1,9.774-4.1,24.467,24.467,0,0,1,14.729,1.506c1.3.563,2.543,1.261,3.814,1.894.4.2.8.4.936.887-.943,1.045-1.918.6-2.878.043a23.1,23.1,0,0,0-23.3.007C1611.916,972.05,1610.879,972.306,1609.932,971.178Z" transform="translate(-46.556 -30.998)" fill="#a3d1a7"/>
      <path id="Trazado_165565" data-name="Trazado 165565" d="M1633.352,993.185a3.163,3.163,0,0,1,4.528.086,3.224,3.224,0,0,1,.055,4.54C1635.542,997.645,1634.221,996.311,1633.352,993.185Z" transform="translate(-57.423 -42.926)" fill="#b9dea3"/>
      <path id="Trazado_165566" data-name="Trazado 165566" d="M1632.364,993.973c.869,3.126,2.19,4.459,4.583,4.626a3.264,3.264,0,1,1-4.583-4.626Z" transform="translate(-56.434 -43.713)" fill="#a3d1a7"/>
      <path id="Trazado_165567" data-name="Trazado 165567" d="M1736.733,1093.936a1.919,1.919,0,0,1,2.709,2.7A4.239,4.239,0,0,1,1736.733,1093.936Z" transform="translate(-105.392 -89.844)" fill="#b9dda3"/>
      <path id="Trazado_165568" data-name="Trazado 165568" d="M1736.046,1094.406a4.239,4.239,0,0,0,2.709,2.7c-1.037.991-2.119,1.049-2.954.16C1734.994,1096.4,1735.079,1095.422,1736.046,1094.406Z" transform="translate(-104.705 -90.314)" fill="#a3d1a7"/>
      <path id="Trazado_165569" data-name="Trazado 165569" d="M1706.783,1093.937a1.918,1.918,0,0,1,2.71,2.7A4.243,4.243,0,0,1,1706.783,1093.937Z" transform="translate(-91.495 -89.844)" fill="#b9dda3"/>
      <path id="Trazado_165570" data-name="Trazado 165570" d="M1706.1,1094.407a4.243,4.243,0,0,0,2.71,2.7c-1.037.99-2.118,1.049-2.954.16C1705.046,1096.405,1705.13,1095.422,1706.1,1094.407Z" transform="translate(-90.808 -90.315)" fill="#a3d1a7"/>
      <path id="Trazado_165571" data-name="Trazado 165571" d="M1676.835,1093.937a1.918,1.918,0,0,1,2.709,2.7A4.242,4.242,0,0,1,1676.835,1093.937Z" transform="translate(-77.599 -89.844)" fill="#b9dda3"/>
      <path id="Trazado_165572" data-name="Trazado 165572" d="M1676.148,1094.407a4.242,4.242,0,0,0,2.709,2.7c-1.036.99-2.118,1.049-2.954.16C1675.1,1096.405,1675.181,1095.422,1676.148,1094.407Z" transform="translate(-76.912 -90.315)" fill="#a3d1a7"/>
      <path id="Trazado_165573" data-name="Trazado 165573" d="M1563.529,1093.936a1.919,1.919,0,0,1,2.709,2.7A4.241,4.241,0,0,1,1563.529,1093.936Z" transform="translate(-25.025 -89.844)" fill="#b9dda3"/>
      <path id="Trazado_165574" data-name="Trazado 165574" d="M1562.842,1094.406a4.241,4.241,0,0,0,2.709,2.7c-1.037.991-2.118,1.049-2.954.16C1561.791,1096.4,1561.875,1095.422,1562.842,1094.406Z" transform="translate(-24.338 -90.314)" fill="#a3d1a7"/>
      <path id="Trazado_165575" data-name="Trazado 165575" d="M1534.115,1093.451a1.991,1.991,0,1,1,.017,3.982,2.005,2.005,0,0,1-2-2.039A2.067,2.067,0,0,1,1534.115,1093.451Z" transform="translate(-10.456 -89.871)" fill="#e58183"/>
    </g>
  </g>
</svg>
