<svg id="icon_arrow_arrow-right-circle" data-name="icon / arrow / arrow-right-circle" xmlns="http://www.w3.org/2000/svg" xmlns:xlink="http://www.w3.org/1999/xlink" width="12.657" height="12.657" viewBox="0 0 12.657 12.657">
  <defs>
    <clipPath id="clip-path">
      <path id="icon_arrow-right-circle" data-name="icon / arrow-right-circle" d="M6.328,12.657A6.31,6.31,0,0,1,0,6.328,6.31,6.31,0,0,1,6.328,0a6.31,6.31,0,0,1,6.328,6.328,6.31,6.31,0,0,1-6.328,6.328Zm0-11.506a5.178,5.178,0,1,0,5.178,5.178A5.184,5.184,0,0,0,6.328,1.151Zm0,8.055a.521.521,0,0,1-.4-.173.557.557,0,0,1,0-.805L7.249,6.9H4.027a.575.575,0,0,1,0-1.151H7.249L5.926,4.43a.558.558,0,0,1,0-.806.557.557,0,0,1,.806,0l2.3,2.3c.057.057.115.115.115.173a.207.207,0,0,0,.021.076.378.378,0,0,1,.036.154.349.349,0,0,1-.057.23c0,.058-.059.116-.115.172l-2.3,2.3A.52.52,0,0,1,6.328,9.205Z" transform="translate(0 0)" fill="#12263f"/>
    </clipPath>
  </defs>
  <g id="Grupo_201" data-name="Grupo 201">
    <path id="icon_arrow-right-circle-2" data-name="icon / arrow-right-circle" d="M6.328,12.657A6.31,6.31,0,0,1,0,6.328,6.31,6.31,0,0,1,6.328,0a6.31,6.31,0,0,1,6.328,6.328,6.31,6.31,0,0,1-6.328,6.328Zm0-11.506a5.178,5.178,0,1,0,5.178,5.178A5.184,5.184,0,0,0,6.328,1.151Zm0,8.055a.521.521,0,0,1-.4-.173.557.557,0,0,1,0-.805L7.249,6.9H4.027a.575.575,0,0,1,0-1.151H7.249L5.926,4.43a.558.558,0,0,1,0-.806.557.557,0,0,1,.806,0l2.3,2.3c.057.057.115.115.115.173a.207.207,0,0,0,.021.076.378.378,0,0,1,.036.154.349.349,0,0,1-.057.23c0,.058-.059.116-.115.172l-2.3,2.3A.52.52,0,0,1,6.328,9.205Z" transform="translate(0 0)" fill="#12263f"/>
  </g>
</svg>
