<svg xmlns="http://www.w3.org/2000/svg" width="80" height="80" viewBox="0 0 80 80">
  <g id="Grupo_108600" data-name="Grupo 108600" transform="translate(6464.324 3719.667)">
    <rect id="Rectángulo_36105" data-name="Rectángulo 36105" width="80" height="80" rx="10" transform="translate(-6464.324 -3719.667)" fill="#ffb476"/>
    <g id="Grupo_108599" data-name="Grupo 108599" transform="translate(-8206.706 -4136.748)">
      <path id="Trazado_165576" data-name="Trazado 165576" d="M1782.391,429.035q5.2,0,10.406,0a2.192,2.192,0,0,1,2.429,2.438q0,7.721,0,15.441a2.173,2.173,0,0,1-2.394,2.417c-2.337.01-4.674.015-7.01-.008-.442,0-.567.125-.539.549a14.585,14.585,0,0,1,0,1.587c-.013.3.089.371.37.36.529-.02,1.059-.016,1.588,0a1.119,1.119,0,0,1,1.189,1.153c.015.364.006.73,0,1.095a1.03,1.03,0,0,1-.7,1.016.41.41,0,0,0-.318.472c.01,1.424.016,2.847,0,4.271,0,.336.082.426.423.423,1.935-.018,3.87-.009,5.806-.009h7.558c.807,0,.9.1.9.922,0,1,.018,2.008-.009,3.011-.01.373.073.491.469.486,1.807-.024,3.615-.012,5.422-.01a2.215,2.215,0,0,1,2.442,2.439q0,5.421,0,10.842a2.22,2.22,0,0,1-2.45,2.435c-1.041,0-2.082.018-3.122-.008-.373-.009-.453.115-.448.463.012.905,0,.906.916.914.945.008,1.373.431,1.381,1.365.015,1.815-.18,2.012-1.99,2.012q-3.478,0-6.956,0c-1.012,0-1.428-.415-1.436-1.422q0-.273,0-.547c.01-.971.437-1.392,1.4-1.412.283-.006.721.145.817-.074a2.7,2.7,0,0,0,.054-1.126c-.01-.269-.248-.156-.384-.157-1.041-.01-2.081,0-3.122-.006a2.244,2.244,0,0,1-2.492-2.511q0-5.339,0-10.677a2.249,2.249,0,0,1,2.529-2.527c1.789,0,3.579-.018,5.367.012.451.008.538-.138.521-.546-.031-.729-.036-1.461,0-2.189.024-.455-.067-.606-.575-.6-4.382.025-8.763.015-13.145.015-.857,0-.969-.113-.969-.979,0-1.551-.02-3.1.012-4.654.01-.453-.142-.534-.547-.52-.82.029-1.643.021-2.464,0-.3-.007-.4.058-.4.382q.02,4.353,0,8.706c0,.327.11.382.4.38,1.862-.013,3.724-.009,5.586-.005a2.177,2.177,0,0,1,2.367,2.339q.012,5.53,0,11.061a2.165,2.165,0,0,1-2.286,2.312c-1.077.017-2.155.021-3.231-.005-.385-.009-.541.1-.475.484a.656.656,0,0,1,0,.11c0,.782,0,.782.762.783,1.142,0,1.5.364,1.508,1.506,0,.2,0,.4,0,.6a1.146,1.146,0,0,1-1.3,1.267q-3.889.007-7.777,0a1.14,1.14,0,0,1-1.276-1.236c0-.036,0-.073,0-.11-.111-1.6.284-2.185,1.915-2.027.3.029.356-.1.361-.372.02-1,.031-1-.943-1-.913,0-1.826.01-2.738,0a2.173,2.173,0,0,1-2.316-2.337q-.01-5.53,0-11.061a2.169,2.169,0,0,1,2.335-2.315c1.844,0,3.688-.011,5.531.007.36,0,.5-.053.494-.46q-.029-4.271,0-8.542c0-.391-.106-.485-.483-.471-.821.03-1.644.034-2.464,0-.406-.018-.47.124-.466.49.021,1.569.009,3.139.009,4.709,0,.838-.114.956-.938.956-4.4,0-8.8.009-13.2-.012-.47,0-.575.128-.551.57a16.917,16.917,0,0,1,0,2.189c-.039.516.155.582.6.575,1.789-.025,3.578-.012,5.367-.01a2.226,2.226,0,0,1,2.449,2.442q.005,5.421,0,10.842a2.222,2.222,0,0,1-2.407,2.431c-1.059.008-2.118.014-3.177-.006-.324-.006-.436.062-.433.414.008.952-.011.952.917.961s1.349.442,1.38,1.377c.044,1.324,0,2.071-1.958,2.016-2.335-.066-4.673-.015-7.01-.016-1.02,0-1.413-.4-1.417-1.434,0-.109,0-.219,0-.328,0-1.275.341-1.607,1.624-1.621.218,0,.568.147.634-.117a3.215,3.215,0,0,0,0-1.14c-.02-.17-.248-.1-.383-.1-1.041-.005-2.082,0-3.122,0a2.226,2.226,0,0,1-2.48-2.459q0-5.421,0-10.842a2.207,2.207,0,0,1,2.41-2.414c1.826,0,3.651-.011,5.477.009.363,0,.454-.1.446-.452-.023-1.04-.01-2.081-.008-3.121,0-.729.12-.844.867-.844,4.418,0,8.836-.008,13.254.011.447,0,.582-.09.57-.557-.036-1.332-.02-2.665-.007-4,0-.314-.018-.523-.386-.651a.959.959,0,0,1-.626-.945c-.008-.383-.019-.767,0-1.15a1.112,1.112,0,0,1,1.154-1.131c.511-.016,1.023-.023,1.533,0,.337.016.49-.054.462-.436a8.355,8.355,0,0,1,0-1.477c.054-.518-.165-.588-.617-.583-2.318.021-4.637,0-6.956.013a2.264,2.264,0,0,1-1.923-.85,2.146,2.146,0,0,1-.454-1.373q0-7.912,0-15.824a2.142,2.142,0,0,1,2.28-2.253Q1777.106,429.029,1782.391,429.035Zm-.006,19.2h10.237c1.189,0,1.506-.31,1.506-1.474q0-7.58,0-15.161c0-1.143-.324-1.468-1.458-1.468h-20.584c-1.13,0-1.45.325-1.45,1.475q0,7.58,0,15.161c0,1.144.319,1.466,1.457,1.466Q1777.239,448.236,1782.386,448.234Zm19.11,17.507q-3.23,0-6.46,0c-.927,0-1.342.409-1.344,1.333q-.007,5.419,0,10.838c0,.932.407,1.352,1.326,1.353q6.488.009,12.976,0c.944,0,1.334-.4,1.335-1.336q0-5.419,0-10.838c0-.969-.387-1.35-1.373-1.351Q1804.726,465.738,1801.5,465.741Zm-38.284,0q-3.2,0-6.406,0c-.984,0-1.369.382-1.37,1.353q0,5.391,0,10.783c0,1.009.375,1.389,1.391,1.389q6.433.005,12.866,0c.984,0,1.38-.409,1.381-1.41q0-5.364,0-10.728c0-.993-.4-1.386-1.4-1.387Q1766.442,465.739,1763.212,465.742Zm19.172,0q-3.2,0-6.405,0c-1.035,0-1.4.352-1.4,1.369q0,5.391,0,10.782c0,1.015.366,1.375,1.4,1.376q6.405,0,12.81,0c1.032,0,1.4-.36,1.4-1.374q0-5.391,0-10.782c0-1.019-.362-1.371-1.4-1.371Q1785.586,465.739,1782.383,465.741Zm-.025-11.645c1.512,0,3.024-.022,4.535.011.564.013.43-.336.444-.64.015-.32.045-.574-.451-.57q-4.508.038-9.016,0c-.506,0-.451.265-.444.576s-.1.646.451.634C1779.371,454.073,1780.865,454.1,1782.359,454.1Zm-19.1,29.916c1.2,0,2.405-.022,3.607.011.445.012.525-.161.491-.54-.03-.328.109-.678-.481-.671q-3.634.045-7.268,0c-.558-.006-.44.323-.446.632s-.078.6.437.579C1760.817,483.984,1762.038,484.012,1763.258,484.012Zm38.269,0c1.22,0,2.442-.023,3.661.011.475.013.442-.249.413-.544-.028-.278.185-.669-.409-.663q-3.661.034-7.323,0c-.552-.006-.445.321-.457.636s-.041.589.453.574C1799.086,483.987,1800.307,484.012,1801.527,484.012Zm-19.2,0c1.238,0,2.477-.022,3.714.011.471.013.444-.246.417-.544s.171-.668-.416-.663q-3.659.033-7.318,0c-.531-.005-.418.319-.417.607s-.12.616.416.6C1779.923,483.986,1781.126,484.011,1782.327,484.011Zm.055-32.2c.491,0,.982-.01,1.472,0,.253.007.361-.074.355-.339-.013-.6-.009-1.2,0-1.8,0-.251-.093-.359-.353-.357q-1.473.011-2.945,0c-.259,0-.356.105-.353.357.008.6.011,1.2,0,1.8-.006.265.1.347.355.34C1781.4,451.8,1781.891,451.814,1782.382,451.814Zm-.054,29.914c.328,0,.656.006.985,0,1-.024.87.205.9-.9.009-.349-.09-.484-.462-.471-.765.027-1.532,0-2.3.01-.994.015-.882-.2-.893.9a1.092,1.092,0,0,1,0,.109c-.024.256.083.36.347.353C1781.379,481.718,1781.854,481.728,1782.328,481.729Zm-19.1,0a11.733,11.733,0,0,1,1.253.009c.5.054.666-.133.586-.6a.914.914,0,0,1,0-.272c.052-.37-.079-.514-.475-.5-.817.028-1.636,0-2.454.009-.784,0-.679-.085-.69.707a1.216,1.216,0,0,1,0,.163c-.055.369.075.526.472.5C1762.354,481.7,1762.793,481.728,1763.229,481.729Zm38.261,0c.309,0,.618.007.927,0,1.026-.029.871.224.9-.932.01-.335-.1-.442-.433-.433-.745.021-1.49.006-2.236.006-1.01,0-1,0-.961.992.01.287.1.381.381.372C1800.544,481.716,1801.017,481.728,1801.49,481.729Z" transform="translate(0 0)" fill="#040405"/>
      <path id="Trazado_165577" data-name="Trazado 165577" d="M1840.356,452.137q-5.146,0-10.292,0c-1.138,0-1.457-.323-1.457-1.466q0-7.58,0-15.161c0-1.15.32-1.475,1.45-1.475h20.584c1.133,0,1.457.325,1.458,1.468q0,7.58,0,15.161c0,1.164-.316,1.474-1.506,1.474Zm-.007-17.008q-4.789,0-9.579,0c-.823,0-1.067.245-1.067,1.079q0,6.868,0,13.736c0,.875.221,1.1,1.1,1.1q9.552,0,19.1,0c.874,0,1.1-.225,1.1-1.1q0-6.841,0-13.682c0-.9-.228-1.127-1.131-1.127Z" transform="translate(-57.971 -3.903)" fill="#5c8ccf"/>
      <path id="Trazado_165578" data-name="Trazado 165578" d="M1941.469,596.313q3.23,0,6.46,0c.985,0,1.372.381,1.373,1.351q0,5.419,0,10.838c0,.935-.391,1.334-1.335,1.336q-6.487.008-12.975,0c-.919,0-1.325-.421-1.326-1.353q-.007-5.419,0-10.838c0-.924.416-1.331,1.343-1.333Q1938.239,596.309,1941.469,596.313Zm.017,1.1c-1.9,0-3.795,0-5.692,0-.741,0-1.031.287-1.032,1.029q-.008,4.624,0,9.248c0,.773.282,1.054,1.065,1.055q5.665.007,11.331,0c.785,0,1.049-.279,1.05-1.061q0-4.6,0-9.193c0-.814-.263-1.078-1.083-1.079Q1944.3,597.405,1941.486,597.409Z" transform="translate(-139.973 -130.572)" fill="#5c8ccf"/>
      <path id="Trazado_165579" data-name="Trazado 165579" d="M1767.112,596.314q3.23,0,6.461,0c1,0,1.4.394,1.4,1.387q.005,5.364,0,10.728c0,1-.4,1.409-1.381,1.41q-6.432.006-12.865,0c-1.016,0-1.391-.381-1.391-1.389q0-5.392,0-10.783c0-.971.386-1.351,1.37-1.353Q1763.909,596.311,1767.112,596.314Zm.032,1.1c-1.9,0-3.8,0-5.693,0-.744,0-1.018.283-1.019,1.031q0,4.624,0,9.249c0,.778.269,1.052,1.056,1.053q5.665.006,11.331,0c.779,0,1.058-.285,1.059-1.062q.006-4.6,0-9.194c0-.807-.279-1.076-1.1-1.077Q1769.963,597.407,1767.144,597.41Z" transform="translate(-3.9 -130.573)" fill="#5c8ccf"/>
      <path id="Trazado_165580" data-name="Trazado 165580" d="M1854.378,596.313q3.2,0,6.405,0c1.035,0,1.4.352,1.4,1.371q0,5.391,0,10.782c0,1.014-.366,1.373-1.4,1.374q-6.405,0-12.81,0c-1.03,0-1.4-.361-1.4-1.376q0-5.391,0-10.782c0-1.016.363-1.368,1.4-1.369Q1851.175,596.311,1854.378,596.313Zm0,1.1q-2.791,0-5.582,0c-.875,0-1.12.237-1.121,1.086q0,4.6,0,9.192c0,.794.254,1.055,1.045,1.056q5.664.007,11.328,0c.787,0,1.039-.265,1.04-1.062q0-4.6,0-9.192c0-.825-.254-1.079-1.073-1.08Q1857.192,597.406,1854.374,597.409Z" transform="translate(-71.995 -130.572)" fill="#5c8bcd"/>
      <path id="Trazado_165581" data-name="Trazado 165581" d="M1864.469,538.982c-1.494,0-2.988-.023-4.48.012-.556.013-.444-.322-.451-.634s-.062-.58.444-.576q4.507.038,9.015,0c.5,0,.466.249.451.57-.014.3.119.653-.444.64C1867.493,538.96,1865.981,538.982,1864.469,538.982Z" transform="translate(-82.11 -84.886)" fill="#5c8ccf"/>
      <path id="Trazado_165582" data-name="Trazado 165582" d="M1780.385,675.312c-1.22,0-2.442-.027-3.661.013-.515.017-.443-.275-.437-.579s-.112-.638.446-.632q3.634.042,7.268,0c.591-.007.451.343.481.671.034.378-.046.552-.491.54C1782.791,675.29,1781.588,675.312,1780.385,675.312Z" transform="translate(-17.127 -191.301)" fill="#5c8ccf"/>
      <path id="Trazado_165583" data-name="Trazado 165583" d="M1954.731,675.317c-1.22,0-2.442-.025-3.661.012-.494.015-.465-.251-.453-.574s-.1-.642.457-.636q3.661.039,7.323,0c.594-.006.381.385.409.663.029.294.062.557-.413.544C1957.172,675.294,1955.951,675.317,1954.731,675.317Z" transform="translate(-153.203 -191.305)" fill="#5c8ccf"/>
      <path id="Trazado_165584" data-name="Trazado 165584" d="M1867.545,675.322c-1.2,0-2.4-.025-3.6.011-.536.016-.416-.314-.416-.6s-.113-.612.417-.607q3.659.035,7.318,0c.587-.005.39.379.416.663s.054.556-.418.544C1870.022,675.3,1868.783,675.322,1867.545,675.322Z" transform="translate(-85.218 -191.31)" fill="#5c8ccf"/>
      <path id="Trazado_165585" data-name="Trazado 165585" d="M1875.64,523.986c-.491,0-.982-.01-1.472,0-.254.007-.361-.075-.355-.34.013-.6.01-1.2,0-1.8,0-.252.094-.359.353-.357q1.472.012,2.944,0c.26,0,.356.106.353.357-.007.6-.011,1.2,0,1.8.006.266-.1.346-.355.339C1876.622,523.976,1876.131,523.986,1875.64,523.986Z" transform="translate(-93.257 -72.172)" fill="#446db3"/>
      <path id="Trazado_165586" data-name="Trazado 165586" d="M1875.585,664.3c-.474,0-.948-.01-1.422,0-.263.008-.371-.1-.347-.353,0-.036,0-.073,0-.109.011-1.095-.1-.884.893-.9.766-.012,1.533.017,2.3-.01.371-.013.471.122.462.471-.028,1.1.1.872-.9.9C1876.242,664.311,1875.914,664.3,1875.585,664.3Z" transform="translate(-93.257 -182.576)" fill="#446db3"/>
      <path id="Trazado_165587" data-name="Trazado 165587" d="M1788.476,664.3c-.436,0-.875-.025-1.308.008-.4.03-.527-.127-.472-.5a1.216,1.216,0,0,0,0-.163c.011-.792-.094-.7.69-.707.818,0,1.637.019,2.454-.009.4-.014.526.131.475.5a.914.914,0,0,0,0,.272c.08.472-.091.658-.586.6A11.8,11.8,0,0,0,1788.476,664.3Z" transform="translate(-25.247 -182.574)" fill="#446db3"/>
      <path id="Trazado_165588" data-name="Trazado 165588" d="M1962.773,664.311c-.473,0-.946-.012-1.418,0-.28.01-.371-.085-.381-.372-.037-.992-.049-.992.961-.992.745,0,1.491.014,2.236-.006.333-.009.442.1.433.433-.032,1.156.123.9-.9.932C1963.391,664.318,1963.082,664.311,1962.773,664.311Z" transform="translate(-161.283 -182.583)" fill="#446db3"/>
      <path id="Trazado_165589" data-name="Trazado 165589" d="M1844.242,439.022h9.524c.9,0,1.131.225,1.131,1.127q0,6.841,0,13.681c0,.878-.221,1.1-1.1,1.1q-9.552,0-19.1,0c-.882,0-1.1-.222-1.1-1.1q0-6.868,0-13.736c0-.834.244-1.079,1.067-1.079Q1839.452,439.02,1844.242,439.022Zm0,14.818c3.01,0,6.021-.009,9.031.01.43,0,.543-.11.541-.54q-.027-5.2,0-10.4c0-.389-.067-.525-.5-.524q-9.058.024-18.117,0c-.406,0-.516.1-.514.509q.027,5.2,0,10.4c0,.48.151.556.584.554C1838.255,453.831,1841.247,453.84,1844.239,453.84Zm1.481-13.723c-2.535,0-5.071.014-7.606-.012-.461,0-.541.154-.525.556s-.026.66.549.657q7.578-.04,15.157,0c.54,0,.5-.253.52-.625.02-.421-.05-.594-.544-.588C1850.755,440.133,1848.238,440.117,1845.72,440.117Zm-10.137,0c-.293.135-.946-.361-.914.55.018.532.153.712.672.641a6.446,6.446,0,0,1,.871-.008c.134,0,.236-.016.286-.179.205-.658-.032-1-.7-1.005Z" transform="translate(-61.864 -7.796)" fill="#040406"/>
      <path id="Trazado_165590" data-name="Trazado 165590" d="M1945.383,601.305q2.819,0,5.638,0c.819,0,1.082.265,1.083,1.079q0,4.6,0,9.193c0,.781-.265,1.06-1.05,1.061q-5.665.009-11.33,0c-.784,0-1.064-.282-1.065-1.055q-.006-4.624,0-9.248c0-.742.291-1.027,1.032-1.029C1941.588,601.3,1943.486,601.305,1945.383,601.305Zm.042,10.239c1.7,0,3.392-.015,5.088.011.421.007.511-.116.506-.518-.022-1.969-.018-3.938,0-5.907,0-.345-.073-.458-.442-.457q-5.17.023-10.34,0c-.373,0-.495.082-.491.475q.031,2.926,0,5.852c0,.42.091.561.538.554C1942,611.527,1943.711,611.544,1945.425,611.544Zm1.417-7.958c1.257,0,2.515-.026,3.771.013.505.016.41-.283.392-.551s.194-.664-.4-.658q-3.743.036-7.486,0c-.582-.007-.408.354-.426.643-.018.307-.075.586.437.569C1944.363,603.558,1945.6,603.586,1946.842,603.586Zm-6.187,0c.936,0,.9,0,.949-.552s-.144-.711-.661-.641a7.377,7.377,0,0,1-.874.009c-.122,0-.244-.016-.309.15-.233.594.048,1.034.676,1.034Z" transform="translate(-143.871 -134.468)" fill="#020305"/>
      <path id="Trazado_165591" data-name="Trazado 165591" d="M1771.041,601.3q2.819,0,5.638,0c.817,0,1.1.27,1.1,1.077q.005,4.6,0,9.194c0,.777-.28,1.061-1.059,1.063q-5.665.008-11.331,0c-.787,0-1.055-.275-1.056-1.053q0-4.624,0-9.249c0-.748.274-1.029,1.019-1.031C1767.246,601.3,1769.144,601.3,1771.041,601.3Zm-.034,10.239c1.732,0,3.465-.007,5.2.006.329,0,.488-.046.484-.439q-.03-3.008,0-6.017c0-.348-.108-.421-.434-.42q-5.225.016-10.45,0c-.318,0-.388.1-.387.4.012,2.005.019,4.011,0,6.016,0,.416.153.464.506.461C1767.616,611.534,1769.312,611.543,1771.008,611.543Zm1.479-7.958c1.258,0,2.518-.022,3.775.011.47.012.449-.241.415-.541-.031-.277.188-.671-.409-.666q-3.747.034-7.5,0c-.6-.006-.385.386-.406.662s-.1.563.4.547C1770.006,603.56,1771.247,603.586,1772.487,603.586Zm-6.143-1.186a3.165,3.165,0,0,1-.437,0c-.377-.053-.506.081-.493.475.025.714,0,.714.732.714.274,0,.547,0,.821,0,.121,0,.24.019.3-.158.211-.646-.041-1.026-.7-1.026Z" transform="translate(-7.797 -134.468)" fill="#020305"/>
      <path id="Trazado_165592" data-name="Trazado 165592" d="M1858.272,601.307q2.818,0,5.637,0c.82,0,1.072.255,1.073,1.08q0,4.6,0,9.192c0,.8-.253,1.061-1.039,1.062q-5.665.007-11.328,0c-.791,0-1.044-.262-1.045-1.056q0-4.6,0-9.192c0-.85.247-1.086,1.121-1.086Q1855.482,601.305,1858.272,601.307Zm.03,3.377c-1.732,0-3.464.01-5.2-.008-.357,0-.455.093-.451.451q.026,2.98,0,5.96c0,.351.083.468.453.466q5.169-.021,10.338,0c.374,0,.453-.121.45-.469q-.022-2.98,0-5.96c0-.361-.1-.453-.454-.449C1861.73,604.693,1860.016,604.684,1858.3,604.684Zm1.417-1.1c1.24,0,2.48-.033,3.718.015.564.022.442-.305.454-.613.013-.34.055-.61-.479-.6q-3.662.05-7.326,0c-.539-.007-.526.246-.522.626,0,.353-.025.608.492.589C1857.276,603.557,1858.5,603.588,1859.719,603.588Zm-6.139,0c.29-.14.948.367.916-.549-.019-.531-.153-.713-.673-.643a6.578,6.578,0,0,1-.871.008c-.132,0-.236.011-.287.177-.2.662.032,1.007.7,1.007Z" transform="translate(-75.893 -134.47)" fill="#040405"/>
      <path id="Trazado_165593" data-name="Trazado 165593" d="M1848.1,465.816c-2.992,0-5.984-.009-8.976.01-.433,0-.588-.074-.584-.554q.034-5.2,0-10.4c0-.413.108-.51.514-.509q9.059.02,18.117,0c.431,0,.5.136.5.524q-.022,5.2,0,10.4c0,.43-.111.543-.541.54C1854.118,465.808,1851.108,465.816,1848.1,465.816Z" transform="translate(-65.722 -19.773)" fill="#af9af1"/>
      <path id="Trazado_165594" data-name="Trazado 165594" d="M1859.927,443.965c2.517,0,5.034.016,7.551-.014.493-.006.563.167.544.588-.018.372.02.627-.52.625q-7.578-.035-15.157,0c-.575,0-.533-.269-.549-.657s.064-.561.525-.556C1854.856,443.979,1857.392,443.965,1859.927,443.965Z" transform="translate(-76.07 -11.644)" fill="#84ceee"/>
      <path id="Trazado_165595" data-name="Trazado 165595" d="M1839.406,443.959h.212c.672,0,.909.347.7,1.005-.051.163-.153.179-.287.179a6.432,6.432,0,0,0-.871.008c-.519.07-.654-.11-.672-.641C1838.459,443.6,1839.112,444.094,1839.406,443.959Z" transform="translate(-65.686 -11.637)" fill="#58a4d1"/>
      <path id="Trazado_165596" data-name="Trazado 165596" d="M1949.3,623.526c-1.714,0-3.429-.016-5.143.011-.447.007-.542-.135-.538-.554q.032-2.926,0-5.853c0-.393.118-.477.49-.475q5.171.021,10.341,0c.37,0,.445.111.442.457-.016,1.969-.02,3.938,0,5.907,0,.4-.086.525-.506.518C1952.69,623.51,1950.994,623.526,1949.3,623.526Z" transform="translate(-147.743 -146.45)" fill="#f4da90"/>
      <path id="Trazado_165597" data-name="Trazado 165597" d="M1961.152,607.443c-1.239,0-2.478-.029-3.716.014-.511.018-.455-.261-.437-.569.018-.289-.156-.65.425-.643q3.743.041,7.487,0c.6-.006.383.384.4.658s.114.567-.392.551C1963.666,607.417,1962.409,607.443,1961.152,607.443Z" transform="translate(-158.181 -138.325)" fill="#84ceee"/>
      <path id="Trazado_165598" data-name="Trazado 165598" d="M1944.3,607.407h-.219c-.627,0-.909-.44-.676-1.034.065-.166.187-.148.309-.15a7.412,7.412,0,0,0,.874-.009c.518-.07.714.095.661.641S1945.235,607.407,1944.3,607.407Z" transform="translate(-147.514 -138.289)" fill="#58a4d1"/>
      <path id="Trazado_165599" data-name="Trazado 165599" d="M1774.869,623.533c-1.7,0-3.392-.009-5.088.007-.353,0-.511-.044-.506-.461.023-2.005.017-4.011,0-6.016,0-.3.068-.4.387-.4q5.225.017,10.45,0c.326,0,.437.072.434.42q-.026,3.008,0,6.017c0,.393-.155.441-.484.439C1778.334,623.526,1776.6,623.533,1774.869,623.533Z" transform="translate(-11.658 -146.457)" fill="#f4da90"/>
      <path id="Trazado_165600" data-name="Trazado 165600" d="M1786.781,607.449c-1.24,0-2.481-.026-3.72.013-.5.016-.422-.272-.4-.547s-.192-.668.406-.662q3.747.036,7.5,0c.6-.005.378.388.409.666.034.3.055.554-.415.541C1789.3,607.427,1788.039,607.449,1786.781,607.449Z" transform="translate(-22.091 -138.331)" fill="#84ceee"/>
      <path id="Trazado_165601" data-name="Trazado 165601" d="M1770.2,606.249h.219c.66,0,.912.38.7,1.026-.058.177-.176.156-.3.158-.273,0-.547,0-.821,0-.732,0-.707,0-.732-.714-.013-.393.116-.528.493-.475A3.155,3.155,0,0,0,1770.2,606.249Z" transform="translate(-11.656 -138.317)" fill="#58a4d1"/>
      <path id="Trazado_165602" data-name="Trazado 165602" d="M1862.169,616.667c1.714,0,3.428.01,5.141-.008.354,0,.457.088.454.449q-.027,2.98,0,5.961c0,.347-.077.47-.45.468q-5.169-.021-10.338,0c-.37,0-.455-.116-.453-.466q.023-2.98,0-5.96c0-.358.094-.455.452-.451C1858.7,616.677,1860.436,616.667,1862.169,616.667Z" transform="translate(-79.759 -146.453)" fill="#f4db90"/>
      <path id="Trazado_165603" data-name="Trazado 165603" d="M1873.934,607.434c-1.221,0-2.443-.031-3.663.014-.517.019-.488-.236-.492-.589,0-.38-.017-.633.521-.626q3.663.049,7.327,0c.533-.007.492.263.479.6-.012.308.11.635-.454.613C1876.415,607.4,1875.174,607.434,1873.934,607.434Z" transform="translate(-90.108 -138.316)" fill="#84ceee"/>
      <path id="Trazado_165604" data-name="Trazado 165604" d="M1857.234,607.412h-.213c-.67,0-.9-.345-.7-1.007.051-.166.155-.177.287-.177a6.581,6.581,0,0,0,.871-.008c.52-.07.655.112.673.643C1858.183,607.779,1857.525,607.272,1857.234,607.412Z" transform="translate(-79.548 -138.294)" fill="#58a4d1"/>
    </g>
  </g>
</svg>
