<svg xmlns="http://www.w3.org/2000/svg" width="80" height="80" viewBox="0 0 80 80">
  <g id="Grupo_110669" data-name="Grupo 110669" transform="translate(6464.657 3101.667)">
    <g id="Grupo_108601" data-name="Grupo 108601">
      <rect id="Rectángulo_36111" data-name="Rectángulo 36111" width="80" height="80" rx="10" transform="translate(-6464.657 -3101.667)" fill="#083142"/>
      <g id="Grupo_108597" data-name="Grupo 108597" transform="translate(-7959.996 -3985.462)">
        <path id="Trazado_165532" data-name="Trazado 165532" d="M1552.031,918.968a.829.829,0,0,1-.577-1.025c.461-2.567.913-5.135,1.375-7.7a2.306,2.306,0,0,1,2.531-1.921,2.236,2.236,0,0,1,1.912,2.654c-.6,3.56-1.239,7.115-1.865,10.671q-.774,4.4-1.555,8.791a.809.809,0,0,0,.09.666,1.127,1.127,0,0,1,.145.914c-.1.441-.15.89-.24,1.333-.1.49-.207.948.233,1.375a1.052,1.052,0,0,1,.132.961c-.287,1.6-.559,3.195-.865,4.787-.083.431.028.519.453.511,1.574-.027,3.149-.012,4.724-.011a2.3,2.3,0,0,1,2.559,2.534q0,2.763,0,5.526a2.251,2.251,0,0,1-2.49,2.481c-.451-.008-.579.113-.535.547a9.142,9.142,0,0,1,.005,1.2,1.251,1.251,0,0,1-1.269,1.275c-.1,0-.2,0-.3,0H1522.57c-.7,0-.865-.113-1.03-.693.091-.645.312-.816,1.073-.816q16.713,0,33.425.007c.4,0,.624-.06.5-.515.06-1,.06-1-.911-1h-40.341c-.217,0-.435.013-.652.02-.388-.1-.566.028-.51.449a2.363,2.363,0,0,1,0,.6c-.046.361.1.448.449.443,1.323-.019,2.646-.01,3.969-.006.657,0,.859.181.962.828a.781.781,0,0,1-.894.684c-1.541-.009-3.082,0-4.623-.005a1.26,1.26,0,0,1-1.368-1.378c-.005-.452-.011-.9,0-1.356.007-.218-.059-.293-.282-.285a4.067,4.067,0,0,1-.9-.033,2.242,2.242,0,0,1-1.833-2.208q-.019-3.014,0-6.029a2.248,2.248,0,0,1,2.307-2.277c1.692-.014,3.384-.015,5.075,0,.391,0,.511-.069.431-.484-.307-1.592-.579-3.191-.866-4.787a1.406,1.406,0,0,1,.38-1.472c.152-.127.089-.268.062-.413-.111-.609-.222-1.217-.329-1.826a1.352,1.352,0,0,1,.177-1.106.542.542,0,0,0,.067-.473q-1.727-9.753-3.452-19.507a2.329,2.329,0,0,1,1.774-2.689,2.305,2.305,0,0,1,2.69,1.9c.424,2.336.822,4.676,1.234,7.014q1.1,6.273,2.213,12.545c.017.1.031.231.094.273.649.426.649,1.13.781,1.777.057.278.095.56.137.842a.879.879,0,0,0,.517.813,1.15,1.15,0,0,1,.571.952c.365,2.075.744,4.147,1.087,6.225.058.349.18.42.5.419,3.116-.011,6.231-.008,9.347-.006.627,0,.823.161.979.772-.185.623-.343.735-1.058.735h-21.557c-.217,0-.435.013-.652.021-.744-.022-1.007.225-1.008.963q0,2.788,0,5.576c0,.717.254.976.958.976q23.263,0,46.526,0c.737,0,.983-.266.956-1.01q.009-2.685.018-5.371c0-.948-.2-1.155-1.139-1.155h-19.989c-.664,0-.831-.123-1.015-.727.148-.614.345-.779.969-.78,2.428,0,4.856-.01,7.283.008.367,0,.472-.112.53-.459.344-2.043.721-4.081,1.075-6.122a1.162,1.162,0,0,1,.6-.931.708.708,0,0,0,.442-.642c.072-.579.192-1.153.3-1.729.042-.231.072-.5.262-.637.535-.379.534-.957.631-1.5.427-2.4.848-4.8,1.28-7.206.116-.643.28-.773.928-.815a.8.8,0,0,1,.572.977q-.651,3.678-1.3,7.356c-.145.818-.149.817.672.954.72.12.72.12.761-.615a1.543,1.543,0,0,0,.081-.235q.857-4.839,1.708-9.68.781-4.445,1.555-8.892a.714.714,0,0,0-.516-.936c-.633-.092-.875.132-1.011.907q-.645,3.682-1.3,7.361C1552.839,918.772,1552.672,918.916,1552.031,918.968Zm-33.376,12.766c-.362-.035-.483.128-.411.478a11.781,11.781,0,0,1,.2,1.183c.033.333.2.374.476.32.458-.092.917-.177,1.377-.26.712-.13.712-.129.548-.831-.047-.292-.111-.583-.135-.877-.025-.309-.167-.384-.454-.323C1519.725,931.536,1519.189,931.631,1518.654,931.733Zm31.873-.152c-.3-.136-.466-.07-.507.286-.046.4-.125.792-.2,1.185-.06.3,0,.46.357.491a13.363,13.363,0,0,1,1.334.228c.757.146.767.141.82-.645.06-.274.111-.551.184-.821.079-.292-.022-.426-.319-.466C1551.637,931.764,1551.083,931.668,1550.527,931.581Zm-.6,3.469c-.293-.062-.589-.117-.88-.188-.243-.06-.312.04-.351.27q-.475,2.735-.975,5.465c-.051.282.028.385.328.38.886-.016,1.771-.005,2.657-.005,1.151,0,1.151,0,1.22-1.211q.359-1.963.72-3.925c.041-.221-.019-.345-.258-.383C1551.563,935.323,1550.743,935.185,1549.923,935.05Zm-27.062,4.709q-.4-2.393-.808-4.787c-.037-.221-.164-.266-.357-.229l-2.455.468c-.3.042-.594.1-.892.123s-.3.161-.256.4q.443,2.439.857,4.883c.046.274.157.36.425.356.87-.013,1.74,0,2.61,0C1523.21,940.971,1523.21,940.971,1522.862,939.759Zm-3.115-10.451a1.879,1.879,0,0,0-.012-.249q-.9-5.089-1.8-10.177-.743-4.2-1.489-8.4c-.082-.464-.288-.779-.813-.765a.737.737,0,0,0-.682.99c.205,1.184.422,2.366.631,3.55q1.332,7.544,2.661,15.089c.157.9.143.9,1.059.719C1519.921,929.946,1519.921,929.946,1519.746,929.308Z" transform="translate(0 -6.719)" fill="#020202"/>
        <path id="Trazado_165533" data-name="Trazado 165533" d="M1522.115,1075.573c.217-.007.435-.021.652-.021h21.557c.715,0,.874-.112,1.058-.735l2.041.008c.184.6.351.727,1.015.727h19.989c.936,0,1.141.206,1.139,1.155q-.007,2.685-.018,5.371l-46.362,0c-.739,0-1.069-.346-1.071-1.133C1522.109,1079.155,1522.114,1077.364,1522.115,1075.573Zm20.2,2.987q-2.359,0-4.718,0c-.618,0-.929.242-.943.721s.324.784.944.785q4.718,0,9.436,0c.619,0,.959-.292.944-.785s-.325-.719-.944-.72Q1544.678,1078.557,1542.319,1078.56Zm25.738.786a2.262,2.262,0,1,0-2.294,2.235A2.274,2.274,0,0,0,1568.057,1079.345Zm-6.032-.031a2.262,2.262,0,1,0-2.264,2.266A2.275,2.275,0,0,0,1562.025,1079.315Zm-8.307,2.266a2.259,2.259,0,1,0-2.249-2.28A2.26,2.26,0,0,0,1553.719,1081.581Zm-22.836,0a2.259,2.259,0,1,0-2.236-2.293A2.261,2.261,0,0,0,1530.883,1081.581Zm-6,0a2.259,2.259,0,1,0-2.267-2.262A2.26,2.26,0,0,0,1524.881,1081.581Z" transform="translate(-9.994 -139.791)" fill="#63929e"/>
        <path id="Trazado_165534" data-name="Trazado 165534" d="M1573.652,901.379c.028-.639.165-.823.794-.961a25.43,25.43,0,0,1,19.118,3.115,2.257,2.257,0,1,1-2.345,3.858,21,21,0,0,0-21.8-.13,2.416,2.416,0,0,1-2.1.346,2.265,2.265,0,0,1-.59-4,22.833,22.833,0,0,1,3.969-2.019.8.8,0,0,1,1.062.392.88.88,0,0,1-.648,1.08,21.429,21.429,0,0,0-3.354,1.674.758.758,0,0,0-.323,1.166c.421.409.6.414,1.229.048a22.291,22.291,0,0,1,16.72-2.571,21.889,21.889,0,0,1,6.379,2.591c.412.246.821.417,1.189-.073.277-.536.226-.82-.267-1.127s-1.005-.6-1.527-.859a23.917,23.917,0,0,0-16.271-2.041C1574.156,902.031,1573.973,901.956,1573.652,901.379Z" transform="translate(-44.858 0)" fill="#030403"/>
        <path id="Trazado_165535" data-name="Trazado 165535" d="M1594.314,927.23a18.772,18.772,0,0,1,9.849,2.729,2.263,2.263,0,1,1-2.338,3.875,13.958,13.958,0,0,0-14.677-.042,2.265,2.265,0,1,1-2.3-3.9A18.663,18.663,0,0,1,1594.314,927.23Zm-9.007,5.13c.376.439.772.314,1.2.067a15.629,15.629,0,0,1,15.933.012c.6.354.823.316,1.243-.18.187-.519.1-.776-.4-1.073a17,17,0,0,0-10.894-2.315,16.8,16.8,0,0,0-6.736,2.307C1585.079,931.517,1585,931.827,1585.307,932.36Z" transform="translate(-59.113 -21.933)" fill="#030403"/>
        <path id="Trazado_165536" data-name="Trazado 165536" d="M1613.624,960.579a2.2,2.2,0,0,1-1.142-.324,7.152,7.152,0,0,0-7.488-.04,2.284,2.284,0,0,1-3.223-.779,2.249,2.249,0,0,1,1-3.153,11.558,11.558,0,0,1,11.982.063,2.22,2.22,0,0,1,1.093,2.609A2.257,2.257,0,0,1,1613.624,960.579Zm-10.45-1.8c.356.424.746.328,1.157.088a8.683,8.683,0,0,1,8.755,0c.361.208.727.376,1.082-.016.39-.5.336-.855-.184-1.2a10.3,10.3,0,0,0-10.593.024A.732.732,0,0,0,1603.174,958.775Z" transform="translate(-73.367 -43.822)" fill="#030403"/>
        <path id="Trazado_165537" data-name="Trazado 165537" d="M1573.457,911.871a.759.759,0,0,1,.323-1.166,21.434,21.434,0,0,1,3.354-1.674.88.88,0,0,0,.648-1.08l1.89-.6c.322.578.505.652,1.237.492a23.915,23.915,0,0,1,16.271,2.041c.522.261,1.031.551,1.527.859s.545.591.267,1.127c-1.016-.573-2.026-1.152-3.084-1.652a23.59,23.59,0,0,0-9.435-2.149,21.141,21.141,0,0,0-3.581.28,22.219,22.219,0,0,0-6.66,2.033C1575.274,910.832,1574.375,911.37,1573.457,911.871Z" transform="translate(-50.878 -5.969)" fill="#b9dea3"/>
        <path id="Trazado_165538" data-name="Trazado 165538" d="M1574.444,1124.335c.125.455-.1.516-.5.515q-16.712-.013-33.425-.007c-.761,0-.982.171-1.073.816a8.658,8.658,0,0,0-2.036.013c-.1-.647-.3-.826-.962-.828-1.323,0-2.647-.013-3.97.006-.345.005-.495-.081-.449-.443a2.375,2.375,0,0,0,0-.6c-.056-.421.122-.547.51-.448.163.952.185.979.915.979Z" transform="translate(-17.907 -178.53)" fill="#557f87"/>
        <path id="Trazado_165539" data-name="Trazado 165539" d="M1626.484,990.27a2.75,2.75,0,0,1-2.783-2.759,2.761,2.761,0,1,1,5.522.007A2.748,2.748,0,0,1,1626.484,990.27Zm-.839-3.666a1.224,1.224,0,1,0,1.7.032A1.189,1.189,0,0,0,1625.645,986.6Z" transform="translate(-91.12 -67.863)" fill="#030403"/>
        <path id="Trazado_165540" data-name="Trazado 165540" d="M1716.291,936.229c-.041.735-.041.735-.761.615-.822-.137-.817-.136-.672-.954q.651-3.678,1.3-7.356a.8.8,0,0,0-.572-.977l.3-1.969c.641-.052.808-.2.922-.833q.654-3.68,1.3-7.361c.135-.774.378-1,1.011-.907-.181,1.029-.357,2.059-.543,3.088-.457,2.53-.926,5.058-1.374,7.589-.489,2.76-.957,5.524-1.441,8.285C1715.67,935.966,1715.757,936.115,1716.291,936.229Z" transform="translate(-163.855 -13.338)" fill="#dae2e6"/>
        <path id="Trazado_165541" data-name="Trazado 165541" d="M1518.122,1078.569c0,1.791-.005,3.582,0,5.373,0,.787.333,1.133,1.071,1.133l46.363,0c.027.745-.22,1.01-.956,1.01q-23.263,0-46.526,0c-.7,0-.957-.26-.958-.976q0-2.788,0-5.576C1517.115,1078.793,1517.379,1078.546,1518.122,1078.569Z" transform="translate(-6.001 -142.787)" fill="#557f87"/>
        <path id="Trazado_165542" data-name="Trazado 165542" d="M1576.507,1124.375l-40.988,0c-.73,0-.752-.027-.915-.979.217-.007.435-.02.652-.02H1575.6C1576.566,1123.377,1576.566,1123.377,1576.507,1124.375Z" transform="translate(-19.969 -178.57)" fill="#62929d"/>
        <path id="Trazado_165543" data-name="Trazado 165543" d="M1540.884,935.421c.175.638.175.638-.441.76-.917.18-.9.178-1.06-.719q-1.324-7.546-2.661-15.089c-.209-1.183-.425-2.366-.63-3.55a.736.736,0,0,1,.682-.99.933.933,0,0,0,0,.15c.474,2.729.943,5.46,1.425,8.187.624,3.528,1.263,7.053,1.884,10.582C1540.168,935.228,1540.379,935.483,1540.884,935.421Z" transform="translate(-21.138 -12.832)" fill="#dae2e6"/>
        <path id="Trazado_165544" data-name="Trazado 165544" d="M1720.043,936.306c-.533-.114-.62-.263-.53-.78.484-2.761.952-5.525,1.441-8.285.448-2.532.917-5.059,1.374-7.589.186-1.029.362-2.058.543-3.088a.714.714,0,0,1,.516.936q-.778,4.446-1.555,8.892-.85,4.84-1.708,9.68A1.566,1.566,0,0,1,1720.043,936.306Z" transform="translate(-167.608 -13.415)" fill="#e3e7eb"/>
        <path id="Trazado_165545" data-name="Trazado 165545" d="M1543.678,935.419c-.505.062-.716-.193-.8-.668-.621-3.529-1.26-7.054-1.884-10.582-.482-2.728-.951-5.458-1.425-8.187a.947.947,0,0,1,0-.15c.525-.015.731.3.813.765q.741,4.2,1.489,8.4.9,5.088,1.8,10.176A1.88,1.88,0,0,1,1543.678,935.419Z" transform="translate(-23.932 -12.83)" fill="#e3e7eb"/>
        <path id="Trazado_165546" data-name="Trazado 165546" d="M1557.475,1040.483l2.455-.468c.193-.037.321.008.357.229q.4,2.394.808,4.787c-.72,0-1.441.008-2.161,0a.662.662,0,0,1-.757-.618C1557.968,1043.1,1557.713,1041.792,1557.475,1040.483Z" transform="translate(-38.234 -111.991)" fill="#63929e"/>
        <path id="Trazado_165547" data-name="Trazado 165547" d="M1707.059,1041.583c.82.135,1.64.273,2.461.4.239.037.3.162.258.383q-.364,1.962-.72,3.925c-.65,0-1.3.009-1.95,0-.623-.01-.821-.29-.71-.9C1706.628,1044.126,1706.839,1042.854,1707.059,1041.583Z" transform="translate(-157.136 -113.252)" fill="#63929e"/>
        <path id="Trazado_165548" data-name="Trazado 165548" d="M1700.992,1040.769c-.219,1.271-.43,2.543-.661,3.812-.11.606.088.885.71.9.65.011,1.3,0,1.95,0-.07,1.211-.07,1.211-1.22,1.211-.886,0-1.771-.01-2.657.005-.3.005-.379-.1-.328-.38q.5-2.731.975-5.465c.04-.23.108-.33.351-.27C1700.4,1040.652,1700.7,1040.707,1700.992,1040.769Z" transform="translate(-151.069 -112.438)" fill="#547d85"/>
        <path id="Trazado_165549" data-name="Trazado 165549" d="M1552.844,1042.382c.238,1.309.493,2.615.7,3.928a.662.662,0,0,0,.757.618c.72.01,1.441,0,2.161,0,.349,1.212.349,1.212-.876,1.212-.87,0-1.74-.008-2.61,0-.268,0-.379-.082-.425-.356q-.41-2.445-.857-4.883c-.044-.242-.037-.382.256-.4S1552.547,1042.425,1552.844,1042.382Z" transform="translate(-33.603 -113.89)" fill="#547d85"/>
        <path id="Trazado_165550" data-name="Trazado 165550" d="M1712.253,1024.36c.555.087,1.11.183,1.667.259.3.04.4.174.319.466-.073.271-.124.548-.184.822a4.96,4.96,0,0,1-1.12-.183c-.839-.16-.937-.313-.718-1.168C1712.232,1024.491,1712.241,1024.425,1712.253,1024.36Z" transform="translate(-161.725 -99.498)" fill="#62929d"/>
        <path id="Trazado_165551" data-name="Trazado 165551" d="M1554.562,1023.8c.534-.1,1.07-.2,1.6-.311.286-.061.428.013.454.322.024.294.089.585.135.878-.489.082-.984.137-1.464.254a.469.469,0,0,1-.6-.363A3.927,3.927,0,0,1,1554.562,1023.8Z" transform="translate(-35.908 -98.791)" fill="#62929d"/>
        <path id="Trazado_165552" data-name="Trazado 165552" d="M1552.854,1025.1a3.917,3.917,0,0,0,.123.78.469.469,0,0,0,.6.363c.48-.117.976-.172,1.464-.254.164.7.164.7-.548.831-.459.084-.919.169-1.377.26-.272.055-.443.014-.476-.32a11.739,11.739,0,0,0-.2-1.183C1552.371,1025.226,1552.491,1025.064,1552.854,1025.1Z" transform="translate(-34.199 -100.084)" fill="#547d85"/>
        <path id="Trazado_165553" data-name="Trazado 165553" d="M1709.9,1024.1c-.012.065-.02.131-.037.195-.219.855-.121,1.008.718,1.168a4.96,4.96,0,0,0,1.12.183c-.052.786-.063.791-.82.645a13.416,13.416,0,0,0-1.334-.228c-.353-.031-.417-.189-.357-.491.078-.393.156-.788.2-1.185C1709.439,1024.029,1709.6,1023.962,1709.9,1024.1Z" transform="translate(-159.377 -99.237)" fill="#547d85"/>
        <path id="Trazado_165554" data-name="Trazado 165554" d="M1599.984,1093.4q2.359,0,4.718,0c.619,0,.929.241.944.72s-.325.784-.944.785q-4.718,0-9.436,0c-.62,0-.958-.291-.944-.785.015-.479.325-.72.944-.721Q1597.625,1093.4,1599.984,1093.4Z" transform="translate(-67.659 -154.632)" fill="#010101"/>
        <path id="Trazado_165555" data-name="Trazado 165555" d="M1732.278,1088.249a2.262,2.262,0,1,1-2.254-2.283A2.261,2.261,0,0,1,1732.278,1088.249Zm-2.715-.583c-.364.382-.4.751-.092,1.074a.717.717,0,0,0,1.11-.06.721.721,0,0,0-1.018-1.014Z" transform="translate(-174.214 -148.695)" fill="#020202"/>
        <path id="Trazado_165556" data-name="Trazado 165556" d="M1702.33,1088.218a2.262,2.262,0,1,1-2.285-2.253A2.261,2.261,0,0,1,1702.33,1088.218Zm-1.7.461a.721.721,0,0,0-1.019-1.013c-.363.382-.4.751-.092,1.073A.717.717,0,0,0,1700.633,1088.679Z" transform="translate(-150.298 -148.695)" fill="#020202"/>
        <path id="Trazado_165557" data-name="Trazado 165557" d="M1670.107,1090.485a2.26,2.26,0,1,1,2.274-2.256A2.259,2.259,0,0,1,1670.107,1090.485Zm-.441-2.819c-.364.381-.395.751-.092,1.073a.717.717,0,0,0,1.11-.06.721.721,0,0,0-1.018-1.013Z" transform="translate(-126.383 -148.695)" fill="#020202"/>
        <path id="Trazado_165558" data-name="Trazado 165558" d="M1556.789,1090.485a2.26,2.26,0,1,1,2.287-2.243A2.259,2.259,0,0,1,1556.789,1090.485Zm-.428-2.819c-.364.382-.4.751-.092,1.074a.717.717,0,0,0,1.11-.06.721.721,0,0,0-1.018-1.014Z" transform="translate(-35.9 -148.695)" fill="#020202"/>
        <path id="Trazado_165559" data-name="Trazado 165559" d="M1526.871,1090.485a2.259,2.259,0,1,1,2.256-2.274A2.26,2.26,0,0,1,1526.871,1090.485Zm-.005-3.011a.777.777,0,0,0-.745.73.754.754,0,0,0,.751.766.748.748,0,1,0-.006-1.5Z" transform="translate(-11.983 -148.695)" fill="#020202"/>
        <path id="Trazado_165560" data-name="Trazado 165560" d="M1574.044,915.121c.918-.5,1.817-1.039,2.758-1.494a22.221,22.221,0,0,1,6.66-2.033,21.154,21.154,0,0,1,3.581-.28,23.59,23.59,0,0,1,9.435,2.149c1.058.5,2.068,1.08,3.084,1.652-.368.49-.777.319-1.189.073a21.885,21.885,0,0,0-6.379-2.591,22.292,22.292,0,0,0-16.72,2.571C1574.643,915.536,1574.465,915.531,1574.044,915.121Z" transform="translate(-51.466 -9.219)" fill="#a3d1a7"/>
        <path id="Trazado_165561" data-name="Trazado 165561" d="M1591.283,938.364c-.311-.533-.228-.843.339-1.182a16.8,16.8,0,0,1,6.736-2.307,17,17,0,0,1,10.894,2.315c.5.3.591.554.4,1.073a2.379,2.379,0,0,1-1.049-.45,16.084,16.084,0,0,0-9.768-2.14,14.856,14.856,0,0,0-5.723,1.678C1592.5,937.674,1591.893,938.026,1591.283,938.364Z" transform="translate(-65.089 -27.937)" fill="#b9dda3"/>
        <path id="Trazado_165562" data-name="Trazado 165562" d="M1591.993,941.784c.611-.338,1.214-.69,1.833-1.013a14.857,14.857,0,0,1,5.723-1.678,16.084,16.084,0,0,1,9.768,2.14,2.378,2.378,0,0,0,1.049.45c-.42.5-.639.534-1.243.18a15.629,15.629,0,0,0-15.932-.012C1592.765,942.1,1592.369,942.223,1591.993,941.784Z" transform="translate(-65.799 -31.357)" fill="#a3d1a7"/>
        <path id="Trazado_165563" data-name="Trazado 165563" d="M1609.3,964.908a.732.732,0,0,1,.217-1.109,10.3,10.3,0,0,1,10.593-.024c.519.348.574.706.184,1.2-.05-.182-.2-.258-.352-.333-.477-.238-.944-.5-1.433-.712a9.2,9.2,0,0,0-5.535-.566A11.423,11.423,0,0,0,1609.3,964.908Z" transform="translate(-79.489 -49.955)" fill="#b9dda3"/>
        <path id="Trazado_165564" data-name="Trazado 165564" d="M1609.932,968.3a11.416,11.416,0,0,1,3.673-1.542,9.2,9.2,0,0,1,5.535.566c.489.212.956.474,1.433.712.152.076.3.151.352.333-.354.393-.721.224-1.082.016a8.682,8.682,0,0,0-8.754,0C1610.678,968.629,1610.288,968.725,1609.932,968.3Z" transform="translate(-80.125 -53.349)" fill="#a3d1a7"/>
        <path id="Trazado_165565" data-name="Trazado 165565" d="M1633.352,992.618a1.189,1.189,0,0,1,1.7.032,1.211,1.211,0,0,1,.021,1.706C1634.175,994.294,1633.679,993.792,1633.352,992.618Z" transform="translate(-98.827 -73.877)" fill="#b9dea3"/>
        <path id="Trazado_165566" data-name="Trazado 165566" d="M1631.651,993.973c.327,1.175.823,1.676,1.722,1.739a1.227,1.227,0,1,1-1.722-1.739Z" transform="translate(-97.126 -75.232)" fill="#a3d1a7"/>
        <path id="Trazado_165567" data-name="Trazado 165567" d="M1736.733,1093.6a.721.721,0,0,1,1.018,1.013A1.592,1.592,0,0,1,1736.733,1093.6Z" transform="translate(-181.384 -154.626)" fill="#b9dda3"/>
        <path id="Trazado_165568" data-name="Trazado 165568" d="M1735.551,1094.406a1.593,1.593,0,0,0,1.018,1.014.717.717,0,0,1-1.11.06C1735.156,1095.157,1735.187,1094.788,1735.551,1094.406Z" transform="translate(-180.202 -155.435)" fill="#a3d1a7"/>
        <path id="Trazado_165569" data-name="Trazado 165569" d="M1706.783,1093.6a.721.721,0,0,1,1.018,1.013A1.6,1.6,0,0,1,1706.783,1093.6Z" transform="translate(-157.467 -154.626)" fill="#b9dda3"/>
        <path id="Trazado_165570" data-name="Trazado 165570" d="M1705.6,1094.407a1.594,1.594,0,0,0,1.018,1.013.716.716,0,0,1-1.11.06C1705.207,1095.158,1705.238,1094.789,1705.6,1094.407Z" transform="translate(-156.286 -155.436)" fill="#a3d1a7"/>
        <path id="Trazado_165571" data-name="Trazado 165571" d="M1676.835,1093.6a.721.721,0,0,1,1.018,1.013A1.6,1.6,0,0,1,1676.835,1093.6Z" transform="translate(-133.551 -154.626)" fill="#b9dda3"/>
        <path id="Trazado_165572" data-name="Trazado 165572" d="M1675.653,1094.407a1.593,1.593,0,0,0,1.018,1.013.717.717,0,0,1-1.11.06C1675.258,1095.158,1675.29,1094.789,1675.653,1094.407Z" transform="translate(-132.37 -155.436)" fill="#a3d1a7"/>
        <path id="Trazado_165573" data-name="Trazado 165573" d="M1563.529,1093.6a.721.721,0,0,1,1.018,1.013A1.593,1.593,0,0,1,1563.529,1093.6Z" transform="translate(-43.069 -154.626)" fill="#b9dda3"/>
        <path id="Trazado_165574" data-name="Trazado 165574" d="M1562.347,1094.406a1.594,1.594,0,0,0,1.018,1.014.717.717,0,0,1-1.11.06C1561.952,1095.157,1561.983,1094.788,1562.347,1094.406Z" transform="translate(-41.886 -155.435)" fill="#a3d1a7"/>
        <path id="Trazado_165575" data-name="Trazado 165575" d="M1532.877,1093.451a.748.748,0,1,1,.006,1.5.753.753,0,0,1-.752-.766A.777.777,0,0,1,1532.877,1093.451Z" transform="translate(-17.995 -154.673)" fill="#e58183"/>
      </g>
    </g>
  </g>
</svg>
