<svg xmlns="http://www.w3.org/2000/svg" width="70" height="70" viewBox="0 0 70 70">
  <g id="Grupo_157983" data-name="Grupo 157983" transform="translate(-620 -545)">
    <g id="Grupo_157666" data-name="Grupo 157666">
      <rect id="Rectángulo_44999" data-name="Rectángulo 44999" width="70" height="70" rx="10" transform="translate(620 545)" fill="#fff" opacity="0.3"/>
      <g id="potencia" transform="translate(629 558.87)">
        <path id="Trazado_600476" data-name="Trazado 600476" d="M58.231,14.548l-2.6-6.067H10.561l-2.6,6.067.867.867H57.364Zm0,0" transform="translate(-7.099 -7.133)" fill="#bec3d1"/>
        <path id="Trazado_600477" data-name="Trazado 600477" d="M7.961,64.48h50.27V97.416H7.961Zm0,0" transform="translate(-7.099 -57.066)" fill="#dce1ea"/>
        <path id="Trazado_600478" data-name="Trazado 600478" d="M72.229,116.614A12.134,12.134,0,1,1,60.1,104.48,12.134,12.134,0,0,1,72.229,116.614Zm0,0" transform="translate(-42.765 -92.732)" fill="#9196a9"/>
        <path id="Trazado_600479" data-name="Trazado 600479" d="M327.961,132.814l2.6,2.6h6.934l2.6-2.6V128.48H327.961Zm0,0" transform="translate(-292.43 -114.132)" fill="#9196a9"/>
        <path id="Trazado_600480" data-name="Trazado 600480" d="M335.961,272.48h10.4v5.2h-10.4Zm0,0" transform="translate(-299.563 -242.531)" fill="#bec3d1"/>
        <path id="Trazado_600481" data-name="Trazado 600481" d="M383.961,272.48h5.2v5.2h-5.2Zm0,0" transform="translate(-342.363 -242.531)" fill="#e38100"/>
        <path id="Trazado_600482" data-name="Trazado 600482" d="M51.934,7.09l-.005-.017-2.6-6.067a.866.866,0,0,0-.8-.526H3.462a.866.866,0,0,0-.8.525L.066,7.073v.017a.85.85,0,0,0-.059.288C.006,7.39,0,7.4,0,7.413V40.35a.867.867,0,0,0,.867.867H51.132A.867.867,0,0,0,52,40.35V7.414c0-.013-.007-.023-.007-.036a.87.87,0,0,0-.058-.288ZM4.033,2.214H47.96l1.857,4.334H2.177ZM50.265,39.483H1.729V8.281H50.265Zm0,0"/>
        <path id="Trazado_600483" data-name="Trazado 600483" d="M322.815,128.894a.867.867,0,0,0,.613.254h6.934a.867.867,0,0,0,.613-.254l2.6-2.6a.867.867,0,0,0,.254-.613v-4.334a.867.867,0,0,0-.867-.867H320.828a.867.867,0,0,0-.867.867v4.334a.867.867,0,0,0,.254.613Zm-1.121-6.68h10.4v3.108L330,127.415h-6.216l-2.092-2.092Zm0,0" transform="translate(-285.297 -106.999)"/>
        <path id="Trazado_600484" data-name="Trazado 600484" d="M353.443,145.962a1.014,1.014,0,0,0,.182-.286.867.867,0,1,0-1.595,0,1,1,0,0,0,.182.286.879.879,0,0,0,1.231,0Zm0,0" transform="translate(-313.83 -128.399)"/>
        <path id="Trazado_600485" data-name="Trazado 600485" d="M376.5,162.1a.858.858,0,0,0,.945-.182,1.014,1.014,0,0,0,.182-.286.865.865,0,0,0-1.413-.945.887.887,0,0,0-.251.615.855.855,0,0,0,.251.615A.994.994,0,0,0,376.5,162.1Zm0,0" transform="translate(-335.229 -142.623)"/>
        <path id="Trazado_600486" data-name="Trazado 600486" d="M400.21,145.965a.879.879,0,0,0,1.231,0,1.015,1.015,0,0,0,.182-.286.863.863,0,0,0,.069-.329.911.911,0,0,0-.251-.615.882.882,0,0,0-.789-.234.549.549,0,0,0-.156.052.68.68,0,0,0-.157.078,1.446,1.446,0,0,0-.129.1.9.9,0,0,0-.251.615.725.725,0,0,0,.069.329A1,1,0,0,0,400.21,145.965Zm0,0" transform="translate(-356.627 -128.402)"/>
        <path id="Trazado_600487" data-name="Trazado 600487" d="M339.228,264.48h-10.4a.867.867,0,0,0-.867.867v5.2a.867.867,0,0,0,.867.867h10.4a.867.867,0,0,0,.867-.867v-5.2A.867.867,0,0,0,339.228,264.48Zm-9.534,1.733h3.467v3.467h-3.467Zm8.667,3.467h-3.467v-3.467h3.467Zm0,0" transform="translate(-292.43 -235.398)"/>
        <path id="Trazado_600488" data-name="Trazado 600488" d="M32.828,308.814h3.467V307.08h-2.6v-2.6H31.961v3.467A.867.867,0,0,0,32.828,308.814Zm0,0" transform="translate(-28.499 -271.064)"/>
        <path id="Trazado_600489" data-name="Trazado 600489" d="M250.561,92.814h1.733V89.347a.867.867,0,0,0-.867-.867h-3.467v1.733h2.6Zm0,0" transform="translate(-221.097 -78.466)"/>
        <path id="Trazado_600490" data-name="Trazado 600490" d="M33.694,90.213h2.6V88.48H32.828a.867.867,0,0,0-.867.867v3.467h1.733Zm0,0" transform="translate(-28.499 -78.466)"/>
        <path id="Trazado_600491" data-name="Trazado 600491" d="M250.561,307.08h-2.6v1.733h3.467a.867.867,0,0,0,.867-.867V304.48h-1.733Zm0,0" transform="translate(-221.097 -271.064)"/>
        <path id="Trazado_600492" data-name="Trazado 600492" d="M52.962,96.481a13,13,0,1,0,13,13A13,13,0,0,0,52.962,96.481Zm7.322,19.1a9.508,9.508,0,0,0,0-12.193l1.225-1.225a11.21,11.21,0,0,1,0,14.642Zm-2.988-6.1a4.309,4.309,0,0,1-.722,2.386L55.3,110.6a2.508,2.508,0,0,0,0-2.228l1.273-1.272a4.308,4.308,0,0,1,.721,2.386Zm-8.667,0a4.3,4.3,0,0,1,.722-2.386l1.271,1.272a2.508,2.508,0,0,0,0,2.228l-1.272,1.272a4.3,4.3,0,0,1-.721-2.386Zm3.467,0a.867.867,0,1,1,.867.867A.867.867,0,0,1,52.1,109.481Zm1.98-2.34a2.507,2.507,0,0,0-2.227,0l-1.272-1.272a4.3,4.3,0,0,1,4.772,0Zm-2.227,4.68a2.5,2.5,0,0,0,2.227,0l1.273,1.273a4.3,4.3,0,0,1-4.772,0Zm4.74-7.194a6.019,6.019,0,0,0-7.253,0L48.1,103.391a7.764,7.764,0,0,1,9.726,0Zm-8.48,1.227a6.018,6.018,0,0,0,0,7.253l-1.237,1.237a7.764,7.764,0,0,1,0-9.726Zm1.227,8.48a6.019,6.019,0,0,0,7.253,0l1.237,1.237a7.764,7.764,0,0,1-9.726,0Zm8.48-1.227a6.019,6.019,0,0,0,0-7.253l1.237-1.237a7.764,7.764,0,0,1,0,9.726Zm2.469-12.173-1.225,1.224a9.508,9.508,0,0,0-12.193,0l-1.225-1.224a11.211,11.211,0,0,1,14.642,0Zm-15.87,1.225,1.225,1.225a9.509,9.509,0,0,0,0,12.193L44.415,116.8a11.211,11.211,0,0,1,0-14.642Zm1.226,15.868,1.225-1.225a9.507,9.507,0,0,0,12.193,0l1.225,1.225a11.21,11.21,0,0,1-14.642,0Zm0,0" transform="translate(-35.632 -85.599)"/>
      </g>
    </g>
  </g>
</svg>
