<svg xmlns="http://www.w3.org/2000/svg" width="69.333" height="80" viewBox="0 0 69.333 80">
  <g id="t9-ic8" transform="translate(-6 -2)">
    <path id="Path_164172" data-name="Path 164172" d="M8,8H48V26.667H8Z" transform="translate(0.667 2)" fill="#b38cf5"/>
    <path id="Path_164173" data-name="Path 164173" d="M11.333,20.667H40.667A1.334,1.334,0,0,0,42,19.333V18H10v1.333A1.334,1.334,0,0,0,11.333,20.667Z" transform="translate(1.333 5.333)" fill="#8f52f5"/>
    <path id="Path_164174" data-name="Path 164174" d="M6,12H51.333v8H6Z" transform="translate(0 3.333)" fill="#d4d9f0"/>
    <path id="Path_164175" data-name="Path 164175" d="M6,12v5.333H42a2.666,2.666,0,0,0,2.667-2.667V12Z" transform="translate(0 3.333)" fill="#e2e7f6"/>
    <g id="Group_107814" data-name="Group 107814" transform="translate(8.667 18)">
      <path id="Path_164176" data-name="Path 164176" d="M8,14h2.667v2.667H8Z" transform="translate(-8 -14)" fill="#a3a7c6"/>
    </g>
    <g id="Group_107815" data-name="Group 107815" transform="translate(12.667 18)">
      <path id="Path_164177" data-name="Path 164177" d="M11,14h2.667v2.667H11Z" transform="translate(-11 -14)" fill="#e01650"/>
    </g>
    <g id="Group_107816" data-name="Group 107816" transform="translate(16.667 18)">
      <path id="Path_164178" data-name="Path 164178" d="M14,14h2.667v2.667H14Z" transform="translate(-14 -14)" fill="#a3a7c6"/>
    </g>
    <g id="Group_107817" data-name="Group 107817" transform="translate(20.667 18)">
      <path id="Path_164179" data-name="Path 164179" d="M17,14h2.667v2.667H17Z" transform="translate(-17 -14)" fill="#a3a7c6"/>
    </g>
    <path id="Path_164180" data-name="Path 164180" d="M6,22H51.333v8H6Z" transform="translate(0 6.667)" fill="#d4d9f0"/>
    <path id="Path_164181" data-name="Path 164181" d="M6,22v5.333H42a2.666,2.666,0,0,0,2.667-2.667V22Z" transform="translate(0 6.667)" fill="#e2e7f6"/>
    <g id="Group_107818" data-name="Group 107818" transform="translate(8.667 31.333)">
      <path id="Path_164182" data-name="Path 164182" d="M8,24h2.667v2.667H8Z" transform="translate(-8 -24)" fill="#a3a7c6"/>
    </g>
    <g id="Group_107819" data-name="Group 107819" transform="translate(12.667 31.333)">
      <path id="Path_164183" data-name="Path 164183" d="M11,24h2.667v2.667H11Z" transform="translate(-11 -24)" fill="#a3a7c6"/>
    </g>
    <g id="Group_107820" data-name="Group 107820" transform="translate(16.667 31.333)">
      <path id="Path_164184" data-name="Path 164184" d="M14,24h2.667v2.667H14Z" transform="translate(-14 -24)" fill="#e01650"/>
    </g>
    <g id="Group_107821" data-name="Group 107821" transform="translate(20.667 31.333)">
      <path id="Path_164185" data-name="Path 164185" d="M17,24h2.667v2.667H17Z" transform="translate(-17 -24)" fill="#a3a7c6"/>
    </g>
    <path id="Path_164186" data-name="Path 164186" d="M6,2H51.333v8H6Z" fill="#d4d9f0"/>
    <path id="Path_164187" data-name="Path 164187" d="M6,2V7.333H42a2.666,2.666,0,0,0,2.667-2.667V2Z" fill="#e2e7f6"/>
    <path id="Path_164188" data-name="Path 164188" d="M42,41h5.333v6.667H42Z" transform="translate(12 13)" fill="#dfe3ee"/>
    <circle id="Ellipse_5006" data-name="Ellipse 5006" cx="18.667" cy="18.667" r="18.667" transform="translate(38 18)" fill="#ffb206"/>
    <g id="Group_107822" data-name="Group 107822" transform="translate(8.667 4.667)">
      <path id="Path_164190" data-name="Path 164190" d="M8,4h2.667V6.667H8Z" transform="translate(-8 -4)" fill="#e01650"/>
    </g>
    <g id="Group_107823" data-name="Group 107823" transform="translate(12.667 4.667)">
      <path id="Path_164191" data-name="Path 164191" d="M11,4h2.667V6.667H11Z" transform="translate(-11 -4)" fill="#a3a7c6"/>
    </g>
    <g id="Group_107824" data-name="Group 107824" transform="translate(16.667 4.667)">
      <path id="Path_164192" data-name="Path 164192" d="M14,4h2.667V6.667H14Z" transform="translate(-14 -4)" fill="#a3a7c6"/>
    </g>
    <g id="Group_107825" data-name="Group 107825" transform="translate(20.667 4.667)">
      <path id="Path_164193" data-name="Path 164193" d="M17,4h2.667V6.667H17Z" transform="translate(-17 -4)" fill="#a3a7c6"/>
    </g>
    <path id="Path_164194" data-name="Path 164194" d="M40,46H50.667V67.333H40Z" transform="translate(11.333 14.667)" fill="#8f52f5"/>
    <g id="Group_107826" data-name="Group 107826" transform="translate(14.391 36.667)">
      <path id="Path_164195" data-name="Path 164195" d="M14.178,40.943l-1.885-1.885L15.9,35.448V28h2.667v8a1.327,1.327,0,0,1-.391.943Z" transform="translate(-12.293 -28)" fill="#b38cf5"/>
    </g>
    <g id="Group_107827" data-name="Group 107827" transform="translate(23.333 36.667)">
      <path id="Path_164196" data-name="Path 164196" d="M19,28h2.667V52H19Z" transform="translate(-19 -28)" fill="#b38cf5"/>
    </g>
    <g id="Group_107828" data-name="Group 107828" transform="translate(42 36.667)" style="mix-blend-mode: multiply;isolation: isolate">
      <path id="Path_164197" data-name="Path 164197" d="M47.667,42.667A14.684,14.684,0,0,1,33,28h2.667a12.013,12.013,0,0,0,12,12Z" transform="translate(-33 -28)" fill="#ffd882"/>
    </g>
    <g id="Group_107829" data-name="Group 107829" transform="translate(56.667 22)" style="mix-blend-mode: multiply;isolation: isolate">
      <path id="Path_164198" data-name="Path 164198" d="M58.667,31.667H56a12.013,12.013,0,0,0-12-12V17A14.684,14.684,0,0,1,58.667,31.667Z" transform="translate(-44 -17)" fill="#ffd882"/>
    </g>
    <path id="Path_164199" data-name="Path 164199" d="M40,46V64.667h4A2.666,2.666,0,0,0,46.667,62V46Z" transform="translate(11.333 14.667)" fill="#b38cf5"/>
    <path id="Path_164200" data-name="Path 164200" d="M11.333,10.667H40.667A1.334,1.334,0,0,0,42,9.333V8H10V9.333A1.334,1.334,0,0,0,11.333,10.667Z" transform="translate(1.333 2)" fill="#8f52f5"/>
    <g id="Group_107830" data-name="Group 107830" transform="translate(7.333 46)">
      <path id="Path_164201" data-name="Path 164201" d="M12.333,45.667a5.333,5.333,0,1,1,5.333-5.333A5.339,5.339,0,0,1,12.333,45.667Zm0-8A2.667,2.667,0,1,0,15,40.333,2.669,2.669,0,0,0,12.333,37.667Z" transform="translate(-7 -35)" fill="#ffb206"/>
    </g>
    <g id="Group_107831" data-name="Group 107831" transform="translate(19.333 59.333)">
      <path id="Path_164202" data-name="Path 164202" d="M21.333,55.667a5.333,5.333,0,1,1,5.333-5.333A5.339,5.339,0,0,1,21.333,55.667Zm0-8A2.667,2.667,0,1,0,24,50.333,2.669,2.669,0,0,0,21.333,47.667Z" transform="translate(-16 -45)" fill="#ffb206"/>
    </g>
    <circle id="Ellipse_5007" data-name="Ellipse 5007" cx="13.333" cy="13.333" r="13.333" transform="translate(43.333 23.333)" fill="#d4d9f0"/>
    <path id="Path_164189" data-name="Path 164189" d="M47.333,18A13.317,13.317,0,0,0,35.8,38H50a2.666,2.666,0,0,0,2.667-2.667V19.117A13.277,13.277,0,0,0,47.333,18Z" transform="translate(9.333 5.333)" fill="#e2e7f6"/>
  </g>
</svg>
