<svg xmlns="http://www.w3.org/2000/svg" width="130" height="130" viewBox="0 0 130 130">
  <g id="Grupo_157975" data-name="Grupo 157975" transform="translate(-285 -539)">
    <circle id="Elipse_5541" data-name="Elipse 5541" cx="65" cy="65" r="65" transform="translate(285 539)" fill="#083142"/>
    <circle id="Elipse_5553" data-name="Elipse 5553" cx="56" cy="56" r="56" transform="translate(294 548)" fill="#fff"/>
    <g id="rfid" transform="translate(319 573)">
      <path id="Trazado_600955" data-name="Trazado 600955" d="M279,303.828v14.627a1.828,1.828,0,1,0,3.657,0V303.828a1.828,1.828,0,1,0-3.657,0Z" transform="translate(-244.992 -265.188)" fill="#083142"/>
      <path id="Trazado_600956" data-name="Trazado 600956" d="M190.438,305.657a1.828,1.828,0,1,0,0-3.657h-5.929a1.828,1.828,0,0,0-1.828,1.828v14.627a1.828,1.828,0,1,0,3.657,0v-5.624h3.629a1.828,1.828,0,0,0,0-3.657h-3.629v-3.518Z" transform="translate(-160.413 -265.188)" fill="#083142"/>
      <path id="Trazado_600957" data-name="Trazado 600957" d="M337.526,302h-4.143a1.828,1.828,0,0,0-1.828,1.832s.011,5.626.011,7.294c0,2.012.019,7.283.019,7.336a1.828,1.828,0,0,0,1.828,1.822h.007c.125,0,3.079-.012,4.259-.033a7.148,7.148,0,0,0,5.643-2.869,10.277,10.277,0,0,0,1.939-6.241C345.261,305.674,342.153,302,337.526,302Zm.089,14.6c-.547.009-1.512.017-2.38.023-.005-1.731-.013-4.243-.013-5.492,0-1.051,0-3.671-.007-5.469h2.311c3.007,0,4.078,2.833,4.078,5.485C341.6,313.822,340.371,316.547,337.615,316.6Z" transform="translate(-291.141 -265.188)" fill="#083142"/>
      <path id="Trazado_600958" data-name="Trazado 600958" d="M79.565,307.63A5.747,5.747,0,0,0,73.72,302H69.828A1.828,1.828,0,0,0,68,303.828v14.627a1.828,1.828,0,1,0,3.657,0v-4.14l4.707,5.348a1.828,1.828,0,1,0,2.745-2.416l-3.717-4.224A5.672,5.672,0,0,0,79.565,307.63ZM73.72,309.6c-.476,0-1.285,0-2.042.007,0-.738-.007-1.523-.007-1.98,0-.392,0-1.2,0-1.973H73.72a1.984,1.984,0,1,1,0,3.946Z" transform="translate(-59.711 -265.188)" fill="#083142"/>
      <path id="Trazado_600959" data-name="Trazado 600959" d="M60.581,32.911a1.828,1.828,0,0,0-1.828,1.828V55.705a3.051,3.051,0,0,1-3.047,3.047H6.7a3.051,3.051,0,0,1-3.047-3.047V6.7A3.051,3.051,0,0,1,6.7,3.657H27.548a1.828,1.828,0,0,0,0-3.657H6.7A6.712,6.712,0,0,0,0,6.7v49a6.712,6.712,0,0,0,6.7,6.7h49a6.712,6.712,0,0,0,6.7-6.7V34.74A1.828,1.828,0,0,0,60.581,32.911Z" fill="#083142"/>
      <ellipse id="Elipse_5617" data-name="Elipse 5617" cx="5.43" cy="5.536" rx="5.43" ry="5.536" transform="translate(29.598 21.932)" fill="#083142"/>
      <path id="Trazado_600960" data-name="Trazado 600960" d="M273.828,123.657a9.152,9.152,0,0,1,9.142,9.142,1.828,1.828,0,0,0,3.657,0,12.813,12.813,0,0,0-12.8-12.8,1.828,1.828,0,1,0,0,3.657Z" transform="translate(-238.845 -105.373)" fill="#083142"/>
      <path id="Trazado_600961" data-name="Trazado 600961" d="M273.828,63.657a16.474,16.474,0,0,1,16.456,16.456,1.828,1.828,0,1,0,3.657,0A20.135,20.135,0,0,0,273.828,60a1.828,1.828,0,1,0,0,3.657Z" transform="translate(-238.845 -52.686)" fill="#083142"/>
      <path id="Trazado_600962" data-name="Trazado 600962" d="M273.828,3.657A23.8,23.8,0,0,1,297.6,27.426a1.828,1.828,0,0,0,3.657,0A27.426,27.426,0,0,0,273.828,0a1.828,1.828,0,1,0,0,3.657Z" transform="translate(-238.845)" fill="#083142"/>
    </g>
  </g>
</svg>
