<svg xmlns="http://www.w3.org/2000/svg" width="135" height="135" viewBox="0 0 135 135">
  <g id="Grupo_110676" data-name="Grupo 110676" transform="translate(-1153 -875)">
    <circle id="Elipse_5034" data-name="Elipse 5034" cx="67.5" cy="67.5" r="67.5" transform="translate(1153 875)" fill="#ffb476"/>
    <g id="rapido" transform="translate(1170 895.875)">
      <g id="Grupo_107182" data-name="Grupo 107182" transform="translate(1.96 1.967)">
        <path id="Trazado_163087" data-name="Trazado 163087" d="M28.282,273.522a34.675,34.675,0,0,1-4.653-17.377H9.965a48.264,48.264,0,0,0,6.483,24.178,6.824,6.824,0,0,0,11.834-6.8Zm0,0" transform="translate(-9.965 -207.737)" fill="#cfe7ff" fill-rule="evenodd"/>
        <path id="Trazado_163088" data-name="Trazado 163088" d="M409.84,256.148a34.675,34.675,0,0,1-4.653,17.376,6.824,6.824,0,0,0,11.834,6.8,48.257,48.257,0,0,0,6.483-24.178Zm0,0" transform="translate(-326.731 -207.74)" fill="#ff8b06" fill-rule="evenodd"/>
        <path id="Trazado_163089" data-name="Trazado 163089" d="M23.93,152.747a34.564,34.564,0,0,1,4.363-12.815l-11.857-6.846a48.6,48.6,0,0,0-6.468,24.2H23.631a34.9,34.9,0,0,1,.3-4.54Zm0,0" transform="translate(-9.968 -108.88)" fill="#f3f9ff" fill-rule="evenodd"/>
        <path id="Trazado_163090" data-name="Trazado 163090" d="M42.855,60.66l11.857,6.846A34.994,34.994,0,0,1,67.419,54.8L60.564,42.93A48.52,48.52,0,0,0,42.855,60.66Zm0,0" transform="translate(-36.387 -36.454)" fill="#ffefcc" fill-rule="evenodd"/>
        <path id="Trazado_163091" data-name="Trazado 163091" d="M132.9,16.479l6.856,11.874a34.668,34.668,0,0,1,17.354-4.641V10a48.353,48.353,0,0,0-24.21,6.475Zm0,0" transform="translate(-108.721 -10.004)" fill="#ffe19e" fill-rule="evenodd"/>
        <path id="Trazado_163092" data-name="Trazado 163092" d="M256,10V23.712a34.828,34.828,0,0,1,8.582,1.072l.8.214a34.463,34.463,0,0,1,7.973,3.355l6.856-11.874A48.348,48.348,0,0,0,256,10Zm0,0" transform="translate(-207.613 -10.004)" fill="#ffc94f" fill-rule="evenodd"/>
        <path id="Trazado_163093" data-name="Trazado 163093" d="M351.1,42.93,344.243,54.8a34.995,34.995,0,0,1,12.707,12.7l11.858-6.846A48.53,48.53,0,0,0,351.1,42.93Zm0,0" transform="translate(-278.502 -36.454)" fill="#ffb476" fill-rule="evenodd"/>
        <path id="Trazado_163094" data-name="Trazado 163094" d="M420.713,133.086l-11.858,6.846a34.563,34.563,0,0,1,4.363,12.815,35.022,35.022,0,0,1,.3,4.54H427.18a48.6,48.6,0,0,0-6.468-24.2Zm0,0" transform="translate(-330.408 -108.88)" fill="#ffa200" fill-rule="evenodd"/>
        <path id="Trazado_163095" data-name="Trazado 163095" d="M239.108,243.736l9.553,1.561,28.965,4.732-27.454-10.385-9.05-3.424a3.89,3.89,0,0,0-2.014,7.516Zm0,0" transform="translate(-191.725 -191.568)" fill="gray" fill-rule="evenodd"/>
        <path id="Trazado_163096" data-name="Trazado 163096" d="M223.454,220.37l-9.553-1.56a3.89,3.89,0,1,1,2.014-7.516l9.05,3.424a10.026,10.026,0,1,0-1.511,5.652Zm0,0" transform="translate(-166.518 -166.642)" fill="#e6e6e6" fill-rule="evenodd"/>
      </g>
      <path id="Trazado_163098" data-name="Trazado 163098" d="M73.918,75.95a1.96,1.96,0,0,0,1.39-.576l.012-.011a1.967,1.967,0,0,0-2.753-2.811l-.042.042a1.967,1.967,0,0,0,1.393,3.356Zm0,0" transform="translate(-57.801 -57.837)"/>
      <path id="Trazado_163099" data-name="Trazado 163099" d="M100.268,43.812a50.64,50.64,0,0,0-14.3-29.056,50.39,50.39,0,0,0-64.735-5.5,1.967,1.967,0,0,0,2.277,3.208q.952-.675,1.931-1.3l4.892,8.473A36.8,36.8,0,0,0,19.624,30.366l-8.473-4.891a46.034,46.034,0,0,1,2.874-4.038,1.967,1.967,0,0,0-3.077-2.451,50.4,50.4,0,0,0-4.21,56.546A8.791,8.791,0,1,0,21.98,66.768,32.749,32.749,0,0,1,73.492,27.229a32.776,32.776,0,0,1,9.08,29.1L62.251,48.639a12.015,12.015,0,1,0-2.461,9.2l21.436,3.5a33.12,33.12,0,0,1-2.516,5.433,8.792,8.792,0,0,0,15.243,8.765,50.585,50.585,0,0,0,6.315-31.725Zm-81.7,24.92a4.858,4.858,0,1,1-8.426,4.837A46,46,0,0,1,3.959,52.343h9.758a36.886,36.886,0,0,0,4.854,16.389Zm-4.6-23.153c-.124.941-.209,1.885-.259,2.83H3.967q.09-2.037.357-4.084a46.635,46.635,0,0,1,4.864-15.44l8.467,4.888a36.561,36.561,0,0,0-3.683,11.806ZM44.624,56.1a8.1,8.1,0,1,1,13.039-9.2l-5.61-2.123a5.239,5.239,0,0,0-4.29.279,6.026,6.026,0,0,0-2.312,8.63,5.241,5.241,0,0,0,3.575,2.387l5.918.966a8.109,8.109,0,0,1-10.32-.94Zm14.59-2.348-.016,0L49.66,52.2a1.359,1.359,0,0,1-.906-.638,2.093,2.093,0,0,1,.8-3,1.519,1.519,0,0,1,.682-.177,1.185,1.185,0,0,1,.421.077l9.014,3.409.057.022,9.068,3.43Zm-6.9-39.994V3.979A46.122,46.122,0,0,1,71.852,9.193l-4.894,8.477a36.417,36.417,0,0,0-14.645-3.907ZM28.842,9.195A46.078,46.078,0,0,1,48.379,3.976v9.786a36.417,36.417,0,0,0-14.645,3.907ZM70.361,19.642l4.9-8.478a46.937,46.937,0,0,1,14.3,14.3l-8.484,4.9A36.806,36.806,0,0,0,70.361,19.642ZM83.037,33.773l8.484-4.9a46.464,46.464,0,0,1,4.847,15.45q.268,2.045.357,4.084H86.979q-.075-1.417-.259-2.83a36.544,36.544,0,0,0-3.684-11.806Zm7.507,39.8a4.857,4.857,0,0,1-8.425-4.837,36.459,36.459,0,0,0,3.028-6.757l2.4.392a1.967,1.967,0,0,0,1.013-3.781l-2.277-.86a37.148,37.148,0,0,0,.7-5.387h9.757a45.99,45.99,0,0,1-6.189,21.23Zm0,0" transform="translate(0 -0.001)"/>
      <path id="Trazado_163101" data-name="Trazado 163101" d="M100.143,246.145a1.967,1.967,0,0,0,0,3.933h.047a1.967,1.967,0,1,0,0-3.933Zm0,0" transform="translate(-78.868 -197.737)"/>
      <path id="Trazado_163102" data-name="Trazado 163102" d="M175.8,119.153l-.023-.041a1.967,1.967,0,0,0-3.406,1.968l.023.04a1.967,1.967,0,1,0,3.406-1.967Zm0,0" transform="translate(-138.255 -94.897)"/>
      <path id="Trazado_163103" data-name="Trazado 163103" d="M321.772,122.121a1.965,1.965,0,0,0,1.7-.983l.023-.041a1.967,1.967,0,1,0-3.406-1.967l-.023.041a1.968,1.968,0,0,0,1.7,2.951Zm0,0" transform="translate(-256.912 -94.911)"/>
      <path id="Trazado_163104" data-name="Trazado 163104" d="M395.6,250.11a1.967,1.967,0,0,0,0-3.934h-.046a1.967,1.967,0,1,0,0,3.934Zm0,0" transform="translate(-316.181 -197.762)"/>
    </g>
  </g>
</svg>
