<svg xmlns="http://www.w3.org/2000/svg" width="135" height="135" viewBox="0 0 135 135">
  <g id="Grupo_110675" data-name="Grupo 110675" transform="translate(-733 -875)">
    <circle id="Elipse_5033" data-name="Elipse 5033" cx="67.5" cy="67.5" r="67.5" transform="translate(733 875)" fill="#ff6148"/>
    <g id="medio_1_" data-name="medio (1)" transform="translate(750 894.986)">
      <g id="Grupo_107180" data-name="Grupo 107180" transform="translate(1.96 1.967)">
        <path id="Trazado_163038" data-name="Trazado 163038" d="M28.283,274.022a34.672,34.672,0,0,1-4.653-17.378H9.965a48.259,48.259,0,0,0,6.483,24.179,6.825,6.825,0,0,0,11.835-6.8Zm0,0" transform="translate(-9.965 -208.233)" fill="#cfe7ff" fill-rule="evenodd"/>
        <path id="Trazado_163039" data-name="Trazado 163039" d="M409.838,256.645a34.67,34.67,0,0,1-4.654,17.378,6.825,6.825,0,0,0,11.835,6.8,48.264,48.264,0,0,0,6.483-24.178H409.838Zm0,0" transform="translate(-326.723 -208.234)" fill="#ff8b06" fill-rule="evenodd"/>
        <path id="Trazado_163040" data-name="Trazado 163040" d="M23.928,153.249a34.551,34.551,0,0,1,4.363-12.816l-11.858-6.846a48.6,48.6,0,0,0-6.468,24.2H23.629a34.889,34.889,0,0,1,.3-4.54Zm0,0" transform="translate(-9.965 -109.378)" fill="#f3f9ff" fill-rule="evenodd"/>
        <path id="Trazado_163041" data-name="Trazado 163041" d="M42.852,61.158,54.71,68A34.99,34.99,0,0,1,67.418,55.3L60.562,43.426a48.543,48.543,0,0,0-17.71,17.732Zm0,0" transform="translate(-36.383 -36.95)" fill="#ffefcc" fill-rule="evenodd"/>
        <path id="Trazado_163042" data-name="Trazado 163042" d="M132.9,16.976l6.856,11.875a34.663,34.663,0,0,1,17.355-4.641V10.5A48.36,48.36,0,0,0,132.9,16.976Zm0,0" transform="translate(-108.719 -10.5)" fill="#ffe19e" fill-rule="evenodd"/>
        <path id="Trazado_163043" data-name="Trazado 163043" d="M256,10.5V24.21a34.866,34.866,0,0,1,8.582,1.072l1.469-3.884-.669,4.1a34.481,34.481,0,0,1,7.973,3.356l6.856-11.875A48.364,48.364,0,0,0,256,10.5Zm0,0" transform="translate(-207.61 -10.5)" fill="#ffc94f" fill-rule="evenodd"/>
        <path id="Trazado_163044" data-name="Trazado 163044" d="M351.1,43.426,344.243,55.3A35,35,0,0,1,356.95,68l11.858-6.846A48.533,48.533,0,0,0,351.1,43.426Zm0,0" transform="translate(-278.497 -36.95)" fill="#ffb476" fill-rule="evenodd"/>
        <path id="Trazado_163045" data-name="Trazado 163045" d="M420.713,133.586l-11.858,6.846a34.642,34.642,0,0,1,4.662,17.357h13.665a48.629,48.629,0,0,0-6.469-24.2Zm0,0" transform="translate(-330.403 -109.378)" fill="#ffa200" fill-rule="evenodd"/>
        <path id="Trazado_163046" data-name="Trazado 163046" d="M243.574,104.431l1.561-9.553,4.733-28.967L239.482,93.366l-3.423,9.051a3.89,3.89,0,1,0,7.515,2.014Zm0,0" transform="translate(-191.426 -55.013)" fill="gray" fill-rule="evenodd"/>
        <path id="Trazado_163047" data-name="Trazado 163047" d="M220.208,207.015l-1.561,9.553a3.891,3.891,0,0,1-7.516-2.014l3.424-9.052a10.03,10.03,0,1,0,5.653,1.512Zm0,0" transform="translate(-166.5 -167.151)" fill="#e6e6e6" fill-rule="evenodd"/>
      </g>
      <path id="Trazado_163049" data-name="Trazado 163049" d="M73.928,76.442a1.972,1.972,0,1,0-1.364-3.381l-.027.027,1.388,1.394-1.391-1.391a1.964,1.964,0,0,0,1.394,3.35Zm0,0" transform="translate(-57.808 -58.336)"/>
      <path id="Trazado_163050" data-name="Trazado 163050" d="M100.275,44.314a50.649,50.649,0,0,0-14.3-29.058,50.395,50.395,0,0,0-64.739-5.5,1.967,1.967,0,0,0,2.277,3.208q.952-.675,1.931-1.3l4.892,8.474A36.818,36.818,0,0,0,19.625,30.868l-8.473-4.892a46.19,46.19,0,0,1,2.873-4.038,1.967,1.967,0,0,0-3.077-2.452,50.407,50.407,0,0,0-4.21,56.55,8.792,8.792,0,1,0,15.244-8.764A32.76,32.76,0,0,1,50.349,18.144a33.172,33.172,0,0,1,5.938.535l-7.677,20.3A12.028,12.028,0,1,0,58.857,42.37a12.193,12.193,0,0,0-1.049-.933l3.5-21.423A32.762,32.762,0,0,1,78.716,67.276,8.792,8.792,0,0,0,93.96,76.04a50.593,50.593,0,0,0,6.315-31.727Zm-81.7,24.923a4.858,4.858,0,1,1-8.426,4.838A46,46,0,0,1,3.959,52.846h9.759a36.909,36.909,0,0,0,4.855,16.39Zm-4.6-23.155q-.186,1.411-.259,2.83H3.967q.091-2.037.357-4.084A46.626,46.626,0,0,1,9.189,29.385l8.467,4.889a36.564,36.564,0,0,0-3.683,11.807Zm39.754-4.068c0,.005,0,.012,0,.018l-1.558,9.537a1.357,1.357,0,0,1-.638.905,2.092,2.092,0,0,1-3-.8,1.356,1.356,0,0,1-.1-1.1l3.417-9.033.008-.019,3.437-9.087Zm4.72,8.865a8.1,8.1,0,1,1-11.573-7.314l-2.123,5.611a5.241,5.241,0,0,0,.279,4.289,6.117,6.117,0,0,0,3.8,3.071,5.889,5.889,0,0,0,1.533.2,6.114,6.114,0,0,0,3.3-.957A5.24,5.24,0,0,0,56.048,52.2l.968-5.921a8.04,8.04,0,0,1,1.431,4.6ZM28.843,9.695A46.08,46.08,0,0,1,48.382,4.477v9.786A36.418,36.418,0,0,0,33.736,18.17Zm32.067,1.77a1.968,1.968,0,0,0-2.349,1.2l-.86,2.275a36.956,36.956,0,0,0-5.384-.681V4.478a46.129,46.129,0,0,1,19.54,5.215L66.963,18.17a36.2,36.2,0,0,0-5.011-2.1l.391-2.392a1.968,1.968,0,0,0-1.432-2.217Zm9.456,8.678,4.9-8.479a46.954,46.954,0,0,1,14.3,14.306l-8.485,4.9A36.818,36.818,0,0,0,70.366,20.143ZM83.043,34.275l8.484-4.9a46.467,46.467,0,0,1,4.848,15.451q.27,2.046.357,4.084H86.985q-.074-1.417-.259-2.83a36.564,36.564,0,0,0-3.683-11.807Zm7.508,39.8a4.858,4.858,0,0,1-8.426-4.838,36.912,36.912,0,0,0,4.856-16.394h9.759A46.005,46.005,0,0,1,90.55,74.077Zm0,0" transform="translate(0 -0.501)"/>
      <path id="Trazado_163052" data-name="Trazado 163052" d="M100.14,246.641a1.967,1.967,0,1,0,0,3.934h.046a1.967,1.967,0,1,0,0-3.934Zm0,0" transform="translate(-78.864 -198.231)"/>
      <path id="Trazado_163053" data-name="Trazado 163053" d="M175.793,119.654l-.023-.041a1.967,1.967,0,0,0-3.407,1.968l.023.041a1.967,1.967,0,0,0,3.407-1.968Zm0,0" transform="translate(-138.251 -95.397)"/>
      <path id="Trazado_163054" data-name="Trazado 163054" d="M322.781,118.91a1.967,1.967,0,0,0-2.687.72l-.023.04a1.967,1.967,0,1,0,3.406,1.968l.023-.04A1.968,1.968,0,0,0,322.781,118.91Zm0,0" transform="translate(-256.908 -95.409)"/>
      <path id="Trazado_163055" data-name="Trazado 163055" d="M395.553,250.61h.046a1.967,1.967,0,1,0,0-3.934h-.046a1.967,1.967,0,0,0,0,3.934Zm0,0" transform="translate(-316.176 -198.259)"/>
    </g>
  </g>
</svg>
