<svg id="subir" xmlns="http://www.w3.org/2000/svg" width="100" height="100" viewBox="0 0 100 100">
  <g id="Grupo_107086" data-name="Grupo 107086" transform="translate(1.465 1.465)">
    <path id="Trazado_162974" data-name="Trazado 162974" d="M124.761,185.92V129.937a6.471,6.471,0,0,0-6.471-6.471H47.105a6.471,6.471,0,0,0-6.471,6.471V185.92Z" transform="translate(-34.163 -100.816)" fill="#7f13ba"/>
    <path id="Trazado_162975" data-name="Trazado 162975" d="M419.726,123.466h-4.492a6.471,6.471,0,0,1,6.471,6.471V185.92H426.2V129.937A6.472,6.472,0,0,0,419.726,123.466Z" transform="translate(-335.598 -100.816)" fill="#083142"/>
    <path id="Trazado_162976" data-name="Trazado 162976" d="M73.765,211.607V158.219a1.618,1.618,0,0,1,1.618-1.618h67.95a1.618,1.618,0,0,1,1.618,1.618v53.388H73.765Z" transform="translate(-60.823 -127.48)" fill="#c0a4ee"/>
    <path id="Trazado_162977" data-name="Trazado 162977" d="M411.443,156.6H406.95a1.618,1.618,0,0,1,1.618,1.618v53.388h4.493V158.219A1.618,1.618,0,0,0,411.443,156.6Z" transform="translate(-328.932 -127.48)" fill="#a173ee"/>
    <path id="Trazado_162978" data-name="Trazado 162978" d="M98.32,451.176H13.75a6.25,6.25,0,0,1-6.25-6.25V439.8a1.563,1.563,0,0,1,1.563-1.562h93.945a1.563,1.563,0,0,1,1.563,1.563v5.13A6.25,6.25,0,0,1,98.32,451.176Z" transform="translate(-7.5 -354.105)" fill="#e9efff"/>
    <path id="Trazado_162979" data-name="Trazado 162979" d="M458.68,438.233h-4.492a1.563,1.563,0,0,1,1.563,1.563v5.13a6.25,6.25,0,0,1-6.25,6.25h4.492a6.25,6.25,0,0,0,6.25-6.25V439.8A1.563,1.563,0,0,0,458.68,438.233Z" transform="translate(-363.172 -354.105)" fill="#d3dcfb"/>
    <path id="Trazado_162980" data-name="Trazado 162980" d="M146.5,56.035h-3.236a3.236,3.236,0,0,1-3.236-3.236V10.736A3.236,3.236,0,0,1,143.269,7.5h32.357a3.236,3.236,0,0,1,3.236,3.236v3.286Z" transform="translate(-114.148 -7.5)" fill="#d2e1f1"/>
    <path id="Trazado_162982" data-name="Trazado 162982" d="M303.759,7.5h-4.492a3.236,3.236,0,0,1,3.236,3.236v9.119l4.492-5.833V10.736A3.236,3.236,0,0,0,303.759,7.5Z" transform="translate(-242.281 -7.5)" fill="#b0c0d2"/>
    <path id="Trazado_162983" data-name="Trazado 162983" d="M208.87,99.168H176.292a3.125,3.125,0,0,1-3.125-3.125V43.758a3.125,3.125,0,0,1,3.125-3.125H208.87A3.125,3.125,0,0,1,212,43.758V96.043A3.125,3.125,0,0,1,208.87,99.168Z" transform="translate(-140.81 -34.162)" fill="#f3f9ff"/>
    <path id="Trazado_162984" data-name="Trazado 162984" d="M250.813,80.238H241a1.563,1.563,0,0,1-1.562-1.563V75.329A1.563,1.563,0,0,1,241,73.767h9.818a1.563,1.563,0,0,1,1.563,1.563v3.346A1.563,1.563,0,0,1,250.813,80.238Z" transform="translate(-194.134 -60.824)" fill="#ffca54"/>
    <path id="Trazado_162985" data-name="Trazado 162985" d="M337.459,40.633h-4.492a3.125,3.125,0,0,1,3.125,3.125V96.043a3.125,3.125,0,0,1-3.125,3.125h4.492a3.125,3.125,0,0,0,3.125-3.125V43.758A3.125,3.125,0,0,0,337.459,40.633Z" transform="translate(-269.399 -34.162)" fill="#dee4f0"/>
    <path id="Trazado_162986" data-name="Trazado 162986" d="M279.192,73.767H274.7a1.563,1.563,0,0,1,1.563,1.563v3.346a1.563,1.563,0,0,1-1.562,1.563h4.492a1.563,1.563,0,0,0,1.563-1.563V75.329A1.562,1.562,0,0,0,279.192,73.767Z" transform="translate(-222.512 -60.824)" fill="#ffb476"/>
  </g>
  <g id="Grupo_107087" data-name="Grupo 107087" transform="translate(0 0)">
    <path id="Trazado_162988" data-name="Trazado 162988" d="M96.973,84.128H93.529V30.586a7.945,7.945,0,0,0-7.936-7.936H74.115V11.061a4.6,4.6,0,0,0-4.59-4.59H67.643V4.7a4.706,4.706,0,0,0-4.7-4.7H30.586a4.706,4.706,0,0,0-4.7,4.7V22.65H14.407a7.945,7.945,0,0,0-7.936,7.936V84.128H3.027A3.031,3.031,0,0,0,0,87.155v5.13A7.724,7.724,0,0,0,7.715,100H82.663a1.465,1.465,0,1,0,0-2.93H25.58V95.3a1.465,1.465,0,1,0-2.93,0V97.07H19.108V95.3a1.465,1.465,0,1,0-2.93,0V97.07H12.637V95.3a1.465,1.465,0,1,0-2.93,0V97.07H7.715A4.791,4.791,0,0,1,2.93,92.285v-5.13a.1.1,0,0,1,.1-.1h35.8v3.389a3.086,3.086,0,0,0,3.083,3.083H58.089a3.086,3.086,0,0,0,3.083-3.083V87.057h35.8a.1.1,0,0,1,.1.1v5.13a4.791,4.791,0,0,1-4.785,4.785H88.523a1.465,1.465,0,1,0,0,2.93h3.763A7.724,7.724,0,0,0,100,92.285v-5.13A3.031,3.031,0,0,0,96.973,84.128ZM85.593,25.579A5.012,5.012,0,0,1,90.6,30.586V84.128H87.058V32.2a3.086,3.086,0,0,0-3.083-3.083h-9.86V25.579ZM71.185,11.061V63.346a1.662,1.662,0,0,1-1.66,1.66H36.947a1.662,1.662,0,0,1-1.66-1.66V11.061a1.662,1.662,0,0,1,1.66-1.66H65.8a1.423,1.423,0,0,0,.752,0h2.97a1.662,1.662,0,0,1,1.66,1.66ZM30.586,2.93H62.943A1.773,1.773,0,0,1,64.714,4.7V6.471H36.947a4.6,4.6,0,0,0-4.59,4.59V48.535H30.586a1.773,1.773,0,0,1-1.771-1.771V4.7A1.773,1.773,0,0,1,30.586,2.93ZM9.4,30.586a5.012,5.012,0,0,1,5.006-5.006H25.885v3.542h-9.86A3.086,3.086,0,0,0,12.942,32.2V42.217a1.465,1.465,0,1,0,2.93,0V32.2a.153.153,0,0,1,.153-.153h9.86V46.764a4.706,4.706,0,0,0,4.7,4.7h1.771V63.346a4.6,4.6,0,0,0,4.59,4.59H69.525a4.6,4.6,0,0,0,4.59-4.59v-31.3h9.86a.153.153,0,0,1,.153.153V84.128H15.872V48.076a1.465,1.465,0,1,0-2.93,0V84.128H9.4Zm48.841,59.86a.153.153,0,0,1-.153.153H41.911a.153.153,0,0,1-.153-.153V87.057H58.242v3.389Z" transform="translate(0 0)"/>
    <path id="Trazado_162989" data-name="Trazado 162989" d="M234.96,75.668h9.818a3.031,3.031,0,0,0,3.027-3.027V69.294a3.031,3.031,0,0,0-3.027-3.027H234.96a3.031,3.031,0,0,0-3.027,3.027v3.346a3.031,3.031,0,0,0,3.027,3.027Zm-.1-6.374a.1.1,0,0,1,.1-.1h9.818a.1.1,0,0,1,.1.1v3.346a.1.1,0,0,1-.1.1H234.96a.1.1,0,0,1-.1-.1Z" transform="translate(-186.634 -53.324)"/>
    <path id="Trazado_162990" data-name="Trazado 162990" d="M226.15,132.533H200.265a1.465,1.465,0,0,0,0,2.93H226.15a1.465,1.465,0,1,0,0-2.93Z" transform="translate(-159.972 -104.648)"/>
    <path id="Trazado_162991" data-name="Trazado 162991" d="M226.15,165.667H200.265a1.465,1.465,0,1,0,0,2.93H226.15a1.465,1.465,0,1,0,0-2.93Z" transform="translate(-159.972 -131.31)"/>
    <path id="Trazado_162993" data-name="Trazado 162993" d="M226.15,165.667H200.265a1.465,1.465,0,1,0,0,2.93H226.15a1.465,1.465,0,1,0,0-2.93Z" transform="translate(-159.972 -116.369)"/>
    <path id="Trazado_162992" data-name="Trazado 162992" d="M236.246,198.8H216.832a1.465,1.465,0,0,0,0,2.93h19.414a1.465,1.465,0,0,0,0-2.93Z" transform="translate(-173.303 -157.972)"/>
    <path id="Trazado_162994" data-name="Trazado 162994" d="M236.246,198.8H216.832a1.465,1.465,0,0,0,0,2.93h19.414a1.465,1.465,0,0,0,0-2.93Z" transform="translate(-173.303 -143.03)"/>
  </g>
</svg>
