<svg xmlns="http://www.w3.org/2000/svg" width="135" height="135" viewBox="0 0 135 135">
  <g id="Grupo_110674" data-name="Grupo 110674" transform="translate(-313 -875)">
    <circle id="Elipse_5032" data-name="Elipse 5032" cx="67.5" cy="67.5" r="67.5" transform="translate(313 875)" fill="#ffb476"/>
    <g id="lento" transform="translate(330 894.986)">
      <g id="Grupo_107179" data-name="Grupo 107179" transform="translate(1.96 1.967)">
        <path id="Trazado_163018" data-name="Trazado 163018" d="M28.283,273.522a34.672,34.672,0,0,1-4.653-17.377H9.965a48.267,48.267,0,0,0,6.483,24.179,6.825,6.825,0,1,0,11.834-6.8Zm0,0" transform="translate(-9.965 -207.735)" fill="#cfe7ff" fill-rule="evenodd"/>
        <path id="Trazado_163019" data-name="Trazado 163019" d="M409.84,256.145a34.672,34.672,0,0,1-4.653,17.377,6.825,6.825,0,1,0,11.834,6.8,48.264,48.264,0,0,0,6.483-24.179Zm0,0" transform="translate(-326.726 -207.734)" fill="#ff8b06" fill-rule="evenodd"/>
        <path id="Trazado_163020" data-name="Trazado 163020" d="M23.928,152.749a34.565,34.565,0,0,1,4.363-12.816l-11.857-6.846a48.627,48.627,0,0,0-6.469,24.2H23.629a34.888,34.888,0,0,1,.3-4.54Zm0,0" transform="translate(-9.965 -108.879)" fill="#f3f9ff" fill-rule="evenodd"/>
        <path id="Trazado_163021" data-name="Trazado 163021" d="M42.852,60.661,54.71,67.507A35,35,0,0,1,67.418,54.8L60.562,42.93a48.533,48.533,0,0,0-17.71,17.732Zm0,0" transform="translate(-36.383 -36.454)" fill="#ffefcc" fill-rule="evenodd"/>
        <path id="Trazado_163022" data-name="Trazado 163022" d="M132.9,16.48l6.856,11.874a34.662,34.662,0,0,1,17.355-4.641V10A48.354,48.354,0,0,0,132.9,16.48Zm0,0" transform="translate(-108.72 -10.004)" fill="#ffe19e" fill-rule="evenodd"/>
        <path id="Trazado_163023" data-name="Trazado 163023" d="M256,10V23.713a34.83,34.83,0,0,1,8.582,1.073l.8.213a34.466,34.466,0,0,1,7.973,3.356l6.856-11.874A48.353,48.353,0,0,0,256,10Zm0,0" transform="translate(-207.61 -10.004)" fill="#ffc94f" fill-rule="evenodd"/>
        <path id="Trazado_163024" data-name="Trazado 163024" d="M351.1,42.93,344.243,54.8a35.013,35.013,0,0,1,12.708,12.7l11.857-6.846A48.524,48.524,0,0,0,351.1,42.93Zm0,0" transform="translate(-278.498 -36.454)" fill="#ffb476" fill-rule="evenodd"/>
        <path id="Trazado_163025" data-name="Trazado 163025" d="M420.713,133.086l-11.858,6.846a34.643,34.643,0,0,1,4.662,17.357h13.664a48.636,48.636,0,0,0-6.468-24.2Zm0,0" transform="translate(-330.403 -108.879)" fill="#ffa200" fill-rule="evenodd"/>
        <path id="Trazado_163026" data-name="Trazado 163026" d="M103.767,211.349l-9.553-1.561-28.967-4.733L92.7,215.44l9.051,3.424a3.891,3.891,0,1,0,2.014-7.516Zm0,0" transform="translate(-54.374 -166.693)" fill="gray" fill-rule="evenodd"/>
        <path id="Trazado_163027" data-name="Trazado 163027" d="M206.355,209.737l9.553,1.561a3.891,3.891,0,0,1-2.014,7.516l-9.051-3.424a10.021,10.021,0,1,0,1.511-5.653Zm0,0" transform="translate(-166.515 -166.642)" fill="#e6e6e6" fill-rule="evenodd"/>
      </g>
      <path id="Trazado_163029" data-name="Trazado 163029" d="M73.919,75.949a1.96,1.96,0,0,0,1.391-.576l.02-.019a1.967,1.967,0,0,0-2.782-2.783l-.015.015,1.387,1.4-1.391-1.391a1.968,1.968,0,0,0,1.391,3.358Zm0,0" transform="translate(-57.801 -57.836)"/>
      <path id="Trazado_163030" data-name="Trazado 163030" d="M100.274,43.814a50.648,50.648,0,0,0-14.3-29.057,50.393,50.393,0,0,0-64.739-5.5,1.967,1.967,0,0,0,2.277,3.208q.951-.676,1.931-1.3l4.892,8.474A36.818,36.818,0,0,0,19.625,30.368l-8.473-4.892a46.19,46.19,0,0,1,2.873-4.038,1.967,1.967,0,0,0-3.077-2.452,50.407,50.407,0,0,0-4.21,56.55,8.792,8.792,0,1,0,15.244-8.764,32.521,32.521,0,0,1-4.109-20.678c.073-.556.162-1.108.262-1.656L38.444,52.12a12.027,12.027,0,1,0,3.394-10.247,12.216,12.216,0,0,0-.933,1.05l-21.432-3.5A32.763,32.763,0,1,1,78.715,66.776,8.792,8.792,0,0,0,93.958,75.54a50.583,50.583,0,0,0,6.316-31.726Zm-49.928-1.53a8.1,8.1,0,1,1-7.314,11.572l5.611,2.123a5.116,5.116,0,0,0,1.816.333,5.41,5.41,0,0,0,2.474-.612,6.026,6.026,0,0,0,2.312-8.631,5.24,5.24,0,0,0-3.576-2.387l-5.92-.967a8.04,8.04,0,0,1,4.6-1.431ZM41.483,47l.014,0,9.54,1.558a1.359,1.359,0,0,1,.905.638,2.093,2.093,0,0,1-.8,3,1.356,1.356,0,0,1-1.1.1l-9.041-3.42-.005,0L31.9,45.438ZM18.573,68.736a4.858,4.858,0,1,1-8.426,4.838A46,46,0,0,1,3.96,52.346h9.758a36.9,36.9,0,0,0,4.855,16.39ZM12.136,42.17l2.269.858c-.174.844-.32,1.7-.433,2.553q-.186,1.411-.258,2.83H3.967q.09-2.036.357-4.084A46.62,46.62,0,0,1,9.189,28.886l8.468,4.888a36.923,36.923,0,0,0-2.1,5.007l-2.4-.393a1.967,1.967,0,0,0-1.013,3.781Zm40.18-28.407V3.979A46.131,46.131,0,0,1,71.857,9.193L66.962,17.67A36.407,36.407,0,0,0,52.316,13.763ZM28.843,9.2A46.069,46.069,0,0,1,48.382,3.977v9.786A36.418,36.418,0,0,0,33.736,17.67ZM70.366,19.643l4.9-8.479a46.94,46.94,0,0,1,14.3,14.305l-8.485,4.9A36.808,36.808,0,0,0,70.366,19.643ZM83.042,33.774l8.484-4.9a46.439,46.439,0,0,1,4.848,15.451q.27,2.046.357,4.084H86.984q-.074-1.417-.258-2.83a36.546,36.546,0,0,0-3.684-11.807Zm7.508,39.8a4.858,4.858,0,0,1-8.426-4.838,36.913,36.913,0,0,0,4.857-16.394h9.758A46,46,0,0,1,90.55,73.577Zm0,0" transform="translate(0 -0.001)"/>
      <path id="Trazado_163032" data-name="Trazado 163032" d="M100.143,246.141a1.967,1.967,0,0,0,0,3.934h.046a1.967,1.967,0,1,0,0-3.934Zm0,0" transform="translate(-78.867 -197.731)"/>
      <path id="Trazado_163033" data-name="Trazado 163033" d="M173.085,118.394a1.967,1.967,0,0,0-.722,2.686l.023.041a1.967,1.967,0,1,0,3.409-1.964l-.023-.04a1.967,1.967,0,0,0-2.687-.722Zm0,0" transform="translate(-138.252 -94.897)"/>
      <path id="Trazado_163034" data-name="Trazado 163034" d="M322.779,118.408a1.966,1.966,0,0,0-2.686.722l-.023.041a1.967,1.967,0,1,0,3.408,1.964l.024-.041A1.967,1.967,0,0,0,322.779,118.408Zm0,0" transform="translate(-256.908 -94.909)"/>
      <path id="Trazado_163035" data-name="Trazado 163035" d="M395.553,250.11h.047a1.967,1.967,0,0,0,0-3.934h-.047a1.967,1.967,0,0,0,0,3.934Zm0,0" transform="translate(-316.177 -197.759)"/>
    </g>
  </g>
</svg>
