<svg xmlns="http://www.w3.org/2000/svg" xmlns:xlink="http://www.w3.org/1999/xlink" width="1240" height="280" viewBox="0 0 1240 280">
  <defs>
    <clipPath id="clip-path">
      <path id="path499" d="M0-682.665H55.4v55.4H0Z" transform="translate(0 682.665)" fill="#083142"/>
    </clipPath>
  </defs>
  <g id="Grupo_157984" data-name="Grupo 157984" transform="translate(-180 -509)">
    <rect id="Rectángulo_45108" data-name="Rectángulo 45108" width="1240" height="280" transform="translate(180 509)" fill="#ffe5cf"/>
    <g id="Grupo_157975" data-name="Grupo 157975" transform="translate(-46 10)">
      <circle id="Elipse_5541" data-name="Elipse 5541" cx="65" cy="65" r="65" transform="translate(285 539)" fill="#083142"/>
      <circle id="Elipse_5553" data-name="Elipse 5553" cx="56" cy="56" r="56" transform="translate(294 548)" fill="#fff"/>
      <g id="rfid" transform="translate(319 573)">
        <path id="Trazado_600955" data-name="Trazado 600955" d="M279,303.828v14.627a1.828,1.828,0,1,0,3.657,0V303.828a1.828,1.828,0,1,0-3.657,0Z" transform="translate(-244.992 -265.188)" fill="#083142"/>
        <path id="Trazado_600956" data-name="Trazado 600956" d="M190.438,305.657a1.828,1.828,0,1,0,0-3.657h-5.929a1.828,1.828,0,0,0-1.828,1.828v14.627a1.828,1.828,0,1,0,3.657,0v-5.624h3.629a1.828,1.828,0,0,0,0-3.657h-3.629v-3.518Z" transform="translate(-160.413 -265.188)" fill="#083142"/>
        <path id="Trazado_600957" data-name="Trazado 600957" d="M337.526,302h-4.143a1.828,1.828,0,0,0-1.828,1.832s.011,5.626.011,7.294c0,2.012.019,7.283.019,7.336a1.828,1.828,0,0,0,1.828,1.822h.007c.125,0,3.079-.012,4.259-.033a7.148,7.148,0,0,0,5.643-2.869,10.277,10.277,0,0,0,1.939-6.241C345.261,305.674,342.153,302,337.526,302Zm.089,14.6c-.547.009-1.512.017-2.38.023-.005-1.731-.013-4.243-.013-5.492,0-1.051,0-3.671-.007-5.469h2.311c3.007,0,4.078,2.833,4.078,5.485C341.6,313.822,340.371,316.547,337.615,316.6Z" transform="translate(-291.141 -265.188)" fill="#083142"/>
        <path id="Trazado_600958" data-name="Trazado 600958" d="M79.565,307.63A5.747,5.747,0,0,0,73.72,302H69.828A1.828,1.828,0,0,0,68,303.828v14.627a1.828,1.828,0,1,0,3.657,0v-4.14l4.707,5.348a1.828,1.828,0,1,0,2.745-2.416l-3.717-4.224A5.672,5.672,0,0,0,79.565,307.63ZM73.72,309.6c-.476,0-1.285,0-2.042.007,0-.738-.007-1.523-.007-1.98,0-.392,0-1.2,0-1.973H73.72a1.984,1.984,0,1,1,0,3.946Z" transform="translate(-59.711 -265.188)" fill="#083142"/>
        <path id="Trazado_600959" data-name="Trazado 600959" d="M60.581,32.911a1.828,1.828,0,0,0-1.828,1.828V55.705a3.051,3.051,0,0,1-3.047,3.047H6.7a3.051,3.051,0,0,1-3.047-3.047V6.7A3.051,3.051,0,0,1,6.7,3.657H27.548a1.828,1.828,0,0,0,0-3.657H6.7A6.712,6.712,0,0,0,0,6.7v49a6.712,6.712,0,0,0,6.7,6.7h49a6.712,6.712,0,0,0,6.7-6.7V34.74A1.828,1.828,0,0,0,60.581,32.911Z" fill="#083142"/>
        <ellipse id="Elipse_5617" data-name="Elipse 5617" cx="5.43" cy="5.536" rx="5.43" ry="5.536" transform="translate(29.598 21.932)" fill="#083142"/>
        <path id="Trazado_600960" data-name="Trazado 600960" d="M273.828,123.657a9.152,9.152,0,0,1,9.142,9.142,1.828,1.828,0,0,0,3.657,0,12.813,12.813,0,0,0-12.8-12.8,1.828,1.828,0,1,0,0,3.657Z" transform="translate(-238.845 -105.373)" fill="#083142"/>
        <path id="Trazado_600961" data-name="Trazado 600961" d="M273.828,63.657a16.474,16.474,0,0,1,16.456,16.456,1.828,1.828,0,1,0,3.657,0A20.135,20.135,0,0,0,273.828,60a1.828,1.828,0,1,0,0,3.657Z" transform="translate(-238.845 -52.686)" fill="#083142"/>
        <path id="Trazado_600962" data-name="Trazado 600962" d="M273.828,3.657A23.8,23.8,0,0,1,297.6,27.426a1.828,1.828,0,0,0,3.657,0A27.426,27.426,0,0,0,273.828,0a1.828,1.828,0,1,0,0,3.657Z" transform="translate(-238.845)" fill="#083142"/>
      </g>
    </g>
    <g id="Grupo_157976" data-name="Grupo 157976" transform="translate(202 10)">
      <circle id="Elipse_5541-2" data-name="Elipse 5541" cx="65" cy="65" r="65" transform="translate(285 539)" fill="#083142"/>
      <circle id="Elipse_5553-2" data-name="Elipse 5553" cx="56" cy="56" r="56" transform="translate(294 548)" fill="#fff"/>
      <path id="sensors" d="M45.286,50.895H28.753a5.614,5.614,0,0,1-5.609-5.609V28.753a5.614,5.614,0,0,1,5.609-5.609H45.286a5.614,5.614,0,0,1,5.609,5.609V45.286A5.614,5.614,0,0,1,45.286,50.895ZM28.753,24.915a3.845,3.845,0,0,0-3.838,3.838V45.286a3.845,3.845,0,0,0,3.838,3.838H45.286a3.845,3.845,0,0,0,3.838-3.838V28.753a3.845,3.845,0,0,0-3.838-3.838ZM45.286,46.171H28.753a.892.892,0,0,1-.886-.886V28.753a.892.892,0,0,1,.886-.886H45.286a.892.892,0,0,1,.886.886V45.286A.892.892,0,0,1,45.286,46.171ZM29.639,44.4H44.4V29.639H29.639Zm7.38-2.952a4.428,4.428,0,1,1,4.428-4.428A4.43,4.43,0,0,1,37.019,41.448Zm0-7.085a2.657,2.657,0,1,0,2.657,2.657A2.661,2.661,0,0,0,37.019,34.363ZM50.163,10.957a.891.891,0,0,0,0-1.252,18.559,18.559,0,0,0-26.286,0,.885.885,0,1,0,1.252,1.252,16.792,16.792,0,0,1,23.783,0,.884.884,0,0,0,1.252,0Zm-3.33,3.33a.891.891,0,0,0,0-1.252,13.884,13.884,0,0,0-19.626,0,.885.885,0,0,0,1.252,1.252,12.116,12.116,0,0,1,17.123,0,.884.884,0,0,0,1.252,0ZM31.8,17.629a7.384,7.384,0,0,1,10.439,0,.885.885,0,1,0,1.252-1.252,9.151,9.151,0,0,0-12.942,0,.891.891,0,0,0,0,1.252.884.884,0,0,0,1.252,0Zm18.363,46.7a.885.885,0,0,0-1.252-1.252,16.792,16.792,0,0,1-23.783,0,.885.885,0,0,0-1.252,1.252,18.559,18.559,0,0,0,26.286,0ZM46.833,61a.885.885,0,1,0-1.252-1.252,12.116,12.116,0,0,1-17.123,0A.885.885,0,0,0,27.206,61a13.884,13.884,0,0,0,19.626,0Zm-3.342-3.342a.885.885,0,0,0-1.252-1.252,7.384,7.384,0,0,1-10.439,0,.885.885,0,0,0-1.252,1.252,9.151,9.151,0,0,0,12.942,0Zm20.843-7.5a18.56,18.56,0,0,0,0-26.286.885.885,0,1,0-1.252,1.252,16.792,16.792,0,0,1,0,23.783.891.891,0,0,0,0,1.252.884.884,0,0,0,1.252,0ZM61,46.833a13.884,13.884,0,0,0,0-19.626.885.885,0,0,0-1.252,1.252,12.116,12.116,0,0,1,0,17.123.891.891,0,0,0,0,1.252.884.884,0,0,0,1.252,0Zm-3.342-3.342a9.151,9.151,0,0,0,0-12.942A.885.885,0,1,0,56.409,31.8a7.384,7.384,0,0,1,0,10.439.891.891,0,0,0,0,1.252.884.884,0,0,0,1.252,0Zm-46.7,6.672a.891.891,0,0,0,0-1.252,16.792,16.792,0,0,1,0-23.783.885.885,0,0,0-1.252-1.252,18.56,18.56,0,0,0,0,26.286.884.884,0,0,0,1.252,0Zm3.33-3.33a.891.891,0,0,0,0-1.252,12.116,12.116,0,0,1,0-17.123.885.885,0,0,0-1.252-1.252,13.884,13.884,0,0,0,0,19.626.884.884,0,0,0,1.252,0Zm3.342-3.342a.891.891,0,0,0,0-1.252,7.384,7.384,0,0,1,0-10.439.885.885,0,0,0-1.252-1.252,9.151,9.151,0,0,0,0,12.942.884.884,0,0,0,1.252,0Z" transform="translate(313.25 567.25)" fill="#083142" stroke="#083142" stroke-width="1"/>
    </g>
    <g id="Grupo_157977" data-name="Grupo 157977" transform="translate(450 10)">
      <circle id="Elipse_5541-3" data-name="Elipse 5541" cx="65" cy="65" r="65" transform="translate(285 539)" fill="#083142"/>
      <circle id="Elipse_5553-3" data-name="Elipse 5553" cx="56" cy="56" r="56" transform="translate(294 548)" fill="#fff"/>
      <g id="Grupo_157978" data-name="Grupo 157978" transform="translate(322 576)">
        <g id="Grupo_157971" data-name="Grupo 157971" transform="translate(15.275 4.815)">
          <ellipse id="Elipse_5618" data-name="Elipse 5618" cx="1.72" cy="1.72" rx="1.72" ry="1.72" transform="translate(13.617 43.338)" fill="#083142"/>
          <ellipse id="Elipse_5619" data-name="Elipse 5619" cx="1.72" cy="1.72" rx="1.72" ry="1.72" transform="translate(8.802 0)" fill="#083142"/>
          <path id="Trazado_600974" data-name="Trazado 600974" d="M208.6,217.337a1.722,1.722,0,0,0,0-3.443,5.165,5.165,0,0,1-5.165-5.165V181.895l13.416,13.418a1.723,1.723,0,0,0,2.436-2.436l-16.356-16.356a1.734,1.734,0,0,0-2.94,1.218v30.99A8.619,8.619,0,0,0,208.6,217.337Z" transform="translate(-199.996 -170.603)" fill="#083142"/>
          <path id="Trazado_600975" data-name="Trazado 600975" d="M239.187,152a1.722,1.722,0,0,0,0,3.443,5.165,5.165,0,0,1,5.165,5.165v26.834l-13.416-13.418a1.723,1.723,0,0,0-2.436,2.436l16.356,16.356a1.733,1.733,0,0,0,2.94-1.218v-30.99A8.619,8.619,0,0,0,239.187,152Z" transform="translate(-221.97 -151.75)" fill="#083142"/>
        </g>
        <g id="Rectángulo_45230" data-name="Rectángulo 45230" transform="translate(0 0)" fill="none" stroke="#083142" stroke-linecap="round" stroke-linejoin="round" stroke-width="4">
          <rect width="56.408" height="56.408" rx="15" stroke="none"/>
          <rect x="-2" y="-2" width="60.408" height="60.408" rx="17" fill="none"/>
        </g>
      </g>
    </g>
    <g id="Grupo_157979" data-name="Grupo 157979" transform="translate(698 10)">
      <circle id="Elipse_5541-4" data-name="Elipse 5541" cx="65" cy="65" r="65" transform="translate(285 539)" fill="#083142"/>
      <circle id="Elipse_5553-4" data-name="Elipse 5553" cx="56" cy="56" r="56" transform="translate(294 548)" fill="#fff"/>
      <g id="wifi" transform="translate(312.237 586)">
        <g id="Grupo_157973" data-name="Grupo 157973" transform="translate(0 0)">
          <g id="Grupo_157972" data-name="Grupo 157972">
            <path id="Trazado_600976" data-name="Trazado 600976" d="M64.915,139.636H14.426A14.426,14.426,0,0,0,0,154.062v7.213A14.426,14.426,0,0,0,14.426,175.7h50.49a14.426,14.426,0,0,0,14.426-14.426v-7.213A14.426,14.426,0,0,0,64.915,139.636ZM31.1,149.843a1.575,1.575,0,0,1,.167,0,1.641,1.641,0,0,1,0,3.282,1.569,1.569,0,0,1-1.64-1.494c0-.043,0-.086,0-.129A1.569,1.569,0,0,1,31.1,149.843Zm1.754,4.561v10.477H29.681V154.4h3.174Zm-8.583,10.477H20.845l-1.19-6.221c-.27-1.461-.5-2.813-.667-4.454-.252,1.623-.487,2.993-.811,4.454l-1.37,6.221h-3.48l-3.318-14.426H13.4l1.028,5.933c.307,1.8.6,3.606.83,5.031.234-1.569.559-3.3.92-5.085l1.244-5.879h3.372l1.118,6.095c.307,1.695.541,3.228.739,4.851.216-1.6.523-3.3.811-5.013l1.208-5.933H27.9Zm51.463-3.606a10.819,10.819,0,0,1-10.819,10.819H28.851A10.819,10.819,0,0,0,39.67,161.275v-7.213A10.819,10.819,0,0,1,50.49,143.243H64.915a10.819,10.819,0,0,1,10.819,10.819Z" transform="translate(0 -139.636)" fill="#083142"/>
            <rect id="Rectángulo_45231" data-name="Rectángulo 45231" width="3.156" height="10.477" transform="translate(61.435 14.768)" fill="#083142"/>
            <path id="Trazado_600977" data-name="Trazado 600977" d="M397.844,205.566a1.639,1.639,0,0,0-.341,0,1.635,1.635,0,0,0-.131,3.265c.043,0,.086,0,.129,0a1.641,1.641,0,1,0,.344-3.264Z" transform="translate(-334.515 -195.342)" fill="#083142"/>
            <path id="Trazado_600978" data-name="Trazado 600978" d="M316.16,223.88h3.174v-5.824h5.013v-2.651h-5.031v-3.282h5.41v-2.669H316.16Z" transform="translate(-267.167 -198.636)" fill="#083142"/>
          </g>
        </g>
      </g>
    </g>
    <g id="Grupo_157980" data-name="Grupo 157980" transform="translate(946 10)">
      <circle id="Elipse_5541-5" data-name="Elipse 5541" cx="65" cy="65" r="65" transform="translate(285 539)" fill="#083142"/>
      <circle id="Elipse_5553-5" data-name="Elipse 5553" cx="56" cy="56" r="56" transform="translate(294 548)" fill="#fff"/>
      <g id="g477" transform="translate(322.301 576.301)">
        <g id="g479" transform="translate(13.936 27.699)">
          <path id="path481" d="M-81.259-73.889l-7.176-6.526v13.051Z" transform="translate(88.436 80.414)" fill="none" stroke="#083142" stroke-linecap="round" stroke-linejoin="round" stroke-miterlimit="10" stroke-width="4"/>
        </g>
        <g id="g483" transform="translate(13.936 14.648)">
          <path id="path485" d="M-81.259-73.889l-7.176-6.526v13.051Z" transform="translate(88.436 80.414)" fill="none" stroke="#083142" stroke-linecap="round" stroke-linejoin="round" stroke-miterlimit="10" stroke-width="4"/>
        </g>
        <g id="g487" transform="translate(8.208 27.699)">
          <path id="path489" d="M-64.856,0l-5.728,5.825" transform="translate(70.584)" fill="none" stroke="#083142" stroke-linecap="round" stroke-linejoin="round" stroke-miterlimit="10" stroke-width="4"/>
        </g>
        <g id="g491" transform="translate(8.208 21.874)">
          <path id="path493" d="M-64.856-65.955l-5.728-5.825" transform="translate(70.584 71.78)" fill="none" stroke="#083142" stroke-linecap="round" stroke-linejoin="round" stroke-miterlimit="10" stroke-width="4"/>
        </g>
        <g id="g495" transform="translate(0 0)">
          <g id="g497" transform="translate(0 0)" clip-path="url(#clip-path)">
            <g id="g503" transform="translate(1.623 6.581)">
              <path id="path505" d="M-144.561-478.234h0A12.767,12.767,0,0,1-157.328-491v-16.7a12.767,12.767,0,0,1,12.767-12.767A12.767,12.767,0,0,1-131.794-507.7V-491A12.767,12.767,0,0,1-144.561-478.234Z" transform="translate(157.328 520.469)" fill="none" stroke="#083142" stroke-linecap="round" stroke-linejoin="round" stroke-miterlimit="10" stroke-width="4"/>
            </g>
            <g id="g507" transform="translate(43.722 6.687)">
              <path id="path509" d="M0-475.825a27.08,27.08,0,0,0,10.053-21.06A27.079,27.079,0,0,0,.12-517.848" transform="translate(0 517.848)" fill="none" stroke="#083142" stroke-linecap="round" stroke-linejoin="round" stroke-miterlimit="10" stroke-width="4"/>
            </g>
            <g id="g511" transform="translate(38.69 12.868)">
              <path id="path513" d="M0-335.545A19.1,19.1,0,0,0,7.089-350.4a19.1,19.1,0,0,0-7-14.783" transform="translate(0 365.179)" fill="none" stroke="#083142" stroke-linecap="round" stroke-linejoin="round" stroke-miterlimit="10" stroke-width="4"/>
            </g>
            <g id="g515" transform="translate(33.661 19.044)">
              <path id="path517" d="M0-195.355A11.108,11.108,0,0,0,4.122-204a11.107,11.107,0,0,0-4.073-8.607" transform="translate(0 212.607)" fill="none" stroke="#083142" stroke-linecap="round" stroke-linejoin="round" stroke-miterlimit="10" stroke-width="4"/>
            </g>
          </g>
        </g>
      </g>
    </g>
    <path id="Trazado_601079" data-name="Trazado 601079" d="M61.7,17H58.8l-1.742-2.883q-.2-.328-.375-.586a3.255,3.255,0,0,0-.363-.441,1.445,1.445,0,0,0-.383-.281.972.972,0,0,0-.434-.1h-.68V17H52.3V5.8h4q4.078,0,4.078,3.047a3.155,3.155,0,0,1-.18,1.082,3.006,3.006,0,0,1-.508.895,3.219,3.219,0,0,1-.793.688,4.089,4.089,0,0,1-1.035.453v.031a1.606,1.606,0,0,1,.484.254,3.468,3.468,0,0,1,.453.41,5.723,5.723,0,0,1,.418.5q.2.27.363.527ZM54.82,7.688V10.8h1.094a1.813,1.813,0,0,0,1.3-.469,1.564,1.564,0,0,0,.5-1.18q0-1.469-1.758-1.469Zm14.4.164H65.266V10.6H68.9v2.047H65.266V17H62.742V5.8h6.477ZM73.586,17H71.063V5.8h2.523Zm2.547,0V5.8H80.1q5.969,0,5.969,5.461a5.522,5.522,0,0,1-1.629,4.18A6.007,6.007,0,0,1,80.1,17Zm2.523-9.148v7.1h1.25a3.378,3.378,0,0,0,2.574-.984,3.735,3.735,0,0,0,.934-2.68,3.388,3.388,0,0,0-.926-2.52,3.529,3.529,0,0,0-2.6-.918Zm10.133,3.625a1.449,1.449,0,0,1-1.016-.371,1.194,1.194,0,0,1-.406-.918,1.161,1.161,0,0,1,.418-.922,1.543,1.543,0,0,1,1.043-.359,1.486,1.486,0,0,1,1.035.363,1.254,1.254,0,0,1-.008,1.848A1.559,1.559,0,0,1,88.789,11.477Zm0,5.719a1.44,1.44,0,0,1-1.016-.375,1.206,1.206,0,0,1-.406-.922,1.161,1.161,0,0,1,.418-.922,1.543,1.543,0,0,1,1.043-.359,1.486,1.486,0,0,1,1.035.363,1.258,1.258,0,0,1-.008,1.852A1.549,1.549,0,0,1,88.789,17.2ZM21.73,41H20.168l-1.875-3.141a6.84,6.84,0,0,0-.5-.746,2.85,2.85,0,0,0-.5-.5,1.718,1.718,0,0,0-.547-.285,2.249,2.249,0,0,0-.66-.09H15.012V41H13.7V29.8h3.344a4.765,4.765,0,0,1,1.355.184,3.033,3.033,0,0,1,1.078.559,2.6,2.6,0,0,1,.715.934,3.1,3.1,0,0,1,.258,1.309,3.151,3.151,0,0,1-.176,1.074,2.805,2.805,0,0,1-.5.871,3.031,3.031,0,0,1-.781.652,3.988,3.988,0,0,1-1.027.418v.031a2.363,2.363,0,0,1,.488.285,2.687,2.687,0,0,1,.395.379,5.019,5.019,0,0,1,.371.5q.184.277.41.645ZM15.012,30.984v4.063h1.781a2.7,2.7,0,0,0,.91-.148,2.107,2.107,0,0,0,.723-.426,1.931,1.931,0,0,0,.477-.68,2.275,2.275,0,0,0,.172-.9,1.756,1.756,0,0,0-.582-1.4,2.5,2.5,0,0,0-1.684-.5ZM28.824,41H27.543V39.75h-.031a2.682,2.682,0,0,1-2.461,1.438,2.63,2.63,0,0,1-1.871-.633,2.192,2.192,0,0,1-.676-1.68q0-2.242,2.641-2.609l2.4-.336q0-2.039-1.648-2.039a3.938,3.938,0,0,0-2.609.984V33.563A4.958,4.958,0,0,1,26,32.813q2.82,0,2.82,2.984Zm-1.281-4.047-1.93.266a3.133,3.133,0,0,0-1.344.441,1.273,1.273,0,0,0-.453,1.121,1.221,1.221,0,0,0,.418.957,1.615,1.615,0,0,0,1.113.371,2.056,2.056,0,0,0,1.574-.668,2.387,2.387,0,0,0,.621-1.691ZM38.066,41H36.785V39.641h-.031A2.958,2.958,0,0,1,34,41.188a2.988,2.988,0,0,1-2.41-1.074,4.407,4.407,0,0,1-.9-2.926,4.794,4.794,0,0,1,1-3.18,3.3,3.3,0,0,1,2.664-1.2,2.564,2.564,0,0,1,2.4,1.3h.031V29.156h1.281Zm-1.281-3.617V36.2a2.289,2.289,0,0,0-.641-1.641,2.149,2.149,0,0,0-1.625-.672,2.212,2.212,0,0,0-1.844.859A3.766,3.766,0,0,0,32,37.125a3.387,3.387,0,0,0,.645,2.184,2.107,2.107,0,0,0,1.73.8,2.188,2.188,0,0,0,1.738-.773A2.882,2.882,0,0,0,36.785,37.383Zm4.531-6.414a.812.812,0,0,1-.586-.234.791.791,0,0,1-.242-.594.821.821,0,0,1,.828-.836.827.827,0,0,1,.6.238.835.835,0,0,1,0,1.184A.82.82,0,0,1,41.316,30.969ZM41.941,41H40.66V33h1.281Zm5.938.188a3.711,3.711,0,0,1-2.832-1.121,4.153,4.153,0,0,1-1.059-2.973,4.326,4.326,0,0,1,1.1-3.148,3.96,3.96,0,0,1,2.977-1.133,3.588,3.588,0,0,1,2.793,1.1,4.368,4.368,0,0,1,1,3.055,4.3,4.3,0,0,1-1.082,3.066A3.791,3.791,0,0,1,47.879,41.188Zm.094-7.3a2.437,2.437,0,0,0-1.953.84,3.449,3.449,0,0,0-.719,2.316,3.262,3.262,0,0,0,.727,2.242,2.469,2.469,0,0,0,1.945.82,2.342,2.342,0,0,0,1.91-.8,3.492,3.492,0,0,0,.668-2.289,3.552,3.552,0,0,0-.668-2.312A2.332,2.332,0,0,0,47.973,33.891Zm16.18-2.906H59.777v3.875h4.047v1.18H59.777V41H58.465V29.8h5.688ZM70.277,34.3a1.567,1.567,0,0,0-.969-.258,1.635,1.635,0,0,0-1.371.773,3.576,3.576,0,0,0-.551,2.109V41H66.105V33h1.281v1.648h.031a2.793,2.793,0,0,1,.836-1.316,1.906,1.906,0,0,1,1.258-.473,2.092,2.092,0,0,1,.766.109ZM78.1,37.32H72.449a2.992,2.992,0,0,0,.719,2.063,2.478,2.478,0,0,0,1.891.727,3.931,3.931,0,0,0,2.484-.891v1.2a4.643,4.643,0,0,1-2.789.766A3.381,3.381,0,0,1,72.09,40.1a4.461,4.461,0,0,1-.969-3.066,4.375,4.375,0,0,1,1.059-3.043,3.394,3.394,0,0,1,2.629-1.176,3.008,3.008,0,0,1,2.43,1.016,4.234,4.234,0,0,1,.859,2.82Zm-1.312-1.086a2.607,2.607,0,0,0-.535-1.727,1.823,1.823,0,0,0-1.465-.617,2.07,2.07,0,0,0-1.539.648,2.943,2.943,0,0,0-.781,1.7ZM86.863,44.68H85.582V39.625h-.031a2.867,2.867,0,0,1-2.734,1.563A3.011,3.011,0,0,1,80.4,40.113a4.381,4.381,0,0,1-.91-2.926,4.791,4.791,0,0,1,1-3.184,3.328,3.328,0,0,1,2.688-1.191,2.523,2.523,0,0,1,2.375,1.3h.031V33h1.281ZM85.582,37.4V36.234a2.328,2.328,0,0,0-.645-1.664,2.158,2.158,0,0,0-1.637-.68,2.2,2.2,0,0,0-1.828.855,3.819,3.819,0,0,0-.672,2.41,3.308,3.308,0,0,0,.648,2.168,2.069,2.069,0,0,0,1.672.785,2.254,2.254,0,0,0,1.793-.77A2.855,2.855,0,0,0,85.582,37.4ZM95.926,41H94.645V39.734h-.031a2.631,2.631,0,0,1-2.469,1.453q-2.859,0-2.859-3.406V33h1.273v4.578q0,2.531,1.938,2.531a1.96,1.96,0,0,0,1.543-.691,2.645,2.645,0,0,0,.605-1.809V33h1.281Zm9.016-3.68H99.293a2.992,2.992,0,0,0,.719,2.063,2.478,2.478,0,0,0,1.891.727,3.931,3.931,0,0,0,2.484-.891v1.2a4.643,4.643,0,0,1-2.789.766,3.381,3.381,0,0,1-2.664-1.09,4.461,4.461,0,0,1-.969-3.066,4.375,4.375,0,0,1,1.059-3.043,3.394,3.394,0,0,1,2.629-1.176,3.008,3.008,0,0,1,2.43,1.016,4.234,4.234,0,0,1,.859,2.82Zm-1.312-1.086a2.607,2.607,0,0,0-.535-1.727,1.823,1.823,0,0,0-1.465-.617,2.07,2.07,0,0,0-1.539.648,2.943,2.943,0,0,0-.781,1.7ZM113.52,41h-1.281V36.438q0-2.547-1.859-2.547a2.017,2.017,0,0,0-1.59.723,2.679,2.679,0,0,0-.629,1.824V41h-1.281V33h1.281v1.328h.031a2.887,2.887,0,0,1,2.625-1.516,2.448,2.448,0,0,1,2.008.848,3.776,3.776,0,0,1,.7,2.449Zm7.867-.367a4.163,4.163,0,0,1-2.187.555,3.622,3.622,0,0,1-2.762-1.113,4.035,4.035,0,0,1-1.051-2.887,4.435,4.435,0,0,1,1.133-3.176,3.963,3.963,0,0,1,3.023-1.2,4.209,4.209,0,0,1,1.859.391v1.313a3.258,3.258,0,0,0-1.906-.625,2.576,2.576,0,0,0-2.012.879,3.335,3.335,0,0,0-.785,2.309,3.176,3.176,0,0,0,.738,2.219,2.545,2.545,0,0,0,1.98.813,3.211,3.211,0,0,0,1.969-.7Zm8.3-7.633-3.68,9.281q-.984,2.484-2.766,2.484a2.932,2.932,0,0,1-.836-.1V43.516a2.375,2.375,0,0,0,.758.141,1.57,1.57,0,0,0,1.453-1.156l.641-1.516L122.137,33h1.422l2.164,6.156q.039.117.164.609h.047q.039-.187.156-.594L128.363,33ZM11.867,65H10.555V53.8h1.313Zm9.6,0H20.188V63.641h-.031a2.958,2.958,0,0,1-2.75,1.547A2.988,2.988,0,0,1,15,64.113a4.407,4.407,0,0,1-.9-2.926,4.794,4.794,0,0,1,1-3.18,3.3,3.3,0,0,1,2.664-1.2,2.564,2.564,0,0,1,2.4,1.3h.031V53.156h1.281Zm-1.281-3.617V60.2a2.289,2.289,0,0,0-.641-1.641,2.149,2.149,0,0,0-1.625-.672,2.212,2.212,0,0,0-1.844.859,3.766,3.766,0,0,0-.672,2.375,3.387,3.387,0,0,0,.645,2.184,2.107,2.107,0,0,0,1.73.8,2.188,2.188,0,0,0,1.738-.773A2.882,2.882,0,0,0,20.188,61.383Zm10.3-.062H24.844a2.992,2.992,0,0,0,.719,2.063,2.478,2.478,0,0,0,1.891.727,3.931,3.931,0,0,0,2.484-.891v1.2a4.643,4.643,0,0,1-2.789.766,3.381,3.381,0,0,1-2.664-1.09,4.461,4.461,0,0,1-.969-3.066,4.375,4.375,0,0,1,1.059-3.043A3.394,3.394,0,0,1,27.2,56.813a3.008,3.008,0,0,1,2.43,1.016,4.234,4.234,0,0,1,.859,2.82ZM29.18,60.234a2.607,2.607,0,0,0-.535-1.727,1.823,1.823,0,0,0-1.465-.617,2.07,2.07,0,0,0-1.539.648,2.943,2.943,0,0,0-.781,1.7ZM39.07,65H37.789V60.438q0-2.547-1.859-2.547a2.017,2.017,0,0,0-1.59.723,2.679,2.679,0,0,0-.629,1.824V65H32.43V57h1.281v1.328h.031a2.887,2.887,0,0,1,2.625-1.516,2.448,2.448,0,0,1,2.008.848,3.776,3.776,0,0,1,.7,2.449Zm6.125-.078a2.47,2.47,0,0,1-1.2.25q-2.1,0-2.1-2.344V58.094H40.523V57H41.9V55.047l1.281-.414V57H45.2v1.094H43.18V62.6a1.869,1.869,0,0,0,.273,1.148,1.091,1.091,0,0,0,.906.344,1.347,1.347,0,0,0,.836-.266Zm2.367-9.953a.812.812,0,0,1-.586-.234.791.791,0,0,1-.242-.594.821.821,0,0,1,.828-.836.827.827,0,0,1,.6.238.835.835,0,0,1,0,1.184A.82.82,0,0,1,47.563,54.969ZM48.188,65H46.906V57h1.281Zm6.547-10.719a1.707,1.707,0,0,0-.852-.211q-1.344,0-1.344,1.7V57h1.875v1.094H52.539V65H51.266V58.094H49.9V57h1.367V55.7a2.7,2.7,0,0,1,.727-1.988,2.453,2.453,0,0,1,1.813-.73,2.511,2.511,0,0,1,.93.141Zm1.711.688a.812.812,0,0,1-.586-.234.791.791,0,0,1-.242-.594.821.821,0,0,1,.828-.836.827.827,0,0,1,.6.238.835.835,0,0,1,0,1.184A.82.82,0,0,1,56.445,54.969ZM57.07,65H55.789V57H57.07Zm8.047-.367a4.163,4.163,0,0,1-2.187.555,3.622,3.622,0,0,1-2.762-1.113,4.035,4.035,0,0,1-1.051-2.887,4.435,4.435,0,0,1,1.133-3.176,3.963,3.963,0,0,1,3.023-1.2,4.209,4.209,0,0,1,1.859.391v1.313a3.258,3.258,0,0,0-1.906-.625,2.576,2.576,0,0,0-2.012.879,3.335,3.335,0,0,0-.785,2.309,3.176,3.176,0,0,0,.738,2.219,2.545,2.545,0,0,0,1.98.813,3.211,3.211,0,0,0,1.969-.7ZM72.781,65H71.5V63.75h-.031a2.682,2.682,0,0,1-2.461,1.438,2.63,2.63,0,0,1-1.871-.633,2.192,2.192,0,0,1-.676-1.68q0-2.242,2.641-2.609l2.4-.336q0-2.039-1.648-2.039a3.938,3.938,0,0,0-2.609.984V57.563a4.958,4.958,0,0,1,2.719-.75q2.82,0,2.82,2.984ZM71.5,60.953l-1.93.266a3.133,3.133,0,0,0-1.344.441,1.273,1.273,0,0,0-.453,1.121,1.221,1.221,0,0,0,.418.957,1.615,1.615,0,0,0,1.113.371,2.056,2.056,0,0,0,1.574-.668A2.387,2.387,0,0,0,71.5,61.75Zm7.406,3.969a2.47,2.47,0,0,1-1.2.25q-2.1,0-2.1-2.344V58.094H74.234V57h1.375V55.047l1.281-.414V57h2.016v1.094H76.891V62.6a1.869,1.869,0,0,0,.273,1.148,1.091,1.091,0,0,0,.906.344,1.347,1.347,0,0,0,.836-.266Zm2.367-9.953a.812.812,0,0,1-.586-.234.791.791,0,0,1-.242-.594.821.821,0,0,1,.828-.836.827.827,0,0,1,.6.238.835.835,0,0,1,0,1.184A.82.82,0,0,1,81.273,54.969ZM81.9,65H80.617V57H81.9Zm5.938.188A3.711,3.711,0,0,1,85,64.066a4.153,4.153,0,0,1-1.059-2.973,4.326,4.326,0,0,1,1.1-3.148,3.96,3.96,0,0,1,2.977-1.133,3.588,3.588,0,0,1,2.793,1.1,4.368,4.368,0,0,1,1,3.055,4.3,4.3,0,0,1-1.082,3.066A3.791,3.791,0,0,1,87.836,65.188Zm.094-7.3a2.437,2.437,0,0,0-1.953.84,3.449,3.449,0,0,0-.719,2.316,3.262,3.262,0,0,0,.727,2.242,2.469,2.469,0,0,0,1.945.82,2.342,2.342,0,0,0,1.91-.8,3.492,3.492,0,0,0,.668-2.289A3.552,3.552,0,0,0,89.84,58.7,2.332,2.332,0,0,0,87.93,57.891ZM100.508,65H99.227V60.438q0-2.547-1.859-2.547a2.017,2.017,0,0,0-1.59.723,2.679,2.679,0,0,0-.629,1.824V65H93.867V57h1.281v1.328h.031A2.887,2.887,0,0,1,97.8,56.813a2.448,2.448,0,0,1,2.008.848,3.776,3.776,0,0,1,.7,2.449Zm9.938,2.547H107.57V53.8h2.875v.93h-1.734V66.617h1.734ZM116.492,65h-1.281V55.32a2.966,2.966,0,0,1-.434.34,7.067,7.067,0,0,1-.641.379q-.355.188-.75.352a5.451,5.451,0,0,1-.77.258v-1.3a7.448,7.448,0,0,0,.895-.316q.473-.2.93-.445t.863-.516a6.853,6.853,0,0,0,.7-.527h.484Zm9-8.266a2.316,2.316,0,0,0-.16-.9,1.739,1.739,0,0,0-1.09-1.016,2.555,2.555,0,0,0-.812-.125,2.688,2.688,0,0,0-.734.1,3.57,3.57,0,0,0-.7.281,4.3,4.3,0,0,0-.656.43,4.74,4.74,0,0,0-.59.555V54.688a3.831,3.831,0,0,1,1.207-.8,4.25,4.25,0,0,1,1.629-.277,3.932,3.932,0,0,1,1.273.2,2.92,2.92,0,0,1,1.016.582,2.691,2.691,0,0,1,.676.945,3.188,3.188,0,0,1,.246,1.289,4.42,4.42,0,0,1-.152,1.2,3.721,3.721,0,0,1-.461,1.016,4.9,4.9,0,0,1-.777.914,11.011,11.011,0,0,1-1.1.891q-.789.563-1.3.961a5.75,5.75,0,0,0-.812.746,2.165,2.165,0,0,0-.422.7,2.431,2.431,0,0,0-.121.8h5.578V65h-6.914v-.555a4.622,4.622,0,0,1,.156-1.266,3.286,3.286,0,0,1,.516-1.039,5.767,5.767,0,0,1,.941-.984q.582-.492,1.426-1.109a9.014,9.014,0,0,0,1.02-.836,4.346,4.346,0,0,0,.66-.8,2.862,2.862,0,0,0,.355-.809A3.486,3.486,0,0,0,125.492,56.734Zm5.875,10.813H128.5v-.93h1.727V54.727H128.5V53.8h2.867Z" transform="translate(233 690)" fill="#12263f"/>
    <path id="Trazado_601080" data-name="Trazado 601080" d="M65.926,5.8,62.965,17h-2.8L58.309,9.813a5.993,5.993,0,0,1-.18-1.258H58.1a7.642,7.642,0,0,1-.2,1.258L55.988,17H53.074L50.129,5.8h2.758l1.578,7.461a8.906,8.906,0,0,1,.148,1.281h.047a6.2,6.2,0,0,1,.227-1.312L56.918,5.8h2.7l1.836,7.523a9.212,9.212,0,0,1,.18,1.2h.031a8.066,8.066,0,0,1,.164-1.25L63.379,5.8Zm.906,10.773v-2.5a4.8,4.8,0,0,0,1.477.855,4.746,4.746,0,0,0,1.609.285,3.569,3.569,0,0,0,.832-.086,1.949,1.949,0,0,0,.594-.238,1.039,1.039,0,0,0,.355-.359.9.9,0,0,0,.117-.449.971.971,0,0,0-.187-.586,2.018,2.018,0,0,0-.512-.477,5.347,5.347,0,0,0-.77-.422q-.445-.2-.961-.414a4.9,4.9,0,0,1-1.957-1.336,2.917,2.917,0,0,1-.645-1.906,3.036,3.036,0,0,1,.352-1.5A2.986,2.986,0,0,1,68.094,6.4a4.291,4.291,0,0,1,1.4-.6,7.206,7.206,0,0,1,1.688-.191,10.15,10.15,0,0,1,1.551.105,6.1,6.1,0,0,1,1.246.324V8.375a3.768,3.768,0,0,0-.613-.344,4.859,4.859,0,0,0-.684-.246,5.214,5.214,0,0,0-.7-.145,4.949,4.949,0,0,0-.66-.047,3.443,3.443,0,0,0-.781.082,2,2,0,0,0-.594.23,1.147,1.147,0,0,0-.375.355.843.843,0,0,0-.133.465.888.888,0,0,0,.148.5,1.7,1.7,0,0,0,.422.422,4.477,4.477,0,0,0,.664.391q.391.191.883.395a9.838,9.838,0,0,1,1.207.6,4.291,4.291,0,0,1,.918.715,2.785,2.785,0,0,1,.586.91,3.216,3.216,0,0,1,.2,1.191,3.191,3.191,0,0,1-.355,1.574,2.886,2.886,0,0,1-.965,1.031,4.184,4.184,0,0,1-1.418.566,8.2,8.2,0,0,1-1.707.172,9.492,9.492,0,0,1-1.754-.156A5.3,5.3,0,0,1,66.832,16.57ZM86.395,17H83.848L79.23,9.961a10.178,10.178,0,0,1-.562-.93h-.031q.062.594.063,1.813V17H76.316V5.8h2.719l4.445,6.82q.3.461.563.914h.031a11.979,11.979,0,0,1-.062-1.539V5.8h2.383Zm3.422-5.523a1.449,1.449,0,0,1-1.016-.371,1.194,1.194,0,0,1-.406-.918,1.161,1.161,0,0,1,.418-.922,1.543,1.543,0,0,1,1.043-.359,1.486,1.486,0,0,1,1.035.363,1.254,1.254,0,0,1-.008,1.848A1.559,1.559,0,0,1,89.816,11.477Zm0,5.719A1.44,1.44,0,0,1,88.8,16.82a1.206,1.206,0,0,1-.406-.922,1.161,1.161,0,0,1,.418-.922,1.543,1.543,0,0,1,1.043-.359,1.486,1.486,0,0,1,1.035.363,1.258,1.258,0,0,1-.008,1.852A1.549,1.549,0,0,1,89.816,17.2ZM30.449,29.8,27.285,41H25.746l-2.3-8.187a5.125,5.125,0,0,1-.18-1.141H23.23a5.787,5.787,0,0,1-.2,1.125L20.707,41H19.184L15.9,29.8h1.445l2.383,8.594a5.64,5.64,0,0,1,.188,1.125h.039a6.641,6.641,0,0,1,.242-1.125L22.676,29.8h1.258l2.375,8.656A6.332,6.332,0,0,1,26.5,39.5h.031a6.276,6.276,0,0,1,.211-1.078L29.027,29.8ZM32.6,30.969a.812.812,0,0,1-.586-.234.791.791,0,0,1-.242-.594A.821.821,0,0,1,32.6,29.3a.827.827,0,0,1,.6.238.835.835,0,0,1,0,1.184A.82.82,0,0,1,32.6,30.969ZM33.223,41H31.941V33h1.281Zm6.766-6.7a1.567,1.567,0,0,0-.969-.258,1.635,1.635,0,0,0-1.371.773,3.576,3.576,0,0,0-.551,2.109V41H35.816V33H37.1v1.648h.031a2.794,2.794,0,0,1,.836-1.316,1.906,1.906,0,0,1,1.258-.473,2.092,2.092,0,0,1,.766.109Zm7.82,3.023H42.16a2.992,2.992,0,0,0,.719,2.063,2.478,2.478,0,0,0,1.891.727,3.931,3.931,0,0,0,2.484-.891v1.2a4.643,4.643,0,0,1-2.789.766A3.381,3.381,0,0,1,41.8,40.1a4.461,4.461,0,0,1-.969-3.066,4.375,4.375,0,0,1,1.059-3.043,3.394,3.394,0,0,1,2.629-1.176,3.008,3.008,0,0,1,2.43,1.016,4.234,4.234,0,0,1,.859,2.82ZM46.5,36.234a2.607,2.607,0,0,0-.535-1.727,1.823,1.823,0,0,0-1.465-.617,2.07,2.07,0,0,0-1.539.648,2.943,2.943,0,0,0-.781,1.7ZM51.027,41H49.746V29.156h1.281Zm9.023-3.68H54.4a2.992,2.992,0,0,0,.719,2.063,2.478,2.478,0,0,0,1.891.727,3.931,3.931,0,0,0,2.484-.891v1.2a4.643,4.643,0,0,1-2.789.766,3.381,3.381,0,0,1-2.664-1.09,4.461,4.461,0,0,1-.969-3.066,4.375,4.375,0,0,1,1.059-3.043,3.394,3.394,0,0,1,2.629-1.176,3.008,3.008,0,0,1,2.43,1.016,4.234,4.234,0,0,1,.859,2.82Zm-1.312-1.086a2.607,2.607,0,0,0-.535-1.727,1.823,1.823,0,0,0-1.465-.617,2.07,2.07,0,0,0-1.539.648,2.943,2.943,0,0,0-.781,1.7ZM61.5,40.711V39.336a3.792,3.792,0,0,0,2.3.773q1.688,0,1.688-1.125a.976.976,0,0,0-.145-.543,1.44,1.44,0,0,0-.391-.395,3.007,3.007,0,0,0-.578-.309q-.332-.137-.715-.285a9.206,9.206,0,0,1-.934-.426,2.82,2.82,0,0,1-.672-.484,1.8,1.8,0,0,1-.406-.613,2.17,2.17,0,0,1-.137-.8,1.912,1.912,0,0,1,.258-1,2.286,2.286,0,0,1,.688-.727,3.206,3.206,0,0,1,.98-.441,4.349,4.349,0,0,1,1.137-.148,4.59,4.59,0,0,1,1.859.359v1.3a3.624,3.624,0,0,0-2.031-.578,2.374,2.374,0,0,0-.648.082,1.587,1.587,0,0,0-.5.23,1.065,1.065,0,0,0-.32.355.936.936,0,0,0-.113.457,1.1,1.1,0,0,0,.113.523,1.152,1.152,0,0,0,.332.375,2.538,2.538,0,0,0,.531.3q.313.133.711.289a9.9,9.9,0,0,1,.953.418,3.269,3.269,0,0,1,.719.484,1.893,1.893,0,0,1,.457.621,2,2,0,0,1,.16.836,1.971,1.971,0,0,1-.262,1.031,2.243,2.243,0,0,1-.7.727,3.2,3.2,0,0,1-1.008.43,4.976,4.976,0,0,1-1.2.141A4.539,4.539,0,0,1,61.5,40.711Zm6.789,0V39.336a3.792,3.792,0,0,0,2.3.773q1.688,0,1.688-1.125a.976.976,0,0,0-.145-.543,1.44,1.44,0,0,0-.391-.395,3.007,3.007,0,0,0-.578-.309q-.332-.137-.715-.285a9.206,9.206,0,0,1-.934-.426,2.82,2.82,0,0,1-.672-.484,1.8,1.8,0,0,1-.406-.613,2.17,2.17,0,0,1-.137-.8,1.912,1.912,0,0,1,.258-1,2.286,2.286,0,0,1,.688-.727,3.206,3.206,0,0,1,.98-.441,4.349,4.349,0,0,1,1.137-.148,4.59,4.59,0,0,1,1.859.359v1.3a3.624,3.624,0,0,0-2.031-.578,2.374,2.374,0,0,0-.648.082,1.587,1.587,0,0,0-.5.23,1.065,1.065,0,0,0-.32.355.936.936,0,0,0-.113.457,1.1,1.1,0,0,0,.113.523,1.152,1.152,0,0,0,.332.375,2.538,2.538,0,0,0,.531.3q.313.133.711.289a9.9,9.9,0,0,1,.953.418,3.269,3.269,0,0,1,.719.484,1.893,1.893,0,0,1,.457.621,2,2,0,0,1,.16.836,1.971,1.971,0,0,1-.262,1.031,2.243,2.243,0,0,1-.7.727,3.2,3.2,0,0,1-1.008.43,4.976,4.976,0,0,1-1.2.141A4.539,4.539,0,0,1,68.293,40.711Zm11.3-.164V39a3,3,0,0,0,.637.422,5.159,5.159,0,0,0,.781.316,6.219,6.219,0,0,0,.824.2,4.6,4.6,0,0,0,.766.07,3,3,0,0,0,1.809-.449,1.685,1.685,0,0,0,.4-2.082,2.244,2.244,0,0,0-.551-.613,5.465,5.465,0,0,0-.832-.531q-.48-.254-1.035-.535-.586-.3-1.094-.6a4.74,4.74,0,0,1-.883-.672,2.8,2.8,0,0,1-.59-.832,2.836,2.836,0,0,1,.121-2.422,2.881,2.881,0,0,1,.883-.934,4,4,0,0,1,1.246-.547,5.706,5.706,0,0,1,1.426-.18,5.464,5.464,0,0,1,2.414.4v1.477a4.376,4.376,0,0,0-2.547-.687,4.189,4.189,0,0,0-.859.09,2.428,2.428,0,0,0-.766.293,1.7,1.7,0,0,0-.547.523,1.389,1.389,0,0,0-.211.781,1.608,1.608,0,0,0,.16.742,1.819,1.819,0,0,0,.473.57,4.708,4.708,0,0,0,.762.5q.449.242,1.035.531.6.3,1.141.625a5.214,5.214,0,0,1,.945.727,3.229,3.229,0,0,1,.645.883,2.482,2.482,0,0,1,.238,1.109,2.813,2.813,0,0,1-.324,1.4,2.661,2.661,0,0,1-.875.934,3.822,3.822,0,0,1-1.27.52,6.953,6.953,0,0,1-1.516.16,6.176,6.176,0,0,1-.656-.043q-.391-.043-.8-.125a6.5,6.5,0,0,1-.77-.2A2.4,2.4,0,0,1,79.6,40.547ZM94.879,37.32H89.23a2.992,2.992,0,0,0,.719,2.063,2.478,2.478,0,0,0,1.891.727,3.931,3.931,0,0,0,2.484-.891v1.2a4.643,4.643,0,0,1-2.789.766,3.381,3.381,0,0,1-2.664-1.09,4.461,4.461,0,0,1-.969-3.066,4.375,4.375,0,0,1,1.059-3.043,3.394,3.394,0,0,1,2.629-1.176,3.008,3.008,0,0,1,2.43,1.016,4.234,4.234,0,0,1,.859,2.82Zm-1.312-1.086a2.607,2.607,0,0,0-.535-1.727,1.823,1.823,0,0,0-1.465-.617,2.07,2.07,0,0,0-1.539.648,2.943,2.943,0,0,0-.781,1.7ZM103.457,41h-1.281V36.438q0-2.547-1.859-2.547a2.017,2.017,0,0,0-1.59.723,2.679,2.679,0,0,0-.629,1.824V41H96.816V33H98.1v1.328h.031a2.887,2.887,0,0,1,2.625-1.516,2.448,2.448,0,0,1,2.008.848,3.776,3.776,0,0,1,.7,2.449Zm1.93-.289V39.336a3.792,3.792,0,0,0,2.3.773q1.688,0,1.688-1.125a.976.976,0,0,0-.145-.543,1.44,1.44,0,0,0-.391-.395,3.007,3.007,0,0,0-.578-.309q-.332-.137-.715-.285a9.206,9.206,0,0,1-.934-.426,2.82,2.82,0,0,1-.672-.484,1.8,1.8,0,0,1-.406-.613,2.17,2.17,0,0,1-.137-.8,1.912,1.912,0,0,1,.258-1,2.286,2.286,0,0,1,.688-.727,3.206,3.206,0,0,1,.98-.441,4.349,4.349,0,0,1,1.137-.148,4.59,4.59,0,0,1,1.859.359v1.3a3.624,3.624,0,0,0-2.031-.578,2.374,2.374,0,0,0-.648.082,1.587,1.587,0,0,0-.5.23,1.065,1.065,0,0,0-.32.355.936.936,0,0,0-.113.457,1.1,1.1,0,0,0,.113.523,1.152,1.152,0,0,0,.332.375,2.538,2.538,0,0,0,.531.3q.313.133.711.289a9.9,9.9,0,0,1,.953.418,3.269,3.269,0,0,1,.719.484,1.893,1.893,0,0,1,.457.621,2,2,0,0,1,.16.836,1.971,1.971,0,0,1-.262,1.031,2.243,2.243,0,0,1-.7.727,3.2,3.2,0,0,1-1.008.43,4.976,4.976,0,0,1-1.2.141A4.539,4.539,0,0,1,105.387,40.711ZM116,41.188a3.711,3.711,0,0,1-2.832-1.121,4.153,4.153,0,0,1-1.059-2.973,4.326,4.326,0,0,1,1.1-3.148,3.96,3.96,0,0,1,2.977-1.133,3.588,3.588,0,0,1,2.793,1.1,4.368,4.368,0,0,1,1,3.055,4.3,4.3,0,0,1-1.082,3.066A3.791,3.791,0,0,1,116,41.188Zm.094-7.3a2.437,2.437,0,0,0-1.953.84,3.449,3.449,0,0,0-.719,2.316,3.262,3.262,0,0,0,.727,2.242,2.469,2.469,0,0,0,1.945.82,2.342,2.342,0,0,0,1.91-.8,3.492,3.492,0,0,0,.668-2.289,3.552,3.552,0,0,0-.668-2.312A2.332,2.332,0,0,0,116.1,33.891Zm10.109.406a1.567,1.567,0,0,0-.969-.258,1.635,1.635,0,0,0-1.371.773,3.576,3.576,0,0,0-.551,2.109V41h-1.281V33h1.281v1.648h.031a2.793,2.793,0,0,1,.836-1.316,1.906,1.906,0,0,1,1.258-.473,2.092,2.092,0,0,1,.766.109ZM35.75,65H34.141l-5.766-8.93a3.731,3.731,0,0,1-.359-.7h-.047a11.534,11.534,0,0,1,.063,1.539V65H26.719V53.8h1.7l5.609,8.789q.352.547.453.75h.031a11.853,11.853,0,0,1-.078-1.648V53.8H35.75Zm9.2-3.68H39.3a2.992,2.992,0,0,0,.719,2.063,2.478,2.478,0,0,0,1.891.727,3.931,3.931,0,0,0,2.484-.891v1.2a4.643,4.643,0,0,1-2.789.766,3.381,3.381,0,0,1-2.664-1.09,4.461,4.461,0,0,1-.969-3.066,4.375,4.375,0,0,1,1.059-3.043,3.394,3.394,0,0,1,2.629-1.176,3.008,3.008,0,0,1,2.43,1.016,4.234,4.234,0,0,1,.859,2.82Zm-1.312-1.086a2.607,2.607,0,0,0-.535-1.727,1.823,1.823,0,0,0-1.465-.617,2.07,2.07,0,0,0-1.539.648,2.943,2.943,0,0,0-.781,1.7Zm6.961,4.688a2.47,2.47,0,0,1-1.2.25q-2.1,0-2.1-2.344V58.094H45.922V57H47.3V55.047l1.281-.414V57h2.016v1.094H48.578V62.6a1.869,1.869,0,0,0,.273,1.148,1.091,1.091,0,0,0,.906.344,1.347,1.347,0,0,0,.836-.266ZM62.383,57l-2.4,8H58.656l-1.648-5.727a3.732,3.732,0,0,1-.125-.742h-.031a3.5,3.5,0,0,1-.164.727L54.9,65H53.617L51.2,57h1.344L54.2,63.016a3.624,3.624,0,0,1,.109.719h.063A3.362,3.362,0,0,1,54.508,63l1.844-6h1.172l1.656,6.031a4.306,4.306,0,0,1,.117.719h.063a3.325,3.325,0,0,1,.133-.719L61.117,57Zm4.828,8.188a3.711,3.711,0,0,1-2.832-1.121,4.153,4.153,0,0,1-1.059-2.973,4.326,4.326,0,0,1,1.1-3.148A3.96,3.96,0,0,1,67.4,56.813a3.588,3.588,0,0,1,2.793,1.1,4.368,4.368,0,0,1,1,3.055,4.3,4.3,0,0,1-1.082,3.066A3.791,3.791,0,0,1,67.211,65.188Zm.094-7.3a2.437,2.437,0,0,0-1.953.84,3.449,3.449,0,0,0-.719,2.316,3.262,3.262,0,0,0,.727,2.242,2.469,2.469,0,0,0,1.945.82,2.342,2.342,0,0,0,1.91-.8,3.492,3.492,0,0,0,.668-2.289,3.552,3.552,0,0,0-.668-2.312A2.332,2.332,0,0,0,67.3,57.891Zm10.109.406a1.567,1.567,0,0,0-.969-.258,1.635,1.635,0,0,0-1.371.773,3.576,3.576,0,0,0-.551,2.109V65H73.242V57h1.281v1.648h.031a2.793,2.793,0,0,1,.836-1.316,1.906,1.906,0,0,1,1.258-.473,2.092,2.092,0,0,1,.766.109ZM85.445,65h-1.8l-3.531-3.844h-.031V65H78.8V53.156h1.281v7.508h.031L83.477,57h1.68l-3.711,3.859Zm8.836,2.547H91.406V53.8h2.875v.93H92.547V66.617h1.734ZM100.328,65H99.047V55.32a2.966,2.966,0,0,1-.434.34,7.067,7.067,0,0,1-.641.379q-.355.188-.75.352a5.451,5.451,0,0,1-.77.258v-1.3a7.448,7.448,0,0,0,.895-.316q.473-.2.93-.445t.863-.516a6.853,6.853,0,0,0,.7-.527h.484Zm10.414-3.172a3.266,3.266,0,0,1-.285,1.379,3.044,3.044,0,0,1-.8,1.063,3.714,3.714,0,0,1-1.246.684,5.04,5.04,0,0,1-1.6.242,4.654,4.654,0,0,1-2.547-.609V63.211a4.081,4.081,0,0,0,2.594.891,3.525,3.525,0,0,0,1.059-.148,2.374,2.374,0,0,0,.813-.43,1.909,1.909,0,0,0,.523-.68,2.123,2.123,0,0,0,.184-.9q0-2.2-3.125-2.2h-.93V58.664h.883q2.766,0,2.766-2.062,0-1.906-2.109-1.906a3.592,3.592,0,0,0-2.227.8V54.25a4.868,4.868,0,0,1,2.547-.641,3.913,3.913,0,0,1,1.273.2,2.918,2.918,0,0,1,.977.547,2.423,2.423,0,0,1,.629.844,2.6,2.6,0,0,1,.223,1.086,2.735,2.735,0,0,1-2.234,2.844v.031a3.534,3.534,0,0,1,1.055.277,2.814,2.814,0,0,1,.836.559,2.49,2.49,0,0,1,.551.809A2.582,2.582,0,0,1,110.742,61.828Zm4.461,5.719h-2.867v-.93h1.727V54.727h-1.727V53.8H115.2Z" transform="translate(481 690)" fill="#12263f"/>
    <path id="Trazado_601081" data-name="Trazado 601081" d="M66.719,17H64.172L59.555,9.961a10.18,10.18,0,0,1-.562-.93h-.031q.063.594.063,1.813V17H56.641V5.8h2.719l4.445,6.82q.3.461.563.914H64.4a11.979,11.979,0,0,1-.062-1.539V5.8h2.383Zm9.039-9.148H71.8V10.6h3.633v2.047H71.8V17H69.281V5.8h6.477Zm9.875,8.75a7.388,7.388,0,0,1-3.2.594,5.4,5.4,0,0,1-4.055-1.516A5.54,5.54,0,0,1,76.9,11.641a5.919,5.919,0,0,1,1.66-4.359,5.807,5.807,0,0,1,4.309-1.672,8.058,8.058,0,0,1,2.766.414v2.43a4.9,4.9,0,0,0-2.562-.672,3.4,3.4,0,0,0-2.547.992,3.682,3.682,0,0,0-.969,2.688,3.611,3.611,0,0,0,.914,2.59,3.229,3.229,0,0,0,2.461.965,5.249,5.249,0,0,0,2.7-.719Zm2.813-5.125a1.449,1.449,0,0,1-1.016-.371,1.194,1.194,0,0,1-.406-.918,1.161,1.161,0,0,1,.418-.922,1.543,1.543,0,0,1,1.043-.359,1.486,1.486,0,0,1,1.035.363,1.254,1.254,0,0,1-.008,1.848A1.559,1.559,0,0,1,88.445,11.477Zm0,5.719a1.44,1.44,0,0,1-1.016-.375,1.206,1.206,0,0,1-.406-.922,1.161,1.161,0,0,1,.418-.922,1.543,1.543,0,0,1,1.043-.359,1.486,1.486,0,0,1,1.035.363,1.258,1.258,0,0,1-.008,1.852A1.549,1.549,0,0,1,88.445,17.2ZM47.613,41H46l-5.766-8.93a3.731,3.731,0,0,1-.359-.7h-.047a11.534,11.534,0,0,1,.063,1.539V41H38.582V29.8h1.7l5.609,8.789q.352.547.453.75h.031a11.853,11.853,0,0,1-.078-1.648V29.8h1.313Zm9.2-3.68H51.16a2.992,2.992,0,0,0,.719,2.063,2.478,2.478,0,0,0,1.891.727,3.931,3.931,0,0,0,2.484-.891v1.2a4.643,4.643,0,0,1-2.789.766A3.381,3.381,0,0,1,50.8,40.1a4.461,4.461,0,0,1-.969-3.066,4.375,4.375,0,0,1,1.059-3.043,3.394,3.394,0,0,1,2.629-1.176,3.008,3.008,0,0,1,2.43,1.016,4.234,4.234,0,0,1,.859,2.82ZM55.5,36.234a2.607,2.607,0,0,0-.535-1.727,1.823,1.823,0,0,0-1.465-.617,2.07,2.07,0,0,0-1.539.648,2.943,2.943,0,0,0-.781,1.7ZM64.473,41H63.191V39.75H63.16A2.682,2.682,0,0,1,60.7,41.188a2.63,2.63,0,0,1-1.871-.633,2.192,2.192,0,0,1-.676-1.68q0-2.242,2.641-2.609l2.4-.336q0-2.039-1.648-2.039a3.938,3.938,0,0,0-2.609.984V33.563a4.958,4.958,0,0,1,2.719-.75q2.82,0,2.82,2.984Zm-1.281-4.047-1.93.266a3.133,3.133,0,0,0-1.344.441,1.273,1.273,0,0,0-.453,1.121,1.221,1.221,0,0,0,.418.957A1.615,1.615,0,0,0,61,40.109a2.056,2.056,0,0,0,1.574-.668,2.387,2.387,0,0,0,.621-1.691ZM71.059,34.3a1.567,1.567,0,0,0-.969-.258,1.635,1.635,0,0,0-1.371.773,3.576,3.576,0,0,0-.551,2.109V41H66.887V33h1.281v1.648H68.2a2.793,2.793,0,0,1,.836-1.316,1.906,1.906,0,0,1,1.258-.473,2.092,2.092,0,0,1,.766.109Zm11.633-3.312H78.316v3.875h4.047v1.18H78.316V41H77V29.8h5.688Zm2.609-.016a.812.812,0,0,1-.586-.234.791.791,0,0,1-.242-.594A.821.821,0,0,1,85.3,29.3a.827.827,0,0,1,.6.238.835.835,0,0,1,0,1.184A.82.82,0,0,1,85.3,30.969ZM85.926,41H84.645V33h1.281Zm9.023-3.68H89.3a2.992,2.992,0,0,0,.719,2.063,2.478,2.478,0,0,0,1.891.727,3.931,3.931,0,0,0,2.484-.891v1.2a4.643,4.643,0,0,1-2.789.766,3.381,3.381,0,0,1-2.664-1.09,4.461,4.461,0,0,1-.969-3.066,4.375,4.375,0,0,1,1.059-3.043,3.394,3.394,0,0,1,2.629-1.176,3.008,3.008,0,0,1,2.43,1.016,4.234,4.234,0,0,1,.859,2.82Zm-1.312-1.086a2.607,2.607,0,0,0-.535-1.727,1.823,1.823,0,0,0-1.465-.617,2.07,2.07,0,0,0-1.539.648,2.943,2.943,0,0,0-.781,1.7ZM98.168,41H96.887V29.156h1.281Zm9.422,0h-1.281V39.641h-.031a2.958,2.958,0,0,1-2.75,1.547,2.988,2.988,0,0,1-2.41-1.074,4.407,4.407,0,0,1-.9-2.926,4.794,4.794,0,0,1,1-3.18,3.3,3.3,0,0,1,2.664-1.2,2.564,2.564,0,0,1,2.4,1.3h.031V29.156h1.281Zm-1.281-3.617V36.2a2.289,2.289,0,0,0-.641-1.641,2.149,2.149,0,0,0-1.625-.672,2.212,2.212,0,0,0-1.844.859,3.766,3.766,0,0,0-.672,2.375,3.387,3.387,0,0,0,.645,2.184,2.107,2.107,0,0,0,1.73.8,2.188,2.188,0,0,0,1.738-.773A2.882,2.882,0,0,0,106.309,37.383Zm-95.9,27.148a6.571,6.571,0,0,1-3.094.656,4.989,4.989,0,0,1-3.828-1.539,5.679,5.679,0,0,1-1.437-4.039,5.952,5.952,0,0,1,1.617-4.344,5.489,5.489,0,0,1,4.1-1.656,6.576,6.576,0,0,1,2.641.461v1.4A5.355,5.355,0,0,0,7.75,54.8a4.076,4.076,0,0,0-3.129,1.289,4.856,4.856,0,0,0-1.2,3.445,4.621,4.621,0,0,0,1.121,3.262,3.815,3.815,0,0,0,2.941,1.215,5.518,5.518,0,0,0,2.922-.75Zm5.453.656a3.711,3.711,0,0,1-2.832-1.121,4.153,4.153,0,0,1-1.059-2.973,4.326,4.326,0,0,1,1.1-3.148,3.96,3.96,0,0,1,2.977-1.133,3.588,3.588,0,0,1,2.793,1.1,4.368,4.368,0,0,1,1,3.055,4.3,4.3,0,0,1-1.082,3.066A3.791,3.791,0,0,1,15.859,65.188Zm.094-7.3A2.437,2.437,0,0,0,14,58.73a3.449,3.449,0,0,0-.719,2.316,3.262,3.262,0,0,0,.727,2.242,2.469,2.469,0,0,0,1.945.82,2.342,2.342,0,0,0,1.91-.8,3.492,3.492,0,0,0,.668-2.289,3.552,3.552,0,0,0-.668-2.312A2.332,2.332,0,0,0,15.953,57.891ZM33.25,65H31.969V60.406a3.466,3.466,0,0,0-.41-1.922,1.555,1.555,0,0,0-1.379-.594,1.708,1.708,0,0,0-1.395.75,2.869,2.869,0,0,0-.574,1.8V65H26.93V60.25q0-2.359-1.82-2.359a1.686,1.686,0,0,0-1.391.707,2.923,2.923,0,0,0-.547,1.84V65H21.891V57h1.281v1.266H23.2a2.718,2.718,0,0,1,2.484-1.453,2.311,2.311,0,0,1,2.266,1.656,2.855,2.855,0,0,1,2.656-1.656q2.641,0,2.641,3.258Zm13.781,0H45.75V60.406a3.466,3.466,0,0,0-.41-1.922,1.555,1.555,0,0,0-1.379-.594,1.708,1.708,0,0,0-1.395.75,2.869,2.869,0,0,0-.574,1.8V65H40.711V60.25q0-2.359-1.82-2.359A1.686,1.686,0,0,0,37.5,58.6a2.923,2.923,0,0,0-.547,1.84V65H35.672V57h1.281v1.266h.031a2.718,2.718,0,0,1,2.484-1.453,2.311,2.311,0,0,1,2.266,1.656,2.855,2.855,0,0,1,2.656-1.656q2.641,0,2.641,3.258Zm8.891,0H54.641V63.734h-.031a2.631,2.631,0,0,1-2.469,1.453q-2.859,0-2.859-3.406V57h1.273v4.578q0,2.531,1.938,2.531a1.96,1.96,0,0,0,1.543-.691,2.645,2.645,0,0,0,.605-1.809V57h1.281Zm9.227,0H63.867V60.438q0-2.547-1.859-2.547a2.017,2.017,0,0,0-1.59.723,2.679,2.679,0,0,0-.629,1.824V65H58.508V57h1.281v1.328h.031a2.887,2.887,0,0,1,2.625-1.516,2.448,2.448,0,0,1,2.008.848,3.776,3.776,0,0,1,.7,2.449Zm3.07-10.031a.812.812,0,0,1-.586-.234.791.791,0,0,1-.242-.594.821.821,0,0,1,.828-.836.827.827,0,0,1,.6.238.835.835,0,0,1,0,1.184A.82.82,0,0,1,68.219,54.969ZM68.844,65H67.563V57h1.281Zm8.047-.367a4.163,4.163,0,0,1-2.187.555,3.622,3.622,0,0,1-2.762-1.113,4.035,4.035,0,0,1-1.051-2.887,4.435,4.435,0,0,1,1.133-3.176,3.963,3.963,0,0,1,3.023-1.2,4.209,4.209,0,0,1,1.859.391v1.313A3.258,3.258,0,0,0,75,57.891a2.576,2.576,0,0,0-2.012.879,3.335,3.335,0,0,0-.785,2.309,3.176,3.176,0,0,0,.738,2.219,2.545,2.545,0,0,0,1.98.813,3.211,3.211,0,0,0,1.969-.7ZM84.555,65H83.273V63.75h-.031a2.682,2.682,0,0,1-2.461,1.438,2.63,2.63,0,0,1-1.871-.633,2.192,2.192,0,0,1-.676-1.68q0-2.242,2.641-2.609l2.4-.336q0-2.039-1.648-2.039a3.938,3.938,0,0,0-2.609.984V57.563a4.958,4.958,0,0,1,2.719-.75q2.82,0,2.82,2.984Zm-1.281-4.047-1.93.266A3.133,3.133,0,0,0,80,61.66a1.273,1.273,0,0,0-.453,1.121,1.221,1.221,0,0,0,.418.957,1.615,1.615,0,0,0,1.113.371,2.056,2.056,0,0,0,1.574-.668,2.387,2.387,0,0,0,.621-1.691Zm7.406,3.969a2.47,2.47,0,0,1-1.2.25q-2.1,0-2.1-2.344V58.094H86.008V57h1.375V55.047l1.281-.414V57H90.68v1.094H88.664V62.6a1.869,1.869,0,0,0,.273,1.148,1.091,1.091,0,0,0,.906.344,1.347,1.347,0,0,0,.836-.266Zm2.367-9.953a.812.812,0,0,1-.586-.234.791.791,0,0,1-.242-.594.821.821,0,0,1,.828-.836.827.827,0,0,1,.6.238.835.835,0,0,1,0,1.184A.82.82,0,0,1,93.047,54.969ZM93.672,65H92.391V57h1.281Zm5.938.188a3.711,3.711,0,0,1-2.832-1.121,4.153,4.153,0,0,1-1.059-2.973,4.326,4.326,0,0,1,1.1-3.148A3.96,3.96,0,0,1,99.8,56.813a3.588,3.588,0,0,1,2.793,1.1,4.368,4.368,0,0,1,1,3.055,4.3,4.3,0,0,1-1.082,3.066A3.791,3.791,0,0,1,99.609,65.188Zm.094-7.3a2.437,2.437,0,0,0-1.953.84,3.449,3.449,0,0,0-.719,2.316,3.262,3.262,0,0,0,.727,2.242,2.469,2.469,0,0,0,1.945.82,2.342,2.342,0,0,0,1.91-.8,3.492,3.492,0,0,0,.668-2.289,3.552,3.552,0,0,0-.668-2.312A2.332,2.332,0,0,0,99.7,57.891ZM112.281,65H111V60.438q0-2.547-1.859-2.547a2.017,2.017,0,0,0-1.59.723,2.679,2.679,0,0,0-.629,1.824V65h-1.281V57h1.281v1.328h.031a2.887,2.887,0,0,1,2.625-1.516,2.448,2.448,0,0,1,2.008.848,3.776,3.776,0,0,1,.7,2.449Zm9.938,2.547h-2.875V53.8h2.875v.93h-1.734V66.617h1.734ZM128.266,65h-1.281V55.32a2.966,2.966,0,0,1-.434.34,7.067,7.067,0,0,1-.641.379q-.355.188-.75.352a5.451,5.451,0,0,1-.77.258v-1.3a7.448,7.448,0,0,0,.895-.316q.473-.2.93-.445t.863-.516a6.853,6.853,0,0,0,.7-.527h.484Zm9.609-11.2v7.4h1.438v1.172h-1.437V65h-1.266V62.367h-5.266V61.258q.734-.828,1.484-1.77t1.434-1.91q.684-.969,1.266-1.934a17.672,17.672,0,0,0,.98-1.848Zm-5.086,7.4h3.82V55.711q-.586,1.023-1.109,1.828T134.5,59q-.473.656-.9,1.188T132.789,61.2Zm10.352,6.352h-2.867v-.93H142V54.727h-1.727V53.8h2.867Z" transform="translate(727 690)" fill="#12263f"/>
    <path id="Trazado_601082" data-name="Trazado 601082" d="M70.023,5.8,67.063,17h-2.8L62.406,9.813a5.993,5.993,0,0,1-.18-1.258H62.2a7.642,7.642,0,0,1-.2,1.258L60.086,17H57.172L54.227,5.8h2.758l1.578,7.461a8.906,8.906,0,0,1,.148,1.281h.047a6.2,6.2,0,0,1,.227-1.312L61.016,5.8h2.7l1.836,7.523a9.212,9.212,0,0,1,.18,1.2h.031a8.066,8.066,0,0,1,.164-1.25L67.477,5.8Zm2.43,1.938a1.442,1.442,0,0,1-1.023-.371,1.2,1.2,0,0,1-.4-.91,1.153,1.153,0,0,1,.4-.906,1.671,1.671,0,0,1,2.051,0,1.158,1.158,0,0,1,.395.906,1.191,1.191,0,0,1-.395.922A1.466,1.466,0,0,1,72.453,7.734ZM73.672,17H71.2V9h2.469Zm8.8-9.148H78.516V10.6h3.633v2.047H78.516V17H75.992V5.8h6.477Zm2.852-.117A1.442,1.442,0,0,1,84.3,7.363a1.2,1.2,0,0,1-.4-.91,1.153,1.153,0,0,1,.4-.906,1.671,1.671,0,0,1,2.051,0,1.158,1.158,0,0,1,.395.906,1.191,1.191,0,0,1-.395.922A1.466,1.466,0,0,1,85.32,7.734ZM86.539,17H84.07V9h2.469Zm3.18-5.523a1.449,1.449,0,0,1-1.016-.371,1.194,1.194,0,0,1-.406-.918,1.161,1.161,0,0,1,.418-.922,1.543,1.543,0,0,1,1.043-.359,1.486,1.486,0,0,1,1.035.363,1.254,1.254,0,0,1-.008,1.848A1.559,1.559,0,0,1,89.719,11.477Zm0,5.719A1.44,1.44,0,0,1,88.7,16.82,1.206,1.206,0,0,1,88.3,15.9a1.161,1.161,0,0,1,.418-.922,1.543,1.543,0,0,1,1.043-.359,1.486,1.486,0,0,1,1.035.363,1.258,1.258,0,0,1-.008,1.852A1.549,1.549,0,0,1,89.719,17.2ZM33.816,37.32H28.168a2.992,2.992,0,0,0,.719,2.063,2.478,2.478,0,0,0,1.891.727,3.931,3.931,0,0,0,2.484-.891v1.2a4.643,4.643,0,0,1-2.789.766,3.381,3.381,0,0,1-2.664-1.09,4.461,4.461,0,0,1-.969-3.066A4.375,4.375,0,0,1,27.9,33.988a3.394,3.394,0,0,1,2.629-1.176,3.008,3.008,0,0,1,2.43,1.016,4.234,4.234,0,0,1,.859,2.82ZM32.5,36.234a2.607,2.607,0,0,0-.535-1.727,1.823,1.823,0,0,0-1.465-.617,2.07,2.07,0,0,0-1.539.648,2.943,2.943,0,0,0-.781,1.7Zm2.766,4.477V39.336a3.792,3.792,0,0,0,2.3.773q1.688,0,1.688-1.125a.976.976,0,0,0-.145-.543,1.44,1.44,0,0,0-.391-.395,3.007,3.007,0,0,0-.578-.309q-.332-.137-.715-.285a9.206,9.206,0,0,1-.934-.426,2.82,2.82,0,0,1-.672-.484,1.8,1.8,0,0,1-.406-.613,2.17,2.17,0,0,1-.137-.8,1.912,1.912,0,0,1,.258-1,2.286,2.286,0,0,1,.688-.727,3.206,3.206,0,0,1,.98-.441,4.349,4.349,0,0,1,1.137-.148,4.59,4.59,0,0,1,1.859.359v1.3a3.624,3.624,0,0,0-2.031-.578,2.374,2.374,0,0,0-.648.082,1.587,1.587,0,0,0-.5.23,1.065,1.065,0,0,0-.32.355.936.936,0,0,0-.113.457,1.1,1.1,0,0,0,.113.523,1.152,1.152,0,0,0,.332.375,2.538,2.538,0,0,0,.531.3q.312.133.711.289a9.894,9.894,0,0,1,.953.418,3.269,3.269,0,0,1,.719.484,1.893,1.893,0,0,1,.457.621,2,2,0,0,1,.16.836,1.971,1.971,0,0,1-.262,1.031,2.243,2.243,0,0,1-.7.727,3.2,3.2,0,0,1-1.008.43,4.976,4.976,0,0,1-1.2.141A4.539,4.539,0,0,1,35.27,40.711Zm10.984.211a2.47,2.47,0,0,1-1.2.25q-2.1,0-2.1-2.344V34.094H41.582V33h1.375V31.047l1.281-.414V33h2.016v1.094H44.238V38.6a1.869,1.869,0,0,0,.273,1.148,1.091,1.091,0,0,0,.906.344,1.347,1.347,0,0,0,.836-.266ZM53.691,41H52.41V39.75h-.031a2.682,2.682,0,0,1-2.461,1.438,2.63,2.63,0,0,1-1.871-.633,2.192,2.192,0,0,1-.676-1.68q0-2.242,2.641-2.609l2.4-.336q0-2.039-1.648-2.039a3.938,3.938,0,0,0-2.609.984V33.563a4.958,4.958,0,0,1,2.719-.75q2.82,0,2.82,2.984ZM52.41,36.953l-1.93.266a3.133,3.133,0,0,0-1.344.441,1.273,1.273,0,0,0-.453,1.121,1.221,1.221,0,0,0,.418.957,1.615,1.615,0,0,0,1.113.371,2.056,2.056,0,0,0,1.574-.668,2.387,2.387,0,0,0,.621-1.691Zm.172-8.031-2.047,2.563h-.992l1.742-2.562ZM62.746,41H61.465V36.438q0-2.547-1.859-2.547a2.017,2.017,0,0,0-1.59.723,2.679,2.679,0,0,0-.629,1.824V41H56.105V33h1.281v1.328h.031a2.887,2.887,0,0,1,2.625-1.516,2.448,2.448,0,0,1,2.008.848,3.776,3.776,0,0,1,.7,2.449Zm9.242,0H70.707V39.641h-.031a2.958,2.958,0,0,1-2.75,1.547,2.988,2.988,0,0,1-2.41-1.074,4.407,4.407,0,0,1-.9-2.926,4.794,4.794,0,0,1,1-3.18,3.3,3.3,0,0,1,2.664-1.2,2.564,2.564,0,0,1,2.4,1.3h.031V29.156h1.281Zm-1.281-3.617V36.2a2.289,2.289,0,0,0-.641-1.641,2.149,2.149,0,0,0-1.625-.672,2.212,2.212,0,0,0-1.844.859,3.766,3.766,0,0,0-.672,2.375,3.387,3.387,0,0,0,.645,2.184,2.107,2.107,0,0,0,1.73.8,2.188,2.188,0,0,0,1.738-.773A2.882,2.882,0,0,0,70.707,37.383ZM80.309,41H79.027V39.75H79a2.682,2.682,0,0,1-2.461,1.438,2.63,2.63,0,0,1-1.871-.633,2.192,2.192,0,0,1-.676-1.68q0-2.242,2.641-2.609l2.4-.336q0-2.039-1.648-2.039a3.938,3.938,0,0,0-2.609.984V33.563a4.958,4.958,0,0,1,2.719-.75q2.82,0,2.82,2.984Zm-1.281-4.047-1.93.266a3.133,3.133,0,0,0-1.344.441,1.273,1.273,0,0,0-.453,1.121,1.221,1.221,0,0,0,.418.957,1.615,1.615,0,0,0,1.113.371,2.056,2.056,0,0,0,1.574-.668,2.387,2.387,0,0,0,.621-1.691ZM86.895,34.3a1.567,1.567,0,0,0-.969-.258,1.635,1.635,0,0,0-1.371.773A3.576,3.576,0,0,0,84,36.922V41H82.723V33H84v1.648h.031a2.793,2.793,0,0,1,.836-1.316,1.906,1.906,0,0,1,1.258-.473,2.092,2.092,0,0,1,.766.109ZM94.152,41H92.84V29.8h1.313Zm8.883,0H97.1V29.8h5.688v1.188H98.41v3.727h4.047v1.18H98.41v3.922h4.625Zm8.094,0h-5.937V29.8h5.688v1.188H106.5v3.727h4.047v1.18H106.5v3.922h4.625Zm8.094,0h-5.937V29.8h5.688v1.188H114.6v3.727h4.047v1.18H114.6v3.922h4.625ZM45.879,61.875a2.981,2.981,0,0,1,.141-.895,3.24,3.24,0,0,1,.4-.84,3.33,3.33,0,0,1,.648-.711,3.091,3.091,0,0,1,.879-.508,3.322,3.322,0,0,1-1.156-1.043,2.466,2.466,0,0,1-.43-1.41,2.72,2.72,0,0,1,.238-1.141,2.748,2.748,0,0,1,.66-.906,3.052,3.052,0,0,1,1-.6,3.735,3.735,0,0,1,2.508,0,3.106,3.106,0,0,1,1,.6,2.7,2.7,0,0,1,.656.906,2.74,2.74,0,0,1,.234,1.133,2.466,2.466,0,0,1-.43,1.41,3.363,3.363,0,0,1-1.141,1.043,3.063,3.063,0,0,1,.867.508,3.379,3.379,0,0,1,.645.711,3.24,3.24,0,0,1,.4.84,2.981,2.981,0,0,1,.141.895,3.327,3.327,0,0,1-.266,1.344,3,3,0,0,1-.746,1.043,3.444,3.444,0,0,1-1.148.676,4.293,4.293,0,0,1-1.473.242,4.235,4.235,0,0,1-1.461-.242,3.5,3.5,0,0,1-1.148-.676,3.023,3.023,0,0,1-.754-1.043A3.285,3.285,0,0,1,45.879,61.875Zm1.391-.109a2.647,2.647,0,0,0,.16.945,2.038,2.038,0,0,0,.453.719,1.978,1.978,0,0,0,.711.457,2.568,2.568,0,0,0,.926.16,2.439,2.439,0,0,0,.906-.164,2.112,2.112,0,0,0,.715-.461,2.073,2.073,0,0,0,.469-.719,2.514,2.514,0,0,0,.168-.937,2.4,2.4,0,0,0-.16-.879,2.2,2.2,0,0,0-.457-.723,2.147,2.147,0,0,0-.711-.492,2.313,2.313,0,0,0-.93-.18,2.338,2.338,0,0,0-.895.168,2.14,2.14,0,0,0-.711.469,2.171,2.171,0,0,0-.473.719A2.391,2.391,0,0,0,47.27,61.766Zm.4-5.2A1.86,1.86,0,0,0,48.8,58.3a1.846,1.846,0,0,0,1.441,0,1.867,1.867,0,0,0,.59-.4,1.95,1.95,0,0,0,.4-.594,1.8,1.8,0,0,0,.148-.73,1.916,1.916,0,0,0-.145-.75,1.841,1.841,0,0,0-1.715-1.133,1.864,1.864,0,0,0-.754.148,1.821,1.821,0,0,0-.586.4,1.759,1.759,0,0,0-.379.6A2.02,2.02,0,0,0,47.668,56.57Zm14.1,2.781a11.005,11.005,0,0,1-.254,2.492,5.807,5.807,0,0,1-.734,1.832,3.305,3.305,0,0,1-1.18,1.133,3.23,3.23,0,0,1-1.59.387,3.016,3.016,0,0,1-1.5-.371,3.152,3.152,0,0,1-1.113-1.082A5.484,5.484,0,0,1,54.707,62a10.8,10.8,0,0,1-.234-2.371,12.222,12.222,0,0,1,.246-2.594,5.933,5.933,0,0,1,.723-1.887A3.216,3.216,0,0,1,56.625,54a3.323,3.323,0,0,1,1.621-.387Q61.77,53.609,61.77,59.352Zm-1.312.125q0-4.781-2.273-4.781-2.4,0-2.4,4.867,0,4.539,2.352,4.539Q60.457,64.1,60.457,59.477Zm8-2.742a2.316,2.316,0,0,0-.16-.9,1.739,1.739,0,0,0-1.09-1.016,2.555,2.555,0,0,0-.812-.125,2.688,2.688,0,0,0-.734.1,3.57,3.57,0,0,0-.7.281,4.3,4.3,0,0,0-.656.43,4.741,4.741,0,0,0-.59.555V54.688a3.831,3.831,0,0,1,1.207-.8,4.25,4.25,0,0,1,1.629-.277,3.932,3.932,0,0,1,1.273.2,2.92,2.92,0,0,1,1.016.582,2.691,2.691,0,0,1,.676.945,3.188,3.188,0,0,1,.246,1.289,4.42,4.42,0,0,1-.152,1.2,3.721,3.721,0,0,1-.461,1.016,4.9,4.9,0,0,1-.777.914,11.011,11.011,0,0,1-1.1.891q-.789.563-1.3.961a5.75,5.75,0,0,0-.812.746,2.165,2.165,0,0,0-.422.7,2.431,2.431,0,0,0-.121.8h5.578V65H63.277v-.555a4.622,4.622,0,0,1,.156-1.266,3.286,3.286,0,0,1,.516-1.039,5.767,5.767,0,0,1,.941-.984q.582-.492,1.426-1.109a9.014,9.014,0,0,0,1.02-.836,4.346,4.346,0,0,0,.66-.8,2.862,2.862,0,0,0,.355-.809A3.486,3.486,0,0,0,68.457,56.734Zm4.336,8.438a.829.829,0,0,1-.613-.258.849.849,0,0,1-.254-.617.862.862,0,0,1,.254-.621.823.823,0,0,1,.613-.262.845.845,0,0,1,.625.262.855.855,0,0,1,.258.621.842.842,0,0,1-.258.617A.851.851,0,0,1,72.793,65.172ZM80.176,65H78.895V55.32a2.966,2.966,0,0,1-.434.34,7.067,7.067,0,0,1-.641.379q-.355.188-.75.352a5.451,5.451,0,0,1-.77.258v-1.3a7.448,7.448,0,0,0,.895-.316q.473-.2.93-.445t.863-.516a6.853,6.853,0,0,0,.7-.527h.484ZM88.8,65H87.52V55.32a2.966,2.966,0,0,1-.434.34,7.067,7.067,0,0,1-.641.379q-.355.188-.75.352a5.451,5.451,0,0,1-.77.258v-1.3a7.448,7.448,0,0,0,.895-.316q.473-.2.93-.445t.863-.516a6.853,6.853,0,0,0,.7-.527H88.8Zm10.906,0H98.426V60.438q0-2.547-1.859-2.547a2.017,2.017,0,0,0-1.59.723,2.679,2.679,0,0,0-.629,1.824V65H93.066V57h1.281v1.328h.031A2.887,2.887,0,0,1,97,56.813a2.448,2.448,0,0,1,2.008.848,3.776,3.776,0,0,1,.7,2.449Z" transform="translate(975 690)" fill="#12263f"/>
    <path id="Trazado_601083" data-name="Trazado 601083" d="M36.918,17V5.8H41a5.093,5.093,0,0,1,2.883.688,2.211,2.211,0,0,1,1.008,1.938,2.293,2.293,0,0,1-.613,1.586,3.222,3.222,0,0,1-1.566.945v.031a3.1,3.1,0,0,1,1.91.883,2.469,2.469,0,0,1,.715,1.789,2.99,2.99,0,0,1-1.1,2.441,4.61,4.61,0,0,1-3.008.9Zm2.523-9.344v2.656h1.109a1.849,1.849,0,0,0,1.23-.379,1.291,1.291,0,0,0,.449-1.043q0-1.234-1.844-1.234Zm0,4.531v2.953h1.367a2.1,2.1,0,0,0,1.371-.406,1.357,1.357,0,0,0,.5-1.109,1.266,1.266,0,0,0-.488-1.055,2.16,2.16,0,0,0-1.363-.383ZM49.4,17H46.934V5.156H49.4Zm9.68,0H56.621V15.781h-.039A2.792,2.792,0,0,1,54.137,17.2q-2.781,0-2.781-3.367V9h2.461v4.609q0,1.7,1.344,1.7a1.329,1.329,0,0,0,1.063-.465,1.874,1.874,0,0,0,.4-1.262V9h2.461Zm9.266-3.3H63.129q.125,1.742,2.2,1.742a4.286,4.286,0,0,0,2.32-.625V16.6a6.1,6.1,0,0,1-2.883.594,4.058,4.058,0,0,1-3.008-1.074,4.058,4.058,0,0,1-1.07-3A4.281,4.281,0,0,1,61.84,9.969,3.852,3.852,0,0,1,64.684,8.8a3.5,3.5,0,0,1,2.707,1.039,4,4,0,0,1,.957,2.82Zm-2.289-1.516q0-1.719-1.391-1.719a1.328,1.328,0,0,0-1.027.492,2.234,2.234,0,0,0-.527,1.227Zm8.594,4.719A3.649,3.649,0,0,1,73,17.2q-2.609,0-2.609-2.711V10.82H69.1V9h1.3V7.273l2.461-.7V9h1.8v1.82h-1.8v3.234q0,1.25.992,1.25a1.673,1.673,0,0,0,.8-.227Zm5.141.289a4.3,4.3,0,0,1-3.145-1.121A4.064,4.064,0,0,1,75.5,13.031a4.065,4.065,0,0,1,1.188-3.105A4.487,4.487,0,0,1,79.9,8.8a4.249,4.249,0,0,1,3.125,1.121,3.985,3.985,0,0,1,1.133,2.965,4.23,4.23,0,0,1-1.168,3.148A4.348,4.348,0,0,1,79.793,17.2Zm.063-6.5a1.647,1.647,0,0,0-1.359.6,2.653,2.653,0,0,0-.484,1.7q0,2.3,1.859,2.3,1.773,0,1.773-2.367Q81.645,10.7,79.855,10.7Zm9.719,6.5a4.3,4.3,0,0,1-3.145-1.121,4.064,4.064,0,0,1-1.145-3.043,4.065,4.065,0,0,1,1.188-3.105A4.487,4.487,0,0,1,89.684,8.8a4.249,4.249,0,0,1,3.125,1.121,3.985,3.985,0,0,1,1.133,2.965,4.23,4.23,0,0,1-1.168,3.148A4.348,4.348,0,0,1,89.574,17.2Zm.063-6.5a1.647,1.647,0,0,0-1.359.6,2.653,2.653,0,0,0-.484,1.7q0,2.3,1.859,2.3,1.773,0,1.773-2.367Q91.426,10.7,89.637,10.7Zm10.742,6.211a3.649,3.649,0,0,1-1.648.289q-2.609,0-2.609-2.711V10.82h-1.3V9h1.3V7.273l2.461-.7V9h1.8v1.82h-1.8v3.234q0,1.25.992,1.25a1.673,1.673,0,0,0,.8-.227Zm9.07.094h-2.461V12.453q0-1.758-1.281-1.758a1.312,1.312,0,0,0-1.062.492,1.9,1.9,0,0,0-.406,1.25V17H101.77V5.156h2.469v5.031h.031A2.805,2.805,0,0,1,106.73,8.8q2.719,0,2.719,3.281Z" transform="translate(1223 690)" fill="#12263f"/>
  </g>
</svg>
