<svg id="autenticacion" xmlns="http://www.w3.org/2000/svg" width="74.959" height="73.914" viewBox="0 0 74.959 73.914">
  <path id="Trazado_163107" data-name="Trazado 163107" d="M36.11,79.219l12.462-8.3A35.138,35.138,0,0,0,64.22,41.669V23L36.11,8.944,8,23v18.67A35.138,35.138,0,0,0,23.648,70.914Zm0,0" transform="translate(-6.829 -7.635)" fill="#ff6148"/>
  <path id="Trazado_163108" data-name="Trazado 163108" d="M53.561,97.553A30.409,30.409,0,0,1,40,72.206V56.431L63.425,44.719,86.849,56.431V72.206A30.413,30.413,0,0,1,73.286,97.555l-9.862,6.57Zm0,0" transform="translate(-34.144 -38.172)" fill="#b893f5"/>
  <path id="Trazado_163109" data-name="Trazado 163109" d="M111.595,261.205l-9.341-2.342h-9.37l-9.341,2.342A4.685,4.685,0,0,0,80,265.749v7.2a30.483,30.483,0,0,0,7.7,7.394l9.864,6.573,9.862-6.571a30.463,30.463,0,0,0,7.707-7.4v-7.2A4.684,4.684,0,0,0,111.595,261.205Zm0,0" transform="translate(-68.288 -220.964)" fill="#ff366f"/>
  <path id="Trazado_163110" data-name="Trazado 163110" d="M168,232.945v4.685a4.685,4.685,0,1,0,9.37,0v-4.685Zm0,0" transform="translate(-143.404 -198.841)" fill="#ffdecf"/>
  <path id="Trazado_163111" data-name="Trazado 163111" d="M166.055,144.945v11.712l-4.685,3.514h-4.685L152,156.657V144.945Zm0,0" transform="translate(-129.746 -123.724)" fill="#ffdecf"/>
  <path id="Trazado_163112" data-name="Trazado 163112" d="M150.055,115.689h-1.171c-.82-1.171-12.884-2.636-12.884,5.856h6.751a11.092,11.092,0,0,0,4.961-1.171h1.171l3.514,4.685v-7.027A2.343,2.343,0,0,0,150.055,115.689Zm0,0" transform="translate(-116.089 -97.982)" fill="#50575e"/>
  <path id="Trazado_163113" data-name="Trazado 163113" d="M285.48,259.685a18.74,18.74,0,1,1-18.74-18.74A18.74,18.74,0,0,1,285.48,259.685Zm0,0" transform="translate(-211.692 -205.669)" fill="#ffc33d"/>
  <path id="Trazado_163114" data-name="Trazado 163114" d="M305.025,295.406,293.43,307l-4.141-4.141-4.969,4.969,4.141,4.141,4.141,4.141.828.828,16.564-16.564Zm0,0" transform="translate(-242.694 -252.157)" fill="#fff"/>
  <path id="Trazado_163115" data-name="Trazado 163115" d="M58.555,34.433c0-.133.007-19.794.007-19.794L29.281,0,0,14.64V34.034A36.257,36.257,0,0,0,16.169,64.252l13.112,8.737,10.1-6.728A19.895,19.895,0,1,0,58.555,34.432ZM29.281,70.178,17.469,62.3A33.915,33.915,0,0,1,2.342,34.034V16.088L29.281,2.618,56.219,16.088V34.164c-.389-.023-.774-.059-1.171-.059s-.783.036-1.171.059V17.532l-24.6-12.3-24.6,12.3v16.5a31.587,31.587,0,0,0,14.084,26.32l10.512,7,7.662-5.105a19.848,19.848,0,0,0,1.108,2.081Zm6.786-10.156-6.786,4.521L20.069,58.4c-.455-.3-.9-.622-1.33-.949V46.988H16.4v8.5a29.258,29.258,0,0,1-3.514-3.9V44.784a3.514,3.514,0,0,1,2.658-3.407l7.943-1.991a5.85,5.85,0,0,0,4.625,5.142v4.8h2.342v-4.8a5.847,5.847,0,0,0,4.624-5.142L40.29,40.7a19.81,19.81,0,0,0-4.223,19.325ZM23.425,24.734h3.237a12.337,12.337,0,0,0,5.229-1.171h.317l2.928,3.9v4.881l-3.9,2.928h-3.9l-3.9-2.928Zm-2.245-2.342a4.582,4.582,0,0,1,2.509-3.385,11.827,11.827,0,0,1,8.224-.518l.269.389h1.784a1.171,1.171,0,0,1,1.171,1.171v3.514L33.38,21.22H31.347l-.247.123a9.987,9.987,0,0,1-4.438,1.048Zm11.615,14.64v1.757a3.514,3.514,0,0,1-7.027,0V37.032l.781.586h5.465Zm2.342-.046V35.275l2.342-1.757V20.049a3.514,3.514,0,0,0-3.514-3.514h-.779c-1.695-1.03-5.913-1.238-8.9-.3a7.289,7.289,0,0,0-5.546,7.331v1.171h2.342v8.784l2.342,1.757v1.705l-8.454,2.126a5.846,5.846,0,0,0-4.43,5.678v3.163A29.25,29.25,0,0,1,7.027,34.034V18.981L29.281,7.854,51.534,18.981V34.034c0,.134-.008.268-.009.4a19.818,19.818,0,0,0-9.267,4.341Zm19.911,34.6A17.569,17.569,0,1,1,72.617,54.015,17.569,17.569,0,0,1,55.048,71.584Zm0,0" transform="translate(0 0)"/>
  <path id="Trazado_163116" data-name="Trazado 163116" d="M416,136.945h14.055v2.342H416Zm0,0" transform="translate(-355.095 -116.896)"/>
  <path id="Trazado_163117" data-name="Trazado 163117" d="M416,168.945h9.37v2.342H416Zm0,0" transform="translate(-355.095 -144.211)"/>
  <path id="Trazado_163118" data-name="Trazado 163118" d="M416,200.945h4.685v2.342H416Zm0,0" transform="translate(-355.095 -171.526)"/>
  <path id="Trazado_163119" data-name="Trazado 163119" d="M283.774,295.692l-4.14-4.141-6.626,6.625,10.766,10.766,18.22-18.22-6.626-6.624Zm0,9.938-7.454-7.453,3.314-3.312,4.14,4.14,11.6-11.6,3.314,3.312Zm0,0" transform="translate(-233.038 -242.504)"/>
</svg>
