<svg xmlns="http://www.w3.org/2000/svg" width="73.914" height="73.914" viewBox="0 0 73.914 73.914">
  <g id="Grupo_110680" data-name="Grupo 110680" transform="translate(-1163 -3597)">
    <g id="XMLID_399_" transform="translate(1163 3597)">
      <g id="XMLID_1256_" transform="translate(1.444 1.444)">
        <g id="XMLID_1294_" transform="translate(0 4.042)">
          <path id="XMLID_1571_" d="M50.235,38H12.887A2.887,2.887,0,0,0,10,40.887V96.323a2.887,2.887,0,0,0,2.887,2.887H15.45Z" transform="translate(-10 -38)" fill="#ffb476"/>
          <path id="XMLID_1305_" d="M65.014,78H95.33a4.331,4.331,0,0,1,4.331,4.331v52.548a4.331,4.331,0,0,1-4.331,4.331h-41A4.331,4.331,0,0,1,50,134.879V93.014Z" transform="translate(-44.225 -72.225)" fill="#fff"/>
          <path id="XMLID_1304_" d="M50,93.014H62.127a2.887,2.887,0,0,0,2.887-2.887V78Z" transform="translate(-44.225 -72.225)" fill="#bed8fb"/>
        </g>
        <g id="XMLID_1337_" transform="translate(32.915)">
          <path id="XMLID_2240_" d="M19.056,0A19.056,19.056,0,1,1,0,19.056,19.056,19.056,0,0,1,19.056,0Z" fill="#c7acf5"/>
        </g>
      </g>
      <g id="XMLID_382_">
        <g id="XMLID_383_">
          <path id="XMLID_398_" d="M118.973,246.887h16.573a1.444,1.444,0,1,0,0-2.887H118.973a1.444,1.444,0,1,0,0,2.887Z" transform="translate(-100.562 -208.775)"/>
          <path id="XMLID_397_" d="M146.249,316H118.973a1.444,1.444,0,1,0,0,2.887h27.276a1.444,1.444,0,0,0,0-2.887Z" transform="translate(-100.562 -270.381)"/>
          <path id="XMLID_396_" d="M180.877,388H159.444a1.444,1.444,0,0,0,0,2.887h21.434a1.444,1.444,0,0,0,0-2.887Z" transform="translate(-135.191 -331.987)"/>
          <path id="XMLID_395_" d="M384.423,304.423a1.443,1.443,0,1,0,1.021-.423A1.455,1.455,0,0,0,384.423,304.423Z" transform="translate(-328.564 -260.114)"/>
          <path id="XMLID_390_" d="M53.414,0A20.392,20.392,0,0,0,41.206,4.042H4.331A4.336,4.336,0,0,0,0,8.373V63.809A4.336,4.336,0,0,0,4.331,68.14H5.775a5.781,5.781,0,0,0,5.775,5.775h41a5.781,5.781,0,0,0,5.775-5.775V51.1a1.444,1.444,0,1,0-2.887,0V68.14a2.891,2.891,0,0,1-2.887,2.887h-41A2.891,2.891,0,0,1,8.662,68.14V27.718H19.345a4.336,4.336,0,0,0,4.331-4.331V12.7H34.456A20.5,20.5,0,0,0,33.377,24.83H27.766a1.444,1.444,0,1,0,0,2.887h6.462A20.5,20.5,0,1,0,53.414,0ZM20.788,23.387a1.445,1.445,0,0,1-1.444,1.444H10.7L20.788,14.746Zm1.444-13.57a1.439,1.439,0,0,0-1.02.422h0L6.2,25.253h0a1.439,1.439,0,0,0-.422,1.02V65.252H4.331a1.445,1.445,0,0,1-1.444-1.444V8.373A1.445,1.445,0,0,1,4.331,6.929H38.064a20.62,20.62,0,0,0-2.139,2.887Zm31.182,28.3A17.612,17.612,0,1,1,71.027,20.5,17.632,17.632,0,0,1,53.414,38.112Z"/>
          <path id="XMLID_389_" d="M447.582,132.106h-1.164a1.444,1.444,0,0,0,0,2.887h1.164a1.444,1.444,0,0,0,0-2.887Z" transform="translate(-380.737 -113.035)"/>
          <path id="XMLID_388_" d="M269.569,131.894h-1.164a1.444,1.444,0,0,0,0,2.887h1.164a1.444,1.444,0,1,0,0-2.887Z" transform="translate(-228.422 -112.853)"/>
          <path id="XMLID_387_" d="M361.55,43.014a1.444,1.444,0,0,0,1.444-1.444V40.407a1.444,1.444,0,1,0-2.887,0V41.57A1.444,1.444,0,0,0,361.55,43.014Z" transform="translate(-308.12 -33.338)"/>
          <path id="XMLID_386_" d="M361.338,216.976a1.444,1.444,0,0,0-1.444,1.444v1.164a1.444,1.444,0,1,0,2.887,0V218.42A1.444,1.444,0,0,0,361.338,216.976Z" transform="translate(-307.938 -185.653)"/>
          <path id="XMLID_385_" d="M323.527,75.317a1.444,1.444,0,0,0,2.039,0l9.98-9.98a1.444,1.444,0,0,0-2.042-2.042l-8.959,8.959-5.2-5.2a1.444,1.444,0,1,0-2.042,2.042l6.212,6.212Z" transform="translate(-271.131 -53.794)"/>
          <path id="XMLID_384_" d="M118.423,388.423a1.443,1.443,0,1,0,1.021-.423A1.455,1.455,0,0,0,118.423,388.423Z" transform="translate(-100.965 -331.987)"/>
        </g>
      </g>
    </g>
  </g>
</svg>
