<svg xmlns="http://www.w3.org/2000/svg" width="104" height="80.036" viewBox="0 0 104 80.036">
  <g id="virus" transform="translate(0 -14.748)">
    <g id="Grupo_108253" data-name="Grupo 108253" transform="translate(1.422 16.171)">
      <path id="Trazado_165130" data-name="Trazado 165130" d="M1.75,35.373H102.906V93.591a3.637,3.637,0,0,1-3.637,3.637H5.387A3.637,3.637,0,0,1,1.75,93.591V35.373Z" transform="translate(-1.75 -20.039)" fill="#f4d844"/>
      <path id="Trazado_165131" data-name="Trazado 165131" d="M5.813,16.5H98.844a4.063,4.063,0,0,1,4.063,4.063V31.834H1.75V20.563A4.063,4.063,0,0,1,5.813,16.5Z" transform="translate(-1.75 -16.5)" fill="#607880"/>
      <g id="Grupo_108251" data-name="Grupo 108251" transform="translate(5.078 6.245)">
        <path id="Trazado_165132" data-name="Trazado 165132" d="M105.066,27.03H49.359a1.422,1.422,0,0,1,0-2.844h55.707a1.422,1.422,0,1,1,0,2.844Z" transform="translate(-15.488 -24.186)" fill="#94e0da"/>
        <path id="Trazado_165133" data-name="Trazado 165133" d="M13.181,27.03H9.422a1.422,1.422,0,0,1,0-2.844h3.759a1.422,1.422,0,1,1,0,2.844Z" transform="translate(-8 -24.186)" fill="#94e0da"/>
        <path id="Trazado_165134" data-name="Trazado 165134" d="M26.493,27.03H22.734a1.422,1.422,0,0,1,0-2.844h3.759a1.422,1.422,0,0,1,0,2.844Z" transform="translate(-10.496 -24.186)" fill="#94e0da"/>
        <path id="Trazado_165135" data-name="Trazado 165135" d="M39.8,27.03H36.047a1.422,1.422,0,0,1,0-2.844H39.8a1.422,1.422,0,0,1,0,2.844Z" transform="translate(-12.992 -24.186)" fill="#94e0da"/>
      </g>
      <path id="Trazado_165136" data-name="Trazado 165136" d="M77.144,64.387c0,4.03-2.893,7.589-7.3,9.742v9.149a3.254,3.254,0,0,1-3.25,3.25H53.524a3.254,3.254,0,0,1-3.25-3.25V74.129c-4.412-2.153-7.3-5.712-7.3-9.742,0-6.565,7.654-11.887,17.087-11.887S77.144,57.822,77.144,64.387Z" transform="translate(-9.479 -23.25)" fill="#607880"/>
      <path id="Trazado_165137" data-name="Trazado 165137" d="M70.087,72.332c-1.837,0-3.275-1.172-3.275-2.667S68.25,67,70.087,67s3.275,1.171,3.275,2.666S71.921,72.332,70.087,72.332Z" transform="translate(-13.949 -25.969)" fill="#eaeaf0"/>
      <ellipse id="Elipse_5017" data-name="Elipse 5017" cx="3.275" cy="2.666" rx="3.275" ry="2.666" transform="translate(41.743 41.03)" fill="#eaeaf0"/>
      <path id="Trazado_165138" data-name="Trazado 165138" d="M61.034,88.112v4.826H58.19V88.112a1.422,1.422,0,0,1,2.844,0Z" transform="translate(-12.332 -29.661)" fill="#eaeaf0"/>
      <path id="Trazado_165139" data-name="Trazado 165139" d="M69.174,88.112v4.826H66.33V88.112a1.422,1.422,0,0,1,2.844,0Z" transform="translate(-13.859 -29.661)" fill="#eaeaf0"/>
      <g id="Grupo_108252" data-name="Grupo 108252" transform="translate(25.994 21.677)">
        <path id="Trazado_165140" data-name="Trazado 165140" d="M40.23,54.048l3.012,3.013a14.5,14.5,0,0,1,4.843-3.92l-3.473-3.474a3.907,3.907,0,1,0-6.84-2.459,3.907,3.907,0,1,0,2.459,6.84Z" transform="translate(-33.743 -43.18)" fill="#94e0da"/>
        <path id="Trazado_165141" data-name="Trazado 165141" d="M76.606,53.141a14.5,14.5,0,0,1,4.843,3.919l3.012-3.013a3.907,3.907,0,1,0,2.459-6.84,3.907,3.907,0,1,0-6.84,2.459Z" transform="translate(-41.78 -43.18)" fill="#94e0da"/>
        <path id="Trazado_165142" data-name="Trazado 165142" d="M84.346,88.4l-8.313-8.313v8.359a3.182,3.182,0,0,1-.037.366l3.969,3.97a3.907,3.907,0,1,0,6.84,2.459,3.907,3.907,0,1,0-2.459-6.84Z" transform="translate(-41.665 -50.1)" fill="#94e0da"/>
        <path id="Trazado_165143" data-name="Trazado 165143" d="M48.577,88.812a3.185,3.185,0,0,1-.037-.366V80.087L40.23,88.4a3.907,3.907,0,1,0-2.459,6.84,3.907,3.907,0,1,0,6.84-2.459Z" transform="translate(-33.743 -50.1)" fill="#94e0da"/>
      </g>
      <path id="Trazado_165144" data-name="Trazado 165144" d="M63.393,78.822c-2.2,0-2.666-1.339-2.666-2.462,0-1.837,1.171-3.276,2.666-3.276s2.666,1.439,2.666,3.276C66.059,77.485,65.6,78.822,63.393,78.822Z" transform="translate(-12.808 -27.11)" fill="#eaeaf0"/>
    </g>
    <g id="Grupo_108254" data-name="Grupo 108254" transform="translate(0 14.748)">
      <path id="Trazado_165145" data-name="Trazado 165145" d="M125.922,58.175A1.422,1.422,0,0,0,124.5,59.6v3.311a1.422,1.422,0,1,0,2.844,0V59.6a1.422,1.422,0,0,0-1.422-1.422Z" transform="translate(-23.344 -22.891)"/>
      <path id="Trazado_165146" data-name="Trazado 165146" d="M98.516,14.748H5.484A5.491,5.491,0,0,0,0,20.234V89.726a5.064,5.064,0,0,0,5.059,5.059H98.941A5.064,5.064,0,0,0,104,89.724V62.534a1.422,1.422,0,0,0-2.844,0v27.19a2.217,2.217,0,0,1-2.215,2.215H5.059a2.217,2.217,0,0,1-2.215-2.215V32.93h98.313V43.683a1.422,1.422,0,1,0,2.844,0V20.234A5.491,5.491,0,0,0,98.516,14.748ZM2.844,30.084v-9.85a2.644,2.644,0,0,1,2.641-2.641H98.516a2.644,2.644,0,0,1,2.641,2.641v9.85Z" transform="translate(0 -14.748)"/>
      <path id="Trazado_165147" data-name="Trazado 165147" d="M105.066,24.186H49.359a1.422,1.422,0,0,0,0,2.844h55.707a1.422,1.422,0,1,0,0-2.844Z" transform="translate(-8.988 -16.518)"/>
      <path id="Trazado_165148" data-name="Trazado 165148" d="M13.181,24.186H9.422a1.422,1.422,0,0,0,0,2.844h3.759a1.422,1.422,0,1,0,0-2.844Z" transform="translate(-1.5 -16.518)"/>
      <path id="Trazado_165149" data-name="Trazado 165149" d="M26.493,24.186H22.734a1.422,1.422,0,0,0,0,2.844h3.759a1.422,1.422,0,0,0,0-2.844Z" transform="translate(-3.996 -16.518)"/>
      <path id="Trazado_165150" data-name="Trazado 165150" d="M39.8,24.186H36.047a1.422,1.422,0,0,0,0,2.844H39.8a1.422,1.422,0,0,0,0-2.844Z" transform="translate(-6.492 -16.518)"/>
      <ellipse id="Elipse_5018" data-name="Elipse 5018" cx="3.275" cy="2.666" rx="3.275" ry="2.666" transform="translate(54.285 42.454)"/>
      <ellipse id="Elipse_5019" data-name="Elipse 5019" cx="3.275" cy="2.666" rx="3.275" ry="2.666" transform="translate(43.165 42.454)"/>
      <path id="Trazado_165151" data-name="Trazado 165151" d="M70.876,91.875a5.332,5.332,0,0,0,8.975-2.587,5.268,5.268,0,0,0,2.587-1.426,5.328,5.328,0,0,0-6.155-8.531l-6.655-6.654c4.331-2.509,6.88-6.3,6.88-10.36a10.19,10.19,0,0,0-1.6-5.4l1.369-1.374a5.328,5.328,0,0,0,6.155-8.531,5.267,5.267,0,0,0-2.586-1.425,5.328,5.328,0,1,0-9.958,3.566L67.946,51.1a24.667,24.667,0,0,0-19.895,0l-1.944-1.944A5.329,5.329,0,0,0,37.576,43a5.267,5.267,0,0,0-1.426,2.587,5.268,5.268,0,0,0-2.589,1.427,5.328,5.328,0,0,0,6.157,8.531l1.371,1.371a10.185,10.185,0,0,0-1.6,5.4,1.422,1.422,0,1,0,2.844,0,7.758,7.758,0,0,1,1.688-4.7,1.534,1.534,0,0,0,.108-.149,12.907,12.907,0,0,1,4.079-3.31,1.4,1.4,0,0,0,.366-.184,21.955,21.955,0,0,1,18.85,0,1.4,1.4,0,0,0,.366.184,12.907,12.907,0,0,1,4.079,3.31,1.534,1.534,0,0,0,.108.149,7.758,7.758,0,0,1,1.686,4.7c0,3.313-2.431,6.476-6.5,8.461a1.424,1.424,0,0,0-.8,1.279V81.2c0,.029-.007.056-.009.085a1.424,1.424,0,0,0-.028.282,1.831,1.831,0,0,1-1.788,1.462H62.733v-3.4a1.422,1.422,0,0,0-2.844,0v3.4H56.121v-3.4a1.422,1.422,0,0,0-2.844,0v3.4H51.465a1.831,1.831,0,0,1-1.788-1.462,1.424,1.424,0,0,0-.028-.282c0-.029-.009-.056-.009-.085V72.054a1.423,1.423,0,0,0-.8-1.279A14.761,14.761,0,0,1,45.413,68.5a1.422,1.422,0,1,0-1.9,2.112,17.009,17.009,0,0,0,2.866,2.061l-6.656,6.655a5.328,5.328,0,0,0-6.154,8.531,5.267,5.267,0,0,0,2.586,1.425,5.329,5.329,0,1,0,9.96-3.568l1.667-1.667a4.663,4.663,0,0,0,3.69,1.818H64.533a4.663,4.663,0,0,0,3.69-1.818l1.667,1.667a5.34,5.34,0,0,0,.985,6.158ZM42.861,54.67l-1.954-1.95a1.422,1.422,0,0,0-1.942-.065A2.485,2.485,0,1,1,37.406,48.3a1.348,1.348,0,0,0,1.045-.416,1.42,1.42,0,0,0,.415-1.044,2.473,2.473,0,0,1,.721-1.832,2.555,2.555,0,0,1,3.528,0,2.494,2.494,0,0,1,.1,3.4,1.42,1.42,0,0,0,.065,1.941l2.186,2.186a16.087,16.087,0,0,0-2.606,2.137Zm27.673-2.138,2.186-2.186a1.42,1.42,0,0,0,.065-1.941,2.494,2.494,0,0,1,.1-3.4,2.557,2.557,0,0,1,3.528,0,2.477,2.477,0,0,1,.722,1.833,1.42,1.42,0,0,0,.415,1.044A1.392,1.392,0,0,0,78.6,48.3a2.453,2.453,0,0,1,1.832.72,2.485,2.485,0,0,1-3.395,3.629,1.421,1.421,0,0,0-1.942.065l-1.954,1.95a16.087,16.087,0,0,0-2.6-2.134Zm-27.256,32a1.42,1.42,0,0,0-.065,1.941,2.494,2.494,0,0,1-.1,3.4,2.557,2.557,0,0,1-3.528,0,2.477,2.477,0,0,1-.721-1.833,1.42,1.42,0,0,0-.415-1.044,1.392,1.392,0,0,0-1.045-.416,2.485,2.485,0,1,1,1.562-4.349,1.422,1.422,0,0,0,1.942-.065l5.886-5.886v4.741Zm25.927-3.515V76.273l5.886,5.886a1.42,1.42,0,0,0,1.942.065A2.485,2.485,0,1,1,78.6,86.572a1.4,1.4,0,0,0-1.045.416,1.42,1.42,0,0,0-.415,1.044,2.473,2.473,0,0,1-.722,1.832,2.555,2.555,0,0,1-3.528,0,2.494,2.494,0,0,1-.1-3.4,1.42,1.42,0,0,0-.065-1.941Z" transform="translate(-5.999 -19.752)"/>
      <path id="Trazado_165152" data-name="Trazado 165152" d="M63.393,73.084c-1.5,0-2.666,1.439-2.666,3.276,0,1.123.462,2.462,2.666,2.462s2.666-1.339,2.666-2.462C66.059,74.523,64.888,73.084,63.393,73.084Z" transform="translate(-11.386 -25.686)"/>
    </g>
  </g>
</svg>
