<svg xmlns="http://www.w3.org/2000/svg" width="73.255" height="92.709" viewBox="0 0 73.255 92.709">
  <g id="Grupo_109169" data-name="Grupo 109169" transform="translate(-1670.067 292.466)">
    <path id="Trazado_166372" data-name="Trazado 166372" d="M1707.531-288.917l2.66,0c.064,1.438.064,1.438,1.5,1.438,6.189,0,12.377.007,18.566-.011a1.146,1.146,0,0,1,1.2.672,21.713,21.713,0,0,0,17.2,11.591c.754.094.9.311.9,1.019q-.038,13.993-.013,27.986a57.248,57.248,0,0,1-.347,6.685,41.372,41.372,0,0,1-6.576,18.188,52.341,52.341,0,0,1-16.842,15.77,52.1,52.1,0,0,1-7.575,4,2.184,2.184,0,0,0-.437-.3,57.883,57.883,0,0,1-7.739-3.7,58.892,58.892,0,0,1-11.706-8.544,46.2,46.2,0,0,1-8.844-11.24,41.71,41.71,0,0,1-4.08-10.491,57.985,57.985,0,0,1-1.268-13.7q0-12.9,0-25.8a.6.6,0,0,1,.157-.087,21.8,21.8,0,0,0,15.653-11.558.882.882,0,0,1,.941-.49c1.72.018,3.44.007,5.161.007C1707.466-287.477,1707.466-287.477,1707.531-288.917Zm35.289,31.425q0-1.3,0-2.609c1.289-.082,1.289-.082,1.289-1.4,0-2.657-.056-5.317.028-7.972.033-1.028-.3-1.349-1.28-1.539a22.737,22.737,0,0,1-15.192-10.183,1.272,1.272,0,0,0-1.228-.668c-6.885.022-13.77.043-20.655-.013a2.713,2.713,0,0,0-2.621,1.319,22.706,22.706,0,0,1-15.142,9.653c-.675.126-.859.366-.856,1.04q.039,10.554.014,21.109a38.409,38.409,0,0,0,.545,6.941q4.461,24.446,27.257,34.353a1.6,1.6,0,0,0,1.361,0,43.61,43.61,0,0,0,18.072-13.489,43.846,43.846,0,0,0,9.525-23.926c.323-3.739.108-7.485.167-11.227C1744.13-257.416,1744.112-257.416,1742.82-257.492Z" transform="translate(-8.955 -2.261)" fill="#98b5f0"/>
    <path id="Trazado_166373" data-name="Trazado 166373" d="M1709.247-203.833a52.108,52.108,0,0,0,7.575-4,52.343,52.343,0,0,0,16.842-15.77,41.374,41.374,0,0,0,6.577-18.188,57.328,57.328,0,0,0,.347-6.685q-.013-13.993.013-27.986c0-.709-.144-.926-.9-1.019a21.714,21.714,0,0,1-17.2-11.591,1.146,1.146,0,0,0-1.2-.672c-6.189.018-12.377.011-18.566.011-1.436,0-1.436,0-1.5-1.438.058-1.282.058-1.282,1.372-1.282q10.236,0,20.473-.009a.975.975,0,0,1,1.083.639c3.629,7.588,9.61,11.611,18.081,11.727.87.012,1.08.205,1.077,1.079-.036,10.75.048,21.5-.049,32.25-.117,13.068-5.094,24.08-14.469,33.123a69.9,69.9,0,0,1-21.6,13.779,1.113,1.113,0,0,1-.938.018c-12.732-5.234-23.289-13.118-30.328-25.175a42.826,42.826,0,0,1-5.828-21.669c-.062-10.84-.011-21.681-.04-32.522,0-.744.228-.867.908-.874,8.586-.082,14.642-4.116,18.292-11.832a.8.8,0,0,1,.873-.541c2.355.017,4.71.008,7.065.008,1.312,0,1.312,0,1.371,1.279-.065,1.441-.065,1.441-1.493,1.441-1.72,0-3.441.011-5.161-.007a.882.882,0,0,0-.941.49,21.8,21.8,0,0,1-15.653,11.558.6.6,0,0,0-.157.087,12.71,12.71,0,0,1-1.616.149c-.66-.019-.766.268-.765.863.021,10.021-.034,20.043.038,30.064a40.14,40.14,0,0,0,5.631,20.515c6.521,10.986,16.246,18.191,27.76,23.237a.818.818,0,0,0,.768.047A18.662,18.662,0,0,0,1709.247-203.833Z" transform="translate(0 0)" fill="#020303"/>
    <path id="Trazado_166374" data-name="Trazado 166374" d="M1776.731-243.117q0,1.3,0,2.609c-1.423.079-1.422.079-1.423,1.534,0,2.566.038,5.133-.012,7.7a41.771,41.771,0,0,1-12.874,29.739c-.456.455-.679.44-1.1-.042-2.233-2.578-4.563-5.073-6.73-7.7a3.176,3.176,0,0,0-3.006-1.274c-.567.046-.7.195-.69.732q.041,3.531,0,7.063a1.849,1.849,0,0,0,.468,1.305c1.326,1.565,2.624,3.154,3.933,4.734.192.232.444.437-.009.685a25.416,25.416,0,0,1-3.184,1.688.858.858,0,0,0-.5-.359,43.154,43.154,0,0,1-12.549-8.258,4.669,4.669,0,0,0-1.635-1.21c-.018-2.746-.029-5.493-.062-8.24a1.109,1.109,0,0,1,.456-.834q1.794-1.794,3.587-3.588c.858-.862,1.708-1.732,2.723-2.763,0,2.009.024,3.752-.014,5.493-.013.586.141.759.742.754,3.11-.031,6.221-.041,9.331.005.722.011.827-.233.815-.868-.038-2.144.022-4.289-.035-6.432-.02-.748.228-.888.911-.875,2.174.042,4.349-.008,6.522.031.616.011.746-.191.741-.767q-.039-4.665,0-9.331c.005-.586-.141-.775-.744-.765-2.113.034-4.229-.029-6.34.034-.836.025-1.132-.133-1.1-1.05.081-2.111.007-4.227.038-6.341.008-.567-.11-.788-.731-.764-1.327.05-2.658-.019-3.985.03-.617.023-.748-.188-.739-.765.033-2.144.021-4.288.006-6.432a2.973,2.973,0,0,1,.285-1.3c1.583-3.447,3.143-6.9,4.73-10.35.438-.951.594-2.288,1.425-2.731s2.061-.1,3.116-.134a.942.942,0,0,1,.893.452A25.431,25.431,0,0,0,1774.71-251.7c.5.127.608.327.6.791-.021,2.083-.009,4.167-.009,6.251C1775.3-243.207,1775.3-243.207,1776.731-243.117Z" transform="translate(-42.863 -19.245)" fill="#e3ebf3"/>
    <path id="Trazado_166375" data-name="Trazado 166375" d="M1748.158-247.747c-1.426-.09-1.426-.09-1.426-1.536,0-2.084-.011-4.168.009-6.251,0-.464-.108-.664-.6-.791a25.431,25.431,0,0,1-14.712-10.012.942.942,0,0,0-.893-.452c-1.055.037-2.289-.306-3.116.134s-.987,1.78-1.425,2.731c-1.588,3.445-3.147,6.9-4.73,10.35a2.973,2.973,0,0,0-.285,1.3c.015,2.144.026,4.289-.006,6.432-.009.577.121.787.739.765,1.327-.049,2.658.02,3.985-.031.621-.024.74.2.731.764-.031,2.114.043,4.23-.038,6.341-.035.916.261,1.075,1.1,1.05,2.112-.063,4.227,0,6.34-.034.6-.01.749.179.744.765q-.043,4.665,0,9.331c0,.576-.125.778-.741.767-2.173-.039-4.348.011-6.522-.031-.683-.013-.931.127-.911.875.057,2.143,0,4.288.035,6.432.011.635-.093.879-.815.868-3.11-.046-6.221-.037-9.331-.005-.6.006-.755-.168-.742-.754.038-1.741.014-3.484.014-5.493-1.015,1.031-1.865,1.9-2.723,2.763q-1.789,1.8-3.587,3.588a1.109,1.109,0,0,0-.456.834c.033,2.746.044,5.493.062,8.24-.018.964-.02,1.929-.062,2.892a.979.979,0,0,0,.459.818,42.439,42.439,0,0,0,11.26,7.13.9.9,0,0,0,.849.052,17.907,17.907,0,0,0,2.177-1.063,25.416,25.416,0,0,0,3.184-1.688c.453-.248.2-.453.009-.685-1.309-1.579-2.608-3.168-3.933-4.734a1.849,1.849,0,0,1-.468-1.305q.037-3.531,0-7.063c-.007-.538.123-.686.69-.732a3.176,3.176,0,0,1,3.006,1.274c2.167,2.631,4.5,5.126,6.73,7.7.418.483.641.5,1.1.042a41.771,41.771,0,0,0,12.874-29.739c.05-2.564.011-5.131.012-7.7,0-1.455,0-1.455,1.423-1.534,1.292.076,1.31.076,1.289,1.389-.059,3.742.156,7.488-.167,11.227a43.849,43.849,0,0,1-9.525,23.926,43.611,43.611,0,0,1-18.073,13.489,1.6,1.6,0,0,1-1.361,0q-22.774-9.923-27.257-34.353a38.4,38.4,0,0,1-.545-6.941q.01-10.555-.014-21.109c0-.673.182-.914.856-1.04A22.706,22.706,0,0,0,1708.5-268.2a2.713,2.713,0,0,1,2.622-1.319c6.885.057,13.77.036,20.655.013a1.271,1.271,0,0,1,1.227.668,22.737,22.737,0,0,0,15.192,10.183c.977.19,1.312.51,1.28,1.539-.085,2.655-.028,5.314-.028,7.972C1749.447-247.829,1749.447-247.829,1748.158-247.747Zm-34.6-19c-1.679-.29-3.067-.028-4.009,1.646a3.8,3.8,0,0,0-.72,2.125,41.375,41.375,0,0,1,0,4.33,4.656,4.656,0,0,0,1.046,3.41c.58.715,1.035,1.533,1.545,2.306l.152-.1v-3.334c1.768-3.259,3.3-6.632,4.945-9.953.195-.4.016-.473-.333-.466C1715.31-266.764,1714.436-266.755,1713.561-266.742Zm-.735,32.551c-.661-.013-1.324,0-1.983-.045-.538-.036-.762.139-.728.707.042.72.01,1.443.01,2.166,0,2.649,0,2.649,2.7,2.466,1.566.016,3.133.058,4.7.035.591-.009.771.164.759.763-.033,1.6,0,3.2.015,4.793-.01.664,0,1.329-.037,1.991-.03.5.19.611.638.6q2.083-.029,4.167,0c.448.007.669-.109.638-.6-.04-.662-.027-1.327-.037-1.991.01-1.568.058-3.138.011-4.7-.02-.687.18-.868.856-.855,2.172.043,4.345-.007,6.516.03.645.011.822-.2.8-.821-.044-1.3-.041-2.6,0-3.892.018-.58-.206-.705-.735-.7-2.142.023-4.285-.024-6.426.027-.763.018-1.043-.133-1.016-.973.068-2.14,0-4.284.035-6.426.008-.573-.13-.794-.744-.772-1.266.046-2.536.05-3.8,0-.689-.028-.93.145-.912.883.052,2.171,0,4.345.032,6.517.01.594-.158.776-.755.767C1715.961-234.249,1714.393-234.207,1712.826-234.191Zm-15.034-22.627a14.837,14.837,0,0,1-1.828.463c-.63.081-.746.376-.744.954.024,6.671-.071,13.343.049,20.012a40.879,40.879,0,0,0,9.52,25.692c.367.451.763.878,1.255,1.441v-4.36c.012-1.72.046-3.44.024-5.159a1.682,1.682,0,0,1,.55-1.346c2.112-2.072,4.2-4.173,6.282-6.269a1.367,1.367,0,0,0,.541-.747c-1.8,0-3.513-.024-5.226.013-.6.013-.83-.114-.822-.779q.056-4.664,0-9.328c-.007-.607.173-.761.756-.753,2.2.031,4.408-.012,6.61.028.62.011.822-.136.806-.78-.044-1.81-.016-3.622-.016-5.434,0-1.906,0-1.944,1.9-1.9.713.017.839-.213.828-.865-.04-2.294-.007-4.588-.022-6.883a3.162,3.162,0,0,1,.311-1.385q2.712-5.907,5.384-11.833c.1-.223.332-.431.185-.745-1.213,0-2.421.034-3.626-.015a.993.993,0,0,0-1.089.67q-2.359,4.927-4.787,9.822a3.156,3.156,0,0,0-.323,1.473c.018,1.962.007,3.925.007,5.887,0,1.349-.006,1.271-1.389,1.376a1.916,1.916,0,0,1-2-1.1c-1.317-2.126-2.708-4.207-4.123-6.27a3.534,3.534,0,0,1-.691-2.255c.056-1.4.015-2.8.015-4.383A28.312,28.312,0,0,1,1697.792-256.819Zm27.461,46.212-.243.075a13.21,13.21,0,0,1-.008,1.325,3.112,3.112,0,0,0,.879,2.623c.87.916,1.635,1.931,2.448,2.9,1.112,1.328,1.1,1.315,2.432.209.368-.306.392-.506.061-.86-.741-.792-1.435-1.627-2.154-2.439Q1726.965-208.694,1725.253-210.607Z" transform="translate(-14.29 -14.615)" fill="#030303"/>
    <path id="Trazado_166376" data-name="Trazado 166376" d="M1714.021-177.767a18.662,18.662,0,0,1-2.262,1.1.817.817,0,0,1-.767-.047c-11.513-5.046-21.239-12.251-27.76-23.237a40.14,40.14,0,0,1-5.631-20.515c-.072-10.021-.017-20.042-.038-30.064,0-.594.106-.881.765-.863a12.706,12.706,0,0,0,1.617-.149q0,12.9,0,25.8a57.985,57.985,0,0,0,1.268,13.7,41.71,41.71,0,0,0,4.08,10.491,46.2,46.2,0,0,0,8.844,11.24,58.892,58.892,0,0,0,11.706,8.544,57.883,57.883,0,0,0,7.739,3.7A2.184,2.184,0,0,1,1714.021-177.767Z" transform="translate(-4.775 -26.066)" fill="#6592e9"/>
    <path id="Trazado_166377" data-name="Trazado 166377" d="M1752.1-92.455a17.906,17.906,0,0,1-2.177,1.063.9.9,0,0,1-.849-.052,42.439,42.439,0,0,1-11.26-7.13.979.979,0,0,1-.459-.818c.042-.963.044-1.927.062-2.892a4.669,4.669,0,0,1,1.635,1.21,43.154,43.154,0,0,0,12.549,8.258A.858.858,0,0,1,1752.1-92.455Z" transform="translate(-42.861 -121.139)" fill="#c6d6e7"/>
    <path id="Trazado_166378" data-name="Trazado 166378" d="M1707.033-252.041a28.312,28.312,0,0,0,8.343-4.758c0,1.582.041,2.985-.015,4.383a3.534,3.534,0,0,0,.691,2.255c1.415,2.063,2.806,4.144,4.123,6.27a1.916,1.916,0,0,0,2,1.1c1.383-.1,1.389-.026,1.389-1.376,0-1.962.011-3.925-.007-5.887a3.156,3.156,0,0,1,.323-1.473q2.416-4.9,4.787-9.822a.993.993,0,0,1,1.089-.67c1.205.049,2.413.015,3.626.015.146.313-.084.522-.185.745q-2.679,5.922-5.384,11.833a3.162,3.162,0,0,0-.311,1.385c.015,2.294-.018,4.589.022,6.883.011.652-.115.882-.828.865-1.9-.045-1.9-.006-1.9,1.9,0,1.812-.029,3.623.016,5.434.016.644-.186.791-.806.78-2.2-.039-4.407,0-6.61-.028-.583-.008-.763.146-.756.753q.049,4.664,0,9.328c-.008.665.218.792.822.779,1.713-.038,3.427-.013,5.226-.013a1.367,1.367,0,0,1-.541.747c-2.087,2.1-4.17,4.2-6.282,6.269a1.682,1.682,0,0,0-.55,1.346c.022,1.719-.012,3.439-.024,5.159a19.111,19.111,0,0,1-3.261-4.7,40.287,40.287,0,0,1-4.979-19.325c-.073-3.4-.015-6.812-.008-10.218,0-.317-.11-.675.217-.921.718,0,1.436-.017,2.154-.009.323,0,.46-.091.5-.448.271-2.181.193-2.283-1.987-2.276-.239,0-.478.013-.717.02a1.855,1.855,0,0,1-.176-1.041Q1707.035-249.4,1707.033-252.041Zm5.574,7.519c0,1.5,0,1.5,1.063,1.5,1.658,0,1.658,0,1.658-1.1,0-1.625,0-1.625-1.121-1.625C1712.607-245.74,1712.607-245.74,1712.607-244.522Z" transform="translate(-23.531 -19.394)" fill="#e3ebf3"/>
    <path id="Trazado_166379" data-name="Trazado 166379" d="M1753.957-175.715c-.01-1.6-.048-3.2-.015-4.793.012-.6-.167-.772-.759-.763-1.566.023-3.133-.019-4.7-.035q0-2.647,0-5.293c1.567-.016,3.135-.058,4.7-.034.6.009.765-.174.755-.767-.035-2.172.02-4.346-.032-6.517-.018-.738.224-.911.912-.883,1.265.051,2.535.047,3.8,0,.615-.022.752.2.744.772-.03,2.142.034,4.286-.035,6.426-.027.84.253.991,1.016.973,2.141-.051,4.284,0,6.426-.027.529-.005.753.12.735.7-.04,1.3-.043,2.6,0,3.892.021.622-.156.832-.8.821-2.172-.037-4.345.013-6.516-.03-.676-.013-.876.168-.856.855.046,1.567,0,3.136-.011,4.7Z" transform="translate(-49.948 -62.207)" fill="#de5e76"/>
    <path id="Trazado_166380" data-name="Trazado 166380" d="M1702.538-234.533q0,2.641,0,5.281a1.858,1.858,0,0,0,.176,1.041,17.425,17.425,0,0,0,.046,2.713c-.327.246-.216.6-.217.921-.007,3.406-.064,6.814.008,10.218a40.287,40.287,0,0,0,4.979,19.325,19.108,19.108,0,0,0,3.261,4.7v4.36c-.492-.563-.888-.99-1.255-1.441a40.88,40.88,0,0,1-9.52-25.692c-.121-6.669-.025-13.341-.049-20.012,0-.578.114-.873.743-.954A14.823,14.823,0,0,0,1702.538-234.533Z" transform="translate(-19.037 -36.901)" fill="#c5d6e6"/>
    <path id="Trazado_166381" data-name="Trazado 166381" d="M1740.2-251.667v3.334l-.152.1c-.511-.772-.965-1.59-1.545-2.306a4.656,4.656,0,0,1-1.046-3.41,41.375,41.375,0,0,0,0-4.33,3.8,3.8,0,0,1,.72-2.125c.942-1.674,2.33-1.936,4.009-1.646a10.147,10.147,0,0,1-1.466,2.029,2.035,2.035,0,0,0-.542,1.384C1740.2-256.312,1740.193-253.99,1740.2-251.667Z" transform="translate(-42.915 -19.31)" fill="#4e6173"/>
    <path id="Trazado_166382" data-name="Trazado 166382" d="M1745-251.556c0-2.323,0-4.645-.019-6.967a2.035,2.035,0,0,1,.542-1.384,10.152,10.152,0,0,0,1.466-2.029c.874-.012,1.749-.022,2.623-.039.35-.007.528.07.333.466C1748.3-258.188,1746.767-254.815,1745-251.556Z" transform="translate(-47.716 -19.421)" fill="#5b7389"/>
    <path id="Trazado_166383" data-name="Trazado 166383" d="M1782.239-107.242q1.708,1.917,3.415,3.834c.72.812,1.413,1.647,2.154,2.439.332.354.307.554-.061.86-1.329,1.106-1.32,1.119-2.432-.209-.813-.97-1.578-1.986-2.448-2.9a3.112,3.112,0,0,1-.879-2.623,13.21,13.21,0,0,0,.008-1.325Z" transform="translate(-71.276 -117.981)" fill="#4c5e70"/>
    <path id="Trazado_166384" data-name="Trazado 166384" d="M1743.723-172.292q0,2.647,0,5.293c-2.7.183-2.7.183-2.7-2.466,0-.722.032-1.446-.01-2.166-.033-.568.19-.742.728-.707C1742.4-172.295,1743.062-172.305,1743.723-172.292Z" transform="translate(-45.187 -76.514)" fill="#cd3347"/>
    <path id="Trazado_166385" data-name="Trazado 166385" d="M1763.489-142.224h5.369c.01.664,0,1.329.037,1.991.031.5-.19.611-.638.6q-2.083-.029-4.167,0c-.448.007-.669-.109-.639-.6C1763.492-140.9,1763.479-141.56,1763.489-142.224Z" transform="translate(-59.48 -95.698)" fill="#cf3448"/>
    <path id="Trazado_166386" data-name="Trazado 166386" d="M1707.55-214.443a17.455,17.455,0,0,1-.046-2.713c.239-.007.478-.02.717-.02,2.18-.007,2.258.095,1.987,2.276-.044.357-.182.452-.5.448C1708.986-214.46,1708.268-214.447,1707.55-214.443Z" transform="translate(-23.827 -47.957)" fill="#080909"/>
    <path id="Trazado_166387" data-name="Trazado 166387" d="M1722.428-215.96c0-1.218,0-1.218,1.6-1.218,1.122,0,1.122,0,1.121,1.625,0,1.1,0,1.1-1.658,1.1C1722.428-214.457,1722.428-214.457,1722.428-215.96Z" transform="translate(-33.352 -47.956)" fill="#080909"/>
  </g>
</svg>
