<svg xmlns="http://www.w3.org/2000/svg" width="105.407" height="100" viewBox="0 0 105.407 100">
  <g id="virus" transform="translate(0 -13.131)">
    <g id="Grupo_107320" data-name="Grupo 107320" transform="translate(56.031 75.817)">
      <g id="Grupo_107316" data-name="Grupo 107316" transform="translate(3.12 0)">
        <path id="Trazado_163566" data-name="Trazado 163566" d="M328.908,346.734H287.315V319.7a2.08,2.08,0,0,1,2.08-2.08h37.434a2.08,2.08,0,0,1,2.08,2.08Z" transform="translate(-287.315 -317.619)" fill="#b893f5"/>
      </g>
      <g id="Grupo_107317" data-name="Grupo 107317" transform="translate(38.105)">
        <path id="Trazado_163567" data-name="Trazado 163567" d="M461.779,317.619h-4.528a2.08,2.08,0,0,1,2.08,2.08v27.035h4.528V319.7A2.08,2.08,0,0,0,461.779,317.619Z" transform="translate(-457.251 -317.619)" fill="#ff6148"/>
      </g>
      <g id="Grupo_107318" data-name="Grupo 107318" transform="translate(0 29.115)">
        <path id="Trazado_163568" data-name="Trazado 163568" d="M317.914,465.7H274.242a2.08,2.08,0,0,1-2.08-2.08v-4.575h47.832v4.575A2.08,2.08,0,0,1,317.914,465.7Z" transform="translate(-272.162 -459.041)" fill="#efecef"/>
      </g>
      <g id="Grupo_107319" data-name="Grupo 107319" transform="translate(41.361 29.115)">
        <path id="Trazado_163569" data-name="Trazado 163569" d="M475.146,459.042v4.575a2.08,2.08,0,0,1-2.08,2.08h4.392a2.08,2.08,0,0,0,2.08-2.08v-4.575Z" transform="translate(-473.066 -459.042)" fill="#dddaec"/>
      </g>
    </g>
    <g id="Grupo_107325" data-name="Grupo 107325" transform="translate(1.544 75.817)">
      <g id="Grupo_107321" data-name="Grupo 107321" transform="translate(3.119 0)">
        <path id="Trazado_163570" data-name="Trazado 163570" d="M64.245,346.734H22.652V319.7a2.08,2.08,0,0,1,2.08-2.08H62.165a2.08,2.08,0,0,1,2.08,2.08Z" transform="translate(-22.652 -317.619)" fill="#b893f5"/>
      </g>
      <g id="Grupo_107322" data-name="Grupo 107322" transform="translate(38.104)">
        <path id="Trazado_163571" data-name="Trazado 163571" d="M197.116,317.619h-4.528a2.08,2.08,0,0,1,2.08,2.08v27.035H199.2V319.7A2.08,2.08,0,0,0,197.116,317.619Z" transform="translate(-192.588 -317.619)" fill="#ff6148"/>
      </g>
      <g id="Grupo_107323" data-name="Grupo 107323" transform="translate(0 29.115)">
        <path id="Trazado_163572" data-name="Trazado 163572" d="M53.252,465.7H9.58a2.08,2.08,0,0,1-2.08-2.08v-4.575H55.332v4.575A2.08,2.08,0,0,1,53.252,465.7Z" transform="translate(-7.5 -459.041)" fill="#efecef"/>
      </g>
      <g id="Grupo_107324" data-name="Grupo 107324" transform="translate(41.361 29.115)">
        <path id="Trazado_163573" data-name="Trazado 163573" d="M210.484,459.042v4.575a2.08,2.08,0,0,1-2.08,2.08H212.8a2.08,2.08,0,0,0,2.08-2.08v-4.575Z" transform="translate(-208.404 -459.042)" fill="#dddaec"/>
      </g>
    </g>
    <g id="Grupo_107339" data-name="Grupo 107339" transform="translate(21.508 14.675)">
      <g id="Grupo_107326" data-name="Grupo 107326" transform="translate(22.876)">
        <path id="Trazado_163574" data-name="Trazado 163574" d="M215.593,28.95a8.319,8.319,0,1,1,16.637,0Z" transform="translate(-215.593 -20.631)" fill="#b893f5"/>
      </g>
      <g id="Grupo_107327" data-name="Grupo 107327" transform="translate(17.885 8.319)">
        <path id="Trazado_163575" data-name="Trazado 163575" d="M191.35,79.755V65.2a4.159,4.159,0,0,1,4.159-4.159h18.3a4.159,4.159,0,0,1,4.159,4.159V79.755a13.31,13.31,0,1,1-26.619,0Z" transform="translate(-191.35 -61.038)" fill="#ffb476"/>
      </g>
      <g id="Grupo_107328" data-name="Grupo 107328" transform="translate(28.491 8.319)" style="mix-blend-mode: multiply;isolation: isolate">
        <path id="Trazado_163576" data-name="Trazado 163576" d="M254.722,61.038h-5.407a4.159,4.159,0,0,1,4.159,4.159V79.755a13.314,13.314,0,0,1-10.606,13.034,13.319,13.319,0,0,0,16.013-13.034V65.2A4.159,4.159,0,0,0,254.722,61.038Z" transform="translate(-242.868 -61.038)" fill="#ffb476"/>
      </g>
      <g id="Grupo_107329" data-name="Grupo 107329" transform="translate(55.735 19.693)">
        <circle id="Elipse_4997" data-name="Elipse 4997" cx="3.328" cy="3.328" r="3.328" fill="#ffb476"/>
      </g>
      <g id="Grupo_107331" data-name="Grupo 107331" transform="translate(51.575 6.383)">
        <g id="Grupo_107330" data-name="Grupo 107330">
          <circle id="Elipse_4998" data-name="Elipse 4998" cx="3.328" cy="3.328" r="3.328" fill="#ffb476"/>
        </g>
      </g>
      <g id="Grupo_107333" data-name="Grupo 107333" transform="translate(51.575 33.002)">
        <g id="Grupo_107332" data-name="Grupo 107332">
          <circle id="Elipse_4999" data-name="Elipse 4999" cx="3.328" cy="3.328" r="3.328" fill="#ffb476"/>
        </g>
      </g>
      <g id="Grupo_107334" data-name="Grupo 107334" transform="translate(0 19.693)">
        <circle id="Elipse_5000" data-name="Elipse 5000" cx="3.328" cy="3.328" r="3.328" fill="#ffb476"/>
      </g>
      <g id="Grupo_107336" data-name="Grupo 107336" transform="translate(4.159 6.383)">
        <g id="Grupo_107335" data-name="Grupo 107335">
          <circle id="Elipse_5001" data-name="Elipse 5001" cx="3.328" cy="3.328" r="3.328" fill="#ffb476"/>
        </g>
      </g>
      <g id="Grupo_107338" data-name="Grupo 107338" transform="translate(4.159 33.002)">
        <g id="Grupo_107337" data-name="Grupo 107337">
          <circle id="Elipse_5002" data-name="Elipse 5002" cx="3.328" cy="3.328" r="3.328" fill="#ffb476"/>
        </g>
      </g>
    </g>
    <g id="Grupo_107340" data-name="Grupo 107340" transform="translate(49.376 62.507)">
      <circle id="Elipse_5003" data-name="Elipse 5003" cx="3.328" cy="3.328" r="3.328" fill="#ffb476"/>
    </g>
    <path id="Trazado_163577" data-name="Trazado 163577" d="M103.863,103.388h-1.575V77.9a3.628,3.628,0,0,0-3.623-3.623H94.882a1.544,1.544,0,0,0,0,3.088h3.782a.536.536,0,0,1,.535.535v25.491H60.7V77.9a.536.536,0,0,1,.535-.535H87.677a1.544,1.544,0,0,0,0-3.088H81.491V65.834a1.544,1.544,0,0,0-1.544-1.544H57.323a4.893,4.893,0,0,0-3.075-3.075V56.483a14.878,14.878,0,0,0,11.431-7.554l3.442,3.206a1.544,1.544,0,0,0,1.052.414h1.62a4.872,4.872,0,1,0,0-3.088H70.78L66.952,45.9a14.805,14.805,0,0,0,.6-4.186V39.239h8.394a4.872,4.872,0,1,0,0-3.088H67.557V28.883l3.217-2.953h1.018a4.872,4.872,0,1,0,0-3.088h-1.62a1.543,1.543,0,0,0-1.044.407l-1.971,1.81a5.716,5.716,0,0,0-4.707-3.577,9.863,9.863,0,0,0-19.493,0,5.716,5.716,0,0,0-4.707,3.577l-1.971-1.81a1.543,1.543,0,0,0-1.044-.407h-1.62a4.871,4.871,0,1,0,0,3.088h1.018l3.217,2.953v7.268H29.455a4.871,4.871,0,1,0,0,3.088H37.85V41.71a14.853,14.853,0,0,0,.605,4.185l-3.828,3.566H33.615a4.871,4.871,0,1,0,0,3.088h1.62a1.543,1.543,0,0,0,1.052-.414l3.44-3.2a14.741,14.741,0,0,0,1.642,2.377,1.544,1.544,0,0,0,2.354-2,11.75,11.75,0,0,1-2.785-7.6V27.152a2.617,2.617,0,0,1,2.615-2.615h7.607V40.2a1.544,1.544,0,1,0,3.088,0V24.538h7.607a2.617,2.617,0,0,1,2.615,2.615V41.71A11.774,11.774,0,0,1,48.94,52.86a1.544,1.544,0,1,0-.988,2.926,14.767,14.767,0,0,0,3.207.694v4.734a4.893,4.893,0,0,0-3.075,3.075H25.46a1.544,1.544,0,0,0-1.544,1.544v8.438H6.743A3.628,3.628,0,0,0,3.119,77.9v25.491H1.544A1.544,1.544,0,0,0,0,104.931v4.576a3.628,3.628,0,0,0,3.623,3.624H6.289a1.544,1.544,0,0,0,0-3.088H3.623a.536.536,0,0,1-.535-.535v-3.032H47.832v3.032a.536.536,0,0,1-.535.535h-33.8a1.544,1.544,0,0,0,0,3.088H47.3a3.628,3.628,0,0,0,3.623-3.624v-4.576a1.544,1.544,0,0,0-1.544-1.544H47.8V77.9a3.628,3.628,0,0,0-3.624-3.624H27V67.378h21.08a4.87,4.87,0,0,0,9.239,0H78.4v6.894H61.23A3.628,3.628,0,0,0,57.607,77.9v25.492H56.031a1.544,1.544,0,0,0-1.544,1.544v4.575a3.628,3.628,0,0,0,3.624,3.624h43.673a3.628,3.628,0,0,0,3.624-3.624v-4.575a1.544,1.544,0,0,0-1.544-1.544ZM76.411,49.221A1.783,1.783,0,1,1,74.628,51,1.786,1.786,0,0,1,76.411,49.221Zm4.159-13.31A1.783,1.783,0,1,1,78.787,37.7a1.786,1.786,0,0,1,1.783-1.783ZM76.411,22.6a1.783,1.783,0,1,1-1.783,1.783A1.786,1.786,0,0,1,76.411,22.6ZM29,26.169a1.783,1.783,0,1,1,1.783-1.783A1.786,1.786,0,0,1,29,26.169Zm-4.159,13.31A1.783,1.783,0,1,1,26.619,37.7,1.786,1.786,0,0,1,24.836,39.478ZM29,52.788A1.783,1.783,0,1,1,30.779,51,1.786,1.786,0,0,1,29,52.788ZM52.7,16.219A6.785,6.785,0,0,1,59.3,21.45H46.108A6.785,6.785,0,0,1,52.7,16.219ZM44.712,77.9v25.491H6.207V77.9a.536.536,0,0,1,.536-.536H44.177A.536.536,0,0,1,44.712,77.9ZM52.7,67.618a1.783,1.783,0,1,1,1.783-1.783A1.786,1.786,0,0,1,52.7,67.618Zm49.615,41.889a.536.536,0,0,1-.536.536H58.111a.536.536,0,0,1-.536-.536v-3.031h44.744Z"/>
  </g>
</svg>
