<svg xmlns="http://www.w3.org/2000/svg" width="130" height="130" viewBox="0 0 130 130">
  <g id="Grupo_157976" data-name="Grupo 157976" transform="translate(-285 -539)">
    <circle id="Elipse_5541" data-name="Elipse 5541" cx="65" cy="65" r="65" transform="translate(285 539)" fill="#083142"/>
    <circle id="Elipse_5553" data-name="Elipse 5553" cx="56" cy="56" r="56" transform="translate(294 548)" fill="#fff"/>
    <path id="sensors" d="M45.286,50.895H28.753a5.614,5.614,0,0,1-5.609-5.609V28.753a5.614,5.614,0,0,1,5.609-5.609H45.286a5.614,5.614,0,0,1,5.609,5.609V45.286A5.614,5.614,0,0,1,45.286,50.895ZM28.753,24.915a3.845,3.845,0,0,0-3.838,3.838V45.286a3.845,3.845,0,0,0,3.838,3.838H45.286a3.845,3.845,0,0,0,3.838-3.838V28.753a3.845,3.845,0,0,0-3.838-3.838ZM45.286,46.171H28.753a.892.892,0,0,1-.886-.886V28.753a.892.892,0,0,1,.886-.886H45.286a.892.892,0,0,1,.886.886V45.286A.892.892,0,0,1,45.286,46.171ZM29.639,44.4H44.4V29.639H29.639Zm7.38-2.952a4.428,4.428,0,1,1,4.428-4.428A4.43,4.43,0,0,1,37.019,41.448Zm0-7.085a2.657,2.657,0,1,0,2.657,2.657A2.661,2.661,0,0,0,37.019,34.363ZM50.163,10.957a.891.891,0,0,0,0-1.252,18.559,18.559,0,0,0-26.286,0,.885.885,0,1,0,1.252,1.252,16.792,16.792,0,0,1,23.783,0,.884.884,0,0,0,1.252,0Zm-3.33,3.33a.891.891,0,0,0,0-1.252,13.884,13.884,0,0,0-19.626,0,.885.885,0,0,0,1.252,1.252,12.116,12.116,0,0,1,17.123,0,.884.884,0,0,0,1.252,0ZM31.8,17.629a7.384,7.384,0,0,1,10.439,0,.885.885,0,1,0,1.252-1.252,9.151,9.151,0,0,0-12.942,0,.891.891,0,0,0,0,1.252.884.884,0,0,0,1.252,0Zm18.363,46.7a.885.885,0,0,0-1.252-1.252,16.792,16.792,0,0,1-23.783,0,.885.885,0,0,0-1.252,1.252,18.559,18.559,0,0,0,26.286,0ZM46.833,61a.885.885,0,1,0-1.252-1.252,12.116,12.116,0,0,1-17.123,0A.885.885,0,0,0,27.206,61a13.884,13.884,0,0,0,19.626,0Zm-3.342-3.342a.885.885,0,0,0-1.252-1.252,7.384,7.384,0,0,1-10.439,0,.885.885,0,0,0-1.252,1.252,9.151,9.151,0,0,0,12.942,0Zm20.843-7.5a18.56,18.56,0,0,0,0-26.286.885.885,0,1,0-1.252,1.252,16.792,16.792,0,0,1,0,23.783.891.891,0,0,0,0,1.252.884.884,0,0,0,1.252,0ZM61,46.833a13.884,13.884,0,0,0,0-19.626.885.885,0,0,0-1.252,1.252,12.116,12.116,0,0,1,0,17.123.891.891,0,0,0,0,1.252.884.884,0,0,0,1.252,0Zm-3.342-3.342a9.151,9.151,0,0,0,0-12.942A.885.885,0,1,0,56.409,31.8a7.384,7.384,0,0,1,0,10.439.891.891,0,0,0,0,1.252.884.884,0,0,0,1.252,0Zm-46.7,6.672a.891.891,0,0,0,0-1.252,16.792,16.792,0,0,1,0-23.783.885.885,0,0,0-1.252-1.252,18.56,18.56,0,0,0,0,26.286.884.884,0,0,0,1.252,0Zm3.33-3.33a.891.891,0,0,0,0-1.252,12.116,12.116,0,0,1,0-17.123.885.885,0,0,0-1.252-1.252,13.884,13.884,0,0,0,0,19.626.884.884,0,0,0,1.252,0Zm3.342-3.342a.891.891,0,0,0,0-1.252,7.384,7.384,0,0,1,0-10.439.885.885,0,0,0-1.252-1.252,9.151,9.151,0,0,0,0,12.942.884.884,0,0,0,1.252,0Z" transform="translate(313.25 567.25)" fill="#083142" stroke="#083142" stroke-width="1"/>
  </g>
</svg>
