<svg xmlns="http://www.w3.org/2000/svg" width="130" height="130" viewBox="0 0 130 130">
  <g id="Grupo_157979" data-name="Grupo 157979" transform="translate(-285 -539)">
    <circle id="Elipse_5541" data-name="Elipse 5541" cx="65" cy="65" r="65" transform="translate(285 539)" fill="#083142"/>
    <circle id="Elipse_5553" data-name="Elipse 5553" cx="56" cy="56" r="56" transform="translate(294 548)" fill="#fff"/>
    <g id="wifi" transform="translate(312.237 586)">
      <g id="Grupo_157973" data-name="Grupo 157973" transform="translate(0 0)">
        <g id="Grupo_157972" data-name="Grupo 157972">
          <path id="Trazado_600976" data-name="Trazado 600976" d="M64.915,139.636H14.426A14.426,14.426,0,0,0,0,154.062v7.213A14.426,14.426,0,0,0,14.426,175.7h50.49a14.426,14.426,0,0,0,14.426-14.426v-7.213A14.426,14.426,0,0,0,64.915,139.636ZM31.1,149.843a1.575,1.575,0,0,1,.167,0,1.641,1.641,0,0,1,0,3.282,1.569,1.569,0,0,1-1.64-1.494c0-.043,0-.086,0-.129A1.569,1.569,0,0,1,31.1,149.843Zm1.754,4.561v10.477H29.681V154.4h3.174Zm-8.583,10.477H20.845l-1.19-6.221c-.27-1.461-.5-2.813-.667-4.454-.252,1.623-.487,2.993-.811,4.454l-1.37,6.221h-3.48l-3.318-14.426H13.4l1.028,5.933c.307,1.8.6,3.606.83,5.031.234-1.569.559-3.3.92-5.085l1.244-5.879h3.372l1.118,6.095c.307,1.695.541,3.228.739,4.851.216-1.6.523-3.3.811-5.013l1.208-5.933H27.9Zm51.463-3.606a10.819,10.819,0,0,1-10.819,10.819H28.851A10.819,10.819,0,0,0,39.67,161.275v-7.213A10.819,10.819,0,0,1,50.49,143.243H64.915a10.819,10.819,0,0,1,10.819,10.819Z" transform="translate(0 -139.636)" fill="#083142"/>
          <rect id="Rectángulo_45231" data-name="Rectángulo 45231" width="3.156" height="10.477" transform="translate(61.435 14.768)" fill="#083142"/>
          <path id="Trazado_600977" data-name="Trazado 600977" d="M397.844,205.566a1.639,1.639,0,0,0-.341,0,1.635,1.635,0,0,0-.131,3.265c.043,0,.086,0,.129,0a1.641,1.641,0,1,0,.344-3.264Z" transform="translate(-334.515 -195.342)" fill="#083142"/>
          <path id="Trazado_600978" data-name="Trazado 600978" d="M316.16,223.88h3.174v-5.824h5.013v-2.651h-5.031v-3.282h5.41v-2.669H316.16Z" transform="translate(-267.167 -198.636)" fill="#083142"/>
        </g>
      </g>
    </g>
  </g>
</svg>
