<svg xmlns="http://www.w3.org/2000/svg" width="140" height="140" viewBox="0 0 140 140">
  <g id="Grupo_157915" data-name="Grupo 157915" transform="translate(-355 -7255)">
    <circle id="Elipse_5032" data-name="Elipse 5032" cx="70" cy="70" r="70" transform="translate(355 7255)" fill="#083142"/>
    <g id="transferencia-de-datos" transform="translate(390 7290)">
      <path id="Trazado_600812" data-name="Trazado 600812" d="M39.667,44.667V40a2.333,2.333,0,0,0-2.333-2.333H28v-1.12a2.354,2.354,0,0,0-1.391-2.154,2.422,2.422,0,0,0-.943-.2V30.667c0-3.206-6.65-4.667-12.833-4.667S0,27.461,0,30.667V61c0,3.206,6.65,4.667,12.833,4.667S25.667,64.206,25.667,61V50.493a2.459,2.459,0,0,0,.943-.219A2.354,2.354,0,0,0,28,48.12V47h9.333A2.333,2.333,0,0,0,39.667,44.667ZM23.333,49.345v1.141c-.188.65-3.685,2.347-10.5,2.347A32.17,32.17,0,0,1,7,52.343V44.208a35.979,35.979,0,0,0,5.833.459,36.49,36.49,0,0,0,4.616-.3Zm-6.149-8.816a2.34,2.34,0,0,0-.826,1.609,34.54,34.54,0,0,1-3.524.2A32.171,32.171,0,0,1,7,41.843V34.875a35.98,35.98,0,0,0,5.833.458c3.916,0,8.017-.589,10.5-1.834v1.822ZM2.333,33.5a13.039,13.039,0,0,0,2.333.863v6.907C3.2,40.8,2.42,40.284,2.333,39.986Zm10.5-5.166c6.767,0,10.267,1.674,10.5,2.333C23.1,31.326,19.6,33,12.833,33c-6.812,0-10.31-1.7-10.5-2.312v-.008C2.523,30.03,6.021,28.333,12.833,28.333Zm-10.5,14.5a13.039,13.039,0,0,0,2.333.863v8.076C3.2,51.3,2.414,50.788,2.333,50.5Zm10.5,20.5C6,63.333,2.507,61.63,2.333,61V53.333a13.039,13.039,0,0,0,2.333.863v4.471a1.167,1.167,0,1,0,2.333,0V54.708a35.98,35.98,0,0,0,5.833.458c3.918,0,8.018-.589,10.5-1.835v7.651C23.159,61.63,19.664,63.333,12.833,63.333Zm14-18.667a1.167,1.167,0,0,0-1.167,1.167v2.3l-.145.009-6.836-5.826,6.836-5.787.145.02v2.287A1.167,1.167,0,0,0,26.833,40h10.5v4.667Z" transform="translate(0 4.333)" fill="#2efec7"/>
      <path id="Trazado_600813" data-name="Trazado 600813" d="M52.833,26C46.65,26,40,27.461,40,30.667V45.855a2.426,2.426,0,0,0-.933.2,2.356,2.356,0,0,0-1.4,2.155v1.12H28.333A2.333,2.333,0,0,0,26,51.667v4.667a2.333,2.333,0,0,0,2.333,2.333h9.333v1.12a2.355,2.355,0,0,0,1.39,2.154,2.45,2.45,0,0,0,1.031.233c.076,0,.152-.013.226-.02,1.392,2.4,7.133,3.513,12.519,3.513,6.183,0,12.833-1.461,12.833-4.667V30.667C65.667,27.461,59.017,26,52.833,26Zm0,2.333c6.767,0,10.267,1.674,10.5,2.333C63.1,31.326,59.6,33,52.833,33c-6.812,0-10.31-1.7-10.5-2.312v-.008C42.523,30.03,46.021,28.333,52.833,28.333ZM48.867,52.6a2.333,2.333,0,0,0-.373-.4L47,50.935V44.208a35.981,35.981,0,0,0,5.833.459c3.918,0,8.018-.589,10.5-1.835v7.653c-.181.647-3.675,2.348-10.5,2.348a33.819,33.819,0,0,1-3.968-.233Zm-6.533-9.767a13.039,13.039,0,0,0,2.333.863v5.265l-2.333-1.975Zm10.5-.5A32.171,32.171,0,0,1,47,41.843V34.875a35.98,35.98,0,0,0,5.833.458c3.916,0,8.017-.589,10.5-1.835v6.488C63.148,40.635,59.65,42.333,52.833,42.333ZM42.333,33.5a13.039,13.039,0,0,0,2.333.863v6.909C43.2,40.8,42.414,40.288,42.333,40Zm-3.5,22.834h-10.5V51.667h10.5A1.167,1.167,0,0,0,40,50.5V48.2l.144-.009L46.98,54.02l-6.837,5.787L40,59.787V57.5A1.167,1.167,0,0,0,38.833,56.333Zm14,7c-6.8,0-10.29-1.687-10.494-2.324l2.392-2.024a1.15,1.15,0,0,0,1.1.848A1.167,1.167,0,0,0,47,58.667v-1.6L48.488,55.8a2.368,2.368,0,0,0,.633-.838,36.567,36.567,0,0,0,3.712.2c3.918,0,8.02-.589,10.5-1.835v7.651C63.16,61.63,59.664,63.333,52.833,63.333Z" transform="translate(4.333 4.333)" fill="#2efec7"/>
      <path id="Trazado_600814" data-name="Trazado 600814" d="M34.1,7.722c-.008.008-.02.01-.028.02s-.012.02-.02.028a10.48,10.48,0,0,0,0,14.793c.008.008.01.02.02.028s.02.012.028.02a10.48,10.48,0,0,0,14.793,0c.008-.008.02-.01.028-.02s.012-.02.02-.028a10.48,10.48,0,0,0,0-14.793c-.008-.008-.01-.02-.02-.028s-.02-.012-.028-.02a10.471,10.471,0,0,0-6.23-2.987v-2.4h1.167a1.167,1.167,0,0,0,0-2.333H39.167a1.167,1.167,0,1,0,0,2.333h1.167v2.4A10.471,10.471,0,0,0,34.1,7.722Zm11.521,3.32a1.167,1.167,0,0,0,1.65,0l.757-.757A8.1,8.1,0,0,1,49.573,14H48.5a1.167,1.167,0,0,0,0,2.333h1.073a8.1,8.1,0,0,1-1.54,3.715l-.757-.757a1.167,1.167,0,1,0-1.65,1.65l.757.757a8.1,8.1,0,0,1-3.717,1.542V22.167a1.167,1.167,0,1,0-2.333,0V23.24a8.1,8.1,0,0,1-3.715-1.54l.757-.757a1.167,1.167,0,1,0-1.65-1.65l-.757.757a8.1,8.1,0,0,1-1.542-3.717H34.5A1.167,1.167,0,1,0,34.5,14H33.427a8.1,8.1,0,0,1,1.54-3.715l.757.757a1.167,1.167,0,1,0,1.65-1.65l-.755-.759a8.1,8.1,0,0,1,3.715-1.54V8.167a1.167,1.167,0,1,0,2.333,0V7.093a8.1,8.1,0,0,1,3.715,1.54l-.757.757a1.167,1.167,0,0,0,0,1.652Z" transform="translate(5.167)" fill="#2efec7"/>
      <path id="Trazado_600815" data-name="Trazado 600815" d="M41.587,13.267l.791-1.582a1.167,1.167,0,1,0-2.088-1.043l-1.167,2.333a1.167,1.167,0,0,0,.219,1.346l1.167,1.167a1.167,1.167,0,1,0,1.65-1.65Z" transform="translate(6.5 1.666)" fill="#2efec7"/>
      <path id="Trazado_600816" data-name="Trazado 600816" d="M30.833,4H19.167a1.167,1.167,0,0,0,0,2.333H30.833a1.167,1.167,0,1,0,0-2.333Z" transform="translate(3 0.667)" fill="#2efec7"/>
      <path id="Trazado_600817" data-name="Trazado 600817" d="M15.333,4H14.167a1.167,1.167,0,0,0,0,2.333h1.167a1.167,1.167,0,1,0,0-2.333Z" transform="translate(2.167 0.667)" fill="#2efec7"/>
      <path id="Trazado_600818" data-name="Trazado 600818" d="M16,10.167a1.167,1.167,0,0,0,1.167,1.167H28.833a1.167,1.167,0,0,0,0-2.333H17.167A1.167,1.167,0,0,0,16,10.167Z" transform="translate(2.667 1.5)" fill="#2efec7"/>
      <path id="Trazado_600819" data-name="Trazado 600819" d="M12.167,9a1.167,1.167,0,1,0,0,2.333h1.167a1.167,1.167,0,0,0,0-2.333Z" transform="translate(1.833 1.5)" fill="#2efec7"/>
      <path id="Trazado_600820" data-name="Trazado 600820" d="M23.167,21.333h7a1.167,1.167,0,1,0,0-2.333h-7a1.167,1.167,0,0,0,0,2.333Z" transform="translate(3.667 3.167)" fill="#2efec7"/>
      <path id="Trazado_600821" data-name="Trazado 600821" d="M18.167,19a1.167,1.167,0,1,0,0,2.333h1.167a1.167,1.167,0,0,0,0-2.333Z" transform="translate(2.833 3.167)" fill="#2efec7"/>
      <path id="Trazado_600822" data-name="Trazado 600822" d="M29.667,15.167A1.167,1.167,0,0,0,28.5,14H19.167a1.167,1.167,0,0,0,0,2.333H28.5A1.167,1.167,0,0,0,29.667,15.167Z" transform="translate(3 2.333)" fill="#2efec7"/>
      <path id="Trazado_600823" data-name="Trazado 600823" d="M15.333,14H14.167a1.167,1.167,0,0,0,0,2.333h1.167a1.167,1.167,0,1,0,0-2.333Z" transform="translate(2.167 2.333)" fill="#2efec7"/>
    </g>
  </g>
</svg>
