<svg xmlns="http://www.w3.org/2000/svg" xmlns:xlink="http://www.w3.org/1999/xlink" width="70" height="70" viewBox="0 0 70 70">
  <defs>
    <clipPath id="clip-path">
      <path id="path4338" d="M0-682.665H52.51v52.51H0Z" transform="translate(0 682.665)"/>
    </clipPath>
  </defs>
  <g id="Grupo_157984" data-name="Grupo 157984" transform="translate(-620 -652)">
    <g id="Grupo_157667" data-name="Grupo 157667">
      <rect id="Rectángulo_45000" data-name="Rectángulo 45000" width="70" height="70" rx="10" transform="translate(620 652)" fill="#fff" opacity="0.3"/>
      <g id="g4332" transform="translate(629 1343.665)">
        <g id="g4334" transform="translate(0 -682.665)">
          <g id="g4336" clip-path="url(#clip-path)">
            <g id="g4342" transform="translate(16.153 42.664)">
              <path id="path4344" d="M-154.548,0l-8.629,3.077L-163.5,4.22a4.329,4.329,0,0,1-3.922,2.959H-150.3Z" transform="translate(167.426)" fill="#adaca7"/>
            </g>
            <g id="g4346" transform="translate(20.402 39.588)">
              <path id="path4348" d="M-144.406-87.569l-1.206-4.22-4.974-3.077-4.974,3.077-.879,3.077h8.629l.327,1.144a4.329,4.329,0,0,0,3.922,2.959h3.077a4.329,4.329,0,0,1-3.922-2.959" transform="translate(156.44 94.866)" fill="#8f8f8b"/>
            </g>
            <g id="g4350" transform="translate(45.587 27.281)">
              <path id="path4352" d="M0-184.616H3.077a3.086,3.086,0,0,0,3.077-3.077v-6.154L0-200Z" transform="translate(0 200)" fill="#adaca7"/>
            </g>
            <g id="g4354" transform="translate(0.769 21.127)">
              <path id="path4356" d="M0-221.539a3.086,3.086,0,0,0,3.077,3.077H44.818a3.086,3.086,0,0,0,3.077-3.077V-240L0-227.692Z" transform="translate(0 239.999)" fill="#cbc9c2"/>
            </g>
            <g id="g4358" transform="translate(45.587 2.667)">
              <path id="path4360" d="M-36.923,0H-40l3.077,30.768h3.077V3.077A3.086,3.086,0,0,0-36.923,0" transform="translate(40)" fill="#404242"/>
            </g>
            <g id="g4362" transform="translate(0.769 2.667)">
              <path id="path4364" d="M-574.77-36.923A3.086,3.086,0,0,0-577.847-40h-41.741a3.086,3.086,0,0,0-3.077,3.077V-9.232h47.895v-3.077l-22.409-12.308Z" transform="translate(622.665 40)" fill="#565959"/>
            </g>
            <g id="g4366" transform="translate(26.255 5.741)">
              <path id="path4368" d="M-268.924-.026l-3.076,0L-291.333,12.28-272,24.589l3.077,0s0-24.612,0-24.612" transform="translate(291.333 0.028)" fill="#4b88d5"/>
            </g>
            <g id="g4370" transform="translate(3.846 5.741)">
              <path id="path4372" d="M-500.924-.026l-41.732,0s0,24.616-.009,24.617l41.74,0s0-24.612,0-24.612" transform="translate(542.665 0.028)" fill="#69a7ff"/>
            </g>
            <g id="g4374" transform="translate(24.717 36.511)">
              <path id="path4376" d="M-36.923-18.462a1.538,1.538,0,0,1-1.538,1.538A1.538,1.538,0,0,1-40-18.462,1.538,1.538,0,0,1-38.462-20a1.538,1.538,0,0,1,1.538,1.538" transform="translate(40 20)" fill="#fff"/>
            </g>
            <g id="g4378" transform="translate(10.358 49.843)">
              <path id="path4380" d="M-381.539,0h-31.793" transform="translate(413.332)" fill="none" stroke="#000" stroke-linecap="round" stroke-linejoin="round" stroke-miterlimit="10" stroke-width="2"/>
            </g>
            <g id="g4382" transform="translate(16.153 42.664)">
              <path id="path4384" d="M-61.539,0l-1.206,4.221a4.329,4.329,0,0,1-3.922,2.958" transform="translate(66.667)" fill="none" stroke="#000" stroke-linecap="round" stroke-linejoin="round" stroke-miterlimit="10" stroke-width="2"/>
            </g>
            <g id="g4386" transform="translate(31.229 42.664)">
              <path id="path4388" d="M0,0,1.206,4.221A4.329,4.329,0,0,0,5.128,7.179" fill="none" stroke="#000" stroke-linecap="round" stroke-linejoin="round" stroke-miterlimit="10" stroke-width="2"/>
            </g>
            <g id="g4390" transform="translate(0.769 2.667)">
              <path id="path4392" d="M-574.77,0h-44.818a3.086,3.086,0,0,0-3.077,3.077V36.921A3.086,3.086,0,0,0-619.588,40h44.818a3.086,3.086,0,0,0,3.077-3.077V3.077A3.086,3.086,0,0,0-574.77,0Z" transform="translate(622.665)" fill="none" stroke="#000" stroke-linecap="round" stroke-linejoin="round" stroke-miterlimit="10" stroke-width="2"/>
            </g>
            <g id="g4394" transform="translate(0.769 33.434)">
              <path id="path4396" d="M0,0H50.972" fill="none" stroke="#000" stroke-linecap="round" stroke-linejoin="round" stroke-miterlimit="10" stroke-width="2"/>
            </g>
            <g id="g4398" transform="translate(3.846 5.743)">
              <path id="path4400" d="M0-166.154v10.769H44.818V-180H0v10.769" transform="translate(0 180)" fill="none" stroke="#000" stroke-linecap="round" stroke-linejoin="round" stroke-miterlimit="10" stroke-width="2"/>
            </g>
            <g id="g4402" transform="translate(24.717 36.511)">
              <path id="path4404" d="M-36.923-18.462a1.538,1.538,0,0,1-1.538,1.538A1.538,1.538,0,0,1-40-18.462,1.538,1.538,0,0,1-38.462-20,1.538,1.538,0,0,1-36.923-18.462Z" transform="translate(40 20)" fill="none" stroke="#000" stroke-linecap="round" stroke-linejoin="round" stroke-miterlimit="10" stroke-width="2"/>
            </g>
          </g>
        </g>
      </g>
    </g>
  </g>
</svg>
