<svg xmlns="http://www.w3.org/2000/svg" width="140" height="140" viewBox="0 0 140 140">
  <g id="Grupo_157916" data-name="Grupo 157916" transform="translate(-731 -7255)">
    <circle id="Elipse_5540" data-name="Elipse 5540" cx="70" cy="70" r="70" transform="translate(731 7255)" fill="#083142"/>
    <g id="big-data" transform="translate(767.97 7291.97)">
      <path id="Trazado_600824" data-name="Trazado 600824" d="M9.128,57a3.128,3.128,0,1,0,3.128,3.128A3.132,3.132,0,0,0,9.128,57Zm0,4.171a1.043,1.043,0,1,1,1.043-1.043A1.044,1.044,0,0,1,9.128,61.171Z" transform="translate(0.213 2.389)" fill="#2efec7"/>
      <path id="Trazado_600825" data-name="Trazado 600825" d="M4.051,55.137l1.474,1.474a5.213,5.213,0,0,1,7.372,0l1.474-1.474a7.3,7.3,0,0,0-10.32,0Z" transform="translate(0.13 2.219)" fill="#2efec7"/>
      <path id="Trazado_600826" data-name="Trazado 600826" d="M1.222,52.359,2.7,53.834a9.4,9.4,0,0,1,13.272,0l1.474-1.474a11.483,11.483,0,0,0-16.221,0Z" transform="translate(0.009 2.048)" fill="#2efec7"/>
      <path id="Trazado_600827" data-name="Trazado 600827" d="M59.512,57.256H57.427V53.085H55.341v4.171H53.256V55.171H51.171v2.085H49.085V51H47v8.341H59.512Z" transform="translate(1.963 2.133)" fill="#2efec7"/>
      <path id="Trazado_600828" data-name="Trazado 600828" d="M62.517,26.024H54.176a3.132,3.132,0,0,0-3.128,3.128V32.28H46.824a13.477,13.477,0,0,0-3.22-7.765l9.961-9.961h7.91a4.171,4.171,0,0,0,.975-8.227,6.258,6.258,0,0,0-12.376,0,4.159,4.159,0,0,0,.583,8.187L42.13,23.041a13.48,13.48,0,0,0-7.765-3.22V15.6h3.128a3.132,3.132,0,0,0,3.128-3.128V4.128A3.132,3.132,0,0,0,37.493,1H29.152a3.132,3.132,0,0,0-3.128,3.128v8.341A3.132,3.132,0,0,0,29.152,15.6H32.28v4.224a13.477,13.477,0,0,0-7.765,3.22L19.5,18.02a10.452,10.452,0,1,0-1.475,1.474l5.019,5.02a13.48,13.48,0,0,0-3.22,7.765H15.6V29.152a3.132,3.132,0,0,0-3.128-3.128H4.128A3.132,3.132,0,0,0,1,29.152v8.341a3.132,3.132,0,0,0,3.128,3.128h8.341A3.132,3.132,0,0,0,15.6,37.493V34.365h4.224a13.477,13.477,0,0,0,3.22,7.765L15.9,49.268l1.474,1.474L24.515,43.6a13.48,13.48,0,0,0,7.765,3.22v4.224H29.152a3.132,3.132,0,0,0-3.128,3.128v8.341a3.132,3.132,0,0,0,3.128,3.128h8.341a3.132,3.132,0,0,0,3.128-3.128V54.176a3.132,3.132,0,0,0-3.128-3.128H34.365V46.824A13.477,13.477,0,0,0,42.13,43.6l5.4,5.4a3.122,3.122,0,0,0-2.736,3.088V62.517a3.132,3.132,0,0,0,3.128,3.128h14.6a3.132,3.132,0,0,0,3.128-3.128V52.091a3.132,3.132,0,0,0-3.128-3.128H50.437L43.6,42.13a13.48,13.48,0,0,0,3.22-7.765h4.224v3.128a3.132,3.132,0,0,0,3.128,3.128h8.341a3.132,3.132,0,0,0,3.128-3.128V29.152a3.132,3.132,0,0,0-3.128-3.128ZM38.536,9.341H28.109V7.256H38.536ZM29.152,3.085h8.341a1.044,1.044,0,0,1,1.043,1.043V5.171H28.109V4.128A1.044,1.044,0,0,1,29.152,3.085Zm-1.043,9.384V11.427H38.536v1.043a1.044,1.044,0,0,1-1.043,1.043H29.152A1.044,1.044,0,0,1,28.109,12.469ZM4.128,28.109h8.341a1.044,1.044,0,0,1,1.043,1.043v1.043H3.085V29.152A1.044,1.044,0,0,1,4.128,28.109Zm9.384,4.171v2.085H3.085V32.28Zm-1.043,6.256H4.128a1.044,1.044,0,0,1-1.043-1.043V36.451H13.512v1.043A1.044,1.044,0,0,1,12.469,38.536ZM28.109,57.3H38.536v2.085H28.109Zm9.384,6.256H29.152a1.044,1.044,0,0,1-1.043-1.043V61.475H38.536v1.043A1.044,1.044,0,0,1,37.493,63.56Zm1.043-9.384v1.043H28.109V54.176a1.044,1.044,0,0,1,1.043-1.043h8.341A1.044,1.044,0,0,1,38.536,54.176Zm-5.213-9.384c-1.121,0-2.315-1.592-3.137-4.171h6.276c-.824,2.579-2.018,4.171-3.138,4.171Zm-3.669-6.256a25.855,25.855,0,0,1-.48-4.171h8.3a25.973,25.973,0,0,1-.48,4.171Zm-7.747-4.171H27.09a28.6,28.6,0,0,0,.426,4.171h-4.4a11.345,11.345,0,0,1-1.214-4.171ZM33.323,21.853c1.121,0,2.315,1.592,3.137,4.171H30.184c.824-2.579,2.018-4.171,3.138-4.171Zm3.669,6.256a25.855,25.855,0,0,1,.48,4.171h-8.3a25.973,25.973,0,0,1,.48-4.171Zm-9.9,4.171H21.906a11.365,11.365,0,0,1,1.214-4.171h4.4a28.452,28.452,0,0,0-.426,4.171Zm12.466,2.085h5.183a11.365,11.365,0,0,1-1.214,4.171h-4.4A28.452,28.452,0,0,0,39.556,34.365Zm0-2.085a28.6,28.6,0,0,0-.426-4.171h4.4a11.385,11.385,0,0,1,1.214,4.171Zm9.407-21.9A2.087,2.087,0,0,1,51.048,8.3h1.043V7.256a4.171,4.171,0,0,1,8.246-.885A4.178,4.178,0,0,0,57.3,10.384h2.085a2.085,2.085,0,1,1,2.085,2.085H51.048A2.087,2.087,0,0,1,48.963,10.384Zm-6.8,15.64H38.646A14.41,14.41,0,0,0,37.2,22.54,11.52,11.52,0,0,1,42.163,26.024ZM29.45,22.54A14.452,14.452,0,0,0,28,26.024H24.483A11.508,11.508,0,0,1,29.45,22.54ZM11.427,3.085a8.325,8.325,0,0,1,7.2,12.533,8.4,8.4,0,0,0-4.073-3.546,4.171,4.171,0,1,0-6.255,0,8.406,8.406,0,0,0-4.073,3.546,8.326,8.326,0,0,1,7.2-12.532ZM9.341,9.341a2.085,2.085,0,1,1,2.085,2.085A2.087,2.087,0,0,1,9.341,9.341ZM5.648,17.428a6.221,6.221,0,0,1,11.557,0,8.305,8.305,0,0,1-11.557,0ZM24.482,40.621H28a14.41,14.41,0,0,0,1.45,3.484A11.52,11.52,0,0,1,24.482,40.621ZM37.2,44.1a14.451,14.451,0,0,0,1.45-3.484h3.517A11.508,11.508,0,0,1,37.2,44.1ZM63.56,52.091V62.517a1.044,1.044,0,0,1-1.043,1.043H47.92a1.044,1.044,0,0,1-1.043-1.043V52.091a1.044,1.044,0,0,1,1.043-1.043h14.6A1.044,1.044,0,0,1,63.56,52.091ZM54.176,28.109h8.341a1.044,1.044,0,0,1,1.043,1.043v1.043H53.133V29.152A1.044,1.044,0,0,1,54.176,28.109ZM63.56,32.28v2.085H53.133V32.28Zm-1.043,6.256H54.176a1.044,1.044,0,0,1-1.043-1.043V36.451H63.56v1.043A1.044,1.044,0,0,1,62.517,38.536Z" fill="#2efec7"/>
    </g>
  </g>
</svg>
