<svg xmlns="http://www.w3.org/2000/svg" xmlns:xlink="http://www.w3.org/1999/xlink" width="140" height="140" viewBox="0 0 140 140">
  <defs>
    <clipPath id="clip-path">
      <path id="path5577" d="M0-682.665H77.028v77.028H0Z" transform="translate(0 682.665)" fill="#2efec7"/>
    </clipPath>
  </defs>
  <g id="Grupo_157918" data-name="Grupo 157918" transform="translate(1044 4445)">
    <circle id="Elipse_5540" data-name="Elipse 5540" cx="70" cy="70" r="70" transform="translate(-1044 -4445)" fill="#083142"/>
    <g id="g5571" transform="translate(-1013 -3731.335)">
      <g id="g5573" transform="translate(0 -682.665)">
        <g id="g5575" clip-path="url(#clip-path)">
          <g id="g5581" transform="translate(15.6 37.308)">
            <path id="path5583" d="M-180.165-37.928h-.914a3.618,3.618,0,0,1-2.558-1.06l-2.7-2.7a3.618,3.618,0,0,0-2.558-1.06h-10.561a3.618,3.618,0,0,0-3.618,3.618V-7.779a3.618,3.618,0,0,0,3.618,3.618" transform="translate(203.079 42.752)" fill="none" stroke="#2efec7" stroke-linecap="round" stroke-linejoin="round" stroke-miterlimit="10" stroke-width="2"/>
          </g>
          <g id="g5585" transform="translate(43.337 42.132)">
            <path id="path5587" d="M-142.235-37.928v-1.206a3.618,3.618,0,0,0-3.618-3.618h-14.472" transform="translate(160.325 42.752)" fill="none" stroke="#2efec7" stroke-linecap="round" stroke-linejoin="round" stroke-miterlimit="10" stroke-width="2"/>
          </g>
          <g id="g5589" transform="translate(48.162 69.869)">
            <path id="path5591" d="M-66.375,0h-8.442" transform="translate(74.817)" fill="none" stroke="#2efec7" stroke-linecap="round" stroke-linejoin="round" stroke-miterlimit="10" stroke-width="2"/>
          </g>
          <g id="g5593" transform="translate(50.574 65.045)">
            <path id="path5595" d="M-66.375,0h-8.442" transform="translate(74.817)" fill="none" stroke="#2efec7" stroke-linecap="round" stroke-linejoin="round" stroke-miterlimit="10" stroke-width="2"/>
          </g>
          <g id="g5597" transform="translate(16.248 46.956)">
            <path id="path5599" d="M0-212.278,8.175-236.8a3.618,3.618,0,0,1,3.432-2.474H53.154a1.206,1.206,0,0,1,1.144,1.587L46-212.807a3.618,3.618,0,0,1-3.432,2.474H2.969" transform="translate(0 239.277)" fill="none" stroke="#2efec7" stroke-linecap="round" stroke-linejoin="round" stroke-miterlimit="10" stroke-width="2"/>
          </g>
          <g id="g5601" transform="translate(3.54 1.128)">
            <path id="path5603" d="M-85.339,0h-9.648a1.206,1.206,0,0,0-1.206,1.206V20.5a1.206,1.206,0,0,0,1.206,1.206h14.472A1.206,1.206,0,0,0-79.309,20.5V6.03Z" transform="translate(96.193)" fill="none" stroke="#2efec7" stroke-linecap="round" stroke-linejoin="round" stroke-miterlimit="10" stroke-width="2"/>
          </g>
          <g id="g5605" transform="translate(14.394 1.128)">
            <path id="path5607" d="M-47.411-47.411h-4.824a1.206,1.206,0,0,1-1.206-1.206v-4.824" transform="translate(53.441 53.441)" fill="none" stroke="#2efec7" stroke-linecap="round" stroke-linejoin="round" stroke-miterlimit="10" stroke-width="2"/>
          </g>
          <g id="g5609" transform="translate(8.364 11.982)">
            <path id="path5611" d="M0,0H6.03" fill="none" stroke="#2efec7" stroke-linecap="round" stroke-linejoin="round" stroke-miterlimit="10" stroke-width="2"/>
          </g>
          <g id="g5613" transform="translate(8.364 16.806)">
            <path id="path5615" d="M0,0H6.03" fill="none" stroke="#2efec7" stroke-linecap="round" stroke-linejoin="round" stroke-miterlimit="10" stroke-width="2"/>
          </g>
          <g id="g5617" transform="translate(30.072 1.128)">
            <path id="path5619" d="M-85.339,0h-9.648a1.206,1.206,0,0,0-1.206,1.206V20.5a1.206,1.206,0,0,0,1.206,1.206h14.472A1.206,1.206,0,0,0-79.309,20.5V6.03Z" transform="translate(96.193)" fill="none" stroke="#2efec7" stroke-linecap="round" stroke-linejoin="round" stroke-miterlimit="10" stroke-width="2"/>
          </g>
          <g id="g5621" transform="translate(40.926 1.128)">
            <path id="path5623" d="M-47.411-47.411h-4.824a1.206,1.206,0,0,1-1.206-1.206v-4.824" transform="translate(53.441 53.441)" fill="none" stroke="#2efec7" stroke-linecap="round" stroke-linejoin="round" stroke-miterlimit="10" stroke-width="2"/>
          </g>
          <g id="g5625" transform="translate(34.896 11.982)">
            <path id="path5627" d="M0,0H6.03" fill="none" stroke="#2efec7" stroke-linecap="round" stroke-linejoin="round" stroke-miterlimit="10" stroke-width="2"/>
          </g>
          <g id="g5629" transform="translate(34.896 16.806)">
            <path id="path5631" d="M0,0H6.03" fill="none" stroke="#2efec7" stroke-linecap="round" stroke-linejoin="round" stroke-miterlimit="10" stroke-width="2"/>
          </g>
          <g id="g5633" transform="translate(56.603 1.128)">
            <path id="path5635" d="M-85.34,0h-9.648a1.206,1.206,0,0,0-1.206,1.206V20.5a1.206,1.206,0,0,0,1.206,1.206h14.472A1.206,1.206,0,0,0-79.31,20.5V6.03Z" transform="translate(96.194)" fill="none" stroke="#2efec7" stroke-linecap="round" stroke-linejoin="round" stroke-miterlimit="10" stroke-width="2"/>
          </g>
          <g id="g5637" transform="translate(67.457 1.128)">
            <path id="path5639" d="M-47.411-47.411h-4.824a1.206,1.206,0,0,1-1.206-1.206v-4.824" transform="translate(53.441 53.441)" fill="none" stroke="#2efec7" stroke-linecap="round" stroke-linejoin="round" stroke-miterlimit="10" stroke-width="2"/>
          </g>
          <g id="g5641" transform="translate(61.427 11.982)">
            <path id="path5643" d="M0,0H6.03" fill="none" stroke="#2efec7" stroke-linecap="round" stroke-linejoin="round" stroke-miterlimit="10" stroke-width="2"/>
          </g>
          <g id="g5645" transform="translate(61.427 16.806)">
            <path id="path5647" d="M0,0H6.03" fill="none" stroke="#2efec7" stroke-linecap="round" stroke-linejoin="round" stroke-miterlimit="10" stroke-width="2"/>
          </g>
          <g id="g5649" transform="translate(38.514 32.484)">
            <path id="path5651" d="M0,0V14.472" fill="none" stroke="#2efec7" stroke-linecap="round" stroke-linejoin="round" stroke-miterlimit="10" stroke-width="2"/>
          </g>
          <g id="g5653" transform="translate(40.926 22.836)">
            <path id="path5655" d="M0-56.893H21.708a2.412,2.412,0,0,0,2.412-2.412v-4.824" transform="translate(0 64.129)" fill="none" stroke="#2efec7" stroke-linecap="round" stroke-linejoin="round" stroke-miterlimit="10" stroke-width="2"/>
          </g>
          <g id="g5657" transform="translate(11.982 22.836)">
            <path id="path5659" d="M0,0V4.824A2.412,2.412,0,0,0,2.412,7.236H24.119" fill="none" stroke="#2efec7" stroke-linecap="round" stroke-linejoin="round" stroke-miterlimit="10" stroke-width="2"/>
          </g>
          <g id="g5661" transform="translate(36.102 27.66)">
            <path id="path5663" d="M-37.928-18.964a2.412,2.412,0,0,1-2.412,2.412,2.412,2.412,0,0,1-2.412-2.412,2.412,2.412,0,0,1,2.412-2.412A2.412,2.412,0,0,1-37.928-18.964Z" transform="translate(42.752 21.376)" fill="none" stroke="#2efec7" stroke-linecap="round" stroke-linejoin="round" stroke-miterlimit="10" stroke-width="2"/>
          </g>
          <g id="g5665" transform="translate(38.514 22.836)">
            <path id="path5667" d="M0-37.928v-4.824" transform="translate(0 42.752)" fill="none" stroke="#2efec7" stroke-linecap="round" stroke-linejoin="round" stroke-miterlimit="10" stroke-width="2"/>
          </g>
        </g>
      </g>
    </g>
  </g>
</svg>
