<svg xmlns="http://www.w3.org/2000/svg" width="925" height="85" viewBox="0 0 925 85">
  <g id="Grupo_157987" data-name="Grupo 157987" transform="translate(-338 -2949)">
    <path id="Trazado_601021" data-name="Trazado 601021" d="M10,0H243a10,10,0,0,1,10,10V63a10,10,0,0,1-10,10H10A10,10,0,0,1,0,63V10A10,10,0,0,1,10,0Z" transform="translate(380 2955)" fill="#ffb476"/>
    <path id="Trazado_601026" data-name="Trazado 601026" d="M10,0H243a10,10,0,0,1,10,10V63a10,10,0,0,1-10,10H10A10,10,0,0,1,0,63V10A10,10,0,0,1,10,0Z" transform="translate(695 2955)" fill="#ffb476"/>
    <path id="Trazado_601030" data-name="Trazado 601030" d="M10,0H243a10,10,0,0,1,10,10V63a10,10,0,0,1-10,10H10A10,10,0,0,1,0,63V10A10,10,0,0,1,10,0Z" transform="translate(1010 2955)" fill="#ffb476"/>
    <path id="Trazado_601023" data-name="Trazado 601023" d="M-14.44,0V-6.908q0-.976.062-2.145l.026-.58h-.105q-.281,1.485-.431,2.057L-16.743,0h-3.568l-1.942-7.488q-.079-.281-.413-2.145h-.105q.123,2.953.123,3.691V0H-25.98V-12.6h5.687l1.731,6.847A8.451,8.451,0,0,1-18.4-4.9q.1.646.127,1h.053q.1-.8.308-1.89l1.617-6.812h5.6V0ZM3.771-6.337a6.524,6.524,0,0,1-1.89,4.816L5.212,1.7H.448L-1.151.07A7.045,7.045,0,0,1-2.619.22a6.563,6.563,0,0,1-3.23-.8A5.691,5.691,0,0,1-8.112-2.843a6.659,6.659,0,0,1-.809-3.292A7.263,7.263,0,0,1-8.1-9.6,5.807,5.807,0,0,1-5.81-11.975a6.673,6.673,0,0,1,3.357-.839,6.486,6.486,0,0,1,3.239.8A5.483,5.483,0,0,1,2.993-9.716,7.192,7.192,0,0,1,3.771-6.337Zm-4.025.105a4.375,4.375,0,0,0-.6-2.452,1.867,1.867,0,0,0-1.635-.9,2.067,2.067,0,0,0-1.767.861,4.054,4.054,0,0,0-.633,2.435,4.007,4.007,0,0,0,.628,2.4,2,2,0,0,0,1.709.861,1.961,1.961,0,0,0,1.661-.87A3.894,3.894,0,0,0-.255-6.231Zm12.182-3.4V0H8.112V-9.633H4.588V-12.6H15.5v2.971Zm11.452,0V0H19.564V-9.633H16.04V-12.6H26.947v2.971Z" transform="translate(504 2999)" fill="#12263f"/>
    <path id="Trazado_601027" data-name="Trazado 601027" d="M-9.686-9.633V0H-13.5V-9.633h-3.524V-12.6H-6.117v2.971ZM4.772-.343A10.653,10.653,0,0,1,1.16.22,7.351,7.351,0,0,1-2.312-.549,5.265,5.265,0,0,1-4.54-2.738a6.765,6.765,0,0,1-.769-3.274,7.207,7.207,0,0,1,.861-3.551,5.957,5.957,0,0,1,2.435-2.4,7.512,7.512,0,0,1,3.621-.848,12.586,12.586,0,0,1,3.164.4v3.507A4.465,4.465,0,0,0,3.516-9.4,6.282,6.282,0,0,0,2.039-9.58,3.305,3.305,0,0,0-.4-8.692a3.245,3.245,0,0,0-.892,2.408A3.189,3.189,0,0,0-.4-3.9a3.261,3.261,0,0,0,2.386.875,6.191,6.191,0,0,0,2.786-.7Zm12.261-8.1a4.1,4.1,0,0,1-.655,2.294A4.267,4.267,0,0,1,14.511-4.6a6.78,6.78,0,0,1-2.821.549h-1.16V0h-3.8V-12.6H11.9a6.119,6.119,0,0,1,3.9,1.011A3.83,3.83,0,0,1,17.033-8.446Zm-4.017.132a1.477,1.477,0,0,0-.448-1.169,1.937,1.937,0,0,0-1.318-.4h-.721v3.111h.853Q13.017-6.768,13.017-8.314Z" transform="translate(819 2999)" fill="#12263f"/>
    <path id="Trazado_601031" data-name="Trazado 601031" d="M-7.8,0V-12.6H-4V0ZM8.776-8.446a4.1,4.1,0,0,1-.655,2.294A4.267,4.267,0,0,1,6.253-4.6a6.78,6.78,0,0,1-2.821.549H2.272V0h-3.8V-12.6H3.643a6.119,6.119,0,0,1,3.9,1.011A3.83,3.83,0,0,1,8.776-8.446Zm-4.017.132a1.477,1.477,0,0,0-.448-1.169,1.937,1.937,0,0,0-1.318-.4H2.272v3.111h.853Q4.759-6.768,4.759-8.314Z" transform="translate(1134 2999)" fill="#12263f"/>
    <path id="Trazado_601020" data-name="Trazado 601020" d="M42.5,0A42.5,42.5,0,1,1,0,42.5,42.5,42.5,0,0,1,42.5,0Z" transform="translate(338 2949)" fill="#ff6148"/>
    <path id="Trazado_601024" data-name="Trazado 601024" d="M42.5,0A42.5,42.5,0,1,1,0,42.5,42.5,42.5,0,0,1,42.5,0Z" transform="translate(653 2949)" fill="#ff6148"/>
    <path id="Trazado_601028" data-name="Trazado 601028" d="M42.5,0A42.5,42.5,0,1,1,0,42.5,42.5,42.5,0,0,1,42.5,0Z" transform="translate(968 2949)" fill="#ff6148"/>
    <path id="Trazado_601022" data-name="Trazado 601022" d="M-1.942-6.337a6.977,6.977,0,0,1-.817,3.4A5.828,5.828,0,0,1-5.045-.611,6.557,6.557,0,0,1-8.332.22a6.563,6.563,0,0,1-3.23-.8,5.691,5.691,0,0,1-2.263-2.259,6.659,6.659,0,0,1-.809-3.292A7.263,7.263,0,0,1-13.816-9.6a5.807,5.807,0,0,1,2.294-2.377,6.673,6.673,0,0,1,3.357-.839,6.486,6.486,0,0,1,3.239.8A5.483,5.483,0,0,1-2.72-9.716,7.192,7.192,0,0,1-1.942-6.337Zm-4.025.105a4.375,4.375,0,0,0-.6-2.452A1.867,1.867,0,0,0-8.2-9.58a2.067,2.067,0,0,0-1.767.861A4.054,4.054,0,0,0-10.6-6.284a4.007,4.007,0,0,0,.628,2.4,2,2,0,0,0,1.709.861A1.957,1.957,0,0,0-7.075-3.41a2.477,2.477,0,0,0,.817-1.107A4.582,4.582,0,0,0-5.968-6.231ZM8.6-3.814a3.64,3.64,0,0,1-.672,2.188A3.985,3.985,0,0,1,6.038-.237,8.291,8.291,0,0,1,3.12.22,9.531,9.531,0,0,1-.5-.448V-3.9a7.153,7.153,0,0,0,1.749.936,5.145,5.145,0,0,0,1.784.356A1.761,1.761,0,0,0,4-2.834a.733.733,0,0,0,.343-.655A.888.888,0,0,0,4.17-4.03a1.683,1.683,0,0,0-.519-.435,9.659,9.659,0,0,0-1.288-.554Q-.677-6.187-.677-8.8A3.531,3.531,0,0,1,.712-11.72a5.858,5.858,0,0,1,3.727-1.094q.659,0,1.213.053t1.006.132q.453.079,1.27.3v3.208A6.49,6.49,0,0,0,4.8-9.993a1.931,1.931,0,0,0-1.02.237.73.73,0,0,0-.387.65.816.816,0,0,0,.312.655,5.85,5.85,0,0,0,1.305.672A7.237,7.237,0,0,1,7.783-6.047,3.3,3.3,0,0,1,8.6-3.814ZM10.134,0V-12.6h3.8V0Zm-15,16.737a4.433,4.433,0,0,1-.611,2.316,4.131,4.131,0,0,1-1.762,1.6,6.044,6.044,0,0,1-2.716.571,11.625,11.625,0,0,1-1.815-.149,8.065,8.065,0,0,1-1.551-.378V17.774a5.837,5.837,0,0,0,2.786.7,2.527,2.527,0,0,0,1.463-.352,1.146,1.146,0,0,0,.5-.993q0-1.389-2.3-1.389a9.8,9.8,0,0,0-2.136.22l.475-7.567h7.119v2.918H-9.642l-.123,1.767a9.337,9.337,0,0,1,.958-.053,4.019,4.019,0,0,1,2.892,1A3.569,3.569,0,0,1-4.869,16.737Zm2.461.809V15.023H2.4v2.522ZM6.064,21a20.5,20.5,0,0,1,.747-3.226,22.5,22.5,0,0,1,1.156-2.883,39.792,39.792,0,0,1,2.043-3.577H4.526V8.4h9.22v2.215a41.493,41.493,0,0,0-1.9,3.744,26.815,26.815,0,0,0-1.116,3.125A28.652,28.652,0,0,0,9.958,21Z" transform="translate(380 2987)" fill="#12263f"/>
    <path id="Trazado_601025" data-name="Trazado 601025" d="M-10.929-.343A10.653,10.653,0,0,1-14.542.22a7.351,7.351,0,0,1-3.472-.769,5.265,5.265,0,0,1-2.228-2.188,6.765,6.765,0,0,1-.769-3.274,7.207,7.207,0,0,1,.861-3.551,5.957,5.957,0,0,1,2.435-2.4,7.512,7.512,0,0,1,3.621-.848,12.586,12.586,0,0,1,3.164.4v3.507A4.465,4.465,0,0,0-12.186-9.4a6.282,6.282,0,0,0-1.477-.176,3.305,3.305,0,0,0-2.439.888,3.245,3.245,0,0,0-.892,2.408A3.189,3.189,0,0,0-16.1-3.9a3.261,3.261,0,0,0,2.386.875,6.191,6.191,0,0,0,2.786-.7ZM-4.32,0V-1.371h-.035A2.944,2.944,0,0,1-7.1.22a2.625,2.625,0,0,1-2-.756,2.808,2.808,0,0,1-.721-2.021q0-2.654,3.261-3.076l2.232-.29a.851.851,0,0,0-.4-.721,1.8,1.8,0,0,0-1.063-.281,7,7,0,0,0-3.19.861V-8.5a8.535,8.535,0,0,1,1.828-.519,10.639,10.639,0,0,1,1.881-.2,4.722,4.722,0,0,1,3.327.98A4.368,4.368,0,0,1-.9-4.966V0ZM-6.535-3.059a.83.83,0,0,0,.233.606.888.888,0,0,0,.664.237,1.18,1.18,0,0,0,.954-.439A1.7,1.7,0,0,0-4.32-3.779v-.343l-1.266.176Q-6.535-3.788-6.535-3.059ZM10.938-4.772a6.4,6.4,0,0,1-.5,2.61A4.046,4.046,0,0,1,9.022-.4,3.564,3.564,0,0,1,6.965.22a2.755,2.755,0,0,1-2.4-1.151H4.531V4.14H.787V-9H4.531v1.222h.035a3.171,3.171,0,0,1,1.16-1.059A3.364,3.364,0,0,1,7.343-9.22a3.215,3.215,0,0,1,2.667,1.16A5.147,5.147,0,0,1,10.938-4.772Zm-3.8.114a2.346,2.346,0,0,0-.33-1.336A1.144,1.144,0,0,0,5.8-6.478a1.141,1.141,0,0,0-.967.51,2.341,2.341,0,0,0-.369,1.4v.176a2.562,2.562,0,0,0,.316,1.362,1.044,1.044,0,0,0,.949.51,1.182,1.182,0,0,0,1.046-.558A2.849,2.849,0,0,0,7.141-4.658ZM17.336,0V-1.371H17.3A2.944,2.944,0,0,1,14.559.22a2.625,2.625,0,0,1-2-.756,2.808,2.808,0,0,1-.721-2.021q0-2.654,3.261-3.076l2.232-.29a.851.851,0,0,0-.4-.721,1.8,1.8,0,0,0-1.063-.281,7,7,0,0,0-3.19.861V-8.5a8.535,8.535,0,0,1,1.828-.519,10.639,10.639,0,0,1,1.881-.2,4.722,4.722,0,0,1,3.327.98,4.368,4.368,0,0,1,1.033,3.274V0ZM15.122-3.059a.83.83,0,0,0,.233.606.888.888,0,0,0,.664.237,1.18,1.18,0,0,0,.954-.439,1.7,1.7,0,0,0,.365-1.125v-.343l-1.266.176Q15.122-3.788,15.122-3.059Zm-25.15,17.722a6.977,6.977,0,0,1-.817,3.4,5.828,5.828,0,0,1-2.285,2.329,6.557,6.557,0,0,1-3.287.831,6.563,6.563,0,0,1-3.23-.8,5.691,5.691,0,0,1-2.263-2.259,6.659,6.659,0,0,1-.809-3.292A7.263,7.263,0,0,1-21.9,11.4a5.807,5.807,0,0,1,2.294-2.377,6.673,6.673,0,0,1,3.357-.839,6.486,6.486,0,0,1,3.239.8,5.483,5.483,0,0,1,2.206,2.294A7.192,7.192,0,0,1-10.028,14.663Zm-4.025.105a4.375,4.375,0,0,0-.6-2.452,1.867,1.867,0,0,0-1.635-.9,2.067,2.067,0,0,0-1.767.861,4.054,4.054,0,0,0-.633,2.435,4.007,4.007,0,0,0,.628,2.4,2,2,0,0,0,1.709.861,1.957,1.957,0,0,0,1.187-.387,2.477,2.477,0,0,0,.817-1.107A4.582,4.582,0,0,0-14.054,14.769ZM.51,17.186a3.64,3.64,0,0,1-.672,2.188,3.985,3.985,0,0,1-1.885,1.389,8.291,8.291,0,0,1-2.918.457,9.531,9.531,0,0,1-3.621-.668V17.1a7.153,7.153,0,0,0,1.749.936,5.145,5.145,0,0,0,1.784.356,1.761,1.761,0,0,0,.967-.224.733.733,0,0,0,.343-.655.888.888,0,0,0-.171-.541,1.683,1.683,0,0,0-.519-.435,9.659,9.659,0,0,0-1.288-.554Q-8.763,14.813-8.763,12.2A3.531,3.531,0,0,1-7.374,9.28,5.858,5.858,0,0,1-3.647,8.186q.659,0,1.213.053t1.006.132q.453.079,1.27.3v3.208a6.49,6.49,0,0,0-3.129-.87,1.931,1.931,0,0,0-1.02.237.73.73,0,0,0-.387.65.816.816,0,0,0,.312.655,5.85,5.85,0,0,0,1.305.672A7.237,7.237,0,0,1-.3,14.953,3.3,3.3,0,0,1,.51,17.186ZM2.048,21V8.4h3.8V21ZM21.12,8.4v7.945H22.9v2.5H21.111V21h-3.3V18.838H12.48V16.245a34.161,34.161,0,0,0,2.8-3.753,29.367,29.367,0,0,0,2.263-4.1Zm-3.313,7.945V12.65a20.373,20.373,0,0,1-2.224,3.691Z" transform="translate(695 2987)" fill="#12263f"/>
    <path id="Trazado_601029" data-name="Trazado 601029" d="M-10.929-.343A10.653,10.653,0,0,1-14.542.22a7.351,7.351,0,0,1-3.472-.769,5.265,5.265,0,0,1-2.228-2.188,6.765,6.765,0,0,1-.769-3.274,7.207,7.207,0,0,1,.861-3.551,5.957,5.957,0,0,1,2.435-2.4,7.512,7.512,0,0,1,3.621-.848,12.586,12.586,0,0,1,3.164.4v3.507A4.465,4.465,0,0,0-12.186-9.4a6.282,6.282,0,0,0-1.477-.176,3.305,3.305,0,0,0-2.439.888,3.245,3.245,0,0,0-.892,2.408A3.189,3.189,0,0,0-16.1-3.9a3.261,3.261,0,0,0,2.386.875,6.191,6.191,0,0,0,2.786-.7ZM-4.32,0V-1.371h-.035A2.944,2.944,0,0,1-7.1.22a2.625,2.625,0,0,1-2-.756,2.808,2.808,0,0,1-.721-2.021q0-2.654,3.261-3.076l2.232-.29a.851.851,0,0,0-.4-.721,1.8,1.8,0,0,0-1.063-.281,7,7,0,0,0-3.19.861V-8.5a8.535,8.535,0,0,1,1.828-.519,10.639,10.639,0,0,1,1.881-.2,4.722,4.722,0,0,1,3.327.98A4.368,4.368,0,0,1-.9-4.966V0ZM-6.535-3.059a.83.83,0,0,0,.233.606.888.888,0,0,0,.664.237,1.18,1.18,0,0,0,.954-.439A1.7,1.7,0,0,0-4.32-3.779v-.343l-1.266.176Q-6.535-3.788-6.535-3.059ZM10.938-4.772a6.4,6.4,0,0,1-.5,2.61A4.046,4.046,0,0,1,9.022-.4,3.564,3.564,0,0,1,6.965.22a2.755,2.755,0,0,1-2.4-1.151H4.531V4.14H.787V-9H4.531v1.222h.035a3.171,3.171,0,0,1,1.16-1.059A3.364,3.364,0,0,1,7.343-9.22a3.215,3.215,0,0,1,2.667,1.16A5.147,5.147,0,0,1,10.938-4.772Zm-3.8.114a2.346,2.346,0,0,0-.33-1.336A1.144,1.144,0,0,0,5.8-6.478a1.141,1.141,0,0,0-.967.51,2.341,2.341,0,0,0-.369,1.4v.176a2.562,2.562,0,0,0,.316,1.362,1.044,1.044,0,0,0,.949.51,1.182,1.182,0,0,0,1.046-.558A2.849,2.849,0,0,0,7.141-4.658ZM17.336,0V-1.371H17.3A2.944,2.944,0,0,1,14.559.22a2.625,2.625,0,0,1-2-.756,2.808,2.808,0,0,1-.721-2.021q0-2.654,3.261-3.076l2.232-.29a.851.851,0,0,0-.4-.721,1.8,1.8,0,0,0-1.063-.281,7,7,0,0,0-3.19.861V-8.5a8.535,8.535,0,0,1,1.828-.519,10.639,10.639,0,0,1,1.881-.2,4.722,4.722,0,0,1,3.327.98,4.368,4.368,0,0,1,1.033,3.274V0ZM15.122-3.059a.83.83,0,0,0,.233.606.888.888,0,0,0,.664.237,1.18,1.18,0,0,0,.954-.439,1.7,1.7,0,0,0,.365-1.125v-.343l-1.266.176Q15.122-3.788,15.122-3.059ZM-9.835,14.663a6.977,6.977,0,0,1-.817,3.4,5.828,5.828,0,0,1-2.285,2.329,6.557,6.557,0,0,1-3.287.831,6.563,6.563,0,0,1-3.23-.8,5.691,5.691,0,0,1-2.263-2.259,6.659,6.659,0,0,1-.809-3.292,7.263,7.263,0,0,1,.817-3.463,5.807,5.807,0,0,1,2.294-2.377,6.673,6.673,0,0,1,3.357-.839,6.486,6.486,0,0,1,3.239.8,5.483,5.483,0,0,1,2.206,2.294A7.192,7.192,0,0,1-9.835,14.663Zm-4.025.105a4.375,4.375,0,0,0-.6-2.452,1.867,1.867,0,0,0-1.635-.9,2.067,2.067,0,0,0-1.767.861,4.054,4.054,0,0,0-.633,2.435,4.007,4.007,0,0,0,.628,2.4,2,2,0,0,0,1.709.861,1.957,1.957,0,0,0,1.187-.387,2.477,2.477,0,0,0,.817-1.107A4.582,4.582,0,0,0-13.86,14.769ZM.7,17.186a3.64,3.64,0,0,1-.672,2.188,3.985,3.985,0,0,1-1.885,1.389,8.291,8.291,0,0,1-2.918.457,9.531,9.531,0,0,1-3.621-.668V17.1a7.153,7.153,0,0,0,1.749.936,5.145,5.145,0,0,0,1.784.356,1.761,1.761,0,0,0,.967-.224.733.733,0,0,0,.343-.655.888.888,0,0,0-.171-.541,1.683,1.683,0,0,0-.519-.435,9.659,9.659,0,0,0-1.288-.554Q-8.569,14.813-8.569,12.2A3.531,3.531,0,0,1-7.181,9.28,5.858,5.858,0,0,1-3.454,8.186q.659,0,1.213.053t1.006.132q.453.079,1.27.3v3.208a6.49,6.49,0,0,0-3.129-.87,1.931,1.931,0,0,0-1.02.237.73.73,0,0,0-.387.65.816.816,0,0,0,.312.655,5.85,5.85,0,0,0,1.305.672A7.237,7.237,0,0,1-.11,14.953,3.3,3.3,0,0,1,.7,17.186ZM2.241,21V8.4h3.8V21Zm19.529-3.6a3.338,3.338,0,0,1-1.318,2.821,6.133,6.133,0,0,1-3.771,1,10.688,10.688,0,0,1-1.811-.154,7.746,7.746,0,0,1-1.538-.409V17.722a5.261,5.261,0,0,0,1.345.554,5.9,5.9,0,0,0,1.529.2,2.467,2.467,0,0,0,1.375-.321,1.04,1.04,0,0,0,.479-.918,1.054,1.054,0,0,0-.589-.949,3.285,3.285,0,0,0-1.644-.343H14.616v-2.76h1.072a2.93,2.93,0,0,0,1.569-.33A.989.989,0,0,0,17.763,12a.94.94,0,0,0-.382-.791,1.938,1.938,0,0,0-1.173-.29,4.861,4.861,0,0,0-2.443.7v-2.8a8.331,8.331,0,0,1,3.217-.633,5.531,5.531,0,0,1,3.278.853A2.749,2.749,0,0,1,21.445,11.4a3.074,3.074,0,0,1-.637,1.978,3,3,0,0,1-1.789,1.046v.044a3.249,3.249,0,0,1,2.013.971A2.767,2.767,0,0,1,21.771,17.4Z" transform="translate(1011 2987)" fill="#12263f"/>
  </g>
</svg>
