<svg xmlns="http://www.w3.org/2000/svg" xmlns:xlink="http://www.w3.org/1999/xlink" width="590.502" height="538.886" viewBox="0 0 590.502 538.886">
  <defs>
    <clipPath id="clip-path">
      <rect id="Rectángulo_45206" data-name="Rectángulo 45206" width="295" height="271.262" fill="none"/>
    </clipPath>
    <clipPath id="clip-path-2">
      <rect id="Rectángulo_45205" data-name="Rectángulo 45205" width="282.797" height="271.262" fill="none"/>
    </clipPath>
  </defs>
  <g id="Grupo_157987" data-name="Grupo 157987" transform="translate(-8488 10461)">
    <g id="Grupo_157948" data-name="Grupo 157948" transform="translate(8636 -10461)">
      <g id="Grupo_157947" data-name="Grupo 157947" clip-path="url(#clip-path)">
        <path id="Trazado_600885" data-name="Trazado 600885" d="M33.064,105.892S6.585,145.828,25.413,206.065s73.557,75.6,106.029,58.857,37.212-38.5,63.434-54.3,80.363-15.24,101.205-58.7S273.705,47.534,224.747,12.453,69.514,18.881,33.064,105.892" transform="translate(-6.451 0)" fill="#92e3a9"/>
        <g id="Grupo_157946" data-name="Grupo 157946" transform="translate(12.203)" opacity="0.7">
          <g id="Grupo_157945" data-name="Grupo 157945">
            <g id="Grupo_157944" data-name="Grupo 157944" clip-path="url(#clip-path-2)">
              <path id="Trazado_600886" data-name="Trazado 600886" d="M33.064,105.892S6.585,145.828,25.413,206.065s73.557,75.6,106.029,58.857,37.212-38.5,63.434-54.3,80.363-15.24,101.205-58.7S273.705,47.534,224.747,12.453,69.514,18.881,33.064,105.892" transform="translate(-18.653 0)" fill="#fff"/>
            </g>
          </g>
        </g>
      </g>
    </g>
    <g id="Grupo_157950" data-name="Grupo 157950" transform="translate(8636 -10461)">
      <g id="Grupo_157949" data-name="Grupo 157949" clip-path="url(#clip-path)">
        <path id="Trazado_600887" data-name="Trazado 600887" d="M169.009,240.035a7.183,7.183,0,0,0,3.48-1.74c1.229-1.331,2.15-4.3,3.173-3.481a4.929,4.929,0,0,1,1.433,5.221c-.716,2.457-3.685,5.221-3.685,5.221l-7.576-4.4Z" transform="translate(-57.348 -81.152)" fill="none" stroke="#263238" stroke-miterlimit="10" stroke-width="1"/>
        <path id="Trazado_600888" data-name="Trazado 600888" d="M137.786,314.091l-5.107-.56,6.057-4.727Z" transform="translate(-45.882 -106.787)" fill="#fff"/>
        <path id="Trazado_600889" data-name="Trazado 600889" d="M137.786,314.091l-5.107-.56,6.057-4.727Z" transform="translate(-45.882 -106.787)" fill="none" stroke="#263238" stroke-miterlimit="10" stroke-width="1"/>
        <path id="Trazado_600890" data-name="Trazado 600890" d="M142.67,242l-.2,3.993s-4.095,16.686-3.89,17.3-.307,18.222.1,20.269,1.126,7.063,1.126,7.063,5.631-.2,8.19-1.535a38.8,38.8,0,0,0,5.937-4.3l-2.047-7.984a8.484,8.484,0,0,0,2.866-3.276,17.639,17.639,0,0,0,1.229-4.095l1.638-.512s2.15,1.127,3.173.1.2-2.457-.1-3.173-1.433-3.276-1.433-3.276,1.229,1.843,2.457,1.638,1.535-.1,1.638-.921a13.279,13.279,0,0,0-.512-3.071s2.354.922,3.276,0a2.1,2.1,0,0,0,.512-2.252c-.1-.307-2.866-6.552-2.866-6.552s5.425,1.228,5.835,1.228a2.385,2.385,0,0,0,2.15-1.74c.409-1.433-4.1-3.173-7.883-5.937s-7.985-3.89-9.725-3.89-10.646-.614-11.465.921" transform="translate(-47.899 -83.327)" fill="#fff"/>
        <path id="Trazado_600891" data-name="Trazado 600891" d="M142.67,242l-.2,3.993s-4.095,16.686-3.89,17.3-.307,18.222.1,20.269,1.126,7.063,1.126,7.063,5.631-.2,8.19-1.535a38.8,38.8,0,0,0,5.937-4.3l-2.047-7.984a8.484,8.484,0,0,0,2.866-3.276,17.639,17.639,0,0,0,1.229-4.095l1.638-.512s2.15,1.127,3.173.1.2-2.457-.1-3.173-1.433-3.276-1.433-3.276,1.229,1.843,2.457,1.638,1.535-.1,1.638-.921a13.279,13.279,0,0,0-.512-3.071s2.354.922,3.276,0a2.1,2.1,0,0,0,.512-2.252c-.1-.307-2.866-6.552-2.866-6.552s5.425,1.228,5.835,1.228a2.385,2.385,0,0,0,2.15-1.74c.409-1.433-4.1-3.173-7.883-5.937s-7.985-3.89-9.725-3.89S143.489,240.47,142.67,242Z" transform="translate(-47.899 -83.327)" fill="none" stroke="#263238" stroke-miterlimit="10" stroke-width="1"/>
        <path id="Trazado_600892" data-name="Trazado 600892" d="M148.618,248.5c-.41,0,12.08,1.331,13.1,1.638s4.812,3.276,4.812,3.276" transform="translate(-51.39 -85.934)" fill="none" stroke="#263238" stroke-miterlimit="10" stroke-width="1"/>
        <path id="Trazado_600893" data-name="Trazado 600893" d="M147.371,256.8s12.694,2.15,13.82,2.559,4.71,6.347,4.71,6.347" transform="translate(-50.962 -88.802)" fill="none" stroke="#263238" stroke-miterlimit="10" stroke-width="1"/>
        <path id="Trazado_600894" data-name="Trazado 600894" d="M145.337,265.246s11.568,2.662,12.694,3.173a16.264,16.264,0,0,1,2.867,2.048" transform="translate(-50.259 -91.725)" fill="none" stroke="#263238" stroke-miterlimit="10" stroke-width="1"/>
        <path id="Trazado_600895" data-name="Trazado 600895" d="M148.466,278.367l1.638-1.229,6.756.2,3.583,3.276" transform="translate(-51.341 -95.837)" fill="none" stroke="#263238" stroke-miterlimit="10" stroke-width="1"/>
        <path id="Trazado_600896" data-name="Trazado 600896" d="M132.68,312.594l1.182,4.875s2.806.739,8.42-1.477a58.568,58.568,0,0,0,11.227-6.352l-.443-3.546s-9.75,7.091-20.386,6.5" transform="translate(-45.882 -105.85)" fill="#fff"/>
        <path id="Trazado_600897" data-name="Trazado 600897" d="M132.68,312.594l1.182,4.875s2.806.739,8.42-1.477a58.568,58.568,0,0,0,11.227-6.352l-.443-3.546S143.316,313.185,132.68,312.594Z" transform="translate(-45.882 -105.85)" fill="none" stroke="#263238" stroke-miterlimit="10" stroke-width="1"/>
        <path id="Trazado_600898" data-name="Trazado 600898" d="M152.477,309.708s-7.386,4.727-12.7,6.352a46.935,46.935,0,0,1-10.932,1.773s6.5,29.84,8.568,34.42,5.4,17.729,5.4,17.729H180.1s-22.159-42.842-22.9-46.092-4.727-14.182-4.727-14.182" transform="translate(-44.554 -107.1)" fill="#083142"/>
        <path id="Trazado_600899" data-name="Trazado 600899" d="M152.477,309.708s-7.386,4.727-12.7,6.352a46.935,46.935,0,0,1-10.932,1.773s6.5,29.84,8.568,34.42,5.4,17.729,5.4,17.729H180.1s-22.159-42.842-22.9-46.092S152.477,309.708,152.477,309.708Z" transform="translate(-44.554 -107.1)" fill="none" stroke="#263238" stroke-miterlimit="10" stroke-width="1"/>
        <path id="Trazado_600900" data-name="Trazado 600900" d="M181.529,129.736s-6.986,16.243-6.113,18.339,4.366,5.415,2.794,7.685-10.654,9.781-8.907,13.624,6.288,4.017,6.288,4.017-.873,5.065.349,6.288l1.222,1.223s0,2.619.873,3.842a9.761,9.761,0,0,0,3.144,2.271s-4.367,6.463-3.493,8.558,10.829,5.415,15.021,6.463,11.7-.349,11.7-.349l2.1,10.479,39.647-23.23L240.039,173.4s10.479-9.431,11-23.578-3.843-27.421-11.7-32.137-18.514-3.842-18.514-3.842a14.577,14.577,0,0,0-15.544-3.493c-9.606,3.319-23.754,19.387-23.754,19.387" transform="translate(-58.47 -37.845)" fill="#fff"/>
        <path id="Trazado_600901" data-name="Trazado 600901" d="M181.529,129.736s-6.986,16.243-6.113,18.339,4.366,5.415,2.794,7.685-10.654,9.781-8.907,13.624,6.288,4.017,6.288,4.017-.873,5.065.349,6.288l1.222,1.223s0,2.619.873,3.842a9.761,9.761,0,0,0,3.144,2.271s-4.367,6.463-3.493,8.558,10.829,5.415,15.021,6.463,11.7-.349,11.7-.349l2.1,10.479,39.647-23.23L240.039,173.4s10.479-9.431,11-23.578-3.843-27.421-11.7-32.137-18.514-3.842-18.514-3.842a14.577,14.577,0,0,0-15.544-3.493C195.676,113.668,181.529,129.736,181.529,129.736Z" transform="translate(-58.47 -37.845)" fill="none" stroke="#263238" stroke-miterlimit="10" stroke-width="1"/>
        <path id="Trazado_600902" data-name="Trazado 600902" d="M183.3,166.231s0,1.921,2.271,1.048,3.493-2.445,5.239-2.1,4.017,1.223,2.62-1.223-4.715-1.4-6.637-.524a11.48,11.48,0,0,0-3.493,2.795" transform="translate(-63.388 -56.176)" fill="#263238"/>
        <path id="Trazado_600903" data-name="Trazado 600903" d="M183.3,166.231s0,1.921,2.271,1.048,3.493-2.445,5.239-2.1,4.017,1.223,2.62-1.223-4.715-1.4-6.637-.524A11.48,11.48,0,0,0,183.3,166.231Z" transform="translate(-63.388 -56.176)" fill="none" stroke="#263238" stroke-miterlimit="10" stroke-width="1"/>
        <path id="Trazado_600904" data-name="Trazado 600904" d="M188.284,175.272c.715,3.694.566,6.828-.334,7s-2.209-2.679-2.924-6.372-.566-6.829.334-7S187.568,171.578,188.284,175.272Z" transform="translate(-63.827 -58.405)" fill="none" stroke="#263238" stroke-miterlimit="10" stroke-width="2"/>
        <line id="Línea_382" data-name="Línea 382" y1="2.271" x2="33.36" transform="translate(124.282 113.2)" fill="none" stroke="#263238" stroke-miterlimit="10" stroke-width="2"/>
        <path id="Trazado_600905" data-name="Trazado 600905" d="M180.325,171a3.338,3.338,0,0,0-4.017,2.795,4.02,4.02,0,0,0,3.319,4.89c.873,0,2.445-1.048,5.239.175s5.24,2.795,5.24,5.764-1.048,5.065-3.319,4.89-3.842-4.366-5.065-3.843-4.367,5.415-2.271,8.733,16.068,9.606,20.61,9.431,21.483-14.846,23.754-20.26-.7-7.685-1.223-9.257-5.764-14.846-5.764-18.688,2.445-12.576,7.335-12.925,7.86,10.13,6.288,13.972a13.448,13.448,0,0,1-4.017,5.589s-1.048,11.178,1.921,13.1,10.829,4.366,14.5,4.541,5.065.7,6.986-2.969-1.4-5.239-.349-7.335,9.606-12.4,10.479-23.4-1.921-19.911-6.637-26.9-14.846-13.448-18.164-13.972a45.962,45.962,0,0,1-7.161-1.921s3.668-1.572.873-4.017-8.383-3.667-17.466-.7-12.576,6.463-12.576,6.463.524-4.716-4.715-2.62-14.322,11.527-13.1,17.64,4.017,5.939,7.859,4.716,9.781-3.843,12.4-3.493,4.366.524-.349,4.541-11.178,8.209-7.685,10.13,13.274,7.335,14.5,11.352-4.191,32.137-6.113,35.456-5.589,4.366-7.859,1.921-4.192-8.733-8.035-11.527S180.325,171,180.325,171" transform="translate(-60.934 -33.527)" fill="#083142"/>
        <path id="Trazado_600906" data-name="Trazado 600906" d="M180.325,171a3.338,3.338,0,0,0-4.017,2.795,4.02,4.02,0,0,0,3.319,4.89c.873,0,2.445-1.048,5.239.175s5.24,2.795,5.24,5.764-1.048,5.065-3.319,4.89-3.842-4.366-5.065-3.843-4.367,5.415-2.271,8.733,16.068,9.606,20.61,9.431,21.483-14.846,23.754-20.26-.7-7.685-1.223-9.257-5.764-14.846-5.764-18.688,2.445-12.576,7.335-12.925,7.86,10.13,6.288,13.972a13.448,13.448,0,0,1-4.017,5.589s-1.048,11.178,1.921,13.1,10.829,4.366,14.5,4.541,5.065.7,6.986-2.969-1.4-5.239-.349-7.335,9.606-12.4,10.479-23.4-1.921-19.911-6.637-26.9-14.846-13.448-18.164-13.972a45.962,45.962,0,0,1-7.161-1.921s3.668-1.572.873-4.017-8.383-3.667-17.466-.7-12.576,6.463-12.576,6.463.524-4.716-4.715-2.62-14.322,11.527-13.1,17.64,4.017,5.939,7.859,4.716,9.781-3.843,12.4-3.493,4.366.524-.349,4.541-11.178,8.209-7.685,10.13,13.274,7.335,14.5,11.352-4.191,32.137-6.113,35.456-5.589,4.366-7.859,1.921-4.192-8.733-8.035-11.527S180.325,171,180.325,171Z" transform="translate(-60.934 -33.527)" fill="none" stroke="#263238" stroke-miterlimit="10" stroke-width="1"/>
        <path id="Trazado_600907" data-name="Trazado 600907" d="M250.493,196.8s-4.018,1.048-4.716,1.048" transform="translate(-84.992 -68.055)" fill="none" stroke="#263238" stroke-miterlimit="10" stroke-width="1"/>
        <path id="Trazado_600908" data-name="Trazado 600908" d="M207.354,274.756s-7.8,6.336-8.894,9.016-.853,7.8-.853,8.285-5.97,5-8.041,11.087a52.311,52.311,0,0,0-2.193,13.646L200.9,292.179l7.676-15.6Z" transform="translate(-64.795 -95.013)" fill="#92e3a9"/>
        <path id="Trazado_600909" data-name="Trazado 600909" d="M207.354,274.756s-7.8,6.336-8.894,9.016-.853,7.8-.853,8.285-5.97,5-8.041,11.087a52.311,52.311,0,0,0-2.193,13.646L200.9,292.179l7.676-15.6Z" transform="translate(-64.795 -95.013)" fill="none" stroke="#263238" stroke-miterlimit="10" stroke-width="1"/>
        <path id="Trazado_600910" data-name="Trazado 600910" d="M249.847,232.1s-34.233,19.038-33.709,21.483,2.445,9.606,2.445,9.606,26.9-21.308,31.788-23.928,15.195-6.462,15.195-6.462-1.921-5.065-2.445-5.589-9.432,3.318-13.274,4.89" transform="translate(-74.74 -78.555)" fill="#fff"/>
        <path id="Trazado_600911" data-name="Trazado 600911" d="M249.847,232.1s-34.233,19.038-33.709,21.483,2.445,9.606,2.445,9.606,26.9-21.308,31.788-23.928,15.195-6.462,15.195-6.462-1.921-5.065-2.445-5.589S253.69,230.528,249.847,232.1Z" transform="translate(-74.74 -78.555)" fill="none" stroke="#263238" stroke-miterlimit="10" stroke-width="1"/>
        <path id="Trazado_600912" data-name="Trazado 600912" d="M197.355,258.209l-27.421,52.223L150.2,343.267H268.44s-.873-27.246-2.62-44.537-14.5-51-17.116-54.493A27.028,27.028,0,0,1,245.385,239s-.524-5.589-2.445-6.462-20.959,5.589-45.585,25.674" transform="translate(-51.94 -80.386)" fill="#083142"/>
        <path id="Trazado_600913" data-name="Trazado 600913" d="M197.355,258.209l-27.421,52.223L150.2,343.267H268.44s-.873-27.246-2.62-44.537-14.5-51-17.116-54.493A27.028,27.028,0,0,1,245.385,239s-.524-5.589-2.445-6.462S221.981,238.123,197.355,258.209Z" transform="translate(-51.94 -80.386)" fill="none" stroke="#263238" stroke-miterlimit="10" stroke-width="1"/>
      </g>
    </g>
    <g id="Grupo_157952" data-name="Grupo 157952" transform="translate(8636 -10461)">
      <g id="Grupo_157951" data-name="Grupo 157951" clip-path="url(#clip-path)">
        <path id="Trazado_600914" data-name="Trazado 600914" d="M393.123,53.3A46.571,46.571,0,1,1,346.552,6.725,46.571,46.571,0,0,1,393.123,53.3" transform="translate(-103.736 -2.326)" fill="#263238"/>
        <circle id="Elipse_5611" data-name="Elipse 5611" cx="46.571" cy="46.571" r="46.571" transform="translate(196.245 4.399)" fill="none" stroke="#263238" stroke-miterlimit="10" stroke-width="1"/>
        <path id="Trazado_600915" data-name="Trazado 600915" d="M324.486,130.818a6.466,6.466,0,1,1-6.462-6.239,6.354,6.354,0,0,1,6.462,6.239" transform="translate(-107.741 -43.081)" fill="#263238"/>
        <ellipse id="Elipse_5612" data-name="Elipse 5612" cx="6.462" cy="6.239" rx="6.462" ry="6.239" transform="translate(203.821 81.498)" fill="none" stroke="#263238" stroke-miterlimit="10" stroke-width="1"/>
        <path id="Trazado_600916" data-name="Trazado 600916" d="M308.96,143.935a4.663,4.663,0,1,1-4.66-4.5,4.581,4.581,0,0,1,4.66,4.5" transform="translate(-103.618 -48.218)" fill="#263238"/>
        <ellipse id="Elipse_5613" data-name="Elipse 5613" cx="4.66" cy="4.499" rx="4.66" ry="4.499" transform="translate(196.022 91.218)" fill="none" stroke="#263238" stroke-miterlimit="10" stroke-width="1"/>
        <path id="Trazado_600917" data-name="Trazado 600917" d="M390.4,48.527A46.571,46.571,0,1,1,343.827,1.956,46.571,46.571,0,0,1,390.4,48.527" transform="translate(-102.794 -0.676)" fill="#fff"/>
        <circle id="Elipse_5614" data-name="Elipse 5614" cx="46.571" cy="46.571" r="46.571" transform="translate(194.462 1.28)" fill="none" stroke="#263238" stroke-linecap="round" stroke-linejoin="round" stroke-width="1"/>
        <path id="Trazado_600918" data-name="Trazado 600918" d="M321.761,126.049a6.466,6.466,0,1,1-6.462-6.239,6.354,6.354,0,0,1,6.462,6.239" transform="translate(-106.799 -41.431)" fill="#fff"/>
        <ellipse id="Elipse_5615" data-name="Elipse 5615" cx="6.462" cy="6.239" rx="6.462" ry="6.239" transform="translate(202.038 78.379)" fill="none" stroke="#263238" stroke-linecap="round" stroke-linejoin="round" stroke-width="1"/>
        <path id="Trazado_600919" data-name="Trazado 600919" d="M306.235,139.166a4.663,4.663,0,1,1-4.66-4.5,4.581,4.581,0,0,1,4.66,4.5" transform="translate(-102.676 -46.569)" fill="#fff"/>
        <ellipse id="Elipse_5616" data-name="Elipse 5616" cx="4.66" cy="4.499" rx="4.66" ry="4.499" transform="translate(194.239 88.098)" fill="none" stroke="#263238" stroke-linecap="round" stroke-linejoin="round" stroke-width="1"/>
      </g>
    </g>
    <g id="Grupo_157954" data-name="Grupo 157954" transform="translate(8636 -10461)">
      <g id="Grupo_157953" data-name="Grupo 157953" clip-path="url(#clip-path)">
        <path id="Trazado_600920" data-name="Trazado 600920" d="M378.023,52.815A19.672,19.672,0,1,0,343.237,65.4a19.322,19.322,0,0,1,4.481,12.378v2.7h21.266v-2.7a19.284,19.284,0,0,1,4.472-12.366,19.577,19.577,0,0,0,4.566-12.6" transform="translate(-117.119 -11.461)" fill="#2efec7"/>
        <path id="Trazado_600921" data-name="Trazado 600921" d="M378.023,52.815A19.672,19.672,0,1,0,343.237,65.4a19.322,19.322,0,0,1,4.481,12.378v2.7h21.266v-2.7a19.284,19.284,0,0,1,4.472-12.366A19.577,19.577,0,0,0,378.023,52.815Z" transform="translate(-117.119 -11.461)" fill="none" stroke="#263238" stroke-linecap="round" stroke-linejoin="round" stroke-width="1"/>
        <rect id="Rectángulo_45209" data-name="Rectángulo 45209" width="21.266" height="5.26" transform="translate(230.6 69.017)" fill="#fff"/>
        <rect id="Rectángulo_45210" data-name="Rectángulo 45210" width="21.266" height="5.26" transform="translate(230.6 69.017)" fill="none" stroke="#263238" stroke-linecap="round" stroke-linejoin="round" stroke-width="1"/>
        <path id="Trazado_600922" data-name="Trazado 600922" d="M370.671,118.821H355.587a3.092,3.092,0,0,1-3.091-3.091v-2.169h21.266v2.169a3.091,3.091,0,0,1-3.091,3.091" transform="translate(-121.896 -39.27)" fill="#fff"/>
        <path id="Trazado_600923" data-name="Trazado 600923" d="M370.671,118.821H355.587a3.092,3.092,0,0,1-3.091-3.091v-2.169h21.266v2.169A3.091,3.091,0,0,1,370.671,118.821Z" transform="translate(-121.896 -39.27)" fill="none" stroke="#263238" stroke-linecap="round" stroke-linejoin="round" stroke-width="1"/>
        <path id="Trazado_600924" data-name="Trazado 600924" d="M368.3,126.852h-7.513a4.193,4.193,0,0,1-4.193-4.193v-1.067h15.9v1.067a4.193,4.193,0,0,1-4.193,4.193" transform="translate(-123.315 -42.048)" fill="#263238"/>
        <path id="Trazado_600925" data-name="Trazado 600925" d="M368.3,126.852h-7.513a4.193,4.193,0,0,1-4.193-4.193v-1.067h15.9v1.067A4.193,4.193,0,0,1,368.3,126.852Z" transform="translate(-123.315 -42.048)" fill="none" stroke="#263238" stroke-miterlimit="10" stroke-width="1"/>
        <line id="Línea_383" data-name="Línea 383" x2="9.011" transform="translate(263.697 41.457)" fill="none" stroke="#263238" stroke-linecap="round" stroke-linejoin="round" stroke-width="1"/>
        <line id="Línea_384" data-name="Línea 384" x2="9.127" transform="translate(208.913 41.457)" fill="none" stroke="#263238" stroke-linecap="round" stroke-linejoin="round" stroke-width="1"/>
        <line id="Línea_385" data-name="Línea 385" y1="9.036" transform="translate(240.81 9.559)" fill="none" stroke="#263238" stroke-linecap="round" stroke-linejoin="round" stroke-width="1"/>
        <line id="Línea_386" data-name="Línea 386" y1="6.221" x2="6.22" transform="translate(257.145 18.902)" fill="none" stroke="#263238" stroke-linecap="round" stroke-linejoin="round" stroke-width="1"/>
        <line id="Línea_387" data-name="Línea 387" y1="6.311" x2="6.311" transform="translate(218.256 57.7)" fill="none" stroke="#263238" stroke-linecap="round" stroke-linejoin="round" stroke-width="1"/>
        <line id="Línea_388" data-name="Línea 388" x1="6.041" y1="6.041" transform="translate(218.256 18.902)" fill="none" stroke="#263238" stroke-linecap="round" stroke-linejoin="round" stroke-width="1"/>
        <line id="Línea_389" data-name="Línea 389" x1="6.015" y1="6.015" transform="translate(257.35 57.996)" fill="none" stroke="#263238" stroke-linecap="round" stroke-linejoin="round" stroke-width="1"/>
      </g>
    </g>
    <path id="Trazado_600926" data-name="Trazado 600926" d="M128.841,320.342l4.875-1.921.3,2.364Z" transform="translate(8591.445 -10571.113)" fill="#fff"/>
    <path id="Trazado_600927" data-name="Trazado 600927" d="M128.841,320.342l4.875-1.921.3,2.364Z" transform="translate(8591.445 -10571.113)" fill="none" stroke="#263238" stroke-miterlimit="10" stroke-width="1"/>
    <g id="Grupo_157956" data-name="Grupo 157956" transform="translate(8636 -10461)">
      <g id="Grupo_157955" data-name="Grupo 157955" clip-path="url(#clip-path)">
        <path id="Trazado_600928" data-name="Trazado 600928" d="M248.709,125.473v-2.039H246.37a10.345,10.345,0,0,0-.886-3.287l2.031-1.172-1.02-1.766-2.033,1.174a10.481,10.481,0,0,0-2.405-2.405l1.173-2.033-1.766-1.02-1.173,2.031a10.363,10.363,0,0,0-3.287-.886v-2.339h-2.04v2.339a10.363,10.363,0,0,0-3.287.886l-1.173-2.031-1.766,1.02,1.174,2.033a10.483,10.483,0,0,0-2.406,2.405l-2.033-1.174-1.02,1.766,2.031,1.172a10.345,10.345,0,0,0-.886,3.287H223.26v2.039H225.6a10.345,10.345,0,0,0,.886,3.287l-2.031,1.172,1.02,1.766,2.033-1.174a10.481,10.481,0,0,0,2.405,2.405l-1.173,2.033,1.766,1.02,1.173-2.031a10.363,10.363,0,0,0,3.287.886v2.339H237v-2.339a10.363,10.363,0,0,0,3.287-.886l1.173,2.031,1.766-1.02-1.173-2.033a10.481,10.481,0,0,0,2.405-2.405l2.033,1.174,1.02-1.766-2.031-1.172a10.345,10.345,0,0,0,.886-3.287Zm-12.725-9a7.981,7.981,0,0,1,7.948,7.28h-6.44a1.665,1.665,0,0,0-1.508-.966,1.631,1.631,0,0,0-.241.025l-3.351-5.479a7.936,7.936,0,0,1,3.592-.861M228,124.453a7.968,7.968,0,0,1,3.4-6.53l3.329,5.442a1.639,1.639,0,0,0-.071,2.089l-3.265,5.523A7.967,7.967,0,0,1,228,124.453m7.983,7.983a7.932,7.932,0,0,1-3.6-.865l3.245-5.489a1.681,1.681,0,0,0,.356.04,1.663,1.663,0,0,0,1.6-1.216h6.363a7.978,7.978,0,0,1-7.961,7.531" transform="translate(-77.205 -38.637)" fill="#d1d1d1"/>
        <path id="Trazado_600929" data-name="Trazado 600929" d="M264.236,160.1h2.039V157.76a10.349,10.349,0,0,0,3.287-.889l1.174,2.03,1.766-1.021-1.175-2.032a10.467,10.467,0,0,0,2.4-2.407l2.034,1.172,1.019-1.767-2.032-1.171a10.368,10.368,0,0,0,.884-3.288h2.339v-2.039h-2.34a10.344,10.344,0,0,0-.888-3.287l2.03-1.174-1.021-1.766L273.72,141.3a10.5,10.5,0,0,0-2.407-2.4l1.172-2.033-1.767-1.019-1.171,2.032a10.368,10.368,0,0,0-3.288-.884v-2.339l-2.039,0v2.339a10.344,10.344,0,0,0-3.287.888l-1.174-2.03-1.766,1.021,1.175,2.032a10.5,10.5,0,0,0-2.4,2.407l-2.033-1.172-1.019,1.767,2.032,1.171a10.369,10.369,0,0,0-.884,3.288h-2.339v2.04l2.339,0a10.345,10.345,0,0,0,.889,3.287l-2.03,1.174,1.021,1.766,2.032-1.175a10.484,10.484,0,0,0,2.407,2.4l-1.172,2.033,1.767,1.019,1.171-2.032a10.365,10.365,0,0,0,3.288.884Zm8.994-12.731a7.981,7.981,0,0,1-7.275,7.953l0-6.44a1.664,1.664,0,0,0,.965-1.509,1.622,1.622,0,0,0-.025-.241l5.476-3.355a7.944,7.944,0,0,1,.864,3.592m-7.989-7.978a7.968,7.968,0,0,1,6.532,3.4l-5.44,3.332a1.637,1.637,0,0,0-2.089-.07l-5.525-3.262a7.969,7.969,0,0,1,6.522-3.4m-7.978,7.989a7.943,7.943,0,0,1,.863-3.6l5.492,3.242a1.65,1.65,0,0,0,1.178,1.953l0,6.363a7.977,7.977,0,0,1-7.536-7.956" transform="translate(-87.324 -46.563)" fill="#d1d1d1"/>
      </g>
    </g>
    <g id="Grupo_157958" data-name="Grupo 157958" transform="translate(8636 -10461)">
      <g id="Grupo_157957" data-name="Grupo 157957" clip-path="url(#clip-path)">
        <path id="Trazado_600930" data-name="Trazado 600930" d="M1.6,143.653s.566,0,1.63.1" transform="translate(-0.553 -49.677)" fill="none" stroke="#263238" stroke-miterlimit="10" stroke-width="1"/>
        <path id="Trazado_600931" data-name="Trazado 600931" d="M9.064,144.509c6.085,1.087,17.388,4.287,31.215,13.7,16.885,11.5,45.932,11.7,60.764,10.177" transform="translate(-3.134 -49.973)" fill="none" stroke="#263238" stroke-miterlimit="10" stroke-width="1" stroke-dasharray="5.026 5.026"/>
        <path id="Trazado_600932" data-name="Trazado 600932" d="M152.165,180.62q.85-.1,1.619-.209" transform="translate(-52.62 -62.388)" fill="none" stroke="#263238" stroke-miterlimit="10" stroke-width="1"/>
        <path id="Trazado_600933" data-name="Trazado 600933" d="M153.453,182.093l5-4.194-6.13-2.231Z" transform="translate(-52.673 -60.748)" fill="#263238"/>
        <path id="Trazado_600934" data-name="Trazado 600934" d="M.918,31.249s.432.375,1.236,1.067" transform="translate(-0.317 -10.806)" fill="none" stroke="#263238" stroke-miterlimit="10" stroke-width="1"/>
        <path id="Trazado_600935" data-name="Trazado 600935" d="M6.68,36.2C19.411,47.063,61.17,82.109,81.792,92.233a226.009,226.009,0,0,0,22.6,9.924" transform="translate(-2.31 -12.518)" fill="none" stroke="#263238" stroke-miterlimit="10" stroke-width="1" stroke-dasharray="5.105 5.105"/>
        <path id="Trazado_600936" data-name="Trazado 600936" d="M158.454,137.862q.846.284,1.555.5" transform="translate(-54.795 -47.674)" fill="none" stroke="#263238" stroke-miterlimit="10" stroke-width="1"/>
        <path id="Trazado_600937" data-name="Trazado 600937" d="M158.247,139.686l6.263-1.825L159.8,133.35Z" transform="translate(-54.723 -46.114)" fill="#263238"/>
        <path id="Trazado_600938" data-name="Trazado 600938" d="M.046,315.949s.571.053,1.63.1" transform="translate(-0.016 -109.258)" fill="none" stroke="#263238" stroke-miterlimit="10" stroke-width="1"/>
        <path id="Trazado_600939" data-name="Trazado 600939" d="M7.58,283.751c10.486.081,35.932-1.44,58.926-16.2,14.318-9.189,23.054-33.279,30.86-45.267" transform="translate(-2.621 -76.869)" fill="none" stroke="#263238" stroke-miterlimit="10" stroke-width="1" stroke-dasharray="5.047 5.047"/>
        <path id="Trazado_600940" data-name="Trazado 600940" d="M146.245,219.5q.488-.692.972-1.312" transform="translate(-50.573 -75.45)" fill="none" stroke="#263238" stroke-miterlimit="10" stroke-width="1"/>
        <path id="Trazado_600941" data-name="Trazado 600941" d="M147.927,219.465l1.59-6.327-6.274,1.785Z" transform="translate(-49.535 -73.705)" fill="#263238"/>
        <path id="Trazado_600942" data-name="Trazado 600942" d="M3.643,240.389s.565.083,1.622.183" transform="translate(-1.26 -83.129)" fill="none" stroke="#263238" stroke-miterlimit="10" stroke-width="1"/>
        <path id="Trazado_600943" data-name="Trazado 600943" d="M11.013,228.865a116.073,116.073,0,0,0,58.017-12.89q12.709-6.615,19.282-10.1" transform="translate(-3.808 -71.194)" fill="none" stroke="#263238" stroke-miterlimit="10" stroke-width="1" stroke-dasharray="4.907 4.907"/>
        <path id="Trazado_600944" data-name="Trazado 600944" d="M131.348,204.325l1.444-.764" transform="translate(-45.421 -70.393)" fill="none" stroke="#263238" stroke-miterlimit="10" stroke-width="1"/>
        <path id="Trazado_600945" data-name="Trazado 600945" d="M132.961,205.573l3.484-5.515-6.518-.26Z" transform="translate(-44.93 -69.092)" fill="#263238"/>
      </g>
    </g>
    <path id="Trazado_601036" data-name="Trazado 601036" d="M0,0H258.594" transform="translate(8662.337 -10198.119)" fill="none" stroke="#263238" stroke-width="1"/>
    <path id="Trazado_601037" data-name="Trazado 601037" d="M0,0H9.153" transform="translate(8646.851 -10198.119)" fill="none" stroke="#263238" stroke-width="1"/>
    <path id="Trazado_601038" data-name="Trazado 601038" d="M0,0H295V271.262H0Z" transform="translate(8636 -10461)" fill="none"/>
    <path id="Trazado_601020" data-name="Trazado 601020" d="M20,40A20,20,0,1,1,20,0H264.967a20,20,0,0,1,18.31,11.942L295,20l-11.726,8.06A20.006,20.006,0,0,1,264.967,40Z" transform="translate(9078.503 -10121.998) rotate(180)" fill="#ffb476"/>
    <path id="Trazado_601021" data-name="Trazado 601021" d="M20,40A20,20,0,1,1,20,0H264.967a20,20,0,0,1,18.31,11.942L295,20l-11.726,8.06A20.006,20.006,0,0,1,264.967,40Z" transform="translate(9078.503 -10001.998) rotate(180)" fill="#ffb476"/>
    <path id="Trazado_601022" data-name="Trazado 601022" d="M20,40A20,20,0,1,1,20,0H264.967a20,20,0,0,1,18.31,11.942L295,20l-11.726,8.06A20.006,20.006,0,0,1,264.967,40Z" transform="translate(9078.503 -9941.998) rotate(180)" fill="#ffb476"/>
    <path id="Trazado_601023" data-name="Trazado 601023" d="M20,40A20,20,0,1,1,20,0H264.967a20,20,0,0,1,18.31,11.942L295,20l-11.726,8.06A20.006,20.006,0,0,1,264.967,40Z" transform="translate(9078.503 -10061.998) rotate(180)" fill="#ffb476"/>
    <path id="Trazado_601024" data-name="Trazado 601024" d="M7.516,12.227a2.38,2.38,0,0,1,.121.457,2.885,2.885,0,0,1,.043.48,2.849,2.849,0,0,1-.07.656,2.289,2.289,0,0,1-.211.559,2.639,2.639,0,0,1-.352.5,4.52,4.52,0,0,1-.492.473q-.289.25-.516.465a3.155,3.155,0,0,0-.383.43,1.666,1.666,0,0,0-.234.445,1.587,1.587,0,0,0-.078.512,1.16,1.16,0,0,0,.086.449,1,1,0,0,0,.246.355,1.166,1.166,0,0,0,.391.234,1.455,1.455,0,0,0,.512.086,3.5,3.5,0,0,0,1.266-.254,4.143,4.143,0,0,0,1.242-.77v2.352a4.87,4.87,0,0,1-1.312.539,5.971,5.971,0,0,1-1.469.18,5.433,5.433,0,0,1-1.352-.16,3.109,3.109,0,0,1-1.09-.5,2.369,2.369,0,0,1-.727-.879,2.9,2.9,0,0,1-.262-1.285,3.169,3.169,0,0,1,.109-.863,2.9,2.9,0,0,1,.32-.73,3.685,3.685,0,0,1,.523-.66,9.693,9.693,0,0,1,.719-.652q.273-.227.48-.422a2.68,2.68,0,0,0,.344-.387,1.5,1.5,0,0,0,.207-.406,1.567,1.567,0,0,0,.07-.488,1.518,1.518,0,0,0-.051-.383,1.121,1.121,0,0,0-.137-.328ZM6.375,8.8a1.472,1.472,0,0,1,1.039.375,1.227,1.227,0,0,1,.414.922,1.172,1.172,0,0,1-.414.914,1.508,1.508,0,0,1-1.039.367,1.469,1.469,0,0,1-1.023-.367,1.167,1.167,0,0,1-.406-.914,1.194,1.194,0,0,1,.4-.93A1.479,1.479,0,0,1,6.375,8.8Zm3.859,7.766v-2.5a4.8,4.8,0,0,0,1.477.855,4.746,4.746,0,0,0,1.609.285,3.569,3.569,0,0,0,.832-.086,1.949,1.949,0,0,0,.594-.238,1.039,1.039,0,0,0,.355-.359.9.9,0,0,0,.117-.449.971.971,0,0,0-.187-.586,2.018,2.018,0,0,0-.512-.477,5.347,5.347,0,0,0-.77-.422q-.445-.2-.961-.414a4.9,4.9,0,0,1-1.957-1.336,2.917,2.917,0,0,1-.645-1.906,3.036,3.036,0,0,1,.352-1.5A2.986,2.986,0,0,1,11.5,6.4a4.291,4.291,0,0,1,1.4-.6,7.206,7.206,0,0,1,1.688-.191,10.15,10.15,0,0,1,1.551.105,6.1,6.1,0,0,1,1.246.324V8.375a3.768,3.768,0,0,0-.613-.344,4.859,4.859,0,0,0-.684-.246,5.214,5.214,0,0,0-.7-.145,4.949,4.949,0,0,0-.66-.047,3.443,3.443,0,0,0-.781.082,2,2,0,0,0-.594.23,1.147,1.147,0,0,0-.375.355.843.843,0,0,0-.133.465.888.888,0,0,0,.148.5,1.7,1.7,0,0,0,.422.422,4.477,4.477,0,0,0,.664.391q.391.191.883.395a9.837,9.837,0,0,1,1.207.6,4.291,4.291,0,0,1,.918.715,2.785,2.785,0,0,1,.586.91,3.216,3.216,0,0,1,.2,1.191,3.191,3.191,0,0,1-.355,1.574,2.886,2.886,0,0,1-.965,1.031,4.184,4.184,0,0,1-1.418.566,8.2,8.2,0,0,1-1.707.172,9.492,9.492,0,0,1-1.754-.156A5.3,5.3,0,0,1,10.234,16.57ZM26.664,13.7H21.445q.125,1.742,2.2,1.742a4.286,4.286,0,0,0,2.32-.625V16.6a6.1,6.1,0,0,1-2.883.594,4.058,4.058,0,0,1-3.008-1.074,4.058,4.058,0,0,1-1.07-3,4.281,4.281,0,0,1,1.156-3.156A3.852,3.852,0,0,1,23,8.8a3.5,3.5,0,0,1,2.707,1.039,4,4,0,0,1,.957,2.82Zm-2.289-1.516q0-1.719-1.391-1.719a1.328,1.328,0,0,0-1.027.492,2.234,2.234,0,0,0-.527,1.227Zm13.391-.961a2.142,2.142,0,0,0-1.039-.242,1.5,1.5,0,0,0-1.258.59,2.573,2.573,0,0,0-.453,1.605V17H32.547V9h2.469v1.484h.031a2.136,2.136,0,0,1,2.109-1.625,1.59,1.59,0,0,1,.609.094ZM46.039,13.7H40.82q.125,1.742,2.2,1.742a4.286,4.286,0,0,0,2.32-.625V16.6a6.1,6.1,0,0,1-2.883.594,4.058,4.058,0,0,1-3.008-1.074,4.058,4.058,0,0,1-1.07-3,4.281,4.281,0,0,1,1.156-3.156A3.852,3.852,0,0,1,42.375,8.8a3.5,3.5,0,0,1,2.707,1.039,4,4,0,0,1,.957,2.82ZM43.75,12.188q0-1.719-1.391-1.719a1.328,1.328,0,0,0-1.027.492,2.234,2.234,0,0,0-.527,1.227ZM55.336,20.68H52.867V15.9h-.031a2.742,2.742,0,0,1-2.461,1.3,3.064,3.064,0,0,1-2.426-1.051,4.339,4.339,0,0,1-.918-2.949A4.794,4.794,0,0,1,48.039,10a3.271,3.271,0,0,1,2.625-1.2A2.381,2.381,0,0,1,52.836,9.93h.031V9h2.469Zm-2.422-7.5v-.641a1.952,1.952,0,0,0-.453-1.312A1.46,1.46,0,0,0,51.3,10.7a1.507,1.507,0,0,0-1.289.645,2.986,2.986,0,0,0-.469,1.785,2.52,2.52,0,0,0,.457,1.6,1.448,1.448,0,0,0,1.191.578,1.53,1.53,0,0,0,1.254-.586A2.376,2.376,0,0,0,52.914,13.18ZM65.016,17H62.555V15.781h-.039A2.792,2.792,0,0,1,60.07,17.2q-2.781,0-2.781-3.367V9H59.75v4.609q0,1.7,1.344,1.7a1.329,1.329,0,0,0,1.063-.465,1.874,1.874,0,0,0,.4-1.262V9h2.461Zm3.328-9.266a1.442,1.442,0,0,1-1.023-.371,1.2,1.2,0,0,1-.4-.91,1.153,1.153,0,0,1,.4-.906,1.671,1.671,0,0,1,2.051,0,1.158,1.158,0,0,1,.395.906,1.191,1.191,0,0,1-.395.922A1.466,1.466,0,0,1,68.344,7.734ZM69.563,17H67.094V9h2.469Zm9.266-3.3H73.609q.125,1.742,2.2,1.742a4.286,4.286,0,0,0,2.32-.625V16.6a6.1,6.1,0,0,1-2.883.594,4.058,4.058,0,0,1-3.008-1.074,4.058,4.058,0,0,1-1.07-3A4.281,4.281,0,0,1,72.32,9.969,3.852,3.852,0,0,1,75.164,8.8a3.5,3.5,0,0,1,2.707,1.039,4,4,0,0,1,.957,2.82Zm-2.289-1.516q0-1.719-1.391-1.719a1.328,1.328,0,0,0-1.027.492,2.234,2.234,0,0,0-.527,1.227Zm8.977-.961a2.141,2.141,0,0,0-1.039-.242,1.5,1.5,0,0,0-1.258.59,2.573,2.573,0,0,0-.453,1.605V17H80.3V9h2.469v1.484H82.8a2.136,2.136,0,0,1,2.109-1.625,1.59,1.59,0,0,1,.609.094ZM93.789,13.7H88.57q.125,1.742,2.2,1.742a4.286,4.286,0,0,0,2.32-.625V16.6A6.1,6.1,0,0,1,90.2,17.2,4.058,4.058,0,0,1,87.2,16.121a4.058,4.058,0,0,1-1.07-3,4.281,4.281,0,0,1,1.156-3.156A3.852,3.852,0,0,1,90.125,8.8a3.5,3.5,0,0,1,2.707,1.039,4,4,0,0,1,.957,2.82ZM91.5,12.188q0-1.719-1.391-1.719a1.328,1.328,0,0,0-1.027.492,2.234,2.234,0,0,0-.527,1.227ZM107.273,17h-2.461V15.781h-.039a2.792,2.792,0,0,1-2.445,1.414q-2.781,0-2.781-3.367V9h2.461v4.609q0,1.7,1.344,1.7a1.329,1.329,0,0,0,1.063-.465,1.874,1.874,0,0,0,.4-1.262V9h2.461Zm9.8,0h-2.461V12.555q0-1.859-1.328-1.859a1.318,1.318,0,0,0-1.055.492,1.875,1.875,0,0,0-.414,1.25V17h-2.469V9h2.469v1.266h.031a2.829,2.829,0,0,1,2.57-1.461q2.656,0,2.656,3.3Zm5.844-.211v-2a5.256,5.256,0,0,0,1.215.547,4.028,4.028,0,0,0,1.145.18,2.455,2.455,0,0,0,1.035-.18.581.581,0,0,0,.379-.547.506.506,0,0,0-.172-.391,1.6,1.6,0,0,0-.441-.273,5.009,5.009,0,0,0-.59-.211q-.32-.094-.617-.211a5.913,5.913,0,0,1-.84-.387,2.427,2.427,0,0,1-.609-.48,1.889,1.889,0,0,1-.375-.633,2.525,2.525,0,0,1-.129-.852,2.192,2.192,0,0,1,.293-1.156A2.393,2.393,0,0,1,124,9.4a3.57,3.57,0,0,1,1.117-.453,5.825,5.825,0,0,1,1.309-.145,7.261,7.261,0,0,1,1.078.082,8.047,8.047,0,0,1,1.078.238v1.906a3.9,3.9,0,0,0-1-.41,4.235,4.235,0,0,0-1.051-.137,2.328,2.328,0,0,0-.457.043,1.505,1.505,0,0,0-.379.125.7.7,0,0,0-.258.211.486.486,0,0,0-.094.293.541.541,0,0,0,.141.375,1.221,1.221,0,0,0,.367.27,3.625,3.625,0,0,0,.5.2q.277.09.551.184a7.161,7.161,0,0,1,.891.375,2.848,2.848,0,0,1,.684.477,1.871,1.871,0,0,1,.438.641,2.563,2.563,0,0,1-.156,2.09,2.471,2.471,0,0,1-.82.82,3.72,3.72,0,0,1-1.18.461,6.54,6.54,0,0,1-1.387.145A7.149,7.149,0,0,1,122.922,16.789ZM134.3,17.2a4.3,4.3,0,0,1-3.145-1.121,4.064,4.064,0,0,1-1.145-3.043A4.065,4.065,0,0,1,131.2,9.926,4.487,4.487,0,0,1,134.406,8.8a4.249,4.249,0,0,1,3.125,1.121,3.985,3.985,0,0,1,1.133,2.965,4.23,4.23,0,0,1-1.168,3.148A4.348,4.348,0,0,1,134.3,17.2Zm.063-6.5a1.647,1.647,0,0,0-1.359.6,2.653,2.653,0,0,0-.484,1.7q0,2.3,1.859,2.3,1.773,0,1.773-2.367Q136.148,10.7,134.359,10.7Zm8.375,6.3h-2.469V5.156h2.469Zm5.891.2a4.3,4.3,0,0,1-3.145-1.121,4.064,4.064,0,0,1-1.145-3.043,4.065,4.065,0,0,1,1.188-3.105A4.487,4.487,0,0,1,148.734,8.8a4.249,4.249,0,0,1,3.125,1.121,3.985,3.985,0,0,1,1.133,2.965,4.23,4.23,0,0,1-1.168,3.148A4.348,4.348,0,0,1,148.625,17.2Zm.063-6.5a1.647,1.647,0,0,0-1.359.6,2.653,2.653,0,0,0-.484,1.7q0,2.3,1.859,2.3,1.773,0,1.773-2.367Q150.477,10.7,148.688,10.7Zm9.8,6.094v-2a5.256,5.256,0,0,0,1.215.547,4.028,4.028,0,0,0,1.145.18,2.455,2.455,0,0,0,1.035-.18.581.581,0,0,0,.379-.547.506.506,0,0,0-.172-.391,1.6,1.6,0,0,0-.441-.273,5.009,5.009,0,0,0-.59-.211q-.32-.094-.617-.211a5.914,5.914,0,0,1-.84-.387,2.427,2.427,0,0,1-.609-.48,1.889,1.889,0,0,1-.375-.633,2.525,2.525,0,0,1-.129-.852,2.192,2.192,0,0,1,.293-1.156,2.393,2.393,0,0,1,.781-.793,3.57,3.57,0,0,1,1.117-.453,5.825,5.825,0,0,1,1.309-.145,7.261,7.261,0,0,1,1.078.082,8.047,8.047,0,0,1,1.078.238v1.906a3.9,3.9,0,0,0-1-.41,4.235,4.235,0,0,0-1.051-.137,2.328,2.328,0,0,0-.457.043,1.505,1.505,0,0,0-.379.125.7.7,0,0,0-.258.211.486.486,0,0,0-.094.293.541.541,0,0,0,.141.375,1.221,1.221,0,0,0,.367.27,3.625,3.625,0,0,0,.5.2q.277.09.551.184a7.161,7.161,0,0,1,.891.375,2.848,2.848,0,0,1,.684.477,1.871,1.871,0,0,1,.438.641,2.563,2.563,0,0,1-.156,2.09,2.471,2.471,0,0,1-.82.82,3.72,3.72,0,0,1-1.18.461,6.54,6.54,0,0,1-1.387.145A7.149,7.149,0,0,1,158.484,16.789Zm14.75-3.086h-5.219q.125,1.742,2.2,1.742a4.286,4.286,0,0,0,2.32-.625V16.6a6.1,6.1,0,0,1-2.883.594,4.058,4.058,0,0,1-3.008-1.074,4.058,4.058,0,0,1-1.07-3,4.281,4.281,0,0,1,1.156-3.156A3.852,3.852,0,0,1,169.57,8.8a3.5,3.5,0,0,1,2.707,1.039,4,4,0,0,1,.957,2.82Zm-2.289-1.516q0-1.719-1.391-1.719a1.328,1.328,0,0,0-1.027.492A2.234,2.234,0,0,0,168,12.188ZM182.43,17h-2.461V12.555q0-1.859-1.328-1.859a1.318,1.318,0,0,0-1.055.492,1.875,1.875,0,0,0-.414,1.25V17H174.7V9h2.469v1.266h.031a2.829,2.829,0,0,1,2.57-1.461q2.656,0,2.656,3.3Zm1.43-.211v-2a5.256,5.256,0,0,0,1.215.547,4.028,4.028,0,0,0,1.145.18,2.455,2.455,0,0,0,1.035-.18.581.581,0,0,0,.379-.547.506.506,0,0,0-.172-.391,1.6,1.6,0,0,0-.441-.273,5.009,5.009,0,0,0-.59-.211q-.32-.094-.617-.211a5.914,5.914,0,0,1-.84-.387,2.427,2.427,0,0,1-.609-.48,1.889,1.889,0,0,1-.375-.633,2.525,2.525,0,0,1-.129-.852,2.192,2.192,0,0,1,.293-1.156,2.393,2.393,0,0,1,.781-.793,3.57,3.57,0,0,1,1.117-.453,5.825,5.825,0,0,1,1.309-.145,7.261,7.261,0,0,1,1.078.082,8.047,8.047,0,0,1,1.078.238v1.906a3.9,3.9,0,0,0-1-.41,4.235,4.235,0,0,0-1.051-.137,2.328,2.328,0,0,0-.457.043,1.505,1.505,0,0,0-.379.125.7.7,0,0,0-.258.211.486.486,0,0,0-.094.293.541.541,0,0,0,.141.375,1.221,1.221,0,0,0,.367.27,3.625,3.625,0,0,0,.5.2q.277.09.551.184a7.161,7.161,0,0,1,.891.375,2.848,2.848,0,0,1,.684.477,1.871,1.871,0,0,1,.438.641,2.563,2.563,0,0,1-.156,2.09,2.471,2.471,0,0,1-.82.82,3.72,3.72,0,0,1-1.18.461,6.54,6.54,0,0,1-1.387.145A7.149,7.149,0,0,1,183.859,16.789Zm11.375.406a4.3,4.3,0,0,1-3.145-1.121,4.064,4.064,0,0,1-1.145-3.043,4.065,4.065,0,0,1,1.188-3.105A4.487,4.487,0,0,1,195.344,8.8a4.249,4.249,0,0,1,3.125,1.121,3.985,3.985,0,0,1,1.133,2.965,4.23,4.23,0,0,1-1.168,3.148A4.348,4.348,0,0,1,195.234,17.2Zm.063-6.5a1.647,1.647,0,0,0-1.359.6,2.653,2.653,0,0,0-.484,1.7q0,2.3,1.859,2.3,1.773,0,1.773-2.367Q197.086,10.7,195.3,10.7Zm11.125.531a2.142,2.142,0,0,0-1.039-.242,1.5,1.5,0,0,0-1.258.59,2.573,2.573,0,0,0-.453,1.605V17H201.2V9h2.469v1.484h.031a2.136,2.136,0,0,1,2.109-1.625,1.59,1.59,0,0,1,.609.094Zm2.164,2.531a2.38,2.38,0,0,1-.121-.457,2.885,2.885,0,0,1-.043-.48,2.849,2.849,0,0,1,.07-.656,2.289,2.289,0,0,1,.211-.559,2.639,2.639,0,0,1,.352-.5,4.52,4.52,0,0,1,.492-.473q.3-.25.52-.465a3.3,3.3,0,0,0,.379-.43,1.665,1.665,0,0,0,.234-.445,1.587,1.587,0,0,0,.078-.512,1.16,1.16,0,0,0-.086-.449,1,1,0,0,0-.246-.355,1.166,1.166,0,0,0-.391-.234,1.455,1.455,0,0,0-.512-.086,3.5,3.5,0,0,0-1.266.254,4.143,4.143,0,0,0-1.242.77V6.328a4.87,4.87,0,0,1,1.313-.539,5.971,5.971,0,0,1,1.469-.18,5.433,5.433,0,0,1,1.352.16,3.109,3.109,0,0,1,1.09.5,2.369,2.369,0,0,1,.727.879,2.9,2.9,0,0,1,.262,1.285,3.169,3.169,0,0,1-.109.863,2.9,2.9,0,0,1-.32.73,3.685,3.685,0,0,1-.523.66,9.693,9.693,0,0,1-.719.652q-.273.227-.48.422a2.68,2.68,0,0,0-.344.387,1.5,1.5,0,0,0-.207.406,1.567,1.567,0,0,0-.07.488,1.517,1.517,0,0,0,.051.383,1.121,1.121,0,0,0,.137.328Zm1.141,3.422a1.49,1.49,0,0,1-1.039-.375,1.227,1.227,0,0,1-.414-.922,1.172,1.172,0,0,1,.414-.914,1.508,1.508,0,0,1,1.039-.367,1.469,1.469,0,0,1,1.023.367,1.167,1.167,0,0,1,.406.914,1.21,1.21,0,0,1-.4.93A1.479,1.479,0,0,1,209.727,17.18Z" transform="translate(8823.501 -10151)" fill="#12263f"/>
    <path id="Trazado_601025" data-name="Trazado 601025" d="M51.438,16.6a7.388,7.388,0,0,1-3.2.594A5.4,5.4,0,0,1,44.18,15.68,5.54,5.54,0,0,1,42.7,11.641a5.919,5.919,0,0,1,1.66-4.359,5.807,5.807,0,0,1,4.309-1.672,8.058,8.058,0,0,1,2.766.414v2.43a4.9,4.9,0,0,0-2.562-.672,3.4,3.4,0,0,0-2.547.992,3.682,3.682,0,0,0-.969,2.688,3.611,3.611,0,0,0,.914,2.59,3.229,3.229,0,0,0,2.461.965,5.249,5.249,0,0,0,2.7-.719Zm5.523.594a4.3,4.3,0,0,1-3.145-1.121,4.064,4.064,0,0,1-1.145-3.043,4.065,4.065,0,0,1,1.188-3.105A4.487,4.487,0,0,1,57.07,8.8,4.249,4.249,0,0,1,60.2,9.926a3.985,3.985,0,0,1,1.133,2.965,4.23,4.23,0,0,1-1.168,3.148A4.348,4.348,0,0,1,56.961,17.2Zm.063-6.5a1.647,1.647,0,0,0-1.359.6A2.653,2.653,0,0,0,55.18,13q0,2.3,1.859,2.3,1.773,0,1.773-2.367Q58.813,10.7,57.023,10.7Zm5.383,6.094v-2a5.256,5.256,0,0,0,1.215.547,4.028,4.028,0,0,0,1.145.18,2.455,2.455,0,0,0,1.035-.18.581.581,0,0,0,.379-.547.506.506,0,0,0-.172-.391,1.6,1.6,0,0,0-.441-.273,5.009,5.009,0,0,0-.59-.211q-.32-.094-.617-.211a5.913,5.913,0,0,1-.84-.387,2.427,2.427,0,0,1-.609-.48,1.889,1.889,0,0,1-.375-.633,2.525,2.525,0,0,1-.129-.852A2.192,2.192,0,0,1,62.7,10.2,2.393,2.393,0,0,1,63.48,9.4,3.57,3.57,0,0,1,64.6,8.949,5.825,5.825,0,0,1,65.906,8.8a7.261,7.261,0,0,1,1.078.082,8.047,8.047,0,0,1,1.078.238v1.906a3.9,3.9,0,0,0-1-.41,4.235,4.235,0,0,0-1.051-.137,2.328,2.328,0,0,0-.457.043,1.505,1.505,0,0,0-.379.125.7.7,0,0,0-.258.211.486.486,0,0,0-.094.293.541.541,0,0,0,.141.375,1.221,1.221,0,0,0,.367.27,3.625,3.625,0,0,0,.5.2q.277.09.551.184a7.161,7.161,0,0,1,.891.375,2.848,2.848,0,0,1,.684.477,1.872,1.872,0,0,1,.438.641,2.563,2.563,0,0,1-.156,2.09,2.471,2.471,0,0,1-.82.82,3.72,3.72,0,0,1-1.18.461,6.54,6.54,0,0,1-1.387.145A7.149,7.149,0,0,1,62.406,16.789Zm12.4.117a3.649,3.649,0,0,1-1.648.289q-2.609,0-2.609-2.711V10.82h-1.3V9h1.3V7.273l2.461-.7V9h1.8v1.82h-1.8v3.234q0,1.25.992,1.25a1.673,1.673,0,0,0,.8-.227Zm5.141.289A4.3,4.3,0,0,1,76.8,16.074a4.064,4.064,0,0,1-1.145-3.043,4.065,4.065,0,0,1,1.188-3.105A4.487,4.487,0,0,1,80.055,8.8,4.249,4.249,0,0,1,83.18,9.926a3.985,3.985,0,0,1,1.133,2.965,4.23,4.23,0,0,1-1.168,3.148A4.348,4.348,0,0,1,79.945,17.2Zm.063-6.5a1.647,1.647,0,0,0-1.359.6,2.653,2.653,0,0,0-.484,1.7q0,2.3,1.859,2.3,1.773,0,1.773-2.367Q81.8,10.7,80.008,10.7Z" transform="translate(8867.501 -10091)" fill="#12263f"/>
    <path id="Trazado_601026" data-name="Trazado 601026" d="M73.277,13.141V17H70.754V5.8h3.953q4.234,0,4.234,3.57a3.426,3.426,0,0,1-1.215,2.73,4.813,4.813,0,0,1-3.246,1.043Zm0-5.406v3.492h.992q2.016,0,2.016-1.766,0-1.727-2.016-1.727Zm12.281,3.492a2.141,2.141,0,0,0-1.039-.242,1.5,1.5,0,0,0-1.258.59,2.573,2.573,0,0,0-.453,1.605V17H80.34V9h2.469v1.484h.031a2.136,2.136,0,0,1,2.109-1.625,1.59,1.59,0,0,1,.609.094ZM93.832,13.7H88.613q.125,1.742,2.2,1.742a4.286,4.286,0,0,0,2.32-.625V16.6a6.1,6.1,0,0,1-2.883.594,4.058,4.058,0,0,1-3.008-1.074,4.058,4.058,0,0,1-1.07-3,4.281,4.281,0,0,1,1.156-3.156A3.852,3.852,0,0,1,90.168,8.8a3.5,3.5,0,0,1,2.707,1.039,4,4,0,0,1,.957,2.82Zm-2.289-1.516q0-1.719-1.391-1.719a1.328,1.328,0,0,0-1.027.492,2.234,2.234,0,0,0-.527,1.227Zm9.82,4.523a4.881,4.881,0,0,1-2.414.484,4.083,4.083,0,0,1-2.984-1.117A3.859,3.859,0,0,1,94.824,13.2,4.251,4.251,0,0,1,96.047,9.98,4.518,4.518,0,0,1,99.316,8.8a4.2,4.2,0,0,1,2.047.375v2.094a2.814,2.814,0,0,0-1.727-.578,2.275,2.275,0,0,0-1.684.621,2.317,2.317,0,0,0-.621,1.715,2.28,2.28,0,0,0,.594,1.668,2.182,2.182,0,0,0,1.633.605,3.258,3.258,0,0,0,1.8-.578Zm2.867-8.977a1.442,1.442,0,0,1-1.023-.371,1.2,1.2,0,0,1-.4-.91,1.153,1.153,0,0,1,.4-.906,1.671,1.671,0,0,1,2.051,0,1.158,1.158,0,0,1,.395.906,1.191,1.191,0,0,1-.395.922A1.466,1.466,0,0,1,104.23,7.734ZM105.449,17H102.98V9h2.469ZM107,16.789v-2a5.256,5.256,0,0,0,1.215.547,4.028,4.028,0,0,0,1.145.18,2.455,2.455,0,0,0,1.035-.18.581.581,0,0,0,.379-.547.506.506,0,0,0-.172-.391,1.6,1.6,0,0,0-.441-.273,5.009,5.009,0,0,0-.59-.211q-.32-.094-.617-.211a5.913,5.913,0,0,1-.84-.387,2.427,2.427,0,0,1-.609-.48,1.889,1.889,0,0,1-.375-.633,2.525,2.525,0,0,1-.129-.852A2.192,2.192,0,0,1,107.3,10.2a2.393,2.393,0,0,1,.781-.793,3.57,3.57,0,0,1,1.117-.453A5.825,5.825,0,0,1,110.5,8.8a7.261,7.261,0,0,1,1.078.082,8.047,8.047,0,0,1,1.078.238v1.906a3.9,3.9,0,0,0-1-.41,4.235,4.235,0,0,0-1.051-.137,2.328,2.328,0,0,0-.457.043,1.505,1.505,0,0,0-.379.125.7.7,0,0,0-.258.211.486.486,0,0,0-.094.293.541.541,0,0,0,.141.375,1.221,1.221,0,0,0,.367.27,3.625,3.625,0,0,0,.5.2q.277.09.551.184a7.161,7.161,0,0,1,.891.375,2.848,2.848,0,0,1,.684.477,1.872,1.872,0,0,1,.438.641,2.563,2.563,0,0,1-.156,2.09,2.471,2.471,0,0,1-.82.82,3.72,3.72,0,0,1-1.18.461,6.54,6.54,0,0,1-1.387.145A7.149,7.149,0,0,1,107,16.789Zm8.813-9.055a1.442,1.442,0,0,1-1.023-.371,1.2,1.2,0,0,1-.4-.91,1.153,1.153,0,0,1,.4-.906,1.671,1.671,0,0,1,2.051,0,1.158,1.158,0,0,1,.395.906,1.191,1.191,0,0,1-.395.922A1.466,1.466,0,0,1,115.816,7.734ZM117.035,17h-2.469V9h2.469Zm5.891.2a4.3,4.3,0,0,1-3.145-1.121,4.064,4.064,0,0,1-1.145-3.043,4.065,4.065,0,0,1,1.188-3.105A4.487,4.487,0,0,1,123.035,8.8a4.249,4.249,0,0,1,3.125,1.121,3.985,3.985,0,0,1,1.133,2.965,4.23,4.23,0,0,1-1.168,3.148A4.348,4.348,0,0,1,122.926,17.2Zm.063-6.5a1.647,1.647,0,0,0-1.359.6,2.653,2.653,0,0,0-.484,1.7q0,2.3,1.859,2.3,1.773,0,1.773-2.367Q124.777,10.7,122.988,10.7Zm2.648-5.484-2.445,2.523H121.41l2.031-2.523ZM136.613,17h-2.461V12.555q0-1.859-1.328-1.859a1.318,1.318,0,0,0-1.055.492,1.875,1.875,0,0,0-.414,1.25V17h-2.469V9h2.469v1.266h.031a2.829,2.829,0,0,1,2.57-1.461q2.656,0,2.656,3.3Z" transform="translate(8827.501 -10031)" fill="#12263f"/>
    <path id="Trazado_601027" data-name="Trazado 601027" d="M76.367,17h-2.9l-1.742-2.883q-.2-.328-.375-.586a3.255,3.255,0,0,0-.363-.441,1.445,1.445,0,0,0-.383-.281.972.972,0,0,0-.434-.1h-.68V17H66.969V5.8h4q4.078,0,4.078,3.047a3.155,3.155,0,0,1-.18,1.082,3.006,3.006,0,0,1-.508.895,3.219,3.219,0,0,1-.793.688,4.089,4.089,0,0,1-1.035.453v.031a1.606,1.606,0,0,1,.484.254,3.469,3.469,0,0,1,.453.41,5.722,5.722,0,0,1,.418.5q.2.27.363.527ZM69.492,7.688V10.8h1.094a1.813,1.813,0,0,0,1.3-.469,1.564,1.564,0,0,0,.5-1.18q0-1.469-1.758-1.469ZM83.961,13.7H78.742q.125,1.742,2.2,1.742a4.286,4.286,0,0,0,2.32-.625V16.6a6.1,6.1,0,0,1-2.883.594,4.058,4.058,0,0,1-3.008-1.074,4.058,4.058,0,0,1-1.07-3,4.281,4.281,0,0,1,1.156-3.156A3.852,3.852,0,0,1,80.3,8.8,3.5,3.5,0,0,1,83,9.844a4,4,0,0,1,.957,2.82Zm-2.289-1.516q0-1.719-1.391-1.719a1.328,1.328,0,0,0-1.027.492,2.234,2.234,0,0,0-.527,1.227ZM87.93,16.07H87.9V20.68H85.43V9H87.9v1.2h.031A3.142,3.142,0,0,1,92.9,9.871a4.54,4.54,0,0,1,.848,2.9,4.922,4.922,0,0,1-.988,3.211A3.222,3.222,0,0,1,90.133,17.2,2.491,2.491,0,0,1,87.93,16.07Zm-.07-3.281v.641a2.037,2.037,0,0,0,.438,1.352,1.424,1.424,0,0,0,1.148.523,1.514,1.514,0,0,0,1.309-.652,3.15,3.15,0,0,0,.465-1.848q0-2.109-1.641-2.109a1.541,1.541,0,0,0-1.238.574A2.29,2.29,0,0,0,87.859,12.789ZM96.6,7.734a1.442,1.442,0,0,1-1.023-.371,1.2,1.2,0,0,1-.4-.91,1.153,1.153,0,0,1,.4-.906,1.671,1.671,0,0,1,2.051,0,1.158,1.158,0,0,1,.395.906,1.191,1.191,0,0,1-.395.922A1.466,1.466,0,0,1,96.6,7.734ZM97.82,17H95.352V9H97.82Zm6.914-.094a3.649,3.649,0,0,1-1.648.289q-2.609,0-2.609-2.711V10.82h-1.3V9h1.3V7.273l2.461-.7V9h1.8v1.82h-1.8v3.234q0,1.25.992,1.25a1.673,1.673,0,0,0,.8-.227Zm2.641-9.172a1.442,1.442,0,0,1-1.023-.371,1.2,1.2,0,0,1-.4-.91,1.153,1.153,0,0,1,.4-.906,1.671,1.671,0,0,1,2.051,0,1.158,1.158,0,0,1,.395.906,1.191,1.191,0,0,1-.395.922A1.466,1.466,0,0,1,107.375,7.734ZM108.594,17h-2.469V9h2.469Zm8.141-.289a4.881,4.881,0,0,1-2.414.484,4.083,4.083,0,0,1-2.984-1.117A3.859,3.859,0,0,1,110.2,13.2a4.251,4.251,0,0,1,1.223-3.215,4.518,4.518,0,0,1,3.27-1.176,4.2,4.2,0,0,1,2.047.375v2.094a2.814,2.814,0,0,0-1.727-.578,2.275,2.275,0,0,0-1.684.621,2.317,2.317,0,0,0-.621,1.715A2.28,2.28,0,0,0,113.3,14.7a2.182,2.182,0,0,0,1.633.605,3.258,3.258,0,0,0,1.8-.578ZM119.6,7.734a1.442,1.442,0,0,1-1.023-.371,1.2,1.2,0,0,1-.4-.91,1.153,1.153,0,0,1,.4-.906,1.671,1.671,0,0,1,2.051,0,1.158,1.158,0,0,1,.395.906,1.191,1.191,0,0,1-.395.922A1.466,1.466,0,0,1,119.6,7.734ZM120.82,17h-2.469V9h2.469Zm5.891.2a4.3,4.3,0,0,1-3.145-1.121,4.064,4.064,0,0,1-1.145-3.043,4.065,4.065,0,0,1,1.188-3.105A4.487,4.487,0,0,1,126.82,8.8a4.249,4.249,0,0,1,3.125,1.121,3.985,3.985,0,0,1,1.133,2.965,4.23,4.23,0,0,1-1.168,3.148A4.348,4.348,0,0,1,126.711,17.2Zm.063-6.5a1.647,1.647,0,0,0-1.359.6,2.653,2.653,0,0,0-.484,1.7q0,2.3,1.859,2.3,1.773,0,1.773-2.367Q128.563,10.7,126.773,10.7Zm2.648-5.484-2.445,2.523H125.2l2.031-2.523ZM140.4,17h-2.461V12.555q0-1.859-1.328-1.859a1.318,1.318,0,0,0-1.055.492,1.875,1.875,0,0,0-.414,1.25V17h-2.469V9h2.469v1.266h.031a2.829,2.829,0,0,1,2.57-1.461q2.656,0,2.656,3.3Z" transform="translate(8827.501 -9971)" fill="#12263f"/>
    <path id="Trazado_601028" data-name="Trazado 601028" d="M-6786,11740a20,20,0,0,1-20-20,20,20,0,0,1,20-20h244.962a20.006,20.006,0,0,1,18.313,11.943L-6511,11720l-11.722,8.059a20.008,20.008,0,0,1-18.313,11.944Z" transform="translate(15294.001 -21862.113)" fill="#ffb476"/>
    <path id="Trazado_601029" data-name="Trazado 601029" d="M-6786,11740a20,20,0,0,1-20-20,20,20,0,0,1,20-20h244.962a20.006,20.006,0,0,1,18.313,11.943L-6511,11720l-11.722,8.059a20.008,20.008,0,0,1-18.313,11.944Z" transform="translate(15294.001 -21742.113)" fill="#ffb476"/>
    <path id="Trazado_601030" data-name="Trazado 601030" d="M-6786,11740a20,20,0,0,1-20-20,20,20,0,0,1,20-20h244.962a20.006,20.006,0,0,1,18.313,11.943L-6511,11720l-11.722,8.059a20.008,20.008,0,0,1-18.313,11.944Z" transform="translate(15294.001 -21802.113)" fill="#ffb476"/>
    <path id="Trazado_601031" data-name="Trazado 601031" d="M-6777,11760a29,29,0,0,1-29-29v-2a29,29,0,0,1,29-29h226.966a29.006,29.006,0,0,1,26.392,16.963L-6511,11730l-12.64,13.031a29,29,0,0,1-26.395,16.969Z" transform="translate(15294.002 -21682.113)" fill="#ffb476"/>
    <path id="Trazado_601032" data-name="Trazado 601032" d="M55.836,7.852h-3.2V17H50.109V7.852H46.93V5.8h8.906Zm2.516-.117a1.442,1.442,0,0,1-1.023-.371,1.2,1.2,0,0,1-.4-.91,1.153,1.153,0,0,1,.4-.906,1.671,1.671,0,0,1,2.051,0,1.158,1.158,0,0,1,.395.906,1.191,1.191,0,0,1-.395.922A1.466,1.466,0,0,1,58.352,7.734ZM59.57,17H57.1V9H59.57Zm4.578-.93h-.031V20.68H61.648V9h2.469v1.2h.031a3.142,3.142,0,0,1,4.973-.332,4.54,4.54,0,0,1,.848,2.9,4.922,4.922,0,0,1-.988,3.211A3.222,3.222,0,0,1,66.352,17.2,2.491,2.491,0,0,1,64.148,16.07Zm-.07-3.281v.641a2.037,2.037,0,0,0,.438,1.352,1.424,1.424,0,0,0,1.148.523,1.514,1.514,0,0,0,1.309-.652,3.15,3.15,0,0,0,.465-1.848q0-2.109-1.641-2.109a1.541,1.541,0,0,0-1.238.574A2.29,2.29,0,0,0,64.078,12.789Zm11.3,4.406a4.3,4.3,0,0,1-3.145-1.121,4.064,4.064,0,0,1-1.145-3.043,4.065,4.065,0,0,1,1.188-3.105A4.487,4.487,0,0,1,75.492,8.8a4.249,4.249,0,0,1,3.125,1.121,3.985,3.985,0,0,1,1.133,2.965,4.23,4.23,0,0,1-1.168,3.148A4.348,4.348,0,0,1,75.383,17.2Zm.063-6.5a1.647,1.647,0,0,0-1.359.6A2.653,2.653,0,0,0,73.6,13q0,2.3,1.859,2.3,1.773,0,1.773-2.367Q77.234,10.7,75.445,10.7Z" transform="translate(8572 -10151.112)" fill="#12263f"/>
    <path id="Trazado_601033" data-name="Trazado 601033" d="M45.582,17h-2.75l-.8-2.492H38.051L37.262,17H34.527L38.605,5.8H41.6Zm-4.125-4.43L40.254,8.8A4.907,4.907,0,0,1,40.066,7.8H40a4.273,4.273,0,0,1-.2.977l-1.219,3.8ZM49.207,17H46.738V5.156h2.469Zm8.141-.289a4.881,4.881,0,0,1-2.414.484,4.083,4.083,0,0,1-2.984-1.117A3.859,3.859,0,0,1,50.809,13.2,4.251,4.251,0,0,1,52.031,9.98,4.518,4.518,0,0,1,55.3,8.8a4.2,4.2,0,0,1,2.047.375v2.094a2.814,2.814,0,0,0-1.727-.578,2.275,2.275,0,0,0-1.684.621,2.317,2.317,0,0,0-.621,1.715A2.28,2.28,0,0,0,53.91,14.7a2.182,2.182,0,0,0,1.633.605,3.258,3.258,0,0,0,1.8-.578ZM65.621,17H63.285V15.852h-.031A2.607,2.607,0,0,1,60.871,17.2a2.492,2.492,0,0,1-1.832-.66,2.366,2.366,0,0,1-.668-1.762q0-2.328,2.758-2.687L63.3,11.8q0-1.312-1.422-1.312a4.853,4.853,0,0,0-2.719.852V9.477a6.116,6.116,0,0,1,1.41-.469A7.413,7.413,0,0,1,62.2,8.8q3.422,0,3.422,3.414ZM63.3,13.75v-.539l-1.453.188q-1.2.156-1.2,1.086a.9.9,0,0,0,.293.691,1.126,1.126,0,0,0,.793.27,1.462,1.462,0,0,0,1.133-.48A1.735,1.735,0,0,0,63.3,13.75ZM75.3,17H72.84V12.555q0-1.859-1.328-1.859a1.318,1.318,0,0,0-1.055.492,1.875,1.875,0,0,0-.414,1.25V17H67.574V9h2.469v1.266h.031A2.829,2.829,0,0,1,72.645,8.8q2.656,0,2.656,3.3Zm8.016-.289A4.881,4.881,0,0,1,80.9,17.2a4.083,4.083,0,0,1-2.984-1.117A3.859,3.859,0,0,1,76.777,13.2,4.251,4.251,0,0,1,78,9.98,4.518,4.518,0,0,1,81.27,8.8a4.2,4.2,0,0,1,2.047.375v2.094A2.814,2.814,0,0,0,81.59,10.7a2.275,2.275,0,0,0-1.684.621,2.317,2.317,0,0,0-.621,1.715,2.28,2.28,0,0,0,.594,1.668,2.182,2.182,0,0,0,1.633.605,3.258,3.258,0,0,0,1.8-.578Zm8.8-3.008H86.9q.125,1.742,2.2,1.742a4.286,4.286,0,0,0,2.32-.625V16.6a6.1,6.1,0,0,1-2.883.594,4.058,4.058,0,0,1-3.008-1.074,4.058,4.058,0,0,1-1.07-3,4.281,4.281,0,0,1,1.156-3.156A3.852,3.852,0,0,1,88.457,8.8a3.5,3.5,0,0,1,2.707,1.039,4,4,0,0,1,.957,2.82Zm-2.289-1.516q0-1.719-1.391-1.719a1.328,1.328,0,0,0-1.027.492,2.234,2.234,0,0,0-.527,1.227Z" transform="translate(8572 -10091.112)" fill="#12263f"/>
    <path id="Trazado_601034" data-name="Trazado 601034" d="M36.992,7.852H33.039V10.6h3.633v2.047H33.039V17H30.516V5.8h6.477Zm2.852-.117a1.442,1.442,0,0,1-1.023-.371,1.2,1.2,0,0,1-.4-.91,1.153,1.153,0,0,1,.4-.906,1.671,1.671,0,0,1,2.051,0,1.158,1.158,0,0,1,.395.906,1.191,1.191,0,0,1-.395.922A1.466,1.466,0,0,1,39.844,7.734ZM41.063,17H38.594V9h2.469Zm9.8,0H48.406V12.555q0-1.859-1.328-1.859a1.318,1.318,0,0,0-1.055.492,1.875,1.875,0,0,0-.414,1.25V17H43.141V9h2.469v1.266h.031A2.829,2.829,0,0,1,48.211,8.8q2.656,0,2.656,3.3Zm9.984,2.547H59.711a9.984,9.984,0,0,1-2.422-6.82A10.362,10.362,0,0,1,59.711,5.8h1.156a10.529,10.529,0,0,0-2.453,6.914A10.345,10.345,0,0,0,60.852,19.547Zm5.055-7.469a3.373,3.373,0,0,1,.125.527,3.869,3.869,0,0,1,.055.645,2.006,2.006,0,0,1-.2.9,3.733,3.733,0,0,1-.5.754,7.517,7.517,0,0,1-.648.676q-.352.324-.648.656a3.747,3.747,0,0,0-.5.7,1.638,1.638,0,0,0-.2.8,1.466,1.466,0,0,0,.145.664,1.4,1.4,0,0,0,.395.484,1.73,1.73,0,0,0,.578.293,2.425,2.425,0,0,0,.7.1A3.03,3.03,0,0,0,67.5,18.234v1.375a4.6,4.6,0,0,1-2.477.75,3.887,3.887,0,0,1-1.117-.156,2.706,2.706,0,0,1-.914-.465,2.247,2.247,0,0,1-.621-.77,2.364,2.364,0,0,1-.23-1.07,2.5,2.5,0,0,1,.2-1.031,3.722,3.722,0,0,1,.512-.832,6.6,6.6,0,0,1,.668-.707q.359-.328.668-.652A3.582,3.582,0,0,0,64.7,14a1.518,1.518,0,0,0,.2-.773,2.314,2.314,0,0,0-.086-.652,4.659,4.659,0,0,0-.172-.5Zm-.7-3.25a.864.864,0,0,1,.609.25.8.8,0,0,1,.258.609.817.817,0,0,1-.258.609.849.849,0,0,1-1.219,0,.817.817,0,0,1-.258-.609.8.8,0,0,1,.258-.609A.864.864,0,0,1,65.2,8.828Zm8.977,8.359a4.945,4.945,0,0,1-3.82-1.57,5.834,5.834,0,0,1-1.43-4.086,6.154,6.154,0,0,1,1.461-4.312,5.118,5.118,0,0,1,3.977-1.609A4.81,4.81,0,0,1,78.1,7.172a5.836,5.836,0,0,1,1.422,4.086,6.191,6.191,0,0,1-1.453,4.336,4.312,4.312,0,0,1-.734.656l3.148,2.258H78.1L75.992,16.93A6.073,6.073,0,0,1,74.18,17.188ZM74.273,6.8A3.612,3.612,0,0,0,71.406,8.07a4.93,4.93,0,0,0-1.1,3.344,5.011,5.011,0,0,0,1.07,3.336,3.519,3.519,0,0,0,2.8,1.258,3.678,3.678,0,0,0,2.906-1.2,4.917,4.917,0,0,0,1.063-3.367,5.119,5.119,0,0,0-1.031-3.43A3.536,3.536,0,0,0,74.273,6.8ZM88.023,17H86.742V15.734h-.031a2.631,2.631,0,0,1-2.469,1.453q-2.859,0-2.859-3.406V9h1.273v4.578q0,2.531,1.938,2.531a1.96,1.96,0,0,0,1.543-.691,2.645,2.645,0,0,0,.605-1.809V9h1.281Zm9.016-3.68H91.391a2.992,2.992,0,0,0,.719,2.063A2.478,2.478,0,0,0,94,16.109a3.931,3.931,0,0,0,2.484-.891v1.2a4.643,4.643,0,0,1-2.789.766,3.381,3.381,0,0,1-2.664-1.09,4.461,4.461,0,0,1-.969-3.066,4.375,4.375,0,0,1,1.059-3.043A3.394,3.394,0,0,1,93.75,8.813a3.008,3.008,0,0,1,2.43,1.016,4.234,4.234,0,0,1,.859,2.82Zm-1.312-1.086a2.607,2.607,0,0,0-.535-1.727,1.823,1.823,0,0,0-1.465-.617,2.07,2.07,0,0,0-1.539.648,2.943,2.943,0,0,0-.781,1.7Zm-.2-7.312L93.477,7.484h-.992l1.742-2.562ZM107.531,10.3a1.567,1.567,0,0,0-.969-.258,1.635,1.635,0,0,0-1.371.773,3.576,3.576,0,0,0-.551,2.109V17h-1.281V9h1.281v1.648h.031a2.793,2.793,0,0,1,.836-1.316,1.906,1.906,0,0,1,1.258-.473,2.092,2.092,0,0,1,.766.109Zm7.82,3.023H109.7a2.992,2.992,0,0,0,.719,2.063,2.478,2.478,0,0,0,1.891.727,3.931,3.931,0,0,0,2.484-.891v1.2a4.643,4.643,0,0,1-2.789.766,3.381,3.381,0,0,1-2.664-1.09,4.461,4.461,0,0,1-.969-3.066,4.375,4.375,0,0,1,1.059-3.043,3.394,3.394,0,0,1,2.629-1.176,3.008,3.008,0,0,1,2.43,1.016,4.234,4.234,0,0,1,.859,2.82Zm-1.312-1.086a2.607,2.607,0,0,0-.535-1.727,1.823,1.823,0,0,0-1.465-.617,2.07,2.07,0,0,0-1.539.648,2.943,2.943,0,0,0-.781,1.7Zm2.766,4.477V15.336a3.792,3.792,0,0,0,2.3.773q1.688,0,1.688-1.125a.976.976,0,0,0-.145-.543,1.44,1.44,0,0,0-.391-.395,3.007,3.007,0,0,0-.578-.309q-.332-.137-.715-.285a9.207,9.207,0,0,1-.934-.426,2.82,2.82,0,0,1-.672-.484,1.8,1.8,0,0,1-.406-.613,2.17,2.17,0,0,1-.137-.8,1.912,1.912,0,0,1,.258-1,2.286,2.286,0,0,1,.688-.727,3.206,3.206,0,0,1,.98-.441,4.349,4.349,0,0,1,1.137-.148,4.59,4.59,0,0,1,1.859.359v1.3a3.624,3.624,0,0,0-2.031-.578,2.374,2.374,0,0,0-.648.082,1.587,1.587,0,0,0-.5.23,1.065,1.065,0,0,0-.32.355.936.936,0,0,0-.113.457,1.1,1.1,0,0,0,.113.523,1.152,1.152,0,0,0,.332.375,2.538,2.538,0,0,0,.531.3q.313.133.711.289a9.9,9.9,0,0,1,.953.418,3.269,3.269,0,0,1,.719.484,1.893,1.893,0,0,1,.457.621,2,2,0,0,1,.16.836,1.971,1.971,0,0,1-.262,1.031,2.243,2.243,0,0,1-.7.727,3.2,3.2,0,0,1-1.008.43,4.976,4.976,0,0,1-1.2.141A4.539,4.539,0,0,1,116.8,16.711Zm10.617.477a3.711,3.711,0,0,1-2.832-1.121,4.153,4.153,0,0,1-1.059-2.973,4.326,4.326,0,0,1,1.1-3.148,3.96,3.96,0,0,1,2.977-1.133,3.588,3.588,0,0,1,2.793,1.1,4.368,4.368,0,0,1,1,3.055,4.3,4.3,0,0,1-1.082,3.066A3.791,3.791,0,0,1,127.422,17.188Zm.094-7.3a2.437,2.437,0,0,0-1.953.84,3.449,3.449,0,0,0-.719,2.316,3.262,3.262,0,0,0,.727,2.242,2.469,2.469,0,0,0,1.945.82,2.342,2.342,0,0,0,1.91-.8,3.492,3.492,0,0,0,.668-2.289,3.552,3.552,0,0,0-.668-2.312A2.332,2.332,0,0,0,127.516,9.891ZM134.734,17h-1.281V5.156h1.281Zm8.883-8-3.187,8h-1.258l-3.031-8h1.406l2.031,5.813a5.216,5.216,0,0,1,.281,1.117h.031a5.283,5.283,0,0,1,.25-1.086L142.266,9Zm7.8,4.32h-5.648a2.992,2.992,0,0,0,.719,2.063,2.478,2.478,0,0,0,1.891.727,3.931,3.931,0,0,0,2.484-.891v1.2a4.643,4.643,0,0,1-2.789.766,3.381,3.381,0,0,1-2.664-1.09,4.461,4.461,0,0,1-.969-3.066A4.374,4.374,0,0,1,145.5,9.988a3.394,3.394,0,0,1,2.629-1.176,3.008,3.008,0,0,1,2.43,1.016,4.234,4.234,0,0,1,.859,2.82Zm-1.312-1.086a2.607,2.607,0,0,0-.535-1.727,1.823,1.823,0,0,0-1.465-.617,2.07,2.07,0,0,0-1.539.648,2.943,2.943,0,0,0-.781,1.7Zm7.422-1.937a1.567,1.567,0,0,0-.969-.258,1.635,1.635,0,0,0-1.371.773,3.576,3.576,0,0,0-.551,2.109V17h-1.281V9h1.281v1.648h.031a2.794,2.794,0,0,1,.836-1.316,1.906,1.906,0,0,1,1.258-.473,2.092,2.092,0,0,1,.766.109Zm7.117,6.7h-1.281V15.75h-.031a2.682,2.682,0,0,1-2.461,1.438A2.63,2.63,0,0,1,159,16.555a2.192,2.192,0,0,1-.676-1.68q0-2.242,2.641-2.609l2.4-.336q0-2.039-1.648-2.039a3.938,3.938,0,0,0-2.609.984V9.563a4.958,4.958,0,0,1,2.719-.75q2.82,0,2.82,2.984Zm-1.281-4.047-1.93.266a3.133,3.133,0,0,0-1.344.441,1.273,1.273,0,0,0-.453,1.121,1.221,1.221,0,0,0,.418.957,1.615,1.615,0,0,0,1.113.371,2.056,2.056,0,0,0,1.574-.668,2.387,2.387,0,0,0,.621-1.691Zm.172-8.031-2.047,2.563H160.5l1.742-2.562Zm4.844,8.969a3.372,3.372,0,0,1-.125-.527,3.87,3.87,0,0,1-.055-.645,2.006,2.006,0,0,1,.2-.9,3.733,3.733,0,0,1,.5-.754,7.518,7.518,0,0,1,.648-.676q.352-.324.648-.656a3.746,3.746,0,0,0,.5-.7,1.638,1.638,0,0,0,.2-.8,1.466,1.466,0,0,0-.145-.664,1.4,1.4,0,0,0-.395-.484,1.73,1.73,0,0,0-.578-.293,2.425,2.425,0,0,0-.7-.1,3.03,3.03,0,0,0-2.289,1.039V6.359a4.6,4.6,0,0,1,2.477-.75,3.887,3.887,0,0,1,1.117.156,2.75,2.75,0,0,1,.918.465,2.188,2.188,0,0,1,.621.77,2.4,2.4,0,0,1,.227,1.07,2.5,2.5,0,0,1-.2,1.031,3.722,3.722,0,0,1-.512.832,6.6,6.6,0,0,1-.668.707q-.359.328-.668.652a3.582,3.582,0,0,0-.512.676,1.518,1.518,0,0,0-.2.773,2.314,2.314,0,0,0,.086.652,4.659,4.659,0,0,0,.172.5Zm.7,3.25a.864.864,0,0,1-.609-.25.817.817,0,0,1-.258-.609.8.8,0,0,1,.258-.609.849.849,0,0,1,1.219,0,.8.8,0,0,1,.258.609.817.817,0,0,1-.258.609A.864.864,0,0,1,169.086,17.141Zm5.18,2.406h-1.141a10.345,10.345,0,0,0,2.438-6.836A10.529,10.529,0,0,0,173.109,5.8h1.156a10.321,10.321,0,0,1,2.438,6.93A9.945,9.945,0,0,1,174.266,19.547Z" transform="translate(8532 -10031.112)" fill="#12263f"/>
    <path id="Trazado_601035" data-name="Trazado 601035" d="M28.254,16.6a7.388,7.388,0,0,1-3.2.594A5.4,5.4,0,0,1,21,15.68a5.54,5.54,0,0,1-1.477-4.039,5.919,5.919,0,0,1,1.66-4.359,5.807,5.807,0,0,1,4.309-1.672,8.058,8.058,0,0,1,2.766.414v2.43a4.9,4.9,0,0,0-2.562-.672,3.4,3.4,0,0,0-2.547.992,3.682,3.682,0,0,0-.969,2.688,3.611,3.611,0,0,0,.914,2.59,3.229,3.229,0,0,0,2.461.965,5.249,5.249,0,0,0,2.7-.719Zm8.367.4H34.285V15.852h-.031A2.607,2.607,0,0,1,31.871,17.2a2.492,2.492,0,0,1-1.832-.66,2.366,2.366,0,0,1-.668-1.762q0-2.328,2.758-2.687L34.3,11.8q0-1.312-1.422-1.312a4.853,4.853,0,0,0-2.719.852V9.477a6.116,6.116,0,0,1,1.41-.469A7.413,7.413,0,0,1,33.2,8.8q3.422,0,3.422,3.414ZM34.3,13.75v-.539l-1.453.188q-1.2.156-1.2,1.086a.9.9,0,0,0,.293.691,1.126,1.126,0,0,0,.793.27,1.462,1.462,0,0,0,1.133-.48A1.735,1.735,0,0,0,34.3,13.75ZM41.043,17H38.574V5.156h2.469Zm3.328-9.266a1.442,1.442,0,0,1-1.023-.371,1.2,1.2,0,0,1-.4-.91,1.153,1.153,0,0,1,.4-.906,1.671,1.671,0,0,1,2.051,0,1.158,1.158,0,0,1,.395.906,1.191,1.191,0,0,1-.395.922A1.466,1.466,0,0,1,44.371,7.734ZM45.59,17H43.121V9H45.59Zm4.578-.93h-.031V17H47.668V5.156h2.469V10.2h.031a2.929,2.929,0,0,1,2.6-1.4,2.855,2.855,0,0,1,2.383,1.063,4.582,4.582,0,0,1,.836,2.906,4.962,4.962,0,0,1-.977,3.211A3.181,3.181,0,0,1,52.4,17.2,2.521,2.521,0,0,1,50.168,16.07ZM50.1,12.7v.82a1.872,1.872,0,0,0,.445,1.281,1.449,1.449,0,0,0,1.141.508,1.514,1.514,0,0,0,1.309-.652,3.15,3.15,0,0,0,.465-1.848,2.506,2.506,0,0,0-.426-1.551,1.437,1.437,0,0,0-1.215-.559,1.569,1.569,0,0,0-1.23.555A2.107,2.107,0,0,0,50.1,12.7Zm12.711-1.469a2.142,2.142,0,0,0-1.039-.242,1.5,1.5,0,0,0-1.258.59,2.573,2.573,0,0,0-.453,1.605V17H57.59V9h2.469v1.484h.031A2.136,2.136,0,0,1,62.2,8.859a1.59,1.59,0,0,1,.609.094ZM70.613,17H68.277V15.852h-.031A2.607,2.607,0,0,1,65.863,17.2a2.492,2.492,0,0,1-1.832-.66,2.366,2.366,0,0,1-.668-1.762q0-2.328,2.758-2.687l2.172-.289q0-1.312-1.422-1.312a4.853,4.853,0,0,0-2.719.852V9.477a6.116,6.116,0,0,1,1.41-.469,7.413,7.413,0,0,1,1.629-.2q3.422,0,3.422,3.414Zm-2.32-3.25v-.539L66.84,13.4q-1.2.156-1.2,1.086a.9.9,0,0,0,.293.691,1.126,1.126,0,0,0,.793.27,1.462,1.462,0,0,0,1.133-.48A1.735,1.735,0,0,0,68.293,13.75Zm10.336,2.961a4.881,4.881,0,0,1-2.414.484,4.083,4.083,0,0,1-2.984-1.117A3.859,3.859,0,0,1,72.09,13.2,4.251,4.251,0,0,1,73.313,9.98,4.518,4.518,0,0,1,76.582,8.8a4.2,4.2,0,0,1,2.047.375v2.094A2.814,2.814,0,0,0,76.9,10.7a2.275,2.275,0,0,0-1.684.621,2.317,2.317,0,0,0-.621,1.715,2.28,2.28,0,0,0,.594,1.668,2.182,2.182,0,0,0,1.633.605,3.258,3.258,0,0,0,1.8-.578ZM81.5,7.734a1.442,1.442,0,0,1-1.023-.371,1.2,1.2,0,0,1-.4-.91,1.153,1.153,0,0,1,.4-.906,1.671,1.671,0,0,1,2.051,0,1.158,1.158,0,0,1,.395.906,1.191,1.191,0,0,1-.395.922A1.466,1.466,0,0,1,81.5,7.734ZM82.715,17H80.246V9h2.469Zm5.891.2a4.3,4.3,0,0,1-3.145-1.121,4.064,4.064,0,0,1-1.145-3.043A4.065,4.065,0,0,1,85.5,9.926,4.487,4.487,0,0,1,88.715,8.8,4.249,4.249,0,0,1,91.84,9.926a3.985,3.985,0,0,1,1.133,2.965A4.23,4.23,0,0,1,91.8,16.039,4.348,4.348,0,0,1,88.605,17.2Zm.063-6.5a1.647,1.647,0,0,0-1.359.6,2.653,2.653,0,0,0-.484,1.7q0,2.3,1.859,2.3,1.773,0,1.773-2.367Q90.457,10.7,88.668,10.7Zm2.648-5.484L88.871,7.734H87.09l2.031-2.523ZM102.293,17H99.832V12.555q0-1.859-1.328-1.859a1.318,1.318,0,0,0-1.055.492,1.875,1.875,0,0,0-.414,1.25V17H94.566V9h2.469v1.266h.031A2.829,2.829,0,0,1,99.637,8.8q2.656,0,2.656,3.3Zm9.953,2.547h-1.141a9.984,9.984,0,0,1-2.422-6.82,10.362,10.362,0,0,1,2.422-6.93h1.156a10.529,10.529,0,0,0-2.453,6.914A10.345,10.345,0,0,0,112.246,19.547ZM119.824,17h-5.937V5.8h5.688V6.984H115.2v3.727h4.047v1.18H115.2v3.922h4.625Zm8.625,0h-1.281V12.438q0-2.547-1.859-2.547a2.017,2.017,0,0,0-1.59.723,2.679,2.679,0,0,0-.629,1.824V17h-1.281V9h1.281v1.328h.031a2.887,2.887,0,0,1,2.625-1.516,2.448,2.448,0,0,1,2.008.848,3.776,3.776,0,0,1,.7,2.449Zm12.25-.367a4.163,4.163,0,0,1-2.187.555,3.622,3.622,0,0,1-2.762-1.113,4.035,4.035,0,0,1-1.051-2.887,4.435,4.435,0,0,1,1.133-3.176,3.963,3.963,0,0,1,3.023-1.2,4.209,4.209,0,0,1,1.859.391v1.313a3.258,3.258,0,0,0-1.906-.625,2.576,2.576,0,0,0-2.012.879,3.335,3.335,0,0,0-.785,2.309,3.176,3.176,0,0,0,.738,2.219,2.545,2.545,0,0,0,1.98.813,3.211,3.211,0,0,0,1.969-.7Zm7.664.367h-1.281V15.75h-.031a2.682,2.682,0,0,1-2.461,1.438,2.63,2.63,0,0,1-1.871-.633,2.192,2.192,0,0,1-.676-1.68q0-2.242,2.641-2.609l2.4-.336q0-2.039-1.648-2.039a3.938,3.938,0,0,0-2.609.984V9.563a4.958,4.958,0,0,1,2.719-.75q2.82,0,2.82,2.984Zm-1.281-4.047-1.93.266a3.133,3.133,0,0,0-1.344.441,1.273,1.273,0,0,0-.453,1.121,1.221,1.221,0,0,0,.418.957,1.615,1.615,0,0,0,1.113.371,2.056,2.056,0,0,0,1.574-.668,2.387,2.387,0,0,0,.621-1.691Zm3.211,3.758V15.336a3.792,3.792,0,0,0,2.3.773q1.688,0,1.688-1.125a.976.976,0,0,0-.145-.543,1.44,1.44,0,0,0-.391-.395,3.007,3.007,0,0,0-.578-.309q-.332-.137-.715-.285a9.207,9.207,0,0,1-.934-.426,2.82,2.82,0,0,1-.672-.484,1.8,1.8,0,0,1-.406-.613,2.17,2.17,0,0,1-.137-.8,1.912,1.912,0,0,1,.258-1,2.286,2.286,0,0,1,.688-.727,3.206,3.206,0,0,1,.98-.441,4.349,4.349,0,0,1,1.137-.148,4.59,4.59,0,0,1,1.859.359v1.3a3.624,3.624,0,0,0-2.031-.578,2.374,2.374,0,0,0-.648.082,1.587,1.587,0,0,0-.5.23,1.065,1.065,0,0,0-.32.355.936.936,0,0,0-.113.457,1.1,1.1,0,0,0,.113.523,1.152,1.152,0,0,0,.332.375,2.538,2.538,0,0,0,.531.3q.312.133.711.289a9.894,9.894,0,0,1,.953.418,3.269,3.269,0,0,1,.719.484,1.893,1.893,0,0,1,.457.621,2,2,0,0,1,.16.836,1.971,1.971,0,0,1-.262,1.031,2.243,2.243,0,0,1-.7.727,3.2,3.2,0,0,1-1.008.43,4.976,4.976,0,0,1-1.2.141A4.539,4.539,0,0,1,150.293,16.711Zm10.617.477a3.711,3.711,0,0,1-2.832-1.121,4.153,4.153,0,0,1-1.059-2.973,4.326,4.326,0,0,1,1.1-3.148A3.96,3.96,0,0,1,161.1,8.813a3.588,3.588,0,0,1,2.793,1.1,4.368,4.368,0,0,1,1,3.055,4.3,4.3,0,0,1-1.082,3.066A3.791,3.791,0,0,1,160.91,17.188Zm.094-7.3a2.437,2.437,0,0,0-1.953.84,3.449,3.449,0,0,0-.719,2.316,3.262,3.262,0,0,0,.727,2.242,2.469,2.469,0,0,0,1.945.82,2.342,2.342,0,0,0,1.91-.8,3.492,3.492,0,0,0,.668-2.289,3.552,3.552,0,0,0-.668-2.312A2.332,2.332,0,0,0,161,9.891ZM178.152,20.68h-1.281V15.625h-.031a2.867,2.867,0,0,1-2.734,1.563,3.011,3.011,0,0,1-2.418-1.074,4.381,4.381,0,0,1-.91-2.926,4.791,4.791,0,0,1,1-3.184,3.328,3.328,0,0,1,2.688-1.191,2.523,2.523,0,0,1,2.375,1.3h.031V9h1.281ZM176.871,13.4V12.234a2.328,2.328,0,0,0-.645-1.664,2.158,2.158,0,0,0-1.637-.68,2.2,2.2,0,0,0-1.828.855,3.819,3.819,0,0,0-.672,2.41,3.307,3.307,0,0,0,.648,2.168,2.069,2.069,0,0,0,1.672.785,2.254,2.254,0,0,0,1.793-.77A2.855,2.855,0,0,0,176.871,13.4ZM187.215,17h-1.281V15.734H185.9a2.631,2.631,0,0,1-2.469,1.453q-2.859,0-2.859-3.406V9h1.273v4.578q0,2.531,1.938,2.531a1.96,1.96,0,0,0,1.543-.691,2.645,2.645,0,0,0,.605-1.809V9h1.281Zm9.016-3.68h-5.648a2.992,2.992,0,0,0,.719,2.063,2.478,2.478,0,0,0,1.891.727,3.931,3.931,0,0,0,2.484-.891v1.2a4.643,4.643,0,0,1-2.789.766,3.381,3.381,0,0,1-2.664-1.09,4.461,4.461,0,0,1-.969-3.066,4.374,4.374,0,0,1,1.059-3.043,3.394,3.394,0,0,1,2.629-1.176,3.008,3.008,0,0,1,2.43,1.016,4.234,4.234,0,0,1,.859,2.82Zm-1.312-1.086a2.607,2.607,0,0,0-.535-1.727,1.823,1.823,0,0,0-1.465-.617,2.07,2.07,0,0,0-1.539.648,2.943,2.943,0,0,0-.781,1.7ZM203.832,17h-1.281V5.156h1.281Zm8.32,0h-1.281V15.75h-.031a2.682,2.682,0,0,1-2.461,1.438,2.63,2.63,0,0,1-1.871-.633,2.192,2.192,0,0,1-.676-1.68q0-2.242,2.641-2.609l2.4-.336q0-2.039-1.648-2.039a3.938,3.938,0,0,0-2.609.984V9.563a4.958,4.958,0,0,1,2.719-.75q2.82,0,2.82,2.984Zm-1.281-4.047-1.93.266a3.133,3.133,0,0,0-1.344.441,1.273,1.273,0,0,0-.453,1.121,1.221,1.221,0,0,0,.418.957,1.615,1.615,0,0,0,1.113.371,2.056,2.056,0,0,0,1.574-.668,2.387,2.387,0,0,0,.621-1.691Zm3.211,3.758V15.336a3.792,3.792,0,0,0,2.3.773q1.688,0,1.688-1.125a.976.976,0,0,0-.145-.543,1.44,1.44,0,0,0-.391-.395,3.007,3.007,0,0,0-.578-.309q-.332-.137-.715-.285a9.207,9.207,0,0,1-.934-.426,2.82,2.82,0,0,1-.672-.484,1.8,1.8,0,0,1-.406-.613,2.17,2.17,0,0,1-.137-.8,1.912,1.912,0,0,1,.258-1,2.286,2.286,0,0,1,.688-.727,3.206,3.206,0,0,1,.98-.441,4.349,4.349,0,0,1,1.137-.148,4.59,4.59,0,0,1,1.859.359v1.3a3.624,3.624,0,0,0-2.031-.578,2.374,2.374,0,0,0-.648.082,1.587,1.587,0,0,0-.5.23,1.065,1.065,0,0,0-.32.355.936.936,0,0,0-.113.457,1.1,1.1,0,0,0,.113.523,1.152,1.152,0,0,0,.332.375,2.538,2.538,0,0,0,.531.3q.312.133.711.289a9.894,9.894,0,0,1,.953.418,3.269,3.269,0,0,1,.719.484,1.893,1.893,0,0,1,.457.621,2,2,0,0,1,.16.836,1.971,1.971,0,0,1-.262,1.031,2.243,2.243,0,0,1-.7.727,3.2,3.2,0,0,1-1.008.43,4.976,4.976,0,0,1-1.2.141A4.539,4.539,0,0,1,214.082,16.711ZM15.352,37H14.07V32.406a3.466,3.466,0,0,0-.41-1.922,1.555,1.555,0,0,0-1.379-.594,1.708,1.708,0,0,0-1.395.75,2.869,2.869,0,0,0-.574,1.8V37H9.031V32.25q0-2.359-1.82-2.359A1.686,1.686,0,0,0,5.82,30.6a2.923,2.923,0,0,0-.547,1.84V37H3.992V29H5.273v1.266H5.3a2.718,2.718,0,0,1,2.484-1.453,2.311,2.311,0,0,1,2.266,1.656,2.855,2.855,0,0,1,2.656-1.656q2.641,0,2.641,3.258ZM24.2,33.32H18.555a2.992,2.992,0,0,0,.719,2.063,2.478,2.478,0,0,0,1.891.727,3.931,3.931,0,0,0,2.484-.891v1.2a4.643,4.643,0,0,1-2.789.766A3.381,3.381,0,0,1,18.2,36.1a4.461,4.461,0,0,1-.969-3.066,4.375,4.375,0,0,1,1.059-3.043,3.394,3.394,0,0,1,2.629-1.176,3.008,3.008,0,0,1,2.43,1.016,4.234,4.234,0,0,1,.859,2.82Zm-1.312-1.086a2.607,2.607,0,0,0-.535-1.727,1.823,1.823,0,0,0-1.465-.617,2.07,2.07,0,0,0-1.539.648,2.943,2.943,0,0,0-.781,1.7ZM32.969,37H31.688V35.641h-.031a2.958,2.958,0,0,1-2.75,1.547,2.988,2.988,0,0,1-2.41-1.074,4.407,4.407,0,0,1-.9-2.926,4.794,4.794,0,0,1,1-3.18,3.3,3.3,0,0,1,2.664-1.2,2.564,2.564,0,0,1,2.4,1.3h.031V25.156h1.281Zm-1.281-3.617V32.2a2.289,2.289,0,0,0-.641-1.641,2.149,2.149,0,0,0-1.625-.672,2.212,2.212,0,0,0-1.844.859,3.766,3.766,0,0,0-.672,2.375,3.387,3.387,0,0,0,.645,2.184,2.107,2.107,0,0,0,1.73.8,2.188,2.188,0,0,0,1.738-.773A2.882,2.882,0,0,0,31.688,33.383Zm4.531-6.414a.812.812,0,0,1-.586-.234.791.791,0,0,1-.242-.594.821.821,0,0,1,.828-.836.827.827,0,0,1,.6.238.835.835,0,0,1,0,1.184A.82.82,0,0,1,36.219,26.969ZM36.844,37H35.563V29h1.281Zm8.047-.367a4.163,4.163,0,0,1-2.187.555,3.622,3.622,0,0,1-2.762-1.113,4.035,4.035,0,0,1-1.051-2.887,4.435,4.435,0,0,1,1.133-3.176,3.963,3.963,0,0,1,3.023-1.2,4.209,4.209,0,0,1,1.859.391v1.313A3.258,3.258,0,0,0,43,29.891a2.576,2.576,0,0,0-2.012.879,3.335,3.335,0,0,0-.785,2.309,3.176,3.176,0,0,0,.738,2.219,2.545,2.545,0,0,0,1.98.813,3.211,3.211,0,0,0,1.969-.7Zm2.594-9.664a.812.812,0,0,1-.586-.234.791.791,0,0,1-.242-.594.821.821,0,0,1,.828-.836.827.827,0,0,1,.6.238.835.835,0,0,1,0,1.184A.82.82,0,0,1,47.484,26.969ZM48.109,37H46.828V29h1.281Zm5.938.188a3.711,3.711,0,0,1-2.832-1.121,4.153,4.153,0,0,1-1.059-2.973,4.326,4.326,0,0,1,1.1-3.148,3.96,3.96,0,0,1,2.977-1.133,3.588,3.588,0,0,1,2.793,1.1,4.368,4.368,0,0,1,1,3.055,4.3,4.3,0,0,1-1.082,3.066A3.791,3.791,0,0,1,54.047,37.188Zm.094-7.3a2.437,2.437,0,0,0-1.953.84,3.449,3.449,0,0,0-.719,2.316,3.262,3.262,0,0,0,.727,2.242,2.469,2.469,0,0,0,1.945.82,2.342,2.342,0,0,0,1.91-.8,3.492,3.492,0,0,0,.668-2.289,3.552,3.552,0,0,0-.668-2.312A2.332,2.332,0,0,0,54.141,29.891ZM66.719,37H65.438V32.438q0-2.547-1.859-2.547a2.017,2.017,0,0,0-1.59.723,2.679,2.679,0,0,0-.629,1.824V37H60.078V29h1.281v1.328h.031a2.887,2.887,0,0,1,2.625-1.516,2.448,2.448,0,0,1,2.008.848,3.776,3.776,0,0,1,.7,2.449Zm8.844-3.68H69.914a2.992,2.992,0,0,0,.719,2.063,2.478,2.478,0,0,0,1.891.727,3.931,3.931,0,0,0,2.484-.891v1.2a4.643,4.643,0,0,1-2.789.766,3.381,3.381,0,0,1-2.664-1.09,4.461,4.461,0,0,1-.969-3.066,4.375,4.375,0,0,1,1.059-3.043,3.394,3.394,0,0,1,2.629-1.176,3.008,3.008,0,0,1,2.43,1.016,4.234,4.234,0,0,1,.859,2.82ZM74.25,32.234a2.607,2.607,0,0,0-.535-1.727,1.823,1.823,0,0,0-1.465-.617,2.07,2.07,0,0,0-1.539.648,2.943,2.943,0,0,0-.781,1.7Zm2.766,4.477V35.336a3.792,3.792,0,0,0,2.3.773q1.688,0,1.688-1.125a.976.976,0,0,0-.145-.543,1.44,1.44,0,0,0-.391-.395,3.007,3.007,0,0,0-.578-.309q-.332-.137-.715-.285a9.206,9.206,0,0,1-.934-.426,2.82,2.82,0,0,1-.672-.484,1.8,1.8,0,0,1-.406-.613,2.17,2.17,0,0,1-.137-.8,1.912,1.912,0,0,1,.258-1,2.286,2.286,0,0,1,.688-.727,3.206,3.206,0,0,1,.98-.441,4.349,4.349,0,0,1,1.137-.148,4.59,4.59,0,0,1,1.859.359v1.3a3.624,3.624,0,0,0-2.031-.578,2.374,2.374,0,0,0-.648.082,1.587,1.587,0,0,0-.5.23,1.065,1.065,0,0,0-.32.355.936.936,0,0,0-.113.457,1.1,1.1,0,0,0,.113.523,1.152,1.152,0,0,0,.332.375,2.538,2.538,0,0,0,.531.3q.313.133.711.289a9.9,9.9,0,0,1,.953.418,3.269,3.269,0,0,1,.719.484,1.893,1.893,0,0,1,.457.621,2,2,0,0,1,.16.836,1.971,1.971,0,0,1-.262,1.031,2.243,2.243,0,0,1-.7.727,3.2,3.2,0,0,1-1.008.43,4.976,4.976,0,0,1-1.2.141A4.539,4.539,0,0,1,77.016,36.711ZM94.961,29l-3.187,8H90.516l-3.031-8h1.406l2.031,5.813A5.217,5.217,0,0,1,91.2,35.93h.031a5.283,5.283,0,0,1,.25-1.086L93.609,29Zm7.1,8h-1.281V35.75h-.031a2.682,2.682,0,0,1-2.461,1.438,2.63,2.63,0,0,1-1.871-.633,2.192,2.192,0,0,1-.676-1.68q0-2.242,2.641-2.609l2.4-.336q0-2.039-1.648-2.039a3.938,3.938,0,0,0-2.609.984V29.563a4.958,4.958,0,0,1,2.719-.75q2.82,0,2.82,2.984Zm-1.281-4.047-1.93.266a3.133,3.133,0,0,0-1.344.441,1.273,1.273,0,0,0-.453,1.121,1.221,1.221,0,0,0,.418.957,1.615,1.615,0,0,0,1.113.371,2.056,2.056,0,0,0,1.574-.668,2.387,2.387,0,0,0,.621-1.691Zm7.867-2.656a1.567,1.567,0,0,0-.969-.258,1.635,1.635,0,0,0-1.371.773,3.576,3.576,0,0,0-.551,2.109V37h-1.281V29h1.281v1.648h.031a2.793,2.793,0,0,1,.836-1.316,1.906,1.906,0,0,1,1.258-.473,2.092,2.092,0,0,1,.766.109ZM111.32,37h-1.281V29h1.281Zm1.148-12.078-2.047,2.563h-.992l1.742-2.562Zm7.875,8.4H114.7a2.992,2.992,0,0,0,.719,2.063,2.478,2.478,0,0,0,1.891.727,3.931,3.931,0,0,0,2.484-.891v1.2a4.643,4.643,0,0,1-2.789.766,3.381,3.381,0,0,1-2.664-1.09,4.461,4.461,0,0,1-.969-3.066,4.375,4.375,0,0,1,1.059-3.043,3.394,3.394,0,0,1,2.629-1.176,3.008,3.008,0,0,1,2.43,1.016,4.234,4.234,0,0,1,.859,2.82Zm-1.312-1.086a2.607,2.607,0,0,0-.535-1.727,1.823,1.823,0,0,0-1.465-.617,2.07,2.07,0,0,0-1.539.648,2.943,2.943,0,0,0-.781,1.7ZM128.922,37h-1.281V32.438q0-2.547-1.859-2.547a2.017,2.017,0,0,0-1.59.723,2.679,2.679,0,0,0-.629,1.824V37h-1.281V29h1.281v1.328h.031a2.887,2.887,0,0,1,2.625-1.516,2.448,2.448,0,0,1,2.008.848,3.776,3.776,0,0,1,.7,2.449Zm12.25-.367a4.163,4.163,0,0,1-2.187.555,3.622,3.622,0,0,1-2.762-1.113,4.035,4.035,0,0,1-1.051-2.887,4.435,4.435,0,0,1,1.133-3.176,3.963,3.963,0,0,1,3.023-1.2,4.209,4.209,0,0,1,1.859.391v1.313a3.258,3.258,0,0,0-1.906-.625,2.576,2.576,0,0,0-2.012.879,3.335,3.335,0,0,0-.785,2.309,3.176,3.176,0,0,0,.738,2.219,2.545,2.545,0,0,0,1.98.813,3.211,3.211,0,0,0,1.969-.7Zm5.281.555a3.711,3.711,0,0,1-2.832-1.121,4.153,4.153,0,0,1-1.059-2.973,4.326,4.326,0,0,1,1.1-3.148,3.96,3.96,0,0,1,2.977-1.133,3.588,3.588,0,0,1,2.793,1.1,4.368,4.368,0,0,1,1,3.055,4.3,4.3,0,0,1-1.082,3.066A3.791,3.791,0,0,1,146.453,37.188Zm.094-7.3a2.437,2.437,0,0,0-1.953.84,3.449,3.449,0,0,0-.719,2.316,3.262,3.262,0,0,0,.727,2.242,2.469,2.469,0,0,0,1.945.82,2.342,2.342,0,0,0,1.91-.8,3.492,3.492,0,0,0,.668-2.289,3.552,3.552,0,0,0-.668-2.312A2.332,2.332,0,0,0,146.547,29.891ZM159.125,37h-1.281V32.438q0-2.547-1.859-2.547a2.017,2.017,0,0,0-1.59.723,2.679,2.679,0,0,0-.629,1.824V37h-1.281V29h1.281v1.328h.031a2.887,2.887,0,0,1,2.625-1.516,2.448,2.448,0,0,1,2.008.848,3.776,3.776,0,0,1,.7,2.449Zm13.227-3.68H166.7a2.992,2.992,0,0,0,.719,2.063,2.478,2.478,0,0,0,1.891.727,3.931,3.931,0,0,0,2.484-.891v1.2a4.643,4.643,0,0,1-2.789.766,3.381,3.381,0,0,1-2.664-1.09,4.461,4.461,0,0,1-.969-3.066,4.374,4.374,0,0,1,1.059-3.043,3.394,3.394,0,0,1,2.629-1.176,3.008,3.008,0,0,1,2.43,1.016,4.234,4.234,0,0,1,.859,2.82Zm-1.312-1.086a2.607,2.607,0,0,0-.535-1.727,1.823,1.823,0,0,0-1.465-.617,2.07,2.07,0,0,0-1.539.648,2.943,2.943,0,0,0-.781,1.7ZM175.57,37h-1.281V25.156h1.281Zm10.688-.078a2.47,2.47,0,0,1-1.2.25q-2.1,0-2.1-2.344V30.094h-1.375V29h1.375V27.047l1.281-.414V29h2.016v1.094h-2.016V34.6a1.869,1.869,0,0,0,.273,1.148,1.091,1.091,0,0,0,.906.344,1.347,1.347,0,0,0,.836-.266Zm2.367-9.953a.812.812,0,0,1-.586-.234.791.791,0,0,1-.242-.594.821.821,0,0,1,.828-.836.827.827,0,0,1,.6.238.835.835,0,0,1,0,1.184A.82.82,0,0,1,188.625,26.969ZM189.25,37h-1.281V29h1.281Zm9.023-3.68h-5.648a2.992,2.992,0,0,0,.719,2.063,2.478,2.478,0,0,0,1.891.727,3.931,3.931,0,0,0,2.484-.891v1.2a4.643,4.643,0,0,1-2.789.766,3.381,3.381,0,0,1-2.664-1.09,4.461,4.461,0,0,1-.969-3.066,4.374,4.374,0,0,1,1.059-3.043,3.394,3.394,0,0,1,2.629-1.176,3.008,3.008,0,0,1,2.43,1.016,4.234,4.234,0,0,1,.859,2.82Zm-1.312-1.086a2.607,2.607,0,0,0-.535-1.727,1.823,1.823,0,0,0-1.465-.617,2.07,2.07,0,0,0-1.539.648,2.943,2.943,0,0,0-.781,1.7ZM211.57,37h-1.281V32.406a3.466,3.466,0,0,0-.41-1.922,1.555,1.555,0,0,0-1.379-.594,1.708,1.708,0,0,0-1.395.75,2.869,2.869,0,0,0-.574,1.8V37H205.25V32.25q0-2.359-1.82-2.359a1.686,1.686,0,0,0-1.391.707,2.923,2.923,0,0,0-.547,1.84V37h-1.281V29h1.281v1.266h.031a2.718,2.718,0,0,1,2.484-1.453,2.311,2.311,0,0,1,2.266,1.656,2.855,2.855,0,0,1,2.656-1.656q2.641,0,2.641,3.258Zm3.734-1.156h-.031V40.68h-1.281V29h1.281v1.406h.031a3.03,3.03,0,0,1,2.766-1.594,2.93,2.93,0,0,1,2.414,1.074,4.449,4.449,0,0,1,.867,2.879,4.958,4.958,0,0,1-.977,3.215,3.251,3.251,0,0,1-2.672,1.207A2.676,2.676,0,0,1,215.3,35.844Zm-.031-3.227v1.117a2.379,2.379,0,0,0,.645,1.684,2.3,2.3,0,0,0,3.461-.2,4.086,4.086,0,0,0,.66-2.477,3.225,3.225,0,0,0-.617-2.094,2.043,2.043,0,0,0-1.672-.758,2.27,2.27,0,0,0-1.8.777A2.854,2.854,0,0,0,215.273,32.617Zm11.469,4.57a3.711,3.711,0,0,1-2.832-1.121,4.153,4.153,0,0,1-1.059-2.973,4.326,4.326,0,0,1,1.1-3.148,3.96,3.96,0,0,1,2.977-1.133,3.588,3.588,0,0,1,2.793,1.1,4.368,4.368,0,0,1,1,3.055,4.3,4.3,0,0,1-1.082,3.066A3.791,3.791,0,0,1,226.742,37.188Zm.094-7.3a2.437,2.437,0,0,0-1.953.84,3.449,3.449,0,0,0-.719,2.316,3.262,3.262,0,0,0,.727,2.242,2.469,2.469,0,0,0,1.945.82,2.342,2.342,0,0,0,1.91-.8,3.492,3.492,0,0,0,.668-2.289,3.552,3.552,0,0,0-.668-2.312A2.332,2.332,0,0,0,226.836,29.891Zm5.969,9.656h-1.141a10.345,10.345,0,0,0,2.438-6.836,10.529,10.529,0,0,0-2.453-6.914H232.8a10.321,10.321,0,0,1,2.438,6.93A9.945,9.945,0,0,1,232.8,39.547Z" transform="translate(8516 -9971.112)" fill="#12263f"/>
  </g>
</svg>
