<svg xmlns="http://www.w3.org/2000/svg" width="782.911" height="126.485" viewBox="0 0 782.911 126.485">
  <g id="Grupo_157999" data-name="Grupo 157999" transform="translate(-400 -1403)">
    <g id="Grupo_157897" data-name="Grupo 157897" transform="translate(0 10)">
      <rect id="Rectángulo_45109" data-name="Rectángulo 45109" width="156.911" height="102.485" rx="10" transform="translate(400 1417)" fill="#fff"/>
      <rect id="Rectángulo_45110" data-name="Rectángulo 45110" width="156.911" height="102.485" rx="10" transform="translate(609 1417)" fill="#fff"/>
      <rect id="Rectángulo_45111" data-name="Rectángulo 45111" width="156.911" height="102.485" rx="10" transform="translate(817 1417)" fill="#fff"/>
      <rect id="Rectángulo_45112" data-name="Rectángulo 45112" width="156.911" height="102.485" rx="10" transform="translate(1026 1417)" fill="#fff"/>
      <g id="Grupo_157882" data-name="Grupo 157882" transform="translate(8.839 -73.016)">
        <path id="Icon_awesome-long-arrow-alt-right" data-name="Icon awesome-long-arrow-alt-right" d="M42.074,15.188H.844A.844.844,0,0,0,0,16.031v3.938a.844.844,0,0,0,.844.844h41.23v3.239a1.688,1.688,0,0,0,2.881,1.193l6.051-6.051a1.687,1.687,0,0,0,0-2.386l-6.051-6.051a1.688,1.688,0,0,0-2.881,1.193Z" transform="translate(548.5 1537.758)" fill="#ff6148"/>
        <path id="Icon_awesome-long-arrow-alt-right-2" data-name="Icon awesome-long-arrow-alt-right" d="M42.074,15.188H.844A.844.844,0,0,0,0,16.031v3.938a.844.844,0,0,0,.844.844h41.23v3.239a1.688,1.688,0,0,0,2.881,1.193l6.051-6.051a1.687,1.687,0,0,0,0-2.386l-6.051-6.051a1.688,1.688,0,0,0-2.881,1.193Z" transform="translate(600 1544.758) rotate(180)" fill="#ff6148"/>
      </g>
      <g id="Grupo_157883" data-name="Grupo 157883" transform="translate(217.25 -73.016)">
        <path id="Icon_awesome-long-arrow-alt-right-3" data-name="Icon awesome-long-arrow-alt-right" d="M42.074,15.188H.844A.844.844,0,0,0,0,16.031v3.938a.844.844,0,0,0,.844.844h41.23v3.239a1.688,1.688,0,0,0,2.881,1.193l6.051-6.051a1.687,1.687,0,0,0,0-2.386l-6.051-6.051a1.688,1.688,0,0,0-2.881,1.193Z" transform="translate(548.5 1537.758)" fill="#ff6148"/>
        <path id="Icon_awesome-long-arrow-alt-right-4" data-name="Icon awesome-long-arrow-alt-right" d="M42.074,15.188H.844A.844.844,0,0,0,0,16.031v3.938a.844.844,0,0,0,.844.844h41.23v3.239a1.688,1.688,0,0,0,2.881,1.193l6.051-6.051a1.687,1.687,0,0,0,0-2.386l-6.051-6.051a1.688,1.688,0,0,0-2.881,1.193Z" transform="translate(600 1544.758) rotate(180)" fill="#ff6148"/>
      </g>
      <g id="Grupo_157884" data-name="Grupo 157884" transform="translate(425.661 -73.016)">
        <path id="Icon_awesome-long-arrow-alt-right-5" data-name="Icon awesome-long-arrow-alt-right" d="M42.074,15.188H.844A.844.844,0,0,0,0,16.031v3.938a.844.844,0,0,0,.844.844h41.23v3.239a1.688,1.688,0,0,0,2.881,1.193l6.051-6.051a1.687,1.687,0,0,0,0-2.386l-6.051-6.051a1.688,1.688,0,0,0-2.881,1.193Z" transform="translate(548.5 1537.758)" fill="#ff6148"/>
        <path id="Icon_awesome-long-arrow-alt-right-6" data-name="Icon awesome-long-arrow-alt-right" d="M42.074,15.188H.844A.844.844,0,0,0,0,16.031v3.938a.844.844,0,0,0,.844.844h41.23v3.239a1.688,1.688,0,0,0,2.881,1.193l6.051-6.051a1.687,1.687,0,0,0,0-2.386l-6.051-6.051a1.688,1.688,0,0,0-2.881,1.193Z" transform="translate(600 1544.758) rotate(180)" fill="#ff6148"/>
      </g>
      <text id="Client" transform="translate(457 1486)" fill="#12263f" font-size="16" font-family="SegoeUI-Bold, Segoe UI" font-weight="700"><tspan x="0" y="17">Client</tspan></text>
      <text id="Proxy" transform="translate(666 1486)" fill="#12263f" font-size="16" font-family="SegoeUI-Bold, Segoe UI" font-weight="700"><tspan x="0" y="17">Proxy</tspan></text>
      <text id="Proxy-2" data-name="Proxy" transform="translate(875 1486)" fill="#12263f" font-size="16" font-family="SegoeUI-Bold, Segoe UI" font-weight="700"><tspan x="0" y="17">Proxy</tspan></text>
      <text id="Server" transform="translate(1079 1486)" fill="#12263f" font-size="16" font-family="SegoeUI-Bold, Segoe UI" font-weight="700"><tspan x="0" y="17">Server</tspan></text>
      <g id="Grupo_157896" data-name="Grupo 157896" transform="translate(0 -10)">
        <rect id="Rectángulo_45160" data-name="Rectángulo 45160" width="75" height="75" transform="translate(441 1403)" fill="none"/>
        <g id="ordenador-portatil" transform="translate(448 1406)">
          <path id="Trazado_600750" data-name="Trazado 600750" d="M164.156,25.055a15.215,15.215,0,0,1-3.8,4.918H140.384a9.326,9.326,0,0,1-4.2-4.633c-.945-2.2-1.337-5.309-.05-9.559,3.26-10.766,25.1-10.93,28.526-1.386A13.311,13.311,0,0,1,164.156,25.055Z" transform="translate(-120.874 -6.453)" fill="#f9a13e"/>
          <g id="Grupo_157885" data-name="Grupo 157885" transform="translate(15.307 17.629)">
            <path id="Trazado_600751" data-name="Trazado 600751" d="M290.311,131.429a15.215,15.215,0,0,1-3.8,4.918h-5.328a5.889,5.889,0,0,1,9.132-4.918Z" transform="translate(-262.337 -130.455)" fill="#e2780e"/>
            <path id="Trazado_600752" data-name="Trazado 600752" d="M151.278,136.346h-5.327a9.326,9.326,0,0,1-4.2-4.633,5.89,5.89,0,0,1,9.529,4.633Z" transform="translate(-141.749 -130.454)" fill="#e2780e"/>
          </g>
          <path id="Trazado_600753" data-name="Trazado 600753" d="M176.07,293.594v11.762H149.753V293.594a13.158,13.158,0,1,1,26.316,0Z" transform="translate(-133.364 -242.54)" fill="#d2e3f1"/>
          <path id="Trazado_600754" data-name="Trazado 600754" d="M196.272,284.4l-4.8,4.509-4.62-4.509-4.62,4.509-4.8-4.509a13.155,13.155,0,0,1,18.722-.116C196.2,284.319,196.233,284.358,196.272,284.4Z" transform="translate(-157.306 -242.531)" fill="#5a9bcc"/>
          <g id="Grupo_157886" data-name="Grupo 157886" transform="translate(15.07 19.647)">
            <path id="Trazado_600755" data-name="Trazado 600755" d="M228.474,258.993h0a2.914,2.914,0,0,1-2.914-2.914v-5.026h5.829v5.026A2.914,2.914,0,0,1,228.474,258.993Z" transform="translate(-213.997 -236.773)" fill="#fcce99"/>
            <ellipse id="Elipse_5584" data-name="Elipse 5584" cx="3.875" cy="3.875" rx="3.875" ry="3.875" transform="translate(21.097)" fill="#fcce99"/>
            <ellipse id="Elipse_5585" data-name="Elipse 5585" cx="3.875" cy="3.875" rx="3.875" ry="3.875" fill="#fcce99"/>
          </g>
          <path id="Trazado_600756" data-name="Trazado 600756" d="M189.764,97.533l-.437,5.241-.066.781-.676,8.105q-.036.44-.113.866a9.4,9.4,0,0,1-18.5.079,9.073,9.073,0,0,1-.128-.945l-.709-8.5-.04-.479-.43-5.149Z" transform="translate(-149.722 -84.353)" fill="#fee6cc"/>
          <g id="Grupo_157887" data-name="Grupo 157887" transform="translate(18.945 13.181)">
            <path id="Trazado_600757" data-name="Trazado 600757" d="M174.609,168.676l.376,4.513a9.115,9.115,0,0,0,.128.945,6.408,6.408,0,0,0,9.191-2.2,6.408,6.408,0,0,0,9.306,2.121q.077-.426.113-.866l.377-4.513Z" transform="translate(-173.806 -159.063)" fill="#fcce99"/>
            <path id="Trazado_600758" data-name="Trazado 600758" d="M189.764,97.537l-.5,6.021a26.467,26.467,0,0,1-4.905.455,28.477,28.477,0,0,1-12.107-2.757,12.892,12.892,0,0,1-3.112,1.909l-.47-5.628Z" transform="translate(-168.667 -97.537)" fill="#fcce99"/>
          </g>
          <path id="Trazado_600759" data-name="Trazado 600759" d="M179.84,75.221c3.262,2.467,8.972,3.652,8.972,3.652a25.078,25.078,0,0,1-24.958.08,10.034,10.034,0,0,1-4.4,2.954V75.221Z" transform="translate(-141.756 -65.056)" fill="#f9a13e"/>
          <g id="Grupo_157888" data-name="Grupo 157888" transform="translate(19.439 18.536)">
            <ellipse id="Elipse_5586" data-name="Elipse 5586" cx="4.399" cy="4.399" rx="4.399" ry="4.399" fill="#fff4eb"/>
            <ellipse id="Elipse_5587" data-name="Elipse 5587" cx="4.399" cy="4.399" rx="4.399" ry="4.399" transform="translate(11.21)" fill="#fff4eb"/>
          </g>
          <rect id="Rectángulo_45113" data-name="Rectángulo 45113" width="31.963" height="6.201" transform="translate(13.499 56.615)" fill="#5a9bcc"/>
          <rect id="Rectángulo_45114" data-name="Rectángulo 45114" width="59.474" height="3.65" transform="translate(1.009 62.413)" fill="#e8a96b"/>
          <path id="Trazado_600760" data-name="Trazado 600760" d="M160.333,321.444H128.371V305.531a1.39,1.39,0,0,1,1.39-1.39h29.183a1.39,1.39,0,0,1,1.39,1.39v15.913Z" transform="translate(-114.872 -263.041)" fill="#a5c6e3"/>
          <ellipse id="Elipse_5588" data-name="Elipse 5588" cx="2.779" cy="2.779" rx="2.779" ry="2.779" transform="translate(26.714 47.577)" fill="#fce790"/>
          <path id="Trazado_600761" data-name="Trazado 600761" d="M203.252,162.806a1.009,1.009,0,0,0,1.009-1.009v-.208a1.009,1.009,0,0,0-2.017,0v.208A1.009,1.009,0,0,0,203.252,162.806Z" transform="translate(-178.761 -138.881)"/>
          <path id="Trazado_600762" data-name="Trazado 600762" d="M277.1,162.806a1.009,1.009,0,0,0,1.009-1.009v-.208a1.009,1.009,0,1,0-2.017,0v.208A1.009,1.009,0,0,0,277.1,162.806Z" transform="translate(-242.631 -138.881)"/>
          <path id="Trazado_600763" data-name="Trazado 600763" d="M229.464,208.964a1.009,1.009,0,1,0-1.225-1.6,3.156,3.156,0,0,1-3.429,0,1.009,1.009,0,0,0-1.225,1.6,5.152,5.152,0,0,0,5.88,0Z" transform="translate(-196.876 -179.16)"/>
          <path id="Trazado_600764" data-name="Trazado 600764" d="M88.961,61.4H78.655V60.2a1.009,1.009,0,0,0-1.009-1.009h-2.7v-.777s0-.009,0-.013V48.1a1.009,1.009,0,1,0-2.017,0v8.5s0,.009,0,.013v.779H42.985v-.779s0,0,0,0V42.489a.381.381,0,0,1,.381-.381H72.549a.381.381,0,0,1,.381.381v1.864a1.009,1.009,0,1,0,2.017,0V42.489a2.4,2.4,0,0,0-2.4-2.4H67a14.185,14.185,0,0,0-5.05-2.652V36.145a10.4,10.4,0,0,0,6.265-7.753c.1.006.2.012.307.012a4.88,4.88,0,0,0,3.543-8.239,14.931,14.931,0,0,0,1.735-4.32q1.11-.51,2.238-1.154a1.009,1.009,0,0,0-.3-1.862c-.018,0-.653-.138-1.6-.4A15.367,15.367,0,0,0,73.209,7.6C71.564,3.016,65.9.032,58.767,0a21.97,21.97,0,0,0-9.53,2.018,11.9,11.9,0,0,0-6.279,6.453,1.009,1.009,0,0,0,1.892.7c1.835-4.975,8.3-7.175,13.907-7.152a19.008,19.008,0,0,1,7.958,1.667,8.5,8.5,0,0,1,4.594,4.6,13.615,13.615,0,0,1,.771,3.5A18.584,18.584,0,0,1,67.169,9.36a1.009,1.009,0,1,0-1.217,1.609,22.894,22.894,0,0,0,6.774,3.151l-.182.08-.067.029a23.763,23.763,0,0,1-4.343,1.428,1,1,0,0,0-.247.054,23.421,23.421,0,0,1-9.511.016,23.411,23.411,0,0,1-7.259-2.682,1.012,1.012,0,0,0-1.34.232,9.158,9.158,0,0,1-3.93,2.619,1.009,1.009,0,1,0,.658,1.907c.1-.033.188-.068.281-.1l.081.967a4.847,4.847,0,0,0-1.791.569,10.7,10.7,0,0,1-1.024-6.693,1.009,1.009,0,0,0-2-.268,12.483,12.483,0,0,0,1.471,8.3,4.88,4.88,0,0,0,3.9,7.822,1.007,1.007,0,0,0,.3-.046A10.407,10.407,0,0,0,54.1,36.19v1.25a14.184,14.184,0,0,0-5.048,2.651H43.366a2.4,2.4,0,0,0-2.4,2.4V58.4s0,0,0,0v3H29.486a1.009,1.009,0,0,0-1.009,1.009v3.65a1.009,1.009,0,0,0,1.009,1.009h5.071a1.009,1.009,0,1,0,0-2.017H30.494V63.422H76.638v1.632H38.3a1.009,1.009,0,1,0,0,2.017H76.638V68.18a1.009,1.009,0,0,0,2.017,0V67.071H88.961a1.009,1.009,0,0,0,1.009-1.009v-3.65A1.009,1.009,0,0,0,88.961,61.4ZM61.775,40.091a3.91,3.91,0,0,0,.126-.553,12.116,12.116,0,0,1,1.361.553Zm5.26-21.265a5.417,5.417,0,0,0-1.176-.769q.618-.068,1.254-.169Zm-3.511.718a3.391,3.391,0,1,1-3.391,3.391A3.395,3.395,0,0,1,63.525,19.544Zm4.994,6.843c-.03,0-.06,0-.09,0l.121-1.454a5.387,5.387,0,0,0,.262-3.131l.093-1.115a2.865,2.865,0,0,1-.386,5.7Zm1.88-7.373a4.847,4.847,0,0,0-1.326-.345l.1-1.2q1.108-.274,2.253-.669A13.275,13.275,0,0,1,70.4,19.014ZM50.772,15.172A26.459,26.459,0,0,0,57.9,17.69a26.274,26.274,0,0,0,3.149.44,5.424,5.424,0,0,0-2.835,3.8h-.586a5.4,5.4,0,0,0-8.73-3.179l-.166-1.992A11.349,11.349,0,0,0,50.772,15.172Zm-1.848,7.762a3.391,3.391,0,1,1,3.391,3.391A3.394,3.394,0,0,1,48.925,22.934Zm-4.37.587a2.869,2.869,0,0,1,2.481-2.838l.068.814a5.388,5.388,0,0,0,.311,3.718l.1,1.176c-.03,0-.06,0-.091,0A2.87,2.87,0,0,1,44.554,23.521Zm5.1,4.117a5.4,5.4,0,0,0,7.976-3.695h.586A5.4,5.4,0,0,0,66.3,27.576a8.392,8.392,0,0,1-16.644.062Zm8.318,9.3a10.449,10.449,0,0,0,1.959-.185V38.2h0v.749a1.911,1.911,0,0,1-.381,1.14H56.5a1.893,1.893,0,0,1-.381-1.14V36.769A10.45,10.45,0,0,0,57.97,36.936Zm-3.825,2.6a3.879,3.879,0,0,0,.124.552H52.788A12.077,12.077,0,0,1,54.145,39.54ZM42.985,59.411H72.929V61.4H70.138V61.1a1.009,1.009,0,0,0-2.017,0V61.4h-.4V61.1a1.009,1.009,0,1,0-2.017,0V61.4H42.985ZM74.947,61.4V61.21h1.692V61.4Zm13.006,3.65h-9.3V63.421h9.3Z" transform="translate(-28.477 0)"/>
          <path id="Trazado_600765" data-name="Trazado 600765" d="M218.7,348.394a3.788,3.788,0,1,0,3.788-3.788A3.792,3.792,0,0,0,218.7,348.394Zm5.558,0a1.771,1.771,0,1,1-1.771-1.771A1.773,1.773,0,0,1,224.255,348.394Z" transform="translate(-192.992 -298.038)"/>
        </g>
      </g>
      <g id="Grupo_157895" data-name="Grupo 157895" transform="translate(0 -10)">
        <rect id="Rectángulo_45161" data-name="Rectángulo 45161" width="75" height="75" transform="translate(650 1403)" fill="none"/>
        <g id="server_1_" data-name="server(1)" transform="translate(654 1407)">
          <g id="Grupo_157889" data-name="Grupo 157889" transform="translate(37.609 0)">
            <path id="Trazado_600766" data-name="Trazado 600766" d="M375.87,173.834h-8.431l1.208-4.785,3.007-2.156,3.007,2.156Z" transform="translate(-356.407 -145.354)" fill="#465a61"/>
            <path id="Trazado_600767" data-name="Trazado 600767" d="M310.953,31.2H290.209a4.4,4.4,0,0,1-4.4-4.4V11.9a4.4,4.4,0,0,1,4.4-4.4h20.744a4.4,4.4,0,0,1,4.4,4.4V26.791A4.4,4.4,0,0,1,310.953,31.2Z" transform="translate(-285.804 -7.5)" fill="#7a8c98"/>
            <path id="Trazado_600768" data-name="Trazado 600768" d="M295.447,31.2H290.21a4.4,4.4,0,0,1-4.4-4.4V11.907a4.405,4.405,0,0,1,4.4-4.4h5.237a4.405,4.405,0,0,0-4.4,4.4V26.792A4.4,4.4,0,0,0,295.447,31.2Z" transform="translate(-285.805 -7.502)" fill="#596c76"/>
            <path id="Trazado_600769" data-name="Trazado 600769" d="M318.4,7.5h20.745a4.4,4.4,0,0,1,4.4,4.4V26.791a4.405,4.405,0,0,1-4.4,4.405H318.4" transform="translate(-313.996 -7.5)" fill="none" stroke="#000" stroke-linecap="round" stroke-linejoin="round" stroke-miterlimit="10" stroke-width="2"/>
            <path id="Trazado_600770" data-name="Trazado 600770" d="M315.12,52.215a.513.513,0,0,1-.512-.512V36.816a.513.513,0,0,1,.512-.512h20.744a.513.513,0,0,1,.512.512V51.7a.513.513,0,0,1-.512.512H315.12Z" transform="translate(-310.716 -32.412)" fill="#ffe177"/>
            <path id="Trazado_600771" data-name="Trazado 600771" d="M380.073,99.1v6.912a.513.513,0,0,1-.512.512h-14.43" transform="translate(-354.411 -86.723)" fill="none" stroke="#000" stroke-linecap="round" stroke-linejoin="round" stroke-miterlimit="10" stroke-width="2"/>
            <path id="Trazado_600772" data-name="Trazado 600772" d="M365.131,36.3h14.43a.513.513,0,0,1,.512.512v3.245" transform="translate(-354.411 -32.41)" fill="none" stroke="#000" stroke-linecap="round" stroke-linejoin="round" stroke-miterlimit="10" stroke-width="2"/>
            <path id="Trazado_600773" data-name="Trazado 600773" d="M375.87,187.631h-8.431l1.208-4.785h6.014Z" transform="translate(-356.407 -159.151)" fill="none" stroke="#000" stroke-linecap="round" stroke-linejoin="round" stroke-miterlimit="10" stroke-width="2"/>
            <path id="Trazado_600774" data-name="Trazado 600774" d="M354.708,221.95H342.82a1.848,1.848,0,0,1-1.848-1.848h0a1.848,1.848,0,0,1,1.848-1.848h11.887a1.848,1.848,0,0,1,1.848,1.848h0A1.848,1.848,0,0,1,354.708,221.95Z" transform="translate(-333.517 -189.773)" fill="#7a8c98"/>
            <path id="Trazado_600775" data-name="Trazado 600775" d="M347.57,221.955h-4.749a1.848,1.848,0,1,1,0-3.7h4.749a1.848,1.848,0,0,0,0,3.7Z" transform="translate(-333.517 -189.778)" fill="#596c76"/>
            <path id="Trazado_600776" data-name="Trazado 600776" d="M354.708,221.95H342.82a1.848,1.848,0,0,1-1.848-1.848h0a1.848,1.848,0,0,1,1.848-1.848h11.887a1.848,1.848,0,0,1,1.848,1.848h0A1.848,1.848,0,0,1,354.708,221.95Z" transform="translate(-333.517 -189.773)" fill="none" stroke="#000" stroke-linecap="round" stroke-linejoin="round" stroke-miterlimit="10" stroke-width="2"/>
          </g>
          <g id="Grupo_157890" data-name="Grupo 157890" transform="translate(18.804 0)">
            <path id="Trazado_600777" data-name="Trazado 600777" d="M236.718,173.834h-8.431l1.209-4.785,3.007-2.156,3.007,2.156Z" transform="translate(-217.255 -145.354)" fill="#465a61"/>
            <path id="Trazado_600778" data-name="Trazado 600778" d="M171.8,31.2H151.057a4.4,4.4,0,0,1-4.4-4.4V11.9a4.4,4.4,0,0,1,4.4-4.4H171.8a4.4,4.4,0,0,1,4.4,4.4V26.791A4.4,4.4,0,0,1,171.8,31.2Z" transform="translate(-146.652 -7.5)" fill="#7a8c98"/>
            <path id="Trazado_600779" data-name="Trazado 600779" d="M156.3,31.2h-5.237a4.4,4.4,0,0,1-4.4-4.4V11.907a4.405,4.405,0,0,1,4.4-4.4H156.3a4.405,4.405,0,0,0-4.4,4.4V26.792A4.4,4.4,0,0,0,156.3,31.2Z" transform="translate(-146.653 -7.502)" fill="#596c76"/>
            <path id="Trazado_600780" data-name="Trazado 600780" d="M179.251,7.5h20.743a4.4,4.4,0,0,1,4.405,4.4V26.791a4.405,4.405,0,0,1-4.405,4.405H179.251" transform="translate(-174.846 -7.5)" fill="none" stroke="#000" stroke-linecap="round" stroke-linejoin="round" stroke-miterlimit="10" stroke-width="2"/>
            <path id="Trazado_600781" data-name="Trazado 600781" d="M175.969,52.215a.513.513,0,0,1-.512-.512V36.816a.513.513,0,0,1,.512-.512h20.744a.513.513,0,0,1,.512.512V51.7a.513.513,0,0,1-.512.512H175.969Z" transform="translate(-171.564 -32.412)" fill="#fe646f"/>
            <path id="Trazado_600782" data-name="Trazado 600782" d="M225.981,36.3h14.428a.513.513,0,0,1,.512.512V51.7a.513.513,0,0,1-.512.512H225.981" transform="translate(-215.261 -32.408)" fill="none" stroke="#000" stroke-linecap="round" stroke-linejoin="round" stroke-miterlimit="10" stroke-width="2"/>
            <path id="Trazado_600783" data-name="Trazado 600783" d="M236.718,187.631h-8.431l1.209-4.785h6.014Z" transform="translate(-217.255 -159.151)" fill="none" stroke="#000" stroke-linecap="round" stroke-linejoin="round" stroke-miterlimit="10" stroke-width="2"/>
            <path id="Trazado_600784" data-name="Trazado 600784" d="M215.556,221.95H203.668a1.848,1.848,0,0,1-1.848-1.848h0a1.848,1.848,0,0,1,1.848-1.848h11.887A1.848,1.848,0,0,1,217.4,220.1h0A1.848,1.848,0,0,1,215.556,221.95Z" transform="translate(-194.365 -189.773)" fill="#7a8c98"/>
            <path id="Trazado_600785" data-name="Trazado 600785" d="M208.418,221.955h-4.749a1.848,1.848,0,1,1,0-3.7h4.749a1.848,1.848,0,0,0,0,3.7Z" transform="translate(-194.365 -189.778)" fill="#596c76"/>
            <path id="Trazado_600786" data-name="Trazado 600786" d="M215.556,221.95H203.668a1.848,1.848,0,0,1-1.848-1.848h0a1.848,1.848,0,0,1,1.848-1.848h11.887A1.848,1.848,0,0,1,217.4,220.1h0A1.848,1.848,0,0,1,215.556,221.95Z" transform="translate(-194.365 -189.773)" fill="none" stroke="#000" stroke-linecap="round" stroke-linejoin="round" stroke-miterlimit="10" stroke-width="2"/>
          </g>
          <g id="Grupo_157891" data-name="Grupo 157891" transform="translate(0 0)">
            <path id="Trazado_600787" data-name="Trazado 600787" d="M97.566,173.834H89.135l1.209-4.785,3.007-2.156,3.007,2.156Z" transform="translate(-78.103 -145.354)" fill="#465a61"/>
            <path id="Trazado_600788" data-name="Trazado 600788" d="M32.649,31.2H11.9a4.4,4.4,0,0,1-4.4-4.4V11.9a4.4,4.4,0,0,1,4.4-4.4H32.649a4.4,4.4,0,0,1,4.4,4.4V26.791A4.4,4.4,0,0,1,32.649,31.2Z" transform="translate(-7.5 -7.5)" fill="#7a8c98"/>
            <path id="Trazado_600789" data-name="Trazado 600789" d="M17.143,31.2H11.906a4.4,4.4,0,0,1-4.4-4.4V11.907a4.405,4.405,0,0,1,4.4-4.4h5.237a4.405,4.405,0,0,0-4.4,4.4V26.792A4.4,4.4,0,0,0,17.143,31.2Z" transform="translate(-7.501 -7.502)" fill="#596c76"/>
            <path id="Trazado_600790" data-name="Trazado 600790" d="M16.823,31.2H32.65a4.405,4.405,0,0,0,4.405-4.4V11.906A4.405,4.405,0,0,0,32.65,7.5H11.905a4.4,4.4,0,0,0-4.4,4.4V26.793a4.4,4.4,0,0,0,4.4,4.4h.188" transform="translate(-7.501 -7.502)" fill="none" stroke="#000" stroke-linecap="round" stroke-linejoin="round" stroke-miterlimit="10" stroke-width="2"/>
            <path id="Trazado_600791" data-name="Trazado 600791" d="M36.817,52.215a.513.513,0,0,1-.512-.512V36.816a.513.513,0,0,1,.512-.512H57.561a.513.513,0,0,1,.512.512V51.7a.513.513,0,0,1-.512.512H36.817Z" transform="translate(-32.412 -32.412)" fill="#9be69d"/>
            <path id="Trazado_600792" data-name="Trazado 600792" d="M36.817,52.215a.513.513,0,0,1-.512-.512V36.816a.513.513,0,0,1,.512-.512H57.561a.513.513,0,0,1,.512.512V51.7a.513.513,0,0,1-.512.512H36.817Z" transform="translate(-32.412 -32.412)" fill="none" stroke="#000" stroke-linecap="round" stroke-linejoin="round" stroke-miterlimit="10" stroke-width="2"/>
            <path id="Trazado_600793" data-name="Trazado 600793" d="M97.566,187.631H89.135l1.209-4.785h6.014Z" transform="translate(-78.103 -159.151)" fill="none" stroke="#000" stroke-linecap="round" stroke-linejoin="round" stroke-miterlimit="10" stroke-width="2"/>
            <path id="Trazado_600794" data-name="Trazado 600794" d="M76.4,221.95H64.516a1.848,1.848,0,0,1-1.848-1.848h0a1.848,1.848,0,0,1,1.848-1.848H76.4a1.848,1.848,0,0,1,1.848,1.848h0A1.848,1.848,0,0,1,76.4,221.95Z" transform="translate(-55.213 -189.773)" fill="#7a8c98"/>
            <path id="Trazado_600795" data-name="Trazado 600795" d="M69.266,221.955H64.517a1.848,1.848,0,1,1,0-3.7h4.749a1.848,1.848,0,0,0,0,3.7Z" transform="translate(-55.213 -189.778)" fill="#596c76"/>
            <path id="Trazado_600796" data-name="Trazado 600796" d="M76.4,221.95H64.516a1.848,1.848,0,0,1-1.848-1.848h0a1.848,1.848,0,0,1,1.848-1.848H76.4a1.848,1.848,0,0,1,1.848,1.848h0A1.848,1.848,0,0,1,76.4,221.95Z" transform="translate(-55.213 -189.773)" fill="none" stroke="#000" stroke-linecap="round" stroke-linejoin="round" stroke-miterlimit="10" stroke-width="2"/>
          </g>
          <path id="Trazado_600797" data-name="Trazado 600797" d="M82.811,68.065l4.311,4.311L92.01,64.1" transform="translate(-72.634 -56.449)" fill="none" stroke="#000" stroke-linecap="round" stroke-linejoin="round" stroke-miterlimit="10" stroke-width="2"/>
          <path id="Trazado_600798" data-name="Trazado 600798" d="M120.328,245.609V252.1a1.9,1.9,0,0,0,1.9,1.9h33.805a1.9,1.9,0,0,0,1.9-1.9v-6.492" transform="translate(-105.081 -213.432)" fill="none" stroke="#000" stroke-linecap="round" stroke-linejoin="round" stroke-miterlimit="10" stroke-width="2"/>
          <line id="Línea_379" data-name="Línea 379" y2="15.969" transform="translate(33.581 32.177)" fill="none" stroke="#000" stroke-linecap="round" stroke-linejoin="round" stroke-miterlimit="10" stroke-width="2"/>
          <path id="Trazado_600799" data-name="Trazado 600799" d="M181.45,363.782H158.093a1.8,1.8,0,0,0-1.795,1.795V371.5a1.8,1.8,0,0,0,1.795,1.795H181.45a1.8,1.8,0,0,0,1.795-1.795v-5.918A1.8,1.8,0,0,0,181.45,363.782Z" transform="translate(-136.19 -315.636)" fill="#7a8c98"/>
          <path id="Trazado_600800" data-name="Trazado 600800" d="M162.12,373.292h-4.027a1.8,1.8,0,0,1-1.795-1.8v-5.918a1.794,1.794,0,0,1,1.795-1.795h4.027a1.794,1.794,0,0,0-1.795,1.795V371.5A1.8,1.8,0,0,0,162.12,373.292Z" transform="translate(-136.19 -315.638)" fill="#596c76"/>
          <path id="Trazado_600801" data-name="Trazado 600801" d="M181.45,363.782H158.093a1.8,1.8,0,0,0-1.795,1.795V371.5a1.8,1.8,0,0,0,1.795,1.795H181.45a1.8,1.8,0,0,0,1.795-1.795v-5.918A1.8,1.8,0,0,0,181.45,363.782Z" transform="translate(-136.19 -315.636)" fill="none" stroke="#000" stroke-linecap="round" stroke-linejoin="round" stroke-miterlimit="10" stroke-width="2"/>
          <line id="Línea_380" data-name="Línea 380" x2="11.345" transform="translate(23.626 52.9)" fill="none" stroke="#000" stroke-linecap="round" stroke-linejoin="round" stroke-miterlimit="10" stroke-width="2"/>
          <ellipse id="Elipse_5589" data-name="Elipse 5589" cx="2.056" cy="2.056" rx="2.056" ry="2.056" transform="translate(38.714 50.844)" fill="#9be69d"/>
          <ellipse id="Elipse_5590" data-name="Elipse 5590" cx="2.056" cy="2.056" rx="2.056" ry="2.056" transform="translate(38.714 50.844)" fill="none" stroke="#000" stroke-linecap="round" stroke-linejoin="round" stroke-miterlimit="10" stroke-width="2"/>
          <path id="Trazado_600802" data-name="Trazado 600802" d="M181.45,434.141H158.093a1.8,1.8,0,0,0-1.795,1.795v5.918a1.8,1.8,0,0,0,1.795,1.8H181.45a1.8,1.8,0,0,0,1.795-1.8v-5.918A1.8,1.8,0,0,0,181.45,434.141Z" transform="translate(-136.19 -376.487)" fill="#7a8c98"/>
          <path id="Trazado_600803" data-name="Trazado 600803" d="M162.12,443.652h-4.027a1.8,1.8,0,0,1-1.795-1.8v-5.918a1.794,1.794,0,0,1,1.795-1.795h4.027a1.794,1.794,0,0,0-1.795,1.795v5.918A1.8,1.8,0,0,0,162.12,443.652Z" transform="translate(-136.19 -376.489)" fill="#596c76"/>
          <path id="Trazado_600804" data-name="Trazado 600804" d="M166.028,443.65h15.424a1.794,1.794,0,0,0,1.795-1.795v-5.919a1.794,1.794,0,0,0-1.795-1.795H158.1a1.794,1.794,0,0,0-1.795,1.795v5.919a1.794,1.794,0,0,0,1.795,1.795h3.2" transform="translate(-136.193 -376.488)" fill="none" stroke="#000" stroke-linecap="round" stroke-linejoin="round" stroke-miterlimit="10" stroke-width="2"/>
          <line id="Línea_381" data-name="Línea 381" x2="11.345" transform="translate(23.626 62.408)" fill="none" stroke="#000" stroke-linecap="round" stroke-linejoin="round" stroke-miterlimit="10" stroke-width="2"/>
          <ellipse id="Elipse_5591" data-name="Elipse 5591" cx="2.056" cy="2.056" rx="2.056" ry="2.056" transform="translate(38.714 60.352)" fill="#9be69d"/>
          <ellipse id="Elipse_5592" data-name="Elipse 5592" cx="2.056" cy="2.056" rx="2.056" ry="2.056" transform="translate(38.714 60.352)" fill="none" stroke="#000" stroke-linecap="round" stroke-linejoin="round" stroke-miterlimit="10" stroke-width="2"/>
        </g>
      </g>
      <g id="Grupo_157894" data-name="Grupo 157894" transform="translate(0 -10)">
        <rect id="Rectángulo_45162" data-name="Rectángulo 45162" width="75" height="75" transform="translate(859 1403)" fill="none"/>
        <g id="server_1_2" data-name="server(1)" transform="translate(863 1407)">
          <g id="Grupo_157889-2" data-name="Grupo 157889" transform="translate(37.609 0)">
            <path id="Trazado_600766-2" data-name="Trazado 600766" d="M375.87,173.834h-8.431l1.208-4.785,3.007-2.156,3.007,2.156Z" transform="translate(-356.407 -145.354)" fill="#465a61"/>
            <path id="Trazado_600767-2" data-name="Trazado 600767" d="M310.953,31.2H290.209a4.4,4.4,0,0,1-4.4-4.4V11.9a4.4,4.4,0,0,1,4.4-4.4h20.744a4.4,4.4,0,0,1,4.4,4.4V26.791A4.4,4.4,0,0,1,310.953,31.2Z" transform="translate(-285.804 -7.5)" fill="#7a8c98"/>
            <path id="Trazado_600768-2" data-name="Trazado 600768" d="M295.447,31.2H290.21a4.4,4.4,0,0,1-4.4-4.4V11.907a4.405,4.405,0,0,1,4.4-4.4h5.237a4.405,4.405,0,0,0-4.4,4.4V26.792A4.4,4.4,0,0,0,295.447,31.2Z" transform="translate(-285.805 -7.502)" fill="#596c76"/>
            <path id="Trazado_600769-2" data-name="Trazado 600769" d="M318.4,7.5h20.745a4.4,4.4,0,0,1,4.4,4.4V26.791a4.405,4.405,0,0,1-4.4,4.405H318.4" transform="translate(-313.996 -7.5)" fill="none" stroke="#000" stroke-linecap="round" stroke-linejoin="round" stroke-miterlimit="10" stroke-width="2"/>
            <path id="Trazado_600770-2" data-name="Trazado 600770" d="M315.12,52.215a.513.513,0,0,1-.512-.512V36.816a.513.513,0,0,1,.512-.512h20.744a.513.513,0,0,1,.512.512V51.7a.513.513,0,0,1-.512.512H315.12Z" transform="translate(-310.716 -32.412)" fill="#ffe177"/>
            <path id="Trazado_600771-2" data-name="Trazado 600771" d="M380.073,99.1v6.912a.513.513,0,0,1-.512.512h-14.43" transform="translate(-354.411 -86.723)" fill="none" stroke="#000" stroke-linecap="round" stroke-linejoin="round" stroke-miterlimit="10" stroke-width="2"/>
            <path id="Trazado_600772-2" data-name="Trazado 600772" d="M365.131,36.3h14.43a.513.513,0,0,1,.512.512v3.245" transform="translate(-354.411 -32.41)" fill="none" stroke="#000" stroke-linecap="round" stroke-linejoin="round" stroke-miterlimit="10" stroke-width="2"/>
            <path id="Trazado_600773-2" data-name="Trazado 600773" d="M375.87,187.631h-8.431l1.208-4.785h6.014Z" transform="translate(-356.407 -159.151)" fill="none" stroke="#000" stroke-linecap="round" stroke-linejoin="round" stroke-miterlimit="10" stroke-width="2"/>
            <path id="Trazado_600774-2" data-name="Trazado 600774" d="M354.708,221.95H342.82a1.848,1.848,0,0,1-1.848-1.848h0a1.848,1.848,0,0,1,1.848-1.848h11.887a1.848,1.848,0,0,1,1.848,1.848h0A1.848,1.848,0,0,1,354.708,221.95Z" transform="translate(-333.517 -189.773)" fill="#7a8c98"/>
            <path id="Trazado_600775-2" data-name="Trazado 600775" d="M347.57,221.955h-4.749a1.848,1.848,0,1,1,0-3.7h4.749a1.848,1.848,0,0,0,0,3.7Z" transform="translate(-333.517 -189.778)" fill="#596c76"/>
            <path id="Trazado_600776-2" data-name="Trazado 600776" d="M354.708,221.95H342.82a1.848,1.848,0,0,1-1.848-1.848h0a1.848,1.848,0,0,1,1.848-1.848h11.887a1.848,1.848,0,0,1,1.848,1.848h0A1.848,1.848,0,0,1,354.708,221.95Z" transform="translate(-333.517 -189.773)" fill="none" stroke="#000" stroke-linecap="round" stroke-linejoin="round" stroke-miterlimit="10" stroke-width="2"/>
          </g>
          <g id="Grupo_157890-2" data-name="Grupo 157890" transform="translate(18.804 0)">
            <path id="Trazado_600777-2" data-name="Trazado 600777" d="M236.718,173.834h-8.431l1.209-4.785,3.007-2.156,3.007,2.156Z" transform="translate(-217.255 -145.354)" fill="#465a61"/>
            <path id="Trazado_600778-2" data-name="Trazado 600778" d="M171.8,31.2H151.057a4.4,4.4,0,0,1-4.4-4.4V11.9a4.4,4.4,0,0,1,4.4-4.4H171.8a4.4,4.4,0,0,1,4.4,4.4V26.791A4.4,4.4,0,0,1,171.8,31.2Z" transform="translate(-146.652 -7.5)" fill="#7a8c98"/>
            <path id="Trazado_600779-2" data-name="Trazado 600779" d="M156.3,31.2h-5.237a4.4,4.4,0,0,1-4.4-4.4V11.907a4.405,4.405,0,0,1,4.4-4.4H156.3a4.405,4.405,0,0,0-4.4,4.4V26.792A4.4,4.4,0,0,0,156.3,31.2Z" transform="translate(-146.653 -7.502)" fill="#596c76"/>
            <path id="Trazado_600780-2" data-name="Trazado 600780" d="M179.251,7.5h20.743a4.4,4.4,0,0,1,4.405,4.4V26.791a4.405,4.405,0,0,1-4.405,4.405H179.251" transform="translate(-174.846 -7.5)" fill="none" stroke="#000" stroke-linecap="round" stroke-linejoin="round" stroke-miterlimit="10" stroke-width="2"/>
            <path id="Trazado_600781-2" data-name="Trazado 600781" d="M175.969,52.215a.513.513,0,0,1-.512-.512V36.816a.513.513,0,0,1,.512-.512h20.744a.513.513,0,0,1,.512.512V51.7a.513.513,0,0,1-.512.512H175.969Z" transform="translate(-171.564 -32.412)" fill="#fe646f"/>
            <path id="Trazado_600782-2" data-name="Trazado 600782" d="M225.981,36.3h14.428a.513.513,0,0,1,.512.512V51.7a.513.513,0,0,1-.512.512H225.981" transform="translate(-215.261 -32.408)" fill="none" stroke="#000" stroke-linecap="round" stroke-linejoin="round" stroke-miterlimit="10" stroke-width="2"/>
            <path id="Trazado_600783-2" data-name="Trazado 600783" d="M236.718,187.631h-8.431l1.209-4.785h6.014Z" transform="translate(-217.255 -159.151)" fill="none" stroke="#000" stroke-linecap="round" stroke-linejoin="round" stroke-miterlimit="10" stroke-width="2"/>
            <path id="Trazado_600784-2" data-name="Trazado 600784" d="M215.556,221.95H203.668a1.848,1.848,0,0,1-1.848-1.848h0a1.848,1.848,0,0,1,1.848-1.848h11.887A1.848,1.848,0,0,1,217.4,220.1h0A1.848,1.848,0,0,1,215.556,221.95Z" transform="translate(-194.365 -189.773)" fill="#7a8c98"/>
            <path id="Trazado_600785-2" data-name="Trazado 600785" d="M208.418,221.955h-4.749a1.848,1.848,0,1,1,0-3.7h4.749a1.848,1.848,0,0,0,0,3.7Z" transform="translate(-194.365 -189.778)" fill="#596c76"/>
            <path id="Trazado_600786-2" data-name="Trazado 600786" d="M215.556,221.95H203.668a1.848,1.848,0,0,1-1.848-1.848h0a1.848,1.848,0,0,1,1.848-1.848h11.887A1.848,1.848,0,0,1,217.4,220.1h0A1.848,1.848,0,0,1,215.556,221.95Z" transform="translate(-194.365 -189.773)" fill="none" stroke="#000" stroke-linecap="round" stroke-linejoin="round" stroke-miterlimit="10" stroke-width="2"/>
          </g>
          <g id="Grupo_157891-2" data-name="Grupo 157891" transform="translate(0 0)">
            <path id="Trazado_600787-2" data-name="Trazado 600787" d="M97.566,173.834H89.135l1.209-4.785,3.007-2.156,3.007,2.156Z" transform="translate(-78.103 -145.354)" fill="#465a61"/>
            <path id="Trazado_600788-2" data-name="Trazado 600788" d="M32.649,31.2H11.9a4.4,4.4,0,0,1-4.4-4.4V11.9a4.4,4.4,0,0,1,4.4-4.4H32.649a4.4,4.4,0,0,1,4.4,4.4V26.791A4.4,4.4,0,0,1,32.649,31.2Z" transform="translate(-7.5 -7.5)" fill="#7a8c98"/>
            <path id="Trazado_600789-2" data-name="Trazado 600789" d="M17.143,31.2H11.906a4.4,4.4,0,0,1-4.4-4.4V11.907a4.405,4.405,0,0,1,4.4-4.4h5.237a4.405,4.405,0,0,0-4.4,4.4V26.792A4.4,4.4,0,0,0,17.143,31.2Z" transform="translate(-7.501 -7.502)" fill="#596c76"/>
            <path id="Trazado_600790-2" data-name="Trazado 600790" d="M16.823,31.2H32.65a4.405,4.405,0,0,0,4.405-4.4V11.906A4.405,4.405,0,0,0,32.65,7.5H11.905a4.4,4.4,0,0,0-4.4,4.4V26.793a4.4,4.4,0,0,0,4.4,4.4h.188" transform="translate(-7.501 -7.502)" fill="none" stroke="#000" stroke-linecap="round" stroke-linejoin="round" stroke-miterlimit="10" stroke-width="2"/>
            <path id="Trazado_600791-2" data-name="Trazado 600791" d="M36.817,52.215a.513.513,0,0,1-.512-.512V36.816a.513.513,0,0,1,.512-.512H57.561a.513.513,0,0,1,.512.512V51.7a.513.513,0,0,1-.512.512H36.817Z" transform="translate(-32.412 -32.412)" fill="#9be69d"/>
            <path id="Trazado_600792-2" data-name="Trazado 600792" d="M36.817,52.215a.513.513,0,0,1-.512-.512V36.816a.513.513,0,0,1,.512-.512H57.561a.513.513,0,0,1,.512.512V51.7a.513.513,0,0,1-.512.512H36.817Z" transform="translate(-32.412 -32.412)" fill="none" stroke="#000" stroke-linecap="round" stroke-linejoin="round" stroke-miterlimit="10" stroke-width="2"/>
            <path id="Trazado_600793-2" data-name="Trazado 600793" d="M97.566,187.631H89.135l1.209-4.785h6.014Z" transform="translate(-78.103 -159.151)" fill="none" stroke="#000" stroke-linecap="round" stroke-linejoin="round" stroke-miterlimit="10" stroke-width="2"/>
            <path id="Trazado_600794-2" data-name="Trazado 600794" d="M76.4,221.95H64.516a1.848,1.848,0,0,1-1.848-1.848h0a1.848,1.848,0,0,1,1.848-1.848H76.4a1.848,1.848,0,0,1,1.848,1.848h0A1.848,1.848,0,0,1,76.4,221.95Z" transform="translate(-55.213 -189.773)" fill="#7a8c98"/>
            <path id="Trazado_600795-2" data-name="Trazado 600795" d="M69.266,221.955H64.517a1.848,1.848,0,1,1,0-3.7h4.749a1.848,1.848,0,0,0,0,3.7Z" transform="translate(-55.213 -189.778)" fill="#596c76"/>
            <path id="Trazado_600796-2" data-name="Trazado 600796" d="M76.4,221.95H64.516a1.848,1.848,0,0,1-1.848-1.848h0a1.848,1.848,0,0,1,1.848-1.848H76.4a1.848,1.848,0,0,1,1.848,1.848h0A1.848,1.848,0,0,1,76.4,221.95Z" transform="translate(-55.213 -189.773)" fill="none" stroke="#000" stroke-linecap="round" stroke-linejoin="round" stroke-miterlimit="10" stroke-width="2"/>
          </g>
          <path id="Trazado_600797-2" data-name="Trazado 600797" d="M82.811,68.065l4.311,4.311L92.01,64.1" transform="translate(-72.634 -56.449)" fill="none" stroke="#000" stroke-linecap="round" stroke-linejoin="round" stroke-miterlimit="10" stroke-width="2"/>
          <path id="Trazado_600798-2" data-name="Trazado 600798" d="M120.328,245.609V252.1a1.9,1.9,0,0,0,1.9,1.9h33.805a1.9,1.9,0,0,0,1.9-1.9v-6.492" transform="translate(-105.081 -213.432)" fill="none" stroke="#000" stroke-linecap="round" stroke-linejoin="round" stroke-miterlimit="10" stroke-width="2"/>
          <line id="Línea_379-2" data-name="Línea 379" y2="15.969" transform="translate(33.581 32.177)" fill="none" stroke="#000" stroke-linecap="round" stroke-linejoin="round" stroke-miterlimit="10" stroke-width="2"/>
          <path id="Trazado_600799-2" data-name="Trazado 600799" d="M181.45,363.782H158.093a1.8,1.8,0,0,0-1.795,1.795V371.5a1.8,1.8,0,0,0,1.795,1.795H181.45a1.8,1.8,0,0,0,1.795-1.795v-5.918A1.8,1.8,0,0,0,181.45,363.782Z" transform="translate(-136.19 -315.636)" fill="#7a8c98"/>
          <path id="Trazado_600800-2" data-name="Trazado 600800" d="M162.12,373.292h-4.027a1.8,1.8,0,0,1-1.795-1.8v-5.918a1.794,1.794,0,0,1,1.795-1.795h4.027a1.794,1.794,0,0,0-1.795,1.795V371.5A1.8,1.8,0,0,0,162.12,373.292Z" transform="translate(-136.19 -315.638)" fill="#596c76"/>
          <path id="Trazado_600801-2" data-name="Trazado 600801" d="M181.45,363.782H158.093a1.8,1.8,0,0,0-1.795,1.795V371.5a1.8,1.8,0,0,0,1.795,1.795H181.45a1.8,1.8,0,0,0,1.795-1.795v-5.918A1.8,1.8,0,0,0,181.45,363.782Z" transform="translate(-136.19 -315.636)" fill="none" stroke="#000" stroke-linecap="round" stroke-linejoin="round" stroke-miterlimit="10" stroke-width="2"/>
          <line id="Línea_380-2" data-name="Línea 380" x2="11.345" transform="translate(23.626 52.9)" fill="none" stroke="#000" stroke-linecap="round" stroke-linejoin="round" stroke-miterlimit="10" stroke-width="2"/>
          <ellipse id="Elipse_5589-2" data-name="Elipse 5589" cx="2.056" cy="2.056" rx="2.056" ry="2.056" transform="translate(38.714 50.844)" fill="#9be69d"/>
          <ellipse id="Elipse_5590-2" data-name="Elipse 5590" cx="2.056" cy="2.056" rx="2.056" ry="2.056" transform="translate(38.714 50.844)" fill="none" stroke="#000" stroke-linecap="round" stroke-linejoin="round" stroke-miterlimit="10" stroke-width="2"/>
          <path id="Trazado_600802-2" data-name="Trazado 600802" d="M181.45,434.141H158.093a1.8,1.8,0,0,0-1.795,1.795v5.918a1.8,1.8,0,0,0,1.795,1.8H181.45a1.8,1.8,0,0,0,1.795-1.8v-5.918A1.8,1.8,0,0,0,181.45,434.141Z" transform="translate(-136.19 -376.487)" fill="#7a8c98"/>
          <path id="Trazado_600803-2" data-name="Trazado 600803" d="M162.12,443.652h-4.027a1.8,1.8,0,0,1-1.795-1.8v-5.918a1.794,1.794,0,0,1,1.795-1.795h4.027a1.794,1.794,0,0,0-1.795,1.795v5.918A1.8,1.8,0,0,0,162.12,443.652Z" transform="translate(-136.19 -376.489)" fill="#596c76"/>
          <path id="Trazado_600804-2" data-name="Trazado 600804" d="M166.028,443.65h15.424a1.794,1.794,0,0,0,1.795-1.795v-5.919a1.794,1.794,0,0,0-1.795-1.795H158.1a1.794,1.794,0,0,0-1.795,1.795v5.919a1.794,1.794,0,0,0,1.795,1.795h3.2" transform="translate(-136.193 -376.488)" fill="none" stroke="#000" stroke-linecap="round" stroke-linejoin="round" stroke-miterlimit="10" stroke-width="2"/>
          <line id="Línea_381-2" data-name="Línea 381" x2="11.345" transform="translate(23.626 62.408)" fill="none" stroke="#000" stroke-linecap="round" stroke-linejoin="round" stroke-miterlimit="10" stroke-width="2"/>
          <ellipse id="Elipse_5591-2" data-name="Elipse 5591" cx="2.056" cy="2.056" rx="2.056" ry="2.056" transform="translate(38.714 60.352)" fill="#9be69d"/>
          <ellipse id="Elipse_5592-2" data-name="Elipse 5592" cx="2.056" cy="2.056" rx="2.056" ry="2.056" transform="translate(38.714 60.352)" fill="none" stroke="#000" stroke-linecap="round" stroke-linejoin="round" stroke-miterlimit="10" stroke-width="2"/>
        </g>
      </g>
      <g id="Grupo_157893" data-name="Grupo 157893" transform="translate(0 -10)">
        <rect id="Rectángulo_45163" data-name="Rectángulo 45163" width="75" height="75" transform="translate(1067 1403)" fill="none"/>
        <g id="server_2_" data-name="server(2)" transform="translate(1070 1405)">
          <path id="Trazado_600805" data-name="Trazado 600805" d="M73.11,8.533H10.839a2.306,2.306,0,0,0-2.306,2.306V24.677a2.306,2.306,0,0,0,2.306,2.306H73.11a2.306,2.306,0,0,0,2.306-2.306V10.839A2.306,2.306,0,0,0,73.11,8.533ZM20.065,17.758a2.306,2.306,0,1,1-2.306-2.306,2.306,2.306,0,0,1,2.306,2.306Z" transform="translate(-7.38 -7.38)" fill="#939598"/>
          <ellipse id="Elipse_5593" data-name="Elipse 5593" cx="2.306" cy="2.306" rx="2.306" ry="2.306" transform="translate(8.072 8.072)" fill="#414042"/>
          <path id="Trazado_600806" data-name="Trazado 600806" d="M20.065,187.733H10.839a2.306,2.306,0,0,0-2.306,2.306v13.838a2.306,2.306,0,0,0,2.306,2.306H73.11a2.306,2.306,0,0,0,2.306-2.306V190.039a2.306,2.306,0,0,0-2.306-2.306Zm0,9.225a2.306,2.306,0,1,1-2.306-2.306,2.306,2.306,0,0,1,2.306,2.306Z" transform="translate(-7.38 -162.364)" fill="#939598"/>
          <ellipse id="Elipse_5594" data-name="Elipse 5594" cx="2.306" cy="2.306" rx="2.306" ry="2.306" transform="translate(8.072 32.288)" fill="#414042"/>
          <path id="Trazado_600807" data-name="Trazado 600807" d="M20.065,366.933H10.839a2.306,2.306,0,0,0-2.306,2.306v13.838a2.306,2.306,0,0,0,2.306,2.306H73.11a2.306,2.306,0,0,0,2.306-2.306V369.239a2.306,2.306,0,0,0-2.306-2.306Zm0,9.225a2.306,2.306,0,1,1-2.306-2.306,2.306,2.306,0,0,1,2.306,2.306Z" transform="translate(-7.38 -317.347)" fill="#939598"/>
          <ellipse id="Elipse_5595" data-name="Elipse 5595" cx="2.306" cy="2.306" rx="2.306" ry="2.306" transform="translate(8.072 56.504)" fill="#414042"/>
          <g id="Grupo_157892" data-name="Grupo 157892" transform="translate(0 0)">
            <path id="Trazado_600808" data-name="Trazado 600808" d="M65.73,20.757A3.459,3.459,0,0,0,69.189,17.3V3.459A3.459,3.459,0,0,0,65.73,0H3.459A3.459,3.459,0,0,0,0,3.459V17.3a3.459,3.459,0,0,0,3.459,3.459H6.919v3.459H3.459A3.459,3.459,0,0,0,0,27.676V41.514a3.459,3.459,0,0,0,3.459,3.459H6.919v3.459H3.459A3.459,3.459,0,0,0,0,51.892V65.73a3.459,3.459,0,0,0,3.459,3.459H65.73a3.459,3.459,0,0,0,3.459-3.459V51.892a3.459,3.459,0,0,0-3.459-3.459H62.27V44.973H65.73a3.459,3.459,0,0,0,3.459-3.459V27.676a3.459,3.459,0,0,0-3.459-3.459H62.27V20.757H65.73ZM2.306,17.3V3.459A1.154,1.154,0,0,1,3.459,2.306H65.73a1.154,1.154,0,0,1,1.153,1.153V17.3A1.154,1.154,0,0,1,65.73,18.45H3.459A1.154,1.154,0,0,1,2.306,17.3Zm11.531,6.919V20.757H55.351v3.459ZM9.225,20.757h2.306v3.459H9.225Zm0,24.216h2.306v3.459H9.225Zm46.126,0v3.459H13.838V44.973Zm11.531,6.919V65.73a1.154,1.154,0,0,1-1.153,1.153H3.459A1.154,1.154,0,0,1,2.306,65.73V51.892a1.154,1.154,0,0,1,1.153-1.153H65.73A1.154,1.154,0,0,1,66.883,51.892Zm-6.919-3.459H57.658V44.973h2.306Zm6.919-20.757V41.514a1.154,1.154,0,0,1-1.153,1.153H3.459a1.154,1.154,0,0,1-1.153-1.153V27.676a1.154,1.154,0,0,1,1.153-1.153H65.73A1.154,1.154,0,0,1,66.883,27.676Zm-6.919-3.459H57.658V20.757h2.306Z" transform="translate(0 0)" fill="#231f20"/>
            <path id="Trazado_600809" data-name="Trazado 600809" d="M57.809,55.808H81.085a1.153,1.153,0,0,0,0-2.306H57.809a3.458,3.458,0,1,0,0,2.306Zm-4.4-1.153a1.153,1.153,0,1,1,1.153,1.153A1.154,1.154,0,0,1,53.409,54.654Z" transform="translate(-44.184 -44.276)" fill="#231f20"/>
            <rect id="Rectángulo_45115" data-name="Rectángulo 45115" width="2.306" height="2.306" transform="translate(50.739 4.613)" fill="#231f20"/>
            <rect id="Rectángulo_45116" data-name="Rectángulo 45116" width="2.306" height="2.306" transform="translate(55.351 4.613)" fill="#231f20"/>
            <rect id="Rectángulo_45117" data-name="Rectángulo 45117" width="2.306" height="2.306" transform="translate(59.964 4.613)" fill="#231f20"/>
            <rect id="Rectángulo_45118" data-name="Rectángulo 45118" width="2.306" height="2.306" transform="translate(46.126 4.613)" fill="#231f20"/>
            <rect id="Rectángulo_45119" data-name="Rectángulo 45119" width="2.306" height="2.306" transform="translate(41.514 4.613)" fill="#231f20"/>
            <rect id="Rectángulo_45120" data-name="Rectángulo 45120" width="2.306" height="2.306" transform="translate(50.739 9.225)" fill="#231f20"/>
            <rect id="Rectángulo_45121" data-name="Rectángulo 45121" width="2.306" height="2.306" transform="translate(55.351 9.225)" fill="#231f20"/>
            <rect id="Rectángulo_45122" data-name="Rectángulo 45122" width="2.306" height="2.306" transform="translate(59.964 9.225)" fill="#231f20"/>
            <rect id="Rectángulo_45123" data-name="Rectángulo 45123" width="2.306" height="2.306" transform="translate(46.126 9.225)" fill="#231f20"/>
            <rect id="Rectángulo_45124" data-name="Rectángulo 45124" width="2.306" height="2.306" transform="translate(41.514 9.225)" fill="#231f20"/>
            <rect id="Rectángulo_45125" data-name="Rectángulo 45125" width="2.306" height="2.306" transform="translate(50.739 13.838)" fill="#231f20"/>
            <rect id="Rectángulo_45126" data-name="Rectángulo 45126" width="2.306" height="2.306" transform="translate(55.351 13.838)" fill="#231f20"/>
            <rect id="Rectángulo_45127" data-name="Rectángulo 45127" width="2.306" height="2.306" transform="translate(59.964 13.838)" fill="#231f20"/>
            <rect id="Rectángulo_45128" data-name="Rectángulo 45128" width="2.306" height="2.306" transform="translate(46.126 13.838)" fill="#231f20"/>
            <rect id="Rectángulo_45129" data-name="Rectángulo 45129" width="2.306" height="2.306" transform="translate(41.514 13.838)" fill="#231f20"/>
            <path id="Trazado_600810" data-name="Trazado 600810" d="M81.084,232.7H57.808a3.461,3.461,0,1,0,0,2.306H81.084a1.153,1.153,0,0,0,0-2.306Zm-26.523,2.306a1.153,1.153,0,1,1,1.153-1.153A1.154,1.154,0,0,1,54.561,235.008Z" transform="translate(-44.183 -199.26)" fill="#231f20"/>
            <rect id="Rectángulo_45130" data-name="Rectángulo 45130" width="2.306" height="2.306" transform="translate(50.739 28.829)" fill="#231f20"/>
            <rect id="Rectángulo_45131" data-name="Rectángulo 45131" width="2.306" height="2.306" transform="translate(55.351 28.829)" fill="#231f20"/>
            <rect id="Rectángulo_45132" data-name="Rectángulo 45132" width="2.306" height="2.306" transform="translate(59.964 28.829)" fill="#231f20"/>
            <rect id="Rectángulo_45133" data-name="Rectángulo 45133" width="2.306" height="2.306" transform="translate(46.126 28.829)" fill="#231f20"/>
            <rect id="Rectángulo_45134" data-name="Rectángulo 45134" width="2.306" height="2.306" transform="translate(41.514 28.829)" fill="#231f20"/>
            <rect id="Rectángulo_45135" data-name="Rectángulo 45135" width="2.306" height="2.306" transform="translate(50.739 33.441)" fill="#231f20"/>
            <rect id="Rectángulo_45136" data-name="Rectángulo 45136" width="2.306" height="2.306" transform="translate(55.351 33.441)" fill="#231f20"/>
            <rect id="Rectángulo_45137" data-name="Rectángulo 45137" width="2.306" height="2.306" transform="translate(59.964 33.441)" fill="#231f20"/>
            <rect id="Rectángulo_45138" data-name="Rectángulo 45138" width="2.306" height="2.306" transform="translate(46.126 33.441)" fill="#231f20"/>
            <rect id="Rectángulo_45139" data-name="Rectángulo 45139" width="2.306" height="2.306" transform="translate(41.514 33.441)" fill="#231f20"/>
            <rect id="Rectángulo_45140" data-name="Rectángulo 45140" width="2.306" height="2.306" transform="translate(50.739 38.054)" fill="#231f20"/>
            <rect id="Rectángulo_45141" data-name="Rectángulo 45141" width="2.306" height="2.306" transform="translate(55.351 38.054)" fill="#231f20"/>
            <rect id="Rectángulo_45142" data-name="Rectángulo 45142" width="2.306" height="2.306" transform="translate(59.964 38.054)" fill="#231f20"/>
            <rect id="Rectángulo_45143" data-name="Rectángulo 45143" width="2.306" height="2.306" transform="translate(46.126 38.054)" fill="#231f20"/>
            <rect id="Rectángulo_45144" data-name="Rectángulo 45144" width="2.306" height="2.306" transform="translate(41.514 38.054)" fill="#231f20"/>
            <path id="Trazado_600811" data-name="Trazado 600811" d="M81.085,411.9H57.809a3.461,3.461,0,1,0,0,2.306H81.085a1.153,1.153,0,0,0,0-2.306Zm-26.523,2.306a1.153,1.153,0,1,1,1.153-1.153A1.154,1.154,0,0,1,54.562,414.208Z" transform="translate(-44.184 -354.244)" fill="#231f20"/>
            <rect id="Rectángulo_45145" data-name="Rectángulo 45145" width="2.306" height="2.306" transform="translate(50.739 53.045)" fill="#231f20"/>
            <rect id="Rectángulo_45146" data-name="Rectángulo 45146" width="2.306" height="2.306" transform="translate(55.351 53.045)" fill="#231f20"/>
            <rect id="Rectángulo_45147" data-name="Rectángulo 45147" width="2.306" height="2.306" transform="translate(59.964 53.045)" fill="#231f20"/>
            <rect id="Rectángulo_45148" data-name="Rectángulo 45148" width="2.306" height="2.306" transform="translate(46.126 53.045)" fill="#231f20"/>
            <rect id="Rectángulo_45149" data-name="Rectángulo 45149" width="2.306" height="2.306" transform="translate(41.514 53.045)" fill="#231f20"/>
            <rect id="Rectángulo_45150" data-name="Rectángulo 45150" width="2.306" height="2.306" transform="translate(50.739 57.658)" fill="#231f20"/>
            <rect id="Rectángulo_45151" data-name="Rectángulo 45151" width="2.306" height="2.306" transform="translate(55.351 57.658)" fill="#231f20"/>
            <rect id="Rectángulo_45152" data-name="Rectángulo 45152" width="2.306" height="2.306" transform="translate(59.964 57.658)" fill="#231f20"/>
            <rect id="Rectángulo_45153" data-name="Rectángulo 45153" width="2.306" height="2.306" transform="translate(46.126 57.658)" fill="#231f20"/>
            <rect id="Rectángulo_45154" data-name="Rectángulo 45154" width="2.306" height="2.306" transform="translate(41.514 57.658)" fill="#231f20"/>
            <rect id="Rectángulo_45155" data-name="Rectángulo 45155" width="2.306" height="2.306" transform="translate(50.739 62.27)" fill="#231f20"/>
            <rect id="Rectángulo_45156" data-name="Rectángulo 45156" width="2.306" height="2.306" transform="translate(55.351 62.27)" fill="#231f20"/>
            <rect id="Rectángulo_45157" data-name="Rectángulo 45157" width="2.306" height="2.306" transform="translate(59.964 62.27)" fill="#231f20"/>
            <rect id="Rectángulo_45158" data-name="Rectángulo 45158" width="2.306" height="2.306" transform="translate(46.126 62.27)" fill="#231f20"/>
            <rect id="Rectángulo_45159" data-name="Rectángulo 45159" width="2.306" height="2.306" transform="translate(41.514 62.27)" fill="#231f20"/>
          </g>
        </g>
      </g>
    </g>
  </g>
</svg>
