<svg xmlns="http://www.w3.org/2000/svg" width="89.976" height="95.467" viewBox="0 0 89.976 95.467">
  <g id="protocolo" transform="translate(-24 -16.021)">
    <path id="Trazado_600599" data-name="Trazado 600599" d="M140.5,44.39h-3.2a12.409,12.409,0,0,0-17-13.042A15.511,15.511,0,1,0,92.151,44.391H87.757a7.757,7.757,0,1,0,0,15.513H140.5a7.757,7.757,0,1,0,0-15.513Z" transform="translate(-45.141 -5.104)" fill="#3397e8"/>
    <circle id="Elipse_5579" data-name="Elipse 5579" cx="3.103" cy="3.103" r="3.103" transform="translate(31.757 98.236)" fill="#2978b8"/>
    <rect id="Rect치ngulo_45085" data-name="Rect치ngulo 45085" width="24.821" height="21.718" rx="10.859" transform="translate(56.577 82.723) rotate(180)" fill="#3397e8"/>
    <path id="Trazado_600600" data-name="Trazado 600600" d="M88.821,328v3.1a3.1,3.1,0,0,1-3.1,3.1H67.1a3.1,3.1,0,0,1-3.1-3.1V328Z" transform="translate(-32.243 -251.482)" fill="#e9eef2"/>
    <path id="Trazado_600601" data-name="Trazado 600601" d="M113.308,366.205H104L105.551,360h6.205Z" transform="translate(-64.487 -277.277)" fill="#dadcde"/>
    <rect id="Rect치ngulo_45086" data-name="Rect치ngulo 45086" width="24.821" height="21.718" rx="10.859" transform="translate(106.219 82.723) rotate(180)" fill="#3397e8"/>
    <path id="Trazado_600602" data-name="Trazado 600602" d="M344.821,328v3.1a3.1,3.1,0,0,1-3.1,3.1H323.1a3.1,3.1,0,0,1-3.1-3.1V328Z" transform="translate(-238.602 -251.482)" fill="#e9eef2"/>
    <path id="Trazado_600603" data-name="Trazado 600603" d="M369.308,366.205H360L361.551,360h6.205Z" transform="translate(-270.845 -277.277)" fill="#dadcde"/>
    <path id="Trazado_600604" data-name="Trazado 600604" d="M198.205,136,192,145.308h3.1v9.308h6.205v-9.308h3.1Z" transform="translate(-135.423 -96.714)" fill="#eb423f"/>
    <path id="Trazado_600605" data-name="Trazado 600605" d="M262.205,154.616l6.205-9.308h-3.1V136H259.1v9.308H256Z" transform="translate(-187.012 -96.714)" fill="#eb423f"/>
    <circle id="Elipse_5580" data-name="Elipse 5580" cx="3.103" cy="3.103" r="3.103" transform="translate(100.014 98.236)" fill="#2978b8"/>
    <path id="Trazado_600606" data-name="Trazado 600606" d="M98.372,59.453h6.205a1.551,1.551,0,0,0,1.551-1.551V56.351h4.858l1.608,2.412a1.551,1.551,0,0,0,2.581,0l1.608-2.412h17.268a9.308,9.308,0,1,0,0-18.616H132.5a13.967,13.967,0,0,0-17.918-13.392A17.068,17.068,0,0,0,83.5,37.735h-2.2a9.308,9.308,0,0,0,0,18.616H96.821V57.9A1.551,1.551,0,0,0,98.372,59.453Zm6.205-12.41a1.551,1.551,0,0,0-1.551,1.551v7.757h-3.1V48.594a1.551,1.551,0,0,0-1.551-1.551h-.2l3.307-4.96,3.307,4.96Zm1.551,6.205v-3.1h.721l2.068,3.1Zm7.757,1.857-3.307-4.96h.2a1.551,1.551,0,0,0,1.551-1.551V40.838h3.1v7.757a1.551,1.551,0,0,0,1.551,1.551h.2ZM81.308,53.248a6.205,6.205,0,1,1,0-12.41h4.4a1.551,1.551,0,0,0,1.421-2.173,13.96,13.96,0,1,1,25.334-11.737,1.551,1.551,0,0,0,1.975.752A10.842,10.842,0,0,1,129.31,39.092a1.551,1.551,0,0,0,1.539,1.745h3.2a6.205,6.205,0,1,1,0,12.41h-15.2l2.529-3.793a1.551,1.551,0,0,0-1.291-2.412h-1.551V39.286a1.551,1.551,0,0,0-1.551-1.551h-6.205a1.551,1.551,0,0,0-1.551,1.551v7.757h-.721l-5.745-8.617a1.551,1.551,0,0,0-2.581,0l-6.205,9.308a1.551,1.551,0,0,0,1.291,2.412h1.551v3.1Z" transform="translate(-38.692)"/>
    <path id="Trazado_600613" data-name="Trazado 600613" d="M24,281.885a1.551,1.551,0,0,0,1.551,1.551h4.921a4.654,4.654,0,1,0,0-3.1H27.1V252.41h3.1v7.757a4.659,4.659,0,0,0,4.654,4.654h4.218L38.008,269.1a1.551,1.551,0,0,0,1.5,1.927h9.308a1.551,1.551,0,0,0,1.5-1.927l-1.069-4.278h4.218a4.661,4.661,0,0,0,4.565-3.748,14.164,14.164,0,0,0,1.075,1.211,1.552,1.552,0,0,0,2.195-2.195,10.864,10.864,0,0,1,0-15.358,1.551,1.551,0,0,0-2.194-2.194,14.162,14.162,0,0,0-1.075,1.211A4.661,4.661,0,0,0,53.475,240H34.859a4.659,4.659,0,0,0-4.654,4.654v4.654H25.551A1.551,1.551,0,0,0,24,250.859Zm10.859-1.551a1.551,1.551,0,1,1-1.551,1.551A1.551,1.551,0,0,1,34.859,280.334Zm6.641-12.41.776-3.1h3.783l.776,3.1Zm-8.192-23.27a1.553,1.553,0,0,1,1.551-1.551H53.475a1.553,1.553,0,0,1,1.551,1.551v10.859H33.308Zm0,13.962H55.026v1.551a1.553,1.553,0,0,1-1.551,1.551H34.859a1.553,1.553,0,0,1-1.551-1.551Z" transform="translate(0 -180.547)"/>
    <path id="Trazado_600614" data-name="Trazado 600614" d="M218.271,284.795a1.551,1.551,0,0,0,2.194-2.194,4.656,4.656,0,0,1,0-6.583,1.551,1.551,0,0,0-2.194-2.194,7.759,7.759,0,0,0,0,10.97Z" transform="translate(-154.769 -207.446)"/>
    <path id="Trazado_600615" data-name="Trazado 600615" d="M273.278,273.824a1.551,1.551,0,0,0-2.194,2.194,4.656,4.656,0,0,1,0,6.583,1.551,1.551,0,1,0,2.194,2.194A7.759,7.759,0,0,0,273.278,273.824Z" transform="translate(-198.805 -207.446)"/>
    <circle id="Elipse_5581" data-name="Elipse 5581" cx="1.551" cy="1.551" r="1.551" transform="translate(67.437 70.312)"/>
    <path id="Trazado_600616" data-name="Trazado 600616" d="M331.02,281.885V250.859a1.551,1.551,0,0,0-1.551-1.551h-4.654v-4.654A4.659,4.659,0,0,0,320.16,240H301.545a4.662,4.662,0,0,0-4.565,3.748,14.167,14.167,0,0,0-1.075-1.211,1.552,1.552,0,1,0-2.195,2.195,10.864,10.864,0,0,1,0,15.358,1.551,1.551,0,1,0,2.194,2.194,14.167,14.167,0,0,0,1.075-1.211,4.662,4.662,0,0,0,4.565,3.748h4.218l-1.069,4.278a1.551,1.551,0,0,0,1.5,1.928h9.308a1.551,1.551,0,0,0,1.5-1.928l-1.069-4.278h4.218a4.659,4.659,0,0,0,4.654-4.654V252.41h3.1v27.924h-3.369a4.654,4.654,0,1,0,0,3.1h4.921A1.551,1.551,0,0,0,331.02,281.885Zm-22.834-13.962.776-3.1h3.783l.776,3.1Zm13.526-7.757a1.553,1.553,0,0,1-1.551,1.551H301.545a1.553,1.553,0,0,1-1.551-1.551v-1.551h21.718Zm0-4.654H299.993V244.654a1.553,1.553,0,0,1,1.551-1.551H320.16a1.553,1.553,0,0,1,1.551,1.551Zm-1.551,27.924a1.551,1.551,0,1,1,1.551-1.551A1.551,1.551,0,0,1,320.16,283.437Z" transform="translate(-217.044 -180.547)"/>
    <path id="Trazado_600617" data-name="Trazado 600617" d="M.984,0H3.833V-12.72h.059L6.267,0H9l2.374-12.72h.059V0h3.087V-16.8H9.858L7.78-4.776H7.721L5.643-16.8H.984ZM26.567,1.56h.861V-.84h-.5c-.594,0-.979-.048-1.217-.384a4.107,4.107,0,0,0,.92-2.76v-8.832c0-2.688-1.751-4.224-4.956-4.224s-4.956,1.536-4.956,4.224v8.832C16.713-1.3,18.464.24,21.67.24a7.468,7.468,0,0,0,2.167-.288C24.222,1.2,25.35,1.56,26.567,1.56Zm-4.9-3.72a1.476,1.476,0,0,1-1.692-1.656v-9.168A1.476,1.476,0,0,1,21.67-14.64a1.476,1.476,0,0,1,1.692,1.656v9.168A1.476,1.476,0,0,1,21.67-2.16ZM31.256,0H34.52V-14.4h3.413v-2.4H27.843v2.4h3.413Zm11.1,0H45.62V-14.4h3.413v-2.4H38.942v2.4h3.413Z" transform="translate(44.776 109.928)"/>
  </g>
</svg>
