<svg xmlns="http://www.w3.org/2000/svg" width="63.287" height="63.349" viewBox="0 0 63.287 63.349">
  <g id="tecnologia" transform="translate(-0.25)">
    <g id="Grupo_157823" data-name="Grupo 157823" transform="translate(1.209 0.928)">
      <g id="Grupo_157814" data-name="Grupo 157814" transform="translate(28.767 1.794)">
        <g id="Grupo_157808" data-name="Grupo 157808" transform="translate(10.579)">
          <path id="Trazado_600618" data-name="Trazado 600618" d="M327.766,38.7A1.89,1.89,0,0,1,326,36.795v-7.99a1.856,1.856,0,0,1,.544-1.312l4.949-4.949A1.855,1.855,0,0,1,332.805,22h11.454a1.89,1.89,0,0,1,1.906,1.766,1.856,1.856,0,0,1-1.854,1.946H333.676a.248.248,0,0,0-.175.073L329.784,29.5a.248.248,0,0,0-.073.175v7.171A1.856,1.856,0,0,1,327.766,38.7Z" transform="translate(-326 -22)" fill="#f8f7f7"/>
        </g>
        <g id="Grupo_157809" data-name="Grupo 157809" transform="translate(10.579 41.201)">
          <path id="Trazado_600619" data-name="Trazado 600619" d="M327.766,355A1.89,1.89,0,0,0,326,356.908v7.99a1.856,1.856,0,0,0,.544,1.312l4.949,4.949a1.856,1.856,0,0,0,1.312.544h11.454a1.89,1.89,0,0,0,1.906-1.766,1.856,1.856,0,0,0-1.854-1.946H333.676a.248.248,0,0,1-.175-.073l-3.717-3.717a.248.248,0,0,1-.073-.175v-7.171A1.856,1.856,0,0,0,327.766,355Z" transform="translate(-326 -355)" fill="#f8f7f7"/>
        </g>
        <g id="Grupo_157810" data-name="Grupo 157810" transform="translate(11.197 13.053)">
          <path id="Trazado_600620" data-name="Trazado 600620" d="M349.43,131.212H332.181c-.652,0-1.181-.831-1.181-1.856s.529-1.856,1.181-1.856H349.43c.652,0,1.181.831,1.181,1.856S350.082,131.212,349.43,131.212Z" transform="translate(-331 -127.5)" fill="#f8f7f7"/>
        </g>
        <g id="Grupo_157811" data-name="Grupo 157811" transform="translate(11.197 41.139)">
          <path id="Trazado_600621" data-name="Trazado 600621" d="M349.43,358.212H332.181c-.652,0-1.181-.831-1.181-1.856s.529-1.856,1.181-1.856H349.43c.652,0,1.181.831,1.181,1.856S350.082,358.212,349.43,358.212Z" transform="translate(-331 -354.5)" fill="#f8f7f7"/>
        </g>
        <g id="Grupo_157812" data-name="Grupo 157812" transform="translate(0.124 13.053)">
          <path id="Trazado_600622" data-name="Trazado 600622" d="M253.875,159.3a1.853,1.853,0,0,1-1.485-.74l-10.517-13.981a1.856,1.856,0,0,1,0-2.225l10.517-14.1a1.856,1.856,0,1,1,2.976,2.219l-9.686,12.991,9.681,12.87a1.856,1.856,0,0,1-1.482,2.972Z" transform="translate(-241.5 -127.501)" fill="#f8f7f7"/>
        </g>
        <g id="Grupo_157813" data-name="Grupo 157813" transform="translate(0 27.096)">
          <path id="Trazado_600623" data-name="Trazado 600623" d="M269.452,244.712h-27.1a1.856,1.856,0,1,1,0-3.712h27.1a1.856,1.856,0,1,1,0,3.712Z" transform="translate(-240.5 -241)" fill="#f8f7f7"/>
        </g>
      </g>
      <g id="Grupo_157822" data-name="Grupo 157822" transform="translate(37.441)">
        <g id="Grupo_157815" data-name="Grupo 157815" transform="translate(16.566)">
          <path id="Trazado_600624" data-name="Trazado 600624" d="M453.476,11.212A3.714,3.714,0,0,0,448.5,7.721a3.977,3.977,0,0,0-.772.563,3.363,3.363,0,0,0-1.457,2.928,3.426,3.426,0,0,0,3.493,3.587,3.606,3.606,0,0,0,3.491-2.323,3.708,3.708,0,0,0,.221-1.264Z" transform="translate(-446.052 -7.5)" fill="#f7e365"/>
          <path id="Trazado_600625" data-name="Trazado 600625" d="M451.7,14.04a3.712,3.712,0,1,1-4.755-4.755A3.714,3.714,0,0,0,451.7,14.04Z" transform="translate(-444.5 -9.064)" fill="#f7e365"/>
        </g>
        <g id="Grupo_157816" data-name="Grupo 157816" transform="translate(16.566 12.991)">
          <path id="Trazado_600626" data-name="Trazado 600626" d="M453.476,116.212a3.714,3.714,0,0,0-4.976-3.491,3.977,3.977,0,0,0-.772.563,3.363,3.363,0,0,0-1.457,2.928,3.426,3.426,0,0,0,3.493,3.587,3.606,3.606,0,0,0,3.491-2.323A3.708,3.708,0,0,0,453.476,116.212Z" transform="translate(-446.052 -112.5)" fill="#f7e365"/>
          <path id="Trazado_600627" data-name="Trazado 600627" d="M451.7,119.04a3.712,3.712,0,1,1-4.755-4.755,3.714,3.714,0,0,0,4.755,4.755Z" transform="translate(-444.5 -114.064)" fill="#f7e365"/>
        </g>
        <g id="Grupo_157817" data-name="Grupo 157817" transform="translate(0 12.991)">
          <path id="Trazado_600628" data-name="Trazado 600628" d="M319.583,116.212a3.714,3.714,0,0,0-4.976-3.491,3.977,3.977,0,0,0-.772.563,3.363,3.363,0,0,0-1.457,2.928,3.426,3.426,0,0,0,3.493,3.587,3.606,3.606,0,0,0,3.491-2.323A3.705,3.705,0,0,0,319.583,116.212Z" transform="translate(-312.159 -112.5)" fill="#f7e365"/>
          <path id="Trazado_600629" data-name="Trazado 600629" d="M317.811,119.04a3.712,3.712,0,1,1-4.755-4.755,3.714,3.714,0,0,0,4.755,4.755Z" transform="translate(-310.608 -114.064)" fill="#f7e365"/>
        </g>
        <g id="Grupo_157818" data-name="Grupo 157818" transform="translate(16.566 27.035)">
          <path id="Trazado_600630" data-name="Trazado 600630" d="M453.476,229.713a3.714,3.714,0,0,0-4.976-3.491,3.977,3.977,0,0,0-.772.563,3.363,3.363,0,0,0-1.457,2.928,3.426,3.426,0,0,0,3.493,3.587,3.606,3.606,0,0,0,3.491-2.323A3.709,3.709,0,0,0,453.476,229.713Z" transform="translate(-446.052 -226.001)" fill="#f7e365"/>
          <path id="Trazado_600631" data-name="Trazado 600631" d="M451.7,232.541a3.712,3.712,0,1,1-4.755-4.755,3.714,3.714,0,0,0,4.755,4.755Z" transform="translate(-444.5 -227.565)" fill="#f7e365"/>
        </g>
        <g id="Grupo_157819" data-name="Grupo 157819" transform="translate(16.566 41.078)">
          <path id="Trazado_600632" data-name="Trazado 600632" d="M453.476,343.212a3.714,3.714,0,0,0-4.976-3.491,3.979,3.979,0,0,0-.772.563,3.363,3.363,0,0,0-1.457,2.928,3.426,3.426,0,0,0,3.493,3.587,3.606,3.606,0,0,0,3.491-2.323A3.708,3.708,0,0,0,453.476,343.212Z" transform="translate(-446.052 -339.5)" fill="#f7e365"/>
          <path id="Trazado_600633" data-name="Trazado 600633" d="M451.7,346.04a3.712,3.712,0,1,1-4.755-4.755,3.714,3.714,0,0,0,4.755,4.755Z" transform="translate(-444.5 -341.064)" fill="#f7e365"/>
        </g>
        <g id="Grupo_157820" data-name="Grupo 157820" transform="translate(0.11 41.078)">
          <path id="Trazado_600634" data-name="Trazado 600634" d="M320.476,343.212a3.714,3.714,0,0,0-4.976-3.491,3.979,3.979,0,0,0-.772.563,3.363,3.363,0,0,0-1.457,2.928,3.426,3.426,0,0,0,3.493,3.587,3.606,3.606,0,0,0,3.491-2.323A3.708,3.708,0,0,0,320.476,343.212Z" transform="translate(-313.052 -339.5)" fill="#f7e365"/>
          <path id="Trazado_600635" data-name="Trazado 600635" d="M318.7,346.04a3.712,3.712,0,1,1-4.755-4.755,3.714,3.714,0,0,0,4.755,4.755Z" transform="translate(-311.5 -341.064)" fill="#f7e365"/>
        </g>
        <g id="Grupo_157821" data-name="Grupo 157821" transform="translate(16.566 54.032)">
          <path id="Trazado_600636" data-name="Trazado 600636" d="M453.476,447.912a3.714,3.714,0,0,0-4.976-3.491,3.977,3.977,0,0,0-.772.563,3.363,3.363,0,0,0-1.457,2.928,3.426,3.426,0,0,0,3.493,3.587,3.606,3.606,0,0,0,3.491-2.323A3.708,3.708,0,0,0,453.476,447.912Z" transform="translate(-446.052 -444.2)" fill="#f7e365"/>
          <path id="Trazado_600637" data-name="Trazado 600637" d="M451.7,450.74a3.712,3.712,0,1,1-4.755-4.755,3.714,3.714,0,0,0,4.755,4.755Z" transform="translate(-444.5 -445.764)" fill="#f7e365"/>
        </g>
      </g>
      <path id="Trazado_600638" data-name="Trazado 600638" d="M39.509,23.92a1.234,1.234,0,0,1-1.076.788c-6.743.4-12.238,6.571-12.238,13.415s5.5,13.058,12.238,13.462a1.234,1.234,0,0,1,1.077.791l2.167,4.194,2.1,5.466,1.37,3.969a1.233,1.233,0,0,1,.07.621,2.488,2.488,0,0,1-2.46,2.119H36.491A2.487,2.487,0,0,1,34,66.259V63.58a2.485,2.485,0,0,0-1.7-2.359,33.069,33.069,0,0,1-3.9-1.36,2.486,2.486,0,0,0-2.877.46l-1.9,1.9c-.971.971-1.928,1.219-2.9.247l-4.954-4.953a2.49,2.49,0,0,1,0-3.518l1.9-1.9a2.486,2.486,0,0,0,.46-2.877,28.906,28.906,0,0,1-1.607-3.529,2.485,2.485,0,0,0-2.359-1.7H11.487A2.487,2.487,0,0,1,9,41.5V34.991A2.487,2.487,0,0,1,11.487,32.5h2.679A2.582,2.582,0,0,0,16.4,30.553a24.313,24.313,0,0,1,1.36-3.281A2.486,2.486,0,0,0,17.3,24.4l-1.9-1.9a2.49,2.49,0,0,1,0-3.518l4.954-4.954a2.49,2.49,0,0,1,3.518,0l1.9,1.9a2.486,2.486,0,0,0,2.877.46,24.313,24.313,0,0,1,3.281-1.36,2.485,2.485,0,0,0,1.7-2.359V9.987A2.487,2.487,0,0,1,36.12,7.5H43a2.488,2.488,0,0,1,2.46,2.117,1.23,1.23,0,0,1-.071.625l-3.75,9.7Z" transform="translate(-8.876 -7.5)" fill="#7398d4"/>
      <path id="Trazado_600639" data-name="Trazado 600639" d="M44.585,231.271a2.488,2.488,0,0,1-2.46,2.119H35.244a2.487,2.487,0,0,1-2.487-2.487v-2.679a2.485,2.485,0,0,0-1.7-2.359,24.309,24.309,0,0,1-3.281-1.36,2.486,2.486,0,0,0-2.877.46l-1.9,1.9a2.487,2.487,0,0,1-3.518,0l-4.954-4.953a2.49,2.49,0,0,1,0-3.518l1.9-1.9a2.486,2.486,0,0,0,.46-2.877,24.312,24.312,0,0,1-1.36-3.281,2.485,2.485,0,0,0-2.359-1.7H10.487A2.487,2.487,0,0,1,8,206.147v-7.005a2.487,2.487,0,0,1,2.487-2.487h2.679a2.483,2.483,0,0,0,2.3-1.544q-.043.792-.042,1.595A29.822,29.822,0,0,0,42.9,226.433l1.617,4.217A1.224,1.224,0,0,1,44.585,231.271Z" transform="translate(-8 -171.897)" fill="#4172ca"/>
      <path id="Trazado_600640" data-name="Trazado 600640" d="M127.552,143.758c-.619.061-1.5.113-2.117.113a18.435,18.435,0,0,1,0-36.871c.528,0,1.539.083,2.079.129l-1.783,4.613a1.234,1.234,0,0,1-1.076.788,12.868,12.868,0,0,0,0,25.688,1.233,1.233,0,0,1,1.078.791Z" transform="translate(-94.751 -94.689)" fill="#4172ca"/>
      <path id="Trazado_600641" data-name="Trazado 600641" d="M198.78,203.424a7.132,7.132,0,0,1,2.8-6.066A7.425,7.425,0,0,1,212.1,207.441a7.225,7.225,0,0,1-6.244,3.181A6.947,6.947,0,0,1,198.78,203.424Z" transform="translate(-175.175 -172.677)" fill="#f7e365"/>
      <path id="Trazado_600642" data-name="Trazado 600642" d="M209.668,215.792a7.425,7.425,0,1,1-10.262-10.262,7.426,7.426,0,0,0,10.262,10.262Z" transform="translate(-172.739 -181.028)" fill="#e3cc39"/>
    </g>
    <g id="Grupo_157824" data-name="Grupo 157824" transform="translate(0.25 0)">
      <path id="Trazado_600643" data-name="Trazado 600643" d="M210.89,20.415h9.037a4.64,4.64,0,1,0,0-5.568H210.89a4.678,4.678,0,0,0-.987-.97v-3.2l3.318-3.318h6.661a4.64,4.64,0,1,0,.093-5.568h-7.908a2.766,2.766,0,0,0-1.968.815L205.15,7.559a2.766,2.766,0,0,0-.815,1.969v4.444a4.7,4.7,0,0,0-1.6,4.972l-3.567,4.784a8.351,8.351,0,1,0-.041,15.91l3.6,4.789a4.629,4.629,0,0,0,1.61,4.953v4.444a2.766,2.766,0,0,0,.815,1.969l4.949,4.949a2.766,2.766,0,0,0,1.969.815h7.908a4.639,4.639,0,1,0-.093-5.568h-6.661L209.9,52.668v-3.2a4.682,4.682,0,0,0,.987-.97h9.037a4.64,4.64,0,1,0,0-5.568H210.89a4.635,4.635,0,0,0-3.709-1.856h-.006l-3.61-4.8a8.325,8.325,0,0,0,.91-1.821h15.452a4.64,4.64,0,1,0,0-5.568h-5.389a.928.928,0,0,0,0,1.856h4.552a4.857,4.857,0,0,0,0,1.856H204.9a8.577,8.577,0,0,0,0-1.856h5.188a.928.928,0,1,0,0-1.856h-5.614a8.324,8.324,0,0,0-.886-1.784l3.606-4.836a4.636,4.636,0,0,0,3.7-1.856Zm12.746-5.568a2.784,2.784,0,1,1-2.784,2.784A2.787,2.787,0,0,1,223.636,14.847ZM211.727,16.7h7.363a4.858,4.858,0,0,0,0,1.856h-7.363a4.656,4.656,0,0,0,0-1.856ZM223.636,1.856a2.784,2.784,0,1,1-2.784,2.784A2.787,2.787,0,0,1,223.636,1.856Zm0,54.069a2.784,2.784,0,1,1-2.784,2.784A2.787,2.787,0,0,1,223.636,55.925Zm0-12.991a2.784,2.784,0,1,1-2.784,2.784A2.787,2.787,0,0,1,223.636,42.934Zm-11.909,1.856h7.363a4.858,4.858,0,0,0,0,1.856h-7.363A4.857,4.857,0,0,0,211.727,44.789Zm11.909-15.9a2.784,2.784,0,1,1-2.784,2.784A2.787,2.787,0,0,1,223.636,28.89ZM206.191,9.527a.922.922,0,0,1,.272-.656l4.949-4.949a.922.922,0,0,1,.656-.272H219.1a4.607,4.607,0,0,0-.025,1.856h-6.242a.928.928,0,0,0-.656.272L208.318,9.64a.928.928,0,0,0-.272.656v2.778a4.788,4.788,0,0,0-1.856.025ZM196.6,38.17a6.5,6.5,0,1,1,6.5-6.5A6.5,6.5,0,0,1,196.6,38.17Zm15.579,19.4a.928.928,0,0,0,.656.272h6.242A4.788,4.788,0,0,0,219.1,59.7h-7.036a.922.922,0,0,1-.656-.272l-4.949-4.949a.922.922,0,0,1-.272-.656V50.25a4.862,4.862,0,0,0,1.856.025v2.778a.928.928,0,0,0,.272.656Zm-5-14.637a2.784,2.784,0,1,1-2.784,2.784A2.787,2.787,0,0,1,207.18,42.934Zm-1.991-1.406a4.665,4.665,0,0,0-1.482,1.118l-2.85-3.789a8.4,8.4,0,0,0,1.48-1.12ZM202.366,25.64a8.4,8.4,0,0,0-1.474-1.128l2.829-3.794a4.662,4.662,0,0,0,1.487,1.111Zm2.03-8.009a2.784,2.784,0,1,1,2.784,2.784A2.787,2.787,0,0,1,204.4,17.631Z" transform="translate(-164.989 0)"/>
      <path id="Trazado_600644" data-name="Trazado 600644" d="M29.635,61.493H28.422a1.561,1.561,0,0,1-1.559-1.559V57.255a3.407,3.407,0,0,0-2.34-3.24,23.485,23.485,0,0,1-3.156-1.308,3.409,3.409,0,0,0-3.95.633l-1.9,1.9a1.56,1.56,0,0,1-2.205,0L8.362,50.283a1.563,1.563,0,0,1,0-2.205l1.9-1.9a3.409,3.409,0,0,0,.633-3.95,23.472,23.472,0,0,1-1.308-3.156,3.407,3.407,0,0,0-3.24-2.34H3.665a1.561,1.561,0,0,1-1.559-1.559V28.172a1.561,1.561,0,0,1,1.559-1.559H6.344a3.407,3.407,0,0,0,3.24-2.34,23.485,23.485,0,0,1,1.308-3.156,3.409,3.409,0,0,0-.633-3.95l-1.9-1.895a1.563,1.563,0,0,1,0-2.206l4.954-4.954a1.563,1.563,0,0,1,2.205,0l1.9,1.9a3.409,3.409,0,0,0,3.95.633,23.455,23.455,0,0,1,3.156-1.308,3.407,3.407,0,0,0,2.34-3.24V3.415a1.561,1.561,0,0,1,1.559-1.559H35.3a1.567,1.567,0,0,1,1.542,1.326.3.3,0,0,1-.019.153l-.941,2.433a.928.928,0,0,0,1.731.669L38.557,4a2.162,2.162,0,0,0,.124-1.1A3.434,3.434,0,0,0,35.3,0H28.422a3.419,3.419,0,0,0-3.415,3.415V6.094a1.554,1.554,0,0,1-1.068,1.479,25.352,25.352,0,0,0-3.407,1.412,1.556,1.556,0,0,1-1.8-.287l-1.9-1.9A3.422,3.422,0,0,0,12,6.8L7.049,11.754a3.422,3.422,0,0,0,0,4.83l1.9,1.9a1.556,1.556,0,0,1,.288,1.8,25.35,25.35,0,0,0-1.412,3.407,1.554,1.554,0,0,1-1.478,1.067H3.665A3.419,3.419,0,0,0,.25,28.172v7.005a3.419,3.419,0,0,0,3.415,3.415H6.344a1.554,1.554,0,0,1,1.479,1.068,25.352,25.352,0,0,0,1.412,3.407,1.556,1.556,0,0,1-.287,1.8l-1.9,1.9a3.422,3.422,0,0,0,0,4.83L12,56.548a3.419,3.419,0,0,0,4.83,0l1.9-1.9a1.556,1.556,0,0,1,1.8-.287,25.35,25.35,0,0,0,3.407,1.412,1.554,1.554,0,0,1,1.067,1.478v2.679a3.419,3.419,0,0,0,3.415,3.415h1.214a.928.928,0,1,0,0-1.856Z" transform="translate(-0.25 0)"/>
      <path id="Trazado_600645" data-name="Trazado 600645" d="M119.774,110.187a2.166,2.166,0,0,0-1.888-1.385,11.94,11.94,0,0,1,0-23.836,2.167,2.167,0,0,0,1.886-1.379l3.03-7.836a.928.928,0,1,0-1.731-.669l-.989,2.558c-.488-.037-.982-.056-1.471-.056A19.385,19.385,0,0,0,99.25,96.946a19.17,19.17,0,0,0,4.112,11.932.928.928,0,0,0,1.461-1.144,17.332,17.332,0,0,1-3.717-10.787,17.527,17.527,0,0,1,17.507-17.507c.256,0,.512.006.769.017l-1.339,3.462a.306.306,0,0,1-.266.2,13.8,13.8,0,0,0,0,27.541.307.307,0,0,1,.266.2l1.374,3.583a17.491,17.491,0,0,1-11.687-3.775.928.928,0,1,0-1.155,1.453,19.285,19.285,0,0,0,13.539,4.14l3.465,9.033a.3.3,0,0,1,.019.153,1.566,1.566,0,0,1-1.542,1.327h-1.338a.928.928,0,1,0,0,1.856h1.338a3.433,3.433,0,0,0,3.378-2.911,2.162,2.162,0,0,0-.122-1.09Z" transform="translate(-87.001 -65.272)"/>
    </g>
  </g>
</svg>
